<svg width="20" height="20" viewBox="0 0 20 20" fill="none" xmlns="http://www.w3.org/2000/svg">
<path d="M5.29171 10.0221C5.29171 10.7432 5.44178 11.4086 5.74192 12.0181C6.04219 12.6279 6.52032 13.2196 7.17629 13.7934V12.7821C7.17629 12.6286 7.22782 12.5 7.33087 12.3961C7.43393 12.2923 7.56157 12.2404 7.71379 12.2404C7.86615 12.2404 7.99525 12.2923 8.10108 12.3961C8.20678 12.5 8.25962 12.6286 8.25962 12.7821V15.0577C8.25962 15.2475 8.19546 15.4065 8.06712 15.535C7.93865 15.6634 7.77955 15.7275 7.58983 15.7275H5.31421C5.16074 15.7275 5.03205 15.676 4.92817 15.5729C4.82442 15.47 4.77254 15.3424 4.77254 15.19C4.77254 15.0377 4.82442 14.9086 4.92817 14.8029C5.03205 14.6971 5.16074 14.6442 5.31421 14.6442H6.4665C5.69719 13.9604 5.12851 13.2373 4.76046 12.4748C4.3924 11.7122 4.20837 10.897 4.20837 10.0292C4.20837 8.8903 4.50324 7.85662 5.09296 6.92815C5.68268 5.99954 6.46296 5.30023 7.43379 4.83023C7.56879 4.75967 7.70115 4.75481 7.83087 4.81565C7.96074 4.87662 8.0524 4.97898 8.10587 5.12273C8.15921 5.26634 8.15796 5.4053 8.10212 5.53961C8.04643 5.67377 7.95046 5.77592 7.81421 5.84606C7.05768 6.24329 6.4481 6.81329 5.98546 7.55606C5.52296 8.29884 5.29171 9.12085 5.29171 10.0221ZM15.2507 10.0161C15.1007 10.0161 14.9659 9.96419 14.8463 9.86044C14.7266 9.75683 14.6539 9.62815 14.6282 9.4744C14.5577 8.84301 14.3805 8.26315 14.0963 7.73481C13.812 7.20648 13.3878 6.69981 12.8238 6.21481V7.21794C12.8238 7.37141 12.7723 7.50009 12.6692 7.60398C12.5662 7.70773 12.4385 7.75961 12.2863 7.75961C12.1339 7.75961 12.0048 7.70773 11.899 7.60398C11.7933 7.50009 11.7405 7.37141 11.7405 7.21794V4.94231C11.7405 4.75259 11.8046 4.59349 11.933 4.46502C12.0614 4.33669 12.2205 4.27252 12.4102 4.27252H14.6859C14.8393 4.27252 14.968 4.32405 15.0719 4.4271C15.1757 4.53002 15.2275 4.65766 15.2275 4.81002C15.2275 4.96238 15.1757 5.09141 15.0719 5.19711C14.968 5.30294 14.8393 5.35586 14.6859 5.35586H13.5336C14.2002 5.92947 14.7227 6.5678 15.1011 7.27085C15.4793 7.97391 15.7036 8.70842 15.774 9.4744C15.7911 9.62815 15.7456 9.75683 15.6375 9.86044C15.5295 9.96419 15.4005 10.0161 15.2507 10.0161ZM12.5642 17.8877C12.4385 17.8877 12.3291 17.8412 12.2359 17.7481C12.1428 17.655 12.0963 17.5455 12.0963 17.4198V14.5481C12.0963 14.4225 12.1428 14.313 12.2359 14.2198C12.3291 14.1268 12.4385 14.0802 12.5642 14.0802H13.1042V13.0802C13.1042 12.6988 13.2408 12.3695 13.514 12.0921C13.7873 11.8149 14.1202 11.6763 14.5125 11.6763C14.9049 11.6763 15.2362 11.8149 15.5065 12.0921C15.7768 12.3695 15.9119 12.6988 15.9119 13.0802V14.0802H16.4519C16.58 14.0802 16.6873 14.1268 16.774 14.2198C16.8605 14.313 16.9038 14.4225 16.9038 14.5481V17.4198C16.9038 17.5455 16.8573 17.655 16.7642 17.7481C16.671 17.8412 16.5616 17.8877 16.4359 17.8877H12.5642ZM13.758 14.0802H15.258V13.0802C15.258 12.8677 15.1866 12.6896 15.0438 12.5459C14.9009 12.4021 14.7238 12.3302 14.5125 12.3302C14.3012 12.3302 14.1225 12.4021 13.9767 12.5459C13.8309 12.6896 13.758 12.8677 13.758 13.0802V14.0802Z" fill="currentColor"/>
</svg>
