<svg width="24" height="24" viewBox="0 0 24 24" fill="none" xmlns="http://www.w3.org/2000/svg">
<path d="M16.2212 3.46149C17.7084 3.46149 18.96 4.02049 19.976 5.13849C20.992 6.25649 21.5 7.5949 21.5 9.15374C21.5 9.46657 21.4785 9.77682 21.4355 10.0845C21.3925 10.3923 21.3197 10.6975 21.2173 11H15.525L13.825 8.44999C13.7417 8.31665 13.625 8.20832 13.475 8.12499C13.325 8.04165 13.1667 7.99999 13 7.99999C12.7833 7.99999 12.5875 8.06665 12.4125 8.19999C12.2375 8.33332 12.1167 8.49999 12.05 8.69999L10.7 12.75L9.825 11.45C9.74167 11.3167 9.625 11.2083 9.475 11.125C9.325 11.0417 9.16667 11 9 11H2.78275C2.68025 10.7038 2.6075 10.4019 2.5645 10.0942C2.5215 9.78657 2.5 9.4814 2.5 9.17874C2.5 7.60324 3.00383 6.25649 4.0115 5.13849C5.01917 4.02049 6.26658 3.46149 7.75375 3.46149C8.49608 3.46149 9.20217 3.61024 9.872 3.90774C10.542 4.20524 11.1392 4.62765 11.6635 5.17499L12 5.53074L12.3173 5.19424C12.8378 4.6404 13.4346 4.21315 14.1077 3.91249C14.7808 3.61182 15.4852 3.46149 16.2212 3.46149ZM12 20.5095C11.7705 20.5095 11.5471 20.4666 11.3298 20.3807C11.1124 20.2949 10.9211 20.1661 10.7558 19.9942L4.248 13.4615C4.17367 13.3872 4.1045 13.3128 4.0405 13.2385C3.97633 13.1642 3.91225 13.0847 3.84825 13H8.45L10.15 15.55C10.2333 15.6833 10.35 15.7917 10.5 15.875C10.65 15.9583 10.8083 16 10.975 16C11.1917 16 11.3917 15.9333 11.575 15.8C11.7583 15.6667 11.8833 15.5 11.95 15.3L13.3 11.25L14.15 12.55C14.25 12.6833 14.375 12.7917 14.525 12.875C14.675 12.9583 14.8333 13 15 13H20.1365C20.0723 13.0743 20.0083 13.1487 19.9443 13.223C19.8801 13.2973 19.816 13.3717 19.752 13.4462L13.2193 19.9942C13.0474 20.1661 12.8586 20.2949 12.6528 20.3807C12.4471 20.4666 12.2295 20.5095 12 20.5095Z" fill="currentColor"/>
</svg>
