<svg width="24" height="24" viewBox="0 0 24 24" fill="none" xmlns="http://www.w3.org/2000/svg">
<path d="M9.72496 15.1405L17.3635 7.502C17.494 7.36983 17.6468 7.30216 17.822 7.299C17.997 7.29583 18.1537 7.3635 18.2922 7.502C18.4307 7.6405 18.5 7.79433 18.5 7.96349C18.5 8.13283 18.434 8.28349 18.302 8.41549L10.3077 16.4212C10.145 16.5852 9.95538 16.6672 9.73871 16.6672C9.52188 16.6672 9.33138 16.5852 9.16721 16.4212L5.71721 12.9712C5.58521 12.8391 5.51605 12.6874 5.50971 12.5162C5.50321 12.3452 5.56921 12.1905 5.70771 12.052C5.84621 11.9135 6.0008 11.8442 6.17146 11.8442C6.34213 11.8442 6.49396 11.9135 6.62696 12.052L9.72496 15.1405Z" fill="currentColor"/>
</svg>
