<svg width="16" height="16" viewBox="0 0 16 16" fill="none" xmlns="http://www.w3.org/2000/svg">
<path d="M8.00004 7.01919L5.15137 9.86803C5.05904 9.96025 4.95687 10.0075 4.84487 10.0097C4.73298 10.0118 4.62871 9.96458 4.53204 9.86803C4.43548 9.77136 4.38721 9.66814 4.38721 9.55836C4.38721 9.44858 4.43548 9.34536 4.53204 9.24869L7.62821 6.15253C7.73765 6.04319 7.8616 5.98853 8.00004 5.98853C8.13848 5.98853 8.26243 6.04319 8.37187 6.15253L11.468 9.24869C11.5603 9.34103 11.6075 9.44041 11.6097 9.54686C11.6118 9.65319 11.5646 9.75469 11.468 9.85136C11.3714 9.94791 11.2682 9.99619 11.1584 9.99619C11.0486 9.99619 10.9454 9.94791 10.8487 9.85136L8.00004 7.01919Z" fill="currentColor"/>
</svg>
