<svg width="20" height="20" viewBox="0 0 20 20" fill="none" xmlns="http://www.w3.org/2000/svg">
<path d="M5 15.8335H7.78854V11.6347C7.78854 11.4214 7.86069 11.2425 8.005 11.0981C8.14944 10.9537 8.32833 10.8816 8.54167 10.8816H11.4583C11.6717 10.8816 11.8506 10.9537 11.995 11.0981C12.1393 11.2425 12.2115 11.4214 12.2115 11.6347V15.8335H15V8.46159C15 8.41895 14.9906 8.38027 14.9719 8.34555C14.9533 8.31083 14.9279 8.28006 14.8958 8.25326L10.1523 4.68763C10.1095 4.65027 10.0588 4.63159 10 4.63159C9.94125 4.63159 9.89049 4.65027 9.84771 4.68763L5.10417 8.25326C5.07208 8.28006 5.04674 8.31083 5.02813 8.34555C5.00938 8.38027 5 8.41895 5 8.46159V15.8335ZM3.75 15.8335V8.46159C3.75 8.22312 3.80333 7.99722 3.91 7.78388C4.01681 7.57041 4.16431 7.39465 4.3525 7.25659L9.09625 3.68284C9.35944 3.48201 9.66028 3.38159 9.99875 3.38159C10.3372 3.38159 10.6389 3.48201 10.9038 3.68284L15.6475 7.25659C15.8357 7.39465 15.9832 7.57041 16.09 7.78388C16.1967 7.99722 16.25 8.22312 16.25 8.46159V15.8335C16.25 16.1743 16.1269 16.4678 15.8806 16.7141C15.6344 16.9603 15.3408 17.0835 15 17.0835H11.7148C11.5013 17.0835 11.3224 17.0112 11.1781 16.8668C11.0337 16.7225 10.9615 16.5436 10.9615 16.3301V12.1316H9.03854V16.3301C9.03854 16.5436 8.96632 16.7225 8.82188 16.8668C8.67757 17.0112 8.49868 17.0835 8.28521 17.0835H5C4.65917 17.0835 4.36562 16.9603 4.11937 16.7141C3.87312 16.4678 3.75 16.1743 3.75 15.8335Z" fill="currentColor"/>
</svg>
