<svg width="24" height="24" viewBox="0 0 24 24" fill="none" xmlns="http://www.w3.org/2000/svg">
<path d="M12.305 20.1501C12.1221 20.1501 11.9673 20.0878 11.8405 19.9631C11.7135 19.8386 11.65 19.6843 11.65 19.5001V15.3001C11.65 15.1159 11.7118 14.9616 11.8355 14.8371C11.9591 14.7124 12.1123 14.6501 12.295 14.6501C12.4778 14.6501 12.6326 14.7124 12.7595 14.8371C12.8865 14.9616 12.95 15.1159 12.95 15.3001V16.7501H19.493C19.6768 16.7501 19.8322 16.8119 19.9592 16.9356C20.0864 17.0593 20.15 17.2124 20.15 17.3951C20.15 17.5779 20.0876 17.7328 19.963 17.8596C19.8385 17.9866 19.6841 18.0501 19.5 18.0501H12.95V19.5001C12.95 19.6843 12.8881 19.8386 12.7645 19.9631C12.6408 20.0878 12.4876 20.1501 12.305 20.1501ZM4.49998 18.0501C4.31581 18.0501 4.16148 17.9883 4.03698 17.8646C3.91231 17.7409 3.84998 17.5878 3.84998 17.4051C3.84998 17.2223 3.91231 17.0674 4.03698 16.9406C4.16148 16.8136 4.31581 16.7501 4.49998 16.7501H8.69998C8.88414 16.7501 9.03848 16.8119 9.16298 16.9356C9.28764 17.0593 9.34998 17.2124 9.34998 17.3951C9.34998 17.5779 9.28764 17.7328 9.16298 17.8596C9.03848 17.9866 8.88414 18.0501 8.69998 18.0501H4.49998ZM8.10498 14.7501C7.92214 14.7501 7.76731 14.6878 7.64048 14.5631C7.51348 14.4386 7.44998 14.2843 7.44998 14.1001V12.6501H4.50648C4.32298 12.6501 4.16773 12.5883 4.04073 12.4646C3.91356 12.3409 3.84998 12.1878 3.84998 12.0051C3.84998 11.8223 3.91231 11.6674 4.03698 11.5406C4.16148 11.4136 4.31581 11.3501 4.49998 11.3501H7.44998V9.9001C7.44998 9.71593 7.51181 9.5616 7.63548 9.4371C7.75914 9.31243 7.91231 9.2501 8.09498 9.2501C8.27781 9.2501 8.43264 9.31243 8.55948 9.4371C8.68648 9.5616 8.74998 9.71593 8.74998 9.9001V14.1001C8.74998 14.2843 8.68814 14.4386 8.56448 14.5631C8.44081 14.6878 8.28764 14.7501 8.10498 14.7501ZM11.7 12.6501C11.5158 12.6501 11.3615 12.5883 11.237 12.4646C11.1123 12.3409 11.05 12.1878 11.05 12.0051C11.05 11.8223 11.1123 11.6674 11.237 11.5406C11.3615 11.4136 11.5158 11.3501 11.7 11.3501H19.5C19.6841 11.3501 19.8385 11.4119 19.963 11.5356C20.0876 11.6593 20.15 11.8124 20.15 11.9951C20.15 12.1779 20.0876 12.3328 19.963 12.4596C19.8385 12.5866 19.6841 12.6501 19.5 12.6501H11.7ZM15.305 9.3501C15.1221 9.3501 14.9673 9.28777 14.8405 9.1631C14.7135 9.0386 14.65 8.88426 14.65 8.7001V4.5001C14.65 4.31593 14.7118 4.1616 14.8355 4.0371C14.9591 3.91243 15.1123 3.8501 15.295 3.8501C15.4778 3.8501 15.6326 3.91243 15.7595 4.0371C15.8865 4.1616 15.95 4.31593 15.95 4.5001V5.9501H19.5C19.6841 5.9501 19.8385 6.01193 19.963 6.1356C20.0876 6.25926 20.15 6.41243 20.15 6.5951C20.15 6.77793 20.0876 6.93277 19.963 7.0596C19.8385 7.1866 19.6841 7.2501 19.5 7.2501H15.95V8.7001C15.95 8.88426 15.8881 9.0386 15.7645 9.1631C15.6408 9.28777 15.4876 9.3501 15.305 9.3501ZM4.49998 7.2501C4.31581 7.2501 4.16148 7.18827 4.03698 7.0646C3.91231 6.94093 3.84998 6.78777 3.84998 6.6051C3.84998 6.42227 3.91231 6.26743 4.03698 6.1406C4.16148 6.0136 4.31581 5.9501 4.49998 5.9501H12.3C12.4841 5.9501 12.6385 6.01193 12.763 6.1356C12.8876 6.25926 12.95 6.41243 12.95 6.5951C12.95 6.77793 12.8876 6.93277 12.763 7.0596C12.6385 7.1866 12.4841 7.2501 12.3 7.2501H4.49998Z" fill="currentColor"/>
</svg>
