<svg width="20" height="20" viewBox="0 0 20 20" fill="none" xmlns="http://www.w3.org/2000/svg">
<path d="M3.61709 14.5592C3.44225 14.5592 3.29573 14.5006 3.17753 14.3833C3.05918 14.2659 3 14.1204 3 13.9468C3 13.7734 3.05918 13.6264 3.17753 13.5059C3.29573 13.3854 3.44225 13.3252 3.61709 13.3252H17.3829C17.5578 13.3252 17.7043 13.3839 17.8225 13.5011C17.9408 13.6185 18 13.764 18 13.9376C18 14.111 17.9408 14.258 17.8225 14.3786C17.7043 14.499 17.5578 14.5592 17.3829 14.5592H3.61709ZM3.61709 10.3967C3.44225 10.3967 3.29573 10.338 3.17753 10.2206C3.05918 10.1032 3 9.95775 3 9.78434C3 9.61076 3.05918 9.46377 3.17753 9.34335C3.29573 9.22278 3.44225 9.1625 3.61709 9.1625H17.3829C17.5578 9.1625 17.7043 9.2212 17.8225 9.33861C17.9408 9.45601 18 9.60142 18 9.77484C18 9.94842 17.9408 10.0954 17.8225 10.2158C17.7043 10.3364 17.5578 10.3967 17.3829 10.3967H3.61709ZM3.61709 6.23394C3.44225 6.23394 3.29573 6.17532 3.17753 6.05807C3.05918 5.94066 3 5.79517 3 5.6216C3 5.44818 3.05918 5.30119 3.17753 5.18062C3.29573 5.06021 3.44225 5 3.61709 5H17.3829C17.5578 5 17.7043 5.05862 17.8225 5.17587C17.9408 5.29328 18 5.43877 18 5.61234C18 5.78576 17.9408 5.93275 17.8225 6.05332C17.7043 6.17373 17.5578 6.23394 17.3829 6.23394H3.61709Z" fill="currentColor"/>
</svg>
