<svg width="24" height="24" viewBox="0 0 24 24" fill="none" xmlns="http://www.w3.org/2000/svg">
<path d="M20.6615 14.75H3.33323C3.15756 14.75 3.00614 14.6882 2.87898 14.5645C2.75198 14.4409 2.68848 14.2877 2.68848 14.105C2.68848 13.9222 2.75073 13.7674 2.87523 13.6405C2.99989 13.5135 3.15431 13.45 3.33848 13.45H20.6667C20.8424 13.45 20.9938 13.5119 21.121 13.6355C21.248 13.7592 21.3115 13.9124 21.3115 14.095C21.3115 14.2779 21.2492 14.4327 21.1247 14.5595C21.0001 14.6865 20.8456 14.75 20.6615 14.75ZM14.5 7.90002H17.4L13.7 4.20002V7.10002C13.7 7.32669 13.7766 7.51669 13.93 7.67002C14.0833 7.82336 14.2733 7.90002 14.5 7.90002ZM6.90773 21.1C6.47723 21.1 6.10164 20.9426 5.78098 20.6278C5.46031 20.3129 5.29998 19.9344 5.29998 19.4923V17.3538C5.29998 17.1261 5.37698 16.9352 5.53098 16.781C5.68498 16.627 5.87581 16.55 6.10348 16.55H17.8887C18.1164 16.55 18.3085 16.627 18.465 16.781C18.6216 16.9352 18.7 17.1261 18.7 17.3538V19.4923C18.7 19.9344 18.5396 20.3129 18.219 20.6278C17.8983 20.9426 17.5227 21.1 17.0922 21.1H6.90773ZM6.11123 11.65C5.88356 11.65 5.69148 11.573 5.53498 11.419C5.37831 11.2649 5.29998 11.0739 5.29998 10.8463V4.50777C5.29998 4.06561 5.46031 3.68711 5.78098 3.37227C6.10164 3.05744 6.47723 2.90002 6.90773 2.90002H13.977C14.1911 2.90002 14.3953 2.93852 14.5895 3.01552C14.7836 3.09236 14.9628 3.21286 15.127 3.37702L18.223 6.47302C18.3871 6.63719 18.5076 6.81636 18.5845 7.01052C18.6615 7.20469 18.7 7.40886 18.7 7.62302V10.8463C18.7 11.0739 18.623 11.2649 18.469 11.419C18.315 11.573 18.1241 11.65 17.8965 11.65H6.11123Z" fill="currentColor"/>
</svg>
