<svg width="16" height="16" viewBox="0 0 16 16" fill="none" xmlns="http://www.w3.org/2000/svg">
<path d="M7.05379 9.43085L5.50513 7.88202C5.41279 7.7898 5.29674 7.74258 5.15696 7.74035C5.01729 7.73824 4.89913 7.78547 4.80246 7.88202C4.7059 7.97869 4.65763 8.0958 4.65763 8.23335C4.65763 8.37091 4.7059 8.48802 4.80246 8.58469L6.63196 10.4142C6.75252 10.5346 6.89313 10.5949 7.05379 10.5949C7.21446 10.5949 7.35507 10.5346 7.47563 10.4142L11.1846 6.70519C11.2768 6.61285 11.3241 6.4968 11.3263 6.35702C11.3284 6.21735 11.2812 6.09919 11.1846 6.00252C11.088 5.90597 10.9708 5.85769 10.8333 5.85769C10.6957 5.85769 10.5786 5.90597 10.482 6.00252L7.05379 9.43085ZM8.00113 14.3334C7.12513 14.3334 6.30174 14.1671 5.53096 13.8347C4.76018 13.5022 4.08974 13.0511 3.51963 12.4812C2.94951 11.9113 2.49813 11.2411 2.16546 10.4707C1.8329 9.70024 1.66663 8.87708 1.66663 8.00119C1.66663 7.12519 1.83285 6.3018 2.16529 5.53102C2.49774 4.76024 2.9489 4.0898 3.51879 3.51969C4.08868 2.94958 4.75885 2.49819 5.52929 2.16552C6.29974 1.83296 7.1229 1.66669 7.99879 1.66669C8.87479 1.66669 9.69818 1.83291 10.469 2.16535C11.2397 2.4978 11.9102 2.94896 12.4803 3.51885C13.0504 4.08874 13.5018 4.75891 13.8345 5.52935C14.167 6.2998 14.3333 7.12296 14.3333 7.99885C14.3333 8.87485 14.1671 9.69824 13.8346 10.469C13.5022 11.2398 13.051 11.9102 12.4811 12.4804C11.9112 13.0505 11.2411 13.5019 10.4706 13.8345C9.70018 14.1671 8.87702 14.3334 8.00113 14.3334Z" fill="currentColor"/>
</svg>
