<svg width="20" height="20" viewBox="0 0 20 20" fill="none" xmlns="http://www.w3.org/2000/svg">
<path d="M7.67375 12.0946C7.48417 12.0946 7.32451 12.0311 7.19479 11.9042C7.06493 11.7771 7 11.6185 7 11.4285V10.1558C7 9.97819 7.03208 9.80715 7.09625 9.64271C7.16028 9.47812 7.25833 9.32986 7.39042 9.19792L14.279 2.30937C14.3942 2.19396 14.5155 2.11354 14.6427 2.06812C14.7698 2.02271 14.9031 2 15.0425 2C15.1838 2 15.3196 2.02271 15.45 2.06812C15.5806 2.11354 15.7004 2.18979 15.8096 2.29688L16.7531 3.21958C16.8738 3.335 16.9596 3.46153 17.0104 3.59917C17.0611 3.7368 17.0865 3.87632 17.0865 4.01771C17.0865 4.15937 17.0623 4.29653 17.014 4.42917C16.9656 4.56181 16.884 4.68528 16.7692 4.79958L9.85667 11.7123C9.72458 11.8442 9.57667 11.941 9.41292 12.0025C9.24903 12.0639 9.07854 12.0946 8.90146 12.0946H7.67375ZM14.9648 5.07208L15.9952 4.02562L15.0529 3.05937L14.0065 4.11375L14.9648 5.07208ZM3.33979 17.0946C2.96465 17.0946 2.64757 16.9651 2.38854 16.706C2.12951 16.447 2 16.1299 2 15.7548V5.26771C2 4.88687 2.12847 4.56493 2.38542 4.30187C2.64236 4.03868 2.96049 3.91403 3.33979 3.92792H8.71146C8.85687 3.92792 8.98326 3.96555 9.09063 4.04083C9.19799 4.11625 9.27111 4.21708 9.31 4.34333C9.36083 4.46972 9.37715 4.59743 9.35896 4.72646C9.34076 4.85549 9.28417 4.9675 9.18917 5.0625L5.73729 8.51438C5.60049 8.65118 5.5 8.80174 5.43583 8.96604C5.37181 9.13021 5.33979 9.30111 5.33979 9.47875V12.4246C5.33979 12.7922 5.47035 13.1058 5.73146 13.3654C5.99243 13.625 6.30736 13.7548 6.67625 13.7548H9.58208C9.76028 13.7548 9.9316 13.7228 10.096 13.6588C10.2606 13.5946 10.4113 13.4941 10.5481 13.3573L14.0321 9.87333C14.1271 9.77833 14.2391 9.72174 14.3681 9.70354C14.4972 9.68535 14.6249 9.70167 14.7513 9.7525C14.8775 9.79139 14.9783 9.86451 15.0538 9.97187C15.129 10.0794 15.1667 10.2058 15.1667 10.351V15.7548C15.1667 16.1299 15.0372 16.447 14.7781 16.706C14.5191 16.9651 14.202 17.0946 13.8269 17.0946H3.33979Z" fill="currentColor"/>
</svg>
