<svg width="24" height="24" viewBox="0 0 24 24" fill="none" xmlns="http://www.w3.org/2000/svg">
<path d="M5.39998 18.6098C6.31664 17.8598 7.34581 17.2931 8.48748 16.9098C9.62914 16.5265 10.8 16.3348 12 16.3348C13.2 16.3348 14.3708 16.5223 15.5125 16.8973C16.6541 17.2723 17.6833 17.8431 18.6 18.6098V6.90779C18.6 6.83079 18.5679 6.76029 18.5037 6.69629C18.4397 6.63212 18.3692 6.60004 18.2922 6.60004H5.70773C5.63073 6.60004 5.56023 6.63212 5.49623 6.69629C5.43206 6.76029 5.39998 6.83079 5.39998 6.90779V18.6098ZM11.994 14.75C11.0621 14.75 10.2718 14.4236 9.62298 13.7708C8.97431 13.1181 8.64998 12.3259 8.64998 11.394C8.64998 10.4622 8.97639 9.67187 9.62923 9.02304C10.2819 8.37437 11.0741 8.05004 12.006 8.05004C12.9378 8.05004 13.7281 8.37646 14.377 9.02929C15.0256 9.68196 15.35 10.4742 15.35 11.406C15.35 12.3379 15.0236 13.1282 14.3707 13.777C13.7181 14.4257 12.9258 14.75 11.994 14.75ZM5.70773 21.1C5.26923 21.1 4.89164 20.9417 4.57498 20.625C4.25831 20.3084 4.09998 19.9308 4.09998 19.4923V6.90779C4.09998 6.46929 4.25831 6.09171 4.57498 5.77504C4.89164 5.45837 5.26923 5.30004 5.70773 5.30004H7.89223V3.45379C7.89223 3.26296 7.95556 3.10371 8.08223 2.97604C8.20889 2.84854 8.36689 2.78479 8.55623 2.78479C8.74573 2.78479 8.90548 2.84854 9.03548 2.97604C9.16564 3.10371 9.23073 3.26296 9.23073 3.45379V5.30004H14.8077V3.43479C14.8077 3.25029 14.8694 3.09579 14.9927 2.97129C15.1162 2.84696 15.2695 2.78479 15.4525 2.78479C15.6355 2.78479 15.7904 2.84696 15.9172 2.97129C16.0442 3.09579 16.1077 3.25029 16.1077 3.43479V5.30004H18.2922C18.7424 5.30004 19.1229 5.45837 19.4337 5.77504C19.7446 6.09171 19.9 6.46929 19.9 6.90779V19.4923C19.9 19.9308 19.7446 20.3084 19.4337 20.625C19.1229 20.9417 18.7424 21.1 18.2922 21.1H5.70773Z" fill="currentColor"/>
</svg>
