<svg width="16" height="16" viewBox="0 0 16 16" fill="none" xmlns="http://www.w3.org/2000/svg">
<path d="M12.1176 12.7239V10.586H3.88235V12.7239C3.88235 12.7874 3.89931 12.8394 3.93324 12.8801C3.96716 12.9208 4.01054 12.9412 4.06338 12.9412H11.9366C11.9895 12.9412 12.0328 12.9208 12.0668 12.8801C12.1007 12.8394 12.1176 12.7874 12.1176 12.7239ZM12.1176 9.52718V6.47282H3.88235V9.52718H12.1176ZM12.1176 5.414V3.27606C12.1176 3.21265 12.1007 3.16059 12.0668 3.11988C12.0328 3.07918 11.9895 3.05882 11.9366 3.05882H4.06338C4.01054 3.05882 3.96716 3.07918 3.93324 3.11988C3.89931 3.16059 3.88235 3.21265 3.88235 3.27606V5.414H12.1176ZM4.06338 14C3.76623 14 3.51471 13.8765 3.30882 13.6294C3.10294 13.3824 3 13.0805 3 12.7239V3.27606C3 2.91947 3.10294 2.61765 3.30882 2.37059C3.51471 2.12353 3.76623 2 4.06338 2H11.9366C12.2338 2 12.4853 2.12353 12.6912 2.37059C12.8971 2.61765 13 2.91947 13 3.27606V12.7239C13 13.0805 12.8971 13.3824 12.6912 13.6294C12.4853 13.8765 12.2338 14 11.9366 14H4.06338Z" fill="currentColor"/>
</svg>
