<svg width="20" height="20" viewBox="0 0 20 20" fill="none" xmlns="http://www.w3.org/2000/svg">
<path d="M4.41991 17.0833C3.99894 17.0833 3.64262 16.9375 3.35095 16.6458C3.05929 16.3542 2.91345 15.9978 2.91345 15.5769V4.42313C2.91345 4.00215 3.05929 3.64583 3.35095 3.35417C3.64262 3.0625 3.99894 2.91667 4.41991 2.91667H8.12824C8.19449 2.44875 8.40123 2.05403 8.74845 1.7325C9.09567 1.41083 9.51179 1.25 9.99679 1.25C10.4818 1.25 10.8979 1.41083 11.2451 1.7325C11.5923 2.05403 11.7991 2.44875 11.8653 2.91667H15.5737C15.9946 2.91667 16.351 3.0625 16.6426 3.35417C16.9343 3.64583 17.0801 4.00215 17.0801 4.42313V15.5769C17.0801 15.9978 16.9343 16.3542 16.6426 16.6458C16.351 16.9375 15.9946 17.0833 15.5737 17.0833H4.41991ZM9.99679 3.62187C10.1773 3.62187 10.3266 3.56285 10.4447 3.44479C10.5628 3.32674 10.6218 3.17743 10.6218 2.99687C10.6218 2.81632 10.5628 2.66701 10.4447 2.54896C10.3266 2.4309 10.1773 2.37187 9.99679 2.37187C9.81623 2.37187 9.66692 2.4309 9.54887 2.54896C9.43081 2.66701 9.37179 2.81632 9.37179 2.99687C9.37179 3.17743 9.43081 3.32674 9.54887 3.44479C9.66692 3.56285 9.81623 3.62187 9.99679 3.62187ZM4.16345 15.0352C4.91345 14.2991 5.78498 13.7192 6.77804 13.2956C7.77109 12.872 8.84401 12.6602 9.99679 12.6602C11.1496 12.6602 12.2225 12.872 13.2155 13.2956C14.2086 13.7192 15.0801 14.2991 15.8301 15.0352V4.42313C15.8301 4.35896 15.8034 4.30021 15.7499 4.24687C15.6966 4.1934 15.6378 4.16667 15.5737 4.16667H4.41991C4.35574 4.16667 4.29699 4.1934 4.24366 4.24687C4.19019 4.30021 4.16345 4.35896 4.16345 4.42313V15.0352ZM9.99679 10.8654C10.7489 10.8654 11.3883 10.6021 11.9151 10.0754C12.4418 9.54861 12.7051 8.90917 12.7051 8.15708C12.7051 7.405 12.4418 6.76556 11.9151 6.23875C11.3883 5.71208 10.7489 5.44875 9.99679 5.44875C9.2447 5.44875 8.60526 5.71208 8.07845 6.23875C7.55179 6.76556 7.28845 7.405 7.28845 8.15708C7.28845 8.90917 7.55179 9.54861 8.07845 10.0754C8.60526 10.6021 9.2447 10.8654 9.99679 10.8654ZM5.36533 15.8333H14.6282V15.6571C13.97 15.0694 13.2481 14.6314 12.4624 14.3429C11.6766 14.0544 10.8547 13.9102 9.99679 13.9102C9.14956 13.9102 8.33172 14.0531 7.54324 14.339C6.75477 14.6248 6.0288 15.0588 5.36533 15.641V15.8333ZM9.99679 9.61542C9.59609 9.61542 9.2529 9.4725 8.9672 9.18667C8.68137 8.90097 8.53845 8.55778 8.53845 8.15708C8.53845 7.75639 8.68137 7.41319 8.9672 7.1275C9.2529 6.84167 9.59609 6.69875 9.99679 6.69875C10.3975 6.69875 10.7407 6.84167 11.0264 7.1275C11.3122 7.41319 11.4551 7.75639 11.4551 8.15708C11.4551 8.55778 11.3122 8.90097 11.0264 9.18667C10.7407 9.4725 10.3975 9.61542 9.99679 9.61542Z" fill="currentColor"/>
</svg>
