<svg width="16" height="16" viewBox="0 0 16 16" fill="none" xmlns="http://www.w3.org/2000/svg">
<path d="M5.41001 8.00016C5.26834 8.00016 5.14962 8.04805 5.05384 8.14383C4.95818 8.23972 4.91034 8.3585 4.91034 8.50016V10.6668C4.91034 10.8085 4.95829 10.9272 5.05418 11.023C5.14995 11.1189 5.26873 11.1668 5.41051 11.1668C5.55218 11.1668 5.6709 11.1189 5.76668 11.023C5.86234 10.9272 5.91018 10.8085 5.91018 10.6668V8.50016C5.91018 8.3585 5.86229 8.23972 5.76651 8.14383C5.67062 8.04805 5.55179 8.00016 5.41001 8.00016ZM10.5895 4.66683C10.4478 4.66683 10.3291 4.71472 10.2333 4.8105C10.1377 4.90638 10.0898 5.02516 10.0898 5.16683V10.6668C10.0898 10.8085 10.1377 10.9272 10.2335 11.023C10.3294 11.1189 10.4482 11.1668 10.59 11.1668C10.7317 11.1668 10.8504 11.1189 10.9462 11.023C11.0418 10.9272 11.0897 10.8085 11.0897 10.6668V5.16683C11.0897 5.02516 11.0417 4.90638 10.9458 4.8105C10.8501 4.71472 10.7313 4.66683 10.5895 4.66683ZM7.99984 9.3335C7.85807 9.3335 7.73934 9.38138 7.64368 9.47716C7.5479 9.57305 7.50001 9.69183 7.50001 9.8335V10.6668C7.50001 10.8085 7.54795 10.9272 7.64384 11.023C7.73973 11.1189 7.85851 11.1668 8.00018 11.1668C8.14195 11.1668 8.26068 11.1189 8.35634 11.023C8.45212 10.9272 8.50001 10.8085 8.50001 10.6668V9.8335C8.50001 9.69183 8.45207 9.57305 8.35618 9.47716C8.26029 9.38138 8.14151 9.3335 7.99984 9.3335ZM3.53851 13.6668C3.20173 13.6668 2.91668 13.5502 2.68334 13.3168C2.45001 13.0835 2.33334 12.7984 2.33334 12.4617V3.53866C2.33334 3.20188 2.45001 2.91683 2.68334 2.6835C2.91668 2.45016 3.20173 2.3335 3.53851 2.3335H12.4615C12.7983 2.3335 13.0833 2.45016 13.3167 2.6835C13.55 2.91683 13.6667 3.20188 13.6667 3.53866V12.4617C13.6667 12.7984 13.55 13.0835 13.3167 13.3168C13.0833 13.5502 12.7983 13.6668 12.4615 13.6668H3.53851ZM8.00018 7.8335C8.14195 7.8335 8.26068 7.78555 8.35634 7.68966C8.45212 7.59377 8.50001 7.475 8.50001 7.33333C8.50001 7.19155 8.45207 7.07283 8.35618 6.97716C8.26029 6.88138 8.14151 6.8335 7.99984 6.8335C7.85807 6.8335 7.73934 6.88144 7.64368 6.97733C7.5479 7.07322 7.50001 7.192 7.50001 7.33366C7.50001 7.47544 7.54795 7.59416 7.64384 7.68983C7.73973 7.78561 7.85851 7.8335 8.00018 7.8335Z" fill="#1F1F1F"/>
</svg>
