<svg width="16" height="16" viewBox="0 0 16 16" fill="none" xmlns="http://www.w3.org/2000/svg">
<path d="M7.99372 8.69287L4.83483 11.852C4.73244 11.9542 4.62223 12.0035 4.50419 11.9998C4.38628 11.996 4.27372 11.9405 4.16653 11.8335C4.05946 11.7263 4.00592 11.6118 4.00592 11.4901C4.00592 11.3683 4.05946 11.2539 4.16653 11.1467L7.30712 8.00628L4.14805 4.84739C4.04578 4.745 3.9965 4.63171 4.00019 4.50751C4.00401 4.38343 4.05946 4.2678 4.16653 4.16061C4.27372 4.05354 4.38819 4 4.50992 4C4.63165 4 4.74611 4.05354 4.85331 4.16061L7.99372 7.31968L11.1526 4.16061C11.255 4.05834 11.3683 4.00598 11.4925 4.00351C11.6166 4.00117 11.7322 4.05354 11.8394 4.16061C11.9465 4.2678 12 4.38226 12 4.504C12 4.62573 11.9465 4.74019 11.8394 4.84739L8.68032 8.00628L11.8394 11.1652C11.9417 11.2676 11.994 11.3778 11.9965 11.4958C11.9988 11.6137 11.9465 11.7263 11.8394 11.8335C11.7322 11.9405 11.6177 11.9941 11.496 11.9941C11.3743 11.9941 11.2598 11.9405 11.1526 11.8335L7.99372 8.69287Z" fill="currentColor"/>
</svg>
