<svg width="24" height="24" viewBox="0 0 24 24" fill="none" xmlns="http://www.w3.org/2000/svg">
<path d="M11.9948 16.5308C12.1938 16.5308 12.3624 16.4634 12.5005 16.3288C12.6387 16.1941 12.7078 16.0273 12.7078 15.8283C12.7078 15.6293 12.6404 15.4607 12.5058 15.3225C12.3711 15.1845 12.2043 15.1155 12.0053 15.1155C11.8063 15.1155 11.6377 15.1828 11.4995 15.3173C11.3614 15.4519 11.2923 15.6188 11.2923 15.8178C11.2923 16.0168 11.3596 16.1854 11.4943 16.3235C11.6289 16.4617 11.7958 16.5308 11.9948 16.5308ZM11.995 13.277C12.1779 13.277 12.3327 13.2147 12.4595 13.09C12.5865 12.9655 12.65 12.8112 12.65 12.627V7.92702C12.65 7.74286 12.5882 7.58844 12.4645 7.46377C12.3409 7.33927 12.1877 7.27702 12.005 7.27702C11.8222 7.27702 11.6674 7.33927 11.5405 7.46377C11.4135 7.58844 11.35 7.74286 11.35 7.92702V12.627C11.35 12.8112 11.4119 12.9655 11.5355 13.09C11.6592 13.2147 11.8124 13.277 11.995 13.277ZM12.0085 21.1C10.7567 21.1 9.57769 20.8632 8.47152 20.3895C7.36536 19.9159 6.39719 19.2641 5.56702 18.4343C4.73686 17.6044 4.08477 16.637 3.61077 15.532C3.13694 14.4272 2.90002 13.2466 2.90002 11.9903C2.90002 10.7339 3.13686 9.55686 3.61052 8.45902C4.08419 7.36119 4.73594 6.39719 5.56577 5.56702C6.39561 4.73686 7.36302 4.08477 8.46802 3.61077C9.57286 3.13694 10.7534 2.90002 12.0098 2.90002C13.2661 2.90002 14.4432 3.13686 15.541 3.61052C16.6389 4.08419 17.6029 4.73594 18.433 5.56577C19.2632 6.39561 19.9153 7.36102 20.3893 8.46202C20.8631 9.56319 21.1 10.7397 21.1 11.9915C21.1 13.2434 20.8632 14.4224 20.3895 15.5285C19.9159 16.6347 19.2641 17.6029 18.4343 18.433C17.6044 19.2632 16.639 19.9153 15.538 20.3893C14.4369 20.8631 13.2604 21.1 12.0085 21.1ZM12 19.8C14.1667 19.8 16.0084 19.0417 17.525 17.525C19.0417 16.0084 19.8 14.1667 19.8 12C19.8 9.83336 19.0417 7.99169 17.525 6.47502C16.0084 4.95836 14.1667 4.20002 12 4.20002C9.83336 4.20002 7.99169 4.95836 6.47502 6.47502C4.95836 7.99169 4.20002 9.83336 4.20002 12C4.20002 14.1667 4.95836 16.0084 6.47502 17.525C7.99169 19.0417 9.83336 19.8 12 19.8Z" fill="currentColor"/>
</svg>
