<svg width="16" height="16" viewBox="0 0 16 16" fill="none" xmlns="http://www.w3.org/2000/svg">
<path d="M7.99449 14.4792C7.5125 14.4792 7.10281 14.3101 6.7654 13.9718C6.428 13.6335 6.2593 13.2228 6.2593 12.7396C6.2593 12.2565 6.428 11.8454 6.7654 11.5063C7.10281 11.1674 7.5125 10.998 7.99449 10.998C8.47648 10.998 8.88801 11.167 9.22909 11.5052C9.57017 11.8435 9.74071 12.2542 9.74071 12.7374C9.74071 13.2206 9.57017 13.6317 9.22909 13.9707C8.88801 14.3097 8.47648 14.4792 7.99449 14.4792ZM7.99692 13.5059C8.21191 13.5059 8.39407 13.4324 8.54342 13.2855C8.69276 13.1384 8.76743 12.9562 8.76743 12.7388C8.76743 12.5216 8.6933 12.3393 8.54504 12.192C8.39667 12.0447 8.21294 11.9711 7.99384 11.9711C7.7808 11.9711 7.60069 12.0457 7.45351 12.1951C7.30622 12.3444 7.23258 12.5256 7.23258 12.7385C7.23258 12.9514 7.30622 13.1326 7.45351 13.2819C7.60069 13.4313 7.78183 13.5059 7.99692 13.5059ZM3.9017 12.1146C3.41971 12.1146 3.01002 11.9455 2.67261 11.6072C2.33532 11.269 2.16667 10.8582 2.16667 10.3751C2.16667 9.89188 2.33532 9.48078 2.67261 9.14175C3.01002 8.80283 3.41971 8.63338 3.9017 8.63338C4.38369 8.63338 4.79522 8.80246 5.1363 9.14062C5.47738 9.47888 5.64792 9.88966 5.64792 10.3729C5.64792 10.8561 5.47738 11.2672 5.1363 11.6061C4.79522 11.9451 4.38369 12.1146 3.9017 12.1146ZM12.0873 12.1146C11.6053 12.1146 11.1956 11.9455 10.8582 11.6072C10.5208 11.269 10.3521 10.8582 10.3521 10.3751C10.3521 9.89188 10.5208 9.48078 10.8582 9.14175C11.1956 8.80283 11.6053 8.63338 12.0873 8.63338C12.5693 8.63338 12.9808 8.80246 13.3219 9.14062C13.6629 9.47888 13.8333 9.88966 13.8333 10.3729C13.8333 10.8561 13.6629 11.2672 13.3219 11.6061C12.9808 11.9451 12.5693 12.1146 12.0873 12.1146ZM3.90413 11.1413C4.11923 11.1413 4.30139 11.0679 4.45063 10.9209C4.59997 10.7738 4.67464 10.5916 4.67464 10.3742C4.67464 10.157 4.60051 9.97471 4.45225 9.82742C4.30399 9.68024 4.12025 9.60665 3.90105 9.60665C3.68812 9.60665 3.50801 9.68127 3.36072 9.83051C3.21343 9.97985 3.13979 10.161 3.13979 10.3739C3.13979 10.587 3.21343 10.7681 3.36072 10.9173C3.50801 11.0667 3.68915 11.1413 3.90413 11.1413ZM12.0896 11.1413C12.3046 11.1413 12.4869 11.0679 12.6362 10.9209C12.7856 10.7738 12.8602 10.5916 12.8602 10.3742C12.8602 10.157 12.786 9.97471 12.6377 9.82742C12.4894 9.68024 12.3057 9.60665 12.0865 9.60665C11.8735 9.60665 11.6934 9.68127 11.5461 9.83051C11.399 9.97985 11.3254 10.161 11.3254 10.3739C11.3254 10.587 11.399 10.7681 11.5461 10.9173C11.6934 11.0667 11.8746 11.1413 12.0896 11.1413ZM3.9017 7.38547C3.41971 7.38547 3.01002 7.21634 2.67261 6.87807C2.33532 6.53991 2.16667 6.12919 2.16667 5.6459C2.16667 5.16273 2.33532 4.75163 2.67261 4.4126C3.01002 4.07368 3.41971 3.90423 3.9017 3.90423C4.38369 3.90423 4.79522 4.07336 5.1363 4.41163C5.47738 4.74979 5.64792 5.16051 5.64792 5.6438C5.64792 6.12697 5.47738 6.53807 5.1363 6.8771C4.79522 7.21602 4.38369 7.38547 3.9017 7.38547ZM12.0873 7.38547C11.6053 7.38547 11.1956 7.21634 10.8582 6.87807C10.5208 6.53991 10.3521 6.12919 10.3521 5.6459C10.3521 5.16273 10.5208 4.75163 10.8582 4.4126C11.1956 4.07368 11.6053 3.90423 12.0873 3.90423C12.5693 3.90423 12.9808 4.07336 13.3219 4.41163C13.6629 4.74979 13.8333 5.16051 13.8333 5.6438C13.8333 6.12697 13.6629 6.53807 13.3219 6.8771C12.9808 7.21602 12.5693 7.38547 12.0873 7.38547ZM3.90413 6.4122C4.11923 6.4122 4.30139 6.33871 4.45063 6.19175C4.59997 6.04468 4.67464 5.86251 4.67464 5.64526C4.67464 5.42789 4.60051 5.24556 4.45225 5.09827C4.30399 4.95109 4.12025 4.8775 3.90105 4.8775C3.68812 4.8775 3.50801 4.95217 3.36072 5.10152C3.21343 5.25075 3.13979 5.43189 3.13979 5.64493C3.13979 5.85786 3.21343 6.039 3.36072 6.18834C3.50801 6.33758 3.68915 6.4122 3.90413 6.4122ZM12.0896 6.4122C12.3046 6.4122 12.4869 6.33871 12.6362 6.19175C12.7856 6.04468 12.8602 5.86251 12.8602 5.64526C12.8602 5.42789 12.786 5.24556 12.6377 5.09827C12.4894 4.95109 12.3057 4.8775 12.0865 4.8775C11.8735 4.8775 11.6934 4.95217 11.5461 5.10152C11.399 5.25075 11.3254 5.43189 11.3254 5.64493C11.3254 5.85786 11.399 6.039 11.5461 6.18834C11.6934 6.33758 11.8746 6.4122 12.0896 6.4122ZM7.99449 5.00224C7.5125 5.00224 7.10281 4.83311 6.7654 4.49484C6.428 4.15657 6.2593 3.74585 6.2593 3.26267C6.2593 2.7795 6.428 2.36839 6.7654 2.02937C7.10281 1.69045 7.5125 1.521 7.99449 1.521C8.47648 1.521 8.88801 1.69008 9.22909 2.02823C9.57017 2.3665 9.74071 2.77723 9.74071 3.2604C9.74071 3.74369 9.57017 4.15479 9.22909 4.49371C8.88801 4.83273 8.47648 5.00224 7.99449 5.00224ZM7.99692 4.02897C8.21191 4.02897 8.39407 3.95548 8.54342 3.80852C8.69276 3.66145 8.76743 3.47923 8.76743 3.26186C8.76743 3.04461 8.6933 2.86233 8.54504 2.71504C8.39667 2.56775 8.21294 2.49411 7.99384 2.49411C7.7808 2.49411 7.60069 2.56878 7.45351 2.71813C7.30622 2.86747 7.23258 3.04861 7.23258 3.26154C7.23258 3.47458 7.30622 3.65572 7.45351 3.80495C7.60069 3.9543 7.78183 4.02897 7.99692 4.02897Z" fill="#171719"/>
</svg>
