<svg width="20" height="20" viewBox="0 0 20 20" fill="none" xmlns="http://www.w3.org/2000/svg">
<path d="M9.99312 18.0986C9.39063 18.0986 8.87851 17.8872 8.45676 17.4644C8.03501 17.0415 7.82413 16.5281 7.82413 15.9242C7.82413 15.3202 8.03501 14.8063 8.45676 14.3825C8.87851 13.9589 9.39063 13.7471 9.99312 13.7471C10.5956 13.7471 11.11 13.9584 11.5364 14.3811C11.9627 14.804 12.1759 15.3174 12.1759 15.9213C12.1759 16.5254 11.9627 17.0393 11.5364 17.463C11.11 17.8867 10.5956 18.0986 9.99312 18.0986ZM9.99616 16.882C10.2649 16.882 10.4926 16.7902 10.6793 16.6065C10.866 16.4226 10.9593 16.1949 10.9593 15.9232C10.9593 15.6516 10.8666 15.4237 10.6813 15.2396C10.4958 15.0555 10.2662 14.9635 9.9923 14.9635C9.72601 14.9635 9.50087 15.0568 9.31689 15.2435C9.13278 15.4302 9.04072 15.6566 9.04072 15.9228C9.04072 16.1889 9.13278 16.4153 9.31689 16.602C9.50087 16.7887 9.72729 16.882 9.99616 16.882ZM4.87713 15.1429C4.27464 15.1429 3.76252 14.9315 3.34077 14.5087C2.91915 14.0858 2.70834 13.5724 2.70834 12.9685C2.70834 12.3645 2.91915 11.8506 3.34077 11.4268C3.76252 11.0032 4.27464 10.7914 4.87713 10.7914C5.47961 10.7914 5.99403 11.0027 6.42038 11.4254C6.84673 11.8482 7.0599 12.3617 7.0599 12.9658C7.0599 13.5698 6.84673 14.0836 6.42038 14.5072C5.99403 14.931 5.47961 15.1429 4.87713 15.1429ZM15.1091 15.1429C14.5066 15.1429 13.9945 14.9315 13.5727 14.5087C13.151 14.0858 12.9401 13.5724 12.9401 12.9685C12.9401 12.3645 13.151 11.8506 13.5727 11.4268C13.9945 11.0032 14.5066 10.7914 15.1091 10.7914C15.7116 10.7914 16.226 11.0027 16.6524 11.4254C17.0786 11.8482 17.2917 12.3617 17.2917 12.9658C17.2917 13.5698 17.0786 14.0836 16.6524 14.5072C16.226 14.931 15.7116 15.1429 15.1091 15.1429ZM4.88017 13.9263C5.14904 13.9263 5.37674 13.8345 5.56329 13.6508C5.74997 13.4669 5.84331 13.2391 5.84331 12.9674C5.84331 12.6959 5.75064 12.468 5.56532 12.2839C5.37999 12.0999 5.15032 12.008 4.87632 12.008C4.61015 12.008 4.38502 12.1012 4.2009 12.2878C4.01679 12.4744 3.92474 12.7009 3.92474 12.967C3.92474 13.2333 4.01679 13.4598 4.2009 13.6463C4.38502 13.833 4.61144 13.9263 4.88017 13.9263ZM15.1119 13.9263C15.3808 13.9263 15.6086 13.8345 15.7953 13.6508C15.9819 13.4669 16.0753 13.2391 16.0753 12.9674C16.0753 12.6959 15.9826 12.468 15.7971 12.2839C15.6118 12.0999 15.3821 12.008 15.1081 12.008C14.8419 12.008 14.6168 12.1012 14.4327 12.2878C14.2487 12.4744 14.1567 12.7009 14.1567 12.967C14.1567 13.2333 14.2487 13.4598 14.4327 13.6463C14.6168 13.833 14.8432 13.9263 15.1119 13.9263ZM4.87713 9.23148C4.27464 9.23148 3.76252 9.02006 3.34077 8.59722C2.91915 8.17452 2.70834 7.66112 2.70834 7.05701C2.70834 6.45304 2.91915 5.93917 3.34077 5.51538C3.76252 5.09174 4.27464 4.87992 4.87713 4.87992C5.47961 4.87992 5.99403 5.09133 6.42038 5.51417C6.84673 5.93687 7.0599 6.45027 7.0599 7.05438C7.0599 7.65835 6.84673 8.17223 6.42038 8.59601C5.99403 9.01965 5.47961 9.23148 4.87713 9.23148ZM15.1091 9.23148C14.5066 9.23148 13.9945 9.02006 13.5727 8.59722C13.151 8.17452 12.9401 7.66112 12.9401 7.05701C12.9401 6.45304 13.151 5.93917 13.5727 5.51538C13.9945 5.09174 14.5066 4.87992 15.1091 4.87992C15.7116 4.87992 16.226 5.09133 16.6524 5.51417C17.0786 5.93687 17.2917 6.45027 17.2917 7.05438C17.2917 7.65835 17.0786 8.17223 16.6524 8.59601C16.226 9.01965 15.7116 9.23148 15.1091 9.23148ZM4.88017 8.01488C5.14904 8.01488 5.37674 7.92303 5.56329 7.73932C5.74997 7.55548 5.84331 7.32777 5.84331 7.0562C5.84331 6.7845 5.75064 6.55659 5.56532 6.37248C5.37999 6.1885 5.15032 6.09651 4.87632 6.09651C4.61015 6.09651 4.38502 6.18985 4.2009 6.37653C4.01679 6.56308 3.92474 6.7895 3.92474 7.0558C3.92474 7.32196 4.01679 7.54838 4.2009 7.73506C4.38502 7.92161 4.61144 8.01488 4.88017 8.01488ZM15.1119 8.01488C15.3808 8.01488 15.6086 7.92303 15.7953 7.73932C15.9819 7.55548 16.0753 7.32777 16.0753 7.0562C16.0753 6.7845 15.9826 6.55659 15.7971 6.37248C15.6118 6.1885 15.3821 6.09651 15.1081 6.09651C14.8419 6.09651 14.6168 6.18985 14.4327 6.37653C14.2487 6.56308 14.1567 6.7895 14.1567 7.0558C14.1567 7.32196 14.2487 7.54838 14.4327 7.73506C14.6168 7.92161 14.8432 8.01488 15.1119 8.01488ZM9.99312 6.25244C9.39063 6.25244 8.87851 6.04102 8.45676 5.61819C8.03501 5.19535 7.82413 4.68195 7.82413 4.07798C7.82413 3.474 8.03501 2.96013 8.45676 2.53635C8.87851 2.1127 9.39063 1.90088 9.99312 1.90088C10.5956 1.90088 11.11 2.11223 11.5364 2.53493C11.9627 2.95776 12.1759 3.47117 12.1759 4.07514C12.1759 4.67925 11.9627 5.19312 11.5364 5.61677C11.11 6.04055 10.5956 6.25244 9.99312 6.25244ZM9.99616 5.03584C10.2649 5.03584 10.4926 4.94399 10.6793 4.76028C10.866 4.57644 10.9593 4.34867 10.9593 4.07696C10.9593 3.80539 10.8666 3.57755 10.6813 3.39344C10.4958 3.20933 10.2662 3.11727 9.9923 3.11727C9.72601 3.11727 9.50087 3.21061 9.31689 3.39729C9.13278 3.58397 9.04072 3.81039 9.04072 4.07656C9.04072 4.34286 9.13278 4.56928 9.31689 4.75582C9.50087 4.9425 9.72729 5.03584 9.99616 5.03584Z" fill="#171719"/>
</svg>
