<svg width="24" height="24" viewBox="0 0 24 24" fill="none" xmlns="http://www.w3.org/2000/svg">
<path d="M5.70773 21.1C5.25756 21.1 4.87706 20.9417 4.56623 20.625C4.25539 20.3084 4.09998 19.9308 4.09998 19.4923V6.90779C4.09998 6.46929 4.25539 6.09171 4.56623 5.77504C4.87706 5.45837 5.25756 5.30004 5.70773 5.30004H7.89223V3.45379C7.89223 3.26296 7.95556 3.10371 8.08223 2.97604C8.20889 2.84854 8.36689 2.78479 8.55623 2.78479C8.74573 2.78479 8.90548 2.84854 9.03548 2.97604C9.16564 3.10371 9.23073 3.26296 9.23073 3.45379V5.30004H14.8077V3.43479C14.8077 3.25029 14.8694 3.09579 14.9927 2.97129C15.1162 2.84696 15.2695 2.78479 15.4525 2.78479C15.6355 2.78479 15.7904 2.84696 15.9172 2.97129C16.0442 3.09579 16.1077 3.25029 16.1077 3.43479V5.30004H18.2922C18.7424 5.30004 19.1229 5.45837 19.4337 5.77504C19.7446 6.09171 19.9 6.46929 19.9 6.90779V19.4923C19.9 19.9308 19.7446 20.3084 19.4337 20.625C19.1229 20.9417 18.7424 21.1 18.2922 21.1H5.70773ZM5.70773 19.8H18.2922C18.3692 19.8 18.4397 19.768 18.5037 19.7038C18.5679 19.6398 18.6 19.5693 18.6 19.4923V11.1078H5.39998V19.4923C5.39998 19.5693 5.43206 19.6398 5.49623 19.7038C5.56023 19.768 5.63073 19.8 5.70773 19.8Z" fill="currentColor"/>
</svg>
