<svg width="16" height="16" viewBox="0 0 16 16" fill="none" xmlns="http://www.w3.org/2000/svg">
<path d="M3.72178 13.2667C3.44889 13.2667 3.21589 13.1702 3.02278 12.9772C2.82978 12.7841 2.73328 12.5511 2.73328 12.2782V3.72184C2.73328 3.44895 2.82978 3.21595 3.02278 3.02284C3.21589 2.82984 3.44889 2.73334 3.72178 2.73334H12.2781C12.551 2.73334 12.784 2.82984 12.9771 3.02284C13.1701 3.21595 13.2666 3.44895 13.2666 3.72184V12.2782C13.2666 12.5511 13.1701 12.7841 12.9771 12.9772C12.784 13.1702 12.551 13.2667 12.2781 13.2667H3.72178ZM9.53328 12.4V3.6H3.80511C3.75378 3.6 3.70678 3.62139 3.66411 3.66417C3.62133 3.70684 3.59994 3.75384 3.59994 3.80517V12.1948C3.59994 12.2462 3.62133 12.2932 3.66411 12.3358C3.70678 12.3786 3.75378 12.4 3.80511 12.4H9.53328Z" fill="currentColor"/>
</svg>
