<svg width="24" height="24" viewBox="0 0 24 24" fill="none" xmlns="http://www.w3.org/2000/svg">
<path d="M11.995 15.0615C11.8879 15.0615 11.7882 15.0422 11.696 15.0037C11.6039 14.9654 11.5193 14.9077 11.4423 14.8307L8.3828 11.7712C8.2508 11.6407 8.18572 11.4879 8.18755 11.3127C8.18955 11.1376 8.25897 10.9807 8.3958 10.8422C8.5423 10.7039 8.69947 10.6363 8.8673 10.6395C9.0353 10.6426 9.18855 10.7135 9.32705 10.852L11.35 12.9V4.74998C11.35 4.56548 11.4118 4.41106 11.5353 4.28672C11.6586 4.16222 11.8118 4.09998 11.9948 4.09998C12.1778 4.09998 12.3327 4.16222 12.4595 4.28672C12.5865 4.41106 12.65 4.56548 12.65 4.74998V12.9L14.698 10.852C14.8245 10.72 14.9748 10.6549 15.1488 10.6567C15.3226 10.6587 15.4828 10.7289 15.6293 10.8672C15.7661 11.0057 15.833 11.1606 15.8298 11.3317C15.8266 11.5029 15.7558 11.6577 15.6173 11.7962L12.5578 14.8307C12.4741 14.9077 12.3862 14.9654 12.294 15.0037C12.2019 15.0422 12.1022 15.0615 11.995 15.0615ZM6.9008 18.7C6.4503 18.7 6.07088 18.5446 5.76255 18.2337C5.45422 17.9229 5.30005 17.5424 5.30005 17.0922V16.2307C5.30005 16.0462 5.3618 15.8918 5.4853 15.7675C5.60863 15.643 5.7618 15.5807 5.9448 15.5807C6.1278 15.5807 6.28272 15.643 6.40955 15.7675C6.53655 15.8918 6.60005 16.0462 6.60005 16.2307V17.0922C6.60005 17.1692 6.63213 17.2397 6.6963 17.3037C6.7603 17.3679 6.8308 17.4 6.9078 17.4H17.0923C17.1693 17.4 17.2398 17.3679 17.3038 17.3037C17.368 17.2397 17.4 17.1692 17.4 17.0922V16.2307C17.4 16.0462 17.4617 15.8918 17.585 15.7675C17.7085 15.643 17.8618 15.5807 18.0448 15.5807C18.2278 15.5807 18.3827 15.643 18.5095 15.7675C18.6365 15.8918 18.7 16.0462 18.7 16.2307V17.0922C18.7 17.5424 18.5445 17.9229 18.2336 18.2337C17.9225 18.5446 17.5418 18.7 17.0913 18.7H6.9008Z" fill="currentColor"/>
</svg>
