<svg width="16" height="16" viewBox="0 0 16 16" fill="none" xmlns="http://www.w3.org/2000/svg">
<path d="M7.4974 11.8423C7.48963 12.1593 7.51652 12.4723 7.57807 12.7813C7.63963 13.0903 7.73152 13.3854 7.85374 13.6666C7.34607 13.6597 6.7884 13.6095 6.18074 13.5159C5.57296 13.4224 4.99835 13.2807 4.4569 13.0909C3.91546 12.9011 3.44752 12.661 3.05307 12.3704C2.65863 12.0799 2.41868 11.7341 2.33324 11.3333V9.51909C2.41446 9.88831 2.63368 10.2127 2.9909 10.4923C3.34824 10.7717 3.7739 11.0074 4.2679 11.1993C4.7619 11.3911 5.29546 11.5401 5.86857 11.6461C6.44157 11.7521 6.98452 11.8175 7.4974 11.8423ZM9.00757 8.61142C8.70246 8.85586 8.43796 9.1362 8.21407 9.45242C7.99007 9.76864 7.81657 10.1165 7.69357 10.4961C7.17213 10.4824 6.61546 10.4243 6.02357 10.3218C5.43179 10.2192 4.87607 10.073 4.3564 9.88325C3.83674 9.69347 3.39102 9.4567 3.01924 9.17292C2.64735 8.88925 2.41868 8.55597 2.33324 8.17309V6.35242C2.41868 6.7602 2.6689 7.11109 3.0839 7.40509C3.4989 7.69909 3.98674 7.94092 4.5474 8.13059C5.10807 8.32036 5.69907 8.46036 6.3204 8.55059C6.94174 8.6407 7.50157 8.68575 7.9999 8.68575C8.16913 8.68575 8.33685 8.6787 8.50307 8.66459C8.6694 8.65047 8.83757 8.63275 9.00757 8.61142ZM7.9999 7.33325C6.42302 7.33325 5.08329 7.08925 3.98074 6.60125C2.87818 6.11314 2.3269 5.52381 2.3269 4.83325C2.3269 4.1427 2.87818 3.55336 3.98074 3.06525C5.08329 2.57725 6.42302 2.33325 7.9999 2.33325C9.57679 2.33325 10.9155 2.57725 12.0159 3.06525C13.1164 3.55336 13.6666 4.1427 13.6666 4.83325C13.6666 5.52381 13.1164 6.11314 12.0159 6.60125C10.9155 7.08925 9.57679 7.33325 7.9999 7.33325ZM11.6409 11.0679V13.5063C11.6409 13.5866 11.67 13.6559 11.7281 13.7141C11.7862 13.7722 11.8554 13.8013 11.9357 13.8013C12.0161 13.8013 12.0853 13.7722 12.1434 13.7141C12.2016 13.6559 12.2307 13.5866 12.2307 13.5063V11.0679L13.2229 12.0601C13.281 12.1183 13.3492 12.1485 13.4274 12.1506C13.5056 12.1527 13.576 12.1225 13.6384 12.0601C13.7007 11.9978 13.7319 11.9285 13.7319 11.8524C13.7319 11.7764 13.7007 11.7072 13.6384 11.6448L12.3576 10.3641C12.237 10.2435 12.0964 10.1833 11.9357 10.1833C11.7751 10.1833 11.6345 10.2435 11.5141 10.3641L10.2332 11.6448C10.1751 11.7029 10.145 11.771 10.1429 11.8493C10.1407 11.9275 10.1708 11.9978 10.2332 12.0601C10.2957 12.1225 10.3649 12.1538 10.4409 12.1538C10.517 12.1538 10.5862 12.1225 10.6486 12.0601L11.6409 11.0679ZM11.9357 14.8718C11.1033 14.8718 10.3952 14.5799 9.8114 13.9961C9.22774 13.4123 8.9359 12.7042 8.9359 11.8718C8.9359 11.0392 9.22774 10.3311 9.8114 9.74742C10.3952 9.16364 11.1033 8.87175 11.9357 8.87175C12.7683 8.87175 13.4764 9.16364 14.0601 9.74742C14.6438 10.3311 14.9357 11.0392 14.9357 11.8718C14.9357 12.7042 14.6438 13.4123 14.0601 13.9961C13.4764 14.5799 12.7683 14.8718 11.9357 14.8718Z" fill="currentColor"/>
</svg>
