<svg width="16" height="16" viewBox="0 0 16 16" fill="none" xmlns="http://www.w3.org/2000/svg">
<path d="M4.23337 8.0177C4.23337 8.59459 4.35342 9.12686 4.59353 9.61453C4.83375 10.1023 5.21625 10.5757 5.74103 11.0347V10.2257C5.74103 10.1029 5.78225 9.99997 5.8647 9.91686C5.94714 9.83386 6.04926 9.79236 6.17103 9.79236C6.29292 9.79236 6.3962 9.83386 6.48087 9.91686C6.56542 9.99997 6.6077 10.1029 6.6077 10.2257V12.0462C6.6077 12.198 6.55637 12.3253 6.4537 12.428C6.35092 12.5307 6.22364 12.582 6.07187 12.582H4.25137C4.12859 12.582 4.02564 12.5408 3.94253 12.4584C3.85953 12.376 3.81803 12.2739 3.81803 12.152C3.81803 12.0301 3.85953 11.9269 3.94253 11.8424C4.02564 11.7577 4.12859 11.7154 4.25137 11.7154H5.1732C4.55776 11.1684 4.10281 10.5899 3.80837 9.97986C3.51392 9.36975 3.3667 8.71759 3.3667 8.02336C3.3667 7.11225 3.60259 6.28531 4.07437 5.54253C4.54614 4.79964 5.17037 4.2402 5.94703 3.8642C6.05503 3.80775 6.16092 3.80386 6.2647 3.85253C6.36859 3.90131 6.44192 3.9832 6.4847 4.0982C6.52737 4.21309 6.52637 4.32425 6.4817 4.4317C6.43714 4.53903 6.36037 4.62075 6.25137 4.67686C5.64614 4.99464 5.15848 5.45064 4.78837 6.04486C4.41837 6.63909 4.23337 7.2967 4.23337 8.0177ZM12.2005 8.01286C12.0805 8.01286 11.9727 7.97136 11.877 7.88836C11.7813 7.80547 11.7231 7.70253 11.7025 7.57953C11.6462 7.07442 11.5044 6.61053 11.277 6.18786C11.0496 5.7652 10.7103 5.35986 10.259 4.97186V5.77436C10.259 5.89714 10.2178 6.00009 10.1354 6.0832C10.0529 6.1662 9.95081 6.2077 9.82903 6.2077C9.70714 6.2077 9.60387 6.1662 9.5192 6.0832C9.43464 6.00009 9.39237 5.89714 9.39237 5.77436V3.95386C9.39237 3.80208 9.4437 3.67481 9.54637 3.57203C9.64914 3.46936 9.77642 3.41803 9.9282 3.41803H11.7487C11.8715 3.41803 11.9744 3.45925 12.0575 3.5417C12.1405 3.62403 12.182 3.72614 12.182 3.84803C12.182 3.96992 12.1405 4.07314 12.0575 4.1577C11.9744 4.24236 11.8715 4.2847 11.7487 4.2847H10.8269C11.3602 4.74359 11.7782 5.25425 12.0809 5.8167C12.3834 6.37914 12.5629 6.96675 12.6192 7.57953C12.6329 7.70253 12.5965 7.80547 12.51 7.88836C12.4236 7.97136 12.3204 8.01286 12.2005 8.01286ZM10.0514 14.3102C9.95081 14.3102 9.86326 14.273 9.7887 14.1985C9.71426 14.124 9.67703 14.0364 9.67703 13.9359V11.6385C9.67703 11.538 9.71426 11.4504 9.7887 11.3759C9.86326 11.3014 9.95081 11.2642 10.0514 11.2642H10.4834V10.4642C10.4834 10.1591 10.5926 9.89559 10.8112 9.6737C11.0299 9.45192 11.2961 9.34103 11.61 9.34103C11.9239 9.34103 12.189 9.45192 12.4052 9.6737C12.6214 9.89559 12.7295 10.1591 12.7295 10.4642V11.2642H13.1615C13.264 11.2642 13.3499 11.3014 13.4192 11.3759C13.4884 11.4504 13.523 11.538 13.523 11.6385V13.9359C13.523 14.0364 13.4858 14.124 13.4114 14.1985C13.3368 14.273 13.2493 14.3102 13.1487 14.3102H10.0514ZM11.0064 11.2642H12.2064V10.4642C12.2064 10.2942 12.1493 10.1517 12.035 10.0367C11.9207 9.9217 11.779 9.8642 11.61 9.8642C11.4409 9.8642 11.298 9.9217 11.1814 10.0367C11.0647 10.1517 11.0064 10.2942 11.0064 10.4642V11.2642Z" fill="currentColor"/>
</svg>
