<svg width="16" height="16" viewBox="0 0 16 16" fill="none" xmlns="http://www.w3.org/2000/svg">
<path d="M4.60519 14.0667C4.31819 14.0667 4.0678 13.9617 3.85403 13.7518C3.64025 13.542 3.53336 13.2896 3.53336 12.9948V11.4667C3.53336 11.3439 3.57458 11.241 3.65703 11.1578C3.73947 11.0748 3.84158 11.0333 3.96336 11.0333C4.08525 11.0333 4.18847 11.0748 4.27303 11.1578C4.35769 11.241 4.40003 11.3439 4.40003 11.4667V12.9948C4.40003 13.0547 4.41925 13.1039 4.45769 13.1423C4.49614 13.1808 4.5453 13.2 4.60519 13.2H11.3949C11.4547 13.2 11.5039 13.1808 11.5424 13.1423C11.5808 13.1039 11.6 13.0547 11.6 12.9948V11.4667C11.6 11.3439 11.6412 11.241 11.7237 11.1578C11.8061 11.0748 11.9082 11.0333 12.03 11.0333C12.1519 11.0333 12.2551 11.0748 12.3397 11.1578C12.4244 11.241 12.4667 11.3439 12.4667 11.4667V12.9948C12.4667 13.2896 12.3598 13.542 12.146 13.7518C11.9322 13.9617 11.6819 14.0667 11.3949 14.0667H4.60519ZM3.53336 3.00518C3.53336 2.71041 3.64025 2.45807 3.85403 2.24818C4.0678 2.03829 4.31819 1.93335 4.60519 1.93335H9.31803C9.4608 1.93335 9.59691 1.95902 9.72636 2.01035C9.8558 2.06157 9.97525 2.14191 10.0847 2.25135L12.1487 4.31535C12.2581 4.42479 12.3385 4.54424 12.3897 4.67368C12.441 4.80313 12.4667 4.93924 12.4667 5.08202V7.33335C12.4667 7.45613 12.4255 7.55907 12.343 7.64218C12.2606 7.72518 12.1585 7.76668 12.0367 7.76668C11.9148 7.76668 11.8116 7.72518 11.727 7.64218C11.6424 7.55907 11.6 7.45613 11.6 7.33335V5.26668H9.66653C9.51541 5.26668 9.3888 5.21557 9.28669 5.11335C9.18447 5.01113 9.13336 4.88446 9.13336 4.73335V2.80002H4.60519C4.5453 2.80002 4.49614 2.81924 4.45769 2.85768C4.41925 2.89613 4.40003 2.94529 4.40003 3.00518V7.33335C4.40003 7.45613 4.3588 7.55907 4.27636 7.64218C4.19391 7.72518 4.0918 7.76668 3.97003 7.76668C3.84814 7.76668 3.74491 7.72518 3.66036 7.64218C3.57569 7.55907 3.53336 7.45613 3.53336 7.33335V3.00518ZM13.7744 9.83335H2.22219C2.10508 9.83335 2.00414 9.79213 1.91936 9.70968C1.83469 9.62724 1.79236 9.52513 1.79236 9.40335C1.79236 9.28146 1.83386 9.17824 1.91686 9.09368C1.99997 9.00902 2.10291 8.96668 2.22569 8.96668H13.7779C13.895 8.96668 13.9959 9.00791 14.0807 9.09035C14.1654 9.17279 14.2077 9.2749 14.2077 9.39668C14.2077 9.51857 14.1662 9.62179 14.0832 9.70635C14.0001 9.79102 13.8971 9.83335 13.7744 9.83335Z" fill="currentColor"/>
</svg>
