<svg width="24" height="24" viewBox="0 0 24 24" fill="none" xmlns="http://www.w3.org/2000/svg">
<path d="M6.90773 21.1C6.47723 21.1 6.10164 20.9426 5.78098 20.6278C5.46031 20.3129 5.29998 19.9344 5.29998 19.4923V17.2C5.29998 17.0159 5.36181 16.8614 5.48548 16.7368C5.60914 16.6123 5.76231 16.55 5.94498 16.55C6.12781 16.55 6.28264 16.6123 6.40948 16.7368C6.53648 16.8614 6.59998 17.0159 6.59998 17.2V19.4923C6.59998 19.5821 6.62881 19.6559 6.68648 19.7135C6.74414 19.7712 6.81789 19.8 6.90773 19.8H17.0922C17.1821 19.8 17.2558 19.7712 17.3135 19.7135C17.3711 19.6559 17.4 19.5821 17.4 19.4923V17.2C17.4 17.0159 17.4618 16.8614 17.5855 16.7368C17.7091 16.6123 17.8623 16.55 18.045 16.55C18.2278 16.55 18.3826 16.6123 18.5095 16.7368C18.6365 16.8614 18.7 17.0159 18.7 17.2V19.4923C18.7 19.9344 18.5396 20.3129 18.219 20.6278C17.8983 20.9426 17.5227 21.1 17.0922 21.1H6.90773ZM5.29998 4.50777C5.29998 4.06561 5.46031 3.68711 5.78098 3.37227C6.10164 3.05744 6.47723 2.90002 6.90773 2.90002H13.977C14.1911 2.90002 14.3953 2.93852 14.5895 3.01552C14.7836 3.09236 14.9628 3.21286 15.127 3.37702L18.223 6.47302C18.3871 6.63719 18.5076 6.81636 18.5845 7.01052C18.6615 7.20469 18.7 7.40886 18.7 7.62302V11C18.7 11.1842 18.6381 11.3386 18.5145 11.4633C18.3908 11.5878 18.2376 11.65 18.055 11.65C17.8721 11.65 17.7173 11.5878 17.5905 11.4633C17.4635 11.3386 17.4 11.1842 17.4 11V7.90002H14.4997C14.2731 7.90002 14.0831 7.82336 13.93 7.67002C13.7766 7.51669 13.7 7.32669 13.7 7.10002V4.20002H6.90773C6.81789 4.20002 6.74414 4.22886 6.68648 4.28653C6.62881 4.34419 6.59998 4.41794 6.59998 4.50777V11C6.59998 11.1842 6.53814 11.3386 6.41448 11.4633C6.29081 11.5878 6.13764 11.65 5.95498 11.65C5.77214 11.65 5.61731 11.5878 5.49048 11.4633C5.36348 11.3386 5.29998 11.1842 5.29998 11V4.50777ZM20.6615 14.75H3.33323C3.15756 14.75 3.00614 14.6882 2.87898 14.5645C2.75198 14.4409 2.68848 14.2877 2.68848 14.105C2.68848 13.9222 2.75073 13.7674 2.87523 13.6405C2.99989 13.5135 3.15431 13.45 3.33848 13.45H20.6667C20.8424 13.45 20.9938 13.5119 21.121 13.6355C21.248 13.7592 21.3115 13.9124 21.3115 14.095C21.3115 14.2779 21.2492 14.4327 21.1247 14.5595C21.0001 14.6865 20.8456 14.75 20.6615 14.75Z" fill="currentColor"/>
</svg>
