<svg width="20" height="20" viewBox="0 0 20 20" fill="none" xmlns="http://www.w3.org/2000/svg">
<path d="M10 17.9168C9.01709 17.9168 8.09619 17.7309 7.2373 17.3591C6.37827 16.9873 5.62931 16.4819 4.99042 15.8431C4.35153 15.2042 3.84619 14.4552 3.47438 13.5962C3.10257 12.7373 2.91667 11.8164 2.91667 10.8335C2.91667 10.6561 2.97653 10.5076 3.09625 10.3881C3.21584 10.2683 3.36431 10.2085 3.54167 10.2085C3.71903 10.2085 3.86751 10.2683 3.98709 10.3881C4.10681 10.5076 4.16667 10.6561 4.16667 10.8335C4.16667 12.4585 4.73264 13.8369 5.86459 14.9689C6.99653 16.1008 8.37501 16.6668 10 16.6668C11.625 16.6668 13.0035 16.1008 14.1354 14.9689C15.2674 13.8369 15.8333 12.4585 15.8333 10.8335C15.8333 9.20847 15.2674 7.83 14.1354 6.69806C13.0035 5.56611 11.625 5.00014 10 5.00014H9.77876L10.6635 5.88472C10.7874 6.00875 10.8485 6.15382 10.8469 6.31993C10.8454 6.48604 10.7842 6.63368 10.6635 6.76285C10.5342 6.89215 10.3857 6.95896 10.2179 6.96326C10.0503 6.96757 9.90181 6.90507 9.77251 6.77576L7.89917 4.89431C7.74848 4.74375 7.67313 4.56806 7.67313 4.36722C7.67313 4.16625 7.74848 3.99049 7.89917 3.83993L9.78855 1.95847C9.91244 1.83458 10.0596 1.7734 10.23 1.77493C10.4004 1.7766 10.5503 1.84208 10.6796 1.97139C10.8003 2.10056 10.8628 2.24687 10.8671 2.41035C10.8713 2.57382 10.8088 2.72021 10.6796 2.84951L9.77876 3.75014H10C10.9829 3.75014 11.9038 3.93604 12.7627 4.30785C13.6217 4.67965 14.3707 5.185 15.0096 5.82389C15.6485 6.46278 16.1538 7.21174 16.5256 8.07076C16.8974 8.92965 17.0833 9.85056 17.0833 10.8335C17.0833 11.8164 16.8974 12.7373 16.5256 13.5962C16.1538 14.4552 15.6485 15.2042 15.0096 15.8431C14.3707 16.4819 13.6217 16.9873 12.7627 17.3591C11.9038 17.7309 10.9829 17.9168 10 17.9168Z" fill="#1F1F1F"/>
</svg>
