<svg width="16" height="16" viewBox="0 0 16 16" fill="none" xmlns="http://www.w3.org/2000/svg">
<path d="M4.06535 11.3782C4.66535 10.9688 5.29102 10.6646 5.94235 10.4653C6.59357 10.2662 7.27946 10.1667 8.00002 10.1667C8.72057 10.1667 9.40646 10.2662 10.0577 10.4653C10.709 10.6646 11.3347 10.9688 11.9347 11.3782C12.3491 10.9226 12.6636 10.4064 12.8782 9.82952C13.0927 9.25263 13.2 8.64279 13.2 8.00002C13.2 6.55924 12.6932 5.33235 11.6795 4.31935C10.6658 3.30646 9.43807 2.80002 7.99618 2.80002C6.55429 2.80002 5.32779 3.30646 4.31668 4.31935C3.30557 5.33235 2.80002 6.55924 2.80002 8.00002C2.80002 8.64279 2.90729 9.25263 3.12185 9.82952C3.33641 10.4064 3.65091 10.9226 4.06535 11.3782ZM8.00018 9.03335C7.3804 9.03335 6.85324 8.81613 6.41868 8.38168C5.98402 7.94713 5.76668 7.41996 5.76668 6.80018C5.76668 6.18041 5.9839 5.65324 6.41835 5.21868C6.8529 4.78402 7.38007 4.56668 7.99985 4.56668C8.61963 4.56668 9.14679 4.7839 9.58135 5.21835C10.016 5.6529 10.2333 6.18007 10.2333 6.79985C10.2333 7.41963 10.0161 7.94679 9.58168 8.38135C9.14713 8.81602 8.61996 9.03335 8.00018 9.03335ZM8.00468 14.0667C7.16657 14.0667 6.3789 13.9096 5.64168 13.5955C4.90446 13.2814 4.25918 12.8476 3.70585 12.2942C3.15241 11.7408 2.71863 11.0958 2.40452 10.359C2.09041 9.62235 1.93335 8.83346 1.93335 7.99235C1.93335 7.15135 2.09041 6.36502 2.40452 5.63335C2.71863 4.90168 3.15241 4.25918 3.70585 3.70585C4.25918 3.1524 4.90424 2.71863 5.64102 2.40452C6.37768 2.09041 7.16657 1.93335 8.00768 1.93335C8.84868 1.93335 9.63502 2.09041 10.3667 2.40452C11.0983 2.71863 11.7408 3.1524 12.2942 3.70585C12.8476 4.25918 13.2814 4.9029 13.5955 5.63702C13.9096 6.37124 14.0667 7.15735 14.0667 7.99535C14.0667 8.83346 13.9096 9.62113 13.5955 10.3583C13.2814 11.0956 12.8476 11.7408 12.2942 12.2942C11.7408 12.8476 11.0971 13.2814 10.363 13.5955C9.62879 13.9096 8.84268 14.0667 8.00468 14.0667ZM8.00002 13.2C8.59057 13.2 9.17068 13.0977 9.74035 12.893C10.31 12.6882 10.8282 12.3953 11.2948 12.0142C10.8171 11.7013 10.2998 11.4596 9.74302 11.2892C9.18613 11.1186 8.60513 11.0333 8.00002 11.0333C7.3949 11.0333 6.81007 11.1147 6.24552 11.2775C5.68096 11.4404 5.16752 11.686 4.70518 12.0142C5.17185 12.3953 5.69002 12.6882 6.25968 12.893C6.82935 13.0977 7.40946 13.2 8.00002 13.2ZM8.00002 8.16668C8.37613 8.16668 8.6979 8.03291 8.96535 7.76535C9.2329 7.49791 9.36668 7.17613 9.36668 6.80002C9.36668 6.4239 9.2329 6.10213 8.96535 5.83468C8.6979 5.56713 8.37613 5.43335 8.00002 5.43335C7.6239 5.43335 7.30213 5.56713 7.03468 5.83468C6.76713 6.10213 6.63335 6.4239 6.63335 6.80002C6.63335 7.17613 6.76713 7.49791 7.03468 7.76535C7.30213 8.03291 7.6239 8.16668 8.00002 8.16668Z" fill="currentColor"/>
</svg>
