<svg width="20" height="20" viewBox="0 0 20 20" fill="none" xmlns="http://www.w3.org/2000/svg">
<path d="M9.992 16.4246C9.81353 16.4246 9.63429 16.3926 9.45429 16.3285C9.27429 16.2644 9.11589 16.164 8.97908 16.0273L7.782 14.9392C6.3045 13.5919 4.98534 12.2685 3.8245 10.9688C2.66367 9.66903 2.08325 8.27667 2.08325 6.79167C2.08325 5.60903 2.482 4.61889 3.2795 3.82125C4.07714 3.02375 5.06728 2.625 6.24992 2.625C6.92186 2.625 7.58561 2.77993 8.24117 3.08979C8.89658 3.39965 9.48283 3.90285 9.99992 4.59938C10.517 3.90285 11.1033 3.39965 11.7587 3.08979C12.4142 2.77993 13.078 2.625 13.7499 2.625C14.9326 2.625 15.9227 3.02375 16.7203 3.82125C17.5178 4.61889 17.9166 5.60903 17.9166 6.79167C17.9166 8.29278 17.3263 9.70063 16.1458 11.0152C14.9652 12.3298 13.6489 13.642 12.197 14.9519L11.0126 16.0273C10.876 16.164 10.7163 16.2644 10.5337 16.3285C10.3509 16.3926 10.1703 16.4246 9.992 16.4246Z" fill="currentColor"/>
</svg>
