<svg width="24" height="24" viewBox="0 0 24 24" fill="none" xmlns="http://www.w3.org/2000/svg">
<path d="M12 12.9288L15.073 16.002C15.2115 16.1404 15.3648 16.207 15.5328 16.202C15.7006 16.1969 15.857 16.1219 16.002 15.977C16.1469 15.832 16.2193 15.6772 16.2193 15.5125C16.2193 15.3479 16.1469 15.1934 16.002 15.0493L12.9288 11.9875L16.002 8.92578C16.1404 8.78811 16.2112 8.63527 16.2145 8.46727C16.2177 8.29944 16.1469 8.14302 16.002 7.99802C15.857 7.85319 15.7022 7.78077 15.5375 7.78077C15.3729 7.78077 15.218 7.85319 15.073 7.99802L12 11.0713L8.92702 7.99802C8.78852 7.85969 8.63944 7.78886 8.47977 7.78552C8.32027 7.78236 8.16803 7.85319 8.02303 7.99802C7.87819 8.14302 7.80577 8.29786 7.80577 8.46252C7.80577 8.62719 7.87752 8.78202 8.02102 8.92702L11.0713 12L7.99802 15.073C7.85969 15.2115 7.79303 15.3606 7.79802 15.5203C7.80319 15.6798 7.87819 15.832 8.02303 15.977C8.16803 16.1219 8.32286 16.1943 8.48752 16.1943C8.65219 16.1943 8.80627 16.1225 8.94977 15.979L12 12.9288ZM12.0085 21.1C10.7567 21.1 9.57769 20.8632 8.47152 20.3895C7.36536 19.9159 6.39719 19.2641 5.56702 18.4343C4.73686 17.6044 4.08477 16.637 3.61077 15.532C3.13694 14.4272 2.90002 13.2466 2.90002 11.9903C2.90002 10.7339 3.13686 9.55686 3.61052 8.45902C4.08419 7.36119 4.73594 6.39719 5.56577 5.56702C6.39561 4.73686 7.36302 4.08477 8.46802 3.61077C9.57286 3.13694 10.7534 2.90002 12.0098 2.90002C13.2661 2.90002 14.4432 3.13686 15.541 3.61052C16.6389 4.08419 17.6029 4.73594 18.433 5.56577C19.2632 6.39561 19.9153 7.36102 20.3893 8.46202C20.8631 9.56319 21.1 10.7397 21.1 11.9915C21.1 13.2434 20.8632 14.4224 20.3895 15.5285C19.9159 16.6347 19.2641 17.6029 18.4343 18.433C17.6044 19.2632 16.639 19.9153 15.538 20.3893C14.4369 20.8631 13.2604 21.1 12.0085 21.1Z" fill="currentColor"/>
</svg>
