<svg width="20" height="20" viewBox="0 0 20 20" fill="none" xmlns="http://www.w3.org/2000/svg">
<path d="M10 14.1555L13.5609 10.5865C13.6763 10.4712 13.8053 10.4136 13.948 10.4136C14.0906 10.4136 14.2196 10.4712 14.335 10.5865C14.4557 10.7073 14.5161 10.8364 14.5161 10.9736C14.5161 11.1108 14.4557 11.2398 14.335 11.3607L10.4648 15.2309C10.4007 15.2949 10.3288 15.343 10.2492 15.3751C10.1696 15.4071 10.0866 15.4232 10 15.4232C9.91352 15.4232 9.83046 15.4071 9.75088 15.3751C9.6713 15.343 9.59942 15.2949 9.53525 15.2309L5.66505 11.3607C5.54977 11.2453 5.4956 11.1162 5.50254 10.9736C5.50949 10.831 5.5706 10.7019 5.68588 10.5865C5.80671 10.4658 5.93574 10.4055 6.07296 10.4055C6.21018 10.4055 6.33921 10.4658 6.46004 10.5865L10 14.1555ZM10 8.23401L13.5609 4.66505C13.6763 4.54977 13.8053 4.49213 13.948 4.49213C14.0906 4.49213 14.2196 4.54977 14.335 4.66505C14.4557 4.78588 14.5161 4.91491 14.5161 5.05213C14.5161 5.18936 14.4557 5.31838 14.335 5.43922L10.4648 9.30943C10.4007 9.37345 10.3288 9.42151 10.2492 9.45359C10.1696 9.48568 10.0866 9.50172 10 9.50172C9.91352 9.50172 9.83046 9.48568 9.75088 9.45359C9.6713 9.42151 9.59942 9.37345 9.53525 9.30943L5.66505 5.43922C5.54977 5.3238 5.4956 5.19477 5.50254 5.05213C5.50949 4.9095 5.5706 4.78047 5.68588 4.66505C5.80671 4.54436 5.93574 4.48401 6.07296 4.48401C6.21018 4.48401 6.33921 4.54436 6.46004 4.66505L10 8.23401Z" fill="currentColor"/>
</svg>
