<svg width="16" height="16" viewBox="0 0 16 16" fill="none" xmlns="http://www.w3.org/2000/svg">
<path d="M9.91805 5.7487C10.1889 6.0197 10.3983 6.34897 10.5462 6.73653C10.6941 7.1242 10.75 7.51331 10.714 7.90386C10.714 8.03208 10.6679 8.14064 10.5757 8.22953C10.4834 8.31842 10.3731 8.36286 10.2449 8.36286C10.1167 8.36286 10.0081 8.31842 9.91922 8.22953C9.83033 8.14064 9.78588 8.03208 9.78588 7.90386C9.82866 7.61075 9.80455 7.33297 9.71355 7.07053C9.62255 6.8082 9.4826 6.58258 9.29372 6.3937C9.10483 6.20481 8.87705 6.06142 8.61038 5.96353C8.34372 5.86564 8.06249 5.84019 7.76672 5.8872C7.63849 5.89153 7.52783 5.84858 7.43472 5.75836C7.34149 5.66825 7.29277 5.55908 7.28855 5.43086C7.28422 5.30264 7.32544 5.19192 7.41222 5.0987C7.49899 5.00558 7.60649 4.95692 7.73472 4.95269C8.12272 4.90825 8.51266 4.95886 8.90455 5.10453C9.29644 5.25031 9.63427 5.46503 9.91805 5.7487ZM8.00005 4.00003C7.76327 4.00003 7.53099 4.01158 7.30322 4.0347C7.07544 4.0577 6.84872 4.09569 6.62305 4.14869C6.48116 4.17781 6.35338 4.15753 6.23972 4.08786C6.12605 4.0182 6.04788 3.91797 6.00522 3.78719C5.96244 3.65219 5.97655 3.52381 6.04755 3.40203C6.11844 3.28025 6.22138 3.20481 6.35638 3.17569C6.62483 3.11158 6.89599 3.06631 7.16988 3.03986C7.44388 3.01331 7.7206 3.00003 8.00005 3.00003C9.43249 3.00003 10.7483 3.37225 11.9475 4.1167C13.1467 4.86114 14.0688 5.86842 14.714 7.13853C14.7585 7.22308 14.7908 7.30831 14.8109 7.3942C14.831 7.48008 14.841 7.57092 14.841 7.6667C14.841 7.76247 14.8327 7.85331 14.816 7.9392C14.7994 8.02508 14.7688 8.11031 14.7244 8.19486C14.5202 8.6222 14.2719 9.0207 13.9795 9.39036C13.6872 9.76003 13.3654 10.0996 13.014 10.409C12.9107 10.5014 12.7926 10.5396 12.6597 10.5237C12.5267 10.5079 12.4175 10.4415 12.332 10.3244C12.2466 10.2073 12.2112 10.0816 12.2257 9.94753C12.2403 9.81331 12.2992 9.70003 12.4025 9.6077C12.7034 9.33503 12.9778 9.03697 13.2257 8.71353C13.4736 8.38997 13.6873 8.04103 13.8667 7.6667C13.3112 6.54447 12.5084 5.65281 11.4584 4.9917C10.4084 4.33058 9.2556 4.00003 8.00005 4.00003ZM8.00005 12.3334C6.5966 12.3334 5.31027 11.9584 4.14105 11.2084C2.97183 10.4584 2.04238 9.47053 1.35272 8.24486C1.29716 8.16031 1.25655 8.06842 1.23088 7.9692C1.20522 7.87008 1.19238 7.76925 1.19238 7.6667C1.19238 7.56414 1.20349 7.46497 1.22572 7.3692C1.24794 7.27353 1.28683 7.17997 1.34238 7.08853C1.59027 6.63553 1.87105 6.20408 2.18472 5.7942C2.49838 5.38442 2.85905 5.01714 3.26672 4.69236L1.76155 3.17686C1.66933 3.07775 1.62383 2.96003 1.62505 2.82369C1.62638 2.68736 1.67533 2.57092 1.77188 2.47436C1.86844 2.37781 1.98555 2.32953 2.12322 2.32953C2.26077 2.32953 2.37783 2.37781 2.47438 2.47436L13.5257 13.5257C13.618 13.618 13.667 13.7323 13.6725 13.8685C13.6781 14.0049 13.6292 14.1248 13.5257 14.2282C13.4292 14.3248 13.312 14.373 13.1744 14.373C13.0368 14.373 12.9198 14.3248 12.8232 14.2282L10.477 11.9025C10.0838 12.0546 9.67972 12.1645 9.26472 12.232C8.84983 12.2996 8.42827 12.3334 8.00005 12.3334ZM3.96938 5.39486C3.57872 5.69664 3.22761 6.03786 2.91605 6.41853C2.60449 6.79931 2.3436 7.21536 2.13338 7.6667C2.68894 8.78892 3.49172 9.68058 4.54172 10.3417C5.59172 11.0028 6.74449 11.3334 8.00005 11.3334C8.28638 11.3334 8.56822 11.3141 8.84555 11.2757C9.12288 11.2373 9.39833 11.1779 9.67188 11.0975L8.82822 10.2334C8.69322 10.2924 8.55838 10.3323 8.42372 10.3532C8.28916 10.3742 8.14794 10.3847 8.00005 10.3847C7.2436 10.3847 6.60149 10.1208 6.07372 9.59303C5.54594 9.06525 5.28205 8.42314 5.28205 7.6667C5.28205 7.51881 5.2936 7.37758 5.31672 7.24303C5.33983 7.10836 5.37872 6.97353 5.43338 6.83853L3.96938 5.39486Z" fill="currentColor"/>
</svg>
