<svg width="24" height="24" viewBox="0 0 24 24" fill="none" xmlns="http://www.w3.org/2000/svg">
<path d="M4.30775 17.8462C3.80258 17.8462 3.375 17.6712 3.025 17.3212C2.675 16.9712 2.5 16.5437 2.5 16.0385V5.30775C2.5 4.80258 2.675 4.375 3.025 4.025C3.375 3.675 3.80258 3.5 4.30775 3.5H11.4713C11.6841 3.5 11.8623 3.57183 12.0058 3.7155C12.1494 3.859 12.2213 4.03717 12.2213 4.25C12.2213 4.46283 12.1494 4.641 12.0058 4.7845C11.8623 4.92817 11.6841 5 11.4713 5H4.30775C4.23075 5 4.16025 5.03208 4.09625 5.09625C4.03208 5.16025 4 5.23075 4 5.30775V16.0385C4 16.1153 4.03208 16.1858 4.09625 16.25C4.16025 16.3142 4.23075 16.3462 4.30775 16.3462H19.6923C19.7693 16.3462 19.8398 16.3142 19.9038 16.25C19.9679 16.1858 20 16.1153 20 16.0385V13.75C20 13.5372 20.0718 13.359 20.2155 13.2155C20.359 13.0718 20.5372 13 20.75 13C20.9628 13 21.141 13.0718 21.2845 13.2155C21.4282 13.359 21.5 13.5372 21.5 13.75V16.0385C21.5 16.5437 21.325 16.9712 20.975 17.3212C20.625 17.6712 20.1974 17.8462 19.6923 17.8462H16.5193L17.1328 18.4595C17.2262 18.5532 17.2948 18.6545 17.3385 18.7635C17.382 18.8725 17.4038 18.9873 17.4038 19.1077V19.596C17.4038 19.8538 17.3176 20.0689 17.1453 20.2413C16.9727 20.4138 16.7577 20.5 16.5 20.5H7.5C7.24233 20.5 7.02725 20.4138 6.85475 20.2413C6.68242 20.0689 6.59625 19.8538 6.59625 19.596V19.1077C6.59625 18.9873 6.618 18.8725 6.6615 18.7635C6.70517 18.6545 6.77375 18.5532 6.86725 18.4595L7.48075 17.8462H4.30775ZM14.6058 11.7808V4.25C14.6058 4.03717 14.6776 3.859 14.8212 3.7155C14.9647 3.57183 15.1429 3.5 15.3558 3.5C15.5686 3.5 15.7468 3.57183 15.8905 3.7155C16.034 3.859 16.1058 4.03717 16.1058 4.25V11.7808L18.4193 9.473C18.5578 9.32817 18.7292 9.25317 18.9338 9.248C19.1383 9.243 19.318 9.318 19.473 9.473C19.618 9.618 19.6905 9.79367 19.6905 10C19.6905 10.2063 19.618 10.382 19.473 10.527L15.3558 14.6442L11.2385 10.527C11.1 10.3885 11.0266 10.217 11.0183 10.0125C11.0099 9.808 11.0833 9.62817 11.2385 9.473C11.3833 9.32817 11.559 9.25575 11.7655 9.25575C11.9718 9.25575 12.1474 9.32817 12.2923 9.473L14.6058 11.7808Z" fill="currentColor"/>
</svg>
