<svg width="20" height="20" viewBox="0 0 20 20" fill="none" xmlns="http://www.w3.org/2000/svg">
<path d="M10.5416 9.45517V5.54163C10.5416 5.38815 10.4901 5.25947 10.387 5.15558C10.284 5.05183 10.1563 4.99996 10.0041 4.99996C9.85177 4.99996 9.72274 5.05183 9.61704 5.15558C9.51121 5.25947 9.45829 5.38815 9.45829 5.54163V9.64746C9.45829 9.74551 9.47649 9.83357 9.51288 9.91163C9.54913 9.98968 9.59933 10.0608 9.6635 10.125L12.556 13.0177C12.6735 13.1352 12.8023 13.1918 12.9423 13.1875C13.0823 13.1832 13.2126 13.1207 13.3333 13C13.454 12.8793 13.5143 12.7502 13.5143 12.6129C13.5143 12.4757 13.4516 12.345 13.3262 12.2208L10.5416 9.45517ZM10.0014 17.5833C8.95683 17.5833 7.97489 17.3859 7.05558 16.9912C6.13642 16.5965 5.33093 16.0534 4.63913 15.3618C3.94732 14.6703 3.40392 13.8641 3.00892 12.9433C2.61406 12.0226 2.41663 11.0388 2.41663 9.99183C2.41663 8.94489 2.61399 7.96051 3.00871 7.03871C3.40343 6.1169 3.94656 5.31357 4.63808 4.62871C5.32961 3.94385 6.13579 3.40392 7.05663 3.00892C7.97732 2.61406 8.96114 2.41663 10.0081 2.41663C11.055 2.41663 12.0394 2.61565 12.9612 3.01371C13.8832 3.41176 14.6851 3.95197 15.367 4.63433C16.049 5.3167 16.5888 6.11913 16.9866 7.04163C17.3844 7.96413 17.5833 8.94975 17.5833 9.9985C17.5833 11.0431 17.3859 12.025 16.9912 12.9443C16.5965 13.8635 16.0568 14.669 15.3723 15.3608C14.6877 16.0526 13.8838 16.596 12.9606 16.991C12.0374 17.3859 11.051 17.5833 10.0014 17.5833ZM10.01 16.5C11.8082 16.5 13.3394 15.8645 14.6037 14.5937C15.8679 13.3229 16.5 11.7883 16.5 9.98996C16.5 8.19176 15.8679 6.66052 14.6037 5.39621C13.3394 4.13204 11.8082 3.49996 10.01 3.49996C8.21163 3.49996 6.67704 4.13204 5.40621 5.39621C4.13538 6.66052 3.49996 8.19176 3.49996 9.98996C3.49996 11.7883 4.13538 13.3229 5.40621 14.5937C6.67704 15.8645 8.21163 16.5 10.01 16.5Z" fill="currentColor"/>
</svg>
