<svg width="24" height="24" viewBox="0 0 24 24" fill="none" xmlns="http://www.w3.org/2000/svg">
<path d="M12.0001 10.5288L7.72706 14.802C7.58856 14.9404 7.43531 15.0112 7.26731 15.0145C7.09948 15.0177 6.94306 14.9469 6.79806 14.802C6.65323 14.657 6.58081 14.5022 6.58081 14.3375C6.58081 14.1729 6.65323 14.018 6.79806 13.873L11.4423 9.22879C11.6065 9.06479 11.7924 8.98279 12.0001 8.98279C12.2077 8.98279 12.3936 9.06479 12.5578 9.22879L17.2021 13.873C17.3404 14.0115 17.4112 14.1606 17.4146 14.3203C17.4177 14.4798 17.3469 14.632 17.2021 14.777C17.0571 14.9219 16.9022 14.9943 16.7376 14.9943C16.5729 14.9943 16.4181 14.9219 16.2731 14.777L12.0001 10.5288Z" fill="currentColor"/>
</svg>
