<svg width="24" height="24" viewBox="0 0 24 24" fill="none" xmlns="http://www.w3.org/2000/svg">
<path d="M9.8085 15.1135C9.581 15.1135 9.38942 15.0373 9.23375 14.885C9.07792 14.7325 9 14.5423 9 14.3142V12.787C9 12.5738 9.0385 12.3686 9.1155 12.1713C9.19233 11.9738 9.31 11.7958 9.4685 11.6375L17.7348 3.37125C17.8731 3.23275 18.0186 3.13625 18.1712 3.08175C18.3237 3.02725 18.4837 3 18.651 3C18.8205 3 18.9835 3.02725 19.14 3.08175C19.2967 3.13625 19.4405 3.22775 19.5715 3.35625L20.7038 4.4635C20.8486 4.602 20.9515 4.75383 21.0125 4.919C21.0733 5.08417 21.1038 5.25158 21.1038 5.42125C21.1038 5.59125 21.0747 5.75583 21.0168 5.915C20.9587 6.07417 20.8608 6.22233 20.723 6.3595L12.428 14.6547C12.2695 14.8131 12.092 14.9292 11.8955 15.003C11.6988 15.0767 11.4943 15.1135 11.2817 15.1135H9.8085ZM18.5577 6.6865L19.7943 5.43075L18.6635 4.27125L17.4078 5.5365L18.5577 6.6865ZM4.60775 21.1135C4.15758 21.1135 3.77708 20.9581 3.46625 20.6473C3.15542 20.3364 3 19.9559 3 19.5058V6.92125C3 6.46425 3.15417 6.07792 3.4625 5.76225C3.77083 5.44642 4.15258 5.29683 4.60775 5.3135H11.0538C11.2282 5.3135 11.3799 5.35867 11.5087 5.449C11.6376 5.5395 11.7253 5.6605 11.772 5.812C11.833 5.96367 11.8526 6.11692 11.8307 6.27175C11.8089 6.42658 11.741 6.561 11.627 6.675L7.48475 10.8173C7.32058 10.9814 7.2 11.1621 7.123 11.3593C7.04617 11.5563 7.00775 11.7613 7.00775 11.9745V15.5095C7.00775 15.9507 7.16442 16.327 7.47775 16.6385C7.79092 16.95 8.16883 17.1058 8.6115 17.1058H12.0985C12.3123 17.1058 12.5179 17.0673 12.7153 16.9905C12.9128 16.9135 13.0936 16.7929 13.2578 16.6287L17.4385 12.448C17.5525 12.334 17.6869 12.2661 17.8418 12.2442C17.9966 12.2224 18.1498 12.242 18.3015 12.303C18.453 12.3497 18.574 12.4374 18.6645 12.5662C18.7548 12.6952 18.8 12.8469 18.8 13.0213V19.5058C18.8 19.9559 18.6446 20.3364 18.3337 20.6473C18.0229 20.9581 17.6424 21.1135 17.1923 21.1135H4.60775Z" fill="currentColor"/>
</svg>
