<svg width="20" height="20" viewBox="0 0 20 20" fill="none" xmlns="http://www.w3.org/2000/svg">
<path d="M10.2542 16.7916C10.1018 16.7916 9.97282 16.7396 9.86712 16.6358C9.76129 16.532 9.70837 16.4034 9.70837 16.2499V12.7499C9.70837 12.5964 9.7599 12.4678 9.86296 12.3641C9.96601 12.2602 10.0937 12.2083 10.2459 12.2083C10.3982 12.2083 10.5273 12.2602 10.633 12.3641C10.7388 12.4678 10.7917 12.5964 10.7917 12.7499V13.9583H16.2442C16.3974 13.9583 16.5269 14.0098 16.6327 14.1128C16.7387 14.2159 16.7917 14.3435 16.7917 14.4958C16.7917 14.6481 16.7398 14.7771 16.6359 14.8828C16.5321 14.9887 16.4035 15.0416 16.25 15.0416H10.7917V16.2499C10.7917 16.4034 10.7402 16.532 10.6371 16.6358C10.5341 16.7396 10.4064 16.7916 10.2542 16.7916ZM3.75004 15.0416C3.59657 15.0416 3.46796 14.9901 3.36421 14.887C3.26032 14.7839 3.20837 14.6563 3.20837 14.5041C3.20837 14.3517 3.26032 14.2227 3.36421 14.117C3.46796 14.0112 3.59657 13.9583 3.75004 13.9583H7.25004C7.40351 13.9583 7.53212 14.0098 7.63587 14.1128C7.73976 14.2159 7.79171 14.3435 7.79171 14.4958C7.79171 14.6481 7.73976 14.7771 7.63587 14.8828C7.53212 14.9887 7.40351 15.0416 7.25004 15.0416H3.75004ZM6.75421 12.2916C6.60185 12.2916 6.47282 12.2396 6.36712 12.1358C6.26129 12.032 6.20837 11.9034 6.20837 11.7499V10.5416H3.75546C3.60254 10.5416 3.47317 10.4901 3.36733 10.387C3.26136 10.2839 3.20837 10.1563 3.20837 10.0041C3.20837 9.85172 3.26032 9.7227 3.36421 9.617C3.46796 9.51117 3.59657 9.45825 3.75004 9.45825H6.20837V8.24992C6.20837 8.09645 6.2599 7.96783 6.36296 7.86409C6.46601 7.7602 6.59365 7.70825 6.74587 7.70825C6.89824 7.70825 7.02726 7.7602 7.13296 7.86409C7.23879 7.96783 7.29171 8.09645 7.29171 8.24992V11.7499C7.29171 11.9034 7.24018 12.032 7.13712 12.1358C7.03407 12.2396 6.90643 12.2916 6.75421 12.2916ZM9.75004 10.5416C9.59657 10.5416 9.46796 10.4901 9.36421 10.387C9.26032 10.2839 9.20837 10.1563 9.20837 10.0041C9.20837 9.85172 9.26032 9.7227 9.36421 9.617C9.46796 9.51117 9.59657 9.45825 9.75004 9.45825H16.25C16.4035 9.45825 16.5321 9.50978 16.6359 9.61284C16.7398 9.71589 16.7917 9.84353 16.7917 9.99575C16.7917 10.1481 16.7398 10.2771 16.6359 10.3828C16.5321 10.4887 16.4035 10.5416 16.25 10.5416H9.75004ZM12.7542 7.79159C12.6018 7.79159 12.4728 7.73964 12.3671 7.63575C12.2613 7.532 12.2084 7.40339 12.2084 7.24992V3.74992C12.2084 3.59645 12.2599 3.46783 12.363 3.36408C12.466 3.2602 12.5937 3.20825 12.7459 3.20825C12.8982 3.20825 13.0273 3.2602 13.133 3.36408C13.2388 3.46783 13.2917 3.59645 13.2917 3.74992V4.95825H16.25C16.4035 4.95825 16.5321 5.00978 16.6359 5.11283C16.7398 5.21589 16.7917 5.34353 16.7917 5.49575C16.7917 5.64811 16.7398 5.77714 16.6359 5.88284C16.5321 5.98867 16.4035 6.04159 16.25 6.04159H13.2917V7.24992C13.2917 7.40339 13.2402 7.532 13.1371 7.63575C13.0341 7.73964 12.9064 7.79159 12.7542 7.79159ZM3.75004 6.04159C3.59657 6.04159 3.46796 5.99006 3.36421 5.887C3.26032 5.78395 3.20837 5.65631 3.20837 5.50409C3.20837 5.35172 3.26032 5.2227 3.36421 5.117C3.46796 5.01117 3.59657 4.95825 3.75004 4.95825H10.25C10.4035 4.95825 10.5321 5.00978 10.6359 5.11283C10.7398 5.21589 10.7917 5.34353 10.7917 5.49575C10.7917 5.64811 10.7398 5.77714 10.6359 5.88284C10.5321 5.98867 10.4035 6.04159 10.25 6.04159H3.75004Z" fill="currentColor"/>
</svg>
