<svg width="16" height="16" viewBox="0 0 16 16" fill="none" xmlns="http://www.w3.org/2000/svg">
<path d="M9.88722 7.99998L4.86538 2.97815C4.73294 2.8457 4.66844 2.68804 4.67188 2.50515C4.67533 2.32226 4.74327 2.16453 4.87572 2.03198C5.00816 1.89953 5.16583 1.83331 5.34872 1.83331C5.53161 1.83331 5.68933 1.89953 5.82188 2.03198L10.9257 7.14615C11.0462 7.2667 11.1354 7.40176 11.1936 7.55131C11.2518 7.70087 11.2809 7.85042 11.2809 7.99998C11.2809 8.14953 11.2518 8.29909 11.1936 8.44865C11.1354 8.5982 11.0462 8.73326 10.9257 8.85381L5.81155 13.968C5.67911 14.1004 5.52316 14.1649 5.34372 14.1615C5.16416 14.158 5.00816 14.0901 4.87572 13.9576C4.74327 13.8252 4.67705 13.6675 4.67705 13.4846C4.67705 13.3018 4.74327 13.144 4.87572 13.0115L9.88722 7.99998Z" fill="currentColor"/>
</svg>
