<svg width="24" height="24" viewBox="0 0 24 24" fill="none" xmlns="http://www.w3.org/2000/svg">
<path d="M5.58273 19.9C5.17339 19.9 4.82389 19.7553 4.53423 19.4658C4.24473 19.1761 4.09998 18.8266 4.09998 18.4173V5.58276C4.09998 5.17342 4.24473 4.82392 4.53423 4.53426C4.82389 4.24476 5.17339 4.10001 5.58273 4.10001H18.4172C18.8266 4.10001 19.1761 4.24476 19.4657 4.53426C19.7552 4.82392 19.9 5.17342 19.9 5.58276V18.4173C19.9 18.8266 19.7552 19.1761 19.4657 19.4658C19.1761 19.7553 18.8266 19.9 18.4172 19.9H5.58273ZM9.69998 18.6H18.2922C18.3692 18.6 18.4397 18.5679 18.5037 18.5038C18.5679 18.4398 18.6 18.3693 18.6 18.2923V5.70776C18.6 5.63076 18.5679 5.56026 18.5037 5.49626C18.4397 5.43209 18.3692 5.40001 18.2922 5.40001H9.69998V18.6Z" fill="currentColor"/>
</svg>
