<svg width="16" height="16" viewBox="0 0 16 16" fill="none" xmlns="http://www.w3.org/2000/svg">
<path d="M4.06535 11.3782C4.66535 10.9688 5.29102 10.6646 5.94235 10.4653C6.59357 10.2662 7.27946 10.1667 8.00002 10.1667C8.72057 10.1667 9.40646 10.2662 10.0577 10.4653C10.709 10.6646 11.3347 10.9688 11.9347 11.3782C12.3491 10.9226 12.6636 10.4064 12.8782 9.82952C13.0927 9.25263 13.2 8.64279 13.2 8.00002C13.2 6.55924 12.6932 5.33235 11.6795 4.31935C10.6658 3.30646 9.43807 2.80002 7.99618 2.80002C6.55429 2.80002 5.32779 3.30646 4.31668 4.31935C3.30557 5.33235 2.80002 6.55924 2.80002 8.00002C2.80002 8.64279 2.90729 9.25263 3.12185 9.82952C3.33641 10.4064 3.65091 10.9226 4.06535 11.3782ZM8.00002 9.03335C7.38035 9.03335 6.85324 8.81602 6.41868 8.38135C5.98402 7.94679 5.76668 7.41968 5.76668 6.80002C5.76668 6.18035 5.98402 5.65324 6.41868 5.21868C6.85324 4.78402 7.38035 4.56668 8.00002 4.56668C8.61968 4.56668 9.14679 4.78402 9.58135 5.21868C10.016 5.65324 10.2333 6.18035 10.2333 6.80002C10.2333 7.41968 10.016 7.94679 9.58135 8.38135C9.14679 8.81602 8.61968 9.03335 8.00002 9.03335ZM8.00468 14.0667C7.16657 14.0667 6.3789 13.9096 5.64168 13.5955C4.90446 13.2814 4.25918 12.8476 3.70585 12.2942C3.15241 11.7408 2.71863 11.0958 2.40452 10.359C2.09041 9.62235 1.93335 8.83346 1.93335 7.99235C1.93335 7.15135 2.09041 6.36502 2.40452 5.63335C2.71863 4.90168 3.15241 4.25918 3.70585 3.70585C4.25918 3.1524 4.90424 2.71863 5.64102 2.40452C6.37768 2.09041 7.16657 1.93335 8.00768 1.93335C8.84868 1.93335 9.63502 2.09041 10.3667 2.40452C11.0983 2.71863 11.7408 3.1524 12.2942 3.70585C12.8476 4.25918 13.2814 4.9029 13.5955 5.63702C13.9096 6.37124 14.0667 7.15735 14.0667 7.99535C14.0667 8.83346 13.9096 9.62113 13.5955 10.3583C13.2814 11.0956 12.8476 11.7408 12.2942 12.2942C11.7408 12.8476 11.0971 13.2814 10.363 13.5955C9.62879 13.9096 8.84268 14.0667 8.00468 14.0667Z" fill="currentColor"/>
</svg>
