<svg width="24" height="24" viewBox="0 0 24 24" fill="none" xmlns="http://www.w3.org/2000/svg">
<path d="M10.1001 13.0961V10.9041C10.1001 10.6762 10.1771 10.4853 10.3313 10.3313C10.4853 10.1771 10.6762 10.1001 10.9041 10.1001H13.0961C13.3239 10.1001 13.5148 10.1771 13.6688 10.3313C13.823 10.4853 13.9001 10.6762 13.9001 10.9041V13.0961C13.9001 13.3239 13.823 13.5148 13.6688 13.6688C13.5148 13.823 13.3239 13.9001 13.0961 13.9001H10.9041C10.6762 13.9001 10.4853 13.823 10.3313 13.6688C10.1771 13.5148 10.1001 13.3239 10.1001 13.0961ZM9.25006 19.0193V17.5001H8.10781C7.66931 17.5001 7.29173 17.3417 6.97506 17.0251C6.65839 16.7084 6.50006 16.3308 6.50006 15.8923V14.7501H4.98081C4.79664 14.7501 4.64231 14.6882 4.51781 14.5646C4.39314 14.4409 4.33081 14.2877 4.33081 14.1051C4.33081 13.9222 4.39314 13.7674 4.51781 13.6406C4.64231 13.5136 4.79664 13.4501 4.98081 13.4501H6.50006V10.5501H4.98081C4.79664 10.5501 4.64231 10.4882 4.51781 10.3646C4.39314 10.2409 4.33081 10.0877 4.33081 9.90506C4.33081 9.72223 4.39314 9.56739 4.51781 9.44056C4.64231 9.31356 4.79664 9.25006 4.98081 9.25006H6.50006V8.10781C6.50006 7.66931 6.65839 7.29173 6.97506 6.97506C7.29173 6.65839 7.66931 6.50006 8.10781 6.50006H9.25006V4.98081C9.25006 4.79664 9.31189 4.64231 9.43556 4.51781C9.55923 4.39314 9.71239 4.33081 9.89506 4.33081C10.0779 4.33081 10.2327 4.39314 10.3596 4.51781C10.4866 4.64231 10.5501 4.79664 10.5501 4.98081V6.50006H13.4501V4.98081C13.4501 4.79664 13.5119 4.64231 13.6356 4.51781C13.7592 4.39314 13.9124 4.33081 14.0951 4.33081C14.2779 4.33081 14.4327 4.39314 14.5596 4.51781C14.6866 4.64231 14.7501 4.79664 14.7501 4.98081V6.50006H15.8923C16.3308 6.50006 16.7084 6.65839 17.0251 6.97506C17.3417 7.29173 17.5001 7.66931 17.5001 8.10781V9.25006H19.0193C19.2035 9.25006 19.3578 9.31189 19.4823 9.43556C19.607 9.55923 19.6693 9.71239 19.6693 9.89506C19.6693 10.0779 19.607 10.2327 19.4823 10.3596C19.3578 10.4866 19.2035 10.5501 19.0193 10.5501H17.5001V13.4501H19.0193C19.2035 13.4501 19.3578 13.5119 19.4823 13.6356C19.607 13.7592 19.6693 13.9124 19.6693 14.0951C19.6693 14.2779 19.607 14.4327 19.4823 14.5596C19.3578 14.6866 19.2035 14.7501 19.0193 14.7501H17.5001V15.8923C17.5001 16.3308 17.3417 16.7084 17.0251 17.0251C16.7084 17.3417 16.3308 17.5001 15.8923 17.5001H14.7501V19.0193C14.7501 19.2035 14.6882 19.3578 14.5646 19.4823C14.4409 19.607 14.2877 19.6693 14.1051 19.6693C13.9222 19.6693 13.7674 19.607 13.6406 19.4823C13.5136 19.3578 13.4501 19.2035 13.4501 19.0193V17.5001H10.5501V19.0193C10.5501 19.2035 10.4882 19.3578 10.3646 19.4823C10.2409 19.607 10.0877 19.6693 9.90506 19.6693C9.72223 19.6693 9.56739 19.607 9.44056 19.4823C9.31356 19.3578 9.25006 19.2035 9.25006 19.0193ZM15.8923 16.2001C15.9693 16.2001 16.0398 16.168 16.1038 16.1038C16.168 16.0398 16.2001 15.9693 16.2001 15.8923V8.10781C16.2001 8.03081 16.168 7.96031 16.1038 7.89631C16.0398 7.83214 15.9693 7.80006 15.8923 7.80006H8.10781C8.03081 7.80006 7.96031 7.83214 7.89631 7.89631C7.83214 7.96031 7.80006 8.03081 7.80006 8.10781V15.8923C7.80006 15.9693 7.83214 16.0398 7.89631 16.1038C7.96031 16.168 8.03081 16.2001 8.10781 16.2001H15.8923Z" fill="currentColor"/>
</svg>
