<svg width="24" height="24" viewBox="0 0 24 24" fill="none" xmlns="http://www.w3.org/2000/svg">
<path d="M11.3077 12.6923H6.69231C6.49615 12.6923 6.33177 12.6259 6.19915 12.4932C6.06638 12.3604 6 12.1959 6 11.9998C6 11.8035 6.06638 11.6391 6.19915 11.5066C6.33177 11.374 6.49615 11.3077 6.69231 11.3077H11.3077V6.69231C11.3077 6.49615 11.3741 6.33177 11.5068 6.19915C11.6396 6.06638 11.8041 6 12.0002 6C12.1965 6 12.3609 6.06638 12.4934 6.19915C12.626 6.33177 12.6923 6.49615 12.6923 6.69231V11.3077H17.3077C17.5038 11.3077 17.6682 11.3741 17.8008 11.5068C17.9336 11.6396 18 11.8041 18 12.0002C18 12.1965 17.9336 12.3609 17.8008 12.4934C17.6682 12.626 17.5038 12.6923 17.3077 12.6923H12.6923V17.3077C12.6923 17.5038 12.6259 17.6682 12.4932 17.8008C12.3604 17.9336 12.1959 18 11.9998 18C11.8035 18 11.6391 17.9336 11.5066 17.8008C11.374 17.6682 11.3077 17.5038 11.3077 17.3077V12.6923Z" fill="currentColor"/>
</svg>
