<svg width="24" height="24" viewBox="0 0 24 24" fill="none" xmlns="http://www.w3.org/2000/svg">
<path d="M6.35005 12.0265C6.35005 12.8918 6.53013 13.6903 6.8903 14.4218C7.25063 15.1534 7.82438 15.8635 8.61155 16.552V15.3385C8.61155 15.1543 8.67338 14.9999 8.79705 14.8753C8.92072 14.7508 9.07388 14.6885 9.25655 14.6885C9.43938 14.6885 9.5943 14.7508 9.7213 14.8753C9.84813 14.9999 9.91155 15.1543 9.91155 15.3385V18.0693C9.91155 18.2969 9.83455 18.4878 9.68055 18.642C9.52638 18.796 9.33547 18.873 9.1078 18.873H6.37705C6.19288 18.873 6.03847 18.8112 5.9138 18.6875C5.7893 18.564 5.72705 18.4108 5.72705 18.228C5.72705 18.0452 5.7893 17.8903 5.9138 17.7635C6.03847 17.6365 6.19288 17.573 6.37705 17.573H7.7598C6.83663 16.7525 6.15422 15.8848 5.71255 14.9698C5.27088 14.0546 5.05005 13.0763 5.05005 12.035C5.05005 10.6683 5.40388 9.42793 6.11155 8.31376C6.81922 7.19943 7.75555 6.36026 8.92055 5.79626C9.08255 5.7116 9.24138 5.70576 9.39705 5.77876C9.55288 5.85193 9.66288 5.97476 9.72705 6.14726C9.79105 6.3196 9.78955 6.48635 9.72255 6.64751C9.65572 6.80851 9.54055 6.9311 9.37705 7.01526C8.46922 7.49193 7.73772 8.17593 7.18255 9.06726C6.62755 9.9586 6.35005 10.945 6.35005 12.0265ZM18.3008 12.0193C18.1208 12.0193 17.959 11.957 17.8155 11.8325C17.6719 11.7082 17.5846 11.5538 17.5538 11.3693C17.4693 10.6116 17.2565 9.91576 16.9155 9.28176C16.5744 8.64776 16.0654 8.03976 15.3885 7.45776V8.66151C15.3885 8.84568 15.3267 9.0001 15.203 9.12476C15.0794 9.24926 14.9262 9.31151 14.7435 9.31151C14.5607 9.31151 14.4058 9.24926 14.2788 9.12476C14.152 9.0001 14.0885 8.84568 14.0885 8.66151V5.93076C14.0885 5.7031 14.1655 5.51218 14.3195 5.35801C14.4737 5.20401 14.6646 5.12701 14.8923 5.12701H17.623C17.8072 5.12701 17.9616 5.18885 18.0863 5.31251C18.2108 5.43601 18.273 5.58918 18.273 5.77201C18.273 5.95485 18.2108 6.10968 18.0863 6.23651C17.9616 6.36351 17.8072 6.42701 17.623 6.42701H16.2403C17.0403 7.11535 17.6673 7.88135 18.1213 8.72501C18.5751 9.56868 18.8443 10.4501 18.9288 11.3693C18.9493 11.5538 18.8947 11.7082 18.765 11.8325C18.6354 11.957 18.4806 12.0193 18.3008 12.0193ZM15.077 21.4653C14.9262 21.4653 14.7949 21.4094 14.683 21.2978C14.5714 21.1859 14.5155 21.0546 14.5155 20.9038V17.4578C14.5155 17.3069 14.5714 17.1756 14.683 17.0638C14.7949 16.9521 14.9262 16.8963 15.077 16.8963H15.725V15.6963C15.725 15.2386 15.889 14.8433 16.2168 14.5105C16.5448 14.1778 16.9442 14.0115 17.415 14.0115C17.8859 14.0115 18.2835 14.1778 18.6078 14.5105C18.9321 14.8433 19.0943 15.2386 19.0943 15.6963V16.8963H19.7423C19.896 16.8963 20.0248 16.9521 20.1288 17.0638C20.2326 17.1756 20.2845 17.3069 20.2845 17.4578V20.9038C20.2845 21.0546 20.2287 21.1859 20.117 21.2978C20.0052 21.4094 19.8739 21.4653 19.723 21.4653H15.077ZM16.5095 16.8963H18.3095V15.6963C18.3095 15.4413 18.2239 15.2275 18.0525 15.055C17.881 14.8825 17.6685 14.7963 17.415 14.7963C17.1614 14.7963 16.947 14.8825 16.772 15.055C16.597 15.2275 16.5095 15.4413 16.5095 15.6963V16.8963Z" fill="currentColor"/>
</svg>
