<svg width="16" height="16" viewBox="0 0 16 16" fill="none" xmlns="http://www.w3.org/2000/svg">
<path d="M3.00004 9.66667C2.53426 9.66667 2.14004 9.50533 1.81737 9.18267C1.49471 8.86 1.33337 8.46578 1.33337 8C1.33337 7.53422 1.49471 7.14 1.81737 6.81733C2.14004 6.49467 2.53426 6.33333 3.00004 6.33333V4.87183C3.00004 4.54039 3.11804 4.25667 3.35404 4.02067C3.59004 3.78467 3.87376 3.66667 4.20521 3.66667H6.33337C6.33337 3.20089 6.49471 2.80667 6.81737 2.484C7.14004 2.16133 7.53426 2 8.00004 2C8.46582 2 8.86004 2.16133 9.18271 2.484C9.50537 2.80667 9.66671 3.20089 9.66671 3.66667H11.7949C12.1263 3.66667 12.41 3.78467 12.646 4.02067C12.882 4.25667 13 4.54039 13 4.87183V6.33333C13.4658 6.33333 13.86 6.49467 14.1827 6.81733C14.5054 7.14 14.6667 7.53422 14.6667 8C14.6667 8.46578 14.5054 8.86 14.1827 9.18267C13.86 9.50533 13.4658 9.66667 13 9.66667V12.4615C13 12.7929 12.882 13.0767 12.646 13.3127C12.41 13.5487 12.1263 13.6667 11.7949 13.6667H4.20521C3.87376 13.6667 3.59004 13.5487 3.35404 13.3127C3.11804 13.0767 3.00004 12.7929 3.00004 12.4615V9.66667ZM5.99921 8.5C6.23054 8.5 6.42737 8.41906 6.58971 8.25717C6.75215 8.09528 6.83337 7.89872 6.83337 7.6675C6.83337 7.43617 6.75243 7.23933 6.59054 7.077C6.42865 6.91456 6.2321 6.83333 6.00087 6.83333C5.76954 6.83333 5.57271 6.91428 5.41037 7.07617C5.24793 7.23806 5.16671 7.43461 5.16671 7.66583C5.16671 7.89717 5.24765 8.094 5.40954 8.25633C5.57143 8.41878 5.76798 8.5 5.99921 8.5ZM9.99921 8.5C10.2305 8.5 10.4274 8.41906 10.5897 8.25717C10.7522 8.09528 10.8334 7.89872 10.8334 7.6675C10.8334 7.43617 10.7524 7.23933 10.5905 7.077C10.4287 6.91456 10.2321 6.83333 10.0009 6.83333C9.76954 6.83333 9.57271 6.91428 9.41037 7.07617C9.24793 7.23806 9.16671 7.43461 9.16671 7.66583C9.16671 7.89717 9.24765 8.094 9.40954 8.25633C9.57143 8.41878 9.76798 8.5 9.99921 8.5ZM6.00004 11.1667H10C10.1417 11.1667 10.2604 11.1187 10.3562 11.0228C10.4521 10.9269 10.5 10.8082 10.5 10.6665C10.5 10.5247 10.4521 10.406 10.3562 10.3103C10.2604 10.2146 10.1417 10.1667 10 10.1667H6.00004C5.85837 10.1667 5.73965 10.2146 5.64387 10.3105C5.54799 10.4064 5.50004 10.5252 5.50004 10.6668C5.50004 10.8086 5.54799 10.9273 5.64387 11.023C5.73965 11.1188 5.85837 11.1667 6.00004 11.1667ZM4.20521 12.6667H11.7949C11.8548 12.6667 11.9039 12.6474 11.9424 12.609C11.9808 12.5706 12 12.5214 12 12.4615V4.87183C12 4.81194 11.9808 4.76278 11.9424 4.72433C11.9039 4.68589 11.8548 4.66667 11.7949 4.66667H4.20521C4.14532 4.66667 4.09615 4.68589 4.05771 4.72433C4.01926 4.76278 4.00004 4.81194 4.00004 4.87183V12.4615C4.00004 12.5214 4.01926 12.5706 4.05771 12.609C4.09615 12.6474 4.14532 12.6667 4.20521 12.6667Z" fill="currentColor"/>
</svg>
