<svg width="16" height="16" viewBox="0 0 16 16" fill="none" xmlns="http://www.w3.org/2000/svg">
<path d="M7.5 9.83342V11.3334C7.5 11.4751 7.54794 11.5938 7.64383 11.6896C7.73972 11.7855 7.8585 11.8334 8.00017 11.8334C8.14194 11.8334 8.26067 11.7855 8.35633 11.6896C8.45211 11.5938 8.5 11.4751 8.5 11.3334V9.83342H10C10.1417 9.83342 10.2604 9.78547 10.3562 9.68958C10.4521 9.59369 10.5 9.47492 10.5 9.33325C10.5 9.19147 10.4521 9.07275 10.3562 8.97708C10.2604 8.8813 10.1417 8.83342 10 8.83342H8.5V7.33342C8.5 7.19175 8.45206 7.07303 8.35617 6.97725C8.26028 6.88136 8.1415 6.83342 7.99983 6.83342C7.85806 6.83342 7.73933 6.88136 7.64367 6.97725C7.54789 7.07303 7.5 7.19175 7.5 7.33342V8.83342H6C5.85833 8.83342 5.73961 8.88136 5.64383 8.97725C5.54794 9.07314 5.5 9.19192 5.5 9.33358C5.5 9.47536 5.54794 9.59408 5.64383 9.68975C5.73961 9.78553 5.85833 9.83342 6 9.83342H7.5ZM4.20517 14.3334C3.86839 14.3334 3.58333 14.2167 3.35 13.9834C3.11667 13.7501 3 13.465 3 13.1282V2.87191C3 2.53514 3.11667 2.25008 3.35 2.01675C3.58333 1.78341 3.86839 1.66675 4.20517 1.66675H9.00133C9.16389 1.66675 9.31883 1.69797 9.46617 1.76041C9.6135 1.82275 9.74189 1.90864 9.85133 2.01808L12.6487 4.81541C12.7581 4.92486 12.844 5.05325 12.9063 5.20058C12.9688 5.34792 13 5.50286 13 5.66541V13.1282C13 13.465 12.8833 13.7501 12.65 13.9834C12.4167 14.2167 12.1316 14.3334 11.7948 14.3334H4.20517ZM9 5.06675V2.66675H4.20517C4.15383 2.66675 4.10683 2.68814 4.06417 2.73091C4.02139 2.77358 4 2.82058 4 2.87191V13.1282C4 13.1796 4.02139 13.2266 4.06417 13.2692C4.10683 13.312 4.15383 13.3334 4.20517 13.3334H11.7948C11.8462 13.3334 11.8932 13.312 11.9358 13.2692C11.9786 13.2266 12 13.1796 12 13.1282V5.66675H9.59983C9.42983 5.66675 9.28739 5.60925 9.1725 5.49425C9.0575 5.37925 9 5.23675 9 5.06675Z" fill="currentColor"/>
</svg>
