<svg width="20" height="20" viewBox="0 0 20 20" fill="none" xmlns="http://www.w3.org/2000/svg">
<path d="M5.75071 15.5834C5.37529 15.5834 5.05911 15.4539 4.80216 15.1948C4.54522 14.9358 4.41675 14.6187 4.41675 14.2436V13.5257C4.41675 13.3719 4.46821 13.2432 4.57112 13.1396C4.6739 13.0359 4.80154 12.984 4.95404 12.984C5.10654 12.984 5.23564 13.0359 5.34133 13.1396C5.44716 13.2432 5.50008 13.3719 5.50008 13.5257V14.2436C5.50008 14.3078 5.52682 14.3665 5.58029 14.4198C5.63362 14.4733 5.69237 14.5 5.75654 14.5H14.2436C14.3078 14.5 14.3665 14.4733 14.4199 14.4198C14.4733 14.3665 14.5001 14.3078 14.5001 14.2436V13.5257C14.5001 13.3719 14.5515 13.2432 14.6542 13.1396C14.7572 13.0359 14.8849 12.984 15.0374 12.984C15.1899 12.984 15.319 13.0359 15.4247 13.1396C15.5305 13.2432 15.5834 13.3719 15.5834 13.5257V14.2436C15.5834 14.6187 15.4538 14.9358 15.1947 15.1948C14.9355 15.4539 14.6182 15.5834 14.2428 15.5834H5.75071ZM9.45842 5.49046L7.75175 7.19713C7.64161 7.30713 7.51529 7.36483 7.37279 7.37025C7.23015 7.37553 7.09779 7.32046 6.97571 7.20504C6.86168 7.08976 6.80598 6.96081 6.80862 6.81817C6.81126 6.67553 6.87029 6.5465 6.98571 6.43108L9.53529 3.8815C9.60501 3.81733 9.67828 3.76928 9.75508 3.73733C9.83189 3.70525 9.91494 3.68921 10.0042 3.68921C10.0936 3.68921 10.1766 3.70525 10.2534 3.73733C10.3302 3.76928 10.4007 3.81733 10.4649 3.8815L13.0145 6.43108C13.1245 6.54108 13.1822 6.66532 13.1876 6.80379C13.1929 6.94213 13.1385 7.06893 13.0245 7.18421C12.9024 7.29963 12.7714 7.35601 12.6315 7.35338C12.4915 7.35074 12.3638 7.29171 12.2484 7.17629L10.5417 5.49046V12.2821C10.5417 12.4359 10.4903 12.5646 10.3874 12.6682C10.2846 12.7719 10.157 12.8238 10.0045 12.8238C9.85196 12.8238 9.72286 12.7719 9.61716 12.6682C9.51133 12.5646 9.45842 12.4359 9.45842 12.2821V5.49046Z" fill="currentColor"/>
</svg>
