<svg width="20" height="20" viewBox="0 0 20 20" fill="none" xmlns="http://www.w3.org/2000/svg">
<path d="M9.99579 12.5512C9.90649 12.5512 9.82343 12.5352 9.74663 12.5031C9.66982 12.4711 9.59933 12.4231 9.53517 12.3589L6.98558 9.80933C6.87558 9.70058 6.82135 9.57322 6.82288 9.42725C6.82454 9.28128 6.88239 9.15058 6.99642 9.03517C7.1185 8.91989 7.24947 8.86357 7.38933 8.86621C7.52933 8.86885 7.65704 8.92788 7.77246 9.04329L9.45829 10.75V3.95829C9.45829 3.80454 9.50975 3.67586 9.61267 3.57225C9.71545 3.4685 9.84308 3.41663 9.99558 3.41663C10.1481 3.41663 10.2772 3.4685 10.3829 3.57225C10.4887 3.67586 10.5416 3.80454 10.5416 3.95829V10.75L12.2483 9.04329C12.3537 8.93329 12.4789 8.87906 12.6239 8.88058C12.7688 8.88225 12.9023 8.94072 13.0243 9.056C13.1384 9.17142 13.1941 9.30045 13.1914 9.44308C13.1888 9.58572 13.1298 9.71475 13.0143 9.83017L10.4648 12.3589C10.395 12.4231 10.3218 12.4711 10.245 12.5031C10.1682 12.5352 10.0851 12.5512 9.99579 12.5512ZM5.75058 15.5833C5.37517 15.5833 5.05899 15.4538 4.80204 15.1948C4.5451 14.9357 4.41663 14.6186 4.41663 14.2435V13.5256C4.41663 13.3718 4.46808 13.2432 4.571 13.1395C4.67378 13.0358 4.80142 12.9839 4.95392 12.9839C5.10642 12.9839 5.23551 13.0358 5.34121 13.1395C5.44704 13.2432 5.49996 13.3718 5.49996 13.5256V14.2435C5.49996 14.3077 5.5267 14.3664 5.58017 14.4198C5.6335 14.4732 5.69225 14.5 5.75642 14.5H14.2435C14.3077 14.5 14.3664 14.4732 14.4198 14.4198C14.4732 14.3664 14.5 14.3077 14.5 14.2435V13.5256C14.5 13.3718 14.5513 13.2432 14.6541 13.1395C14.757 13.0358 14.8848 12.9839 15.0373 12.9839C15.1898 12.9839 15.3188 13.0358 15.4245 13.1395C15.5304 13.2432 15.5833 13.3718 15.5833 13.5256V14.2435C15.5833 14.6186 15.4537 14.9357 15.1945 15.1948C14.9354 15.4538 14.6181 15.5833 14.2427 15.5833H5.75058Z" fill="currentColor"/>
</svg>
