<svg width="20" height="20" viewBox="0 0 20 20" fill="none" xmlns="http://www.w3.org/2000/svg">
<path d="M4.49996 15.5H5.42621L13.6233 7.30288L12.697 6.37663L4.49996 14.5737V15.5ZM4.09038 16.5833C3.90218 16.5833 3.74288 16.5195 3.61246 16.3918C3.4819 16.2642 3.41663 16.106 3.41663 15.9173V14.6848C3.41663 14.5048 3.44871 14.3331 3.51288 14.1698C3.5769 14.0064 3.67732 13.8563 3.81413 13.7195L13.7837 3.73392C13.8958 3.61947 14.0164 3.53801 14.1456 3.48954C14.2748 3.44093 14.4101 3.41663 14.5516 3.41663C14.6933 3.41663 14.8285 3.43933 14.9573 3.48475C15.0861 3.53017 15.2109 3.61058 15.3316 3.726L16.266 4.65225C16.3814 4.77295 16.4632 4.89795 16.5112 5.02725C16.5593 5.15656 16.5833 5.28968 16.5833 5.42663C16.5833 5.5726 16.558 5.7119 16.5075 5.84454C16.4568 5.97718 16.3763 6.09843 16.266 6.20829L6.28038 16.1858C6.14357 16.3226 5.99385 16.423 5.83121 16.487C5.66857 16.5512 5.49753 16.5833 5.31808 16.5833H4.09038ZM13.152 6.84788L12.697 6.37663L13.6233 7.30288L13.152 6.84788Z" fill="currentColor"/>
</svg>
