<svg width="20" height="20" viewBox="0 0 20 20" fill="none" xmlns="http://www.w3.org/2000/svg">
<path d="M11.5517 10.7387C8.80072 10.2034 7.56914 7.54039 7.56914 5.138C7.56914 5.00904 7.51791 4.88537 7.42673 4.79419C7.33554 4.70301 7.21187 4.65178 7.08292 4.65178C6.95397 4.65178 6.8303 4.70301 6.73912 4.79419C6.64793 4.88537 6.59671 5.00904 6.59671 5.138C6.59671 7.54039 5.36512 10.2034 2.61411 10.7387C2.50367 10.7606 2.40423 10.82 2.33277 10.907C2.2613 10.994 2.22223 11.1031 2.22223 11.2157C2.22223 11.3283 2.2613 11.4374 2.33277 11.5243C2.40423 11.6113 2.50367 11.6708 2.61411 11.6927C5.36512 12.228 6.59671 14.891 6.59671 17.2934C6.59671 17.4223 6.64793 17.546 6.73912 17.6372C6.8303 17.7284 6.95397 17.7796 7.08292 17.7796C7.21187 17.7796 7.33554 17.7284 7.42673 17.6372C7.51791 17.546 7.56914 17.4223 7.56914 17.2934C7.56914 14.891 8.80072 12.228 11.5517 11.6927C11.6622 11.6708 11.7616 11.6113 11.8331 11.5243C11.9045 11.4374 11.9436 11.3283 11.9436 11.2157C11.9436 11.1031 11.9045 10.994 11.8331 10.907C11.7616 10.82 11.6622 10.7606 11.5517 10.7387ZM17.3907 6.84996C15.2027 6.40216 14.6193 4.03477 14.6193 2.70692C14.6193 2.57797 14.568 2.4543 14.4769 2.36311C14.3857 2.27193 14.262 2.2207 14.133 2.2207C14.0041 2.2207 13.8804 2.27193 13.7892 2.36311C13.6981 2.4543 13.6468 2.57797 13.6468 2.70692C13.6468 4.03477 13.0634 6.40216 10.8754 6.84996C10.766 6.87274 10.6678 6.93251 10.5973 7.0192C10.5268 7.10589 10.4883 7.21422 10.4883 7.32597C10.4883 7.43771 10.5268 7.54604 10.5973 7.63273C10.6678 7.71943 10.766 7.77919 10.8754 7.80197C13.0634 8.25026 13.6468 10.6172 13.6468 11.945C13.6468 12.074 13.6981 12.1976 13.7892 12.2888C13.8804 12.38 14.0041 12.4312 14.133 12.4312C14.262 12.4312 14.3857 12.38 14.4769 12.2888C14.568 12.1976 14.6193 12.074 14.6193 11.945C14.6193 10.6172 15.2027 8.24978 17.3907 7.80197C17.5001 7.77919 17.5983 7.71943 17.6688 7.63273C17.7393 7.54604 17.7778 7.43771 17.7778 7.32597C17.7778 7.21422 17.7393 7.10589 17.6688 7.0192C17.5983 6.93251 17.5001 6.87274 17.3907 6.84996Z" fill="#171719"/>
</svg>
