<svg width="20" height="20" viewBox="0 0 20 20" fill="none" xmlns="http://www.w3.org/2000/svg">
<path d="M9.99746 17.5833C8.95927 17.5833 7.9792 17.3844 7.05725 16.9866C6.13545 16.5888 5.33045 16.0459 4.64225 15.3577C3.95406 14.6695 3.41107 13.8645 3.01329 12.9427C2.61551 12.0207 2.41663 11.0407 2.41663 10.0025C2.41663 8.95163 2.61579 7.96725 3.01413 7.04933C3.41246 6.13128 3.95461 5.32899 4.64058 4.64246C5.32656 3.95579 6.13107 3.41315 7.05413 3.01454C7.97704 2.61593 8.95683 2.41663 9.9935 2.41663C10.161 2.41663 10.2942 2.46614 10.3931 2.56517C10.4921 2.6642 10.5416 2.7919 10.5416 2.94829C10.5416 3.10482 10.4921 3.23586 10.3931 3.34142C10.2942 3.44711 10.1632 3.49996 9.99996 3.49996C8.19899 3.49996 6.66538 4.12843 5.39913 5.38538C4.13301 6.64232 3.49996 8.17704 3.49996 9.98954C3.49996 11.802 4.13301 13.3402 5.39913 14.6041C6.66538 15.868 8.19899 16.5 9.99996 16.5C11.8194 16.5 13.3576 15.8669 14.6145 14.6008C15.8715 13.3345 16.5 11.8009 16.5 9.99996C16.5 9.83649 16.5529 9.70538 16.6587 9.60663C16.7645 9.50774 16.8957 9.45829 17.052 9.45829C17.2086 9.45829 17.3362 9.50781 17.435 9.60683C17.5338 9.70572 17.5833 9.83892 17.5833 10.0064C17.5833 11.0431 17.384 12.0229 16.9854 12.9458C16.5868 13.8688 16.0441 14.6734 15.3575 15.3593C14.6709 16.0453 13.8686 16.5875 12.9506 16.9858C12.0327 17.3841 11.0483 17.5833 9.99746 17.5833Z" fill="currentColor"/>
</svg>
