<svg width="16" height="16" viewBox="0 0 16 16" fill="none" xmlns="http://www.w3.org/2000/svg">
<mask id="mask0_7353_28773" style="mask-type:luminance" maskUnits="userSpaceOnUse" x="0" y="0" width="16" height="16">
<path d="M15.9912 0.00219727H0.0134277V15.98H15.9912V0.00219727Z" fill="white"/>
</mask>
<g mask="url(#mask0_7353_28773)">
<mask id="mask1_7353_28773" style="mask-type:luminance" maskUnits="userSpaceOnUse" x="2" y="2" width="12" height="12">
<path d="M13.3746 2.66211H2.63086V13.3099H13.3746V2.66211Z" fill="white"/>
</mask>
<g mask="url(#mask1_7353_28773)">
<path d="M6.75156 6.5379V5.52635C6.75156 5.44116 6.78354 5.37725 6.85803 5.33471L8.89183 4.16345C9.16867 4.00373 9.49876 3.92924 9.83945 3.92924C11.1172 3.92924 11.9265 4.91951 11.9265 5.9736C11.9265 6.04812 11.9265 6.13331 11.9158 6.2185L9.80749 4.98333C9.67974 4.90883 9.55191 4.90883 9.42416 4.98333L6.75156 6.5379ZM11.5005 10.4776V8.06052C11.5005 7.91142 11.4366 7.80494 11.3088 7.73043L8.63623 6.17585L9.50935 5.67537C9.58387 5.63283 9.64778 5.63283 9.7223 5.67537L11.7561 6.84663C12.3418 7.1874 12.7357 7.91142 12.7357 8.61413C12.7357 9.42334 12.2566 10.1687 11.5005 10.4775V10.4776ZM6.12334 8.34808L5.25022 7.83701C5.17572 7.79447 5.14375 7.73054 5.14375 7.64534V5.30284C5.14375 4.16356 6.01687 3.30102 7.1988 3.30102C7.64607 3.30102 8.06125 3.45013 8.41272 3.71631L6.3151 4.9302C6.18736 5.0047 6.12345 5.11117 6.12345 5.2603V8.34817L6.12334 8.34808ZM8.00271 9.43413L6.75156 8.73139V7.24075L8.00271 6.53801L9.25377 7.24075V8.73139L8.00271 9.43413ZM8.80661 12.6711C8.35937 12.6711 7.94419 12.522 7.59272 12.2559L9.69032 11.0419C9.81808 10.9674 9.88199 10.861 9.88199 10.7118V7.62397L10.7658 8.13504C10.8403 8.17758 10.8723 8.24149 10.8723 8.32671V10.6692C10.8723 11.8085 9.98846 12.671 8.80661 12.671V12.6711ZM6.28305 10.2967L4.24926 9.12542C3.66358 8.78463 3.26966 8.06063 3.26966 7.3579C3.26966 6.53802 3.75947 5.80332 4.51542 5.49451V7.9222C4.51542 8.07131 4.57935 8.17778 4.70709 8.2523L7.3691 9.79618L6.49598 10.2967C6.42148 10.3392 6.35755 10.3392 6.28305 10.2967ZM6.16599 12.0429C4.96278 12.0429 4.07898 11.1378 4.07898 10.0198C4.07898 9.93461 4.08966 9.84942 4.10024 9.76422L6.19786 10.9781C6.32559 11.0526 6.45344 11.0526 6.58117 10.9781L9.25377 9.43424V10.4458C9.25377 10.531 9.22182 10.5949 9.1473 10.6374L7.11352 11.8087C6.83666 11.9684 6.50657 12.0429 6.16588 12.0429H6.16599ZM8.80661 13.3099C10.095 13.3099 11.1704 12.3943 11.4154 11.1804C12.6079 10.8716 13.3746 9.75353 13.3746 8.61424C13.3746 7.86886 13.0552 7.14486 12.4802 6.6231C12.5334 6.39947 12.5654 6.17585 12.5654 5.95234C12.5654 4.42972 11.3302 3.29033 9.90336 3.29033C9.61593 3.29033 9.33908 3.33287 9.06222 3.42876C8.58299 2.96023 7.92282 2.66211 7.1988 2.66211C5.91042 2.66211 4.83504 3.57777 4.59005 4.79166C3.39751 5.10048 2.63086 6.2185 2.63086 7.35779C2.63086 8.10317 2.95026 8.82717 3.52526 9.34893C3.47202 9.57256 3.44007 9.79618 3.44007 10.0197C3.44007 11.5423 4.67524 12.6817 6.10206 12.6817C6.38951 12.6817 6.66637 12.6392 6.94322 12.5433C7.42234 13.0118 8.08251 13.3099 8.80661 13.3099Z" fill="currentColor"/>
</g>
</g>
</svg>
