<svg width="16" height="16" viewBox="0 0 16 16" fill="none" xmlns="http://www.w3.org/2000/svg">
<path d="M12.3768 13.25C11.1649 13.15 9.99996 12.8301 8.88196 12.2903C7.76407 11.7506 6.75084 11.0265 5.84229 10.118C4.93807 9.20945 4.21884 8.19723 3.68462 7.08134C3.1504 5.96556 2.83329 4.80173 2.73329 3.58984C2.71107 3.35651 2.78051 3.15262 2.94162 2.97817C3.10273 2.80384 3.29996 2.71667 3.53329 2.71667H5.27429C5.47596 2.71667 5.64946 2.77718 5.79479 2.89818C5.94012 3.01906 6.0414 3.17695 6.09862 3.37184L6.44746 4.78334C6.4739 4.93201 6.46557 5.07729 6.42246 5.21918C6.37923 5.36106 6.3089 5.47645 6.21146 5.56534L4.67179 7.06417C4.91957 7.52906 5.19434 7.96667 5.49612 8.37701C5.79779 8.78723 6.12857 9.17095 6.48846 9.52818C6.84312 9.88295 7.22646 10.2116 7.63846 10.5142C8.05046 10.8167 8.49534 11.092 8.97312 11.3398L10.5525 9.79751C10.6457 9.70006 10.7526 9.63506 10.8731 9.60251C10.9936 9.57006 11.1282 9.56495 11.277 9.58718L12.6115 9.88084C12.8131 9.9364 12.9727 10.039 13.0903 10.1885C13.2078 10.3381 13.2666 10.5158 13.2666 10.7218V12.45C13.2666 12.6833 13.1767 12.8806 12.9968 13.0417C12.8168 13.2028 12.6101 13.2722 12.3768 13.25Z" fill="currentColor"/>
</svg>
