<svg width="16" height="16" viewBox="0 0 16 16" fill="none" xmlns="http://www.w3.org/2000/svg">
<path d="M8.00025 11.1667C8.14203 11.1667 8.26075 11.1187 8.35642 11.0229C8.45219 10.9271 8.50008 10.8084 8.50008 10.6667V7.83335C8.50008 7.69169 8.45214 7.57291 8.35625 7.47702C8.26036 7.38124 8.14158 7.33335 7.99991 7.33335C7.85814 7.33335 7.73942 7.38124 7.64375 7.47702C7.54797 7.57291 7.50008 7.69169 7.50008 7.83335V10.6667C7.50008 10.8084 7.54803 10.9271 7.64392 11.0229C7.7398 11.1187 7.85858 11.1667 8.00025 11.1667ZM8.00008 6.19235C8.15264 6.19235 8.28053 6.14074 8.38375 6.03752C8.48697 5.9343 8.53858 5.80641 8.53858 5.65385C8.53858 5.5013 8.48697 5.37341 8.38375 5.27019C8.28053 5.16708 8.15264 5.11552 8.00008 5.11552C7.84753 5.11552 7.71964 5.16708 7.61642 5.27019C7.51319 5.37341 7.46158 5.5013 7.46158 5.65385C7.46158 5.80641 7.51319 5.9343 7.61642 6.03752C7.71964 6.14074 7.84753 6.19235 8.00008 6.19235ZM8.00125 14.3334C7.12525 14.3334 6.30186 14.1671 5.53108 13.8347C4.7603 13.5022 4.08986 13.0511 3.51975 12.4812C2.94964 11.9113 2.49825 11.2411 2.16558 10.4707C1.83303 9.70024 1.66675 8.87708 1.66675 8.00119C1.66675 7.12519 1.83297 6.3018 2.16541 5.53102C2.49786 4.76024 2.94903 4.0898 3.51891 3.51969C4.0888 2.94958 4.75897 2.49819 5.52942 2.16552C6.29986 1.83296 7.12303 1.66669 7.99891 1.66669C8.87492 1.66669 9.6983 1.83291 10.4691 2.16535C11.2399 2.4978 11.9103 2.94896 12.4804 3.51885C13.0505 4.08874 13.5019 4.75891 13.8346 5.52935C14.1671 6.2998 14.3334 7.12296 14.3334 7.99885C14.3334 8.87485 14.1672 9.69824 13.8347 10.469C13.5023 11.2398 13.0511 11.9102 12.4812 12.4804C11.9114 13.0505 11.2412 13.5019 10.4707 13.8345C9.7003 14.1671 8.87714 14.3334 8.00125 14.3334Z" fill="currentColor"/>
</svg>
