<svg width="20" height="20" viewBox="0 0 20 20" fill="none" xmlns="http://www.w3.org/2000/svg">
<path d="M3.75642 15.5833C3.38128 15.5833 3.0642 15.4537 2.80517 15.1945C2.54614 14.9354 2.41663 14.6181 2.41663 14.2427V5.75058C2.41663 5.37517 2.54614 5.05899 2.80517 4.80204C3.0642 4.5451 3.38128 4.41663 3.75642 4.41663H16.2435C16.6186 4.41663 16.9357 4.54621 17.1948 4.80538C17.4538 5.06454 17.5833 5.38183 17.5833 5.75725V14.2493C17.5833 14.6248 17.4538 14.9409 17.1948 15.1979C16.9357 15.4548 16.6186 15.5833 16.2435 15.5833H3.75642ZM9.99996 10.5352C10.0627 10.5352 10.1247 10.5248 10.1858 10.5039C10.2469 10.4831 10.3062 10.4545 10.3637 10.4183L16.1779 6.99829C16.2729 6.93954 16.3436 6.8569 16.3902 6.75038C16.4367 6.64385 16.4519 6.531 16.4358 6.41183C16.4251 6.20031 16.322 6.04565 16.1266 5.94788C15.9311 5.8501 15.7334 5.85621 15.5337 5.96621L9.99996 9.22913L4.48704 5.98704C4.2926 5.87704 4.0942 5.86475 3.89183 5.95017C3.68933 6.03572 3.5801 6.1869 3.56413 6.40371C3.54801 6.51593 3.5667 6.62704 3.62017 6.73704C3.67364 6.84718 3.74788 6.93426 3.84288 6.99829L9.65704 10.4183C9.70815 10.4545 9.76072 10.4831 9.81475 10.5039C9.86878 10.5248 9.93052 10.5352 9.99996 10.5352Z" fill="currentColor"/>
</svg>
