<svg width="16" height="16" viewBox="0 0 16 16" fill="none" xmlns="http://www.w3.org/2000/svg">
<path d="M6.12299 8.00001L11.1448 13.0218C11.2773 13.1543 11.3418 13.3102 11.3385 13.4897C11.335 13.6692 11.2671 13.8252 11.1347 13.9577C11.0021 14.0901 10.8461 14.1563 10.6667 14.1563C10.4872 14.1563 10.3312 14.0901 10.1987 13.9577L5.08466 8.85384C4.9641 8.73329 4.87477 8.59823 4.81666 8.44868C4.75855 8.29912 4.72949 8.14957 4.72949 8.00001C4.72949 7.85045 4.75855 7.7009 4.81666 7.55134C4.87477 7.40179 4.9641 7.26673 5.08466 7.14618L10.1987 2.03201C10.3312 1.89957 10.4889 1.83507 10.6718 1.83851C10.8547 1.84195 11.0124 1.9099 11.1448 2.04234C11.2773 2.17479 11.3435 2.33079 11.3435 2.51034C11.3435 2.68979 11.2773 2.84573 11.1448 2.97818L6.12299 8.00001Z" fill="currentColor"/>
</svg>
