<svg width="16" height="16" viewBox="0 0 16 16" fill="none" xmlns="http://www.w3.org/2000/svg">
<path d="M9.95525 4.57686C9.81359 4.57686 9.69481 4.52897 9.59892 4.43319C9.50314 4.3373 9.45525 4.21847 9.45525 4.07669C9.45525 3.93503 9.50314 3.8163 9.59892 3.72053C9.69481 3.62486 9.81359 3.57703 9.95525 3.57703H13.9553C14.0969 3.57703 14.2156 3.62497 14.3114 3.72086C14.4073 3.81664 14.4553 3.93542 14.4553 4.07719C14.4553 4.21886 14.4073 4.33758 14.3114 4.43336C14.2156 4.52903 14.0969 4.57686 13.9553 4.57686H9.95525ZM9.95525 7.16669C9.81359 7.16669 9.69481 7.11875 9.59892 7.02286C9.50314 6.92697 9.45525 6.80819 9.45525 6.66653C9.45525 6.52475 9.50314 6.40603 9.59892 6.31036C9.69481 6.21458 9.81359 6.16669 9.95525 6.16669H13.9553C14.0969 6.16669 14.2156 6.21464 14.3114 6.31053C14.4073 6.40642 14.4553 6.52519 14.4553 6.66686C14.4553 6.80864 14.4073 6.92736 14.3114 7.02303C14.2156 7.1188 14.0969 7.16669 13.9553 7.16669H9.95525ZM9.95525 9.75636C9.81359 9.75636 9.69481 9.70842 9.59892 9.61253C9.50314 9.51675 9.45525 9.39797 9.45525 9.25619C9.45525 9.11453 9.50314 8.9958 9.59892 8.90003C9.69481 8.80436 9.81359 8.75653 9.95525 8.75653H13.9553C14.0969 8.75653 14.2156 8.80442 14.3114 8.90019C14.4073 8.99608 14.4553 9.11492 14.4553 9.25669C14.4553 9.39836 14.4073 9.51708 14.3114 9.61286C14.2156 9.70853 14.0969 9.75636 13.9553 9.75636H9.95525ZM5.29009 9.20519C4.8062 9.20519 4.39437 9.0358 4.05459 8.69703C3.71481 8.35825 3.54492 7.94692 3.54492 7.46303C3.54492 6.97914 3.71431 6.56736 4.05309 6.22769C4.39187 5.88791 4.8032 5.71803 5.28709 5.71803C5.77098 5.71803 6.18281 5.88736 6.52259 6.22603C6.86226 6.5648 7.03209 6.97614 7.03209 7.46003C7.03209 7.94392 6.86275 8.35575 6.52409 8.69553C6.18531 9.0353 5.77398 9.20519 5.29009 9.20519ZM1.54492 12.3462V11.9385C1.54492 11.7493 1.59087 11.5691 1.68276 11.3979C1.77464 11.2266 1.90137 11.0906 2.06292 10.9899C2.54581 10.7069 3.05542 10.4925 3.59176 10.3469C4.1282 10.2011 4.69381 10.1282 5.28859 10.1282C5.88337 10.1282 6.44892 10.2011 6.98525 10.3469C7.52159 10.4925 8.03125 10.7069 8.51426 10.9899C8.6757 11.0906 8.80237 11.2266 8.89426 11.3979C8.98614 11.5691 9.03209 11.7493 9.03209 11.9385V12.3462C9.03209 12.5169 8.97437 12.66 8.85892 12.7755C8.74337 12.891 8.60025 12.9487 8.42959 12.9487H2.14759C1.97681 12.9487 1.8337 12.891 1.71826 12.7755C1.6027 12.66 1.54492 12.5169 1.54492 12.3462Z" fill="currentColor"/>
</svg>
