<svg width="16" height="16" viewBox="0 0 16 16" fill="none" xmlns="http://www.w3.org/2000/svg">
<path d="M6.022 12.35H4.49283C4.19683 12.35 3.9435 12.2446 3.73283 12.0338C3.52206 11.8232 3.41667 11.5698 3.41667 11.2738V9.74467L2.3115 8.6435C2.19783 8.53417 2.1175 8.41417 2.0705 8.2835C2.0235 8.15272 2 8.01972 2 7.8845C2 7.74928 2.0235 7.61594 2.0705 7.4845C2.1175 7.35294 2.19783 7.2325 2.3115 7.12317L3.41667 6.022V4.49283C3.41667 4.19683 3.52206 3.9435 3.73283 3.73283C3.9435 3.52206 4.19683 3.41667 4.49283 3.41667H6.022L7.12317 2.3115C7.2325 2.19783 7.3525 2.1175 7.48317 2.0705C7.61394 2.0235 7.74694 2 7.88217 2C8.01739 2 8.15072 2.0235 8.28217 2.0705C8.41372 2.1175 8.53417 2.19783 8.6435 2.3115L9.74467 3.41667H11.2738C11.5698 3.41667 11.8232 3.52206 12.0338 3.73283C12.2446 3.9435 12.35 4.19683 12.35 4.49283V6.022L13.4552 7.12317C13.5688 7.2325 13.6492 7.3525 13.6962 7.48317C13.7432 7.61394 13.7667 7.74694 13.7667 7.88217C13.7667 8.01739 13.7432 8.15072 13.6962 8.28217C13.6492 8.41372 13.5688 8.53417 13.4552 8.6435L12.35 9.74467V11.2738C12.35 11.5698 12.2446 11.8232 12.0338 12.0338C11.8232 12.2446 11.5698 12.35 11.2738 12.35H9.74467L8.6435 13.4552C8.53417 13.5688 8.41417 13.6492 8.2835 13.6962C8.15272 13.7432 8.01972 13.7667 7.8845 13.7667C7.74928 13.7667 7.61594 13.7432 7.4845 13.6962C7.35294 13.6492 7.2325 13.5688 7.12317 13.4552L6.022 12.35ZM4.4885 11.4833H5.8115V9.03467C5.58594 8.96111 5.39772 8.83461 5.24683 8.65517C5.09594 8.47561 5.0205 8.25839 5.0205 8.0035V5.975C5.0205 5.89933 5.04444 5.83695 5.09233 5.78783C5.14022 5.73872 5.20344 5.71417 5.282 5.71417C5.36067 5.71417 5.42394 5.73872 5.47183 5.78783C5.51972 5.83695 5.54367 5.90011 5.54367 5.97733V7.84483H5.94233V5.97567C5.94233 5.89956 5.96628 5.83695 6.01417 5.78783C6.06194 5.73872 6.12517 5.71417 6.20383 5.71417C6.2825 5.71417 6.34578 5.73872 6.39367 5.78783C6.44144 5.83695 6.46533 5.90011 6.46533 5.97733V7.84483H6.86417V5.97567C6.86417 5.89956 6.88806 5.83695 6.93583 5.78783C6.98372 5.73872 7.047 5.71417 7.12567 5.71417C7.206 5.71417 7.27072 5.73872 7.31983 5.78783C7.36894 5.83695 7.3935 5.89994 7.3935 5.97683V8.00417C7.3935 8.25894 7.31706 8.47878 7.16417 8.66367C7.01117 8.84856 6.82394 8.97222 6.6025 9.03467V11.7025L7.73583 12.8358C7.77428 12.8743 7.82344 12.8935 7.88333 12.8935C7.94322 12.8935 7.99239 12.8743 8.03083 12.8358L9.16417 11.7025V9.29317C8.94006 9.16683 8.75217 8.94789 8.6005 8.63633C8.44895 8.32478 8.37317 7.96717 8.37317 7.5635C8.37317 7.0545 8.49106 6.619 8.72683 6.257C8.96261 5.89511 9.24128 5.71417 9.56283 5.71417C9.89495 5.71417 10.1752 5.8925 10.4035 6.24917C10.6319 6.60595 10.7462 7.04428 10.7462 7.56417C10.7462 7.96183 10.6723 8.3175 10.5247 8.63117C10.3771 8.94483 10.1928 9.16572 9.97183 9.29383V11.4833H11.2782C11.3381 11.4833 11.3872 11.4641 11.4257 11.4257C11.4641 11.3872 11.4833 11.3381 11.4833 11.2782V9.38383L12.8358 8.03083C12.8743 7.99239 12.8935 7.94322 12.8935 7.88333C12.8935 7.82344 12.8743 7.77428 12.8358 7.73583L11.4833 6.38283V4.4885C11.4833 4.42861 11.4641 4.37944 11.4257 4.341C11.3872 4.30256 11.3381 4.28333 11.2782 4.28333H9.38383L8.03083 2.93083C7.99239 2.89239 7.94322 2.87317 7.88333 2.87317C7.82344 2.87317 7.77428 2.89239 7.73583 2.93083L6.38283 4.28333H4.4885C4.42861 4.28333 4.37944 4.30256 4.341 4.341C4.30256 4.37944 4.28333 4.42861 4.28333 4.4885V6.38283L2.93083 7.73583C2.89239 7.77428 2.87317 7.82344 2.87317 7.88333C2.87317 7.94322 2.89239 7.99239 2.93083 8.03083L4.28333 9.38383V11.2782C4.28333 11.3381 4.30256 11.3872 4.341 11.4257C4.37944 11.4641 4.42861 11.4833 4.4885 11.4833Z" fill="currentColor"/>
</svg>
