<svg width="24" height="24" viewBox="0 0 24 24" fill="none" xmlns="http://www.w3.org/2000/svg">
<path d="M8.115 12C7.9025 12 7.72442 12.0718 7.58075 12.2155C7.43725 12.3593 7.3655 12.5375 7.3655 12.75V16C7.3655 16.2125 7.43742 16.3906 7.58125 16.5343C7.72492 16.6781 7.90308 16.75 8.11575 16.75C8.32825 16.75 8.50633 16.6781 8.65 16.5343C8.7935 16.3906 8.86525 16.2125 8.86525 16V12.75C8.86525 12.5375 8.79342 12.3593 8.64975 12.2155C8.50592 12.0718 8.32767 12 8.115 12ZM15.8843 7C15.6718 7 15.4937 7.07183 15.35 7.2155C15.2065 7.35933 15.1348 7.5375 15.1348 7.75V16C15.1348 16.2125 15.2066 16.3906 15.3503 16.5343C15.4941 16.6781 15.6723 16.75 15.885 16.75C16.0975 16.75 16.2756 16.6781 16.4193 16.5343C16.5628 16.3906 16.6345 16.2125 16.6345 16V7.75C16.6345 7.5375 16.5626 7.35933 16.4188 7.2155C16.2751 7.07183 16.0969 7 15.8843 7ZM11.9997 14C11.7871 14 11.609 14.0718 11.4655 14.2155C11.3218 14.3593 11.25 14.5375 11.25 14.75V16C11.25 16.2125 11.3219 16.3906 11.4658 16.5343C11.6096 16.6781 11.7878 16.75 12.0003 16.75C12.2129 16.75 12.391 16.6781 12.5345 16.5343C12.6782 16.3906 12.75 16.2125 12.75 16V14.75C12.75 14.5375 12.6781 14.3593 12.5343 14.2155C12.3904 14.0718 12.2122 14 11.9997 14ZM5.30775 20.5C4.80258 20.5 4.375 20.325 4.025 19.975C3.675 19.625 3.5 19.1974 3.5 18.6923V5.30775C3.5 4.80258 3.675 4.375 4.025 4.025C4.375 3.675 4.80258 3.5 5.30775 3.5H18.6923C19.1974 3.5 19.625 3.675 19.975 4.025C20.325 4.375 20.5 4.80258 20.5 5.30775V18.6923C20.5 19.1974 20.325 19.625 19.975 19.975C19.625 20.325 19.1974 20.5 18.6923 20.5H5.30775ZM12.0003 11.75C12.2129 11.75 12.391 11.6781 12.5345 11.5342C12.6782 11.3904 12.75 11.2122 12.75 10.9997C12.75 10.7871 12.6781 10.609 12.5343 10.4655C12.3904 10.3218 12.2122 10.25 11.9997 10.25C11.7871 10.25 11.609 10.3219 11.4655 10.4658C11.3218 10.6096 11.25 10.7878 11.25 11.0003C11.25 11.2129 11.3219 11.391 11.4658 11.5345C11.6096 11.6782 11.7878 11.75 12.0003 11.75Z" fill="#1F1F1F"/>
</svg>
