<svg width="16" height="16" viewBox="0 0 16 16" fill="none" xmlns="http://www.w3.org/2000/svg">
<path d="M1.85889 12.1154V9.8719C1.85889 9.40601 2.02022 9.01179 2.34289 8.68923C2.66555 8.36656 3.05978 8.20523 3.52555 8.20523H4.33322V3.96156C4.33322 3.68045 4.43172 3.44134 4.62872 3.24423C4.82572 3.04723 5.06483 2.94873 5.34605 2.94873H10.6537C10.9349 2.94873 11.1741 3.04723 11.3711 3.24423C11.5681 3.44134 11.6666 3.68045 11.6666 3.96156V8.20523H12.4742C12.94 8.20523 13.3342 8.36656 13.6569 8.68923C13.9796 9.01179 14.1409 9.40601 14.1409 9.8719V12.1154C14.1409 12.3966 14.0424 12.6357 13.8454 12.8327C13.6484 13.0297 13.4093 13.1282 13.1281 13.1282H2.87172C2.5905 13.1282 2.35139 13.0297 2.15439 12.8327C1.95739 12.6357 1.85889 12.3966 1.85889 12.1154ZM5.33322 8.20523H10.6666V3.94873H5.33322V8.20523ZM11.8717 11.0769C12.0606 11.0769 12.2189 11.013 12.3467 10.8852C12.4745 10.7575 12.5384 10.5991 12.5384 10.4102C12.5384 10.2213 12.4745 10.063 12.3467 9.93523C12.2189 9.80745 12.0606 9.74356 11.8717 9.74356C11.6828 9.74356 11.5245 9.80745 11.3967 9.93523C11.2689 10.063 11.2051 10.2213 11.2051 10.4102C11.2051 10.5991 11.2689 10.7575 11.3967 10.8852C11.5245 11.013 11.6828 11.0769 11.8717 11.0769Z" fill="currentColor"/>
</svg>
