<svg width="20" height="20" viewBox="0 0 20 20" fill="none" xmlns="http://www.w3.org/2000/svg">
<path d="M10.007 17.5834C8.96385 17.5834 7.98135 17.386 7.05954 16.9913C6.13774 16.5965 5.33093 16.0534 4.63913 15.3619C3.94732 14.6704 3.40392 13.8642 3.00892 12.9434C2.61406 12.0227 2.41663 11.0388 2.41663 9.9919C2.41663 8.94495 2.61399 7.96405 3.00871 7.04919C3.40343 6.13433 3.94656 5.33099 4.63808 4.63919C5.32961 3.94738 6.13579 3.40398 7.05663 3.00898C7.97732 2.61412 8.96114 2.41669 10.0081 2.41669C11.055 2.41669 12.0359 2.61405 12.9508 3.00877C13.8657 3.40349 14.669 3.94662 15.3608 4.63815C16.0526 5.32967 16.596 6.13419 16.991 7.05169C17.3859 7.96933 17.5833 8.94974 17.5833 9.99294C17.5833 11.0361 17.3859 12.0186 16.9912 12.9404C16.5965 13.8622 16.0534 14.669 15.3618 15.3609C14.6703 16.0527 13.8658 16.5961 12.9483 16.9911C12.0307 17.3859 11.0502 17.5834 10.007 17.5834ZM7.75454 10.5417C8.4619 10.5417 9.06163 10.2941 9.55371 9.79898C10.0457 9.30398 10.2916 8.7028 10.2916 7.99544C10.2916 7.28808 10.0441 6.68835 9.54892 6.19627C9.05392 5.70433 8.45274 5.45835 7.74538 5.45835C7.03801 5.45835 6.43829 5.70592 5.94621 6.20106C5.45427 6.69606 5.20829 7.29724 5.20829 8.0046C5.20829 8.71196 5.45586 9.31169 5.951 9.80377C6.446 10.2957 7.04718 10.5417 7.75454 10.5417ZM13.4952 11.4519C14.0404 11.4519 14.5029 11.2637 14.8825 10.8873C15.262 10.5108 15.4518 10.05 15.4518 9.50481C15.4518 8.95953 15.2636 8.4971 14.8873 8.11752C14.5107 7.73794 14.0499 7.54815 13.5048 7.54815C12.9595 7.54815 12.497 7.73634 12.1175 8.11273C11.7379 8.48926 11.5481 8.95009 11.5481 9.49523C11.5481 10.0405 11.7363 10.5029 12.1127 10.8825C12.4892 11.2621 12.95 11.4519 13.4952 11.4519ZM9.99996 16.5C11.1158 16.5 12.1374 16.2429 13.0648 15.7286C13.9921 15.2141 14.7542 14.5258 15.351 13.6636C15.0614 13.5022 14.7609 13.386 14.4493 13.315C14.1378 13.2439 13.8213 13.2084 13.5 13.2084C12.3995 13.2084 11.4791 13.5411 10.7387 14.2067C9.99829 14.8724 9.53677 15.6267 9.35413 16.4696C9.46093 16.4827 9.5651 16.491 9.66663 16.4946C9.76815 16.4982 9.87927 16.5 9.99996 16.5ZM7.65371 16.0561C7.68468 15.352 7.98704 14.6522 8.56079 13.9567C9.13454 13.2613 9.60302 12.7837 9.96621 12.524C9.61621 12.432 9.23968 12.3564 8.83663 12.2971C8.43371 12.2379 8.04878 12.2084 7.68183 12.2084C7.0767 12.2084 6.49045 12.273 5.92308 12.4023C5.35572 12.5316 4.79642 12.7309 4.24517 13C4.59031 13.7052 5.05663 14.3219 5.64413 14.8502C6.23177 15.3786 6.90163 15.7805 7.65371 16.0561Z" fill="currentColor"/>
</svg>
