<svg width="24" height="24" viewBox="0 0 24 24" fill="none" xmlns="http://www.w3.org/2000/svg">
<path d="M11.9947 18.4691C11.6357 18.4691 11.3302 18.3413 11.0782 18.0856C10.826 17.83 10.7 17.5227 10.7 17.1639C10.7 16.8049 10.8278 16.4993 11.0835 16.2471C11.3391 15.9951 11.6464 15.8691 12.0052 15.8691C12.3642 15.8691 12.6697 15.997 12.9217 16.2526C13.1739 16.5081 13.3 16.8154 13.3 17.1744C13.3 17.5334 13.1721 17.8389 12.9165 18.0909C12.6608 18.3431 12.3535 18.4691 11.9947 18.4691ZM11.9947 13.2999C11.6357 13.2999 11.3302 13.1721 11.0782 12.9164C10.826 12.6607 10.7 12.3535 10.7 11.9946C10.7 11.6356 10.8278 11.3301 11.0835 11.0781C11.3391 10.826 11.6464 10.6999 12.0052 10.6999C12.3642 10.6999 12.6697 10.8277 12.9217 11.0834C13.1739 11.3391 13.3 11.6463 13.3 12.0051C13.3 12.3641 13.1721 12.6696 12.9165 12.9216C12.6608 13.1738 12.3535 13.2999 11.9947 13.2999ZM11.9947 8.13064C11.6357 8.13064 11.3302 8.00281 11.0782 7.74714C10.826 7.49164 10.7 7.18439 10.7 6.82539C10.7 6.46639 10.8278 6.16089 11.0835 5.90889C11.3391 5.65672 11.6464 5.53064 12.0052 5.53064C12.3642 5.53064 12.6697 5.65847 12.9217 5.91414C13.1739 6.16981 13.3 6.47706 13.3 6.83589C13.3 7.19489 13.1721 7.50047 12.9165 7.75264C12.6608 8.00464 12.3535 8.13064 11.9947 8.13064Z" fill="currentColor"/>
</svg>
