<svg width="20" height="20" viewBox="0 0 20 20" fill="none" xmlns="http://www.w3.org/2000/svg">
<path d="M9.99992 17.0912C9.80867 17.0912 9.62249 17.0555 9.44138 16.984C9.26027 16.9124 9.10082 16.8051 8.96304 16.6619L3.53992 11.2179C3.05381 10.7318 2.6895 10.1803 2.447 9.56333C2.2045 8.94625 2.08325 8.30812 2.08325 7.64896C2.08325 6.33604 2.50311 5.21375 3.34284 4.28208C4.18256 3.35041 5.22207 2.88458 6.46138 2.88458C7.07999 2.88458 7.66839 3.00986 8.22658 3.26042C8.78492 3.51097 9.28256 3.86167 9.7195 4.3125L9.99992 4.60896L10.2643 4.32854C10.698 3.86701 11.1954 3.51097 11.7564 3.26042C12.3172 3.00986 12.9043 2.88458 13.5176 2.88458C14.7569 2.88458 15.7999 3.35041 16.6466 4.28208C17.4933 5.21375 17.9166 6.3291 17.9166 7.62812C17.9166 8.29271 17.7932 8.93347 17.5464 9.55042C17.2996 10.1675 16.9374 10.7191 16.4599 11.2052L11.016 16.6619C10.8728 16.8051 10.7154 16.9124 10.5439 16.984C10.3725 17.0555 10.1912 17.0912 9.99992 17.0912ZM10.8333 6.875C10.9401 6.875 11.0399 6.90035 11.1328 6.95104C11.2259 7.00187 11.2991 7.06951 11.3524 7.15396L12.8251 9.375H16.2516C16.3969 9.09611 16.5058 8.80979 16.5785 8.51604C16.6511 8.22229 16.6848 7.92632 16.6795 7.62812C16.657 6.66979 16.3455 5.85222 15.7451 5.17542C15.1447 4.49861 14.4022 4.16021 13.5176 4.16021C13.0764 4.16021 12.6498 4.24757 12.2378 4.42229C11.826 4.59701 11.4689 4.85208 11.1666 5.1875L10.5078 5.89583C10.4438 5.97389 10.3669 6.03187 10.2772 6.06979C10.1875 6.10771 10.0951 6.12667 9.99992 6.12667C9.90478 6.12667 9.81103 6.10632 9.71867 6.06562C9.62631 6.02507 9.54381 5.96847 9.47117 5.89583L8.81242 5.1875C8.51006 4.85208 8.15506 4.59271 7.74742 4.40937C7.33992 4.22618 6.91124 4.13458 6.46138 4.13458C5.57679 4.13458 4.83429 4.47729 4.23388 5.16271C3.63346 5.84798 3.33325 6.66979 3.33325 7.62812C3.33325 7.9316 3.36742 8.22889 3.43575 8.52C3.50422 8.81111 3.60839 9.09611 3.74825 9.375H7.49992C7.60672 9.375 7.70527 9.40035 7.79554 9.45104C7.88582 9.50187 7.9577 9.56951 8.01117 9.65396L8.98075 11.0977L10.242 7.31417C10.2869 7.18486 10.3621 7.07937 10.4678 6.99771C10.5737 6.9159 10.6955 6.875 10.8333 6.875ZM11.0191 8.90229L9.75783 12.6858C9.71297 12.8151 9.63422 12.9206 9.52158 13.0023C9.40881 13.0841 9.28353 13.125 9.14575 13.125C9.03895 13.125 8.9404 13.0997 8.85013 13.049C8.75985 12.9981 8.68797 12.9305 8.6345 12.846L7.15388 10.625H4.71617L9.85408 15.7708C9.88186 15.7986 9.90617 15.816 9.927 15.8229C9.94783 15.8299 9.97214 15.8333 9.99992 15.8333C10.0277 15.8333 10.052 15.8299 10.0728 15.8229C10.0937 15.816 10.118 15.7986 10.1458 15.7708L15.2708 10.625H12.4999C12.3931 10.625 12.2933 10.5983 12.2003 10.5448C12.1073 10.4915 12.0298 10.4226 11.9678 10.3381L11.0191 8.90229Z" fill="currentColor"/>
</svg>
