<svg width="20" height="20" viewBox="0 0 20 20" fill="none" xmlns="http://www.w3.org/2000/svg">
<path d="M7.74913 14.7917H12.2441C12.3973 14.7917 12.5268 14.7402 12.6327 14.6371C12.7386 14.534 12.7916 14.4064 12.7916 14.2542C12.7916 14.1018 12.7398 13.9728 12.6362 13.8671C12.5325 13.7613 12.404 13.7084 12.2508 13.7084H7.75579C7.6026 13.7084 7.47308 13.7599 7.36725 13.8629C7.26128 13.966 7.20829 14.0936 7.20829 14.2459C7.20829 14.3982 7.2601 14.5272 7.36371 14.6329C7.46746 14.7388 7.59593 14.7917 7.74913 14.7917ZM7.74913 11.7917H12.2441C12.3973 11.7917 12.5268 11.7402 12.6327 11.6371C12.7386 11.534 12.7916 11.4064 12.7916 11.2542C12.7916 11.1018 12.7398 10.9728 12.6362 10.8671C12.5325 10.7613 12.404 10.7084 12.2508 10.7084H7.75579C7.6026 10.7084 7.47308 10.7599 7.36725 10.8629C7.26128 10.966 7.20829 11.0936 7.20829 11.2459C7.20829 11.3982 7.2601 11.5272 7.36371 11.6329C7.46746 11.7388 7.59593 11.7917 7.74913 11.7917ZM5.75058 17.5834C5.37517 17.5834 5.05899 17.4538 4.80204 17.1948C4.5451 16.9358 4.41663 16.6187 4.41663 16.2436V3.75648C4.41663 3.38134 4.54614 3.06426 4.80517 2.80523C5.0642 2.5462 5.38128 2.41669 5.75642 2.41669H11.6475C11.8229 2.41669 11.9957 2.44877 12.166 2.51294C12.3363 2.57696 12.4829 2.67738 12.6058 2.81419L15.1858 5.39419C15.3226 5.5171 15.423 5.6637 15.487 5.83398C15.5512 6.00426 15.5833 6.1771 15.5833 6.35252V16.2436C15.5833 16.6187 15.4537 16.9358 15.1945 17.1948C14.9354 17.4538 14.6181 17.5834 14.2427 17.5834H5.75058ZM11.4166 5.91669C11.4166 6.10558 11.4805 6.26391 11.6083 6.39169C11.7361 6.51946 11.8944 6.58335 12.0833 6.58335H14.5L11.4166 3.50002V5.91669Z" fill="currentColor"/>
</svg>
