<svg width="20" height="20" viewBox="0 0 20 20" fill="none" xmlns="http://www.w3.org/2000/svg">
<path d="M8.41242 13.4856C9.82339 13.4856 11.0217 12.9918 12.0072 12.0042C12.9928 11.0166 13.4855 9.81731 13.4855 8.40648C13.4855 6.99551 12.9923 5.79593 12.0058 4.80773C11.0192 3.81954 9.82131 3.32544 8.412 3.32544C7.0027 3.32544 5.80388 3.81919 4.81554 4.80669C3.82735 5.79433 3.33325 6.99363 3.33325 8.40461C3.33325 9.81544 3.82707 11.015 4.81471 12.0031C5.80235 12.9915 7.00159 13.4856 8.41242 13.4856ZM8.41346 14.7356C6.65374 14.7356 5.15881 14.1205 3.92867 12.8902C2.69839 11.66 2.08325 10.165 2.08325 8.40544C2.08325 6.64586 2.69839 5.15093 3.92867 3.92065C5.15881 2.69051 6.65374 2.07544 8.41346 2.07544C10.173 2.07544 11.6666 2.69051 12.8941 3.92065C14.1217 5.15093 14.7355 6.64586 14.7355 8.40544C14.7355 9.17169 14.61 9.89343 14.3589 10.5706C14.1078 11.2479 13.7573 11.8606 13.3076 12.4088L17.4855 16.5865C17.6094 16.709 17.6714 16.8545 17.6714 17.0229C17.6714 17.1914 17.6089 17.3403 17.4839 17.4696C17.3587 17.5988 17.2102 17.6634 17.0383 17.6634C16.8663 17.6634 16.7157 17.5988 16.5864 17.4696L12.4166 13.2996C11.8685 13.7547 11.2559 14.1079 10.5787 14.359C9.90131 14.6101 9.17957 14.7356 8.41346 14.7356Z" fill="currentColor"/>
</svg>
