<svg width="16" height="16" viewBox="0 0 16 16" fill="none" xmlns="http://www.w3.org/2000/svg">
<path d="M7.99996 8.70899L5.94646 10.768C5.84913 10.8645 5.73113 10.9118 5.59246 10.9097C5.45368 10.9074 5.33568 10.858 5.23846 10.7615C5.14191 10.6649 5.09363 10.5468 5.09363 10.407C5.09363 10.2673 5.14191 10.1492 5.23846 10.0525L7.29096 8.00049L5.23846 5.96315C5.14191 5.86582 5.09363 5.74677 5.09363 5.60599C5.09363 5.4651 5.14191 5.34599 5.23846 5.24865C5.33502 5.1521 5.45318 5.10382 5.59296 5.10382C5.73263 5.10382 5.85079 5.1521 5.94746 5.24865L7.99996 7.30765L10.0368 5.24865C10.1341 5.1521 10.2521 5.10382 10.3908 5.10382C10.5296 5.10382 10.6476 5.1521 10.7448 5.24865C10.8482 5.3521 10.9 5.47199 10.9 5.60832C10.9 5.74465 10.8482 5.8611 10.7448 5.95765L8.69229 7.99999L10.7513 10.0535C10.8479 10.1508 10.8961 10.2688 10.8961 10.4075C10.8961 10.5463 10.8479 10.6643 10.7513 10.7615C10.6479 10.8649 10.528 10.9167 10.3916 10.9167C10.2553 10.9167 10.1389 10.8649 10.0423 10.7615L7.99996 8.70899Z" fill="currentColor"/>
</svg>
