<svg width="16" height="16" viewBox="0 0 16 16" fill="none" xmlns="http://www.w3.org/2000/svg">
<path d="M6.51299 10.0251C6.36219 10.0251 6.2352 9.9746 6.13202 9.87368C6.02872 9.77266 5.97708 9.64662 5.97708 9.49557V8.48378C5.97708 8.34256 6.0026 8.20659 6.05364 8.07585C6.10456 7.94501 6.18256 7.82715 6.28762 7.72225L11.7669 2.24595C11.8586 2.15419 11.955 2.09026 12.0562 2.05416C12.1573 2.01805 12.2633 2 12.3742 2C12.4866 2 12.5946 2.01805 12.6983 2.05416C12.8022 2.09026 12.8975 2.15088 12.9844 2.23601L13.7349 2.96955C13.8309 3.06131 13.8991 3.1619 13.9395 3.27132C13.9798 3.38074 14 3.49165 14 3.60405C14 3.71668 13.9808 3.82571 13.9423 3.93116C13.9039 4.0366 13.839 4.13476 13.7476 4.22563L8.24931 9.72115C8.14425 9.82604 8.0266 9.90295 7.89635 9.95186C7.76599 10.0007 7.63038 10.0251 7.48952 10.0251H6.51299ZM12.3124 4.44227L13.132 3.61035L12.3825 2.84219L11.5501 3.6804L12.3124 4.44227ZM3.06569 14C2.7673 14 2.51509 13.897 2.30905 13.6911C2.10302 13.4852 2 13.2331 2 12.9349V4.59779C2 4.29503 2.10219 4.03909 2.30657 3.82996C2.51094 3.62072 2.76399 3.52163 3.06569 3.53267H7.3384C7.45406 3.53267 7.55459 3.56259 7.63999 3.62244C7.72539 3.68239 7.78355 3.76255 7.81449 3.86292C7.85492 3.9634 7.8679 4.06492 7.85343 4.1675C7.83896 4.27007 7.79394 4.35912 7.71837 4.43465L4.9727 7.17884C4.86388 7.2876 4.78395 7.40729 4.73291 7.53791C4.68199 7.66842 4.65652 7.80429 4.65652 7.94551V10.2874C4.65652 10.5797 4.76037 10.829 4.96806 11.0354C5.17564 11.2417 5.42614 11.3449 5.71956 11.3449H8.0309C8.17264 11.3449 8.30891 11.3195 8.43971 11.2686C8.57063 11.2175 8.69049 11.1377 8.79931 11.0289L11.5705 8.2592C11.6461 8.18367 11.7352 8.13868 11.8378 8.12422C11.9404 8.10975 12.042 8.12273 12.1425 8.16314C12.243 8.19405 12.3232 8.25219 12.3832 8.33754C12.443 8.423 12.473 8.52348 12.473 8.63897V12.9349C12.473 13.2331 12.3699 13.4852 12.1639 13.6911C11.9579 13.897 11.7057 14 11.4073 14H3.06569Z" fill="currentColor"/>
</svg>
