<svg width="16" height="16" viewBox="0 0 16 16" fill="none" xmlns="http://www.w3.org/2000/svg">
<path d="M3.53842 13.6667C3.20697 13.6667 2.92325 13.5487 2.68725 13.3127C2.45125 13.0767 2.33325 12.793 2.33325 12.4615V3.53854C2.33325 3.2071 2.45125 2.92337 2.68725 2.68737C2.92325 2.45137 3.20697 2.33337 3.53842 2.33337H6.29475C6.6262 2.33337 6.90992 2.45137 7.14592 2.68737C7.38192 2.92337 7.49992 3.2071 7.49992 3.53854V12.4615C7.49992 12.793 7.38192 13.0767 7.14592 13.3127C6.90992 13.5487 6.6262 13.6667 6.29475 13.6667H3.53842ZM9.70508 13.6667C9.37364 13.6667 9.08992 13.5487 8.85392 13.3127C8.61792 13.0767 8.49992 12.793 8.49992 12.4615V9.20521C8.49992 8.87376 8.61792 8.59004 8.85392 8.35404C9.08992 8.11804 9.37364 8.00004 9.70508 8.00004H12.4614C12.7929 8.00004 13.0766 8.11804 13.3126 8.35404C13.5486 8.59004 13.6666 8.87376 13.6666 9.20521V12.4615C13.6666 12.793 13.5486 13.0767 13.3126 13.3127C13.0766 13.5487 12.7929 13.6667 12.4614 13.6667H9.70508ZM9.70508 7.00004C9.37364 7.00004 9.08992 6.88204 8.85392 6.64604C8.61792 6.41004 8.49992 6.12632 8.49992 5.79487V3.53854C8.49992 3.2071 8.61792 2.92337 8.85392 2.68737C9.08992 2.45137 9.37364 2.33337 9.70508 2.33337H12.4614C12.7929 2.33337 13.0766 2.45137 13.3126 2.68737C13.5486 2.92337 13.6666 3.2071 13.6666 3.53854V5.79487C13.6666 6.12632 13.5486 6.41004 13.3126 6.64604C13.0766 6.88204 12.7929 7.00004 12.4614 7.00004H9.70508Z" fill="currentColor"/>
</svg>
