<svg width="20" height="20" viewBox="0 0 20 20" fill="none" xmlns="http://www.w3.org/2000/svg">
<path d="M9.99996 17.9166C8.0919 17.9166 6.41509 17.3258 4.96954 16.1441C3.52398 14.9624 2.6153 13.4582 2.2435 11.6314C2.20405 11.454 2.23773 11.2956 2.34454 11.1562C2.45134 11.0167 2.59343 10.9358 2.77079 10.9135C2.94815 10.891 3.1044 10.9331 3.23954 11.0399C3.37468 11.1467 3.46627 11.2888 3.51433 11.4662C3.85197 12.978 4.62252 14.2227 5.826 15.2003C7.02961 16.1778 8.42093 16.6666 9.99996 16.6666C11.8611 16.6666 13.4375 16.0208 14.7291 14.7291C16.0208 13.4374 16.6666 11.861 16.6666 9.99992C16.6666 8.13881 16.0208 6.56242 14.7291 5.27075C13.4375 3.97909 11.8611 3.33325 9.99996 3.33325C8.74676 3.33325 7.5937 3.65513 6.54079 4.29888C5.48787 4.94249 4.6762 5.8252 4.10579 6.947H5.94558C6.12252 6.947 6.27093 7.00693 6.39079 7.12679C6.51051 7.24665 6.57037 7.3952 6.57037 7.57242C6.57037 7.7495 6.51051 7.8979 6.39079 8.01763C6.27093 8.13721 6.12252 8.197 5.94558 8.197H3.37266C3.0953 8.197 2.87461 8.08485 2.71058 7.86054C2.54669 7.6361 2.51336 7.39839 2.61058 7.14742C3.1885 5.63672 4.1487 4.41499 5.4912 3.48221C6.83357 2.54957 8.33648 2.08325 9.99996 2.08325C11.0951 2.08325 12.1243 2.29103 13.0875 2.70658C14.0507 3.12214 14.8885 3.6861 15.601 4.39846C16.3135 5.11082 16.8775 5.94853 17.2931 6.91159C17.7088 7.87464 17.9166 8.9036 17.9166 9.99846C17.9166 11.0935 17.7088 12.1227 17.2931 13.0862C16.8775 14.0496 16.3135 14.8877 15.601 15.6003C14.8885 16.313 14.0507 16.8772 13.0875 17.293C12.1243 17.7087 11.0951 17.9166 9.99996 17.9166ZM10.625 9.74679L12.7083 11.838C12.8237 11.9517 12.8814 12.0962 12.8814 12.2718C12.8814 12.4473 12.8237 12.5942 12.7083 12.7122C12.5929 12.8303 12.4465 12.888 12.2691 12.8853C12.0918 12.8827 11.9454 12.8237 11.8302 12.7083L9.60329 10.4814C9.52371 10.4018 9.46579 10.316 9.42954 10.2241C9.39315 10.1321 9.37496 10.0371 9.37496 9.93908V6.76284C9.37496 6.58575 9.43489 6.43728 9.55475 6.31742C9.67461 6.1977 9.82308 6.13784 10.0002 6.13784C10.1774 6.13784 10.3258 6.1977 10.4454 6.31742C10.5651 6.43728 10.625 6.58575 10.625 6.76284V9.74679Z" fill="currentColor"/>
</svg>
