<svg width="16" height="16" viewBox="0 0 16 16" fill="none" xmlns="http://www.w3.org/2000/svg">
<path d="M5.40516 13.2666C5.11038 13.2666 4.85805 13.1617 4.64816 12.9518C4.43827 12.7419 4.33333 12.4896 4.33333 12.1948V4.39997H3.96666C3.84388 4.39997 3.74099 4.35875 3.65799 4.2763C3.57488 4.19386 3.53333 4.09175 3.53333 3.96997C3.53333 3.84808 3.57488 3.74486 3.65799 3.6603C3.74099 3.57564 3.84388 3.5333 3.96666 3.5333H6.39999V3.3333C6.39999 3.18897 6.4511 3.06569 6.55333 2.96347C6.65544 2.86136 6.77866 2.8103 6.92299 2.8103H9.07699C9.22133 2.8103 9.34455 2.86136 9.44666 2.96347C9.54888 3.06569 9.59999 3.18897 9.59999 3.3333V3.5333H12.0333C12.1561 3.5333 12.259 3.57452 12.342 3.65697C12.4251 3.73941 12.4667 3.84152 12.4667 3.9633C12.4667 4.08519 12.4251 4.18841 12.342 4.27297C12.259 4.35764 12.1561 4.39997 12.0333 4.39997H11.6667V12.1876C11.6667 12.4905 11.5617 12.7461 11.3518 12.9543C11.1419 13.1625 10.8896 13.2666 10.5948 13.2666H5.40516ZM7.09933 11.2C7.2211 11.2 7.32433 11.1585 7.40899 11.0755C7.49355 10.9924 7.53583 10.8894 7.53583 10.7666V6.0333C7.53583 5.91053 7.49466 5.80758 7.41233 5.72447C7.32988 5.64147 7.22771 5.59997 7.10583 5.59997C6.98405 5.59997 6.88083 5.64147 6.79616 5.72447C6.7116 5.80758 6.66933 5.91053 6.66933 6.0333V10.7666C6.66933 10.8894 6.71049 10.9924 6.79283 11.0755C6.87527 11.1585 6.97744 11.2 7.09933 11.2ZM8.89416 11.2C9.01594 11.2 9.11916 11.1585 9.20382 11.0755C9.28838 10.9924 9.33066 10.8894 9.33066 10.7666V6.0333C9.33066 5.91053 9.28949 5.80758 9.20716 5.72447C9.12471 5.64147 9.02255 5.59997 8.90066 5.59997C8.77888 5.59997 8.67566 5.64147 8.59099 5.72447C8.50644 5.80758 8.46416 5.91053 8.46416 6.0333V10.7666C8.46416 10.8894 8.50533 10.9924 8.58766 11.0755C8.6701 11.1585 8.77227 11.2 8.89416 11.2Z" fill="currentColor"/>
</svg>
