<svg width="20" height="20" viewBox="0 0 20 20" fill="none" xmlns="http://www.w3.org/2000/svg">
<path d="M5.08175 14.2227C5.83175 13.711 6.61383 13.3307 7.428 13.0816C8.24203 12.8327 9.09939 12.7083 10.0001 12.7083C10.9008 12.7083 11.7581 12.8327 12.5722 13.0816C13.3863 13.3307 14.1684 13.711 14.9184 14.2227C15.4365 13.6532 15.8296 13.0079 16.0978 12.2868C16.366 11.5657 16.5001 10.8034 16.5001 9.99996C16.5001 8.19899 15.8665 6.66538 14.5995 5.39913C13.3324 4.13301 11.7977 3.49996 9.99529 3.49996C8.19293 3.49996 6.6598 4.13301 5.39591 5.39913C4.13203 6.66538 3.50008 8.19899 3.50008 9.99996C3.50008 10.8034 3.63418 11.5657 3.90237 12.2868C4.17057 13.0079 4.56369 13.6532 5.08175 14.2227ZM10.0003 11.2916C9.22557 11.2916 8.56661 11.0201 8.02341 10.477C7.48008 9.93385 7.20842 9.27489 7.20842 8.50017C7.20842 7.72545 7.47994 7.06649 8.023 6.52329C8.56619 5.97996 9.22515 5.70829 9.99987 5.70829C10.7746 5.70829 11.4336 5.97982 11.9767 6.52288C12.5201 7.06607 12.7917 7.72503 12.7917 8.49975C12.7917 9.27447 12.5202 9.93343 11.9772 10.4766C11.434 11.02 10.775 11.2916 10.0003 11.2916ZM10.0059 17.5833C8.95828 17.5833 7.97369 17.387 7.05217 16.9943C6.13064 16.6017 5.32404 16.0595 4.63237 15.3677C3.94057 14.676 3.39835 13.8697 3.00571 12.9487C2.61307 12.0279 2.41675 11.0418 2.41675 9.99038C2.41675 8.93913 2.61307 7.95621 3.00571 7.04163C3.39835 6.12704 3.94057 5.32392 4.63237 4.63225C5.32404 3.94044 6.13036 3.39822 7.05133 3.00558C7.97216 2.61295 8.95828 2.41663 10.0097 2.41663C11.0609 2.41663 12.0438 2.61295 12.9584 3.00558C13.873 3.39822 14.6761 3.94044 15.3678 4.63225C16.0596 5.32392 16.6018 6.12857 16.9945 7.04621C17.3871 7.96399 17.5834 8.94663 17.5834 9.99413C17.5834 11.0418 17.3871 12.0263 16.9945 12.9479C16.6018 13.8694 16.0596 14.676 15.3678 15.3677C14.6761 16.0595 13.8715 16.6017 12.9538 16.9943C12.0361 17.387 11.0534 17.5833 10.0059 17.5833ZM10.0001 16.5C10.7383 16.5 11.4634 16.372 12.1755 16.1162C12.8876 15.8602 13.5353 15.4941 14.1186 15.0177C13.5214 14.6266 12.8748 14.3245 12.1788 14.1114C11.4827 13.8982 10.7565 13.7916 10.0001 13.7916C9.24369 13.7916 8.51265 13.8934 7.80696 14.0968C7.10126 14.3004 6.45946 14.6074 5.88154 15.0177C6.46487 15.4941 7.11258 15.8602 7.82466 16.1162C8.53675 16.372 9.26189 16.5 10.0001 16.5ZM10.0001 10.2083C10.4702 10.2083 10.8724 10.0411 11.2067 9.70663C11.5412 9.37232 11.7084 8.9701 11.7084 8.49996C11.7084 8.02982 11.5412 7.6276 11.2067 7.29329C10.8724 6.95885 10.4702 6.79163 10.0001 6.79163C9.52994 6.79163 9.12772 6.95885 8.79341 7.29329C8.45897 7.6276 8.29175 8.02982 8.29175 8.49996C8.29175 8.9701 8.45897 9.37232 8.79341 9.70663C9.12772 10.0411 9.52994 10.2083 10.0001 10.2083Z" fill="currentColor"/>
</svg>
