<svg width="20" height="20" viewBox="0 0 20 20" fill="none" xmlns="http://www.w3.org/2000/svg">
<path d="M5.86534 13.7819C4.81895 13.7819 3.927 13.4132 3.1895 12.6757C2.452 11.9383 2.08325 11.0465 2.08325 10.0003C2.08325 8.95402 2.452 8.06208 3.1895 7.32444C3.927 6.58666 4.81895 6.21777 5.86534 6.21777H8.38138C8.55846 6.21777 8.70686 6.2777 8.82658 6.39757C8.94645 6.51743 9.00638 6.66597 9.00638 6.84319C9.00638 7.02027 8.94645 7.16868 8.82658 7.2884C8.70686 7.40798 8.55846 7.46777 8.38138 7.46777H5.86429C5.16513 7.46777 4.56853 7.71486 4.0745 8.20902C3.58034 8.70319 3.33325 9.30013 3.33325 9.99986C3.33325 10.6996 3.58034 11.2965 4.0745 11.7907C4.56853 12.2849 5.16513 12.5319 5.86429 12.5319H8.38138C8.55846 12.5319 8.70686 12.5919 8.82658 12.7117C8.94645 12.8316 9.00638 12.9801 9.00638 13.1571C9.00638 13.3344 8.94645 13.4828 8.82658 13.6024C8.70686 13.7221 8.55846 13.7819 8.38138 13.7819H5.86534ZM7.49992 10.6249C7.32283 10.6249 7.17443 10.5649 7.05471 10.4451C6.93485 10.3252 6.87492 10.1767 6.87492 9.99965C6.87492 9.82243 6.93485 9.67402 7.05471 9.55444C7.17443 9.43472 7.32283 9.37486 7.49992 9.37486H12.4999C12.677 9.37486 12.8254 9.43479 12.9451 9.55465C13.065 9.67451 13.1249 9.82298 13.1249 10.0001C13.1249 10.1773 13.065 10.3257 12.9451 10.4453C12.8254 10.565 12.677 10.6249 12.4999 10.6249H7.49992ZM11.6185 13.7819C11.4414 13.7819 11.293 13.722 11.1733 13.6021C11.0534 13.4823 10.9935 13.3337 10.9935 13.1565C10.9935 12.9794 11.0534 12.831 11.1733 12.7113C11.293 12.5917 11.4414 12.5319 11.6185 12.5319H14.1355C14.8347 12.5319 15.4313 12.2849 15.9253 11.7907C16.4195 11.2965 16.6666 10.6996 16.6666 9.99986C16.6666 9.30013 16.4195 8.70319 15.9253 8.20902C15.4313 7.71486 14.8347 7.46777 14.1355 7.46777H11.6185C11.4414 7.46777 11.293 7.40784 11.1733 7.28798C11.0534 7.16812 10.9935 7.01965 10.9935 6.84256C10.9935 6.66534 11.0534 6.51694 11.1733 6.39736C11.293 6.27763 11.4414 6.21777 11.6185 6.21777H14.1345C15.1809 6.21777 16.0728 6.58652 16.8103 7.32402C17.5478 8.06138 17.9166 8.95319 17.9166 9.99944C17.9166 11.0457 17.5478 11.9376 16.8103 12.6753C16.0728 13.4131 15.1809 13.7819 14.1345 13.7819H11.6185Z" fill="currentColor"/>
</svg>
