<svg width="20" height="20" viewBox="0 0 20 20" fill="none" xmlns="http://www.w3.org/2000/svg">
<path d="M10.008 9.1746C11.9792 9.1746 13.6527 8.8696 15.0282 8.2596C16.4036 7.6496 17.0913 6.913 17.0913 6.0498C17.0913 5.18647 16.4036 4.4498 15.0282 3.8398C13.6527 3.2298 11.9792 2.9248 10.008 2.9248C8.03689 2.9248 6.36223 3.2298 4.98404 3.8398C3.60585 4.4498 2.91675 5.18647 2.91675 6.0498C2.91675 6.913 3.60585 7.6496 4.98404 8.2596C6.36223 8.8696 8.03689 9.1746 10.008 9.1746ZM10.0001 10.8573C10.623 10.8573 11.3228 10.801 12.0995 10.6883C12.8761 10.5756 13.6163 10.4006 14.3199 10.1633C15.0233 9.92626 15.6344 9.62397 16.153 9.25647C16.6717 8.88897 16.9845 8.45036 17.0913 7.94064V10.2165C16.9845 10.7261 16.6717 11.1646 16.153 11.5321C15.6344 11.8996 15.0233 12.202 14.3199 12.4392C13.6163 12.6763 12.8761 12.8512 12.0995 12.964C11.3228 13.0766 10.623 13.1329 10.0001 13.1329C9.37716 13.1329 8.67737 13.0766 7.90071 12.964C7.12404 12.8512 6.38529 12.6763 5.68446 12.4392C4.98362 12.202 4.37383 11.8996 3.85508 11.5321C3.33633 11.1646 3.02355 10.7261 2.91675 10.2165V7.94064C3.02355 8.45036 3.33633 8.88897 3.85508 9.25647C4.37383 9.62397 4.98362 9.92626 5.68446 10.1633C6.38529 10.4006 7.12404 10.5756 7.90071 10.6883C8.67737 10.801 9.37716 10.8573 10.0001 10.8573ZM10.0001 14.8156C10.623 14.8156 11.3228 14.7593 12.0995 14.6467C12.8761 14.5339 13.6163 14.3589 14.3199 14.1217C15.0233 13.8846 15.6344 13.5823 16.153 13.2148C16.6717 12.8472 16.9845 12.4086 17.0913 11.899V14.1667C16.9845 14.6763 16.6717 15.1148 16.153 15.4823C15.6344 15.8498 15.0233 16.1522 14.3199 16.3894C13.6163 16.6266 12.8761 16.8015 12.0995 16.9142C11.3228 17.027 10.623 17.0833 10.0001 17.0833C9.37716 17.0833 8.67737 17.027 7.90071 16.9142C7.12404 16.8015 6.38529 16.6266 5.68446 16.3894C4.98362 16.1522 4.37383 15.8498 3.85508 15.4823C3.33633 15.1148 3.02355 14.6763 2.91675 14.1667V11.899C3.02355 12.4086 3.33633 12.8472 3.85508 13.2148C4.37383 13.5823 4.98362 13.8846 5.68446 14.1217C6.38529 14.3589 7.12404 14.5339 7.90071 14.6467C8.67737 14.7593 9.37716 14.8156 10.0001 14.8156Z" fill="currentColor"/>
</svg>
