<svg width="16" height="16" viewBox="0 0 16 16" fill="none" xmlns="http://www.w3.org/2000/svg">
<path d="M4.48721 13.6666H3.53854C3.20176 13.6666 2.91671 13.5499 2.68337 13.3166C2.45004 13.0833 2.33337 12.7982 2.33337 12.4614V7.99992C2.33337 7.21358 2.4821 6.47686 2.77954 5.78975C3.07699 5.10253 3.48126 4.50336 3.99237 3.99225C4.50348 3.48114 5.10265 3.07686 5.78987 2.77942C6.47698 2.48197 7.21371 2.33325 8.00004 2.33325C8.78637 2.33325 9.5231 2.48197 10.2102 2.77942C10.8974 3.07686 11.4966 3.48114 12.0077 3.99225C12.5188 4.50336 12.9231 5.10253 13.2205 5.78975C13.518 6.47686 13.6667 7.21358 13.6667 7.99992V12.4614C13.6667 12.7982 13.55 13.0833 13.3167 13.3166C13.0834 13.5499 12.7983 13.6666 12.4615 13.6666H11.5129C11.1804 13.6666 10.8965 13.5489 10.661 13.3134C10.4255 13.0779 10.3077 12.7939 10.3077 12.4614V10.1538C10.3077 9.82131 10.4255 9.53736 10.661 9.30192C10.8965 9.06636 11.1804 8.94859 11.5129 8.94859H12.6667V7.99992C12.6667 6.69992 12.2139 5.59714 11.3084 4.69159C10.4028 3.78603 9.30004 3.33325 8.00004 3.33325C6.70004 3.33325 5.59726 3.78603 4.69171 4.69159C3.78615 5.59714 3.33337 6.69992 3.33337 7.99992V8.94859H4.48721C4.81965 8.94859 5.1036 9.06636 5.33904 9.30192C5.5746 9.53736 5.69237 9.82131 5.69237 10.1538V12.4614C5.69237 12.7939 5.5746 13.0779 5.33904 13.3134C5.1036 13.5489 4.81965 13.6666 4.48721 13.6666ZM4.48721 9.94859H3.33337V12.4614C3.33337 12.5128 3.35476 12.5598 3.39754 12.6024C3.44021 12.6452 3.48721 12.6666 3.53854 12.6666H4.48721C4.54699 12.6666 4.59615 12.6474 4.63471 12.6089C4.67315 12.5705 4.69237 12.5213 4.69237 12.4614V10.1538C4.69237 10.094 4.67315 10.0448 4.63471 10.0063C4.59615 9.96781 4.54699 9.94859 4.48721 9.94859ZM11.3077 10.1538V12.4614C11.3077 12.5213 11.3269 12.5705 11.3654 12.6089C11.4039 12.6474 11.4531 12.6666 11.5129 12.6666H12.4615C12.5129 12.6666 12.5599 12.6452 12.6025 12.6024C12.6453 12.5598 12.6667 12.5128 12.6667 12.4614V9.94859H11.5129C11.4531 9.94859 11.4039 9.96781 11.3654 10.0063C11.3269 10.0448 11.3077 10.094 11.3077 10.1538ZM4.48721 9.94859H4.69237H3.33337H4.48721Z" fill="currentColor"/>
</svg>
