<svg width="20" height="20" viewBox="0 0 20 20" fill="none" xmlns="http://www.w3.org/2000/svg">
<path d="M8.92142 11.1636L7.52725 9.79002C7.41183 9.67474 7.2876 9.61572 7.15454 9.61294C7.02163 9.6103 6.89475 9.66933 6.77392 9.79002C6.65322 9.91085 6.59288 10.0399 6.59288 10.1771C6.59288 10.3143 6.65322 10.4434 6.77392 10.5642L8.45663 12.2469C8.59343 12.3836 8.74836 12.4519 8.92142 12.4519C9.09447 12.4519 9.2494 12.3836 9.38621 12.2469L13.21 8.42315C13.3252 8.30773 13.3843 8.18002 13.387 8.04002C13.3897 7.90016 13.3307 7.76981 13.21 7.64898C13.0891 7.52829 12.9636 7.46794 12.8333 7.46794C12.703 7.46794 12.5775 7.52829 12.4566 7.64898L8.92142 11.1636ZM10.0014 17.5834C8.96197 17.5834 7.98135 17.386 7.05954 16.9913C6.13774 16.5965 5.33093 16.0534 4.63913 15.3619C3.94732 14.6704 3.40392 13.8639 3.00892 12.9425C2.61406 12.0211 2.41663 11.0408 2.41663 10.0015C2.41663 8.94815 2.61399 7.96405 3.00871 7.04919C3.40343 6.13433 3.94656 5.33099 4.63808 4.63919C5.32961 3.94738 6.13607 3.40398 7.05746 3.00898C7.97885 2.61412 8.9592 2.41669 9.9985 2.41669C11.0518 2.41669 12.0359 2.61405 12.9508 3.00877C13.8657 3.40349 14.669 3.94662 15.3608 4.63815C16.0526 5.32967 16.596 6.13266 16.991 7.0471C17.3859 7.96155 17.5833 8.94537 17.5833 9.99856C17.5833 11.038 17.3859 12.0186 16.9912 12.9404C16.5965 13.8622 16.0534 14.669 15.3618 15.3609C14.6703 16.0527 13.8673 16.5961 12.9529 16.9911C12.0384 17.3859 11.0546 17.5834 10.0014 17.5834ZM9.99996 16.5C11.8055 16.5 13.3402 15.8681 14.6041 14.6042C15.868 13.3403 16.5 11.8056 16.5 10C16.5 8.19447 15.868 6.65974 14.6041 5.39585C13.3402 4.13196 11.8055 3.50002 9.99996 3.50002C8.1944 3.50002 6.65968 4.13196 5.39579 5.39585C4.1319 6.65974 3.49996 8.19447 3.49996 10C3.49996 11.8056 4.1319 13.3403 5.39579 14.6042C6.65968 15.8681 8.1944 16.5 9.99996 16.5Z" fill="currentColor"/>
</svg>
