<svg width="16" height="16" viewBox="0 0 16 16" fill="none" xmlns="http://www.w3.org/2000/svg">
<path d="M3.53176 13C3.38108 13 3.2548 12.949 3.15294 12.8471C3.05098 12.7452 3 12.6189 3 12.4682V9.02941C3 8.90441 3.0423 8.79961 3.12691 8.715C3.21152 8.63049 3.31632 8.58824 3.44132 8.58824C3.56642 8.58824 3.67118 8.63049 3.75559 8.715C3.8401 8.79961 3.88235 8.90441 3.88235 9.02941V11.5034L11.5034 3.88235H9.02941C8.90441 3.88235 8.79961 3.84005 8.715 3.75544C8.63049 3.67083 8.58824 3.56603 8.58824 3.44103C8.58824 3.31593 8.63049 3.21118 8.715 3.12676C8.79961 3.04225 8.90441 3 9.02941 3H12.4682C12.6189 3 12.7452 3.05098 12.8471 3.15294C12.949 3.2548 13 3.38108 13 3.53176V6.97059C13 7.09559 12.9577 7.20039 12.8731 7.285C12.7885 7.36951 12.6837 7.41176 12.5587 7.41176C12.4336 7.41176 12.3288 7.36951 12.2444 7.285C12.1599 7.20039 12.1176 7.09559 12.1176 6.97059V4.49662L4.49662 12.1176H6.97059C7.09559 12.1176 7.20039 12.16 7.285 12.2446C7.36951 12.3292 7.41176 12.434 7.41176 12.559C7.41176 12.6841 7.36951 12.7888 7.285 12.8732C7.20039 12.9577 7.09559 13 6.97059 13H3.53176Z" fill="currentColor"/>
</svg>
