<svg width="16" height="16" viewBox="0 0 16 16" fill="none" xmlns="http://www.w3.org/2000/svg">
<path d="M4.41063 12C4.29544 12 4.19823 11.9611 4.11899 11.8832C4.03966 11.8052 4 11.7087 4 11.5935V8.94025C4 8.84717 4.03131 8.76844 4.09392 8.70405C4.15654 8.63975 4.23409 8.60759 4.32658 8.60759C4.41916 8.60759 4.49755 8.63899 4.56177 8.70177C4.62608 8.76447 4.65823 8.84224 4.65823 8.93506V10.8763L10.8763 4.65823H8.93506C8.84224 4.65823 8.76447 4.62692 8.70177 4.5643C8.63899 4.50169 8.60759 4.42414 8.60759 4.33165C8.60759 4.23907 8.63907 4.16068 8.70203 4.09646C8.76506 4.03215 8.84312 4 8.9362 4H11.5894C11.7046 4 11.8018 4.03894 11.881 4.11684C11.9603 4.19481 12 4.29135 12 4.40646V7.05975C12 7.15283 11.9687 7.23156 11.9061 7.29595C11.8435 7.36025 11.7659 7.39241 11.6734 7.39241C11.5808 7.39241 11.5024 7.36101 11.4382 7.29823C11.3739 7.23553 11.3418 7.15776 11.3418 7.06494V5.12367L5.12367 11.3418H7.06494C7.15776 11.3418 7.23553 11.3731 7.29823 11.4357C7.36101 11.4983 7.39241 11.5759 7.39241 11.6684C7.39241 11.7609 7.36093 11.8393 7.29797 11.9035C7.23494 11.9678 7.15688 12 7.0638 12H4.41063Z" fill="currentColor"/>
</svg>
