<svg width="24" height="24" viewBox="0 0 24 24" fill="none" xmlns="http://www.w3.org/2000/svg">
<path d="M9.62003 15.2154C8.06186 15.2154 6.73628 14.6689 5.64328 13.5761C4.55044 12.4831 4.00403 11.1578 4.00403 9.60011C4.00403 8.04245 4.55044 6.71711 5.64328 5.62411C6.73628 4.53128 8.06161 3.98486 9.61928 3.98486C11.1769 3.98486 12.5023 4.53128 13.5953 5.62411C14.6881 6.71711 15.2345 8.0427 15.2345 9.60086C15.2345 10.2547 15.1272 10.8799 14.9125 11.4764C14.6977 12.073 14.4069 12.6117 14.0403 13.0924L19.5443 18.5964C19.6828 18.7347 19.7536 18.8837 19.7568 19.0434C19.7599 19.203 19.6891 19.3553 19.5443 19.5001C19.3994 19.6449 19.2446 19.7174 19.0798 19.7174C18.9151 19.7174 18.7604 19.6449 18.6155 19.5001L13.1115 14.0211C12.6115 14.4006 12.0633 14.6945 11.4668 14.9029C10.8703 15.1112 10.2547 15.2154 9.62003 15.2154ZM9.61928 13.9156C10.8244 13.9156 11.8449 13.4976 12.6808 12.6616C13.5168 11.8258 13.9348 10.8053 13.9348 9.60011C13.9348 8.39495 13.5168 7.37445 12.6808 6.53861C11.8449 5.70261 10.8244 5.28461 9.61928 5.28461C8.41411 5.28461 7.39361 5.70261 6.55778 6.53861C5.72178 7.37445 5.30378 8.39495 5.30378 9.60011C5.30378 10.8053 5.72178 11.8258 6.55778 12.6616C7.39361 13.4976 8.41411 13.9156 9.61928 13.9156Z" fill="currentColor"/>
</svg>
