<svg width="16" height="16" viewBox="0 0 16 16" fill="none" xmlns="http://www.w3.org/2000/svg">
<path d="M2.06309 12C1.93188 12 1.82192 11.9573 1.73321 11.8719C1.64439 11.7864 1.59998 11.6806 1.59998 11.5544C1.59998 11.4281 1.64439 11.3212 1.73321 11.2336C1.82192 11.1458 1.93188 11.102 2.06309 11.102H7.81927C7.95049 11.102 8.06045 11.1447 8.14915 11.2301C8.23786 11.3155 8.28221 11.4213 8.28221 11.5475C8.28221 11.6738 8.23786 11.7808 8.14915 11.8684C8.06045 11.9561 7.95049 12 7.81927 12H2.06309ZM2.06309 8.96445C1.93188 8.96445 1.82192 8.92173 1.73321 8.8363C1.64439 8.75087 1.59998 8.64507 1.59998 8.51888C1.59998 8.39258 1.64439 8.28562 1.73321 8.198C1.82192 8.11027 1.93188 8.0664 2.06309 8.0664H4.36496C4.49617 8.0664 4.60619 8.10912 4.69502 8.19455C4.78372 8.27998 4.82807 8.38578 4.82807 8.51197C4.82807 8.63827 4.78372 8.74529 4.69502 8.83302C4.60619 8.92064 4.49617 8.96445 4.36496 8.96445H2.06309ZM2.06309 5.92889C1.93188 5.92889 1.82192 5.88618 1.73321 5.80075C1.64439 5.71543 1.59998 5.60963 1.59998 5.48332C1.59998 5.35702 1.64439 5.25006 1.73321 5.16245C1.82192 5.07471 1.93188 5.03085 2.06309 5.03085H4.36496C4.49617 5.03085 4.60619 5.07356 4.69502 5.15899C4.78372 5.24442 4.82807 5.35029 4.82807 5.47659C4.82807 5.60277 4.78372 5.70973 4.69502 5.79747C4.60619 5.88508 4.49617 5.92889 4.36496 5.92889H2.06309ZM9.33865 9.94746C8.48533 9.94746 7.758 9.65813 7.15666 9.07946C6.5552 8.50069 6.25447 7.79751 6.25447 6.96993C6.25447 6.14223 6.55574 5.44032 7.15826 4.86419C7.76079 4.28806 8.48948 4 9.34435 4C10.1992 4 10.926 4.28899 11.5247 4.86696C12.1235 5.44493 12.4228 6.14609 12.4228 6.97045C12.4228 7.30261 12.3712 7.61813 12.268 7.91702C12.1648 8.2159 12.0183 8.48889 11.8283 8.73596L14.2423 11.0567C14.3474 11.1527 14.4 11.2562 14.4 11.3672C14.4 11.4782 14.3484 11.5837 14.2452 11.6838C14.1481 11.7795 14.0393 11.8273 13.9189 11.8273C13.7985 11.8273 13.6857 11.779 13.5806 11.6824L11.1665 9.37754C10.9071 9.55738 10.6232 9.69733 10.3149 9.79738C10.0067 9.89743 9.68124 9.94746 9.33865 9.94746ZM9.33865 9.04941C9.93809 9.04941 10.4476 8.84793 10.8673 8.44496C11.2869 8.042 11.4968 7.55158 11.4968 6.97373C11.4968 6.39587 11.2869 5.90546 10.8673 5.50249C10.4476 5.09953 9.93809 4.89804 9.33865 4.89804C8.73921 4.89804 8.22966 5.09953 7.81001 5.50249C7.39047 5.90546 7.18071 6.39587 7.18071 6.97373C7.18071 7.55158 7.39047 8.042 7.81001 8.44496C8.22966 8.84793 8.73921 9.04941 9.33865 9.04941Z" fill="currentColor"/>
</svg>
