<svg width="24" height="24" viewBox="0 0 24 24" fill="none" xmlns="http://www.w3.org/2000/svg">
<path d="M9.29905 17.75H14.693C14.8769 17.75 15.0323 17.6882 15.1593 17.5645C15.2865 17.4409 15.35 17.2877 15.35 17.105C15.35 16.9222 15.2879 16.7674 15.1635 16.6405C15.039 16.5135 14.8849 16.45 14.701 16.45H9.30705C9.12322 16.45 8.9678 16.5119 8.8408 16.6355C8.71363 16.7592 8.65005 16.9124 8.65005 17.095C8.65005 17.2779 8.71222 17.4327 8.83655 17.5595C8.96105 17.6865 9.11522 17.75 9.29905 17.75ZM9.29905 14.15H14.693C14.8769 14.15 15.0323 14.0882 15.1593 13.9645C15.2865 13.8409 15.35 13.6877 15.35 13.505C15.35 13.3222 15.2879 13.1674 15.1635 13.0405C15.039 12.9135 14.8849 12.85 14.701 12.85H9.30705C9.12322 12.85 8.9678 12.9119 8.8408 13.0355C8.71363 13.1592 8.65005 13.3124 8.65005 13.495C8.65005 13.6779 8.71222 13.8327 8.83655 13.9595C8.96105 14.0865 9.11522 14.15 9.29905 14.15ZM6.9008 21.1C6.4503 21.1 6.07088 20.9446 5.76255 20.6338C5.45422 20.3229 5.30005 19.9424 5.30005 19.4923V4.50777C5.30005 4.05761 5.45547 3.67711 5.7663 3.36628C6.07713 3.05544 6.45763 2.90002 6.9078 2.90002H13.977C14.1875 2.90002 14.395 2.93852 14.5993 3.01552C14.8036 3.09236 14.9795 3.21286 15.127 3.37702L18.223 6.47302C18.3872 6.62052 18.5077 6.79644 18.5845 7.00078C18.6615 7.20511 18.7 7.41252 18.7 7.62302V19.4923C18.7 19.9424 18.5445 20.3229 18.2336 20.6338C17.9225 20.9446 17.5418 21.1 17.0913 21.1H6.9008ZM13.7 7.10002C13.7 7.32669 13.7767 7.51669 13.93 7.67002C14.0834 7.82336 14.2734 7.90002 14.5 7.90002H17.4L13.7 4.20002V7.10002Z" fill="currentColor"/>
</svg>
