<svg width="16" height="16" viewBox="0 0 16 16" fill="none" xmlns="http://www.w3.org/2000/svg">
<path d="M6.48331 10.0936L11.5756 5.00131C11.6626 4.9132 11.7645 4.86809 11.8813 4.86598C11.998 4.86387 12.1025 4.90898 12.1948 5.00131C12.2871 5.09364 12.3333 5.1962 12.3333 5.30898C12.3333 5.42186 12.2893 5.52231 12.2013 5.61031L6.87181 10.9475C6.76337 11.0568 6.63692 11.1115 6.49248 11.1115C6.34792 11.1115 6.22092 11.0568 6.11148 10.9475L3.81148 8.64748C3.72348 8.55936 3.67737 8.45825 3.67314 8.34414C3.66881 8.23014 3.71281 8.12698 3.80514 8.03464C3.89748 7.94231 4.00053 7.89614 4.11431 7.89614C4.22809 7.89614 4.32931 7.94231 4.41798 8.03464L6.48331 10.0936Z" fill="currentColor"/>
</svg>
