<svg width="24" height="24" viewBox="0 0 24 24" fill="none" xmlns="http://www.w3.org/2000/svg">
<path d="M6.35005 11.9999C6.35005 12.2256 6.36572 12.4544 6.39705 12.6864C6.42855 12.9186 6.46738 13.1423 6.51355 13.3577C6.54422 13.5205 6.52497 13.6865 6.4558 13.8557C6.38663 14.0248 6.26738 14.1351 6.09805 14.1864C5.93522 14.2312 5.77338 14.2139 5.61255 14.1344C5.45172 14.0549 5.34755 13.9338 5.30005 13.7712C5.21672 13.4942 5.15422 13.2072 5.11255 12.9104C5.07088 12.6137 5.05005 12.3102 5.05005 11.9999C5.05005 10.0537 5.73597 8.39641 7.1078 7.02792C8.47963 5.65925 10.1604 4.99991 12.15 5.04991H12.7558L11.5328 3.82692C11.3943 3.68842 11.3235 3.53516 11.3203 3.36716C11.3171 3.19933 11.388 3.04291 11.5328 2.89791C11.6776 2.75308 11.8324 2.68066 11.997 2.68066C12.1619 2.68066 12.3167 2.75308 12.4615 2.89791L14.7058 5.14216C14.87 5.30633 14.952 5.49225 14.952 5.69991C14.952 5.90758 14.87 6.0935 14.7058 6.25766L12.4615 8.50192C12.323 8.64025 12.174 8.70692 12.0145 8.70192C11.8549 8.69675 11.7026 8.62175 11.5578 8.47692C11.413 8.33192 11.3405 8.17708 11.3405 8.01241C11.3405 7.84775 11.413 7.69291 11.5578 7.54791L12.7558 6.34991H12.15C10.5129 6.31658 9.13688 6.85725 8.02205 7.97192C6.90738 9.08675 6.35005 10.4294 6.35005 11.9999ZM17.65 11.9999C17.65 11.7742 17.6344 11.5454 17.603 11.3134C17.5715 11.0812 17.5327 10.8575 17.4865 10.6422C17.4559 10.4627 17.4751 10.2925 17.5443 10.1317C17.6135 9.97083 17.7327 9.85641 17.902 9.78841C18.0649 9.72691 18.221 9.73175 18.3703 9.80292C18.5196 9.87408 18.618 9.991 18.6653 10.1537C18.7486 10.4473 18.817 10.7467 18.8703 11.0519C18.9235 11.3569 18.95 11.6729 18.95 11.9999C18.95 13.9294 18.2641 15.5826 16.8923 16.9594C15.5205 18.3364 13.8397 18.9999 11.85 18.9499H11.2443L12.4673 20.1729C12.6058 20.3114 12.6766 20.4647 12.6798 20.6327C12.683 20.8005 12.6121 20.9569 12.4673 21.1019C12.3225 21.2467 12.1677 21.3192 12.003 21.3192C11.8382 21.3192 11.6834 21.2467 11.5385 21.1019L9.2943 18.8577C9.13013 18.6935 9.04805 18.5076 9.04805 18.2999C9.04805 18.0922 9.13013 17.9063 9.2943 17.7422L11.5385 15.4979C11.677 15.3596 11.8302 15.2887 11.998 15.2854C12.166 15.2822 12.3225 15.3531 12.4673 15.4979C12.6121 15.6429 12.6845 15.7977 12.6845 15.9624C12.6845 16.1271 12.6121 16.2819 12.4673 16.4269L11.2443 17.6499H11.85C13.4872 17.6832 14.8632 17.1426 15.978 16.0279C17.0927 14.9131 17.65 13.5704 17.65 11.9999Z" fill="currentColor"/>
</svg>
