<svg width="20" height="20" viewBox="0 0 20 20" fill="none" xmlns="http://www.w3.org/2000/svg">
<path d="M2.91667 7.0511H17.0833V4.7836C17.0833 4.46971 16.9735 4.20291 16.7538 3.98318C16.534 3.7636 16.2673 3.65381 15.9535 3.65381H4.04646C3.73271 3.65381 3.46598 3.7636 3.24626 3.98318C3.02653 4.20291 2.91667 4.46971 2.91667 4.7836V7.0511ZM2.91667 11.6986H17.0833V8.3011H2.91667V11.6986ZM4.04646 16.3459H15.9535C16.2673 16.3459 16.534 16.2361 16.7538 16.0165C16.9735 15.7968 17.0833 15.53 17.0833 15.2161V12.9486H2.91667V15.2161C2.91667 15.53 3.02653 15.7968 3.24626 16.0165C3.46598 16.2361 3.73271 16.3459 4.04646 16.3459ZM4.8223 6.10568C4.60855 6.10568 4.4298 6.03332 4.28605 5.8886C4.14244 5.74402 4.07063 5.56485 4.07063 5.3511C4.07063 5.13721 4.14292 4.95846 4.28751 4.81485C4.43209 4.6711 4.61132 4.59923 4.82521 4.59923C5.03896 4.59923 5.21771 4.67152 5.36146 4.8161C5.50507 4.96082 5.57688 5.14006 5.57688 5.35381C5.57688 5.5677 5.50459 5.74645 5.36001 5.89006C5.21542 6.03381 5.03619 6.10568 4.8223 6.10568ZM4.8223 10.753C4.60855 10.753 4.4298 10.6807 4.28605 10.5361C4.14244 10.3915 4.07063 10.2123 4.07063 9.99839C4.07063 9.78464 4.14292 9.60589 4.28751 9.46214C4.43209 9.31853 4.61132 9.24672 4.82521 9.24672C5.03896 9.24672 5.21771 9.31902 5.36146 9.4636C5.50507 9.60818 5.57688 9.78742 5.57688 10.0013C5.57688 10.2151 5.50459 10.3938 5.36001 10.5376C5.21542 10.6812 5.03619 10.753 4.8223 10.753ZM4.8223 15.4005C4.60855 15.4005 4.4298 15.3282 4.28605 15.1836C4.14244 15.0389 4.07063 14.8596 4.07063 14.6459C4.07063 14.432 4.14292 14.2533 4.28751 14.1096C4.43209 13.9659 4.61132 13.894 4.82521 13.894C5.03896 13.894 5.21771 13.9664 5.36146 14.1111C5.50507 14.2557 5.57688 14.4348 5.57688 14.6486C5.57688 14.8625 5.50459 15.0412 5.36001 15.1848C5.21542 15.3286 5.03619 15.4005 4.8223 15.4005Z" fill="currentColor"/>
</svg>
