<svg width="20" height="20" viewBox="0 0 20 20" fill="none" xmlns="http://www.w3.org/2000/svg">
<path d="M9.992 16.4246C9.81353 16.4246 9.63429 16.3926 9.45429 16.3285C9.27429 16.2644 9.11589 16.164 8.97908 16.0273L7.782 14.9392C6.3045 13.5919 4.98534 12.2685 3.8245 10.9688C2.66367 9.66903 2.08325 8.27667 2.08325 6.79167C2.08325 5.60903 2.482 4.61889 3.2795 3.82125C4.07714 3.02375 5.06728 2.625 6.24992 2.625C6.92186 2.625 7.58561 2.77993 8.24117 3.08979C8.89658 3.39965 9.48283 3.90285 9.99992 4.59938C10.517 3.90285 11.1033 3.39965 11.7587 3.08979C12.4142 2.77993 13.078 2.625 13.7499 2.625C14.9326 2.625 15.9227 3.02375 16.7203 3.82125C17.5178 4.61889 17.9166 5.60903 17.9166 6.79167C17.9166 8.29278 17.3263 9.70063 16.1458 11.0152C14.9652 12.3298 13.6489 13.642 12.197 14.9519L11.0126 16.0273C10.876 16.164 10.7163 16.2644 10.5337 16.3285C10.3509 16.3926 10.1703 16.4246 9.992 16.4246ZM9.40054 5.86542C8.94971 5.17847 8.47506 4.675 7.97658 4.355C7.47825 4.035 6.9027 3.875 6.24992 3.875C5.41658 3.875 4.72214 4.15278 4.16659 4.70833C3.61103 5.26389 3.33325 5.95833 3.33325 6.79167C3.33325 7.46042 3.54881 8.15965 3.97992 8.88938C4.41103 9.6191 4.95214 10.3445 5.60325 11.0656C6.25436 11.7869 6.95978 12.4915 7.7195 13.1794C8.47908 13.8674 9.18311 14.5069 9.83158 15.0977C9.87964 15.1405 9.93575 15.1619 9.99992 15.1619C10.0641 15.1619 10.1202 15.1405 10.1683 15.0977C10.8167 14.5069 11.5208 13.8674 12.2803 13.1794C13.0401 12.4915 13.7455 11.7869 14.3966 11.0656C15.0477 10.3445 15.5888 9.6191 16.0199 8.88938C16.451 8.15965 16.6666 7.46042 16.6666 6.79167C16.6666 5.95833 16.3888 5.26389 15.8333 4.70833C15.2777 4.15278 14.5833 3.875 13.7499 3.875C13.0971 3.875 12.5216 4.035 12.0233 4.355C11.5248 4.675 11.0501 5.17847 10.5993 5.86542C10.5287 5.97222 10.4401 6.05236 10.3333 6.10583C10.2264 6.15917 10.1153 6.18583 9.99992 6.18583C9.8845 6.18583 9.77339 6.15917 9.66658 6.10583C9.55978 6.05236 9.4711 5.97222 9.40054 5.86542Z" fill="currentColor"/>
</svg>
