<svg width="16" height="16" viewBox="0 0 16 16" fill="none" xmlns="http://www.w3.org/2000/svg">
<path d="M12.3768 13.2499C11.165 13.1499 10 12.8301 8.88201 12.2903C7.76412 11.7505 6.75195 11.0264 5.84551 10.1179C4.93917 9.20939 4.22167 8.19994 3.69301 7.08961C3.16434 5.97939 2.84445 4.81833 2.73334 3.60644C2.71112 3.37122 2.7794 3.16689 2.93817 2.99344C3.09684 2.82 3.29523 2.73328 3.53334 2.73328H5.27434C5.47601 2.73328 5.64951 2.79378 5.79484 2.91478C5.94017 3.03567 6.04145 3.19355 6.09867 3.38844L6.44751 4.78328C6.47395 4.93194 6.46562 5.07722 6.42251 5.21911C6.37929 5.361 6.30895 5.47639 6.21151 5.56528L4.67184 7.06411C4.91962 7.529 5.1944 7.96661 5.49617 8.37694C5.79784 8.78717 6.12845 9.17083 6.48801 9.52794C6.84301 9.88283 7.22651 10.2116 7.63851 10.5141C8.05051 10.8167 8.4954 11.0919 8.97317 11.3398L10.5525 9.79744C10.6457 9.7 10.7526 9.635 10.8732 9.60244C10.9936 9.57 11.1282 9.56489 11.277 9.58711L12.6115 9.88078C12.8132 9.93633 12.9728 10.0389 13.0903 10.1884C13.2079 10.338 13.2667 10.5158 13.2667 10.7218V12.4499C13.2667 12.6881 13.1772 12.8864 12.9982 13.0451C12.8192 13.2039 12.6121 13.2722 12.3768 13.2499ZM4.28201 6.21794L5.53851 5.01278C5.55984 4.99567 5.57373 4.97217 5.58017 4.94228C5.58662 4.91239 5.58556 4.88461 5.57701 4.85894L5.28451 3.70244C5.27595 3.66833 5.26101 3.64272 5.23967 3.62561C5.21834 3.6085 5.19056 3.59994 5.15634 3.59994H3.71667C3.69101 3.59994 3.66962 3.6085 3.65251 3.62561C3.63551 3.64272 3.62701 3.66411 3.62701 3.68978C3.66112 4.112 3.73567 4.53311 3.85067 4.95311C3.96556 5.37322 4.10934 5.79483 4.28201 6.21794ZM9.84867 11.7461C10.2472 11.9214 10.664 12.0546 11.0988 12.1456C11.5338 12.2365 11.9376 12.3033 12.3102 12.3461C12.3358 12.3461 12.3572 12.3376 12.3743 12.3204C12.3915 12.3033 12.4 12.2819 12.4 12.2563V10.8204C12.4 10.7862 12.3915 10.7584 12.3743 10.7371C12.3572 10.7158 12.3316 10.7008 12.2975 10.6923L11.2142 10.4576C11.1885 10.4491 11.1661 10.448 11.1468 10.4544C11.1276 10.4609 11.1073 10.4748 11.0858 10.4961L9.84867 11.7461Z" fill="currentColor"/>
</svg>
