<svg width="20" height="20" viewBox="0 0 20 20" fill="none" xmlns="http://www.w3.org/2000/svg">
<path d="M9.99993 11.766L6.43909 15.335C6.32368 15.4502 6.19465 15.5079 6.05201 15.5079C5.90937 15.5079 5.78035 15.4502 5.66493 15.335C5.54423 15.2141 5.48389 15.0851 5.48389 14.9479C5.48389 14.8107 5.54423 14.6816 5.66493 14.5608L9.53514 10.6906C9.5993 10.6266 9.67118 10.5785 9.75076 10.5464C9.83035 10.5143 9.9134 10.4983 9.99993 10.4983C10.0865 10.4983 10.1695 10.5143 10.2491 10.5464C10.3287 10.5785 10.4006 10.6266 10.4647 10.6906L14.3349 14.5608C14.4502 14.6762 14.5078 14.8018 14.5078 14.9375C14.5078 15.0732 14.4502 15.1987 14.3349 15.3141C14.2141 15.4348 14.0851 15.4952 13.9478 15.4952C13.8106 15.4952 13.6816 15.4348 13.5608 15.3141L9.99993 11.766ZM9.99993 5.8285L6.43909 9.39746C6.32368 9.51274 6.19465 9.57037 6.05201 9.57037C5.90937 9.57037 5.78035 9.51274 5.66493 9.39746C5.54423 9.27662 5.48389 9.1476 5.48389 9.01038C5.48389 8.87315 5.54423 8.74412 5.66493 8.62329L9.53514 4.75308C9.5993 4.68906 9.67118 4.641 9.75076 4.60892C9.83035 4.57683 9.9134 4.56079 9.99993 4.56079C10.0865 4.56079 10.1695 4.57683 10.2491 4.60892C10.3287 4.641 10.4006 4.68906 10.4647 4.75308L14.3349 8.62329C14.4502 8.73871 14.5078 8.86426 14.5078 8.99996C14.5078 9.13565 14.4502 9.26121 14.3349 9.37662C14.2141 9.49732 14.0851 9.55767 13.9478 9.55767C13.8106 9.55767 13.6816 9.49732 13.5608 9.37662L9.99993 5.8285Z" fill="currentColor"/>
</svg>
