<svg width="24" height="24" viewBox="0 0 24 24" fill="none" xmlns="http://www.w3.org/2000/svg">
<path d="M6.61595 18C6.44316 18 6.29734 17.9416 6.17848 17.8247C6.05949 17.7078 6 17.563 6 17.3903V13.4104C6 13.2708 6.04696 13.1527 6.14089 13.0561C6.23481 12.9596 6.35114 12.9114 6.48987 12.9114C6.62873 12.9114 6.74633 12.9585 6.84266 13.0527C6.93911 13.1467 6.98734 13.2634 6.98734 13.4026V16.3145L16.3145 6.98734H13.4026C13.2634 6.98734 13.1467 6.94038 13.0527 6.84646C12.9585 6.75253 12.9114 6.6362 12.9114 6.49747C12.9114 6.35861 12.9586 6.24101 13.053 6.14468C13.1476 6.04823 13.2647 6 13.4043 6H17.3841C17.5568 6 17.7027 6.05842 17.8215 6.17525C17.9405 6.29221 18 6.43703 18 6.60968V10.5896C18 10.7292 17.953 10.8473 17.8591 10.9439C17.7652 11.0404 17.6489 11.0886 17.5101 11.0886C17.3713 11.0886 17.2537 11.0415 17.1573 10.9473C17.0609 10.8533 17.0127 10.7366 17.0127 10.5974V7.68551L7.68551 17.0127H10.5974C10.7366 17.0127 10.8533 17.0596 10.9473 17.1535C11.0415 17.2475 11.0886 17.3638 11.0886 17.5025C11.0886 17.6414 11.0414 17.759 10.947 17.8553C10.8524 17.9518 10.7353 18 10.5957 18H6.61595Z" fill="currentColor"/>
</svg>
