<svg width="20" height="20" viewBox="0 0 20 20" fill="none" xmlns="http://www.w3.org/2000/svg">
<path d="M12.4441 5.72098C12.267 5.72098 12.1185 5.66112 11.9987 5.5414C11.8789 5.42154 11.8191 5.273 11.8191 5.09577C11.8191 4.91869 11.8789 4.77029 11.9987 4.65057C12.1185 4.53098 12.267 4.47119 12.4441 4.47119H17.4441C17.6212 4.47119 17.7696 4.53112 17.8893 4.65098C18.0091 4.77071 18.0691 4.91918 18.0691 5.0964C18.0691 5.27348 18.0091 5.42189 17.8893 5.54161C17.7696 5.66119 17.6212 5.72098 17.4441 5.72098H12.4441ZM12.4441 8.95827C12.267 8.95827 12.1185 8.89834 11.9987 8.77848C11.8789 8.65862 11.8191 8.51015 11.8191 8.33307C11.8191 8.15584 11.8789 8.00744 11.9987 7.88786C12.1185 7.76814 12.267 7.70827 12.4441 7.70827H17.4441C17.6212 7.70827 17.7696 7.76821 17.8893 7.88807C18.0091 8.00793 18.0691 8.1564 18.0691 8.33348C18.0691 8.51071 18.0091 8.65911 17.8893 8.77869C17.7696 8.89841 17.6212 8.95827 17.4441 8.95827H12.4441ZM12.4441 12.1954C12.267 12.1954 12.1185 12.1354 11.9987 12.0156C11.8789 11.8958 11.8191 11.7474 11.8191 11.5701C11.8191 11.3931 11.8789 11.2447 11.9987 11.1249C12.1185 11.0054 12.267 10.9456 12.4441 10.9456H17.4441C17.6212 10.9456 17.7696 11.0054 17.8893 11.1252C18.0091 11.245 18.0691 11.3936 18.0691 11.5708C18.0691 11.7479 18.0091 11.8963 17.8893 12.016C17.7696 12.1356 17.6212 12.1954 17.4441 12.1954H12.4441ZM6.61261 11.5064C6.00775 11.5064 5.49296 11.2947 5.06824 10.8712C4.64351 10.4477 4.43115 9.93355 4.43115 9.32869C4.43115 8.72383 4.64289 8.20911 5.06636 7.78452C5.48983 7.3598 6.004 7.14744 6.60886 7.14744C7.21372 7.14744 7.72851 7.35911 8.15324 7.78244C8.57782 8.20591 8.79011 8.72008 8.79011 9.32494C8.79011 9.9298 8.57844 10.4446 8.15511 10.8693C7.73164 11.294 7.21747 11.5064 6.61261 11.5064ZM1.93115 15.4327V14.9231C1.93115 14.6865 1.98858 14.4613 2.10344 14.2472C2.21831 14.0332 2.37671 13.8632 2.57865 13.7372C3.18226 13.3835 3.81928 13.1156 4.48969 12.9335C5.16025 12.7513 5.86726 12.6602 6.61074 12.6602C7.35421 12.6602 8.06115 12.7513 8.73157 12.9335C9.40199 13.1156 10.0391 13.3835 10.6428 13.7372C10.8446 13.8632 11.003 14.0332 11.1178 14.2472C11.2327 14.4613 11.2901 14.6865 11.2901 14.9231V15.4327C11.2901 15.646 11.218 15.8249 11.0737 15.9693C10.9292 16.1136 10.7503 16.1858 10.537 16.1858H2.68449C2.47101 16.1858 2.29212 16.1136 2.14782 15.9693C2.00337 15.8249 1.93115 15.646 1.93115 15.4327Z" fill="currentColor"/>
</svg>
