<svg width="20" height="20" viewBox="0 0 20 20" fill="none" xmlns="http://www.w3.org/2000/svg">
<path d="M9.99996 14.6955C9.10899 14.6955 8.24308 14.8507 7.40225 15.1611C6.56142 15.4715 5.77614 15.9285 5.04642 16.5321V16.4519C5.06781 16.468 5.0892 16.4801 5.11058 16.488C5.13183 16.496 5.15586 16.5001 5.18267 16.5001H14.8012C14.828 16.5001 14.8507 16.496 14.8693 16.488C14.8881 16.4801 14.9082 16.468 14.9295 16.4519V16.5321C14.2244 15.9285 13.4506 15.4715 12.6081 15.1611C11.7657 14.8507 10.8963 14.6955 9.99996 14.6955ZM4.49996 15.5082C5.26385 14.8832 6.12149 14.411 7.07288 14.0915C8.02426 13.7721 8.99996 13.6123 9.99996 13.6123C11 13.6123 11.9757 13.7686 12.927 14.0811C13.8784 14.3936 14.7361 14.8693 15.5 15.5082V5.75651C15.5 5.69235 15.4732 5.63359 15.4198 5.58026C15.3664 5.52679 15.3077 5.50005 15.2435 5.50005H4.75642C4.69225 5.50005 4.6335 5.52679 4.58017 5.58026C4.5267 5.63359 4.49996 5.69235 4.49996 5.75651V15.5082ZM9.99496 12.2917C9.21843 12.2917 8.55982 12.0197 8.01913 11.4757C7.47857 10.9318 7.20829 10.2716 7.20829 9.49505C7.20829 8.71853 7.48031 8.05991 8.02433 7.51922C8.56822 6.97866 9.22843 6.70839 10.005 6.70839C10.7815 6.70839 11.4401 6.9804 11.9808 7.52443C12.5213 8.06832 12.7916 8.72853 12.7916 9.50505C12.7916 10.2816 12.5196 10.9402 11.9756 11.4809C11.4317 12.0214 10.7715 12.2917 9.99496 12.2917ZM9.99996 11.2084C10.4701 11.2084 10.8723 11.0412 11.2066 10.7067C11.5411 10.3724 11.7083 9.97019 11.7083 9.50005C11.7083 9.02991 11.5411 8.62769 11.2066 8.29339C10.8723 7.95894 10.4701 7.79172 9.99996 7.79172C9.52982 7.79172 9.1276 7.95894 8.79329 8.29339C8.45885 8.62769 8.29163 9.02991 8.29163 9.50005C8.29163 9.97019 8.45885 10.3724 8.79329 10.7067C9.1276 11.0412 9.52982 11.2084 9.99996 11.2084ZM4.75642 17.5834C4.391 17.5834 4.07635 17.4514 3.81246 17.1876C3.54857 16.9237 3.41663 16.609 3.41663 16.2436V5.75651C3.41663 5.3911 3.54857 5.07644 3.81246 4.81255C4.07635 4.54866 4.391 4.41672 4.75642 4.41672H6.57683V2.87818C6.57683 2.71915 6.62961 2.58644 6.73517 2.48005C6.84072 2.3738 6.97239 2.32068 7.13017 2.32068C7.28808 2.32068 7.42121 2.3738 7.52954 2.48005C7.63802 2.58644 7.69225 2.71915 7.69225 2.87818V4.41672H12.3398V2.86235C12.3398 2.7086 12.3911 2.57984 12.4939 2.47609C12.5968 2.37248 12.7245 2.32068 12.877 2.32068C13.0295 2.32068 13.1586 2.37248 13.2643 2.47609C13.3702 2.57984 13.4231 2.7086 13.4231 2.86235V4.41672H15.2435C15.6186 4.41672 15.9357 4.54866 16.1948 4.81255C16.4538 5.07644 16.5833 5.3911 16.5833 5.75651V16.2436C16.5833 16.609 16.4538 16.9237 16.1948 17.1876C15.9357 17.4514 15.6186 17.5834 15.2435 17.5834H4.75642ZM10.0104 16.5001H14.9295H5.04642H10.0104Z" fill="currentColor"/>
</svg>
