<svg width="16" height="16" viewBox="0 0 16 16" fill="none" xmlns="http://www.w3.org/2000/svg">
<path d="M6.19933 11.8333H9.79532C9.9181 11.8333 10.0218 11.7922 10.1063 11.7098C10.191 11.6276 10.2333 11.5255 10.2333 11.4035C10.2333 11.2815 10.1919 11.1782 10.1092 11.0937C10.0263 11.009 9.92344 10.9667 9.80066 10.9667H6.20466C6.08188 10.9667 5.97821 11.0078 5.89366 11.0902C5.80899 11.1724 5.76666 11.2745 5.76666 11.3965C5.76666 11.5185 5.80805 11.6218 5.89083 11.7063C5.97371 11.791 6.07655 11.8333 6.19933 11.8333ZM6.19933 9.43335H9.79532C9.9181 9.43335 10.0218 9.39218 10.1063 9.30985C10.191 9.22763 10.2333 9.12552 10.2333 9.00352C10.2333 8.88152 10.1919 8.77824 10.1092 8.69368C10.0263 8.60902 9.92344 8.56668 9.80066 8.56668H6.20466C6.08188 8.56668 5.97821 8.60785 5.89366 8.69018C5.80899 8.7724 5.76666 8.87452 5.76666 8.99652C5.76666 9.11852 5.80805 9.22179 5.89083 9.30635C5.97371 9.39102 6.07655 9.43335 6.19933 9.43335ZM4.60049 14.0667C4.30016 14.0667 4.04721 13.9631 3.84166 13.7558C3.6361 13.5486 3.53333 13.295 3.53333 12.9948V3.00518C3.53333 2.70507 3.63694 2.45141 3.84416 2.24418C4.05138 2.03696 4.30505 1.93335 4.60516 1.93335H9.31799C9.45888 1.93335 9.59455 1.95902 9.72499 2.01035C9.85533 2.06157 9.97521 2.14191 10.0847 2.25135L12.1487 4.31535C12.2581 4.42479 12.3384 4.54468 12.3897 4.67502C12.441 4.80546 12.4667 4.94113 12.4667 5.08202V12.9948C12.4667 13.295 12.363 13.5486 12.1557 13.7558C11.9483 13.9631 11.6945 14.0667 11.3942 14.0667H4.60049ZM9.13333 4.73068V2.80002H4.60516C4.55383 2.80002 4.50683 2.8214 4.46416 2.86418C4.42138 2.90685 4.39999 2.95385 4.39999 3.00518V12.9948C4.39999 13.0462 4.42138 13.0932 4.46416 13.1358C4.50683 13.1786 4.55383 13.2 4.60516 13.2H11.3948C11.4462 13.2 11.4932 13.1786 11.5358 13.1358C11.5786 13.0932 11.6 13.0462 11.6 12.9948V5.26668H9.66932C9.51632 5.26668 9.38877 5.21557 9.28666 5.11335C9.18444 5.01124 9.13333 4.88368 9.13333 4.73068Z" fill="currentColor"/>
</svg>
