<svg width="20" height="20" viewBox="0 0 20 20" fill="none" xmlns="http://www.w3.org/2000/svg">
<path d="M9.99996 10.7739L12.5608 13.335C12.6762 13.4502 12.8039 13.5058 12.9439 13.5016C13.0838 13.4973 13.2141 13.4348 13.335 13.3141C13.4557 13.1933 13.516 13.0643 13.516 12.927C13.516 12.7898 13.4557 12.6611 13.335 12.541L10.7739 9.98954L13.335 7.43809C13.4502 7.32336 13.5093 7.196 13.512 7.056C13.5147 6.91614 13.4557 6.78579 13.335 6.66496C13.2141 6.54426 13.0851 6.48392 12.9479 6.48392C12.8107 6.48392 12.6816 6.54426 12.5608 6.66496L9.99996 9.226L7.43913 6.66496C7.32371 6.54968 7.19947 6.49065 7.06642 6.48788C6.9335 6.48524 6.80663 6.54426 6.68579 6.66496C6.5651 6.78579 6.50475 6.91482 6.50475 7.05204C6.50475 7.18926 6.56454 7.31829 6.68413 7.43913L9.226 9.99996L6.66496 12.5608C6.54968 12.6762 6.49413 12.8004 6.49829 12.9335C6.5026 13.0664 6.5651 13.1933 6.68579 13.3141C6.80663 13.4348 6.93565 13.4952 7.07288 13.4952C7.2101 13.4952 7.3385 13.4354 7.45808 13.3158L9.99996 10.7739ZM10.007 17.5833C8.96385 17.5833 7.98135 17.3859 7.05954 16.9912C6.13774 16.5965 5.33093 16.0534 4.63913 15.3618C3.94732 14.6703 3.40392 13.8641 3.00892 12.9433C2.61406 12.0226 2.41663 11.0388 2.41663 9.99183C2.41663 8.94489 2.61399 7.96399 3.00871 7.04913C3.40343 6.13426 3.94656 5.33093 4.63808 4.63913C5.32961 3.94732 6.13579 3.40392 7.05663 3.00892C7.97732 2.61406 8.96114 2.41663 10.0081 2.41663C11.055 2.41663 12.0359 2.61399 12.9508 3.00871C13.8657 3.40343 14.669 3.94656 15.3608 4.63808C16.0526 5.32961 16.596 6.13413 16.991 7.05163C17.3859 7.96926 17.5833 8.94968 17.5833 9.99288C17.5833 11.0361 17.3859 12.0186 16.9912 12.9404C16.5965 13.8622 16.0534 14.669 15.3618 15.3608C14.6703 16.0526 13.8658 16.596 12.9483 16.991C12.0307 17.3859 11.0502 17.5833 10.007 17.5833Z" fill="currentColor"/>
</svg>
