<svg width="24" height="24" viewBox="0 0 24 24" fill="none" xmlns="http://www.w3.org/2000/svg">
<path d="M12.65 11.3463V6.65002C12.65 6.46586 12.5882 6.31144 12.4645 6.18677C12.3409 6.06227 12.1877 6.00002 12.005 6.00002C11.8222 6.00002 11.6674 6.06227 11.5405 6.18677C11.4135 6.31144 11.35 6.46586 11.35 6.65002V11.577C11.35 11.6947 11.3719 11.8004 11.4155 11.894C11.459 11.9877 11.5193 12.073 11.5963 12.15L15.0673 15.6213C15.2083 15.7623 15.3628 15.8302 15.5308 15.825C15.6988 15.8199 15.8552 15.7449 16 15.6C16.1449 15.4552 16.2173 15.3004 16.2173 15.1355C16.2173 14.9709 16.142 14.814 15.9915 14.665L12.65 11.3463ZM12.0018 21.1C10.7483 21.1 9.56994 20.8632 8.46677 20.3895C7.36377 19.9159 6.39719 19.2641 5.56702 18.4343C4.73686 17.6044 4.08477 16.637 3.61077 15.532C3.13694 14.4272 2.90002 13.2466 2.90002 11.9903C2.90002 10.7339 3.13686 9.55269 3.61052 8.44652C4.08419 7.34036 4.73594 6.37636 5.56577 5.55452C6.39561 4.73269 7.36302 4.08477 8.46802 3.61077C9.57286 3.13694 10.7534 2.90002 12.0098 2.90002C13.2661 2.90002 14.4474 3.13886 15.5535 3.61652C16.6599 4.09419 17.6222 4.74244 18.4405 5.56127C19.2589 6.38011 19.9067 7.34302 20.384 8.45002C20.8614 9.55702 21.1 10.7398 21.1 11.9983C21.1 13.2518 20.8632 14.4301 20.3895 15.5333C19.9159 16.6363 19.2683 17.6029 18.4468 18.433C17.6253 19.2632 16.6606 19.9153 15.5528 20.3893C14.4449 20.8631 13.2613 21.1 12.0018 21.1Z" fill="currentColor"/>
</svg>
