<svg width="20" height="20" viewBox="0 0 20 20" fill="none" xmlns="http://www.w3.org/2000/svg">
<path d="M1.13788 14.8236C0.93357 14.8236 0.762251 14.7545 0.623918 14.6163C0.485723 14.4779 0.416626 14.3066 0.416626 14.1023V13.8075C0.416626 13.2531 0.70614 12.7977 1.28517 12.4413C1.86433 12.085 2.6192 11.9069 3.54975 11.9069C3.7035 11.9069 3.85836 11.9117 4.01433 11.9213C4.17031 11.9309 4.32739 11.9495 4.48558 11.9773C4.32322 12.237 4.20274 12.5065 4.12413 12.7859C4.04565 13.0653 4.00642 13.3519 4.00642 13.6456V14.8236H1.13788ZM6.17308 14.8236C5.95614 14.8236 5.77586 14.7513 5.63225 14.6069C5.4885 14.4626 5.41663 14.2837 5.41663 14.0702V13.6777C5.41663 13.2876 5.52614 12.931 5.74517 12.6079C5.96419 12.2847 6.27989 12.003 6.69225 11.7627C7.10461 11.5223 7.59183 11.342 8.15392 11.2219C8.71586 11.1016 9.33017 11.0415 9.99683 11.0415C10.6763 11.0415 11.297 11.1016 11.8589 11.2219C12.4209 11.342 12.908 11.5223 13.3204 11.7627C13.7329 12.003 14.0465 12.2847 14.2612 12.6079C14.4759 12.931 14.5833 13.2876 14.5833 13.6777V14.0702C14.5833 14.2837 14.5111 14.4626 14.3666 14.6069C14.2223 14.7513 14.0434 14.8236 13.83 14.8236H6.17308ZM15.9935 14.8236V13.6467C15.9935 13.3329 15.9564 13.0377 15.8822 12.7611C15.8079 12.4844 15.6966 12.2231 15.5481 11.9773C15.7116 11.9495 15.8678 11.9309 16.0168 11.9213C16.1659 11.9117 16.313 11.9069 16.4583 11.9069C17.3888 11.9069 18.1423 12.0829 18.7187 12.435C19.2951 12.787 19.5833 13.2445 19.5833 13.8075V14.1023C19.5833 14.3066 19.5142 14.4779 19.376 14.6163C19.2377 14.7545 19.0663 14.8236 18.862 14.8236H15.9935ZM6.73079 13.5736H13.282V13.4854C13.1966 13.1489 12.8419 12.8658 12.2179 12.6361C11.594 12.4063 10.8547 12.2915 9.99996 12.2915C9.14524 12.2915 8.40593 12.4063 7.78204 12.6361C7.15801 12.8658 6.8076 13.1489 6.73079 13.4854V13.5736ZM3.54746 11.0975C3.15468 11.0975 2.81913 10.9579 2.54079 10.6786C2.26246 10.3993 2.12329 10.0635 2.12329 9.67127C2.12329 9.27391 2.26301 8.93821 2.54246 8.66418C2.82176 8.39016 3.15753 8.25314 3.54975 8.25314C3.94711 8.25314 4.28413 8.39016 4.56079 8.66418C4.8376 8.93821 4.976 9.27474 4.976 9.67377C4.976 10.061 4.83906 10.3951 4.56517 10.6761C4.29142 10.957 3.95218 11.0975 3.54746 11.0975ZM16.4583 11.0975C16.0694 11.0975 15.7345 10.957 15.4535 10.6761C15.1725 10.3951 15.032 10.061 15.032 9.67377C15.032 9.27474 15.1725 8.93821 15.4535 8.66418C15.7345 8.39016 16.0699 8.25314 16.4597 8.25314C16.8616 8.25314 17.1995 8.39016 17.4735 8.66418C17.7475 8.93821 17.8845 9.27391 17.8845 9.67127C17.8845 10.0635 17.7479 10.3993 17.4745 10.6786C17.2012 10.9579 16.8625 11.0975 16.4583 11.0975ZM10.0029 10.4165C9.4026 10.4165 8.89149 10.2061 8.46954 9.78543C8.0476 9.36488 7.83663 8.85411 7.83663 8.25314C7.83663 7.64009 8.0469 7.12627 8.46746 6.71168C8.88815 6.29696 9.39899 6.0896 9.99996 6.0896C10.6129 6.0896 11.1267 6.29668 11.5414 6.71085C11.956 7.12488 12.1633 7.638 12.1633 8.25023C12.1633 8.85036 11.9563 9.36147 11.5423 9.78356C11.1281 10.2055 10.615 10.4165 10.0029 10.4165ZM10.0039 9.16647C10.2588 9.16647 10.4741 9.07731 10.6498 8.89897C10.8256 8.7205 10.9135 8.50384 10.9135 8.24898C10.9135 7.99425 10.8259 7.77898 10.6508 7.60314C10.4757 7.42745 10.2587 7.3396 9.99996 7.3396C9.74788 7.3396 9.5326 7.42717 9.35413 7.60231C9.17565 7.77731 9.08642 7.99425 9.08642 8.25314C9.08642 8.50522 9.17565 8.7205 9.35413 8.89897C9.5326 9.07731 9.7492 9.16647 10.0039 9.16647Z" fill="currentColor"/>
</svg>
