<svg width="16" height="16" viewBox="0 0 16 16" fill="none" xmlns="http://www.w3.org/2000/svg">
<path d="M7.99375 13.1396C7.85097 13.1396 7.70758 13.114 7.56358 13.0628C7.41958 13.0115 7.29286 12.9311 7.18341 12.8218L6.22575 11.9513C5.04375 10.8735 3.98842 9.81475 3.05975 8.77498C2.13108 7.7352 1.66675 6.62131 1.66675 5.43331C1.66675 4.4872 1.98575 3.69509 2.62375 3.05698C3.26186 2.41898 4.05397 2.09998 5.00008 2.09998C5.53764 2.09998 6.06864 2.22392 6.59308 2.47181C7.11741 2.7197 7.58641 3.12225 8.00008 3.67948C8.41375 3.12225 8.88275 2.7197 9.40708 2.47181C9.93153 2.22392 10.4625 2.09998 11.0001 2.09998C11.9462 2.09998 12.7383 2.41898 13.3764 3.05698C14.0144 3.69509 14.3334 4.4872 14.3334 5.43331C14.3334 6.6342 13.8612 7.76048 12.9167 8.81214C11.9723 9.86381 10.9193 10.9136 9.75775 11.9615L8.81025 12.8218C8.70091 12.9311 8.57319 13.0115 8.42708 13.0628C8.28086 13.114 8.13642 13.1396 7.99375 13.1396Z" fill="currentColor"/>
</svg>
