<svg width="16" height="16" viewBox="0 0 16 16" fill="none" xmlns="http://www.w3.org/2000/svg">
<path d="M7.9987 8.49939C7.39703 8.49939 6.88548 8.28872 6.46403 7.86739C6.0427 7.44595 5.83203 6.93439 5.83203 6.33272C5.83203 5.73106 6.0427 5.2195 6.46403 4.79806C6.88548 4.37672 7.39703 4.16606 7.9987 4.16606C8.60036 4.16606 9.11192 4.37672 9.53336 4.79806C9.9547 5.2195 10.1654 5.73106 10.1654 6.33272C10.1654 6.93439 9.9547 7.44595 9.53336 7.86739C9.11192 8.28872 8.60036 8.49939 7.9987 8.49939ZM7.9987 7.49939C8.31925 7.49939 8.59381 7.38506 8.82236 7.15639C9.05103 6.92784 9.16536 6.65328 9.16536 6.33272C9.16536 6.01217 9.05103 5.73761 8.82236 5.50906C8.59381 5.28039 8.31925 5.16606 7.9987 5.16606C7.67814 5.16606 7.40359 5.28039 7.17503 5.50906C6.94636 5.73761 6.83203 6.01217 6.83203 6.33272C6.83203 6.65328 6.94636 6.92784 7.17503 7.15639C7.40359 7.38506 7.67814 7.49939 7.9987 7.49939ZM2.9077 11.4981C2.72481 11.3887 2.58314 11.2426 2.4827 11.0596C2.38225 10.8767 2.33203 10.6793 2.33203 10.4674V5.53139C2.33203 5.3195 2.38225 5.12211 2.4827 4.93922C2.58314 4.75622 2.72481 4.61006 2.9077 4.50072L7.3692 1.76872C7.56575 1.64817 7.77559 1.58789 7.9987 1.58789C8.22181 1.58789 8.43164 1.64817 8.6282 1.76872L13.0897 4.50072C13.2726 4.61006 13.4143 4.75622 13.5147 4.93922C13.6151 5.12211 13.6654 5.3195 13.6654 5.53139V10.4674C13.6654 10.6793 13.6151 10.8767 13.5147 11.0596C13.4143 11.2426 13.2726 11.3887 13.0897 11.4981L8.6282 14.2301C8.43164 14.3506 8.22181 14.4109 7.9987 14.4109C7.77559 14.4109 7.56575 14.3506 7.3692 14.2301L2.9077 11.4981ZM7.9987 11.1661C7.54225 11.1661 7.09286 11.2236 6.65053 11.3386C6.20831 11.4534 5.78759 11.6216 5.38836 11.8429L7.8897 13.3852C7.92392 13.4067 7.96025 13.4174 7.9987 13.4174C8.03714 13.4174 8.07348 13.4067 8.1077 13.3852L10.609 11.8429C10.2098 11.6216 9.78909 11.4534 9.34686 11.3386C8.90453 11.2236 8.45514 11.1661 7.9987 11.1661ZM4.4257 11.2519C4.95981 10.9041 5.52964 10.6362 6.1352 10.4481C6.74075 10.2601 7.36192 10.1661 7.9987 10.1661C8.63548 10.1661 9.25664 10.2601 9.8622 10.4481C10.4678 10.6362 11.0376 10.9041 11.5717 11.2519L12.5692 10.6571C12.6034 10.6357 12.628 10.6101 12.6429 10.5802C12.6579 10.5502 12.6654 10.5182 12.6654 10.4841V5.53139C12.6654 5.49728 12.6579 5.46522 12.6429 5.43522C12.628 5.40534 12.6034 5.37972 12.5692 5.35839L8.1077 2.63022C8.07348 2.60878 8.03714 2.59806 7.9987 2.59806C7.96025 2.59806 7.92392 2.60878 7.8897 2.63022L3.4282 5.35839C3.39398 5.37972 3.36942 5.40534 3.35453 5.43522C3.33953 5.46522 3.33203 5.49728 3.33203 5.53139V10.4841C3.33203 10.5182 3.33953 10.5502 3.35453 10.5802C3.36942 10.6101 3.39398 10.6357 3.4282 10.6571L4.4257 11.2519Z" fill="currentColor"/>
</svg>
