<svg width="24" height="24" viewBox="0 0 24 24" fill="none" xmlns="http://www.w3.org/2000/svg">
<path d="M17.073 16.0942C17.073 17.4823 16.5907 18.6637 15.626 19.6382C14.6613 20.6127 13.4863 21.0999 12.101 21.0999C10.6965 21.0999 9.5151 20.5924 8.55676 19.5774C7.59843 18.5626 7.11926 17.3432 7.11926 15.9192V6.45365C7.11926 5.46649 7.4616 4.6274 8.14626 3.9364C8.83076 3.2454 9.6666 2.8999 10.6538 2.8999C11.6576 2.8999 12.4977 3.26624 13.174 3.9989C13.8503 4.73157 14.1885 5.60815 14.1885 6.62865V15.5134C14.1885 16.0927 13.9867 16.5879 13.583 16.9989C13.1793 17.4097 12.6874 17.6152 12.1073 17.6152C11.5128 17.6152 11.0136 17.4017 10.6098 16.9747C10.2059 16.5477 10.004 16.0272 10.004 15.4134V7.03465C10.004 6.85049 10.0658 6.69607 10.1893 6.5714C10.3129 6.4469 10.4662 6.38465 10.649 6.38465C10.8317 6.38465 10.9865 6.4469 11.1135 6.5714C11.2403 6.69607 11.3038 6.85049 11.3038 7.03465V15.5134C11.3038 15.7381 11.3797 15.9279 11.5315 16.0829C11.6833 16.2379 11.8716 16.3154 12.0963 16.3154C12.3208 16.3154 12.5089 16.2379 12.6608 16.0829C12.8126 15.9279 12.8885 15.7381 12.8885 15.5134V6.44415C12.8948 5.82232 12.68 5.29282 12.244 4.85565C11.808 4.41849 11.2763 4.1999 10.649 4.1999C10.0247 4.1999 9.49693 4.4284 9.06576 4.8854C8.63476 5.34257 8.41926 5.88199 8.41926 6.50365V16.0942C8.4256 17.1198 8.78518 17.9897 9.49801 18.7037C10.2108 19.4178 11.0797 19.7832 12.1045 19.7999C13.1288 19.8166 13.9996 19.447 14.7168 18.6912C15.4338 17.9355 15.7858 17.0282 15.773 15.9692V7.03465C15.773 6.85049 15.8348 6.69607 15.9585 6.5714C16.0822 6.4469 16.2354 6.38465 16.4183 6.38465C16.6009 6.38465 16.7558 6.4469 16.8828 6.5714C17.0096 6.69607 17.073 6.85049 17.073 7.03465V16.0942Z" fill="currentColor"/>
</svg>
