<svg width="24" height="24" viewBox="0 0 24 24" fill="none" xmlns="http://www.w3.org/2000/svg">
<path d="M12.0018 21.1C10.7544 21.1 9.57769 20.8632 8.47152 20.3895C7.36536 19.9159 6.39719 19.2641 5.56702 18.4343C4.73686 17.6044 4.08477 16.6367 3.61077 15.531C3.13694 14.4254 2.90002 13.2489 2.90002 12.0018C2.90002 10.7378 3.13686 9.55686 3.61052 8.45902C4.08419 7.36119 4.73594 6.39719 5.56577 5.56702C6.39561 4.73686 7.36336 4.08477 8.46902 3.61077C9.57469 3.13694 10.7511 2.90002 11.9983 2.90002C13.2623 2.90002 14.4432 3.13686 15.541 3.61052C16.6389 4.08419 17.6029 4.73594 18.433 5.56577C19.2632 6.39561 19.9153 7.35919 20.3893 8.45652C20.8631 9.55386 21.1 10.7344 21.1 11.9983C21.1 13.2456 20.8632 14.4224 20.3895 15.5285C19.9159 16.6347 19.2641 17.6029 18.4343 18.433C17.6044 19.2632 16.6409 19.9153 15.5435 20.3893C14.4462 20.8631 13.2656 21.1 12.0018 21.1ZM12 19.8C14.1667 19.8 16.0084 19.0417 17.525 17.525C19.0417 16.0084 19.8 14.1667 19.8 12C19.8 9.83336 19.0417 7.99169 17.525 6.47502C16.0084 4.95836 14.1667 4.20002 12 4.20002C9.83336 4.20002 7.99169 4.95836 6.47502 6.47502C4.95836 7.99169 4.20002 9.83336 4.20002 12C4.20002 14.1667 4.95836 16.0084 6.47502 17.525C7.99169 19.0417 9.83336 19.8 12 19.8ZM11.975 18.4078C12.157 18.4078 12.3121 18.3519 12.4403 18.2403C12.5686 18.1288 12.6328 17.982 12.6328 17.8V17.2713C13.3918 17.1828 14.0482 16.8664 14.602 16.322C15.1559 15.7779 15.4328 15.1289 15.4328 14.375C15.4328 13.625 15.1847 12.9974 14.6885 12.4923C14.1924 11.9873 13.4943 11.5764 12.5943 11.2598C11.5929 10.9008 10.9365 10.5815 10.625 10.302C10.3135 10.0225 10.1578 9.65519 10.1578 9.20002C10.1578 8.82819 10.3302 8.51152 10.675 8.25002C11.0199 7.98852 11.4532 7.85777 11.975 7.85777C12.3302 7.85777 12.6472 7.91894 12.926 8.04127C13.2049 8.16377 13.4404 8.33269 13.6328 8.54802C13.7546 8.69686 13.8956 8.79652 14.0558 8.84702C14.2161 8.89769 14.3679 8.89102 14.511 8.82702C14.6732 8.75002 14.7818 8.63944 14.8368 8.49527C14.8918 8.35094 14.8738 8.20961 14.7828 8.07127C14.5328 7.69427 14.2186 7.39711 13.8403 7.17977C13.4621 6.96244 13.0596 6.81211 12.6328 6.72877V6.20002C12.6328 6.01802 12.5728 5.87127 12.4528 5.75977C12.3329 5.64811 12.182 5.59227 12 5.59227C11.818 5.59227 11.6671 5.64811 11.5473 5.75977C11.4273 5.87127 11.3673 6.01802 11.3673 6.20002V6.72877C10.5981 6.89294 9.99336 7.20544 9.55302 7.66627C9.11252 8.12727 8.89227 8.64686 8.89227 9.22502C8.89227 9.90969 9.13236 10.4975 9.61252 10.9885C10.0927 11.4795 10.9302 11.9513 12.125 12.4038C12.9712 12.7269 13.5347 13.0309 13.8155 13.3155C14.0962 13.6 14.2365 13.9532 14.2365 14.375C14.2365 14.8854 14.0311 15.3033 13.6203 15.6288C13.2093 15.9544 12.7359 16.1173 12.2 16.1173C11.725 16.1173 11.2915 15.9945 10.8995 15.749C10.5075 15.5035 10.1987 15.1731 9.97302 14.7578C9.88852 14.6154 9.76452 14.5139 9.60102 14.453C9.43752 14.392 9.28186 14.3939 9.13402 14.4588C8.95669 14.5236 8.83936 14.6384 8.78202 14.803C8.72486 14.9677 8.73661 15.1244 8.81727 15.273C9.09677 15.7834 9.45736 16.2064 9.89902 16.5423C10.3407 16.8783 10.8218 17.1129 11.3423 17.2463V17.8C11.3423 17.982 11.4023 18.1288 11.5223 18.2403C11.6421 18.3519 11.793 18.4078 11.975 18.4078Z" fill="currentColor"/>
</svg>
