<svg width="16" height="16" viewBox="0 0 16 16" fill="none" xmlns="http://www.w3.org/2000/svg">
<path d="M7.99996 11.6412L5.35379 12.777C4.95213 12.9488 4.57051 12.9159 4.20896 12.6783C3.8474 12.4408 3.66663 12.1066 3.66663 11.6758V3.53866C3.66663 3.20188 3.78329 2.91683 4.01663 2.6835C4.24996 2.45016 4.53501 2.3335 4.87179 2.3335H11.1281C11.4649 2.3335 11.75 2.45016 11.9833 2.6835C12.2166 2.91683 12.3333 3.20188 12.3333 3.53866V11.6758C12.3333 12.1066 12.1525 12.4408 11.791 12.6783C11.4294 12.9159 11.0478 12.9488 10.6461 12.777L7.99996 11.6412ZM7.99996 10.5335L11.0448 11.845C11.1132 11.8749 11.1784 11.8685 11.2403 11.8258C11.3023 11.7831 11.3333 11.7253 11.3333 11.6527V3.53866C11.3333 3.48733 11.3119 3.44033 11.2691 3.39766C11.2265 3.35488 11.1795 3.3335 11.1281 3.3335H4.87179C4.82046 3.3335 4.77346 3.35488 4.73079 3.39766C4.68801 3.44033 4.66663 3.48733 4.66663 3.53866V11.6527C4.66663 11.7253 4.69763 11.7831 4.75963 11.8258C4.82151 11.8685 4.88668 11.8749 4.95513 11.845L7.99996 10.5335ZM7.99996 3.3335H4.66663H11.3333H7.99996Z" fill="currentColor"/>
</svg>
