<svg width="24" height="24" viewBox="0 0 24 24" fill="none" xmlns="http://www.w3.org/2000/svg">
<path d="M8.1078 19.9C7.66563 19.9 7.28713 19.7425 6.9723 19.4277C6.65747 19.1129 6.50005 18.7344 6.50005 18.2922V6.59995H5.95005C5.76588 6.59995 5.61155 6.53812 5.48705 6.41445C5.36238 6.29079 5.30005 6.13762 5.30005 5.95495C5.30005 5.77212 5.36238 5.61729 5.48705 5.49045C5.61155 5.36345 5.76588 5.29995 5.95005 5.29995H9.60005V4.99995C9.60005 4.78345 9.67672 4.59854 9.83005 4.4452C9.98322 4.29204 10.168 4.21545 10.3845 4.21545H13.6155C13.832 4.21545 14.0169 4.29204 14.17 4.4452C14.3234 4.59854 14.4 4.78345 14.4 4.99995V5.29995H18.05C18.2342 5.29995 18.3885 5.36179 18.513 5.48545C18.6377 5.60912 18.7 5.76229 18.7 5.94495C18.7 6.12779 18.6377 6.28262 18.513 6.40945C18.3885 6.53645 18.2342 6.59995 18.05 6.59995H17.5V18.2815C17.5 18.7358 17.3426 19.1191 17.0278 19.4315C16.713 19.7438 16.3345 19.9 15.8923 19.9H8.1078ZM16.2 6.59995H7.80005V18.2922C7.80005 18.382 7.82888 18.4558 7.88655 18.5135C7.94422 18.5711 8.01797 18.6 8.1078 18.6H15.8923C15.9821 18.6 16.0559 18.5711 16.1135 18.5135C16.1712 18.4558 16.2 18.382 16.2 18.2922V6.59995ZM10.649 16.8C10.8317 16.8 10.9865 16.7377 11.1135 16.6132C11.2404 16.4885 11.3038 16.3341 11.3038 16.15V9.04995C11.3038 8.86579 11.242 8.71137 11.1185 8.5867C10.9949 8.4622 10.8416 8.39995 10.6588 8.39995C10.4761 8.39995 10.3213 8.4622 10.1943 8.5867C10.0675 8.71137 10.004 8.86579 10.004 9.04995V16.15C10.004 16.3341 10.0658 16.4885 10.1893 16.6132C10.313 16.7377 10.4662 16.8 10.649 16.8ZM13.3413 16.8C13.524 16.8 13.6788 16.7377 13.8058 16.6132C13.9326 16.4885 13.996 16.3341 13.996 16.15V9.04995C13.996 8.86579 13.9343 8.71137 13.8108 8.5867C13.6871 8.4622 13.5339 8.39995 13.351 8.39995C13.1684 8.39995 13.0135 8.4622 12.8865 8.5867C12.7597 8.71137 12.6963 8.86579 12.6963 9.04995V16.15C12.6963 16.3341 12.758 16.4885 12.8815 16.6132C13.0052 16.7377 13.1585 16.8 13.3413 16.8Z" fill="currentColor"/>
</svg>
