<svg width="24" height="24" viewBox="0 0 24 24" fill="none" xmlns="http://www.w3.org/2000/svg">
<path d="M12.75 17.185C13.5218 16.7836 14.2994 16.489 15.0828 16.3012C15.8661 16.1134 16.6718 16.0195 17.5 16.0195C18.1 16.0195 18.6635 16.063 19.1905 16.1502C19.7173 16.2374 20.2179 16.3617 20.6923 16.5232C20.7693 16.5554 20.8398 16.5506 20.9038 16.509C20.9679 16.4673 21 16.4015 21 16.3117V6.85396C21 6.79629 20.984 6.74504 20.952 6.70021C20.9198 6.65537 20.8653 6.61687 20.7885 6.58471C20.2385 6.37071 19.7029 6.21654 19.1818 6.12221C18.6606 6.02804 18.1 5.98096 17.5 5.98096C16.6718 5.98096 15.8487 6.09537 15.0307 6.32421C14.2127 6.55304 13.4525 6.89629 12.75 7.35396V17.185ZM12 18.9655C11.8052 18.9655 11.6228 18.9411 11.453 18.8925C11.283 18.8438 11.1224 18.779 10.9713 18.6982C10.2828 18.3085 9.5625 18.0146 8.8105 17.8165C8.05867 17.6185 7.2885 17.5195 6.5 17.5195C5.88983 17.5195 5.2905 17.587 4.702 17.7222C4.1135 17.8575 3.54617 18.0566 3 18.3195C2.64367 18.4835 2.30458 18.4575 1.98275 18.2415C1.66092 18.0255 1.5 17.7194 1.5 17.3232V6.46571C1.5 6.25021 1.5555 6.04796 1.6665 5.85896C1.77733 5.66979 1.93725 5.53354 2.14625 5.45021C2.83342 5.13104 3.54142 4.88971 4.27025 4.72621C4.99908 4.56271 5.74233 4.48096 6.5 4.48096C7.473 4.48096 8.42367 4.61396 9.352 4.87996C10.2802 5.14612 11.1628 5.53879 12 6.05796C12.8372 5.53879 13.7198 5.14612 14.648 4.87996C15.5763 4.61396 16.527 4.48096 17.5 4.48096C18.2577 4.48096 19.0009 4.56271 19.7298 4.72621C20.4586 4.88971 21.1666 5.13104 21.8538 5.45021C22.0628 5.53354 22.2227 5.66979 22.3335 5.85896C22.4445 6.04796 22.5 6.25021 22.5 6.46571V17.3232C22.5 17.7194 22.3327 18.0223 21.998 18.232C21.6633 18.4415 21.3114 18.4642 20.9423 18.3002C20.4026 18.0437 19.8433 17.8495 19.2645 17.7175C18.6857 17.5855 18.0975 17.5195 17.5 17.5195C16.7115 17.5195 15.9413 17.6185 15.1895 17.8165C14.4375 18.0146 13.7173 18.3085 13.0288 18.6982C12.8776 18.779 12.717 18.8438 12.547 18.8925C12.3772 18.9411 12.1948 18.9655 12 18.9655ZM13.9423 8.86171C13.9423 8.75021 13.982 8.63612 14.0615 8.51946C14.141 8.40279 14.2314 8.32262 14.3328 8.27896C14.8289 8.08029 15.3395 7.92971 15.8645 7.82721C16.3895 7.72454 16.9347 7.67321 17.5 7.67321C17.827 7.67321 18.1433 7.69246 18.449 7.73096C18.7548 7.76946 19.0628 7.82204 19.373 7.88871C19.491 7.91554 19.5929 7.97962 19.6788 8.08096C19.7648 8.18229 19.8078 8.30021 19.8078 8.43471C19.8078 8.66037 19.7369 8.82546 19.5953 8.92996C19.4536 9.03446 19.2699 9.05979 19.0443 9.00596C18.8044 8.95596 18.5553 8.92004 18.297 8.89821C18.0387 8.87637 17.773 8.86546 17.5 8.86546C17.0153 8.86546 16.5407 8.91196 16.076 9.00496C15.6112 9.09796 15.1679 9.22396 14.7462 9.38296C14.5102 9.47396 14.3173 9.46879 14.1673 9.36746C14.0173 9.26629 13.9423 9.09771 13.9423 8.86171ZM13.9423 14.3232C13.9423 14.2117 13.982 14.096 14.0615 13.9762C14.141 13.8564 14.2314 13.7746 14.3328 13.731C14.8161 13.5323 15.3267 13.3833 15.8645 13.284C16.4023 13.1846 16.9475 13.135 17.5 13.135C17.827 13.135 18.1433 13.1541 18.449 13.1925C18.7548 13.231 19.0628 13.2835 19.373 13.3502C19.491 13.3772 19.5929 13.4413 19.6788 13.5425C19.7648 13.6438 19.8078 13.7618 19.8078 13.8965C19.8078 14.122 19.7369 14.287 19.5953 14.3915C19.4536 14.496 19.2699 14.5213 19.0443 14.4675C18.8044 14.4175 18.5553 14.3815 18.297 14.3597C18.0387 14.338 17.773 14.3272 17.5 14.3272C17.0218 14.3272 16.5519 14.3727 16.0902 14.4637C15.6287 14.5547 15.1871 14.6829 14.7652 14.8482C14.5294 14.9457 14.3333 14.9432 14.177 14.8407C14.0205 14.738 13.9423 14.5655 13.9423 14.3232ZM13.9423 11.6022C13.9423 11.4907 13.982 11.3766 14.0615 11.26C14.141 11.1433 14.2314 11.0631 14.3328 11.0195C14.8289 10.8208 15.3395 10.6701 15.8645 10.5675C16.3895 10.465 16.9347 10.4137 17.5 10.4137C17.827 10.4137 18.1433 10.433 18.449 10.4715C18.7548 10.5098 19.0628 10.5623 19.373 10.629C19.491 10.656 19.5929 10.7201 19.6788 10.8215C19.7648 10.9226 19.8078 11.0405 19.8078 11.1752C19.8078 11.4009 19.7369 11.566 19.5953 11.6705C19.4536 11.775 19.2699 11.8003 19.0443 11.7465C18.8044 11.6965 18.5553 11.6605 18.297 11.6387C18.0387 11.6169 17.773 11.606 17.5 11.606C17.0153 11.606 16.5407 11.6525 16.076 11.7455C15.6112 11.8383 15.1679 11.9642 14.7462 12.1232C14.5102 12.2142 14.3173 12.2091 14.1673 12.108C14.0173 12.0066 13.9423 11.838 13.9423 11.6022Z" fill="currentColor"/>
</svg>
