<svg width="16" height="16" viewBox="0 0 16 16" fill="none" xmlns="http://www.w3.org/2000/svg">
<path d="M7.99647 12.3128C7.75713 12.3128 7.55347 12.2276 7.38547 12.0571C7.21736 11.8867 7.1333 11.6819 7.1333 11.4426C7.1333 11.2033 7.21852 10.9996 7.38897 10.8315C7.55941 10.6635 7.76425 10.5795 8.00347 10.5795C8.2428 10.5795 8.44647 10.6647 8.61447 10.8351C8.78258 11.0055 8.86663 11.2103 8.86663 11.4496C8.86663 11.689 8.78141 11.8926 8.61097 12.0606C8.44052 12.2287 8.23569 12.3128 7.99647 12.3128ZM7.99647 8.86663C7.75713 8.86663 7.55347 8.78141 7.38547 8.61097C7.21736 8.44052 7.1333 8.23569 7.1333 7.99647C7.1333 7.75713 7.21852 7.55347 7.38897 7.38547C7.55941 7.21736 7.76425 7.1333 8.00347 7.1333C8.2428 7.1333 8.44647 7.21852 8.61447 7.38897C8.78258 7.55941 8.86663 7.76425 8.86663 8.00347C8.86663 8.2428 8.78141 8.44647 8.61097 8.61447C8.44052 8.78258 8.23569 8.86663 7.99647 8.86663ZM7.99647 5.42047C7.75713 5.42047 7.55347 5.33525 7.38547 5.1648C7.21736 4.99447 7.1333 4.78963 7.1333 4.5503C7.1333 4.31097 7.21852 4.1073 7.38897 3.9393C7.55941 3.77119 7.76425 3.68713 8.00347 3.68713C8.2428 3.68713 8.44647 3.77236 8.61447 3.9428C8.78258 4.11325 8.86663 4.31808 8.86663 4.5573C8.86663 4.79663 8.78141 5.00036 8.61097 5.16847C8.44052 5.33647 8.23569 5.42047 7.99647 5.42047Z" fill="currentColor"/>
</svg>
