<svg width="24" height="24" viewBox="0 0 24 24" fill="none" xmlns="http://www.w3.org/2000/svg">
<path d="M3.74051 17.4709C3.5307 17.4709 3.35487 17.4005 3.21304 17.2598C3.07101 17.119 3 16.9444 3 16.7361C3 16.528 3.07101 16.3516 3.21304 16.2069C3.35487 16.0624 3.5307 15.9902 3.74051 15.9902H20.2595C20.4693 15.9902 20.6451 16.0605 20.787 16.2012C20.929 16.3421 21 16.5167 21 16.725C21 16.9331 20.929 17.1095 20.787 17.2541C20.6451 17.3986 20.4693 17.4709 20.2595 17.4709H3.74051ZM3.74051 12.4759C3.5307 12.4759 3.35487 12.4054 3.21304 12.2646C3.07101 12.1237 3 11.9492 3 11.7411C3 11.5328 3.07101 11.3564 3.21304 11.2119C3.35487 11.0672 3.5307 10.9949 3.74051 10.9949H20.2595C20.4693 10.9949 20.6451 11.0653 20.787 11.2062C20.929 11.3471 21 11.5216 21 11.7297C21 11.938 20.929 12.1144 20.787 12.2589C20.6451 12.4035 20.4693 12.4759 20.2595 12.4759H3.74051ZM3.74051 7.48061C3.5307 7.48061 3.35487 7.41026 3.21304 7.26956C3.07101 7.12868 3 6.95409 3 6.7458C3 6.53769 3.07101 6.3613 3.21304 6.21662C3.35487 6.07212 3.5307 5.99988 3.74051 5.99988H20.2595C20.4693 5.99988 20.6451 6.07023 20.787 6.21092C20.929 6.35181 21 6.5264 21 6.73469C21 6.94279 20.929 7.11918 20.787 7.26387C20.6451 7.40836 20.4693 7.48061 20.2595 7.48061H3.74051Z" fill="currentColor"/>
</svg>
