<svg width="16" height="16" viewBox="0 0 16 16" fill="none" xmlns="http://www.w3.org/2000/svg">
<path d="M9.95513 4.57686C9.81347 4.57686 9.69469 4.52897 9.5988 4.43319C9.50302 4.3373 9.45513 4.21847 9.45513 4.07669C9.45513 3.93503 9.50302 3.8163 9.5988 3.72053C9.69469 3.62486 9.81347 3.57703 9.95513 3.57703H13.9551C14.0968 3.57703 14.2155 3.62497 14.3113 3.72086C14.4072 3.81664 14.4551 3.93542 14.4551 4.07719C14.4551 4.21886 14.4072 4.33758 14.3113 4.43336C14.2155 4.52903 14.0968 4.57686 13.9551 4.57686H9.95513ZM9.95513 7.16669C9.81347 7.16669 9.69469 7.11875 9.5988 7.02286C9.50302 6.92697 9.45513 6.80819 9.45513 6.66653C9.45513 6.52475 9.50302 6.40603 9.5988 6.31036C9.69469 6.21458 9.81347 6.16669 9.95513 6.16669H13.9551C14.0968 6.16669 14.2155 6.21464 14.3113 6.31053C14.4072 6.40642 14.4551 6.52519 14.4551 6.66686C14.4551 6.80864 14.4072 6.92736 14.3113 7.02303C14.2155 7.1188 14.0968 7.16669 13.9551 7.16669H9.95513ZM9.95513 9.75636C9.81347 9.75636 9.69469 9.70842 9.5988 9.61253C9.50302 9.51675 9.45513 9.39797 9.45513 9.25619C9.45513 9.11453 9.50302 8.9958 9.5988 8.90003C9.69469 8.80436 9.81347 8.75653 9.95513 8.75653H13.9551C14.0968 8.75653 14.2155 8.80442 14.3113 8.90019C14.4072 8.99608 14.4551 9.11492 14.4551 9.25669C14.4551 9.39836 14.4072 9.51708 14.3113 9.61286C14.2155 9.70853 14.0968 9.75636 13.9551 9.75636H9.95513ZM5.28997 9.20519C4.80608 9.20519 4.39424 9.0358 4.05447 8.69703C3.71469 8.35825 3.5448 7.94692 3.5448 7.46303C3.5448 6.97914 3.71419 6.56736 4.05297 6.22769C4.39174 5.88791 4.80308 5.71803 5.28697 5.71803C5.77085 5.71803 6.18269 5.88736 6.52247 6.22603C6.86213 6.5648 7.03197 6.97614 7.03197 7.46003C7.03197 7.94392 6.86263 8.35575 6.52397 8.69553C6.18519 9.0353 5.77385 9.20519 5.28997 9.20519ZM1.5448 12.3462V11.9385C1.5448 11.7493 1.59074 11.5691 1.68263 11.3979C1.77452 11.2266 1.90124 11.0906 2.0628 10.9899C2.54569 10.7069 3.0553 10.4925 3.59163 10.3469C4.12808 10.2011 4.69369 10.1282 5.28847 10.1282C5.88324 10.1282 6.4488 10.2011 6.98513 10.3469C7.52147 10.4925 8.03113 10.7069 8.51413 10.9899C8.67558 11.0906 8.80224 11.2266 8.89413 11.3979C8.98602 11.5691 9.03197 11.7493 9.03197 11.9385V12.3462C9.03197 12.5169 8.97424 12.66 8.8588 12.7755C8.74324 12.891 8.60013 12.9487 8.42947 12.9487H2.14747C1.97669 12.9487 1.83358 12.891 1.71813 12.7755C1.60258 12.66 1.5448 12.5169 1.5448 12.3462ZM2.6063 11.8462V11.9487H7.97047V11.8462C7.55591 11.6111 7.12235 11.4326 6.6698 11.3109C6.21724 11.1891 5.7568 11.1282 5.28847 11.1282C4.82002 11.1282 4.35952 11.1891 3.90697 11.3109C3.45441 11.4326 3.02086 11.6111 2.6063 11.8462ZM5.28847 8.20519C5.49447 8.20519 5.66986 8.13275 5.81463 7.98786C5.95952 7.84297 6.03197 7.66753 6.03197 7.46153C6.03197 7.25553 5.95952 7.08014 5.81463 6.93536C5.66986 6.79047 5.49447 6.71803 5.28847 6.71803C5.08247 6.71803 4.90702 6.79047 4.76213 6.93536C4.61724 7.08014 4.5448 7.25553 4.5448 7.46153C4.5448 7.66753 4.61724 7.84297 4.76213 7.98786C4.90702 8.13275 5.08247 8.20519 5.28847 8.20519Z" fill="currentColor"/>
</svg>
