<svg width="20" height="20" viewBox="0 0 20 20" fill="none" xmlns="http://www.w3.org/2000/svg">
<path d="M3.75642 16.5833C3.38128 16.5833 3.0642 16.4538 2.80517 16.1948C2.54614 15.9357 2.41663 15.6186 2.41663 15.2435V5.75642C2.41663 5.38128 2.54614 5.0642 2.80517 4.80517C3.0642 4.54614 3.38128 4.41663 3.75642 4.41663H16.2435C16.6186 4.41663 16.9357 4.54614 17.1948 4.80517C17.4538 5.0642 17.5833 5.38128 17.5833 5.75642V15.2435C17.5833 15.6186 17.4538 15.9357 17.1948 16.1948C16.9357 16.4538 16.6186 16.5833 16.2435 16.5833H3.75642ZM3.75642 15.5H9.45829V5.49996H3.75642C3.69225 5.49996 3.6335 5.52669 3.58017 5.58017C3.5267 5.6335 3.49996 5.69225 3.49996 5.75642V15.2435C3.49996 15.3077 3.5267 15.3664 3.58017 15.4198C3.6335 15.4732 3.69225 15.5 3.75642 15.5ZM10.5416 15.5H16.2435C16.3077 15.5 16.3664 15.4732 16.4198 15.4198C16.4732 15.3664 16.5 15.3077 16.5 15.2435V5.75642C16.5 5.69225 16.4732 5.6335 16.4198 5.58017C16.3664 5.52669 16.3077 5.49996 16.2435 5.49996H10.5416V15.5ZM5.20038 13.7916H7.75079C7.90385 13.7916 8.03329 13.7401 8.13913 13.637C8.2451 13.534 8.29808 13.4063 8.29808 13.2541C8.29808 13.1018 8.24628 12.9727 8.14267 12.867C8.0392 12.7612 7.91093 12.7083 7.75788 12.7083H5.20746C5.0544 12.7083 4.92496 12.7598 4.81913 12.8629C4.71315 12.9659 4.66017 13.0936 4.66017 13.2458C4.66017 13.3982 4.71197 13.5272 4.81558 13.6329C4.91906 13.7387 5.04732 13.7916 5.20038 13.7916ZM5.20038 11.0416H7.75079C7.90385 11.0416 8.03329 10.9901 8.13913 10.887C8.2451 10.784 8.29808 10.6563 8.29808 10.5041C8.29808 10.3518 8.24628 10.2227 8.14267 10.117C8.0392 10.0112 7.91093 9.95829 7.75788 9.95829H5.20746C5.0544 9.95829 4.92496 10.0098 4.81913 10.1129C4.71315 10.2159 4.66017 10.3436 4.66017 10.4958C4.66017 10.6482 4.71197 10.7772 4.81558 10.8829C4.91906 10.9887 5.04732 11.0416 5.20038 11.0416ZM5.20038 8.29163H7.75079C7.90385 8.29163 8.03329 8.2401 8.13913 8.13704C8.2451 8.03399 8.29808 7.90635 8.29808 7.75413C8.29808 7.60177 8.24628 7.47274 8.14267 7.36704C8.0392 7.26121 7.91093 7.20829 7.75788 7.20829H5.20746C5.0544 7.20829 4.92496 7.25982 4.81913 7.36288C4.71315 7.46593 4.66017 7.59357 4.66017 7.74579C4.66017 7.89815 4.71197 8.02718 4.81558 8.13288C4.91906 8.23871 5.04732 8.29163 5.20038 8.29163ZM12.242 13.8125H14.7925C14.9455 13.8125 15.075 13.7609 15.1808 13.6579C15.2868 13.5548 15.3398 13.4272 15.3398 13.275C15.3398 13.1226 15.2879 12.9936 15.1843 12.8879C15.0809 12.782 14.9526 12.7291 14.7995 12.7291H12.2491C12.0961 12.7291 11.9666 12.7807 11.8608 12.8837C11.7548 12.9868 11.7018 13.1144 11.7018 13.2666C11.7018 13.419 11.7536 13.548 11.8573 13.6537C11.9607 13.7595 12.089 13.8125 12.242 13.8125ZM12.242 11.0625H14.7925C14.9455 11.0625 15.075 11.0109 15.1808 10.9079C15.2868 10.8048 15.3398 10.6772 15.3398 10.525C15.3398 10.3726 15.2879 10.2436 15.1843 10.1379C15.0809 10.032 14.9526 9.97913 14.7995 9.97913H12.2491C12.0961 9.97913 11.9666 10.0307 11.8608 10.1337C11.7548 10.2368 11.7018 10.3644 11.7018 10.5166C11.7018 10.669 11.7536 10.798 11.8573 10.9037C11.9607 11.0095 12.089 11.0625 12.242 11.0625ZM12.242 8.31246H14.7925C14.9455 8.31246 15.075 8.26093 15.1808 8.15788C15.2868 8.05482 15.3398 7.92718 15.3398 7.77496C15.3398 7.6226 15.2879 7.49357 15.1843 7.38788C15.0809 7.28204 14.9526 7.22913 14.7995 7.22913H12.2491C12.0961 7.22913 11.9666 7.28065 11.8608 7.38371C11.7548 7.48676 11.7018 7.6144 11.7018 7.76663C11.7018 7.91899 11.7536 8.04802 11.8573 8.15371C11.9607 8.25954 12.089 8.31246 12.242 8.31246Z" fill="currentColor"/>
</svg>
