<svg width="20" height="20" viewBox="0 0 20 20" fill="none" xmlns="http://www.w3.org/2000/svg">
<path d="M9.35413 16.4856C9.58496 15.5626 10.0799 14.7856 10.8389 14.1546C11.5979 13.5238 12.485 13.2084 13.5 13.2084C13.832 13.2084 14.1525 13.2425 14.4614 13.3109C14.7702 13.3793 15.0667 13.4942 15.351 13.6554C15.7003 13.1545 15.9791 12.5922 16.1875 11.9688C16.3958 11.3454 16.5 10.6892 16.5 10C16.5 8.19447 15.868 6.65974 14.6041 5.39585C13.3402 4.13196 11.8055 3.50002 9.99996 3.50002C8.1944 3.50002 6.65968 4.13196 5.39579 5.39585C4.1319 6.65974 3.49996 8.19447 3.49996 10C3.49996 10.5342 3.5619 11.0513 3.68579 11.5513C3.80982 12.0513 3.99364 12.5272 4.23725 12.9792C4.7992 12.6993 5.36378 12.5009 5.931 12.3838C6.49836 12.2668 7.08197 12.2084 7.68183 12.2084C8.07558 12.2084 8.47121 12.2393 8.86871 12.3013C9.26635 12.3631 9.63218 12.4373 9.96621 12.524C9.76857 12.6448 9.59392 12.7835 9.44225 12.94C9.29058 13.0964 9.13996 13.2563 8.99038 13.4198C8.82802 13.392 8.62392 13.3638 8.37808 13.335C8.13239 13.3061 7.89899 13.2917 7.67788 13.2917C7.17982 13.2917 6.68565 13.3456 6.19538 13.4536C5.7051 13.5615 5.23774 13.7164 4.79329 13.9184C5.34454 14.6545 6.01815 15.242 6.81413 15.6811C7.6101 16.1202 8.45677 16.3884 9.35413 16.4856ZM10.007 17.5834C8.96385 17.5834 7.98135 17.386 7.05954 16.9913C6.13774 16.5965 5.33093 16.0534 4.63913 15.3619C3.94732 14.6704 3.40392 13.8642 3.00892 12.9434C2.61406 12.0227 2.41663 11.0388 2.41663 9.9919C2.41663 8.94495 2.61399 7.96405 3.00871 7.04919C3.40343 6.13433 3.94656 5.33099 4.63808 4.63919C5.32961 3.94738 6.13579 3.40398 7.05663 3.00898C7.97732 2.61412 8.96114 2.41669 10.0081 2.41669C11.055 2.41669 12.0359 2.61405 12.9508 3.00877C13.8657 3.40349 14.669 3.94662 15.3608 4.63815C16.0526 5.32967 16.596 6.13419 16.991 7.05169C17.3859 7.96933 17.5833 8.94974 17.5833 9.99294C17.5833 11.0361 17.3859 12.0186 16.9912 12.9404C16.5965 13.8622 16.0534 14.669 15.3618 15.3609C14.6703 16.0527 13.8658 16.5961 12.9483 16.9911C12.0307 17.3859 11.0502 17.5834 10.007 17.5834ZM7.74538 10.5417C7.03801 10.5417 6.43829 10.2941 5.94621 9.79898C5.45427 9.30398 5.20829 8.7028 5.20829 7.99544C5.20829 7.28808 5.45586 6.68835 5.951 6.19627C6.446 5.70433 7.04718 5.45835 7.75454 5.45835C8.4619 5.45835 9.06163 5.70592 9.55371 6.20106C10.0457 6.69606 10.2916 7.29724 10.2916 8.0046C10.2916 8.71196 10.0441 9.31169 9.54892 9.80377C9.05392 10.2957 8.45274 10.5417 7.74538 10.5417ZM7.74996 9.45835C8.15065 9.45835 8.49385 9.31544 8.77954 9.0296C9.06538 8.74391 9.20829 8.40071 9.20829 8.00002C9.20829 7.59933 9.06538 7.25613 8.77954 6.97044C8.49385 6.6846 8.15065 6.54169 7.74996 6.54169C7.34927 6.54169 7.00607 6.6846 6.72038 6.97044C6.43454 7.25613 6.29163 7.59933 6.29163 8.00002C6.29163 8.40071 6.43454 8.74391 6.72038 9.0296C7.00607 9.31544 7.34927 9.45835 7.74996 9.45835ZM13.5048 11.4519C12.9595 11.4519 12.497 11.2637 12.1175 10.8873C11.7379 10.5108 11.5481 10.05 11.5481 9.50481C11.5481 8.95953 11.7363 8.4971 12.1127 8.11752C12.4892 7.73794 12.95 7.54815 13.4952 7.54815C14.0404 7.54815 14.5029 7.73634 14.8825 8.11273C15.262 8.48926 15.4518 8.95009 15.4518 9.49523C15.4518 10.0405 15.2636 10.5029 14.8873 10.8825C14.5107 11.2621 14.0499 11.4519 13.5048 11.4519Z" fill="currentColor"/>
</svg>
