<svg width="20" height="20" viewBox="0 0 20 20" fill="none" xmlns="http://www.w3.org/2000/svg">
<path d="M4.75642 16.5833C4.38128 16.5833 4.0642 16.4538 3.80517 16.1948C3.54614 15.9357 3.41663 15.6186 3.41663 15.2435V4.75642C3.41663 4.38128 3.54614 4.0642 3.80517 3.80517C4.0642 3.54614 4.38128 3.41663 4.75642 3.41663H15.2435C15.6186 3.41663 15.9357 3.54614 16.1948 3.80517C16.4538 4.0642 16.5833 4.38128 16.5833 4.75642V5.33329H10.7564C10.0834 5.33329 9.51128 5.56892 9.04017 6.04017C8.56892 6.51128 8.33329 7.08336 8.33329 7.75642V12.2435C8.33329 12.9166 8.56892 13.4886 9.04017 13.9598C9.51128 14.431 10.0834 14.6666 10.7564 14.6666H16.5833V15.2435C16.5833 15.6228 16.4538 15.9409 16.1948 16.1979C15.9357 16.4548 15.6186 16.5833 15.2435 16.5833H4.75642ZM10.7564 13.5833C10.3813 13.5833 10.0642 13.4538 9.80517 13.1948C9.54614 12.9357 9.41663 12.6186 9.41663 12.2435V7.75642C9.41663 7.38128 9.54614 7.0642 9.80517 6.80517C10.0642 6.54614 10.3813 6.41663 10.7564 6.41663H16.2435C16.6186 6.41663 16.9357 6.54614 17.1948 6.80517C17.4538 7.0642 17.5833 7.38128 17.5833 7.75642V12.2435C17.5833 12.6186 17.4538 12.9357 17.1948 13.1948C16.9357 13.4538 16.6186 13.5833 16.2435 13.5833H10.7564ZM13.5 11.25C13.8472 11.25 14.1423 11.1284 14.3854 10.8854C14.6284 10.6423 14.75 10.3472 14.75 9.99996C14.75 9.65274 14.6284 9.3576 14.3854 9.11454C14.1423 8.87149 13.8472 8.74996 13.5 8.74996C13.1527 8.74996 12.8576 8.87149 12.6145 9.11454C12.3715 9.3576 12.25 9.65274 12.25 9.99996C12.25 10.3472 12.3715 10.6423 12.6145 10.8854C12.8576 11.1284 13.1527 11.25 13.5 11.25Z" fill="currentColor"/>
</svg>
