<svg width="16" height="16" viewBox="0 0 16 16" fill="none" xmlns="http://www.w3.org/2000/svg">
<path d="M10.8142 2.30768C11.8057 2.30768 12.6401 2.68034 13.3174 3.42568C13.9947 4.17101 14.3334 5.06329 14.3334 6.10251C14.3334 6.31107 14.3191 6.5179 14.2904 6.72301C14.2617 6.92823 14.2132 7.13168 14.1449 7.33334H10.3501L9.21675 5.63334C9.16119 5.54446 9.08342 5.47223 8.98342 5.41668C8.88342 5.36112 8.77786 5.33334 8.66675 5.33334C8.5223 5.33334 8.39175 5.37779 8.27508 5.46668C8.15841 5.55557 8.07786 5.66668 8.03341 5.80001L7.13342 8.50001L6.55008 7.63334C6.49453 7.54446 6.41675 7.47223 6.31675 7.41668C6.21675 7.36112 6.11119 7.33334 6.00008 7.33334H1.85525C1.78691 7.1359 1.73841 6.93462 1.70975 6.72951C1.68108 6.5244 1.66675 6.32096 1.66675 6.11918C1.66675 5.06885 2.00264 4.17101 2.67441 3.42568C3.34619 2.68034 4.1778 2.30768 5.16925 2.30768C5.66414 2.30768 6.13486 2.40684 6.58142 2.60518C7.02808 2.80351 7.42619 3.08512 7.77575 3.45001L8.00008 3.68718L8.21158 3.46284C8.55858 3.09362 8.95647 2.80879 9.40525 2.60834C9.85392 2.4079 10.3236 2.30768 10.8142 2.30768ZM8.00008 13.673C7.84708 13.673 7.69814 13.6444 7.55325 13.5872C7.40836 13.53 7.2808 13.4441 7.17058 13.3295L2.83208 8.97434C2.78253 8.92479 2.73641 8.87523 2.69375 8.82568C2.65097 8.77612 2.60825 8.72312 2.56558 8.66668H5.63341L6.76675 10.3667C6.8223 10.4556 6.90008 10.5278 7.00008 10.5833C7.10008 10.6389 7.20564 10.6667 7.31675 10.6667C7.46119 10.6667 7.59453 10.6222 7.71675 10.5333C7.83897 10.4445 7.9223 10.3333 7.96675 10.2L8.86675 7.50001L9.43341 8.36668C9.50008 8.45557 9.58342 8.52779 9.68342 8.58334C9.78341 8.6389 9.88897 8.66668 10.0001 8.66668H13.4244C13.3816 8.71623 13.3389 8.76579 13.2962 8.81535C13.2535 8.8649 13.2107 8.91451 13.1681 8.96418L8.81292 13.3295C8.69836 13.4441 8.57247 13.53 8.43525 13.5872C8.29814 13.6444 8.15308 13.673 8.00008 13.673Z" fill="currentColor"/>
</svg>
