<svg width="20" height="20" viewBox="0 0 20 20" fill="none" xmlns="http://www.w3.org/2000/svg">
<path d="M9.99996 9.83975C10.6516 9.83975 11.2045 9.61267 11.6585 9.1585C12.1127 8.70447 12.3398 8.15163 12.3398 7.49996C12.3398 6.84829 12.1127 6.29545 11.6585 5.84142C11.2045 5.38725 10.6516 5.16017 9.99996 5.16017C9.34829 5.16017 8.79545 5.38725 8.34142 5.84142C7.88725 6.29545 7.66017 6.84829 7.66017 7.49996C7.66017 8.15163 7.88725 8.70447 8.34142 9.1585C8.79545 9.61267 9.34829 9.83975 9.99996 9.83975ZM8.62496 7.87496C8.51385 7.87496 8.42357 7.84024 8.35413 7.77079C8.28468 7.70135 8.24996 7.61107 8.24996 7.49996C8.24996 7.38885 8.28468 7.29857 8.35413 7.22913C8.42357 7.15968 8.51385 7.12496 8.62496 7.12496C8.73607 7.12496 8.82635 7.15968 8.89579 7.22913C8.96524 7.29857 8.99996 7.38885 8.99996 7.49996C8.99996 7.61107 8.96524 7.70135 8.89579 7.77079C8.82635 7.84024 8.73607 7.87496 8.62496 7.87496ZM9.99996 7.87496C9.88885 7.87496 9.79857 7.84024 9.72913 7.77079C9.65968 7.70135 9.62496 7.61107 9.62496 7.49996C9.62496 7.38885 9.65968 7.29857 9.72913 7.22913C9.79857 7.15968 9.88885 7.12496 9.99996 7.12496C10.1111 7.12496 10.2013 7.15968 10.2708 7.22913C10.3402 7.29857 10.375 7.38885 10.375 7.49996C10.375 7.61107 10.3402 7.70135 10.2708 7.77079C10.2013 7.84024 10.1111 7.87496 9.99996 7.87496ZM11.375 7.87496C11.2638 7.87496 11.1736 7.84024 11.1041 7.77079C11.0347 7.70135 11 7.61107 11 7.49996C11 7.38885 11.0347 7.29857 11.1041 7.22913C11.1736 7.15968 11.2638 7.12496 11.375 7.12496C11.4861 7.12496 11.5763 7.15968 11.6458 7.22913C11.7152 7.29857 11.75 7.38885 11.75 7.49996C11.75 7.61107 11.7152 7.70135 11.6458 7.77079C11.5763 7.84024 11.4861 7.87496 11.375 7.87496ZM4.75642 16.5833C4.38128 16.5833 4.0642 16.4538 3.80517 16.1948C3.54614 15.9357 3.41663 15.6186 3.41663 15.2435V4.75642C3.41663 4.38128 3.54614 4.0642 3.80517 3.80517C4.0642 3.54614 4.38128 3.41663 4.75642 3.41663H15.2435C15.6186 3.41663 15.9357 3.54614 16.1948 3.80517C16.4538 4.0642 16.5833 4.38128 16.5833 4.75642V15.2435C16.5833 15.6186 16.4538 15.9357 16.1948 16.1948C15.9357 16.4538 15.6186 16.5833 15.2435 16.5833H4.75642ZM4.75642 15.5H15.2435C15.3077 15.5 15.3664 15.4732 15.4198 15.4198C15.4732 15.3664 15.5 15.3077 15.5 15.2435V4.75642C15.5 4.69225 15.4732 4.6335 15.4198 4.58017C15.3664 4.52669 15.3077 4.49996 15.2435 4.49996H4.75642C4.69225 4.49996 4.6335 4.52669 4.58017 4.58017C4.5267 4.6335 4.49996 4.69225 4.49996 4.75642V15.2435C4.49996 15.3077 4.5267 15.3664 4.58017 15.4198C4.6335 15.4732 4.69225 15.5 4.75642 15.5Z" fill="currentColor"/>
</svg>
