<svg width="20" height="20" viewBox="0 0 20 20" fill="none" xmlns="http://www.w3.org/2000/svg">
<path d="M5.51329 15C5.3693 15 5.24778 14.9513 5.14873 14.854C5.04958 14.7565 5 14.6358 5 14.4919V11.1753C5 11.059 5.03913 10.9605 5.11741 10.8801C5.19568 10.7997 5.29262 10.7595 5.40823 10.7595C5.52395 10.7595 5.62194 10.7987 5.70222 10.8772C5.7826 10.9556 5.82278 11.0528 5.82278 11.1688V13.5954L13.5954 5.82278H11.1688C11.0528 5.82278 10.9556 5.78365 10.8772 5.70538C10.7987 5.62711 10.7595 5.53017 10.7595 5.41456C10.7595 5.29884 10.7988 5.20084 10.8775 5.12057C10.9563 5.04019 11.0539 5 11.1703 5H14.4867C14.6307 5 14.7522 5.04868 14.8513 5.14604C14.9504 5.24351 15 5.36419 15 5.50807V8.82468C15 8.94103 14.9609 9.03945 14.8826 9.11994C14.8043 9.20032 14.7074 9.24051 14.5918 9.24051C14.4761 9.24051 14.3781 9.20127 14.2978 9.12278C14.2174 9.04441 14.1772 8.9472 14.1772 8.83117V6.40459L6.40459 14.1772H8.83117C8.9472 14.1772 9.04441 14.2163 9.12278 14.2946C9.20127 14.3729 9.24051 14.4698 9.24051 14.5854C9.24051 14.7012 9.20116 14.7992 9.12247 14.8794C9.04367 14.9598 8.9461 15 8.82975 15H5.51329Z" fill="currentColor"/>
</svg>
