<svg width="20" height="20" viewBox="0 0 20 20" fill="none" xmlns="http://www.w3.org/2000/svg">
<path d="M4.67933 15.0833V15.9518C4.67933 16.1273 4.61788 16.2763 4.49496 16.3991C4.37204 16.5219 4.22274 16.5833 4.04704 16.5833C3.87149 16.5833 3.72253 16.5219 3.60017 16.3991C3.47781 16.2763 3.41663 16.1273 3.41663 15.9518V10.326C3.41663 10.2436 3.42572 10.1612 3.44392 10.0787C3.46211 9.99635 3.48447 9.90857 3.511 9.81538L4.96558 6.25142C5.06281 6.00058 5.2251 5.79878 5.45246 5.646C5.67982 5.49308 5.92801 5.41663 6.19704 5.41663H13.8029C14.0719 5.41663 14.3201 5.49308 14.5475 5.646C14.7748 5.79878 14.9371 6.00058 15.0343 6.25142L16.4889 9.81538C16.5154 9.90857 16.5378 9.99635 16.556 10.0787C16.5742 10.1612 16.5833 10.2436 16.5833 10.326V15.9518C16.5833 16.1273 16.5218 16.2763 16.3989 16.3991C16.2759 16.5219 16.1266 16.5833 15.951 16.5833C15.7753 16.5833 15.6263 16.5219 15.5039 16.3991C15.3817 16.2763 15.3206 16.1273 15.3206 15.9518V15.0833H4.67933ZM4.86058 9.48079H15.1393L14.0273 6.66829C14.0059 6.61482 13.9738 6.57343 13.931 6.54413C13.8882 6.51468 13.8375 6.49996 13.7787 6.49996H6.22121C6.16246 6.49996 6.1117 6.51468 6.06892 6.54413C6.02614 6.57343 5.99406 6.61482 5.97267 6.66829L4.86058 9.48079ZM6.46975 13.1218C6.7035 13.1218 6.90163 13.04 7.06413 12.8762C7.22649 12.7126 7.30767 12.5139 7.30767 12.2802C7.30767 12.0464 7.22586 11.8483 7.06225 11.6858C6.8985 11.5234 6.69975 11.4423 6.466 11.4423C6.23225 11.4423 6.0342 11.5241 5.87183 11.6877C5.70933 11.8514 5.62808 12.0502 5.62808 12.2839C5.62808 12.5177 5.70996 12.7157 5.87371 12.8781C6.03732 13.0406 6.236 13.1218 6.46975 13.1218ZM13.5339 13.1218C13.7677 13.1218 13.9657 13.04 14.1281 12.8762C14.2906 12.7126 14.3718 12.5139 14.3718 12.2802C14.3718 12.0464 14.29 11.8483 14.1262 11.6858C13.9626 11.5234 13.7639 11.4423 13.5302 11.4423C13.2964 11.4423 13.0983 11.5241 12.9358 11.6877C12.7734 11.8514 12.6923 12.0502 12.6923 12.2839C12.6923 12.5177 12.7741 12.7157 12.9377 12.8781C13.1014 13.0406 13.3002 13.1218 13.5339 13.1218ZM4.49996 14H15.5V10.5641H4.49996V14Z" fill="currentColor"/>
</svg>
