<svg width="16" height="16" viewBox="0 0 16 16" fill="none" xmlns="http://www.w3.org/2000/svg">
<path d="M4.02575 11.6667L2.69108 13.0012C2.50141 13.191 2.28325 13.234 2.03658 13.1302C1.79003 13.0264 1.66675 12.8394 1.66675 12.5692V2.87191C1.66675 2.53514 1.78341 2.25008 2.01675 2.01675C2.25008 1.78341 2.53514 1.66675 2.87191 1.66675H13.1282C13.465 1.66675 13.7501 1.78341 13.9834 2.01675C14.2167 2.25008 14.3334 2.53514 14.3334 2.87191V10.4616C14.3334 10.7984 14.2167 11.0834 13.9834 11.3167C13.7501 11.5501 13.465 11.6667 13.1282 11.6667H4.02575ZM5.33341 7.25641C5.49664 7.25641 5.63575 7.19897 5.75075 7.08408C5.86564 6.96908 5.92308 6.82997 5.92308 6.66675C5.92308 6.50353 5.86564 6.36442 5.75075 6.24942C5.63575 6.13453 5.49664 6.07708 5.33341 6.07708C5.17019 6.07708 5.03108 6.13453 4.91608 6.24942C4.80119 6.36442 4.74375 6.50353 4.74375 6.66675C4.74375 6.82997 4.80119 6.96908 4.91608 7.08408C5.03108 7.19897 5.17019 7.25641 5.33341 7.25641ZM8.00008 7.25641C8.1633 7.25641 8.30242 7.19897 8.41742 7.08408C8.5323 6.96908 8.58975 6.82997 8.58975 6.66675C8.58975 6.50353 8.5323 6.36442 8.41742 6.24942C8.30242 6.13453 8.1633 6.07708 8.00008 6.07708C7.83686 6.07708 7.69775 6.13453 7.58275 6.24942C7.46786 6.36442 7.41041 6.50353 7.41041 6.66675C7.41041 6.82997 7.46786 6.96908 7.58275 7.08408C7.69775 7.19897 7.83686 7.25641 8.00008 7.25641ZM10.6667 7.25641C10.83 7.25641 10.9691 7.19897 11.0841 7.08408C11.199 6.96908 11.2564 6.82997 11.2564 6.66675C11.2564 6.50353 11.199 6.36442 11.0841 6.24942C10.9691 6.13453 10.83 6.07708 10.6667 6.07708C10.5035 6.07708 10.3644 6.13453 10.2494 6.24942C10.1345 6.36442 10.0771 6.50353 10.0771 6.66675C10.0771 6.82997 10.1345 6.96908 10.2494 7.08408C10.3644 7.19897 10.5035 7.25641 10.6667 7.25641Z" fill="currentColor"/>
</svg>
