<svg width="16" height="16" viewBox="0 0 16 16" fill="none" xmlns="http://www.w3.org/2000/svg">
<path d="M4.7461 8.00013L7.60127 10.8488C7.69349 10.9411 7.7396 11.0444 7.7396 11.1585C7.7396 11.2726 7.69349 11.3758 7.60127 11.4681C7.5046 11.5647 7.40138 11.613 7.2916 11.613C7.18182 11.613 7.0786 11.5647 6.98193 11.4681L3.88593 8.37197C3.8346 8.32063 3.7961 8.26313 3.77043 8.19947C3.74477 8.1358 3.73193 8.06935 3.73193 8.00013C3.73193 7.93091 3.74477 7.86447 3.77043 7.8008C3.7961 7.73713 3.8346 7.67963 3.88593 7.6283L6.98193 4.53213C7.07427 4.43991 7.17749 4.3938 7.2916 4.3938C7.40571 4.3938 7.50893 4.43991 7.60127 4.53213C7.69782 4.6288 7.7461 4.73202 7.7461 4.8418C7.7461 4.95158 7.69782 5.0548 7.60127 5.15147L4.7461 8.00013ZM9.32943 8.00013L12.1846 10.8488C12.2768 10.9411 12.3229 11.0444 12.3229 11.1585C12.3229 11.2726 12.2768 11.3758 12.1846 11.4681C12.0879 11.5647 11.9847 11.613 11.8749 11.613C11.7652 11.613 11.6619 11.5647 11.5653 11.4681L8.4691 8.37197C8.41788 8.32063 8.37943 8.26313 8.35377 8.19947C8.3281 8.1358 8.31527 8.06935 8.31527 8.00013C8.31527 7.93091 8.3281 7.86447 8.35377 7.8008C8.37943 7.73713 8.41788 7.67963 8.4691 7.6283L11.5653 4.53213C11.6576 4.43991 11.7608 4.3938 11.8749 4.3938C11.989 4.3938 12.0923 4.43991 12.1846 4.53213C12.2812 4.6288 12.3294 4.73202 12.3294 4.8418C12.3294 4.95158 12.2812 5.0548 12.1846 5.15147L9.32943 8.00013Z" fill="currentColor"/>
</svg>
