<svg width="20" height="20" viewBox="0 0 20 20" fill="none" xmlns="http://www.w3.org/2000/svg">
<path d="M5.41667 13.3498C6.10681 13.3498 6.77826 13.4281 7.43104 13.5846C8.08382 13.7411 8.73181 13.9866 9.375 14.321V6.12854C8.78958 5.74715 8.15604 5.46111 7.47437 5.27042C6.79271 5.07972 6.10681 4.98437 5.41667 4.98437C4.91667 4.98437 4.44951 5.02361 4.01521 5.10208C3.5809 5.18069 3.13458 5.30917 2.67625 5.4875C2.61222 5.50889 2.56681 5.53965 2.54 5.57979C2.51333 5.61979 2.5 5.66382 2.5 5.71188V13.5933C2.5 13.6682 2.52674 13.723 2.58021 13.7577C2.63354 13.7924 2.69229 13.7964 2.75646 13.7696C3.15174 13.635 3.56889 13.5314 4.00792 13.4587C4.44708 13.3861 4.91667 13.3498 5.41667 13.3498ZM10.625 14.321C11.2682 13.9866 11.9162 13.7411 12.569 13.5846C13.2217 13.4281 13.8932 13.3498 14.5833 13.3498C15.0833 13.3498 15.5529 13.3861 15.9921 13.4587C16.4311 13.5314 16.8483 13.635 17.2435 13.7696C17.3077 13.7964 17.3665 13.7924 17.4198 13.7577C17.4733 13.723 17.5 13.6682 17.5 13.5933V5.71188C17.5 5.66382 17.4867 5.62111 17.46 5.58375C17.4332 5.54639 17.3878 5.51431 17.3238 5.4875C16.8654 5.30917 16.4191 5.18069 15.9848 5.10208C15.5505 5.02361 15.0833 4.98437 14.5833 4.98437C13.8932 4.98437 13.2073 5.07972 12.5256 5.27042C11.844 5.46111 11.2104 5.74715 10.625 6.12854V14.321ZM10 15.8048C9.83764 15.8048 9.68569 15.7845 9.54417 15.744C9.4025 15.7034 9.26868 15.6494 9.14271 15.5821C8.56896 15.2574 7.96875 15.0124 7.34208 14.8473C6.71556 14.6823 6.07375 14.5998 5.41667 14.5998C4.90819 14.5998 4.40875 14.6561 3.91833 14.7687C3.42792 14.8815 2.95514 15.0474 2.5 15.2665C2.20306 15.4031 1.92049 15.3815 1.65229 15.2015C1.3841 15.0215 1.25 14.7664 1.25 14.4363V5.38833C1.25 5.20875 1.29625 5.04021 1.38875 4.88271C1.48111 4.72507 1.61437 4.61153 1.78854 4.54208C2.35257 4.2675 2.94042 4.06424 3.55208 3.93229C4.16375 3.80035 4.78528 3.73438 5.41667 3.73438C6.2275 3.73438 7.01972 3.84521 7.79333 4.06688C8.56681 4.28868 9.30236 4.6159 10 5.04854C10.6976 4.6159 11.4332 4.28868 12.2067 4.06688C12.9803 3.84521 13.7725 3.73438 14.5833 3.73438C15.2147 3.73438 15.8363 3.80035 16.4479 3.93229C17.0596 4.06424 17.6474 4.2675 18.2115 4.54208C18.3856 4.61153 18.5189 4.72507 18.6113 4.88271C18.7038 5.04021 18.75 5.20875 18.75 5.38833V14.4363C18.75 14.7664 18.6106 15.0188 18.3317 15.1935C18.0528 15.3681 17.7595 15.3871 17.4519 15.2504C17.0022 15.0367 16.5361 14.8748 16.0538 14.7648C15.5714 14.6548 15.0813 14.5998 14.5833 14.5998C13.9263 14.5998 13.2844 14.6823 12.6579 14.8473C12.0313 15.0124 11.431 15.2574 10.8573 15.5821C10.7313 15.6494 10.5975 15.7034 10.4558 15.744C10.3143 15.7845 10.1624 15.8048 10 15.8048ZM11.6185 7.385C11.6185 7.29208 11.6517 7.19701 11.7179 7.09979C11.7842 7.00257 11.8595 6.93576 11.944 6.89938C12.3574 6.73382 12.7829 6.60833 13.2204 6.52292C13.6579 6.43736 14.1122 6.39458 14.5833 6.39458C14.8558 6.39458 15.1194 6.41062 15.3742 6.44271C15.629 6.47479 15.8857 6.51861 16.1442 6.57417C16.2425 6.59653 16.3274 6.64993 16.399 6.73437C16.4706 6.81882 16.5065 6.91708 16.5065 7.02917C16.5065 7.21722 16.4474 7.35479 16.3294 7.44188C16.2113 7.52896 16.0583 7.55007 15.8702 7.50521C15.6703 7.46354 15.4628 7.43361 15.2475 7.41542C15.0322 7.39722 14.8108 7.38812 14.5833 7.38812C14.1794 7.38812 13.7839 7.42688 13.3967 7.50438C13.0093 7.58188 12.6399 7.68688 12.2885 7.81938C12.0919 7.89521 11.931 7.8909 11.806 7.80646C11.681 7.72215 11.6185 7.58167 11.6185 7.385ZM11.6185 11.9363C11.6185 11.8433 11.6517 11.7469 11.7179 11.6471C11.7842 11.5472 11.8595 11.4791 11.944 11.4427C12.3467 11.2772 12.7722 11.153 13.2204 11.0702C13.6686 10.9874 14.1229 10.946 14.5833 10.946C14.8558 10.946 15.1194 10.962 15.3742 10.994C15.629 11.026 15.8857 11.0699 16.1442 11.1254C16.2425 11.1479 16.3274 11.2013 16.399 11.2856C16.4706 11.3701 16.5065 11.4684 16.5065 11.5806C16.5065 11.7685 16.4474 11.906 16.3294 11.9931C16.2113 12.0802 16.0583 12.1013 15.8702 12.0565C15.6703 12.0148 15.4628 11.9849 15.2475 11.9667C15.0322 11.9486 14.8108 11.9396 14.5833 11.9396C14.1849 11.9396 13.7933 11.9775 13.4085 12.0533C13.024 12.1292 12.6559 12.236 12.3044 12.3738C12.1078 12.455 11.9444 12.4529 11.8142 12.3675C11.6838 12.2819 11.6185 12.1382 11.6185 11.9363ZM11.6185 9.66875C11.6185 9.57583 11.6517 9.48076 11.7179 9.38354C11.7842 9.28632 11.8595 9.21951 11.944 9.18313C12.3574 9.01757 12.7829 8.89201 13.2204 8.80646C13.6579 8.72104 14.1122 8.67833 14.5833 8.67833C14.8558 8.67833 15.1194 8.69437 15.3742 8.72646C15.629 8.7584 15.8857 8.80215 16.1442 8.85771C16.2425 8.88021 16.3274 8.93368 16.399 9.01812C16.4706 9.10243 16.5065 9.20069 16.5065 9.31292C16.5065 9.50097 16.4474 9.63854 16.3294 9.72562C16.2113 9.81271 16.0583 9.83382 15.8702 9.78896C15.6703 9.74729 15.4628 9.71736 15.2475 9.69917C15.0322 9.68097 14.8108 9.67188 14.5833 9.67188C14.1794 9.67188 13.7839 9.71062 13.3967 9.78812C13.0093 9.86549 12.6399 9.97042 12.2885 10.1029C12.0919 10.1788 11.931 10.1745 11.806 10.0902C11.681 10.0058 11.6185 9.86528 11.6185 9.66875Z" fill="currentColor"/>
</svg>
