<svg width="16" height="16" viewBox="0 0 16 16" fill="none" xmlns="http://www.w3.org/2000/svg">
<path d="M3.00518 12.4667C2.70507 12.4667 2.45141 12.363 2.24418 12.1557C2.03696 11.9483 1.93335 11.6945 1.93335 11.3942V4.60049C1.93335 4.30016 2.03696 4.04721 2.24418 3.84166C2.45141 3.6361 2.70507 3.53333 3.00518 3.53333H12.9948C13.295 3.53333 13.5486 3.63699 13.7558 3.84432C13.9631 4.05166 14.0667 4.30549 14.0667 4.60582V11.3995C14.0667 11.6998 13.9631 11.9528 13.7558 12.1583C13.5486 12.3639 13.295 12.4667 12.9948 12.4667H3.00518ZM8.00002 8.42816C8.05024 8.42816 8.09979 8.41983 8.14868 8.40316C8.19757 8.38649 8.24502 8.36366 8.29102 8.33466L12.9423 5.59866C13.0183 5.55166 13.075 5.48555 13.1122 5.40033C13.1494 5.3151 13.1616 5.22483 13.1487 5.12949C13.1401 4.96027 13.0577 4.83655 12.9013 4.75833C12.7449 4.6801 12.5868 4.68499 12.427 4.77299L8.00002 7.38333L3.58968 4.78966C3.43413 4.70166 3.27541 4.69183 3.11352 4.76016C2.95152 4.8286 2.86413 4.94955 2.85135 5.12299C2.83846 5.21277 2.85341 5.30166 2.89618 5.38966C2.93896 5.47777 2.99835 5.54744 3.07435 5.59866L7.72568 8.33466C7.76657 8.36366 7.80863 8.38649 7.85185 8.40316C7.89507 8.41983 7.94446 8.42816 8.00002 8.42816Z" fill="currentColor"/>
</svg>
