<svg width="24" height="24" viewBox="0 0 24 24" fill="none" xmlns="http://www.w3.org/2000/svg">
<path d="M2.78857 18.1731V14.8078C2.78857 14.109 3.03057 13.5177 3.51457 13.0338C3.99857 12.5498 4.58991 12.3078 5.28857 12.3078H6.50007V5.94235C6.50007 5.52068 6.64782 5.16201 6.94332 4.86635C7.23882 4.57085 7.59749 4.4231 8.01932 4.4231H15.9808C16.4027 4.4231 16.7613 4.57085 17.0568 4.86635C17.3523 5.16201 17.5001 5.52068 17.5001 5.94235V12.3078H18.7116C19.4102 12.3078 20.0016 12.5498 20.4856 13.0338C20.9696 13.5177 21.2116 14.109 21.2116 14.8078V18.1731C21.2116 18.5949 21.0638 18.9536 20.7683 19.2491C20.4728 19.5446 20.1142 19.6923 19.6923 19.6923H4.30782C3.88599 19.6923 3.52732 19.5446 3.23182 19.2491C2.93632 18.9536 2.78857 18.5949 2.78857 18.1731ZM8.00007 12.3078H16.0001V5.9231H8.00007V12.3078ZM17.8078 16.6153C18.0912 16.6153 18.3287 16.5195 18.5203 16.3278C18.712 16.1362 18.8078 15.8987 18.8078 15.6153C18.8078 15.332 18.712 15.0945 18.5203 14.9028C18.3287 14.7112 18.0912 14.6153 17.8078 14.6153C17.5245 14.6153 17.287 14.7112 17.0953 14.9028C16.9037 15.0945 16.8078 15.332 16.8078 15.6153C16.8078 15.8987 16.9037 16.1362 17.0953 16.3278C17.287 16.5195 17.5245 16.6153 17.8078 16.6153Z" fill="currentColor"/>
</svg>
