<svg width="20" height="20" viewBox="0 0 20 20" fill="none" xmlns="http://www.w3.org/2000/svg">
<path d="M15.471 16.5625C13.9561 16.4375 12.4999 16.0376 11.1024 15.3629C9.70509 14.6882 8.43988 13.783 7.30682 12.6475C6.17391 11.5118 5.27703 10.25 4.6162 8.86204C3.95536 7.47427 3.5555 6.02295 3.41661 4.50808C3.38884 4.21406 3.47418 3.95864 3.67266 3.74183C3.87099 3.52503 4.11898 3.41663 4.41661 3.41663H6.59286C6.84495 3.41663 7.06182 3.49225 7.24349 3.6435C7.42516 3.79461 7.55175 3.99197 7.62328 4.23558L8.05932 5.97913C8.09238 6.16496 8.08196 6.34656 8.02807 6.52392C7.97405 6.70128 7.88613 6.84551 7.76432 6.95663L5.83974 8.83017C6.14946 9.41128 6.49293 9.95829 6.87016 10.4712C7.24724 10.984 7.6605 11.4636 8.10995 11.91C8.5537 12.3536 9.03307 12.7645 9.54807 13.1427C10.0631 13.5209 10.6192 13.8649 11.2164 14.1748L13.1906 12.2468C13.3071 12.125 13.4407 12.0438 13.5914 12.0031C13.742 11.9625 13.9102 11.9561 14.0962 11.9839L15.7643 12.351C16.0164 12.4204 16.2159 12.5486 16.3629 12.7356C16.5098 12.9225 16.5833 13.1448 16.5833 13.4023V15.5625C16.5833 15.8601 16.4714 16.1081 16.2477 16.3064C16.0239 16.5049 15.765 16.5902 15.471 16.5625ZM5.35245 7.77246L6.92307 6.266C6.94974 6.24461 6.9671 6.21524 6.97516 6.17788C6.98321 6.14051 6.98189 6.10579 6.9712 6.07371L6.60557 4.62808C6.59488 4.58545 6.5762 4.55343 6.54953 4.53204C6.52286 4.51065 6.48814 4.49996 6.44536 4.49996H4.64578C4.6137 4.49996 4.58696 4.51065 4.56557 4.53204C4.54432 4.55343 4.5337 4.58017 4.5337 4.61225C4.57634 5.14003 4.66953 5.66642 4.81328 6.19142C4.95689 6.71656 5.13662 7.24357 5.35245 7.77246ZM12.3108 14.6827C12.809 14.9018 13.3299 15.0683 13.8735 15.182C14.4172 15.2957 14.922 15.3792 15.3877 15.4327C15.4197 15.4327 15.4465 15.422 15.4679 15.4006C15.4893 15.3792 15.4999 15.3525 15.4999 15.3204V13.5256C15.4999 13.4828 15.4893 13.4481 15.4679 13.4214C15.4465 13.3948 15.4145 13.3761 15.3718 13.3654L14.0177 13.072C13.9856 13.0613 13.9575 13.06 13.9335 13.0681C13.9095 13.0761 13.884 13.0935 13.8572 13.1202L12.3108 14.6827Z" fill="currentColor"/>
</svg>
