<svg width="24" height="24" viewBox="0 0 24 24" fill="none" xmlns="http://www.w3.org/2000/svg">
<path d="M13.8621 12.8862C10.5608 12.2438 9.08295 9.04817 9.08295 6.1653C9.08295 6.01056 9.02147 5.86216 8.91205 5.75274C8.80263 5.64332 8.65423 5.58184 8.49949 5.58184C8.34474 5.58184 8.19634 5.64332 8.08692 5.75274C7.9775 5.86216 7.91603 6.01056 7.91603 6.1653C7.91603 9.04817 6.43813 12.2438 3.13692 12.8862C3.00439 12.9124 2.88506 12.9838 2.7993 13.0881C2.71354 13.1925 2.66666 13.3234 2.66666 13.4585C2.66666 13.5936 2.71354 13.7245 2.7993 13.8289C2.88506 13.9333 3.00439 14.0047 3.13692 14.0309C6.43813 14.6733 7.91603 17.8689 7.91603 20.7518C7.91603 20.9065 7.9775 21.0549 8.08692 21.1643C8.19634 21.2738 8.34474 21.3352 8.49949 21.3352C8.65423 21.3352 8.80263 21.2738 8.91205 21.1643C9.02147 21.0549 9.08295 20.9065 9.08295 20.7518C9.08295 17.8689 10.5608 14.6733 13.8621 14.0309C13.9946 14.0047 14.1139 13.9333 14.1997 13.8289C14.2854 13.7245 14.3323 13.5936 14.3323 13.4585C14.3323 13.3234 14.2854 13.1925 14.1997 13.0881C14.1139 12.9838 13.9946 12.9124 13.8621 12.8862ZM20.8688 8.21966C18.2432 7.6823 17.5431 4.84144 17.5431 3.24801C17.5431 3.09327 17.4816 2.94486 17.3722 2.83544C17.2628 2.72602 17.1144 2.66455 16.9596 2.66455C16.8049 2.66455 16.6565 2.72602 16.5471 2.83544C16.4376 2.94486 16.3762 3.09327 16.3762 3.24801C16.3762 4.84144 15.676 7.6823 13.0505 8.21966C12.9192 8.247 12.8013 8.31871 12.7167 8.42275C12.6321 8.52678 12.5859 8.65678 12.5859 8.79087C12.5859 8.92496 12.6321 9.05495 12.7167 9.15899C12.8013 9.26302 12.9192 9.33474 13.0505 9.36207C15.676 9.90002 16.3762 12.7403 16.3762 14.3337C16.3762 14.4885 16.4376 14.6369 16.5471 14.7463C16.6565 14.8557 16.8049 14.9172 16.9596 14.9172C17.1144 14.9172 17.2628 14.8557 17.3722 14.7463C17.4816 14.6369 17.5431 14.4885 17.5431 14.3337C17.5431 12.7403 18.2432 9.89944 20.8688 9.36207C21.0001 9.33474 21.1179 9.26302 21.2025 9.15899C21.2871 9.05495 21.3333 8.92496 21.3333 8.79087C21.3333 8.65678 21.2871 8.52678 21.2025 8.42275C21.1179 8.31871 21.0001 8.247 20.8688 8.21966Z" fill="#171719"/>
</svg>
