<svg width="24" height="24" viewBox="0 0 24 24" fill="none" xmlns="http://www.w3.org/2000/svg">
<path d="M11.995 15.002C11.8879 15.002 11.7882 14.9828 11.696 14.9443C11.6039 14.9058 11.5193 14.8481 11.4423 14.7713L6.80653 10.1353C6.66253 9.99127 6.59303 9.83527 6.59803 9.66727C6.6032 9.49944 6.6782 9.34302 6.82303 9.19802C6.96803 9.05319 7.12286 8.98077 7.28753 8.98077C7.4522 8.98077 7.60703 9.05319 7.75203 9.19802L12 13.4713L16.273 9.19802C16.4115 9.05969 16.5648 8.99302 16.7328 8.99802C16.9006 9.00319 17.057 9.07819 17.202 9.22302C17.3469 9.36802 17.4193 9.52286 17.4193 9.68752C17.4193 9.85219 17.344 10.0094 17.1935 10.159L12.5578 14.7713C12.4741 14.8481 12.3862 14.9058 12.294 14.9443C12.2019 14.9828 12.1022 15.002 11.995 15.002Z" fill="currentColor"/>
</svg>
