<svg width="16" height="16" viewBox="0 0 16 16" fill="none" xmlns="http://www.w3.org/2000/svg">
<path d="M4.20517 14.3335C3.87272 14.3335 3.58872 14.2158 3.35317 13.9803C3.11772 13.7448 3 13.4608 3 13.1283V6.872C3 6.53955 3.11772 6.25555 3.35317 6.02C3.58872 5.78455 3.87272 5.66683 4.20517 5.66683H10V4.3335C10 3.77794 9.80556 3.30572 9.41667 2.91683C9.02778 2.52794 8.55556 2.3335 8 2.3335C7.51622 2.3335 7.094 2.48583 6.73333 2.7905C6.37267 3.09527 6.14406 3.47372 6.0475 3.92583C6.01583 4.04716 5.94872 4.14544 5.84617 4.22066C5.74361 4.29588 5.62822 4.3335 5.5 4.3335C5.35811 4.3335 5.23933 4.28627 5.14367 4.19183C5.04789 4.09739 5.01239 3.98605 5.03717 3.85783C5.15428 3.1425 5.49061 2.54294 6.04617 2.05916C6.60172 1.57538 7.253 1.3335 8 1.3335C8.83244 1.3335 9.54056 1.62538 10.1243 2.20916C10.7081 2.79294 11 3.50105 11 4.3335V5.66683H11.7948C12.1273 5.66683 12.4113 5.78455 12.6468 6.02C12.8823 6.25555 13 6.53955 13 6.872V13.1283C13 13.4608 12.8823 13.7448 12.6468 13.9803C12.4113 14.2158 12.1273 14.3335 11.7948 14.3335H4.20517ZM4.20517 13.3335H11.7948C11.8547 13.3335 11.9039 13.3143 11.9423 13.2758C11.9808 13.2374 12 13.1882 12 13.1283V6.872C12 6.81211 11.9808 6.76294 11.9423 6.7245C11.9039 6.68605 11.8547 6.66683 11.7948 6.66683H4.20517C4.14528 6.66683 4.09611 6.68605 4.05767 6.7245C4.01922 6.76294 4 6.81211 4 6.872V13.1283C4 13.1882 4.01922 13.2374 4.05767 13.2758C4.09611 13.3143 4.14528 13.3335 4.20517 13.3335ZM8 11.1668C8.32389 11.1668 8.59933 11.0534 8.82633 10.8265C9.05322 10.5995 9.16667 10.3241 9.16667 10.0002C9.16667 9.67627 9.05322 9.40083 8.82633 9.17383C8.59933 8.94694 8.32389 8.8335 8 8.8335C7.67611 8.8335 7.40067 8.94694 7.17367 9.17383C6.94678 9.40083 6.83333 9.67627 6.83333 10.0002C6.83333 10.3241 6.94678 10.5995 7.17367 10.8265C7.40067 11.0534 7.67611 11.1668 8 11.1668Z" fill="currentColor"/>
</svg>
