<svg width="16" height="16" viewBox="0 0 16 16" fill="none" xmlns="http://www.w3.org/2000/svg">
<path d="M8.5 11.4566C9.01456 11.1891 9.53294 10.9927 10.0552 10.8675C10.5774 10.7422 11.1146 10.6796 11.6667 10.6796C12.0667 10.6796 12.4423 10.7087 12.7937 10.7668C13.1449 10.8249 13.4786 10.9078 13.7948 11.0155C13.8462 11.0369 13.8932 11.0337 13.9358 11.006C13.9786 10.9782 14 10.9344 14 10.8745V4.56931C14 4.53086 13.9893 4.49669 13.968 4.4668C13.9466 4.43692 13.9102 4.41125 13.859 4.38981C13.4923 4.24714 13.1353 4.14436 12.7878 4.08147C12.4404 4.01869 12.0667 3.9873 11.6667 3.9873C11.1146 3.9873 10.5658 4.06358 10.0205 4.21614C9.47517 4.36869 8.96833 4.59753 8.5 4.90264V11.4566ZM8 12.6436C7.87011 12.6436 7.74856 12.6274 7.63533 12.595C7.522 12.5625 7.41494 12.5194 7.31417 12.4655C6.85517 12.2057 6.375 12.0097 5.87367 11.8776C5.37244 11.7456 4.859 11.6796 4.33333 11.6796C3.92656 11.6796 3.527 11.7247 3.13467 11.8148C2.74233 11.905 2.36411 12.0377 2 12.213C1.76244 12.3223 1.53639 12.305 1.32183 12.161C1.10728 12.017 1 11.8129 1 11.5488V4.31047C1 4.1668 1.037 4.03197 1.111 3.90597C1.18489 3.77986 1.2915 3.68903 1.43083 3.63347C1.88894 3.42069 2.36094 3.2598 2.84683 3.1508C3.33272 3.0418 3.82822 2.9873 4.33333 2.9873C4.982 2.9873 5.61578 3.07597 6.23467 3.25331C6.85344 3.43075 7.44189 3.69253 8 4.03864C8.55811 3.69253 9.14656 3.43075 9.76533 3.25331C10.3842 3.07597 11.018 2.9873 11.6667 2.9873C12.1718 2.9873 12.6673 3.0418 13.1532 3.1508C13.6391 3.2598 14.1111 3.42069 14.5692 3.63347C14.7085 3.68903 14.8151 3.77986 14.889 3.90597C14.963 4.03197 15 4.1668 15 4.31047V11.5488C15 11.8129 14.8884 12.0149 14.6653 12.1546C14.4422 12.2943 14.2076 12.3095 13.9615 12.2001C13.6017 12.0291 13.2289 11.8996 12.843 11.8116C12.4571 11.7236 12.065 11.6796 11.6667 11.6796C11.141 11.6796 10.6276 11.7456 10.1263 11.8776C9.625 12.0097 9.14483 12.2057 8.68583 12.4655C8.58506 12.5194 8.478 12.5625 8.36467 12.595C8.25144 12.6274 8.12989 12.6436 8 12.6436ZM9.29483 5.90781C9.29483 5.83347 9.32133 5.75742 9.37433 5.67964C9.42733 5.60186 9.48761 5.54842 9.55517 5.51931C9.88594 5.38686 10.2263 5.28647 10.5763 5.21814C10.9263 5.14969 11.2898 5.11547 11.6667 5.11547C11.8847 5.11547 12.0956 5.1283 12.2993 5.15397C12.5032 5.17964 12.7086 5.21469 12.9153 5.25914C12.994 5.27703 13.0619 5.31975 13.1192 5.3873C13.1765 5.45486 13.2052 5.53347 13.2052 5.62314C13.2052 5.77358 13.1579 5.88364 13.0635 5.9533C12.9691 6.02297 12.8466 6.03986 12.6962 6.00397C12.5363 5.97064 12.3702 5.94669 12.198 5.93214C12.0258 5.91758 11.8487 5.9103 11.6667 5.9103C11.3436 5.9103 11.0271 5.9413 10.7173 6.0033C10.4074 6.0653 10.1119 6.1493 9.83083 6.2553C9.6735 6.31597 9.54483 6.31253 9.44483 6.24497C9.34483 6.17753 9.29483 6.06514 9.29483 5.90781ZM9.29483 9.5488C9.29483 9.47447 9.32133 9.39736 9.37433 9.31747C9.42733 9.23758 9.48761 9.18308 9.55517 9.15397C9.87739 9.02153 10.2178 8.92219 10.5763 8.85597C10.9349 8.78975 11.2983 8.75664 11.6667 8.75664C11.8847 8.75664 12.0956 8.76942 12.2993 8.79497C12.5032 8.82064 12.7086 8.85569 12.9153 8.90014C12.994 8.91814 13.0619 8.96086 13.1192 9.0283C13.1765 9.09586 13.2052 9.17453 13.2052 9.2643C13.2052 9.41464 13.1579 9.52464 13.0635 9.5943C12.9691 9.66397 12.8466 9.68086 12.6962 9.64497C12.5363 9.61164 12.3702 9.58769 12.198 9.57314C12.0258 9.55869 11.8487 9.55147 11.6667 9.55147C11.3479 9.55147 11.0346 9.5818 10.7268 9.64247C10.4192 9.70314 10.1247 9.78858 9.8435 9.8988C9.68628 9.9638 9.55556 9.96214 9.45133 9.8938C9.347 9.82536 9.29483 9.71036 9.29483 9.5488ZM9.29483 7.7348C9.29483 7.66047 9.32133 7.58442 9.37433 7.50664C9.42733 7.42886 9.48761 7.37542 9.55517 7.34631C9.88594 7.21386 10.2263 7.11342 10.5763 7.04497C10.9263 6.97664 11.2898 6.94247 11.6667 6.94247C11.8847 6.94247 12.0956 6.9553 12.2993 6.98097C12.5032 7.00653 12.7086 7.04153 12.9153 7.08597C12.994 7.10397 13.0619 7.14675 13.1192 7.2143C13.1765 7.28175 13.2052 7.36036 13.2052 7.45014C13.2052 7.60058 13.1579 7.71064 13.0635 7.7803C12.9691 7.84997 12.8466 7.86686 12.6962 7.83097C12.5363 7.79764 12.3702 7.77369 12.198 7.75914C12.0258 7.74458 11.8487 7.7373 11.6667 7.7373C11.3436 7.7373 11.0271 7.7683 10.7173 7.8303C10.4074 7.89219 10.1119 7.97614 9.83083 8.08214C9.6735 8.1428 9.54483 8.13942 9.44483 8.07197C9.34483 8.00442 9.29483 7.89203 9.29483 7.7348Z" fill="currentColor"/>
</svg>
