<svg width="16" height="16" viewBox="0 0 16 16" fill="none" xmlns="http://www.w3.org/2000/svg">
<path d="M10.6667 5.92308C10.7454 5.92308 10.8142 5.89364 10.873 5.83475C10.932 5.77575 10.9615 5.70691 10.9615 5.62825V3.69241C10.9615 3.61375 10.932 3.54492 10.873 3.48592C10.8142 3.42703 10.7454 3.39758 10.6667 3.39758C10.588 3.39758 10.5193 3.42703 10.4604 3.48592C10.4014 3.54492 10.3719 3.61375 10.3719 3.69241V5.62825C10.3719 5.70691 10.4014 5.77575 10.4604 5.83475C10.5193 5.89364 10.588 5.92308 10.6667 5.92308ZM10.6667 7.29492C10.7556 7.29492 10.8334 7.26158 10.9 7.19491C10.9667 7.12825 11 7.05047 11 6.96158C11 6.87269 10.9667 6.79492 10.9 6.72825C10.8334 6.66158 10.7556 6.62825 10.6667 6.62825C10.5778 6.62825 10.5 6.66158 10.4334 6.72825C10.3667 6.79492 10.3334 6.87269 10.3334 6.96158C10.3334 7.05047 10.3667 7.12825 10.4334 7.19491C10.5 7.26158 10.5778 7.29492 10.6667 7.29492ZM2.83337 13.1667C2.69171 13.1667 2.57299 13.1188 2.47721 13.0229C2.38132 12.927 2.33337 12.8082 2.33337 12.6666C2.33337 12.5248 2.38132 12.4061 2.47721 12.3104C2.57299 12.2146 2.69171 12.1667 2.83337 12.1667H9.50004C9.64171 12.1667 9.76049 12.2147 9.85637 12.3106C9.95215 12.4065 10 12.5252 10 12.6669C10 12.8087 9.95215 12.9274 9.85637 13.0231C9.76049 13.1189 9.64171 13.1667 9.50004 13.1667H2.83337ZM10.6677 8.50008C9.79182 8.50008 9.04493 8.19142 8.42704 7.57408C7.80904 6.95675 7.50004 6.21019 7.50004 5.33441C7.50004 4.45853 7.80871 3.71164 8.42604 3.09375C9.04337 2.47575 9.78993 2.16675 10.6657 2.16675C11.5416 2.16675 12.2885 2.47541 12.9064 3.09275C13.5244 3.71008 13.8334 4.45664 13.8334 5.33241C13.8334 6.2083 13.5247 6.95519 12.9074 7.57308C12.29 8.19108 11.5435 8.50008 10.6677 8.50008ZM2.83337 7.83342C2.69171 7.83342 2.57299 7.78547 2.47721 7.68958C2.38132 7.59369 2.33337 7.47492 2.33337 7.33325C2.33337 7.19147 2.38132 7.07275 2.47721 6.97708C2.57299 6.8813 2.69171 6.83342 2.83337 6.83342H5.91154C6.05321 6.83342 6.17199 6.88108 6.26787 6.97642C6.36365 7.07175 6.41154 7.18986 6.41154 7.33075C6.41154 7.4633 6.36365 7.58019 6.26787 7.68142C6.17199 7.78275 6.05321 7.83342 5.91154 7.83342H2.83337ZM2.83337 10.5001C2.69171 10.5001 2.57299 10.4521 2.47721 10.3562C2.38132 10.2604 2.33337 10.1416 2.33337 9.99992C2.33337 9.85814 2.38132 9.73942 2.47721 9.64375C2.57299 9.54797 2.69171 9.50008 2.83337 9.50008H8.33471C8.47637 9.50008 8.5951 9.54775 8.69087 9.64308C8.78676 9.73841 8.83471 9.85653 8.83471 9.99742C8.83471 10.13 8.7896 10.2469 8.69937 10.3481C8.60926 10.4494 8.48771 10.5001 8.33471 10.5001H2.83337Z" fill="currentColor"/>
</svg>
