<svg width="24" height="24" viewBox="0 0 24 24" fill="none" xmlns="http://www.w3.org/2000/svg">
<path d="M9.29905 17.75H14.693C14.8772 17.75 15.0327 17.6883 15.1595 17.5648C15.2865 17.4414 15.35 17.2883 15.35 17.1053C15.35 16.9223 15.288 16.7674 15.1638 16.6405C15.0395 16.5135 14.8852 16.45 14.701 16.45H9.30705C9.12288 16.45 8.96738 16.5118 8.84055 16.6353C8.71355 16.7586 8.65005 16.9118 8.65005 17.0948C8.65005 17.2778 8.71213 17.4327 8.8363 17.5595C8.96063 17.6865 9.11488 17.75 9.29905 17.75ZM9.29905 14.15H14.693C14.8772 14.15 15.0327 14.0883 15.1595 13.9648C15.2865 13.8414 15.35 13.6883 15.35 13.5053C15.35 13.3223 15.288 13.1674 15.1638 13.0405C15.0395 12.9135 14.8852 12.85 14.701 12.85H9.30705C9.12288 12.85 8.96738 12.9118 8.84055 13.0353C8.71355 13.1586 8.65005 13.3118 8.65005 13.4948C8.65005 13.6778 8.71213 13.8327 8.8363 13.9595C8.96063 14.0865 9.11488 14.15 9.29905 14.15ZM6.9008 21.1C6.4503 21.1 6.07088 20.9446 5.76255 20.6338C5.45422 20.3229 5.30005 19.9424 5.30005 19.4923V4.50777C5.30005 4.05761 5.45547 3.67711 5.7663 3.36628C6.07713 3.05544 6.45763 2.90002 6.9078 2.90002H13.977C14.1884 2.90002 14.3919 2.93852 14.5875 3.01552C14.783 3.09236 14.9629 3.21286 15.127 3.37702L18.223 6.47302C18.3872 6.63719 18.5077 6.81702 18.5845 7.01252C18.6615 7.20819 18.7 7.41169 18.7 7.62302V19.4923C18.7 19.9424 18.5445 20.3229 18.2336 20.6338C17.9225 20.9446 17.5418 21.1 17.0913 21.1H6.9008ZM13.7 7.09602V4.20002H6.9078C6.8308 4.20002 6.7603 4.23211 6.6963 4.29627C6.63213 4.36027 6.60005 4.43077 6.60005 4.50777V19.4923C6.60005 19.5693 6.63213 19.6398 6.6963 19.7038C6.7603 19.7679 6.8308 19.8 6.9078 19.8H17.0923C17.1693 19.8 17.2398 19.7679 17.3038 19.7038C17.368 19.6398 17.4 19.5693 17.4 19.4923V7.90002H14.504C14.2745 7.90002 14.0832 7.82336 13.93 7.67002C13.7767 7.51686 13.7 7.32553 13.7 7.09602Z" fill="currentColor"/>
</svg>
