<svg width="20" height="20" viewBox="0 0 20 20" fill="none" xmlns="http://www.w3.org/2000/svg">
<path d="M10.0001 10.8862L7.43323 13.46C7.31156 13.5807 7.16406 13.6397 6.99073 13.6371C6.81726 13.6343 6.66976 13.5725 6.54823 13.4518C6.42753 13.3312 6.36719 13.1834 6.36719 13.0087C6.36719 12.8341 6.42753 12.6864 6.54823 12.5656L9.11385 10.0006L6.54823 7.45393C6.42753 7.33226 6.36719 7.18344 6.36719 7.00747C6.36719 6.83136 6.42753 6.68247 6.54823 6.5608C6.66892 6.44011 6.81663 6.37976 6.99135 6.37976C7.16594 6.37976 7.31365 6.44011 7.43448 6.5608L10.0001 9.13455L12.5461 6.5608C12.6678 6.44011 12.8153 6.37976 12.9886 6.37976C13.1621 6.37976 13.3096 6.44011 13.4311 6.5608C13.5605 6.69011 13.6251 6.83997 13.6251 7.01039C13.6251 7.1808 13.5605 7.32636 13.4311 7.44705L10.8655 9.99997L13.4393 12.5668C13.56 12.6885 13.6203 12.836 13.6203 13.0093C13.6203 13.1828 13.56 13.3303 13.4393 13.4518C13.31 13.5812 13.1601 13.6458 12.9897 13.6458C12.8193 13.6458 12.6737 13.5812 12.553 13.4518L10.0001 10.8862Z" fill="currentColor"/>
</svg>
