<svg width="20" height="20" viewBox="0 0 20 20" fill="none" xmlns="http://www.w3.org/2000/svg">
<path d="M8.74999 12.1203L3.38457 17.4857C3.26916 17.601 3.12548 17.6573 2.95353 17.6547C2.78159 17.652 2.63791 17.593 2.52249 17.4776C2.40707 17.3622 2.34937 17.2167 2.34937 17.0411C2.34937 16.8656 2.40707 16.721 2.52249 16.6074L7.87978 11.2501H4.37499C4.19791 11.2501 4.0495 11.1902 3.92978 11.0703C3.80992 10.9504 3.74999 10.802 3.74999 10.6249C3.74999 10.4477 3.80992 10.2993 3.92978 10.1797C4.0495 10.06 4.19791 10.0001 4.37499 10.0001H9.24687C9.4602 10.0001 9.63909 10.0722 9.78353 10.2166C9.92784 10.361 9.99999 10.5399 9.99999 10.7532V15.6251C9.99999 15.8022 9.94006 15.9506 9.8202 16.0703C9.70034 16.1902 9.55187 16.2501 9.37478 16.2501C9.19756 16.2501 9.04916 16.1902 8.92957 16.0703C8.80985 15.9506 8.74999 15.8022 8.74999 15.6251V12.1203ZM12.1202 8.75009H15.625C15.8021 8.75009 15.9505 8.81002 16.0702 8.92989C16.1901 9.04975 16.25 9.19822 16.25 9.3753C16.25 9.55253 16.1901 9.70093 16.0702 9.82051C15.9505 9.94023 15.8021 10.0001 15.625 10.0001H10.7531C10.5398 10.0001 10.3609 9.92794 10.2164 9.78364C10.0721 9.63919 9.99999 9.4603 9.99999 9.24697V4.37509C9.99999 4.19801 10.0599 4.04961 10.1798 3.92989C10.2996 3.81002 10.4481 3.75009 10.6252 3.75009C10.8024 3.75009 10.9508 3.81002 11.0704 3.92989C11.1901 4.04961 11.25 4.19801 11.25 4.37509V7.87989L16.6154 2.51447C16.729 2.39919 16.8736 2.34155 17.0492 2.34155C17.2247 2.34155 17.3702 2.39919 17.4856 2.51447C17.6009 2.62989 17.6585 2.77537 17.6585 2.95093C17.6585 3.12648 17.6009 3.27107 17.4856 3.38468L12.1202 8.75009Z" fill="currentColor"/>
</svg>
