<svg width="20" height="20" viewBox="0 0 20 20" fill="none" xmlns="http://www.w3.org/2000/svg">
<path d="M3.75 15.8335V8.46159C3.75 8.22312 3.80333 7.99722 3.91 7.78388C4.01681 7.57041 4.16431 7.39465 4.3525 7.25659L9.09625 3.68284C9.35944 3.48201 9.66028 3.38159 9.99875 3.38159C10.3372 3.38159 10.6389 3.48201 10.9038 3.68284L15.6475 7.25659C15.8357 7.39465 15.9832 7.57041 16.09 7.78388C16.1967 7.99722 16.25 8.22312 16.25 8.46159V15.8335C16.25 16.1743 16.1269 16.4678 15.8806 16.7141C15.6344 16.9603 15.3408 17.0835 15 17.0835H12.3398C12.1263 17.0835 11.9474 17.0112 11.8031 16.8668C11.6587 16.7225 11.5865 16.5436 11.5865 16.3301V12.2597C11.5865 12.0464 11.5143 11.8675 11.37 11.7231C11.2257 11.5787 11.0468 11.5066 10.8333 11.5066H9.16667C8.95319 11.5066 8.77431 11.5787 8.63 11.7231C8.48569 11.8675 8.41354 12.0464 8.41354 12.2597V16.3301C8.41354 16.5436 8.34132 16.7225 8.19688 16.8668C8.05257 17.0112 7.87368 17.0835 7.66021 17.0835H5C4.65917 17.0835 4.36562 16.9603 4.11937 16.7141C3.87312 16.4678 3.75 16.1743 3.75 15.8335Z" fill="currentColor"/>
</svg>
