<svg width="24" height="24" viewBox="0 0 24 24" fill="none" xmlns="http://www.w3.org/2000/svg">
<path d="M5.39998 18.6H6.51148L16.348 8.76347L15.2365 7.65198L5.39998 17.4885V18.6ZM4.90848 19.9C4.68264 19.9 4.49148 19.8234 4.33498 19.6702C4.17831 19.5171 4.09998 19.3272 4.09998 19.1007V17.6217C4.09998 17.4057 4.13848 17.1997 4.21548 17.0037C4.29231 16.8077 4.41281 16.6276 4.57698 16.4635L16.5405 4.48073C16.675 4.34339 16.8197 4.24564 16.9747 4.18748C17.1297 4.12914 17.2921 4.09998 17.462 4.09998C17.632 4.09998 17.7942 4.12723 17.9487 4.18173C18.1034 4.23623 18.2531 4.33272 18.398 4.47122L19.5192 5.58273C19.6577 5.72756 19.7558 5.87756 19.8135 6.03273C19.8711 6.18789 19.9 6.34764 19.9 6.51198C19.9 6.68714 19.8696 6.85431 19.809 7.01348C19.7481 7.17264 19.6516 7.31814 19.5192 7.44998L7.53648 19.423C7.37231 19.5871 7.19264 19.7076 6.99748 19.7845C6.80231 19.8615 6.59706 19.9 6.38173 19.9H4.90848ZM15.7825 8.21748L15.2365 7.65198L16.348 8.76347L15.7825 8.21748Z" fill="currentColor"/>
</svg>
