<svg width="24" height="24" viewBox="0 0 24 24" fill="none" xmlns="http://www.w3.org/2000/svg">
<path d="M5.70773 19.9C5.25756 19.9 4.87706 19.7446 4.56623 19.4337C4.25539 19.1229 4.09998 18.7424 4.09998 18.2922V5.70773C4.09998 5.25756 4.25539 4.87706 4.56623 4.56623C4.87706 4.25539 5.25756 4.09998 5.70773 4.09998H18.2922C18.7424 4.09998 19.1229 4.25539 19.4337 4.56623C19.7446 4.87706 19.9 5.25756 19.9 5.70773V6.39998H12.9077C12.1001 6.39998 11.4136 6.68273 10.8482 7.24823C10.2827 7.81356 9.99998 8.50006 9.99998 9.30773V14.6922C9.99998 15.4999 10.2827 16.1864 10.8482 16.7517C11.4136 17.3172 12.1001 17.6 12.9077 17.6H19.9V18.2922C19.9 18.7474 19.7446 19.1291 19.4337 19.4375C19.1229 19.7458 18.7424 19.9 18.2922 19.9H5.70773ZM12.9077 16.3C12.4576 16.3 12.0771 16.1446 11.7662 15.8337C11.4554 15.5229 11.3 15.1424 11.3 14.6922V9.30773C11.3 8.85756 11.4554 8.47706 11.7662 8.16623C12.0771 7.85539 12.4576 7.69998 12.9077 7.69998H19.4922C19.9424 7.69998 20.3229 7.85539 20.6337 8.16623C20.9446 8.47706 21.1 8.85756 21.1 9.30773V14.6922C21.1 15.1424 20.9446 15.5229 20.6337 15.8337C20.3229 16.1446 19.9424 16.3 19.4922 16.3H12.9077ZM16.2 13.5C16.6166 13.5 16.9708 13.3541 17.2625 13.0625C17.5541 12.7708 17.7 12.4166 17.7 12C17.7 11.5833 17.5541 11.2291 17.2625 10.9375C16.9708 10.6458 16.6166 10.5 16.2 10.5C15.7833 10.5 15.4291 10.6458 15.1375 10.9375C14.8458 11.2291 14.7 11.5833 14.7 12C14.7 12.4166 14.8458 12.7708 15.1375 13.0625C15.4291 13.3541 15.7833 13.5 16.2 13.5Z" fill="currentColor"/>
</svg>
