<svg width="15" height="15" viewBox="0 0 15 15" fill="none" xmlns="http://www.w3.org/2000/svg">
<path d="M3.56734 13.1875C3.28599 13.1875 3.04818 13.0886 2.85391 12.8906C2.65964 12.6927 2.5625 12.4567 2.5625 12.1827V4.31735C2.5625 4.04329 2.65964 3.8073 2.85391 3.60938C3.04818 3.41147 3.28599 3.31251 3.56734 3.31251H4.93266V2.1586C4.93266 2.03933 4.97224 1.9398 5.05141 1.86001C5.13057 1.78032 5.22932 1.74048 5.34766 1.74048C5.46609 1.74048 5.56594 1.78032 5.64719 1.86001C5.72854 1.9398 5.76922 2.03933 5.76922 2.1586V3.31251H9.25484V2.14673C9.25484 2.03142 9.29339 1.93485 9.37047 1.85704C9.44766 1.77933 9.54344 1.74048 9.65781 1.74048C9.77219 1.74048 9.86901 1.77933 9.94828 1.85704C10.0277 1.93485 10.0673 2.03142 10.0673 2.14673V3.31251H11.4327C11.714 3.31251 11.9518 3.41147 12.1461 3.60938C12.3404 3.8073 12.4375 4.04329 12.4375 4.31735V12.1827C12.4375 12.4567 12.3404 12.6927 12.1461 12.8906C11.9518 13.0886 11.714 13.1875 11.4327 13.1875H3.56734ZM3.56734 12.375H11.4327C11.4808 12.375 11.5248 12.355 11.5648 12.3149C11.6049 12.2749 11.625 12.2308 11.625 12.1827V6.94235H3.375V12.1827C3.375 12.2308 3.39505 12.2749 3.43516 12.3149C3.47516 12.355 3.51922 12.375 3.56734 12.375ZM3.375 6.12985H11.625V4.31735C11.625 4.26923 11.6049 4.22517 11.5648 4.18517C11.5248 4.14506 11.4808 4.12501 11.4327 4.12501H3.56734C3.51922 4.12501 3.47516 4.14506 3.43516 4.18517C3.39505 4.22517 3.375 4.26923 3.375 4.31735V6.12985Z" fill="currentColor"/>
</svg>
