<svg width="16" height="16" viewBox="0 0 16 16" fill="none" xmlns="http://www.w3.org/2000/svg">
<path d="M5.66921 8L6.75137 6.918C6.85048 6.81878 6.89937 6.70272 6.89804 6.56983C6.89682 6.43694 6.84793 6.31878 6.75137 6.21533C6.64793 6.112 6.5291 6.05861 6.39487 6.05517C6.26076 6.05172 6.14198 6.10172 6.03854 6.20517L4.66537 7.57817C4.54493 7.69872 4.48471 7.83933 4.48471 8C4.48471 8.16067 4.54493 8.30128 4.66537 8.42183L6.03854 9.79483C6.13765 9.89394 6.25537 9.94289 6.39171 9.94167C6.52804 9.94033 6.64793 9.888 6.75137 9.78467C6.84793 9.68122 6.89793 9.56411 6.90137 9.43333C6.90471 9.30256 6.85471 9.18544 6.75137 9.082L5.66921 8ZM10.3309 8L9.24871 9.082C9.1496 9.18122 9.10071 9.29728 9.10204 9.43017C9.10326 9.56306 9.15215 9.68122 9.24871 9.78467C9.35215 9.888 9.47098 9.94139 9.60521 9.94483C9.73932 9.94828 9.8581 9.89828 9.96154 9.79483L11.3347 8.42183C11.4552 8.30128 11.5154 8.16067 11.5154 8C11.5154 7.83933 11.4552 7.69872 11.3347 7.57817L9.96154 6.20517C9.86243 6.10606 9.74471 6.05711 9.60837 6.05833C9.47204 6.05967 9.35215 6.112 9.24871 6.21533C9.15215 6.31878 9.10215 6.43589 9.09871 6.56667C9.09537 6.69744 9.14537 6.81456 9.24871 6.918L10.3309 8ZM3.53854 13.6667C3.2061 13.6667 2.9221 13.5489 2.68654 13.3135C2.4511 13.0779 2.33337 12.7939 2.33337 12.4615V3.5385C2.33337 3.20606 2.4511 2.92206 2.68654 2.6865C2.9221 2.45106 3.2061 2.33333 3.53854 2.33333H6.50521C6.5471 1.96322 6.70865 1.6485 6.98987 1.38917C7.27099 1.12972 7.60771 1 8.00004 1C8.3966 1 8.73548 1.12972 9.01671 1.38917C9.29793 1.6485 9.45732 1.96322 9.49487 2.33333H12.4615C12.794 2.33333 13.078 2.45106 13.3135 2.6865C13.549 2.92206 13.6667 3.20606 13.6667 3.5385V12.4615C13.6667 12.7939 13.549 13.0779 13.3135 13.3135C13.078 13.5489 12.794 13.6667 12.4615 13.6667H3.53854ZM3.53854 12.6667H12.4615C12.5129 12.6667 12.5599 12.6453 12.6025 12.6025C12.6453 12.5598 12.6667 12.5128 12.6667 12.4615V3.5385C12.6667 3.48717 12.6453 3.44017 12.6025 3.3975C12.5599 3.35472 12.5129 3.33333 12.4615 3.33333H3.53854C3.48721 3.33333 3.44021 3.35472 3.39754 3.3975C3.35476 3.44017 3.33337 3.48717 3.33337 3.5385V12.4615C3.33337 12.5128 3.35476 12.5598 3.39754 12.6025C3.44021 12.6453 3.48721 12.6667 3.53854 12.6667ZM8.00004 2.8975C8.14448 2.8975 8.26393 2.85028 8.35837 2.75583C8.45282 2.66139 8.50004 2.54194 8.50004 2.3975C8.50004 2.25306 8.45282 2.13361 8.35837 2.03917C8.26393 1.94472 8.14448 1.8975 8.00004 1.8975C7.8556 1.8975 7.73615 1.94472 7.64171 2.03917C7.54726 2.13361 7.50004 2.25306 7.50004 2.3975C7.50004 2.54194 7.54726 2.66139 7.64171 2.75583C7.73615 2.85028 7.8556 2.8975 8.00004 2.8975Z" fill="currentColor"/>
</svg>
