<svg width="20" height="20" viewBox="0 0 20 20" fill="none" xmlns="http://www.w3.org/2000/svg">
<path d="M5.68797 11.0834C5.3888 11.0834 5.13422 10.9768 4.92422 10.7638C4.71408 10.5507 4.60901 10.2947 4.60901 9.99565C4.60901 9.69648 4.71554 9.4419 4.92859 9.2319C5.14165 9.02176 5.39769 8.91669 5.69672 8.91669C5.99588 8.91669 6.25054 9.02322 6.46068 9.23627C6.67068 9.44933 6.77568 9.70537 6.77568 10.0044C6.77568 10.3036 6.66915 10.5581 6.45609 10.7681C6.24318 10.9783 5.98713 11.0834 5.68797 11.0834ZM9.99568 11.0834C9.69651 11.0834 9.44193 10.9768 9.23193 10.7638C9.02179 10.5507 8.91672 10.2947 8.91672 9.99565C8.91672 9.69648 9.02324 9.4419 9.2363 9.2319C9.44936 9.02176 9.7054 8.91669 10.0044 8.91669C10.3036 8.91669 10.5582 9.02322 10.7682 9.23627C10.9783 9.44933 11.0834 9.70537 11.0834 10.0044C11.0834 10.3036 10.9769 10.5581 10.7638 10.7681C10.5507 10.9783 10.2947 11.0834 9.99568 11.0834ZM14.3034 11.0834C14.0042 11.0834 13.7496 10.9768 13.5394 10.7638C13.3294 10.5507 13.2244 10.2947 13.2244 9.99565C13.2244 9.69648 13.331 9.4419 13.544 9.2319C13.7569 9.02176 14.013 8.91669 14.3121 8.91669C14.6113 8.91669 14.8659 9.02322 15.0759 9.23627C15.286 9.44933 15.3911 9.70537 15.3911 10.0044C15.3911 10.3036 15.2846 10.5581 15.0715 10.7681C14.8585 10.9783 14.6024 11.0834 14.3034 11.0834Z" fill="currentColor"/>
</svg>
