<svg width="20" height="20" viewBox="0 0 20 20" fill="none" xmlns="http://www.w3.org/2000/svg">
<path d="M3.75642 15.5833C3.391 15.5833 3.07635 15.4513 2.81246 15.1875C2.54857 14.9236 2.41663 14.6089 2.41663 14.2435V5.75642C2.41663 5.391 2.54857 5.07635 2.81246 4.81246C3.07635 4.54857 3.391 4.41663 3.75642 4.41663H16.2435C16.6186 4.41663 16.9357 4.54857 17.1947 4.81246C17.4538 5.07635 17.5833 5.391 17.5833 5.75642V14.2435C17.5833 14.6089 17.4538 14.9236 17.1947 15.1875C16.9357 15.4513 16.6186 15.5833 16.2435 15.5833H3.75642ZM16.5 6.806L10.3637 10.4183C10.3062 10.4545 10.2469 10.4831 10.1858 10.5039C10.1247 10.5248 10.0627 10.5352 9.99996 10.5352C9.93051 10.5352 9.87204 10.5248 9.82454 10.5039C9.7769 10.4831 9.72163 10.4566 9.65871 10.4245L3.49996 6.806V14.2435C3.49996 14.3184 3.52399 14.3798 3.57204 14.4279C3.6201 14.4759 3.68156 14.5 3.75642 14.5H16.2435C16.3184 14.5 16.3798 14.4759 16.4279 14.4279C16.4759 14.3798 16.5 14.3184 16.5 14.2435V6.806ZM9.99996 9.22913L16.351 5.49996H3.66975L9.99996 9.22913ZM3.49996 6.53725V6.7085V5.88933V5.90371V5.49996V5.90288V5.87725V6.71038V6.53892V14.5V6.53725Z" fill="currentColor"/>
</svg>
