<svg width="24" height="24" viewBox="0 0 24 24" fill="none" xmlns="http://www.w3.org/2000/svg">
<path d="M12 16.9864L16.273 12.7036C16.4115 12.5653 16.5663 12.4961 16.7375 12.4961C16.9087 12.4961 17.0635 12.5653 17.202 12.7036C17.3468 12.8486 17.4193 13.0034 17.4193 13.1681C17.4193 13.3328 17.3468 13.4876 17.202 13.6326L12.5578 18.2769C12.4808 18.3537 12.3945 18.4114 12.299 18.4499C12.2035 18.4884 12.1038 18.5076 12 18.5076C11.8962 18.5076 11.7965 18.4884 11.701 18.4499C11.6055 18.4114 11.5193 18.3537 11.4423 18.2769L6.79801 13.6326C6.65967 13.4941 6.59467 13.3393 6.60301 13.1681C6.61134 12.9969 6.68467 12.8421 6.82301 12.7036C6.96801 12.5588 7.12284 12.4864 7.28751 12.4864C7.45217 12.4864 7.607 12.5588 7.752 12.7036L12 16.9864ZM12 9.88062L16.273 5.59787C16.4115 5.45953 16.5663 5.39037 16.7375 5.39037C16.9087 5.39037 17.0635 5.45953 17.202 5.59787C17.3468 5.74287 17.4193 5.8977 17.4193 6.06237C17.4193 6.22703 17.3468 6.38187 17.202 6.52687L12.5578 11.1711C12.4808 11.2479 12.3945 11.3056 12.299 11.3441C12.2035 11.3826 12.1038 11.4019 12 11.4019C11.8962 11.4019 11.7965 11.3826 11.701 11.3441C11.6055 11.3056 11.5193 11.2479 11.4423 11.1711L6.79801 6.52687C6.65967 6.38837 6.59467 6.23353 6.60301 6.06237C6.61134 5.8912 6.68467 5.73637 6.82301 5.59787C6.96801 5.45303 7.12284 5.38062 7.28751 5.38062C7.45217 5.38062 7.607 5.45303 7.752 5.59787L12 9.88062Z" fill="currentColor"/>
</svg>
