<svg width="20" height="20" viewBox="0 0 20 20" fill="none" xmlns="http://www.w3.org/2000/svg">
<path d="M8.29821 14.7916C8.14473 14.7916 8.01605 14.7401 7.91216 14.6371C7.80841 14.534 7.75654 14.4064 7.75654 14.2541C7.75654 14.1018 7.80841 13.9728 7.91216 13.8671C8.01605 13.7612 8.14473 13.7083 8.29821 13.7083H16.0417C16.1952 13.7083 16.3238 13.7598 16.4276 13.8629C16.5315 13.966 16.5834 14.0936 16.5834 14.2458C16.5834 14.3982 16.5315 14.5272 16.4276 14.6329C16.3238 14.7387 16.1952 14.7916 16.0417 14.7916H8.29821ZM8.29821 10.5416C8.14473 10.5416 8.01605 10.4901 7.91216 10.3871C7.80841 10.284 7.75654 10.1564 7.75654 10.0041C7.75654 9.85178 7.80841 9.72276 7.91216 9.61706C8.01605 9.51123 8.14473 9.45831 8.29821 9.45831H16.0417C16.1952 9.45831 16.3238 9.50984 16.4276 9.6129C16.5315 9.71595 16.5834 9.84359 16.5834 9.99581C16.5834 10.1482 16.5315 10.2772 16.4276 10.3829C16.3238 10.4887 16.1952 10.5416 16.0417 10.5416H8.29821ZM8.29821 6.29165C8.14473 6.29165 8.01605 6.24012 7.91216 6.13706C7.80841 6.03401 7.75654 5.90637 7.75654 5.75415C7.75654 5.60178 7.80841 5.47276 7.91216 5.36706C8.01605 5.26123 8.14473 5.20831 8.29821 5.20831H16.0417C16.1952 5.20831 16.3238 5.25984 16.4276 5.36289C16.5315 5.46595 16.5834 5.59359 16.5834 5.74581C16.5834 5.89817 16.5315 6.0272 16.4276 6.1329C16.3238 6.23873 16.1952 6.29165 16.0417 6.29165H8.29821ZM4.63196 15.4696C4.29529 15.4696 4.00862 15.3497 3.77196 15.11C3.53515 14.8703 3.41675 14.5821 3.41675 14.2456C3.41675 13.9089 3.53661 13.6223 3.77633 13.3856C4.01605 13.1488 4.30418 13.0304 4.64071 13.0304C4.97737 13.0304 5.26404 13.1503 5.50071 13.39C5.73751 13.6297 5.85591 13.9178 5.85591 14.2544C5.85591 14.591 5.73605 14.8777 5.49633 15.1144C5.25661 15.3512 4.96848 15.4696 4.63196 15.4696ZM4.63196 11.2196C4.29529 11.2196 4.00862 11.0997 3.77196 10.86C3.53515 10.6203 3.41675 10.3321 3.41675 9.9956C3.41675 9.65894 3.53661 9.37227 3.77633 9.1356C4.01605 8.8988 4.30418 8.7804 4.64071 8.7804C4.97737 8.7804 5.26404 8.90026 5.50071 9.13998C5.73751 9.3797 5.85591 9.66783 5.85591 10.0044C5.85591 10.341 5.73605 10.6277 5.49633 10.8644C5.25661 11.1012 4.96848 11.2196 4.63196 11.2196ZM4.63196 6.96956C4.29529 6.96956 4.00862 6.8497 3.77196 6.60998C3.53515 6.37026 3.41675 6.08213 3.41675 5.7456C3.41675 5.40894 3.53661 5.12227 3.77633 4.8856C4.01605 4.6488 4.30418 4.5304 4.64071 4.5304C4.97737 4.5304 5.26404 4.65026 5.50071 4.88998C5.73751 5.1297 5.85591 5.41783 5.85591 5.75435C5.85591 6.09102 5.73605 6.37769 5.49633 6.61435C5.25661 6.85116 4.96848 6.96956 4.63196 6.96956Z" fill="currentColor"/>
</svg>
