<svg width="24" height="24" viewBox="0 0 24 24" fill="none" xmlns="http://www.w3.org/2000/svg">
<path d="M19.2347 21.3423L15.7155 17.8538C15.1256 18.0819 14.5195 18.2467 13.897 18.348C13.2746 18.4493 12.6423 18.5 12 18.5C9.89481 18.5 7.96689 17.9401 6.21623 16.8203C4.46573 15.7003 3.07831 14.2243 2.05398 12.3923C1.97064 12.2488 1.90973 12.1026 1.87123 11.9538C1.83273 11.8051 1.81348 11.6538 1.81348 11.5C1.81348 11.3462 1.83431 11.1933 1.87598 11.0413C1.91764 10.8894 1.98014 10.7449 2.06348 10.6078C2.46214 9.94493 2.88589 9.3036 3.33473 8.68376C3.78339 8.06376 4.30514 7.51535 4.89998 7.03851L2.64223 4.76526C2.50389 4.62693 2.43306 4.45551 2.42973 4.25101C2.42656 4.04651 2.50256 3.86668 2.65773 3.71151C2.80256 3.56668 2.97823 3.49426 3.18473 3.49426C3.39106 3.49426 3.56664 3.56668 3.71148 3.71151L20.2885 20.2885C20.427 20.427 20.5004 20.5984 20.5087 20.8028C20.5171 21.0073 20.4436 21.1871 20.2885 21.3423C20.1436 21.4871 19.968 21.5595 19.7615 21.5595C19.5551 21.5595 19.3796 21.4871 19.2347 21.3423ZM12 15.577C12.2218 15.577 12.4336 15.5638 12.6355 15.5375C12.8375 15.5112 13.0346 15.4538 13.227 15.3653L8.13473 10.273C8.05256 10.4653 7.99673 10.6625 7.96723 10.8645C7.93773 11.0663 7.92298 11.2782 7.92298 11.5C7.92298 12.6347 8.31881 13.5978 9.11048 14.3895C9.90214 15.1812 10.8653 15.577 12 15.577ZM12 4.50001C14.1115 4.50001 16.0483 5.06251 17.8105 6.18751C19.5726 7.31251 20.9627 8.79743 21.9807 10.6423C22.0576 10.7693 22.1168 10.9055 22.1585 11.051C22.2001 11.1965 22.221 11.3462 22.221 11.5C22.221 11.6538 22.2027 11.8035 22.1662 11.949C22.1297 12.0945 22.073 12.2308 21.996 12.3578C21.6921 12.9359 21.3525 13.4808 20.977 13.9923C20.6013 14.5038 20.1814 14.9852 19.7172 15.4365C19.5096 15.6442 19.2634 15.7397 18.9787 15.723C18.6942 15.7063 18.4481 15.5942 18.2402 15.3865L16.1442 13.3C16.0404 13.1962 15.9718 13.0763 15.9385 12.9403C15.9051 12.8044 15.9071 12.6628 15.9442 12.5153C15.9916 12.3436 16.0255 12.1769 16.046 12.0153C16.0666 11.8538 16.077 11.682 16.077 11.5C16.077 10.3653 15.6811 9.40218 14.8895 8.61051C14.0978 7.81885 13.1346 7.42301 12 7.42301C11.818 7.42301 11.6478 7.43493 11.4895 7.45876C11.3311 7.48243 11.1692 7.51801 11.0037 7.56551C10.8564 7.60901 10.709 7.6141 10.5615 7.58076C10.4141 7.54743 10.2886 7.47885 10.1847 7.37501L9.25373 6.44426C8.96923 6.1596 8.87473 5.82818 8.97023 5.45001C9.06573 5.07185 9.30581 4.83085 9.69048 4.72701C10.0686 4.65001 10.4494 4.59293 10.8327 4.55576C11.2161 4.5186 11.6051 4.50001 12 4.50001ZM13.9365 9.61151C14.1391 9.83468 14.3061 10.085 14.4375 10.3625C14.5688 10.64 14.6511 10.9301 14.6845 11.2328C14.7011 11.3533 14.656 11.4369 14.549 11.4838C14.442 11.5304 14.3416 11.507 14.248 11.4135L12.102 9.27701C12.0083 9.18335 11.9875 9.08301 12.0395 8.97601C12.0913 8.86901 12.1775 8.81551 12.298 8.81551C12.6211 8.84235 12.9192 8.92343 13.1922 9.05876C13.4654 9.19393 13.7135 9.37818 13.9365 9.61151Z" fill="currentColor"/>
</svg>
