<svg width="20" height="20" viewBox="0 0 20 20" fill="none" xmlns="http://www.w3.org/2000/svg">
<path d="M7.6735 15.5835H5.76204C5.39204 15.5835 5.07537 15.4518 4.81204 15.1883C4.54857 14.925 4.41683 14.6083 4.41683 14.2383V12.3268L3.03537 10.9504C2.89329 10.8137 2.79287 10.6637 2.73412 10.5004C2.67537 10.3369 2.646 10.1706 2.646 10.0016C2.646 9.83259 2.67537 9.66593 2.73412 9.50162C2.79287 9.33718 2.89329 9.18662 3.03537 9.04995L4.41683 7.6735V5.76204C4.41683 5.39204 4.54857 5.07537 4.81204 4.81204C5.07537 4.54857 5.39204 4.41683 5.76204 4.41683H7.6735L9.04995 3.03537C9.18662 2.89329 9.33662 2.79287 9.49995 2.73412C9.66343 2.67537 9.82968 2.646 9.9987 2.646C10.1677 2.646 10.3344 2.67537 10.4987 2.73412C10.6631 2.79287 10.8137 2.89329 10.9504 3.03537L12.3268 4.41683H14.2383C14.6083 4.41683 14.925 4.54857 15.1883 4.81204C15.4518 5.07537 15.5835 5.39204 15.5835 5.76204V7.6735L16.965 9.04995C17.107 9.18662 17.2075 9.33662 17.2662 9.49995C17.325 9.66343 17.3543 9.82968 17.3543 9.9987C17.3543 10.1677 17.325 10.3344 17.2662 10.4987C17.2075 10.6631 17.107 10.8137 16.965 10.9504L15.5835 12.3268V14.2383C15.5835 14.6083 15.4518 14.925 15.1883 15.1883C14.925 15.4518 14.6083 15.5835 14.2383 15.5835H12.3268L10.9504 16.965C10.8137 17.107 10.6637 17.2075 10.5004 17.2662C10.3369 17.325 10.1706 17.3543 10.0016 17.3543C9.83259 17.3543 9.66593 17.325 9.50162 17.2662C9.33718 17.2075 9.18662 17.107 9.04995 16.965L7.6735 15.5835ZM5.75662 14.5002H7.41037V11.4393C7.12843 11.3474 6.89315 11.1893 6.70454 10.965C6.51593 10.7405 6.42162 10.469 6.42162 10.1504V7.61475C6.42162 7.52016 6.45155 7.44218 6.51141 7.38079C6.57127 7.3194 6.6503 7.2887 6.7485 7.2887C6.84683 7.2887 6.92593 7.3194 6.98579 7.38079C7.04565 7.44218 7.07558 7.52114 7.07558 7.61766V9.95204H7.57391V7.61558C7.57391 7.52044 7.60384 7.44218 7.6637 7.38079C7.72343 7.3194 7.80245 7.2887 7.90079 7.2887C7.99912 7.2887 8.07822 7.3194 8.13808 7.38079C8.1978 7.44218 8.22766 7.52114 8.22766 7.61766V9.95204H8.7262V7.61558C8.7262 7.52044 8.75607 7.44218 8.81579 7.38079C8.87565 7.3194 8.95475 7.2887 9.05308 7.2887C9.1535 7.2887 9.2344 7.3194 9.29579 7.38079C9.35718 7.44218 9.38787 7.52093 9.38787 7.61704V10.1512C9.38787 10.4697 9.29232 10.7445 9.1012 10.9756C8.90995 11.2067 8.67593 11.3613 8.39912 11.4393V14.7741L9.81579 16.1908C9.86384 16.2388 9.9253 16.2629 10.0002 16.2629C10.075 16.2629 10.1365 16.2388 10.1845 16.1908L11.6012 14.7741V11.7625C11.3211 11.6045 11.0862 11.3309 10.8966 10.9414C10.7072 10.552 10.6125 10.105 10.6125 9.60037C10.6125 8.96412 10.7598 8.41975 11.0545 7.96725C11.3493 7.51488 11.6976 7.2887 12.0995 7.2887C12.5147 7.2887 12.865 7.51162 13.1504 7.95745C13.4359 8.40343 13.5787 8.95134 13.5787 9.6012C13.5787 10.0983 13.4864 10.5429 13.3018 10.935C13.1174 11.327 12.887 11.6031 12.6108 11.7633V14.5002H14.2437C14.3186 14.5002 14.38 14.4761 14.4281 14.4281C14.4761 14.38 14.5002 14.3186 14.5002 14.2437V11.8758L16.1908 10.1845C16.2388 10.1365 16.2629 10.075 16.2629 10.0002C16.2629 9.9253 16.2388 9.86384 16.1908 9.81579L14.5002 8.12454V5.75662C14.5002 5.68176 14.4761 5.6203 14.4281 5.57225C14.38 5.52419 14.3186 5.50016 14.2437 5.50016H11.8758L10.1845 3.80954C10.1365 3.76148 10.075 3.73745 10.0002 3.73745C9.9253 3.73745 9.86384 3.76148 9.81579 3.80954L8.12454 5.50016H5.75662C5.68176 5.50016 5.6203 5.52419 5.57225 5.57225C5.52419 5.6203 5.50016 5.68176 5.50016 5.75662V8.12454L3.80954 9.81579C3.76148 9.86384 3.73745 9.9253 3.73745 10.0002C3.73745 10.075 3.76148 10.1365 3.80954 10.1845L5.50016 11.8758V14.2437C5.50016 14.3186 5.52419 14.38 5.57225 14.4281C5.6203 14.4761 5.68176 14.5002 5.75662 14.5002Z" fill="currentColor"/>
</svg>
