<svg width="20" height="20" viewBox="0 0 20 20" fill="none" xmlns="http://www.w3.org/2000/svg">
<path d="M5.60904 17.0834H4.42321C4.00223 17.0834 3.64591 16.9376 3.35425 16.6459C3.06258 16.3542 2.91675 15.9979 2.91675 15.577V10.0001C2.91675 9.01716 3.10265 8.09626 3.47446 7.23737C3.84626 6.37835 4.35161 5.62939 4.9905 4.9905C5.62939 4.35161 6.37835 3.84626 7.23737 3.47446C8.09626 3.10265 9.01716 2.91675 10.0001 2.91675C10.983 2.91675 11.9039 3.10265 12.7628 3.47446C13.6218 3.84626 14.3708 4.35161 15.0097 4.9905C15.6486 5.62939 16.1539 6.37835 16.5257 7.23737C16.8975 8.09626 17.0834 9.01716 17.0834 10.0001V15.577C17.0834 15.9979 16.9376 16.3542 16.6459 16.6459C16.3542 16.9376 15.9979 17.0834 15.577 17.0834H14.3911C13.9756 17.0834 13.6206 16.9363 13.3263 16.642C13.0319 16.3475 12.8847 15.9925 12.8847 15.577V12.6924C12.8847 12.2768 13.0319 11.9219 13.3263 11.6276C13.6206 11.3331 13.9756 11.1859 14.3911 11.1859H15.8334V10.0001C15.8334 8.37508 15.2674 6.99661 14.1355 5.86466C13.0036 4.73272 11.6251 4.16675 10.0001 4.16675C8.37508 4.16675 6.99661 4.73272 5.86466 5.86466C4.73272 6.99661 4.16675 8.37508 4.16675 10.0001V11.1859H5.60904C6.0246 11.1859 6.37953 11.3331 6.67383 11.6276C6.96828 11.9219 7.1155 12.2768 7.1155 12.6924V15.577C7.1155 15.9925 6.96828 16.3475 6.67383 16.642C6.37953 16.9363 6.0246 17.0834 5.60904 17.0834ZM5.60904 12.4359H4.16675V15.577C4.16675 15.6411 4.19348 15.6999 4.24696 15.7532C4.30029 15.8067 4.35904 15.8334 4.42321 15.8334H5.60904C5.68376 15.8334 5.74522 15.8094 5.79341 15.7613C5.84147 15.7133 5.8655 15.6518 5.8655 15.577V12.6924C5.8655 12.6177 5.84147 12.5562 5.79341 12.508C5.74522 12.4599 5.68376 12.4359 5.60904 12.4359ZM14.1347 12.6924V15.577C14.1347 15.6518 14.1587 15.7133 14.2067 15.7613C14.2549 15.8094 14.3164 15.8334 14.3911 15.8334H15.577C15.6411 15.8334 15.6999 15.8067 15.7532 15.7532C15.8067 15.6999 15.8334 15.6411 15.8334 15.577V12.4359H14.3911C14.3164 12.4359 14.2549 12.4599 14.2067 12.508C14.1587 12.5562 14.1347 12.6177 14.1347 12.6924ZM5.60904 12.4359H5.8655H4.16675H5.60904Z" fill="currentColor"/>
</svg>
