<svg width="24" height="24" viewBox="0 0 24 24" fill="none" xmlns="http://www.w3.org/2000/svg">
<path d="M11.35 17.3923V6.5885L10.127 7.802C9.99017 7.94034 9.83575 8.0095 9.66375 8.0095C9.49175 8.0095 9.33917 7.9435 9.206 7.8115C9.06867 7.67517 9 7.5225 9 7.3535C9 7.1845 9.06925 7.03075 9.20775 6.89225L11.4395 4.6605C11.5183 4.58167 11.6067 4.52309 11.7045 4.48475C11.8023 4.44625 11.9036 4.427 12.0082 4.427C12.1131 4.427 12.2133 4.44625 12.3088 4.48475C12.4043 4.52309 12.4913 4.58167 12.57 4.6605L14.802 6.89225C14.9403 7.03075 15.0112 7.17984 15.0145 7.3395C15.0177 7.499 14.9475 7.648 14.804 7.7865C14.6642 7.925 14.5103 7.99425 14.3423 7.99425C14.1744 7.99425 14.0213 7.925 13.8828 7.7865L12.65 6.5885V17.3923L13.873 16.1885C14.0098 16.05 14.1643 15.9808 14.3363 15.9808C14.5083 15.9808 14.6608 16.0468 14.794 16.1788C14.9313 16.3151 15 16.4678 15 16.6368C15 16.8058 14.9308 16.9595 14.7923 17.098L12.5605 19.3298C12.4817 19.4086 12.3941 19.4673 12.2978 19.5058C12.2014 19.5443 12.1018 19.5635 11.9988 19.5635C11.8958 19.5635 11.7946 19.5441 11.6953 19.5053C11.5959 19.4666 11.5084 19.4091 11.4327 19.3328L9.198 17.098C9.06167 16.9612 8.99875 16.8068 9.00925 16.6348C9.01975 16.4629 9.091 16.3104 9.223 16.1773C9.35933 16.0399 9.512 15.9713 9.681 15.9713C9.85 15.9713 10.0038 16.0404 10.1423 16.1788L11.35 17.3923Z" fill="currentColor"/>
</svg>
