<svg width="20" height="20" viewBox="0 0 20 20" fill="none" xmlns="http://www.w3.org/2000/svg">
<path fill-rule="evenodd" clip-rule="evenodd" d="M4.92188 4.33594C4.92188 4.18054 4.86014 4.0315 4.75026 3.92162C4.64037 3.81173 4.49134 3.75 4.33594 3.75C4.18054 3.75 4.0315 3.81173 3.92162 3.92162C3.81173 4.0315 3.75 4.18054 3.75 4.33594V15.6641C3.75 15.8195 3.81173 15.9685 3.92162 16.0784C4.0315 16.1883 4.18054 16.25 4.33594 16.25C4.49134 16.25 4.64037 16.1883 4.75026 16.0784C4.86014 15.9685 4.92188 15.8195 4.92188 15.6641V4.33594ZM7.46094 4.53125C7.30554 4.53125 7.1565 4.59298 7.04662 4.70287C6.93673 4.81275 6.875 4.96179 6.875 5.11719C6.875 5.27259 6.93673 5.42162 7.04662 5.53151C7.1565 5.64139 7.30554 5.70312 7.46094 5.70312H14.1016C14.257 5.70312 14.406 5.64139 14.5159 5.53151C14.6258 5.42162 14.6875 5.27259 14.6875 5.11719C14.6875 4.96179 14.6258 4.81275 14.5159 4.70287C14.406 4.59298 14.257 4.53125 14.1016 4.53125H7.46094ZM6.875 10.1953C6.875 10.0399 6.93673 9.89088 7.04662 9.78099C7.1565 9.67111 7.30554 9.60938 7.46094 9.60938H15.6641C15.8195 9.60938 15.9685 9.67111 16.0784 9.78099C16.1883 9.89088 16.25 10.0399 16.25 10.1953C16.25 10.3507 16.1883 10.4997 16.0784 10.6096C15.9685 10.7195 15.8195 10.7812 15.6641 10.7812H7.46094C7.30554 10.7812 7.1565 10.7195 7.04662 10.6096C6.93673 10.4997 6.875 10.3507 6.875 10.1953ZM7.46094 14.2969C7.30554 14.2969 7.1565 14.3586 7.04662 14.4685C6.93673 14.5784 6.875 14.7274 6.875 14.8828C6.875 15.0382 6.93673 15.1872 7.04662 15.2971C7.1565 15.407 7.30554 15.4688 7.46094 15.4688H13.3203C13.4757 15.4688 13.6247 15.407 13.7346 15.2971C13.8445 15.1872 13.9062 15.0382 13.9062 14.8828C13.9062 14.7274 13.8445 14.5784 13.7346 14.4685C13.6247 14.3586 13.4757 14.2969 13.3203 14.2969H7.46094Z" fill="currentColor"/>
</svg>
