<svg width="20" height="20" viewBox="0 0 20 20" fill="none" xmlns="http://www.w3.org/2000/svg">
<path d="M15.1042 8.95853H13.2292C13.0521 8.95853 12.9037 8.89859 12.784 8.77873C12.6641 8.65887 12.6042 8.5104 12.6042 8.33332C12.6042 8.15609 12.6641 8.00769 12.784 7.88811C12.9037 7.76839 13.0521 7.70853 13.2292 7.70853H15.1042V5.83353C15.1042 5.65644 15.1641 5.50804 15.284 5.38832C15.4038 5.26846 15.5523 5.20853 15.7294 5.20853C15.9066 5.20853 16.055 5.26846 16.1746 5.38832C16.2943 5.50804 16.3542 5.65644 16.3542 5.83353V7.70853H18.2292C18.4062 7.70853 18.5547 7.76846 18.6744 7.88832C18.7942 8.00818 18.8542 8.15665 18.8542 8.33373C18.8542 8.51096 18.7942 8.65936 18.6744 8.77894C18.5547 8.89866 18.4062 8.95853 18.2292 8.95853H16.3542V10.8335C16.3542 11.0106 16.2942 11.159 16.1744 11.2787C16.0545 11.3986 15.906 11.4585 15.729 11.4585C15.5517 11.4585 15.4033 11.3986 15.2837 11.2787C15.164 11.159 15.1042 11.0106 15.1042 10.8335V8.95853ZM7.5 9.74373C6.69792 9.74373 6.01132 9.45818 5.44021 8.88707C4.86896 8.31582 4.58333 7.62915 4.58333 6.82707C4.58333 6.02498 4.86896 5.33839 5.44021 4.76728C6.01132 4.19603 6.69792 3.9104 7.5 3.9104C8.30208 3.9104 8.98868 4.19603 9.55979 4.76728C10.131 5.33839 10.4167 6.02498 10.4167 6.82707C10.4167 7.62915 10.131 8.31582 9.55979 8.88707C8.98868 9.45818 8.30208 9.74373 7.5 9.74373ZM1.25 14.8239V14.2373C1.25 13.8292 1.36083 13.4513 1.5825 13.1035C1.80417 12.7557 2.10042 12.4884 2.47125 12.3014C3.29486 11.8977 4.12576 11.5948 4.96396 11.3929C5.80215 11.191 6.6475 11.09 7.5 11.09C8.3525 11.09 9.19785 11.191 10.036 11.3929C10.8742 11.5948 11.7051 11.8977 12.5287 12.3014C12.8996 12.4884 13.1958 12.7557 13.4175 13.1035C13.6392 13.4513 13.75 13.8292 13.75 14.2373V14.8239C13.75 15.1753 13.6269 15.4742 13.3806 15.7206C13.1344 15.9669 12.8355 16.09 12.484 16.09H2.51604C2.16451 16.09 1.86563 15.9669 1.61938 15.7206C1.37313 15.4742 1.25 15.1753 1.25 14.8239ZM2.5 14.84H12.5V14.2373C12.5 14.0685 12.4511 13.9123 12.3533 13.7685C12.2556 13.6249 12.1228 13.5077 11.9552 13.4169C11.2372 13.0632 10.5051 12.7953 9.75896 12.6131C9.01271 12.431 8.25972 12.34 7.5 12.34C6.74028 12.34 5.98729 12.431 5.24104 12.6131C4.49493 12.7953 3.76285 13.0632 3.04479 13.4169C2.87715 13.5077 2.74444 13.6249 2.64667 13.7685C2.54889 13.9123 2.5 14.0685 2.5 14.2373V14.84ZM7.5 8.49373C7.95833 8.49373 8.35069 8.33054 8.67708 8.00415C9.00347 7.67776 9.16667 7.2854 9.16667 6.82707C9.16667 6.36873 9.00347 5.97637 8.67708 5.64998C8.35069 5.32359 7.95833 5.1604 7.5 5.1604C7.04167 5.1604 6.64931 5.32359 6.32292 5.64998C5.99653 5.97637 5.83333 6.36873 5.83333 6.82707C5.83333 7.2854 5.99653 7.67776 6.32292 8.00415C6.64931 8.33054 7.04167 8.49373 7.5 8.49373Z" fill="currentColor"/>
</svg>
