<svg width="24" height="24" viewBox="0 0 24 24" fill="none" xmlns="http://www.w3.org/2000/svg">
<path d="M18.5653 19.875C16.7474 19.725 15 19.2451 13.323 18.4355C11.6462 17.6258 10.1279 16.5396 8.76826 15.177C7.40876 13.8141 6.33251 12.3 5.53951 10.6345C4.74651 8.96914 4.26668 7.22756 4.10001 5.40973C4.06668 5.05689 4.16909 4.75039 4.40726 4.49023C4.64526 4.23006 4.94284 4.09998 5.30001 4.09998H7.91151C8.21401 4.09998 8.47426 4.19073 8.69226 4.37223C8.91026 4.55356 9.06218 4.79039 9.14801 5.08273L9.67126 7.17498C9.71093 7.39798 9.69843 7.61589 9.63376 7.82873C9.56893 8.04156 9.46343 8.21464 9.31726 8.34798L7.00776 10.5962C7.37943 11.2936 7.79159 11.95 8.24426 12.5655C8.69676 13.1808 9.19268 13.7563 9.73201 14.292C10.2645 14.8243 10.8398 15.3174 11.4578 15.7712C12.0758 16.2251 12.7431 16.6379 13.4598 17.0097L15.8288 14.6962C15.9686 14.5501 16.1289 14.4526 16.3098 14.4037C16.4904 14.3551 16.6923 14.3474 16.9155 14.3807L18.9173 14.8212C19.2198 14.9046 19.4592 15.0584 19.6355 15.2827C19.8118 15.5071 19.9 15.7737 19.9 16.0827V18.675C19.9 19.0321 19.7658 19.3297 19.4973 19.5677C19.2288 19.8059 18.9181 19.9083 18.5653 19.875ZM6.42301 9.32698L8.30776 7.51923C8.33976 7.49356 8.36059 7.45831 8.37026 7.41348C8.37993 7.36864 8.37834 7.32698 8.36551 7.28848L7.92676 5.55373C7.91393 5.50256 7.89151 5.46414 7.85951 5.43848C7.82751 5.41281 7.78584 5.39998 7.73451 5.39998H5.57501C5.53651 5.39998 5.50443 5.41281 5.47876 5.43848C5.45326 5.46414 5.44051 5.49623 5.44051 5.53473C5.49168 6.16806 5.60351 6.79973 5.77601 7.42973C5.94834 8.05989 6.16401 8.69231 6.42301 9.32698ZM14.773 17.6192C15.3708 17.8822 15.9959 18.082 16.6483 18.2185C17.3008 18.3548 17.9064 18.4551 18.4653 18.5192C18.5038 18.5192 18.5358 18.5064 18.5615 18.4807C18.5872 18.4551 18.6 18.423 18.6 18.3845V16.2307C18.6 16.1794 18.5872 16.1377 18.5615 16.1057C18.5358 16.0737 18.4974 16.0513 18.4463 16.0385L16.8213 15.6865C16.7828 15.6736 16.7491 15.6721 16.7203 15.6817C16.6914 15.6914 16.6609 15.7122 16.6288 15.7442L14.773 17.6192Z" fill="currentColor"/>
</svg>
