<svg width="24" height="24" viewBox="0 0 24 24" fill="none" xmlns="http://www.w3.org/2000/svg">
<path d="M10.0056 11.9999L5.72288 7.72694C5.58455 7.58844 5.51538 7.43361 5.51538 7.26244C5.51538 7.09127 5.58455 6.93644 5.72288 6.79794C5.86788 6.65311 6.02271 6.58069 6.18738 6.58069C6.35205 6.58069 6.50688 6.65311 6.65188 6.79794L11.2961 11.4422C11.373 11.5192 11.4306 11.6054 11.4691 11.7009C11.5076 11.7964 11.5269 11.8961 11.5269 11.9999C11.5269 12.1038 11.5076 12.2034 11.4691 12.2989C11.4306 12.3944 11.373 12.4807 11.2961 12.5577L6.65188 17.2019C6.51338 17.3403 6.36271 17.4053 6.19988 17.3969C6.03705 17.3886 5.88638 17.3153 5.74788 17.1769C5.60305 17.0319 5.53063 16.8771 5.53063 16.7124C5.53063 16.5478 5.60305 16.3929 5.74788 16.2479L10.0056 11.9999ZM16.8806 11.9999L12.5979 7.72694C12.4595 7.58844 12.3904 7.43361 12.3904 7.26244C12.3904 7.09127 12.4595 6.93644 12.5979 6.79794C12.7429 6.65311 12.8977 6.58069 13.0624 6.58069C13.227 6.58069 13.3819 6.65311 13.5269 6.79794L18.1709 11.4422C18.2479 11.5192 18.3056 11.6054 18.3441 11.7009C18.3826 11.7964 18.4019 11.8961 18.4019 11.9999C18.4019 12.1038 18.3826 12.2034 18.3441 12.2989C18.3056 12.3944 18.2479 12.4807 18.1709 12.5577L13.5269 17.2019C13.3884 17.3403 13.2377 17.4053 13.0749 17.3969C12.912 17.3886 12.7614 17.3153 12.6229 17.1769C12.478 17.0319 12.4056 16.8771 12.4056 16.7124C12.4056 16.5478 12.478 16.3929 12.6229 16.2479L16.8806 11.9999Z" fill="currentColor"/>
</svg>
