<svg width="16" height="16" viewBox="0 0 16 16" fill="none" xmlns="http://www.w3.org/2000/svg">
<path d="M8.20332 13.4333C8.08143 13.4333 7.97821 13.3918 7.89365 13.3087C7.80898 13.2257 7.76665 13.1228 7.76665 13V10.2C7.76665 10.0772 7.80787 9.97432 7.89032 9.89132C7.97276 9.80821 8.07487 9.76665 8.19665 9.76665C8.31854 9.76665 8.42176 9.80821 8.50632 9.89132C8.59098 9.97432 8.63332 10.0772 8.63332 10.2V11.1667H12.9953C13.1179 11.1667 13.2215 11.2079 13.3062 11.2903C13.3909 11.3728 13.4333 11.4749 13.4333 11.5967C13.4333 11.7185 13.3918 11.8218 13.3087 11.9063C13.2257 11.991 13.1228 12.0333 13 12.0333H8.63332V13C8.63332 13.1228 8.59209 13.2257 8.50965 13.3087C8.42721 13.3918 8.3251 13.4333 8.20332 13.4333ZM2.99998 12.0333C2.87721 12.0333 2.77432 11.9921 2.69132 11.9097C2.60821 11.8272 2.56665 11.7251 2.56665 11.6033C2.56665 11.4814 2.60821 11.3782 2.69132 11.2937C2.77432 11.209 2.87721 11.1667 2.99998 11.1667H5.79998C5.92276 11.1667 6.02565 11.2079 6.10865 11.2903C6.19176 11.3728 6.23332 11.4749 6.23332 11.5967C6.23332 11.7185 6.19176 11.8218 6.10865 11.9063C6.02565 11.991 5.92276 12.0333 5.79998 12.0333H2.99998ZM5.40332 9.83332C5.28143 9.83332 5.17821 9.79176 5.09365 9.70865C5.00898 9.62565 4.96665 9.52276 4.96665 9.39998V8.43332H3.00432C2.88198 8.43332 2.77848 8.3921 2.69382 8.30965C2.60904 8.22721 2.56665 8.1251 2.56665 8.00332C2.56665 7.88143 2.60821 7.77821 2.69132 7.69365C2.77432 7.60898 2.87721 7.56665 2.99998 7.56665H4.96665V6.59998C4.96665 6.47721 5.00787 6.37432 5.09032 6.29132C5.17276 6.20821 5.27487 6.16665 5.39665 6.16665C5.51854 6.16665 5.62176 6.20821 5.70632 6.29132C5.79098 6.37432 5.83332 6.47721 5.83332 6.59998V9.39998C5.83332 9.52276 5.79209 9.62565 5.70965 9.70865C5.62721 9.79176 5.5251 9.83332 5.40332 9.83332ZM7.79998 8.43332C7.67721 8.43332 7.57432 8.3921 7.49132 8.30965C7.40821 8.22721 7.36665 8.1251 7.36665 8.00332C7.36665 7.88143 7.40821 7.77821 7.49132 7.69365C7.57432 7.60898 7.67721 7.56665 7.79998 7.56665H13C13.1228 7.56665 13.2257 7.60787 13.3087 7.69032C13.3918 7.77276 13.4333 7.87487 13.4333 7.99665C13.4333 8.11854 13.3918 8.22176 13.3087 8.30632C13.2257 8.39098 13.1228 8.43332 13 8.43332H7.79998ZM10.2033 6.23332C10.0814 6.23332 9.97821 6.19176 9.89365 6.10865C9.80898 6.02565 9.76665 5.92276 9.76665 5.79998V2.99998C9.76665 2.87721 9.80787 2.77432 9.89032 2.69132C9.97276 2.60821 10.0749 2.56665 10.1967 2.56665C10.3185 2.56665 10.4218 2.60821 10.5063 2.69132C10.591 2.77432 10.6333 2.87721 10.6333 2.99998V3.96665H13C13.1228 3.96665 13.2257 4.00787 13.3087 4.09032C13.3918 4.17276 13.4333 4.27487 13.4333 4.39665C13.4333 4.51854 13.3918 4.62176 13.3087 4.70632C13.2257 4.79098 13.1228 4.83332 13 4.83332H10.6333V5.79998C10.6333 5.92276 10.5921 6.02565 10.5097 6.10865C10.4272 6.19176 10.3251 6.23332 10.2033 6.23332ZM2.99998 4.83332C2.87721 4.83332 2.77432 4.7921 2.69132 4.70965C2.60821 4.62721 2.56665 4.5251 2.56665 4.40332C2.56665 4.28143 2.60821 4.17821 2.69132 4.09365C2.77432 4.00898 2.87721 3.96665 2.99998 3.96665H8.19998C8.32276 3.96665 8.42565 4.00787 8.50865 4.09032C8.59176 4.17276 8.63332 4.27487 8.63332 4.39665C8.63332 4.51854 8.59176 4.62176 8.50865 4.70632C8.42565 4.79098 8.32276 4.83332 8.19998 4.83332H2.99998Z" fill="currentColor"/>
</svg>
