<svg width="20" height="20" viewBox="0 0 20 20" fill="none" xmlns="http://www.w3.org/2000/svg">
<path d="M8.01667 12.6793C6.7182 12.6793 5.61354 12.224 4.70271 11.3133C3.79202 10.4024 3.33667 9.29799 3.33667 7.99993C3.33667 6.70188 3.79202 5.59743 4.70271 4.6866C5.61354 3.7759 6.71799 3.32056 8.01604 3.32056C9.3141 3.32056 10.4185 3.7759 11.3294 4.6866C12.2401 5.59743 12.6954 6.70208 12.6954 8.00056C12.6954 8.54542 12.606 9.06639 12.4271 9.56347C12.2481 10.0607 12.0058 10.5096 11.7002 10.9101L16.2869 15.4968C16.4023 15.6121 16.4613 15.7363 16.464 15.8693C16.4666 16.0024 16.4076 16.1292 16.2869 16.2499C16.1662 16.3706 16.0372 16.431 15.8998 16.431C15.7626 16.431 15.6336 16.3706 15.5129 16.2499L10.9263 11.6841C10.5096 12.0003 10.0527 12.2453 9.55563 12.4189C9.05855 12.5925 8.54556 12.6793 8.01667 12.6793ZM8.01604 11.5962C9.02035 11.5962 9.87077 11.2478 10.5673 10.5512C11.264 9.85465 11.6123 9.00424 11.6123 7.99993C11.6123 6.99563 11.264 6.14521 10.5673 5.44868C9.87077 4.75201 9.02035 4.40368 8.01604 4.40368C7.01174 4.40368 6.16132 4.75201 5.46479 5.44868C4.76813 6.14521 4.41979 6.99563 4.41979 7.99993C4.41979 9.00424 4.76813 9.85465 5.46479 10.5512C6.16132 11.2478 7.01174 11.5962 8.01604 11.5962Z" fill="currentColor"/>
</svg>
