<svg width="16" height="16" viewBox="0 0 16 16" fill="none" xmlns="http://www.w3.org/2000/svg">
<path d="M2.87191 14.3333C2.54047 14.3333 2.25675 14.2153 2.02075 13.9793C1.78475 13.7433 1.66675 13.4595 1.66675 13.1281V7.67426C1.66675 7.43171 1.73153 7.20932 1.86108 7.0071C1.99053 6.80487 2.17019 6.65465 2.40008 6.55643L4.82308 5.5346C5.02397 5.45426 5.2148 5.46932 5.39558 5.57976C5.57636 5.69021 5.66675 5.85593 5.66675 6.07693V6.4936L8.17308 5.48843C8.37397 5.4081 8.56203 5.42832 8.73725 5.5491C8.91247 5.66987 9.00008 5.83598 9.00008 6.04743V6.99993H14.3334V13.1281C14.3334 13.4595 14.2154 13.7433 13.9794 13.9793C13.7434 14.2153 13.4597 14.3333 13.1282 14.3333H2.87191ZM7.41041 11.8461H8.58975V9.4871H7.41041V11.8461ZM4.74375 11.8461H5.92308V9.4871H4.74375V11.8461ZM10.0771 11.8461H11.2564V9.4871H10.0771V11.8461ZM14.2257 6.2051H11.7257L12.2411 2.3781C12.2591 2.24565 12.3184 2.13671 12.4189 2.05126C12.5196 1.96582 12.6355 1.9231 12.7667 1.9231H13.2692C13.3932 1.9231 13.5007 1.9646 13.5916 2.0476C13.6825 2.1306 13.7361 2.23437 13.7526 2.35893L14.2257 6.2051Z" fill="currentColor"/>
</svg>
