<svg width="24" height="24" viewBox="0 0 24 24" fill="none" xmlns="http://www.w3.org/2000/svg">
<path d="M14.9326 6.86523C14.7201 6.86523 14.542 6.7934 14.3981 6.64973C14.2545 6.5059 14.1826 6.32764 14.1826 6.11498C14.1826 5.90248 14.2545 5.72439 14.3981 5.58073C14.542 5.43723 14.7201 5.36548 14.9326 5.36548H20.9326C21.1451 5.36548 21.3232 5.4374 21.4669 5.58123C21.6107 5.7249 21.6826 5.90306 21.6826 6.11573C21.6826 6.32823 21.6107 6.50631 21.4669 6.64998C21.3232 6.79348 21.1451 6.86523 20.9326 6.86523H14.9326ZM14.9326 10.75C14.7201 10.75 14.542 10.6781 14.3981 10.5342C14.2545 10.3904 14.1826 10.2122 14.1826 9.99973C14.1826 9.78706 14.2545 9.60898 14.3981 9.46548C14.542 9.32181 14.7201 9.24998 14.9326 9.24998H20.9326C21.1451 9.24998 21.3232 9.3219 21.4669 9.46573C21.6107 9.60956 21.6826 9.78773 21.6826 10.0002C21.6826 10.2129 21.6107 10.391 21.4669 10.5345C21.3232 10.6781 21.1451 10.75 20.9326 10.75H14.9326ZM14.9326 14.6345C14.7201 14.6345 14.542 14.5626 14.3981 14.4187C14.2545 14.2751 14.1826 14.0969 14.1826 13.8842C14.1826 13.6717 14.2545 13.4936 14.3981 13.35C14.542 13.2065 14.7201 13.1347 14.9326 13.1347H20.9326C21.1451 13.1347 21.3232 13.2066 21.4669 13.3502C21.6107 13.4941 21.6826 13.6723 21.6826 13.885C21.6826 14.0975 21.6107 14.2756 21.4669 14.4192C21.3232 14.5627 21.1451 14.6345 20.9326 14.6345H14.9326ZM7.93489 13.8077C7.20906 13.8077 6.59131 13.5536 6.08164 13.0455C5.57197 12.5373 5.31714 11.9203 5.31714 11.1945C5.31714 10.4686 5.57122 9.85098 6.07939 9.34148C6.58755 8.83181 7.20456 8.57698 7.93039 8.57698C8.65622 8.57698 9.27397 8.83098 9.78364 9.33898C10.2931 9.84715 10.5479 10.4641 10.5479 11.19C10.5479 11.9158 10.2939 12.5336 9.78589 13.0432C9.27772 13.5529 8.66072 13.8077 7.93489 13.8077ZM2.31714 18.5192V17.9077C2.31714 17.6239 2.38606 17.3536 2.52389 17.0967C2.66172 16.8399 2.85181 16.6359 3.09414 16.4847C3.81847 16.0602 4.58289 15.7387 5.38739 15.5202C6.19206 15.3016 7.04047 15.1922 7.93264 15.1922C8.82481 15.1922 9.67314 15.3016 10.4776 15.5202C11.2821 15.7387 12.0466 16.0602 12.7711 16.4847C13.0133 16.6359 13.2033 16.8399 13.3411 17.0967C13.479 17.3536 13.5479 17.6239 13.5479 17.9077V18.5192C13.5479 18.7752 13.4613 18.9899 13.2881 19.1632C13.1148 19.3364 12.9001 19.423 12.6441 19.423H3.22114C2.96497 19.423 2.75031 19.3364 2.57714 19.1632C2.40381 18.9899 2.31714 18.7752 2.31714 18.5192ZM3.90939 17.7692V17.923H11.9556V17.7692C11.3338 17.4166 10.6835 17.1489 10.0046 16.9662C9.32581 16.7836 8.63514 16.6922 7.93264 16.6922C7.22997 16.6922 6.53922 16.7836 5.86039 16.9662C5.18156 17.1489 4.53122 17.4166 3.90939 17.7692ZM7.93264 12.3077C8.24164 12.3077 8.50472 12.1991 8.72189 11.9817C8.93922 11.7644 9.04789 11.5012 9.04789 11.1922C9.04789 10.8832 8.93922 10.6201 8.72189 10.403C8.50472 10.1856 8.24164 10.077 7.93264 10.077C7.62364 10.077 7.36047 10.1856 7.14314 10.403C6.92581 10.6201 6.81714 10.8832 6.81714 11.1922C6.81714 11.5012 6.92581 11.7644 7.14314 11.9817C7.36047 12.1991 7.62364 12.3077 7.93264 12.3077Z" fill="currentColor"/>
</svg>
