<svg width="24" height="24" viewBox="0 0 24 24" fill="none" xmlns="http://www.w3.org/2000/svg">
<path d="M16 8.8845C16.118 8.8845 16.2212 8.84033 16.3095 8.752C16.398 8.6635 16.4423 8.56025 16.4423 8.44225V5.5385C16.4423 5.4205 16.398 5.31725 16.3095 5.22875C16.2212 5.14042 16.118 5.09625 16 5.09625C15.882 5.09625 15.7788 5.14042 15.6905 5.22875C15.602 5.31725 15.5577 5.4205 15.5577 5.5385V8.44225C15.5577 8.56025 15.602 8.6635 15.6905 8.752C15.7788 8.84033 15.882 8.8845 16 8.8845ZM16 10.9423C16.1333 10.9423 16.25 10.8923 16.35 10.7923C16.45 10.6923 16.5 10.5756 16.5 10.4423C16.5 10.3089 16.45 10.1923 16.35 10.0923C16.25 9.99225 16.1333 9.94225 16 9.94225C15.8667 9.94225 15.75 9.99225 15.65 10.0923C15.55 10.1923 15.5 10.3089 15.5 10.4423C15.5 10.5756 15.55 10.6923 15.65 10.7923C15.75 10.8923 15.8667 10.9423 16 10.9423ZM4.25 19.75C4.0375 19.75 3.85942 19.6781 3.71575 19.5343C3.57192 19.3904 3.5 19.2122 3.5 18.9998C3.5 18.7871 3.57192 18.609 3.71575 18.4655C3.85942 18.3218 4.0375 18.25 4.25 18.25H14.25C14.4625 18.25 14.6407 18.3219 14.7845 18.4658C14.9282 18.6096 15 18.7878 15 19.0003C15 19.2129 14.9282 19.391 14.7845 19.5345C14.6407 19.6782 14.4625 19.75 14.25 19.75H4.25ZM16.0015 12.75C14.6877 12.75 13.5673 12.287 12.6405 11.361C11.7135 10.435 11.25 9.31517 11.25 8.0015C11.25 6.68767 11.713 5.56733 12.639 4.6405C13.565 3.7135 14.6848 3.25 15.9985 3.25C17.3123 3.25 18.4327 3.713 19.3595 4.639C20.2865 5.565 20.75 6.68483 20.75 7.9985C20.75 9.31233 20.287 10.4327 19.361 11.3595C18.435 12.2865 17.3152 12.75 16.0015 12.75ZM4.25 11.75C4.0375 11.75 3.85942 11.6781 3.71575 11.5343C3.57192 11.3904 3.5 11.2122 3.5 10.9997C3.5 10.7871 3.57192 10.609 3.71575 10.4655C3.85942 10.3218 4.0375 10.25 4.25 10.25H8.86725C9.07975 10.25 9.25792 10.3215 9.40175 10.4645C9.54542 10.6075 9.61725 10.7847 9.61725 10.996C9.61725 11.1948 9.54542 11.3702 9.40175 11.522C9.25792 11.674 9.07975 11.75 8.86725 11.75H4.25ZM4.25 15.75C4.0375 15.75 3.85942 15.6781 3.71575 15.5343C3.57192 15.3904 3.5 15.2122 3.5 14.9998C3.5 14.7871 3.57192 14.609 3.71575 14.4655C3.85942 14.3218 4.0375 14.25 4.25 14.25H12.502C12.7145 14.25 12.8926 14.3215 13.0363 14.4645C13.1801 14.6075 13.252 14.7847 13.252 14.996C13.252 15.1948 13.1843 15.3702 13.049 15.522C12.9138 15.674 12.7315 15.75 12.502 15.75H4.25Z" fill="currentColor"/>
</svg>
