<svg width="16" height="16" viewBox="0 0 16 16" fill="none" xmlns="http://www.w3.org/2000/svg">
<path d="M8.43335 7.56418V4.43335C8.43335 4.31057 8.39213 4.20763 8.30968 4.12452C8.22724 4.04152 8.12513 4.00002 8.00335 4.00002C7.88146 4.00002 7.77824 4.04152 7.69368 4.12452C7.60902 4.20763 7.56668 4.31057 7.56668 4.43335V7.71802C7.56668 7.79646 7.58124 7.8669 7.61035 7.92935C7.63935 7.99179 7.67952 8.04868 7.73085 8.10002L10.0448 10.4142C10.1388 10.5082 10.2418 10.5535 10.3538 10.55C10.4658 10.5466 10.5701 10.4966 10.6667 10.4C10.7632 10.3035 10.8115 10.2002 10.8115 10.0903C10.8115 9.98057 10.7613 9.87602 10.661 9.77668L8.43335 7.56418ZM8.00118 14.0667C7.16552 14.0667 6.37996 13.9088 5.64452 13.593C4.90918 13.2772 4.26479 12.8427 3.71135 12.2895C3.1579 11.7363 2.72318 11.0913 2.40718 10.3547C2.09129 9.61813 1.93335 8.83107 1.93335 7.99352C1.93335 7.15596 2.09124 6.36846 2.40702 5.63102C2.72279 4.89357 3.15729 4.2509 3.71052 3.70302C4.26374 3.15513 4.90868 2.72318 5.64535 2.40718C6.38191 2.09129 7.16896 1.93335 8.00652 1.93335C8.84407 1.93335 9.63157 2.09257 10.369 2.41102C11.1066 2.72946 11.7481 3.16163 12.2937 3.70752C12.8392 4.25341 13.2711 4.89535 13.5893 5.63335C13.9076 6.37135 14.0667 7.15985 14.0667 7.99885C14.0667 8.83452 13.9088 9.62007 13.593 10.3555C13.2772 11.0908 12.8455 11.7352 12.2978 12.2887C11.7502 12.8421 11.1071 13.2768 10.3685 13.5928C9.62996 13.9087 8.84085 14.0667 8.00118 14.0667Z" fill="currentColor"/>
</svg>
