<svg width="24" height="24" viewBox="0 0 24 24" fill="none" xmlns="http://www.w3.org/2000/svg">
<path d="M12.0001 14.1192L7.72706 18.4019C7.58856 18.5402 7.43373 18.6094 7.26256 18.6094C7.09139 18.6094 6.93656 18.5402 6.79806 18.4019C6.65323 18.2569 6.58081 18.1021 6.58081 17.9374C6.58081 17.7727 6.65323 17.6179 6.79806 17.4729L11.4423 12.8287C11.5193 12.7518 11.6056 12.6942 11.7011 12.6557C11.7966 12.6172 11.8962 12.5979 12.0001 12.5979C12.1039 12.5979 12.2036 12.6172 12.2991 12.6557C12.3946 12.6942 12.4808 12.7518 12.5578 12.8287L17.2021 17.4729C17.3404 17.6114 17.4096 17.7621 17.4096 17.9249C17.4096 18.0877 17.3404 18.2384 17.2021 18.3769C17.0571 18.5217 16.9022 18.5942 16.7376 18.5942C16.5729 18.5942 16.4181 18.5217 16.2731 18.3769L12.0001 14.1192ZM12.0001 6.99415L7.72706 11.2769C7.58856 11.4152 7.43373 11.4844 7.26256 11.4844C7.09139 11.4844 6.93656 11.4152 6.79806 11.2769C6.65323 11.1319 6.58081 10.9771 6.58081 10.8124C6.58081 10.6477 6.65323 10.4929 6.79806 10.3479L11.4423 5.70365C11.5193 5.62682 11.6056 5.56915 11.7011 5.53065C11.7966 5.49215 11.8962 5.4729 12.0001 5.4729C12.1039 5.4729 12.2036 5.49215 12.2991 5.53065C12.3946 5.56915 12.4808 5.62682 12.5578 5.70365L17.2021 10.3479C17.3404 10.4864 17.4096 10.6371 17.4096 10.7999C17.4096 10.9627 17.3404 11.1134 17.2021 11.2519C17.0571 11.3967 16.9022 11.4692 16.7376 11.4692C16.5729 11.4692 16.4181 11.3967 16.2731 11.2519L12.0001 6.99415Z" fill="currentColor"/>
</svg>
