<svg width="24" height="24" viewBox="0 0 24 24" fill="none" xmlns="http://www.w3.org/2000/svg">
<path d="M12 11.0537L7.92701 15.127C7.78851 15.2653 7.61443 15.3362 7.40476 15.3395C7.19526 15.3427 7.01801 15.2718 6.87301 15.127C6.72818 14.982 6.65576 14.8063 6.65576 14.6C6.65576 14.3937 6.72818 14.218 6.87301 14.073L11.3673 9.57874C11.4609 9.48524 11.5597 9.41924 11.6635 9.38074C11.7673 9.34224 11.8795 9.32299 12 9.32299C12.1205 9.32299 12.2327 9.34224 12.3365 9.38074C12.4403 9.41924 12.5391 9.48524 12.6328 9.57874L17.127 14.073C17.2653 14.2115 17.3362 14.3856 17.3395 14.5952C17.3427 14.8047 17.2718 14.982 17.127 15.127C16.982 15.2718 16.8063 15.3442 16.6 15.3442C16.3937 15.3442 16.218 15.2718 16.073 15.127L12 11.0537Z" fill="currentColor"/>
</svg>
