<svg width="16" height="16" viewBox="0 0 16 16" fill="none" xmlns="http://www.w3.org/2000/svg">
<path d="M8.00009 7.36904L5.28476 10.0845C5.19242 10.1768 5.07637 10.224 4.93659 10.2262C4.79692 10.2283 4.67876 10.1811 4.58209 10.0845C4.48553 9.98787 4.43726 9.87076 4.43726 9.7332C4.43726 9.59565 4.48553 9.47854 4.58209 9.38187L7.57826 6.3857C7.6407 6.32337 7.70653 6.27937 7.77576 6.2537C7.84498 6.22804 7.91976 6.2152 8.00009 6.2152C8.08042 6.2152 8.1552 6.22804 8.22442 6.2537C8.29365 6.27937 8.35948 6.32337 8.42192 6.3857L11.4181 9.38187C11.5103 9.4742 11.5575 9.59026 11.5598 9.73004C11.5619 9.8697 11.5146 9.98787 11.4181 10.0845C11.3214 10.1811 11.2043 10.2294 11.0668 10.2294C10.9292 10.2294 10.8121 10.1811 10.7154 10.0845L8.00009 7.36904Z" fill="currentColor"/>
</svg>
