<svg width="16" height="16" viewBox="0 0 16 16" fill="none" xmlns="http://www.w3.org/2000/svg">
<path d="M0.910374 11.859C0.74693 11.859 0.609874 11.8037 0.499207 11.6932C0.388652 11.5825 0.333374 11.4454 0.333374 11.282V11.0462C0.333374 10.6026 0.564985 10.2383 1.02821 9.95316C1.49154 9.66816 2.09543 9.52566 2.83987 9.52566C2.96287 9.52566 3.08676 9.52949 3.21154 9.53716C3.33632 9.54483 3.46198 9.55977 3.58854 9.58199C3.45865 9.78977 3.36226 10.0054 3.29937 10.2288C3.2366 10.4524 3.20521 10.6817 3.20521 10.9167V11.859H0.910374ZM4.93854 11.859C4.76498 11.859 4.62076 11.8012 4.50587 11.6857C4.39087 11.5702 4.33337 11.4271 4.33337 11.2563V10.9423C4.33337 10.6302 4.42098 10.3449 4.59621 10.0865C4.77143 9.82794 5.02398 9.60255 5.35387 9.41033C5.68376 9.21799 6.07354 9.07377 6.52321 8.97766C6.97276 8.88144 7.46421 8.83333 7.99754 8.83333C8.5411 8.83333 9.03765 8.88144 9.48721 8.97766C9.93676 9.07377 10.3265 9.21799 10.6564 9.41033C10.9864 9.60255 11.2373 9.82794 11.409 10.0865C11.5808 10.3449 11.6667 10.6302 11.6667 10.9423V11.2563C11.6667 11.4271 11.6089 11.5702 11.4934 11.6857C11.3779 11.8012 11.2348 11.859 11.064 11.859H4.93854ZM12.7949 11.859V10.9175C12.7949 10.6665 12.7652 10.4303 12.7059 10.209C12.6464 9.98766 12.5573 9.77866 12.4385 9.58199C12.5693 9.55977 12.6943 9.54483 12.8135 9.53716C12.9328 9.52949 13.0505 9.52566 13.1667 9.52566C13.9112 9.52566 14.5139 9.66649 14.975 9.94816C15.4362 10.2297 15.6667 10.5957 15.6667 11.0462V11.282C15.6667 11.4454 15.6114 11.5825 15.5009 11.6932C15.3902 11.8037 15.2532 11.859 15.0897 11.859H12.7949ZM5.38471 10.859H10.6257V10.7885C10.5574 10.5193 10.2736 10.2928 9.77437 10.109C9.27526 9.92522 8.68382 9.83333 8.00004 9.83333C7.31626 9.83333 6.72482 9.92522 6.22571 10.109C5.72648 10.2928 5.44615 10.5193 5.38471 10.7885V10.859ZM2.83804 8.87816C2.52382 8.87816 2.25537 8.76644 2.03271 8.54299C1.81004 8.31955 1.69871 8.05094 1.69871 7.73716C1.69871 7.41927 1.81049 7.15072 2.03404 6.93149C2.25749 6.71227 2.5261 6.60266 2.83987 6.60266C3.15776 6.60266 3.42737 6.71227 3.64871 6.93149C3.87015 7.15072 3.98087 7.41994 3.98087 7.73916C3.98087 8.04894 3.87132 8.31622 3.65221 8.54099C3.43321 8.76577 3.16182 8.87816 2.83804 8.87816ZM13.1667 8.87816C12.8556 8.87816 12.5877 8.76577 12.3629 8.54099C12.1381 8.31622 12.0257 8.04894 12.0257 7.73916C12.0257 7.41994 12.1381 7.15072 12.3629 6.93149C12.5877 6.71227 12.856 6.60266 13.1679 6.60266C13.4893 6.60266 13.7597 6.71227 13.9789 6.93149C14.1981 7.15072 14.3077 7.41927 14.3077 7.73716C14.3077 8.05094 14.1984 8.31955 13.9797 8.54299C13.761 8.76644 13.49 8.87816 13.1667 8.87816ZM8.00237 8.33333C7.52215 8.33333 7.11326 8.16505 6.77571 7.82849C6.43815 7.49205 6.26937 7.08344 6.26937 6.60266C6.26937 6.11221 6.4376 5.70116 6.77404 5.36949C7.1106 5.03771 7.51926 4.87183 8.00004 4.87183C8.49037 4.87183 8.90143 5.03749 9.23321 5.36883C9.56487 5.70005 9.73071 6.11055 9.73071 6.60033C9.73071 7.08044 9.5651 7.48933 9.23387 7.82699C8.90254 8.16455 8.49204 8.33333 8.00237 8.33333ZM8.00321 7.33333C8.2071 7.33333 8.37932 7.26199 8.51987 7.11933C8.66054 6.97655 8.73087 6.80322 8.73087 6.59933C8.73087 6.39555 8.66082 6.22333 8.52071 6.08266C8.3806 5.9421 8.20704 5.87183 8.00004 5.87183C7.79837 5.87183 7.62615 5.94188 7.48337 6.08199C7.3406 6.22199 7.26921 6.39555 7.26921 6.60266C7.26921 6.80433 7.3406 6.97655 7.48337 7.11933C7.62615 7.26199 7.79943 7.33333 8.00321 7.33333Z" fill="currentColor"/>
</svg>
