<svg width="20" height="20" viewBox="0 0 20 20" fill="none" xmlns="http://www.w3.org/2000/svg">
<path d="M9.37182 14.803C9.3621 15.1992 9.39571 15.5905 9.47265 15.9767C9.5496 16.363 9.66446 16.7319 9.81723 17.0834C9.18265 17.0748 8.48557 17.012 7.72598 16.8951C6.96626 16.7781 6.248 16.6011 5.57119 16.3638C4.89439 16.1266 4.30946 15.8264 3.8164 15.4632C3.32334 15.1 3.02341 14.6679 2.91661 14.1667V11.899C3.01814 12.3606 3.29216 12.7661 3.73869 13.1155C4.18536 13.4648 4.71744 13.7594 5.33494 13.9992C5.95244 14.2391 6.61939 14.4253 7.33578 14.5578C8.05203 14.6903 8.73071 14.772 9.37182 14.803ZM11.2595 10.7645C10.8781 11.07 10.5475 11.4204 10.2677 11.8157C9.98765 12.211 9.77078 12.6458 9.61703 13.1203C8.96522 13.1032 8.26939 13.0306 7.52953 12.9024C6.7898 12.7742 6.09515 12.5915 5.44557 12.3542C4.79598 12.117 4.23883 11.8211 3.77411 11.4663C3.30925 11.1117 3.02341 10.6952 2.91661 10.2165V7.94071C3.02341 8.45043 3.33619 8.88904 3.85494 9.25654C4.37369 9.62404 4.98348 9.92633 5.68432 10.1634C6.38515 10.4006 7.1239 10.5756 7.90057 10.6884C8.67723 10.8011 9.37703 10.8574 9.99994 10.8574C10.2115 10.8574 10.4211 10.8486 10.6289 10.8309C10.8368 10.8133 11.047 10.7911 11.2595 10.7645ZM9.99994 9.16675C8.02883 9.16675 6.35418 8.86175 4.97598 8.25175C3.59779 7.64161 2.90869 6.90494 2.90869 6.04175C2.90869 5.17855 3.59779 4.44189 4.97598 3.83175C6.35418 3.22175 8.02883 2.91675 9.99994 2.91675C11.9711 2.91675 13.6444 3.22175 15.0199 3.83175C16.3955 4.44189 17.0833 5.17855 17.0833 6.04175C17.0833 6.90494 16.3955 7.64161 15.0199 8.25175C13.6444 8.86175 11.9711 9.16675 9.99994 9.16675ZM14.5512 13.8351V16.883C14.5512 16.9834 14.5875 17.07 14.6602 17.1428C14.7328 17.2154 14.8193 17.2517 14.9197 17.2517C15.0202 17.2517 15.1067 17.2154 15.1793 17.1428C15.2521 17.07 15.2885 16.9834 15.2885 16.883V13.8351L16.5287 15.0753C16.6013 15.1481 16.6865 15.1858 16.7843 15.1884C16.8821 15.1911 16.97 15.1533 17.0481 15.0753C17.126 14.9974 17.1649 14.9108 17.1649 14.8157C17.1649 14.7207 17.126 14.6342 17.0481 14.5561L15.447 12.9553C15.2963 12.8046 15.1206 12.7292 14.9197 12.7292C14.7189 12.7292 14.5432 12.8046 14.3927 12.9553L12.7916 14.5561C12.719 14.6288 12.6813 14.714 12.6787 14.8117C12.6759 14.9095 12.7136 14.9974 12.7916 15.0753C12.8697 15.1533 12.9562 15.1924 13.0512 15.1924C13.1463 15.1924 13.2329 15.1533 13.3108 15.0753L14.5512 13.8351ZM14.9197 18.5899C13.8792 18.5899 12.994 18.225 12.2643 17.4953C11.5347 16.7656 11.1699 15.8804 11.1699 14.8399C11.1699 13.7992 11.5347 12.914 12.2643 12.1845C12.994 11.4547 13.8792 11.0899 14.9197 11.0899C15.9604 11.0899 16.8456 11.4547 17.5752 12.1845C18.3049 12.914 18.6697 13.7992 18.6697 14.8399C18.6697 15.8804 18.3049 16.7656 17.5752 17.4953C16.8456 18.225 15.9604 18.5899 14.9197 18.5899Z" fill="currentColor"/>
</svg>
