<svg width="16" height="16" viewBox="0 0 16 16" fill="none" xmlns="http://www.w3.org/2000/svg">
<path d="M7.99999 14.3334C7.21366 14.3334 6.47694 14.1847 5.78983 13.8873C5.10261 13.5898 4.50344 13.1856 3.99233 12.6744C3.48122 12.1633 3.07694 11.5642 2.77949 10.8769C2.48205 10.1898 2.33333 9.45311 2.33333 8.66678C2.33333 8.52489 2.38122 8.40611 2.47699 8.31044C2.57266 8.21467 2.69144 8.16678 2.83333 8.16678C2.97522 8.16678 3.09399 8.21467 3.18966 8.31044C3.28544 8.40611 3.33333 8.52489 3.33333 8.66678C3.33333 9.96678 3.78611 11.0696 4.69166 11.9751C5.59722 12.8807 6.69999 13.3334 7.99999 13.3334C9.29999 13.3334 10.4028 12.8807 11.3083 11.9751C12.2139 11.0696 12.6667 9.96678 12.6667 8.66678C12.6667 7.36678 12.2139 6.264 11.3083 5.35844C10.4028 4.45289 9.29999 4.00011 7.99999 4.00011H7.82299L8.53083 4.70778C8.62994 4.807 8.67883 4.92305 8.67749 5.05594C8.67627 5.18883 8.62738 5.30694 8.53083 5.41028C8.42738 5.51372 8.30855 5.56717 8.17433 5.57061C8.04022 5.57405 7.92144 5.52405 7.81799 5.42061L6.31933 3.91544C6.19877 3.795 6.13849 3.65444 6.13849 3.49378C6.13849 3.333 6.19877 3.19239 6.31933 3.07194L7.83083 1.56678C7.92994 1.46767 8.04766 1.41872 8.18399 1.41994C8.32033 1.42128 8.44022 1.47367 8.54366 1.57711C8.64022 1.68044 8.69022 1.7975 8.69366 1.92828C8.69699 2.05906 8.64699 2.17617 8.54366 2.27961L7.82299 3.00011H7.99999C8.78633 3.00011 9.52305 3.14883 10.2102 3.44628C10.8974 3.74372 11.4966 4.148 12.0077 4.65911C12.5188 5.17022 12.923 5.76939 13.2205 6.45661C13.5179 7.14372 13.6667 7.88044 13.6667 8.66678C13.6667 9.45311 13.5179 10.1898 13.2205 10.8769C12.923 11.5642 12.5188 12.1633 12.0077 12.6744C11.4966 13.1856 10.8974 13.5898 10.2102 13.8873C9.52305 14.1847 8.78633 14.3334 7.99999 14.3334Z" fill="#1F1F1F"/>
</svg>
