<svg width="20" height="20" viewBox="0 0 20 20" fill="none" xmlns="http://www.w3.org/2000/svg">
<path d="M10.7886 10.0001L7.39418 6.60588C7.2789 6.49047 7.21987 6.3454 7.21709 6.17068C7.21445 5.99609 7.27348 5.84838 7.39418 5.72755C7.51501 5.60686 7.6614 5.54651 7.83334 5.54651C8.00529 5.54651 8.15168 5.60686 8.27251 5.72755L12.0177 9.47276C12.0956 9.55082 12.1506 9.63311 12.1827 9.71963C12.2148 9.80616 12.2308 9.89963 12.2308 10.0001C12.2308 10.1005 12.2148 10.1939 12.1827 10.2805C12.1506 10.367 12.0956 10.4493 12.0177 10.5273L8.27251 14.2726C8.15709 14.3878 8.01202 14.4469 7.8373 14.4496C7.66272 14.4523 7.51501 14.3932 7.39418 14.2726C7.27348 14.1517 7.21313 14.0053 7.21313 13.8334C7.21313 13.6614 7.27348 13.5151 7.39418 13.3942L10.7886 10.0001Z" fill="currentColor"/>
</svg>
