<svg width="20" height="20" viewBox="0 0 20 20" fill="none" xmlns="http://www.w3.org/2000/svg">
<path d="M10.0013 10.6257C9.24922 10.6257 8.60977 10.3624 8.08297 9.8357C7.5563 9.3089 7.29297 8.66945 7.29297 7.91737C7.29297 7.16529 7.5563 6.52584 8.08297 5.99904C8.60977 5.47237 9.24922 5.20904 10.0013 5.20904C10.7534 5.20904 11.3928 5.47237 11.9196 5.99904C12.4463 6.52584 12.7096 7.16529 12.7096 7.91737C12.7096 8.66945 12.4463 9.3089 11.9196 9.8357C11.3928 10.3624 10.7534 10.6257 10.0013 10.6257ZM10.0013 9.3757C10.402 9.3757 10.7452 9.23279 11.0309 8.94695C11.3167 8.66126 11.4596 8.31807 11.4596 7.91737C11.4596 7.51668 11.3167 7.17348 11.0309 6.88779C10.7452 6.60195 10.402 6.45904 10.0013 6.45904C9.60061 6.45904 9.25741 6.60195 8.97172 6.88779C8.68589 7.17348 8.54297 7.51668 8.54297 7.91737C8.54297 8.31807 8.68589 8.66126 8.97172 8.94695C9.25741 9.23279 9.60061 9.3757 10.0013 9.3757ZM3.63755 14.374C3.40894 14.2374 3.23186 14.0547 3.1063 13.8259C2.98075 13.5973 2.91797 13.3506 2.91797 13.0857V6.9157C2.91797 6.65084 2.98075 6.40411 3.1063 6.1755C3.23186 5.94675 3.40894 5.76404 3.63755 5.62737L9.21443 2.21237C9.46012 2.06167 9.72241 1.98633 10.0013 1.98633C10.2802 1.98633 10.5425 2.06167 10.7882 2.21237L16.3651 5.62737C16.5937 5.76404 16.7707 5.94675 16.8963 6.1755C17.0219 6.40411 17.0846 6.65084 17.0846 6.9157V13.0857C17.0846 13.3506 17.0219 13.5973 16.8963 13.8259C16.7707 14.0547 16.5937 14.2374 16.3651 14.374L10.7882 17.789C10.5425 17.9397 10.2802 18.0151 10.0013 18.0151C9.72241 18.0151 9.46012 17.9397 9.21443 17.789L3.63755 14.374ZM10.0013 13.959C9.43075 13.959 8.86901 14.0309 8.31609 14.1747C7.76332 14.3183 7.23741 14.5284 6.73839 14.8051L9.86505 16.733C9.90783 16.7598 9.95325 16.7732 10.0013 16.7732C10.0494 16.7732 10.0948 16.7598 10.1376 16.733L13.2642 14.8051C12.7652 14.5284 12.2393 14.3183 11.6865 14.1747C11.1336 14.0309 10.5719 13.959 10.0013 13.959ZM5.53505 14.0663C6.20269 13.6316 6.91498 13.2967 7.67193 13.0615C8.42887 12.8265 9.20533 12.709 10.0013 12.709C10.7973 12.709 11.5737 12.8265 12.3307 13.0615C13.0876 13.2967 13.7999 13.6316 14.4676 14.0663L15.7144 13.3228C15.7572 13.2961 15.7879 13.2641 15.8065 13.2267C15.8253 13.1892 15.8346 13.1492 15.8346 13.1065V6.9157C15.8346 6.87306 15.8253 6.833 15.8065 6.7955C15.7879 6.75813 15.7572 6.72612 15.7144 6.69945L10.1376 3.28924C10.0948 3.26244 10.0494 3.24904 10.0013 3.24904C9.95325 3.24904 9.90783 3.26244 9.86505 3.28924L4.28818 6.69945C4.2454 6.72612 4.21471 6.75813 4.19609 6.7955C4.17734 6.833 4.16797 6.87306 4.16797 6.9157V13.1065C4.16797 13.1492 4.17734 13.1892 4.19609 13.2267C4.21471 13.2641 4.2454 13.2961 4.28818 13.3228L5.53505 14.0663Z" fill="currentColor"/>
</svg>
