<svg width="24" height="24" viewBox="0 0 24 24" fill="none" xmlns="http://www.w3.org/2000/svg">
<path d="M18.5882 19.9796V16.5945H5.41176V19.9796C5.41176 20.08 5.4389 20.1624 5.49318 20.2269C5.54745 20.2913 5.61686 20.3235 5.70141 20.3235H18.2986C18.3831 20.3235 18.4525 20.2913 18.5068 20.2269C18.5611 20.1624 18.5882 20.08 18.5882 19.9796ZM18.5882 14.918V10.082H5.41176V14.918H18.5882ZM18.5882 8.4055V5.02043C18.5882 4.92002 18.5611 4.8376 18.5068 4.77315C18.4525 4.7087 18.3831 4.67647 18.2986 4.67647H5.70141C5.61686 4.67647 5.54745 4.7087 5.49318 4.77315C5.4389 4.8376 5.41176 4.92002 5.41176 5.02043V8.4055H18.5882ZM5.70141 22C5.22596 22 4.82353 21.8044 4.49412 21.4132C4.16471 21.0221 4 20.5442 4 19.9796V5.02043C4 4.45583 4.16471 3.97794 4.49412 3.58676C4.82353 3.19559 5.22596 3 5.70141 3H18.2986C18.774 3 19.1765 3.19559 19.5059 3.58676C19.8353 3.97794 20 4.45583 20 5.02043V19.9796C20 20.5442 19.8353 21.0221 19.5059 21.4132C19.1765 21.8044 18.774 22 18.2986 22H5.70141Z" fill="currentColor"/>
</svg>
