<svg width="20" height="20" viewBox="0 0 20 20" fill="none" xmlns="http://www.w3.org/2000/svg">
<path d="M12.3589 10L6.08164 3.72273C5.91608 3.55717 5.83546 3.36009 5.83976 3.13148C5.84407 2.90287 5.929 2.70571 6.09456 2.54002C6.26011 2.37446 6.45719 2.29169 6.68581 2.29169C6.91442 2.29169 7.11157 2.37446 7.27726 2.54002L13.6571 8.93273C13.8076 9.08342 13.9192 9.25224 13.9918 9.43919C14.0646 9.62613 14.101 9.81308 14.101 10C14.101 10.187 14.0646 10.3739 13.9918 10.5609C13.9192 10.7478 13.8076 10.9166 13.6571 11.0673L7.26435 17.46C7.09879 17.6256 6.90386 17.7062 6.67955 17.7019C6.45511 17.6976 6.26011 17.6127 6.09456 17.4471C5.929 17.2815 5.84622 17.0845 5.84622 16.8559C5.84622 16.6272 5.929 16.4301 6.09456 16.2644L12.3589 10Z" fill="currentColor"/>
</svg>
