<svg width="20" height="20" viewBox="0 0 20 20" fill="none" xmlns="http://www.w3.org/2000/svg">
<path d="M7.08654 10L8.43925 8.6475C8.56314 8.52347 8.62425 8.3784 8.62258 8.21229C8.62105 8.04618 8.55994 7.89847 8.43925 7.76917C8.30994 7.64 8.1614 7.57326 7.99362 7.56896C7.82598 7.56465 7.67751 7.62715 7.54821 7.75646L5.83175 9.47271C5.68119 9.6234 5.60591 9.79917 5.60591 10C5.60591 10.2008 5.68119 10.3766 5.83175 10.5273L7.54821 12.2435C7.6721 12.3674 7.81925 12.4286 7.98967 12.4271C8.16008 12.4254 8.30994 12.36 8.43925 12.2308C8.55994 12.1015 8.62244 11.9551 8.62675 11.7917C8.63091 11.6282 8.56841 11.4818 8.43925 11.3525L7.08654 10ZM12.9136 10L11.5609 11.3525C11.437 11.4765 11.3759 11.6216 11.3776 11.7877C11.3791 11.9538 11.4402 12.1015 11.5609 12.2308C11.6902 12.36 11.8388 12.4267 12.0065 12.431C12.1742 12.4353 12.3227 12.3728 12.452 12.2435L14.1684 10.5273C14.319 10.3766 14.3942 10.2008 14.3942 10C14.3942 9.79917 14.319 9.6234 14.1684 9.47271L12.452 7.75646C12.3281 7.63257 12.1809 7.57139 12.0105 7.57292C11.8401 7.57458 11.6902 7.64 11.5609 7.76917C11.4402 7.89847 11.3777 8.04486 11.3734 8.20833C11.3692 8.37181 11.4317 8.51819 11.5609 8.6475L12.9136 10ZM4.42321 17.0833C4.00765 17.0833 3.65265 16.9362 3.35821 16.6419C3.0639 16.3474 2.91675 15.9924 2.91675 15.5769V4.42312C2.91675 4.00757 3.0639 3.65257 3.35821 3.35812C3.65265 3.06382 4.00765 2.91667 4.42321 2.91667H8.13154C8.1839 2.45403 8.38585 2.06062 8.73737 1.73646C9.08876 1.41215 9.50967 1.25 10.0001 1.25C10.4958 1.25 10.9194 1.41215 11.2709 1.73646C11.6224 2.06062 11.8217 2.45403 11.8686 2.91667H15.577C15.9925 2.91667 16.3475 3.06382 16.642 3.35812C16.9363 3.65257 17.0834 4.00757 17.0834 4.42312V15.5769C17.0834 15.9924 16.9363 16.3474 16.642 16.6419C16.3475 16.9362 15.9925 17.0833 15.577 17.0833H4.42321ZM10.0001 3.62187C10.1806 3.62187 10.3299 3.56285 10.448 3.44479C10.5661 3.32674 10.6251 3.17743 10.6251 2.99687C10.6251 2.81632 10.5661 2.66701 10.448 2.54896C10.3299 2.4309 10.1806 2.37187 10.0001 2.37187C9.81953 2.37187 9.67022 2.4309 9.55217 2.54896C9.43411 2.66701 9.37508 2.81632 9.37508 2.99687C9.37508 3.17743 9.43411 3.32674 9.55217 3.44479C9.67022 3.56285 9.81953 3.62187 10.0001 3.62187Z" fill="currentColor"/>
</svg>
