<svg width="24" height="24" viewBox="0 0 24 24" fill="none" xmlns="http://www.w3.org/2000/svg">
<path d="M10.5001 14.5443L4.06159 20.9828C3.92309 21.1211 3.75067 21.1887 3.54434 21.1856C3.338 21.1824 3.16559 21.1116 3.02709 20.9731C2.88859 20.8346 2.81934 20.66 2.81934 20.4493C2.81934 20.2386 2.88859 20.0651 3.02709 19.9288L9.45584 13.5001H5.25009C5.03759 13.5001 4.8595 13.4281 4.71584 13.2843C4.572 13.1405 4.50009 12.9623 4.50009 12.7498C4.50009 12.5371 4.572 12.3591 4.71584 12.2156C4.8595 12.0719 5.03759 12.0001 5.25009 12.0001H11.0963C11.3523 12.0001 11.567 12.0866 11.7403 12.2598C11.9135 12.4331 12.0001 12.6478 12.0001 12.9038V18.7501C12.0001 18.9626 11.9282 19.1406 11.7843 19.2843C11.6405 19.4281 11.4623 19.5001 11.2498 19.5001C11.0372 19.5001 10.8591 19.4281 10.7156 19.2843C10.5719 19.1406 10.5001 18.9626 10.5001 18.7501V14.5443ZM14.5443 10.5001H18.7501C18.9626 10.5001 19.1407 10.572 19.2843 10.7158C19.4282 10.8596 19.5001 11.0378 19.5001 11.2503C19.5001 11.463 19.4282 11.6411 19.2843 11.7846C19.1407 11.9282 18.9626 12.0001 18.7501 12.0001H12.9038C12.6478 12.0001 12.4332 11.9135 12.2598 11.7403C12.0867 11.567 12.0001 11.3523 12.0001 11.0963V5.25006C12.0001 5.03756 12.072 4.85948 12.2158 4.71581C12.3597 4.57198 12.5378 4.50006 12.7503 4.50006C12.963 4.50006 13.1411 4.57198 13.2846 4.71581C13.4283 4.85948 13.5001 5.03756 13.5001 5.25006V9.45581L19.9386 3.01731C20.0749 2.87898 20.2484 2.80981 20.4591 2.80981C20.6698 2.80981 20.8443 2.87898 20.9828 3.01731C21.1212 3.15581 21.1903 3.3304 21.1903 3.54106C21.1903 3.75173 21.1212 3.92523 20.9828 4.06156L14.5443 10.5001Z" fill="currentColor"/>
</svg>
