<svg width="20" height="20" viewBox="0 0 20 20" fill="none" xmlns="http://www.w3.org/2000/svg">
<path d="M9.07533 12.6153L12.5399 10.3141C12.6542 10.236 12.7114 10.1313 12.7114 9.99992C12.7114 9.86853 12.6542 9.76381 12.5399 9.68575L9.07533 7.3845C8.94714 7.29797 8.81811 7.28922 8.68825 7.35825C8.55839 7.42714 8.49346 7.53686 8.49346 7.68742V12.3143C8.49346 12.4647 8.55839 12.5742 8.68825 12.6426C8.81811 12.711 8.94714 12.7019 9.07533 12.6153ZM10.0014 17.9166C8.90638 17.9166 7.87714 17.7092 6.91367 17.2945C5.9502 16.8799 5.11214 16.3171 4.3995 15.6062C3.68686 14.8953 3.12263 14.0594 2.70679 13.0985C2.2911 12.1375 2.08325 11.11 2.08325 10.016C2.08325 9.58221 2.11797 9.1511 2.18742 8.72263C2.25686 8.29429 2.35839 7.8702 2.492 7.45034C2.54534 7.28145 2.65297 7.16547 2.81492 7.10242C2.97672 7.0395 3.13165 7.04756 3.27971 7.12659C3.43832 7.20561 3.55075 7.32874 3.617 7.49596C3.68311 7.66318 3.6895 7.8354 3.63617 8.01263C3.54297 8.33749 3.46915 8.6661 3.41471 8.99846C3.3604 9.33068 3.33325 9.6645 3.33325 9.99992C3.33325 11.861 3.97909 13.4374 5.27075 14.7291C6.56242 16.0208 8.13881 16.6666 9.99992 16.6666C11.861 16.6666 13.4374 16.0208 14.7291 14.7291C16.0208 13.4374 16.6666 11.861 16.6666 9.99992C16.6666 8.13881 16.0208 6.56242 14.7291 5.27075C13.4374 3.97909 11.861 3.33325 9.99992 3.33325C9.65839 3.33325 9.3204 3.35888 8.98596 3.41013C8.65165 3.46138 8.32082 3.53832 7.99346 3.64096C7.8161 3.69443 7.64735 3.68881 7.48721 3.62409C7.32693 3.5595 7.20888 3.44971 7.13304 3.29471C7.05707 3.13985 7.0536 2.98283 7.12263 2.82367C7.19152 2.6645 7.3077 2.55818 7.47117 2.50471C7.86645 2.36263 8.2729 2.25686 8.69054 2.18742C9.10832 2.11797 9.52929 2.08325 9.95346 2.08325C11.0536 2.08325 12.0874 2.28999 13.0549 2.70346C14.0226 3.11693 14.8653 3.68131 15.5833 4.39658C16.3012 5.11186 16.8695 5.95082 17.2883 6.91346C17.7071 7.8761 17.9166 8.90464 17.9166 9.99908C17.9166 11.0937 17.7088 12.1227 17.2933 13.0862C16.8777 14.0496 16.3137 14.8877 15.6014 15.6003C14.889 16.313 14.0513 16.8772 13.0883 17.293C12.1252 17.7087 11.0962 17.9166 10.0014 17.9166ZM4.7595 5.75304C4.48714 5.75304 4.25346 5.65561 4.05846 5.46075C3.86346 5.26575 3.76596 5.032 3.76596 4.7595C3.76596 4.48714 3.86346 4.25346 4.05846 4.05846C4.25346 3.86346 4.48714 3.76596 4.7595 3.76596C5.032 3.76596 5.26575 3.86346 5.46075 4.05846C5.65561 4.25346 5.75304 4.48714 5.75304 4.7595C5.75304 5.032 5.65561 5.26575 5.46075 5.46075C5.26575 5.65561 5.032 5.75304 4.7595 5.75304Z" fill="currentColor"/>
</svg>
