<svg width="20" height="20" viewBox="0 0 20 20" fill="none" xmlns="http://www.w3.org/2000/svg">
<path d="M14.2275 13.412C14.2275 14.5688 13.8256 15.5532 13.0217 16.3653C12.2178 17.1774 11.2386 17.5834 10.0842 17.5834C8.91378 17.5834 7.92927 17.1605 7.13066 16.3147C6.33204 15.469 5.93274 14.4528 5.93274 13.2661V5.37821C5.93274 4.55557 6.21802 3.85633 6.78857 3.2805C7.35899 2.70467 8.05552 2.41675 8.87816 2.41675C9.71468 2.41675 10.4148 2.72203 10.9784 3.33258C11.542 3.94314 11.8238 4.67362 11.8238 5.52404V12.928C11.8238 13.4108 11.6556 13.8234 11.3192 14.1659C10.9828 14.5083 10.5729 14.6795 10.0894 14.6795C9.59399 14.6795 9.17802 14.5015 8.84149 14.1457C8.50496 13.7899 8.3367 13.3562 8.3367 12.8447V5.86237C8.3367 5.7089 8.38816 5.58022 8.49107 5.47633C8.59413 5.37258 8.72184 5.32071 8.8742 5.32071C9.02642 5.32071 9.15545 5.37258 9.26128 5.47633C9.36698 5.58022 9.41982 5.7089 9.41982 5.86237V12.928C9.41982 13.1152 9.48309 13.2734 9.60962 13.4026C9.73614 13.5317 9.89302 13.5963 10.0802 13.5963C10.2673 13.5963 10.4241 13.5317 10.5507 13.4026C10.6772 13.2734 10.7404 13.1152 10.7404 12.928V5.37029C10.7457 4.8521 10.5667 4.41084 10.2034 4.04654C9.84003 3.68223 9.39698 3.50008 8.8742 3.50008C8.35392 3.50008 7.91413 3.6905 7.55482 4.07133C7.19566 4.4523 7.01607 4.90182 7.01607 5.41987V13.412C7.02135 14.2667 7.321 14.9915 7.91503 15.5865C8.50906 16.1817 9.23309 16.4862 10.0871 16.5001C10.9407 16.514 11.6664 16.206 12.264 15.5761C12.8615 14.9464 13.1549 14.1903 13.1442 13.3078V5.86237C13.1442 5.7089 13.1957 5.58022 13.2988 5.47633C13.4018 5.37258 13.5295 5.32071 13.6819 5.32071C13.8341 5.32071 13.9632 5.37258 14.069 5.47633C14.1747 5.58022 14.2275 5.7089 14.2275 5.86237V13.412Z" fill="currentColor"/>
</svg>
