<svg width="16" height="16" viewBox="0 0 16 16" fill="none" xmlns="http://www.w3.org/2000/svg">
<path d="M5.66909 8L6.75125 6.918C6.85036 6.81878 6.89925 6.70272 6.89792 6.56983C6.8967 6.43694 6.84781 6.31878 6.75125 6.21533C6.64781 6.112 6.52897 6.05861 6.39475 6.05517C6.26064 6.05172 6.14186 6.10172 6.03842 6.20517L4.66525 7.57817C4.54481 7.69872 4.48459 7.83933 4.48459 8C4.48459 8.16067 4.54481 8.30128 4.66525 8.42183L6.03842 9.79483C6.13753 9.89394 6.25525 9.94289 6.39158 9.94167C6.52792 9.94033 6.64781 9.888 6.75125 9.78467C6.84781 9.68122 6.89781 9.56411 6.90125 9.43333C6.90458 9.30256 6.85458 9.18544 6.75125 9.082L5.66909 8ZM10.3308 8L9.24858 9.082C9.14947 9.18122 9.10058 9.29728 9.10192 9.43017C9.10314 9.56306 9.15203 9.68122 9.24858 9.78467C9.35203 9.888 9.47086 9.94139 9.60508 9.94483C9.7392 9.94828 9.85797 9.89828 9.96142 9.79483L11.3346 8.42183C11.455 8.30128 11.5153 8.16067 11.5153 8C11.5153 7.83933 11.455 7.69872 11.3346 7.57817L9.96142 6.20517C9.86231 6.10606 9.74459 6.05711 9.60825 6.05833C9.47192 6.05967 9.35203 6.112 9.24858 6.21533C9.15203 6.31878 9.10203 6.43589 9.09858 6.56667C9.09525 6.69744 9.14525 6.81456 9.24858 6.918L10.3308 8ZM3.53842 13.6667C3.20597 13.6667 2.92197 13.5489 2.68642 13.3135C2.45097 13.0779 2.33325 12.7939 2.33325 12.4615V3.5385C2.33325 3.20606 2.45097 2.92206 2.68642 2.6865C2.92197 2.45106 3.20597 2.33333 3.53842 2.33333H6.50508C6.54697 1.96322 6.70853 1.6485 6.98975 1.38917C7.27086 1.12972 7.60758 1 7.99992 1C8.39647 1 8.73536 1.12972 9.01658 1.38917C9.29781 1.6485 9.4572 1.96322 9.49475 2.33333H12.4614C12.7939 2.33333 13.0779 2.45106 13.3134 2.6865C13.5489 2.92206 13.6666 3.20606 13.6666 3.5385V12.4615C13.6666 12.7939 13.5489 13.0779 13.3134 13.3135C13.0779 13.5489 12.7939 13.6667 12.4614 13.6667H3.53842ZM7.99992 2.8975C8.14436 2.8975 8.26381 2.85028 8.35825 2.75583C8.4527 2.66139 8.49992 2.54194 8.49992 2.3975C8.49992 2.25306 8.4527 2.13361 8.35825 2.03917C8.26381 1.94472 8.14436 1.8975 7.99992 1.8975C7.85547 1.8975 7.73603 1.94472 7.64158 2.03917C7.54714 2.13361 7.49992 2.25306 7.49992 2.3975C7.49992 2.54194 7.54714 2.66139 7.64158 2.75583C7.73603 2.85028 7.85547 2.8975 7.99992 2.8975Z" fill="currentColor"/>
</svg>
