<svg width="20" height="20" viewBox="0 0 20 20" fill="none" xmlns="http://www.w3.org/2000/svg">
<path d="M13.3333 7.40367C13.4316 7.40367 13.5176 7.36686 13.5912 7.29325C13.665 7.2195 13.7018 7.13346 13.7018 7.03513V4.61533C13.7018 4.517 13.665 4.43096 13.5912 4.35721C13.5176 4.2836 13.4316 4.24679 13.3333 4.24679C13.235 4.24679 13.149 4.2836 13.0754 4.35721C13.0016 4.43096 12.9648 4.517 12.9648 4.61533V7.03513C12.9648 7.13346 13.0016 7.2195 13.0754 7.29325C13.149 7.36686 13.235 7.40367 13.3333 7.40367ZM13.3333 9.11846C13.4444 9.11846 13.5416 9.07679 13.625 8.99346C13.7083 8.91013 13.75 8.8129 13.75 8.70179C13.75 8.59068 13.7083 8.49346 13.625 8.41013C13.5416 8.32679 13.4444 8.28513 13.3333 8.28513C13.2222 8.28513 13.125 8.32679 13.0416 8.41013C12.9583 8.49346 12.9166 8.59068 12.9166 8.70179C12.9166 8.8129 12.9583 8.91013 13.0416 8.99346C13.125 9.07679 13.2222 9.11846 13.3333 9.11846ZM3.54163 16.4583C3.36454 16.4583 3.21614 16.3983 3.09642 16.2785C2.97656 16.1586 2.91663 16.0101 2.91663 15.833C2.91663 15.6558 2.97656 15.5074 3.09642 15.3878C3.21614 15.2681 3.36454 15.2083 3.54163 15.2083H11.875C12.052 15.2083 12.2005 15.2682 12.3204 15.388C12.4401 15.5079 12.5 15.6564 12.5 15.8335C12.5 16.0107 12.4401 16.1591 12.3204 16.2787C12.2005 16.3984 12.052 16.4583 11.875 16.4583H3.54163ZM13.3345 10.6249C12.2397 10.6249 11.3061 10.2391 10.5337 9.46742C9.76121 8.69575 9.37496 7.76256 9.37496 6.66784C9.37496 5.57297 9.76079 4.63936 10.5325 3.867C11.3041 3.0945 12.2373 2.70825 13.332 2.70825C14.4269 2.70825 15.3605 3.09409 16.1329 3.86575C16.9054 4.63742 17.2916 5.57061 17.2916 6.66534C17.2916 7.7602 16.9058 8.69381 16.1341 9.46617C15.3625 10.2387 14.4293 10.6249 13.3345 10.6249ZM3.54163 9.79159C3.36454 9.79159 3.21614 9.73165 3.09642 9.61179C2.97656 9.49193 2.91663 9.34346 2.91663 9.16638C2.91663 8.98915 2.97656 8.84075 3.09642 8.72117C3.21614 8.60145 3.36454 8.54159 3.54163 8.54159H7.38933C7.56642 8.54159 7.71489 8.60117 7.83475 8.72034C7.95447 8.8395 8.01433 8.98714 8.01433 9.16325C8.01433 9.32895 7.95447 9.47506 7.83475 9.60159C7.71489 9.72825 7.56642 9.79159 7.38933 9.79159H3.54163ZM3.54163 13.1249C3.36454 13.1249 3.21614 13.065 3.09642 12.9451C2.97656 12.8253 2.91663 12.6768 2.91663 12.4997C2.91663 12.3225 2.97656 12.1741 3.09642 12.0545C3.21614 11.9348 3.36454 11.8749 3.54163 11.8749H10.4183C10.5954 11.8749 10.7438 11.9345 10.8635 12.0537C10.9834 12.1728 11.0433 12.3205 11.0433 12.4966C11.0433 12.6623 10.9869 12.8084 10.8741 12.9349C10.7615 13.0616 10.6095 13.1249 10.4183 13.1249H3.54163Z" fill="currentColor"/>
</svg>
