<svg width="16" height="16" viewBox="0 0 16 16" fill="none" xmlns="http://www.w3.org/2000/svg">
<path d="M11.641 11.0679V13.5063C11.641 13.5866 11.6701 13.6559 11.7282 13.7141C11.7863 13.7722 11.8555 13.8013 11.9359 13.8013C12.0162 13.8013 12.0854 13.7722 12.1435 13.7141C12.2018 13.6559 12.2309 13.5866 12.2309 13.5063V11.0679L13.223 12.0601C13.2812 12.1183 13.3493 12.1485 13.4275 12.1506C13.5058 12.1527 13.5761 12.1225 13.6385 12.0601C13.7009 11.9978 13.732 11.9285 13.732 11.8524C13.732 11.7764 13.7009 11.7072 13.6385 11.6448L12.3577 10.3641C12.2372 10.2435 12.0965 10.1833 11.9359 10.1833C11.7752 10.1833 11.6347 10.2435 11.5142 10.3641L10.2334 11.6448C10.1753 11.7029 10.1452 11.771 10.143 11.8493C10.1408 11.9275 10.1709 11.9978 10.2334 12.0601C10.2958 12.1225 10.365 12.1538 10.441 12.1538C10.5172 12.1538 10.5864 12.1225 10.6487 12.0601L11.641 11.0679ZM8.00004 5.97175C8.97182 5.97175 9.95026 5.83092 10.9354 5.54925C11.9204 5.2677 12.4911 4.97475 12.6475 4.67042C12.4953 4.34397 11.9305 4.03947 10.9532 3.75692C9.97587 3.47447 8.99149 3.33325 8.00004 3.33325C7.01026 3.33325 6.02926 3.47064 5.05704 3.74542C4.08482 4.0202 3.51237 4.31997 3.33971 4.64475C3.50815 4.95764 4.07632 5.25703 5.04421 5.54292C6.01221 5.82881 6.99749 5.97175 8.00004 5.97175ZM11.9359 14.8718C11.1034 14.8718 10.3953 14.5799 9.81154 13.9961C9.22787 13.4123 8.93604 12.7042 8.93604 11.8718C8.93604 11.0392 9.22787 10.3311 9.81154 9.74742C10.3953 9.16364 11.1034 8.87175 11.9359 8.87175C12.7684 8.87175 13.4765 9.16364 14.0602 9.74742C14.644 10.3311 14.9359 11.0392 14.9359 11.8718C14.9359 12.7042 14.644 13.4123 14.0602 13.9961C13.4765 14.5799 12.7684 14.8718 11.9359 14.8718ZM7.55004 12.6563C7.57915 12.8409 7.61954 13.0155 7.67121 13.1801C7.72287 13.3445 7.78376 13.5067 7.85387 13.6666C7.0641 13.6597 6.33421 13.5936 5.66421 13.4684C4.9941 13.3432 4.41182 13.174 3.91737 12.9608C3.42293 12.7475 3.03532 12.4965 2.75454 12.2076C2.47376 11.9187 2.33337 11.6059 2.33337 11.2691V4.66659C2.33337 4.02303 2.88637 3.47325 3.99237 3.01725C5.09837 2.56125 6.43426 2.33325 8.00004 2.33325C9.56582 2.33325 10.9017 2.56125 12.0077 3.01725C13.1137 3.47325 13.6667 4.02303 13.6667 4.66659V7.76409C13.5068 7.69397 13.3447 7.6352 13.1802 7.58775C13.0157 7.54031 12.8445 7.50209 12.6667 7.47309V5.93325C12.106 6.2597 11.4204 6.51053 10.6097 6.68575C9.79904 6.86097 8.92915 6.94647 8.00004 6.94225C7.04704 6.94225 6.16732 6.85464 5.36087 6.67942C4.55454 6.5042 3.87871 6.25547 3.33337 5.93325V8.10375C3.87871 8.54909 4.58021 8.86103 5.43787 9.03959C6.29554 9.21825 7.1496 9.30759 8.00004 9.30759H8.29237C8.18215 9.46059 8.08599 9.61936 8.00387 9.78392C7.92187 9.94836 7.84837 10.1229 7.78337 10.3076C6.96882 10.2845 6.16521 10.1956 5.37254 10.0409C4.57976 9.88625 3.90004 9.63881 3.33337 9.29859V11.3333C3.43249 11.499 3.61199 11.6601 3.87187 11.8166C4.13165 11.973 4.4481 12.1085 4.82121 12.2229C5.19432 12.3375 5.61443 12.4333 6.08154 12.5103C6.54854 12.5871 7.03804 12.6358 7.55004 12.6563Z" fill="currentColor"/>
</svg>
