<svg width="20" height="20" viewBox="0 0 20 20" fill="none" xmlns="http://www.w3.org/2000/svg">
<path d="M10.0014 17.5833C8.96197 17.5833 7.98135 17.3859 7.05954 16.9912C6.13774 16.5965 5.33093 16.0534 4.63913 15.3618C3.94732 14.6703 3.40392 13.8638 3.00892 12.9425C2.61406 12.0211 2.41663 11.0407 2.41663 10.0014C2.41663 8.94808 2.61406 7.96399 3.00892 7.04913C3.40364 6.13426 3.94683 5.33093 4.6385 4.63913C5.33017 3.94732 6.13676 3.40392 7.05829 3.00892C7.97982 2.61406 8.96038 2.41663 9.99996 2.41663C10.6933 2.41663 11.3723 2.5085 12.0368 2.69225C12.7014 2.876 13.3307 3.14899 13.9248 3.51121C14.071 3.60093 14.1583 3.71635 14.1866 3.85746C14.215 3.99843 14.1827 4.13517 14.0898 4.26767C13.9968 4.40017 13.8729 4.47788 13.7179 4.50079C13.563 4.52371 13.4177 4.49031 13.282 4.40058C12.7948 4.10045 12.2718 3.87531 11.7131 3.72517C11.1543 3.57503 10.5833 3.49996 9.99996 3.49996C8.1944 3.49996 6.65968 4.1319 5.39579 5.39579C4.1319 6.65968 3.49996 8.1944 3.49996 9.99996C3.49996 11.8055 4.1319 13.3402 5.39579 14.6041C6.65968 15.868 8.1944 16.5 9.99996 16.5C11.8055 16.5 13.3402 15.868 14.6041 14.6041C15.868 13.3402 16.5 11.8055 16.5 9.99996C16.5 9.79704 16.4938 9.58871 16.4816 9.37496C16.4693 9.16121 16.4412 8.95392 16.3975 8.75309C16.3697 8.6035 16.3932 8.46517 16.4679 8.33808C16.5427 8.211 16.6484 8.13038 16.785 8.09621C16.939 8.0619 17.0809 8.09315 17.2106 8.18996C17.3404 8.28663 17.4193 8.41239 17.447 8.56725C17.4855 8.79156 17.5178 9.02531 17.5439 9.2685C17.5702 9.51156 17.5833 9.75538 17.5833 9.99996C17.5833 11.0395 17.3859 12.0201 16.9912 12.9416C16.5965 13.8632 16.0534 14.6698 15.3618 15.3614C14.6703 16.0531 13.8673 16.5963 12.9529 16.991C12.0384 17.3859 11.0546 17.5833 10.0014 17.5833ZM8.85892 11.7468L16.4327 4.181C16.5481 4.06572 16.6771 4.00808 16.8198 4.00808C16.9623 4.00808 17.0918 4.06635 17.2085 4.18288C17.3279 4.30246 17.3877 4.43086 17.3877 4.56808C17.3877 4.70531 17.3273 4.83433 17.2066 4.95517L9.30288 12.851C9.16607 12.9877 9.01114 13.056 8.83808 13.056C8.66503 13.056 8.5101 12.9877 8.37329 12.851L6.16975 10.6475C6.05447 10.532 5.99545 10.4009 5.99267 10.2539C5.99003 10.1071 6.04906 9.97329 6.16975 9.85246C6.29058 9.73177 6.42308 9.67142 6.56725 9.67142C6.71142 9.67142 6.84392 9.73177 6.96475 9.85246L8.85892 11.7468Z" fill="currentColor"/>
</svg>
