<svg width="24" height="24" viewBox="0 0 24 24" fill="none" xmlns="http://www.w3.org/2000/svg">
<path d="M11.995 16.4152C12.1778 16.4152 12.3326 16.3529 12.4595 16.2284C12.5865 16.1038 12.65 15.9494 12.65 15.7652V11.2384C12.65 11.0543 12.5881 10.8999 12.4645 10.7752C12.3408 10.6507 12.1876 10.5884 12.005 10.5884C11.8221 10.5884 11.6673 10.6507 11.5405 10.7752C11.4135 10.8999 11.35 11.0543 11.35 11.2384V15.7652C11.35 15.9494 11.4118 16.1038 11.5355 16.2284C11.6591 16.3529 11.8123 16.4152 11.995 16.4152ZM11.9947 8.99994C12.1937 8.99994 12.3623 8.93261 12.5005 8.79794C12.6386 8.66327 12.7077 8.49644 12.7077 8.29744C12.7077 8.09844 12.6404 7.92986 12.5057 7.79169C12.371 7.65369 12.2042 7.58469 12.0052 7.58469C11.8062 7.58469 11.6376 7.65194 11.4995 7.78644C11.3613 7.92111 11.2922 8.08794 11.2922 8.28694C11.2922 8.48594 11.3595 8.65452 11.4942 8.79269C11.6289 8.93086 11.7957 8.99994 11.9947 8.99994ZM12 20.9709C11.9128 20.9709 11.8192 20.9668 11.7192 20.9584C11.6192 20.9501 11.5307 20.9293 11.4537 20.8959C9.41153 20.1793 7.77537 18.912 6.5452 17.0942C5.31503 15.2762 4.69995 13.2864 4.69995 11.1249V6.84619C4.69995 6.50469 4.79253 6.19744 4.9777 5.92444C5.1627 5.65127 5.41178 5.45469 5.72495 5.33469L11.4172 3.15969C11.6147 3.08269 11.809 3.04419 12 3.04419C12.191 3.04419 12.3852 3.08269 12.5827 3.15969L18.275 5.33469C18.5881 5.45469 18.8372 5.65127 19.0222 5.92444C19.2074 6.19744 19.3 6.50469 19.3 6.84619V11.1249C19.3 13.2864 18.6849 15.2762 17.4547 17.0942C16.2245 18.912 14.5884 20.1793 12.5462 20.8959C12.4692 20.9293 12.3807 20.9501 12.2807 20.9584C12.1807 20.9668 12.0871 20.9709 12 20.9709Z" fill="currentColor"/>
</svg>
