<svg width="16" height="16" viewBox="0 0 16 16" fill="none" xmlns="http://www.w3.org/2000/svg">
<path d="M12.8232 14.2282L10.477 11.9025C10.0838 12.0546 9.67965 12.1645 9.26465 12.232C8.84976 12.2996 8.42821 12.3334 7.99998 12.3334C6.59654 12.3334 5.31126 11.9601 4.14415 11.2135C2.97715 10.4669 2.05221 9.48286 1.36932 8.26153C1.31376 8.16586 1.27315 8.06842 1.24748 7.9692C1.22182 7.87008 1.20898 7.76925 1.20898 7.6667C1.20898 7.56414 1.22287 7.4622 1.25065 7.36086C1.27843 7.25964 1.3201 7.16331 1.37565 7.07186C1.64143 6.62997 1.92393 6.20242 2.22315 5.78919C2.52226 5.37586 2.8701 5.01025 3.26665 4.69236L1.76148 3.17686C1.66926 3.08464 1.62204 2.97036 1.61982 2.83403C1.61771 2.69769 1.66837 2.57781 1.77182 2.47436C1.86837 2.37781 1.98548 2.32953 2.12315 2.32953C2.26071 2.32953 2.37776 2.37781 2.47432 2.47436L13.5257 13.5257C13.618 13.618 13.6669 13.7323 13.6725 13.8685C13.678 14.0049 13.6291 14.1248 13.5257 14.2282C13.4291 14.3248 13.312 14.373 13.1743 14.373C13.0368 14.373 12.9197 14.3248 12.8232 14.2282ZM7.99998 10.3847C8.14787 10.3847 8.28909 10.3759 8.42365 10.3584C8.55832 10.3408 8.68976 10.3025 8.81798 10.2435L5.42315 6.8487C5.36837 6.97692 5.33115 7.10836 5.31148 7.24303C5.29182 7.37758 5.28198 7.51881 5.28198 7.6667C5.28198 8.42314 5.54587 9.06525 6.07365 9.59303C6.60143 10.1208 7.24354 10.3847 7.99998 10.3847ZM7.99998 3.00003C9.40765 3.00003 10.6989 3.37503 11.8737 4.12503C13.0484 4.87503 13.9752 5.86497 14.6538 7.09486C14.705 7.17953 14.7445 7.27036 14.7723 7.36736C14.8001 7.46436 14.814 7.56414 14.814 7.6667C14.814 7.76925 14.8018 7.86903 14.7775 7.96603C14.7532 8.06303 14.7153 8.15386 14.664 8.23853C14.4614 8.62397 14.235 8.9872 13.9847 9.3282C13.7342 9.6692 13.4543 9.99014 13.1448 10.291C13.0064 10.4295 12.8423 10.4931 12.6525 10.482C12.4628 10.4709 12.2987 10.3961 12.1602 10.2577L10.7628 8.8667C10.6936 8.79747 10.6479 8.71753 10.6257 8.62686C10.6034 8.53631 10.6047 8.44186 10.6295 8.34353C10.661 8.22908 10.6837 8.11797 10.6973 8.0102C10.7111 7.90253 10.718 7.78803 10.718 7.6667C10.718 6.91025 10.4541 6.26814 9.92632 5.74036C9.39854 5.21258 8.75643 4.94869 7.99998 4.94869C7.87865 4.94869 7.76521 4.95664 7.65965 4.97253C7.55409 4.98831 7.44615 5.01203 7.33582 5.0437C7.2376 5.0727 7.13932 5.07608 7.04098 5.05386C6.94276 5.03164 6.85904 4.98592 6.78982 4.9167L6.16915 4.2962C5.97948 4.10642 5.91648 3.88547 5.98015 3.63336C6.04382 3.38125 6.20387 3.22058 6.46032 3.15136C6.71243 3.10003 6.96626 3.06197 7.22182 3.03719C7.47737 3.01242 7.73676 3.00003 7.99998 3.00003ZM9.29098 6.4077C9.4261 6.55647 9.53743 6.72336 9.62498 6.90836C9.71254 7.09336 9.76743 7.28675 9.78965 7.48853C9.80076 7.56886 9.77065 7.62464 9.69932 7.65586C9.62798 7.68697 9.56109 7.67136 9.49865 7.60903L8.06798 6.1847C8.00554 6.12225 7.99165 6.05536 8.02632 5.98403C8.06087 5.91269 8.11832 5.87703 8.19865 5.87703C8.41409 5.89492 8.61282 5.94897 8.79482 6.03919C8.97693 6.12931 9.14232 6.25214 9.29098 6.4077Z" fill="currentColor"/>
</svg>
