<svg width="16" height="16" viewBox="0 0 16 16" fill="none" xmlns="http://www.w3.org/2000/svg">
<path d="M2 11.7485V5.25152C2 4.90733 2.12506 4.61269 2.37517 4.36762C2.62528 4.12254 2.9259 4 3.27705 4H12.7228C13.074 4 13.3747 4.12254 13.6248 4.36762C13.8749 4.61269 14 4.90733 14 5.25152V11.7485C14 12.0927 13.8749 12.3873 13.6248 12.6324C13.3747 12.8775 13.074 13 12.7228 13H3.27705C2.9259 13 2.62528 12.8775 2.37517 12.6324C2.12506 12.3873 2 12.0927 2 11.7485ZM3.26627 11.9615H5.63579V5.03846H3.26627C3.21187 5.03846 3.16206 5.06067 3.11684 5.1051C3.07151 5.1494 3.04884 5.19821 3.04884 5.25152V11.7485C3.04884 11.8018 3.07151 11.8506 3.11684 11.8949C3.16206 11.9393 3.21187 11.9615 3.26627 11.9615ZM6.69558 11.9615H9.28252V5.03846H6.69558V11.9615ZM10.3423 11.9615H12.712C12.7663 11.9615 12.8161 11.9393 12.8614 11.8949C12.9067 11.8506 12.9293 11.8018 12.9293 11.7485V5.25152C12.9293 5.19821 12.9067 5.1494 12.8614 5.1051C12.8161 5.06067 12.7663 5.03846 12.712 5.03846H10.3423V11.9615Z" fill="currentColor"/>
</svg>
