<svg width="20" height="20" viewBox="0 0 20 20" fill="none" xmlns="http://www.w3.org/2000/svg">
<path d="M15.471 16.5625C13.9562 16.4375 12.5 16.0377 11.1025 15.363C9.70514 14.6882 8.43862 13.7831 7.30292 12.6475C6.17264 11.5118 5.27362 10.2466 4.60584 8.85171C3.93806 7.45699 3.54167 6.00219 3.41667 4.48733C3.38889 4.19567 3.4757 3.9408 3.67709 3.72275C3.87848 3.50483 4.125 3.39587 4.41667 3.39587H6.59292C6.84501 3.39587 7.06188 3.4715 7.24355 3.62275C7.42521 3.77386 7.55181 3.97122 7.62334 4.21483L8.05938 5.97921C8.09244 6.16504 8.08202 6.34664 8.02813 6.524C7.9741 6.70136 7.88619 6.8456 7.76438 6.95671L5.8398 8.83025C6.14952 9.41136 6.49299 9.95837 6.87021 10.4713C7.2473 10.9841 7.66077 11.4637 8.11063 11.9102C8.55396 12.3537 9.03313 12.7646 9.54813 13.1427C10.0631 13.5209 10.6192 13.865 11.2165 14.1748L13.1906 12.2469C13.3072 12.1251 13.4408 12.0439 13.5915 12.0032C13.742 11.9626 13.9103 11.9562 14.0963 11.984L15.7644 12.3511C16.0165 12.4205 16.216 12.5487 16.3629 12.7357C16.5099 12.9226 16.5833 13.1448 16.5833 13.4023V15.5625C16.5833 15.8542 16.4709 16.1007 16.246 16.3021C16.021 16.5035 15.7627 16.5903 15.471 16.5625Z" fill="currentColor"/>
</svg>
