<svg width="16" height="16" viewBox="0 0 16 16" fill="none" xmlns="http://www.w3.org/2000/svg">
<path d="M3.53854 13.6667C3.20176 13.6667 2.91671 13.55 2.68337 13.3167C2.45004 13.0834 2.33337 12.7983 2.33337 12.4615V3.53854C2.33337 3.20176 2.45004 2.91671 2.68337 2.68337C2.91671 2.45004 3.20176 2.33337 3.53854 2.33337H12.4615C12.7983 2.33337 13.0834 2.45004 13.3167 2.68337C13.55 2.91671 13.6667 3.20176 13.6667 3.53854V12.4615C13.6667 12.7983 13.55 13.0834 13.3167 13.3167C13.0834 13.55 12.7983 13.6667 12.4615 13.6667H3.53854ZM3.53854 12.6667H7.50004V3.33337H3.53854C3.48721 3.33337 3.44021 3.35476 3.39754 3.39754C3.35476 3.44021 3.33337 3.48721 3.33337 3.53854V12.4615C3.33337 12.5129 3.35476 12.5599 3.39754 12.6025C3.44021 12.6453 3.48721 12.6667 3.53854 12.6667ZM8.50004 12.6667H12.4615C12.5129 12.6667 12.5599 12.6453 12.6025 12.6025C12.6453 12.5599 12.6667 12.5129 12.6667 12.4615V8.00004H8.50004V12.6667ZM8.50004 7.00004H12.6667V3.53854C12.6667 3.48721 12.6453 3.44021 12.6025 3.39754C12.5599 3.35476 12.5129 3.33337 12.4615 3.33337H8.50004V7.00004Z" fill="currentColor"/>
</svg>
