<svg width="20" height="20" viewBox="0 0 20 20" fill="none" xmlns="http://www.w3.org/2000/svg">
<path d="M5.7564 17.5834C5.39765 17.5834 5.08466 17.4522 4.81744 17.1898C4.55022 16.9275 4.41661 16.612 4.41661 16.2436V14.3334C4.41661 14.1799 4.46813 14.0512 4.57119 13.9473C4.67425 13.8436 4.80188 13.7917 4.95411 13.7917C5.10647 13.7917 5.2355 13.8436 5.34119 13.9473C5.44702 14.0512 5.49994 14.1799 5.49994 14.3334V16.2436C5.49994 16.3184 5.52397 16.3799 5.57202 16.4279C5.62008 16.476 5.68154 16.5 5.7564 16.5H14.2435C14.3183 16.5 14.3798 16.476 14.4279 16.4279C14.4759 16.3799 14.4999 16.3184 14.4999 16.2436V14.3334C14.4999 14.1799 14.5515 14.0512 14.6545 13.9473C14.7576 13.8436 14.8852 13.7917 15.0374 13.7917C15.1898 13.7917 15.3188 13.8436 15.4245 13.9473C15.5304 14.0512 15.5833 14.1799 15.5833 14.3334V16.2436C15.5833 16.612 15.4497 16.9275 15.1824 17.1898C14.9152 17.4522 14.6022 17.5834 14.2435 17.5834H5.7564ZM4.41661 3.75648C4.41661 3.38801 4.55022 3.07259 4.81744 2.81023C5.08466 2.54787 5.39765 2.41669 5.7564 2.41669H11.6474C11.8259 2.41669 11.9961 2.44877 12.1579 2.51294C12.3197 2.57696 12.469 2.67738 12.6058 2.81419L15.1858 5.39419C15.3226 5.53099 15.423 5.6803 15.487 5.8421C15.5512 6.00391 15.5833 6.17405 15.5833 6.35252V9.16669C15.5833 9.32016 15.5317 9.44884 15.4287 9.55273C15.3256 9.65648 15.198 9.70835 15.0458 9.70835C14.8934 9.70835 14.7644 9.65648 14.6587 9.55273C14.5529 9.44884 14.4999 9.32016 14.4999 9.16669V6.58335H12.0831C11.8942 6.58335 11.7359 6.51946 11.6083 6.39169C11.4805 6.26391 11.4166 6.10558 11.4166 5.91669V3.50002H5.7564C5.68154 3.50002 5.62008 3.52405 5.57202 3.5721C5.52397 3.62016 5.49994 3.68162 5.49994 3.75648V9.16669C5.49994 9.32016 5.44841 9.44884 5.34536 9.55273C5.2423 9.65648 5.11466 9.70835 4.96244 9.70835C4.81008 9.70835 4.68105 9.65648 4.57536 9.55273C4.46952 9.44884 4.41661 9.32016 4.41661 9.16669V3.75648ZM17.2179 12.2917H2.77765C2.63126 12.2917 2.50508 12.2402 2.39911 12.1371C2.29327 12.034 2.24036 11.9064 2.24036 11.7542C2.24036 11.6018 2.29223 11.4728 2.39598 11.3671C2.49987 11.2613 2.62855 11.2084 2.78202 11.2084H17.2222C17.3686 11.2084 17.4948 11.2599 17.6008 11.3629C17.7066 11.466 17.7595 11.5936 17.7595 11.7459C17.7595 11.8982 17.7076 12.0272 17.6039 12.1329C17.5 12.2388 17.3713 12.2917 17.2179 12.2917Z" fill="currentColor"/>
</svg>
