<svg width="16" height="16" viewBox="0 0 16 16" fill="none" xmlns="http://www.w3.org/2000/svg">
<path d="M5.41037 7.99992C5.26848 7.99992 5.14965 8.04781 5.05387 8.14358C4.95821 8.23925 4.91037 8.35803 4.91037 8.49992V10.6666C4.91037 10.8085 4.95821 10.9273 5.05387 11.0229C5.14965 11.1187 5.26848 11.1666 5.41037 11.1666C5.55215 11.1666 5.67093 11.1187 5.76671 11.0229C5.86237 10.9273 5.91021 10.8085 5.91021 10.6666V8.49992C5.91021 8.35803 5.86237 8.23925 5.76671 8.14358C5.67093 8.04781 5.55215 7.99992 5.41037 7.99992ZM10.5897 4.66659C10.4479 4.66659 10.3292 4.71447 10.2334 4.81025C10.1377 4.90592 10.0899 5.0247 10.0899 5.16659V10.6666C10.0899 10.8085 10.1377 10.9273 10.2334 11.0229C10.3292 11.1187 10.4479 11.1666 10.5897 11.1666C10.7316 11.1666 10.8504 11.1187 10.9462 11.0229C11.0419 10.9273 11.0897 10.8085 11.0897 10.6666V5.16659C11.0897 5.0247 11.0419 4.90592 10.9462 4.81025C10.8504 4.71447 10.7316 4.66659 10.5897 4.66659ZM8.00004 9.33325C7.85815 9.33325 7.73937 9.38114 7.64371 9.47692C7.54793 9.57258 7.50004 9.69136 7.50004 9.83325V10.6666C7.50004 10.8085 7.54793 10.9273 7.64371 11.0229C7.73937 11.1187 7.85815 11.1666 8.00004 11.1666C8.14193 11.1666 8.26071 11.1187 8.35637 11.0229C8.45215 10.9273 8.50004 10.8085 8.50004 10.6666V9.83325C8.50004 9.69136 8.45215 9.57258 8.35637 9.47692C8.26071 9.38114 8.14193 9.33325 8.00004 9.33325ZM3.53854 13.6666C3.20176 13.6666 2.91671 13.5499 2.68337 13.3166C2.45004 13.0833 2.33337 12.7982 2.33337 12.4614V3.53842C2.33337 3.20164 2.45004 2.91659 2.68337 2.68325C2.91671 2.44992 3.20176 2.33325 3.53854 2.33325H12.4615C12.7983 2.33325 13.0834 2.44992 13.3167 2.68325C13.55 2.91659 13.6667 3.20164 13.6667 3.53842V12.4614C13.6667 12.7982 13.55 13.0833 13.3167 13.3166C13.0834 13.5499 12.7983 13.6666 12.4615 13.6666H3.53854ZM3.53854 12.6666H12.4615C12.5129 12.6666 12.5599 12.6452 12.6025 12.6024C12.6453 12.5598 12.6667 12.5128 12.6667 12.4614V3.53842C12.6667 3.48709 12.6453 3.44008 12.6025 3.39742C12.5599 3.35464 12.5129 3.33325 12.4615 3.33325H3.53854C3.48721 3.33325 3.44021 3.35464 3.39754 3.39742C3.35476 3.44008 3.33337 3.48709 3.33337 3.53842V12.4614C3.33337 12.5128 3.35476 12.5598 3.39754 12.6024C3.44021 12.6452 3.48721 12.6666 3.53854 12.6666ZM8.00004 7.83325C8.14193 7.83325 8.26071 7.78536 8.35637 7.68959C8.45215 7.59392 8.50004 7.47514 8.50004 7.33325C8.50004 7.19136 8.45215 7.07259 8.35637 6.97692C8.26071 6.88114 8.14193 6.83325 8.00004 6.83325C7.85815 6.83325 7.73937 6.88114 7.64371 6.97692C7.54793 7.07259 7.50004 7.19136 7.50004 7.33325C7.50004 7.47514 7.54793 7.59392 7.64371 7.68959C7.73937 7.78536 7.85815 7.83325 8.00004 7.83325Z" fill="currentColor"/>
</svg>
