<svg width="20" height="20" viewBox="0 0 20 20" fill="none" xmlns="http://www.w3.org/2000/svg">
<path d="M8.81733 11.7885L6.8815 9.85248C6.76608 9.7372 6.62101 9.67817 6.44629 9.6754C6.27171 9.67276 6.124 9.73178 6.00317 9.85248C5.88247 9.97331 5.82212 10.1197 5.82212 10.2916C5.82212 10.4636 5.88247 10.61 6.00317 10.7308L8.29004 13.0177C8.44073 13.1682 8.6165 13.2435 8.81733 13.2435C9.01817 13.2435 9.19393 13.1682 9.34462 13.0177L13.9809 8.38144C14.0962 8.26602 14.1552 8.12095 14.158 7.94623C14.1606 7.77165 14.1016 7.62394 13.9809 7.5031C13.86 7.38241 13.7137 7.32206 13.5417 7.32206C13.3698 7.32206 13.2234 7.38241 13.1025 7.5031L8.81733 11.7885ZM10.0015 17.9166C8.9065 17.9166 7.87726 17.7089 6.91379 17.2933C5.95032 16.8778 5.11226 16.3138 4.39962 15.6014C3.68698 14.8891 3.12275 14.0514 2.70692 13.0883C2.29122 12.1253 2.08337 11.0963 2.08337 10.0014C2.08337 8.90644 2.29115 7.8772 2.70671 6.91373C3.12226 5.95026 3.68622 5.1122 4.39858 4.39956C5.11094 3.68692 5.94865 3.12269 6.91171 2.70685C7.87476 2.29116 8.90372 2.08331 9.99858 2.08331C11.0936 2.08331 12.1228 2.29109 13.0863 2.70665C14.0498 3.1222 14.8878 3.68616 15.6005 4.39852C16.3131 5.11088 16.8773 5.94859 17.2932 6.91165C17.7089 7.8747 17.9167 8.90366 17.9167 9.99852C17.9167 11.0935 17.7089 12.1228 17.2934 13.0862C16.8778 14.0497 16.3139 14.8878 15.6015 15.6004C14.8891 16.313 14.0514 16.8773 13.0884 17.2931C12.1253 17.7088 11.0964 17.9166 10.0015 17.9166Z" fill="currentColor"/>
</svg>
