<svg width="20" height="20" viewBox="0 0 20 20" fill="none" xmlns="http://www.w3.org/2000/svg">
<path d="M8.33807 10.0001L4.76911 6.43922C4.65383 6.3238 4.59619 6.19477 4.59619 6.05213C4.59619 5.9095 4.65383 5.78047 4.76911 5.66505C4.88994 5.54436 5.01897 5.48401 5.15619 5.48401C5.29341 5.48401 5.42244 5.54436 5.54327 5.66505L9.41348 9.53526C9.47751 9.59943 9.52557 9.6713 9.55765 9.75088C9.58973 9.83047 9.60577 9.91352 9.60577 10.0001C9.60577 10.0866 9.58973 10.1696 9.55765 10.2492C9.52557 10.3288 9.47751 10.4007 9.41348 10.4648L5.54327 14.3351C5.42786 14.4503 5.3023 14.5045 5.16661 14.4976C5.03091 14.4906 4.90536 14.4295 4.78994 14.3142C4.66925 14.1934 4.6089 14.0644 4.6089 13.9271C4.6089 13.7899 4.66925 13.6609 4.78994 13.5401L8.33807 10.0001ZM14.0672 10.0001L10.4983 6.43922C10.383 6.3238 10.3254 6.19477 10.3254 6.05213C10.3254 5.9095 10.383 5.78047 10.4983 5.66505C10.6191 5.54436 10.7481 5.48401 10.8854 5.48401C11.0226 5.48401 11.1516 5.54436 11.2724 5.66505L15.1424 9.53526C15.2066 9.59943 15.2547 9.6713 15.2868 9.75088C15.3189 9.83047 15.3349 9.91352 15.3349 10.0001C15.3349 10.0866 15.3189 10.1696 15.2868 10.2492C15.2547 10.3288 15.2066 10.4007 15.1424 10.4648L11.2724 14.3351C11.157 14.4503 11.0315 14.5045 10.8958 14.4976C10.7601 14.4906 10.6345 14.4295 10.5191 14.3142C10.3984 14.1934 10.3381 14.0644 10.3381 13.9271C10.3381 13.7899 10.3984 13.6609 10.5191 13.5401L14.0672 10.0001Z" fill="currentColor"/>
</svg>
