<svg width="16" height="16" viewBox="0 0 16 16" fill="none" xmlns="http://www.w3.org/2000/svg">
<path d="M4.5503 8.8667C4.31097 8.8667 4.1073 8.78147 3.9393 8.61103C3.77119 8.44058 3.68713 8.23575 3.68713 7.99653C3.68713 7.7572 3.77236 7.55353 3.9428 7.38553C4.11325 7.21742 4.31808 7.13336 4.5573 7.13336C4.79663 7.13336 5.00036 7.21858 5.16847 7.38903C5.33647 7.55947 5.42047 7.76431 5.42047 8.00353C5.42047 8.24286 5.33525 8.44653 5.1648 8.61453C4.99447 8.78264 4.78963 8.8667 4.5503 8.8667ZM7.99647 8.8667C7.75713 8.8667 7.55347 8.78147 7.38547 8.61103C7.21736 8.44058 7.1333 8.23575 7.1333 7.99653C7.1333 7.7572 7.21852 7.55353 7.38897 7.38553C7.55941 7.21742 7.76424 7.13336 8.00347 7.13336C8.2428 7.13336 8.44647 7.21858 8.61447 7.38903C8.78258 7.55947 8.86663 7.76431 8.86663 8.00353C8.86663 8.24286 8.78141 8.44653 8.61097 8.61453C8.44052 8.78264 8.23569 8.8667 7.99647 8.8667ZM11.4426 8.8667C11.2033 8.8667 10.9996 8.78147 10.8315 8.61103C10.6635 8.44058 10.5795 8.23575 10.5795 7.99653C10.5795 7.7572 10.6647 7.55353 10.8351 7.38553C11.0055 7.21742 11.2103 7.13336 11.4496 7.13336C11.689 7.13336 11.8926 7.21858 12.0606 7.38903C12.2287 7.55947 12.3128 7.76431 12.3128 8.00353C12.3128 8.24286 12.2276 8.44653 12.0571 8.61453C11.8867 8.78264 11.6819 8.8667 11.4426 8.8667Z" fill="currentColor"/>
</svg>
