<svg width="16" height="16" viewBox="0 0 16 16" fill="none" xmlns="http://www.w3.org/2000/svg">
<path d="M7.99802 14.0667C7.16746 14.0667 6.3834 13.9076 5.64585 13.5893C4.90841 13.2711 4.26441 12.8367 3.71385 12.2862C3.16329 11.7356 2.72891 11.0916 2.41068 10.3542C2.09246 9.61663 1.93335 8.83257 1.93335 8.00202C1.93335 7.16135 2.09268 6.37385 2.41135 5.63952C2.73002 4.90507 3.16374 4.26324 3.71252 3.71402C4.26129 3.16468 4.90491 2.73057 5.64335 2.41168C6.38168 2.09279 7.16552 1.93335 7.99485 1.93335C8.12885 1.93335 8.2354 1.97296 8.31452 2.05218C8.39374 2.13141 8.43335 2.23357 8.43335 2.35868C8.43335 2.48391 8.39374 2.58874 8.31452 2.67318C8.2354 2.75774 8.13057 2.80002 8.00002 2.80002C6.55924 2.80002 5.33235 3.30279 4.31935 4.30835C3.30646 5.31391 2.80002 6.54168 2.80002 7.99168C2.80002 9.44168 3.30646 10.6722 4.31935 11.6833C5.33235 12.6945 6.55924 13.2 8.00002 13.2C9.45557 13.2 10.6861 12.6936 11.6917 11.6807C12.6972 10.6677 13.2 9.44079 13.2 8.00002C13.2 7.86924 13.2423 7.76435 13.327 7.68535C13.4117 7.60624 13.5166 7.56668 13.6417 7.56668C13.7669 7.56668 13.869 7.60629 13.948 7.68552C14.0271 7.76463 14.0667 7.87118 14.0667 8.00518C14.0667 8.83452 13.9072 9.61835 13.5883 10.3567C13.2695 11.0951 12.8353 11.7387 12.286 12.2875C11.7368 12.8363 11.095 13.27 10.3605 13.5887C9.62618 13.9073 8.83868 14.0667 7.99802 14.0667Z" fill="currentColor"/>
</svg>
