<svg width="24" height="24" viewBox="0 0 24 24" fill="none" xmlns="http://www.w3.org/2000/svg">
<path d="M5.30384 20.5C4.79868 20.5 4.37109 20.325 4.02109 19.975C3.67109 19.625 3.49609 19.1974 3.49609 18.6923V5.30775C3.49609 4.80258 3.67109 4.375 4.02109 4.025C4.37109 3.675 4.79868 3.5 5.30384 3.5H9.75384C9.83334 2.9385 10.0814 2.46483 10.4981 2.079C10.9148 1.693 11.4141 1.5 11.9961 1.5C12.5781 1.5 13.0774 1.693 13.4941 2.079C13.9108 2.46483 14.1588 2.9385 14.2383 3.5H18.6883C19.1935 3.5 19.6211 3.675 19.9711 4.025C20.3211 4.375 20.4961 4.80258 20.4961 5.30775V18.6923C20.4961 19.1974 20.3211 19.625 19.9711 19.975C19.6211 20.325 19.1935 20.5 18.6883 20.5H5.30384ZM11.9961 4.34625C12.2128 4.34625 12.3919 4.27542 12.5336 4.13375C12.6753 3.99208 12.7461 3.81292 12.7461 3.59625C12.7461 3.37958 12.6753 3.20042 12.5336 3.05875C12.3919 2.91708 12.2128 2.84625 11.9961 2.84625C11.7794 2.84625 11.6003 2.91708 11.4586 3.05875C11.3169 3.20042 11.2461 3.37958 11.2461 3.59625C11.2461 3.81292 11.3169 3.99208 11.4586 4.13375C11.6003 4.27542 11.7794 4.34625 11.9961 4.34625ZM4.99609 18.0423C5.89609 17.1589 6.94193 16.4631 8.13359 15.9548C9.32526 15.4464 10.6128 15.1923 11.9961 15.1923C13.3794 15.1923 14.6669 15.4464 15.8586 15.9548C17.0503 16.4631 18.0961 17.1589 18.9961 18.0423V5.30775C18.9961 5.23075 18.964 5.16025 18.8998 5.09625C18.8358 5.03208 18.7653 5 18.6883 5H5.30384C5.22684 5 5.15634 5.03208 5.09234 5.09625C5.02818 5.16025 4.99609 5.23075 4.99609 5.30775V18.0423ZM11.9961 13.0385C12.8986 13.0385 13.6659 12.7225 14.2981 12.0905C14.9301 11.4583 15.2461 10.691 15.2461 9.7885C15.2461 8.886 14.9301 8.11867 14.2981 7.4865C13.6659 6.8545 12.8986 6.5385 11.9961 6.5385C11.0936 6.5385 10.3263 6.8545 9.69409 7.4865C9.06209 8.11867 8.74609 8.886 8.74609 9.7885C8.74609 10.691 9.06209 11.4583 9.69409 12.0905C10.3263 12.7225 11.0936 13.0385 11.9961 13.0385ZM6.43834 19H17.5538V18.7885C16.764 18.0833 15.8977 17.5577 14.9548 17.2115C14.0118 16.8653 13.0256 16.6923 11.9961 16.6923C10.9794 16.6923 9.99801 16.8638 9.05184 17.2068C8.10568 17.5498 7.23451 18.0706 6.43834 18.7693V19ZM11.9961 11.5385C11.5153 11.5385 11.1034 11.367 10.7606 11.024C10.4176 10.6812 10.2461 10.2693 10.2461 9.7885C10.2461 9.30767 10.4176 8.89583 10.7606 8.553C11.1034 8.21 11.5153 8.0385 11.9961 8.0385C12.4769 8.0385 12.8888 8.21 13.2316 8.553C13.5746 8.89583 13.7461 9.30767 13.7461 9.7885C13.7461 10.2693 13.5746 10.6812 13.2316 11.024C12.8888 11.367 12.4769 11.5385 11.9961 11.5385Z" fill="currentColor"/>
</svg>
