<svg width="16" height="16" viewBox="0 0 16 16" fill="none" xmlns="http://www.w3.org/2000/svg">
<path d="M4.69229 11.0257C3.85518 11.0257 3.14163 10.7307 2.55163 10.1407C1.96163 9.55081 1.66663 8.83736 1.66663 8.00036C1.66663 7.16336 1.96163 6.44981 2.55163 5.8597C3.14163 5.26948 3.85518 4.97437 4.69229 4.97437H6.70513C6.84679 4.97437 6.96552 5.02231 7.06129 5.1182C7.15718 5.21409 7.20513 5.33292 7.20513 5.4747C7.20513 5.61636 7.15718 5.73509 7.06129 5.83086C6.96552 5.92653 6.84679 5.97437 6.70513 5.97437H4.69146C4.13213 5.97437 3.65485 6.17203 3.25963 6.56736C2.86429 6.9627 2.66663 7.44025 2.66663 8.00003C2.66663 8.55981 2.86429 9.03736 3.25963 9.4327C3.65485 9.82803 4.13213 10.0257 4.69146 10.0257H6.70513C6.84679 10.0257 6.96552 10.0736 7.06129 10.1695C7.15718 10.2654 7.20513 10.3842 7.20513 10.5259C7.20513 10.6676 7.15718 10.7864 7.06129 10.882C6.96552 10.9778 6.84679 11.0257 6.70513 11.0257H4.69229ZM5.99996 8.50003C5.85829 8.50003 5.73957 8.45209 5.64379 8.3562C5.5479 8.26031 5.49996 8.14153 5.49996 7.99986C5.49996 7.85809 5.5479 7.73936 5.64379 7.6437C5.73957 7.54792 5.85829 7.50003 5.99996 7.50003H9.99996C10.1416 7.50003 10.2603 7.54798 10.3561 7.64386C10.452 7.73975 10.5 7.85853 10.5 8.0002C10.5 8.14198 10.452 8.2607 10.3561 8.35636C10.2603 8.45214 10.1416 8.50003 9.99996 8.50003H5.99996ZM9.29479 11.0257C9.15313 11.0257 9.0344 10.9778 8.93863 10.8819C8.84274 10.786 8.79479 10.6671 8.79479 10.5254C8.79479 10.3837 8.84274 10.265 8.93863 10.1692C9.0344 10.0735 9.15313 10.0257 9.29479 10.0257H11.3085C11.8678 10.0257 12.3451 9.82803 12.7403 9.4327C13.1356 9.03736 13.3333 8.55981 13.3333 8.00003C13.3333 7.44025 13.1356 6.9627 12.7403 6.56736C12.3451 6.17203 11.8678 5.97437 11.3085 5.97437H9.29479C9.15313 5.97437 9.0344 5.92642 8.93863 5.83053C8.84274 5.73464 8.79479 5.61587 8.79479 5.4742C8.79479 5.33242 8.84274 5.2137 8.93863 5.11803C9.0344 5.02225 9.15313 4.97437 9.29479 4.97437H11.3076C12.1447 4.97437 12.8583 5.26936 13.4483 5.85936C14.0383 6.44925 14.3333 7.1627 14.3333 7.9997C14.3333 8.8367 14.0383 9.55025 13.4483 10.1404C12.8583 10.7306 12.1447 11.0257 11.3076 11.0257H9.29479Z" fill="currentColor"/>
</svg>
