<svg width="20" height="20" viewBox="0 0 20 20" fill="none" xmlns="http://www.w3.org/2000/svg">
<path d="M13.5176 2.88458C14.7569 2.88458 15.7999 3.35041 16.6466 4.28208C17.4933 5.21375 17.9166 6.3291 17.9166 7.62812C17.9166 7.88882 17.8987 8.14736 17.8628 8.40375C17.827 8.66028 17.7664 8.91458 17.681 9.16667H12.9374L11.5208 7.04167C11.4513 6.93055 11.3541 6.84028 11.2291 6.77083C11.1041 6.70139 10.9721 6.66667 10.8333 6.66667C10.6527 6.66667 10.4895 6.72222 10.3437 6.83333C10.1978 6.94444 10.0971 7.08333 10.0416 7.25L8.91658 10.625L8.18742 9.54167C8.11797 9.43055 8.02075 9.34028 7.89575 9.27083C7.77075 9.20139 7.63881 9.16667 7.49992 9.16667H2.31888C2.23346 8.91986 2.17284 8.66826 2.137 8.41187C2.10117 8.15549 2.08325 7.90118 2.08325 7.64896C2.08325 6.33604 2.50311 5.21375 3.34284 4.28208C4.18256 3.35041 5.22207 2.88458 6.46138 2.88458C7.07999 2.88458 7.66839 3.00854 8.22658 3.25646C8.78492 3.50437 9.28256 3.85639 9.7195 4.3125L9.99992 4.60896L10.2643 4.32854C10.698 3.86701 11.1954 3.51097 11.7564 3.26042C12.3172 3.00986 12.9043 2.88458 13.5176 2.88458ZM9.99992 17.0912C9.80867 17.0912 9.62249 17.0555 9.44138 16.984C9.26027 16.9124 9.10082 16.8051 8.96304 16.6619L3.53992 11.2179C3.47797 11.156 3.42034 11.094 3.367 11.0321C3.31353 10.9701 3.26013 10.9039 3.20679 10.8333H7.04158L8.45825 12.9583C8.5277 13.0694 8.62492 13.1597 8.74992 13.2292C8.87492 13.2986 9.00686 13.3333 9.14575 13.3333C9.32631 13.3333 9.49297 13.2778 9.64575 13.1667C9.79853 13.0556 9.9027 12.9167 9.95825 12.75L11.0833 9.375L11.7916 10.4583C11.8749 10.5694 11.9791 10.6597 12.1041 10.7292C12.2291 10.7986 12.361 10.8333 12.4999 10.8333H16.7803C16.7269 10.8953 16.6735 10.9572 16.6201 11.0192C16.5667 11.0811 16.5133 11.1431 16.4599 11.2052L11.016 16.6619C10.8728 16.8051 10.7154 16.9124 10.5439 16.984C10.3725 17.0555 10.1912 17.0912 9.99992 17.0912Z" fill="currentColor"/>
</svg>
