<svg width="24" height="24" viewBox="0 0 24 24" fill="none" xmlns="http://www.w3.org/2000/svg">
<path d="M4.59854 21C4.15095 21 3.77263 20.8456 3.46358 20.5367C3.15453 20.2278 3 19.8497 3 19.4023V6.89668C3 6.44933 3.15453 6.07122 3.46358 5.76233C3.77263 5.45345 4.15095 5.299 4.59854 5.299H11.1876C11.403 5.299 11.5646 5.36666 11.6723 5.50197C11.78 5.63745 11.8338 5.7851 11.8338 5.94493C11.8338 6.10476 11.7797 6.25241 11.6715 6.38789C11.5633 6.5232 11.4051 6.59086 11.197 6.59086H4.59854C4.52198 6.59086 4.45188 6.62274 4.38825 6.6865C4.32445 6.7501 4.29255 6.82016 4.29255 6.89668V19.4023C4.29255 19.4788 4.32445 19.5489 4.38825 19.6125C4.45188 19.6763 4.52198 19.7081 4.59854 19.7081H17.1109C17.1875 19.7081 17.2576 19.6763 17.3212 19.6125C17.385 19.5489 17.4169 19.4788 17.4169 19.4023V13.3532C17.4169 13.146 17.4846 12.9886 17.62 12.8809C17.7555 12.7733 17.9033 12.7195 18.0632 12.7195C18.2231 12.7195 18.3708 12.7733 18.5064 12.8809C18.6418 12.9886 18.7095 13.1501 18.7095 13.3654V19.4023C18.7095 19.8497 18.5549 20.2278 18.2459 20.5367C17.9368 20.8456 17.5585 21 17.1109 21H4.59854ZM8.96561 14.2434V12.7257C8.96561 12.5138 9.00389 12.3099 9.08045 12.1138C9.15685 11.9175 9.27384 11.7407 9.43143 11.5834L17.6503 3.36892C17.7878 3.23129 17.9325 3.1354 18.0843 3.08124C18.2359 3.02708 18.3949 3 18.5613 3C18.7298 3 18.8919 3.02708 19.0475 3.08124C19.2033 3.1354 19.3463 3.22632 19.4765 3.35402L20.6023 4.45433C20.7463 4.59196 20.8486 4.74284 20.9093 4.90697C20.9698 5.07111 21 5.23747 21 5.40608C21 5.57501 20.9712 5.73856 20.9135 5.89673C20.8558 6.0549 20.7585 6.20214 20.6214 6.33845L12.374 14.5817C12.2164 14.7391 12.0399 14.8544 11.8445 14.9278C11.649 15.001 11.4456 15.0376 11.2343 15.0376H9.76948C9.54328 15.0376 9.3528 14.9619 9.19803 14.8105C9.04309 14.659 8.96561 14.4699 8.96561 14.2434ZM10.2582 13.7457H11.373L17.5449 7.57689L17.0001 7.00748L16.4112 6.44378L10.2582 12.5935V13.7457Z" fill="currentColor"/>
</svg>
