<svg width="16" height="16" viewBox="0 0 16 16" fill="none" xmlns="http://www.w3.org/2000/svg">
<path d="M5.66644 4.9209C5.90151 6.66672 6.90536 8.46152 8.91351 8.97168C6.90529 9.48169 5.90162 11.2776 5.66644 13.0234C5.43121 11.2772 4.42673 9.48114 2.41742 8.97168C4.42666 8.46207 5.43132 6.6672 5.66644 4.9209ZM11.3061 2.86816C11.3744 3.32192 11.5119 3.8234 11.7524 4.29004C12.1051 4.97451 12.6911 5.60272 13.602 5.86035C12.6911 6.11793 12.1051 6.74624 11.7524 7.43066C11.5121 7.89687 11.3744 8.39813 11.3061 8.85156C11.2377 8.39819 11.101 7.89679 10.8608 7.43066C10.5079 6.7461 9.92145 6.11798 9.01019 5.86035C9.92148 5.60283 10.508 4.97467 10.8608 4.29004C11.1012 3.82347 11.2378 3.32185 11.3061 2.86816Z" stroke="#171719" stroke-width="0.888889"/>
</svg>
