<svg width="16" height="16" viewBox="0 0 16 16" fill="none" xmlns="http://www.w3.org/2000/svg">
<path d="M3.74354 12.3333V12.9615C3.74354 13.1573 3.67493 13.3238 3.53771 13.461C3.40048 13.5981 3.23382 13.6666 3.03771 13.6666C2.84171 13.6666 2.67532 13.5981 2.53854 13.461C2.40176 13.3238 2.33337 13.1573 2.33337 12.9615V8.25896C2.33337 8.18974 2.33787 8.12051 2.34687 8.05129C2.35587 7.98207 2.37099 7.91574 2.39221 7.85229L3.58604 4.47696C3.66593 4.23685 3.81071 4.04179 4.02037 3.89179C4.23004 3.74168 4.46471 3.66663 4.72437 3.66663H11.2757C11.5354 3.66663 11.77 3.74168 11.9797 3.89179C12.1894 4.04179 12.3342 4.23685 12.414 4.47696L13.6079 7.85229C13.6291 7.91574 13.6442 7.98207 13.6532 8.05129C13.6622 8.12051 13.6667 8.18974 13.6667 8.25896V12.9615C13.6667 13.1573 13.5981 13.3238 13.4609 13.461C13.3235 13.5981 13.1569 13.6666 12.9609 13.6666C12.7648 13.6666 12.5983 13.5981 12.4615 13.461C12.3249 13.3238 12.2565 13.1573 12.2565 12.9615V12.3333H3.74354ZM3.73854 7.05129H12.2615L11.4719 4.80129C11.4548 4.75852 11.4291 4.7254 11.3949 4.70196C11.3607 4.6784 11.32 4.66663 11.273 4.66663H4.72704C4.68004 4.66663 4.63943 4.6784 4.60521 4.70196C4.57099 4.7254 4.54532 4.75852 4.52821 4.80129L3.73854 7.05129ZM4.97587 10.5641C5.21843 10.5641 5.42415 10.4792 5.59304 10.3093C5.76182 10.1395 5.84621 9.93335 5.84621 9.69079C5.84621 9.44824 5.76132 9.24252 5.59154 9.07363C5.42165 8.90485 5.21543 8.82046 4.97287 8.82046C4.73032 8.82046 4.52465 8.90535 4.35587 9.07513C4.18699 9.24502 4.10254 9.45124 4.10254 9.69379C4.10254 9.93635 4.18749 10.142 4.35737 10.3108C4.52715 10.4797 4.73332 10.5641 4.97587 10.5641ZM11.0272 10.5641C11.2698 10.5641 11.4754 10.4792 11.6442 10.3093C11.8131 10.1395 11.8975 9.93335 11.8975 9.69079C11.8975 9.44824 11.8126 9.24252 11.6427 9.07363C11.4729 8.90485 11.2668 8.82046 11.0242 8.82046C10.7817 8.82046 10.5759 8.90535 10.407 9.07513C10.2383 9.24502 10.1539 9.45124 10.1539 9.69379C10.1539 9.93635 10.2388 10.142 10.4085 10.3108C10.5784 10.4797 10.7847 10.5641 11.0272 10.5641Z" fill="currentColor"/>
</svg>
