<svg width="16" height="16" viewBox="0 0 16 16" fill="none" xmlns="http://www.w3.org/2000/svg">
<path d="M3.5 12.5896C3.35833 12.5896 3.23961 12.5417 3.14383 12.446C3.04794 12.3501 3 12.2312 3 12.0895C3 11.9478 3.04794 11.8291 3.14383 11.7333C3.23961 11.6376 3.35833 11.5898 3.5 11.5898H4.20517V6.61529C4.20517 5.71874 4.48189 4.92601 5.03533 4.23713C5.58867 3.54824 6.29911 3.10763 7.16667 2.91529V2.49996C7.16667 2.26851 7.24761 2.07174 7.4095 1.90963C7.57139 1.74763 7.76794 1.66663 7.99917 1.66663C8.2305 1.66663 8.42733 1.74763 8.58967 1.90963C8.75211 2.07174 8.83333 2.26851 8.83333 2.49996V2.91529C9.70089 3.10763 10.4113 3.54824 10.9647 4.23713C11.5181 4.92601 11.7948 5.71874 11.7948 6.61529V11.5898H12.5C12.6417 11.5898 12.7604 11.6377 12.8562 11.7335C12.9521 11.8293 13 11.9482 13 12.09C13 12.2316 12.9521 12.3503 12.8562 12.4461C12.7604 12.5418 12.6417 12.5896 12.5 12.5896H3.5ZM7.99883 14.4615C7.66717 14.4615 7.38361 14.3435 7.14817 14.1075C6.91261 13.8715 6.79483 13.5877 6.79483 13.2563H9.20517C9.20517 13.5888 9.08706 13.8728 8.85083 14.1083C8.61461 14.3437 8.33061 14.4615 7.99883 14.4615ZM5.20517 11.5898H10.7948V6.61529C10.7948 5.84351 10.522 5.18479 9.97633 4.63913C9.43056 4.09335 8.77178 3.82046 8 3.82046C7.22822 3.82046 6.56944 4.09335 6.02367 4.63913C5.478 5.18479 5.20517 5.84351 5.20517 6.61529V11.5898Z" fill="currentColor"/>
</svg>
