<svg width="16" height="16" viewBox="0 0 16 16" fill="none" xmlns="http://www.w3.org/2000/svg">
<path d="M9.24137 8.59078C7.04056 8.16252 6.0553 6.03211 6.0553 4.1102C6.0553 4.00704 6.01432 3.9081 5.94137 3.83516C5.86842 3.76221 5.76949 3.72123 5.66632 3.72123C5.56316 3.72123 5.46423 3.76221 5.39128 3.83516C5.31833 3.9081 5.27735 4.00704 5.27735 4.1102C5.27735 6.03211 4.29209 8.16252 2.09128 8.59078C2.00293 8.60825 1.92337 8.65584 1.8662 8.72543C1.80903 8.79502 1.77777 8.88229 1.77777 8.97236C1.77777 9.06242 1.80903 9.1497 1.8662 9.21928C1.92337 9.28887 2.00293 9.33647 2.09128 9.35394C4.29209 9.7822 5.27735 11.9126 5.27735 13.8345C5.27735 13.9377 5.31833 14.0366 5.39128 14.1096C5.46423 14.1825 5.56316 14.2235 5.66632 14.2235C5.76949 14.2235 5.86842 14.1825 5.94137 14.1096C6.01432 14.0366 6.0553 13.9377 6.0553 13.8345C6.0553 11.9126 7.04056 9.7822 9.24137 9.35394C9.32972 9.33647 9.40928 9.28887 9.46645 9.21928C9.52362 9.1497 9.55488 9.06242 9.55488 8.97236C9.55488 8.88229 9.52362 8.79502 9.46645 8.72543C9.40928 8.65584 9.32972 8.60825 9.24137 8.59078ZM13.9125 5.47977C12.1622 5.12153 11.6954 3.22762 11.6954 2.16534C11.6954 2.06218 11.6544 1.96324 11.5815 1.89029C11.5085 1.81735 11.4096 1.77637 11.3064 1.77637C11.2033 1.77637 11.1043 1.81735 11.0314 1.89029C10.9584 1.96324 10.9175 2.06218 10.9175 2.16534C10.9175 3.22762 10.4507 5.12153 8.70031 5.47977C8.61279 5.498 8.53422 5.54581 8.47782 5.61516C8.42142 5.68452 8.39063 5.77118 8.39063 5.86058C8.39063 5.94997 8.42142 6.03664 8.47782 6.10599C8.53422 6.17535 8.61279 6.22316 8.70031 6.24138C10.4507 6.60001 10.9175 8.49353 10.9175 9.55582C10.9175 9.65898 10.9584 9.75792 11.0314 9.83086C11.1043 9.90381 11.2033 9.94479 11.3064 9.94479C11.4096 9.94479 11.5085 9.90381 11.5815 9.83086C11.6544 9.75792 11.6954 9.65898 11.6954 9.55582C11.6954 8.49353 12.1622 6.59963 13.9125 6.24138C14.0001 6.22316 14.0786 6.17535 14.135 6.10599C14.1914 6.03664 14.2222 5.94997 14.2222 5.86058C14.2222 5.77118 14.1914 5.68452 14.135 5.61516C14.0786 5.54581 14.0001 5.498 13.9125 5.47977Z" fill="#171719"/>
</svg>
