<svg width="16" height="16" viewBox="0 0 16 16" fill="none" xmlns="http://www.w3.org/2000/svg">
<path d="M1.85901 12.1154V9.8719C1.85901 9.40601 2.02034 9.01179 2.34301 8.68923C2.66568 8.36656 3.0599 8.20523 3.52568 8.20523H4.33334V3.96156C4.33334 3.68045 4.43184 3.44134 4.62884 3.24423C4.82584 3.04723 5.06495 2.94873 5.34618 2.94873H10.6538C10.9351 2.94873 11.1742 3.04723 11.3712 3.24423C11.5682 3.44134 11.6667 3.68045 11.6667 3.96156V8.20523H12.4743C12.9401 8.20523 13.3343 8.36656 13.657 8.68923C13.9797 9.01179 14.141 9.40601 14.141 9.8719V12.1154C14.141 12.3966 14.0425 12.6357 13.8455 12.8327C13.6485 13.0297 13.4094 13.1282 13.1282 13.1282H2.87184C2.59062 13.1282 2.35151 13.0297 2.15451 12.8327C1.95751 12.6357 1.85901 12.3966 1.85901 12.1154ZM5.33334 8.20523H10.6667V3.94873H5.33334V8.20523ZM2.85901 12.1282H13.141V9.8719C13.141 9.68301 13.0771 9.52468 12.9493 9.3969C12.8216 9.26912 12.6632 9.20523 12.4743 9.20523H3.52568C3.33679 9.20523 3.17845 9.26912 3.05068 9.3969C2.9229 9.52468 2.85901 9.68301 2.85901 9.8719V12.1282ZM11.8718 11.0769C12.0607 11.0769 12.2191 11.013 12.3468 10.8852C12.4746 10.7575 12.5385 10.5991 12.5385 10.4102C12.5385 10.2213 12.4746 10.063 12.3468 9.93523C12.2191 9.80745 12.0607 9.74356 11.8718 9.74356C11.683 9.74356 11.5246 9.80745 11.3968 9.93523C11.2691 10.063 11.2052 10.2213 11.2052 10.4102C11.2052 10.5991 11.2691 10.7575 11.3968 10.8852C11.5246 11.013 11.683 11.0769 11.8718 11.0769Z" fill="currentColor"/>
</svg>
