<svg width="20" height="20" viewBox="0 0 20 20" fill="none" xmlns="http://www.w3.org/2000/svg">
<path d="M14.1667 6.7115L5.06735 15.8109C4.95193 15.9263 4.80693 15.9853 4.63235 15.988C4.45762 15.9906 4.30991 15.9316 4.18922 15.8109C4.06853 15.6902 4.00818 15.5439 4.00818 15.3719C4.00818 15.1998 4.06853 15.0534 4.18922 14.9327L13.2886 5.83337H8.12505C7.94797 5.83337 7.7995 5.77344 7.67964 5.65358C7.55991 5.53372 7.50005 5.38525 7.50005 5.20817C7.50005 5.03094 7.55991 4.88254 7.67964 4.76296C7.7995 4.64324 7.94797 4.58337 8.12505 4.58337H14.6634C14.8769 4.58337 15.0557 4.6556 15.2001 4.80004C15.3445 4.94435 15.4167 5.12323 15.4167 5.33671V11.875C15.4167 12.0521 15.3568 12.2006 15.2369 12.3205C15.1171 12.4402 14.9686 12.5 14.7915 12.5C14.6143 12.5 14.4659 12.4402 14.3463 12.3205C14.2266 12.2006 14.1667 12.0521 14.1667 11.875V6.7115Z" fill="currentColor"/>
</svg>
