<svg width="20" height="20" viewBox="0 0 20 20" fill="none" xmlns="http://www.w3.org/2000/svg">
<path d="M6.76249 9.99984C6.58541 9.99984 6.437 10.0597 6.31728 10.1794C6.1977 10.2993 6.13791 10.4478 6.13791 10.6248V13.3332C6.13791 13.5103 6.19784 13.6587 6.3177 13.7784C6.43742 13.8982 6.58589 13.9582 6.76312 13.9582C6.9402 13.9582 7.0886 13.8982 7.20832 13.7784C7.32791 13.6587 7.3877 13.5103 7.3877 13.3332V10.6248C7.3877 10.4478 7.32784 10.2993 7.20811 10.1794C7.08825 10.0597 6.93971 9.99984 6.76249 9.99984ZM13.2369 5.83317C13.0598 5.83317 12.9114 5.89303 12.7917 6.01275C12.6721 6.13262 12.6123 6.28109 12.6123 6.45817V13.3332C12.6123 13.5103 12.6721 13.6587 12.7919 13.7784C12.9117 13.8982 13.0603 13.9582 13.2375 13.9582C13.4146 13.9582 13.563 13.8982 13.6827 13.7784C13.8023 13.6587 13.8621 13.5103 13.8621 13.3332V6.45817C13.8621 6.28109 13.8021 6.13262 13.6823 6.01275C13.5626 5.89303 13.4141 5.83317 13.2369 5.83317ZM9.99978 11.6665C9.82256 11.6665 9.67416 11.7264 9.55457 11.8461C9.43485 11.9659 9.37499 12.1144 9.37499 12.2915V13.3332C9.37499 13.5103 9.43492 13.6587 9.55478 13.7784C9.67464 13.8982 9.82312 13.9582 10.0002 13.9582C10.1774 13.9582 10.3258 13.8982 10.4454 13.7784C10.5651 13.6587 10.625 13.5103 10.625 13.3332V12.2915C10.625 12.1144 10.5651 11.9659 10.4452 11.8461C10.3253 11.7264 10.1769 11.6665 9.99978 11.6665ZM4.42311 17.0832C4.00214 17.0832 3.64582 16.9373 3.35416 16.6457C3.06249 16.354 2.91666 15.9977 2.91666 15.5767V4.42296C2.91666 4.00199 3.06249 3.64567 3.35416 3.354C3.64582 3.06234 4.00214 2.9165 4.42311 2.9165H15.5769C15.9978 2.9165 16.3542 3.06234 16.6458 3.354C16.9375 3.64567 17.0833 4.00199 17.0833 4.42296V15.5767C17.0833 15.9977 16.9375 16.354 16.6458 16.6457C16.3542 16.9373 15.9978 17.0832 15.5769 17.0832H4.42311ZM10.0002 9.7915C10.1774 9.7915 10.3258 9.73157 10.4454 9.61171C10.5651 9.49185 10.625 9.34338 10.625 9.1663C10.625 8.98907 10.5651 8.84067 10.4452 8.72109C10.3253 8.60137 10.1769 8.5415 9.99978 8.5415C9.82256 8.5415 9.67416 8.60143 9.55457 8.7213C9.43485 8.84116 9.37499 8.98963 9.37499 9.16671C9.37499 9.34393 9.43492 9.49234 9.55478 9.61192C9.67464 9.73164 9.82312 9.7915 10.0002 9.7915Z" fill="#1F1F1F"/>
</svg>
