<svg width="24" height="24" viewBox="0 0 24 24" fill="none" xmlns="http://www.w3.org/2000/svg">
<path d="M3.5 8.46152H20.5V5.74052C20.5 5.36385 20.3682 5.04368 20.1045 4.78002C19.8408 4.51652 19.5208 4.38477 19.1443 4.38477H4.85575C4.47925 4.38477 4.15917 4.51652 3.8955 4.78002C3.63183 5.04368 3.5 5.36385 3.5 5.74052V8.46152ZM3.5 14.0385H20.5V9.96152H3.5V14.0385ZM4.85575 19.6153H19.1443C19.5208 19.6153 19.8408 19.4835 20.1045 19.22C20.3682 18.9563 20.5 18.6362 20.5 18.2595V15.5385H3.5V18.2595C3.5 18.6362 3.63183 18.9563 3.8955 19.22C4.15917 19.4835 4.47925 19.6153 4.85575 19.6153ZM5.78675 7.32702C5.53025 7.32702 5.31575 7.24018 5.14325 7.06651C4.97092 6.89301 4.88475 6.67801 4.88475 6.42151C4.88475 6.16485 4.9715 5.95035 5.145 5.77802C5.3185 5.60552 5.53358 5.51927 5.79025 5.51927C6.04675 5.51927 6.26125 5.60602 6.43375 5.77952C6.60608 5.95318 6.69225 6.16827 6.69225 6.42477C6.69225 6.68143 6.6055 6.89593 6.432 7.06826C6.2585 7.24076 6.04342 7.32702 5.78675 7.32702ZM5.78675 12.9038C5.53025 12.9038 5.31575 12.817 5.14325 12.6435C4.97092 12.47 4.88475 12.2549 4.88475 11.9983C4.88475 11.7418 4.9715 11.5273 5.145 11.3548C5.3185 11.1824 5.53358 11.0963 5.79025 11.0963C6.04675 11.0963 6.26125 11.183 6.43375 11.3565C6.60608 11.53 6.69225 11.7451 6.69225 12.0018C6.69225 12.2583 6.6055 12.4728 6.432 12.6453C6.2585 12.8176 6.04342 12.9038 5.78675 12.9038ZM5.78675 18.4808C5.53025 18.4808 5.31575 18.394 5.14325 18.2205C4.97092 18.0468 4.88475 17.8318 4.88475 17.5753C4.88475 17.3186 4.9715 17.1041 5.145 16.9318C5.3185 16.7593 5.53358 16.673 5.79025 16.673C6.04675 16.673 6.26125 16.7598 6.43375 16.9335C6.60608 17.107 6.69225 17.322 6.69225 17.5785C6.69225 17.8352 6.6055 18.0497 6.432 18.222C6.2585 18.3945 6.04342 18.4808 5.78675 18.4808Z" fill="currentColor"/>
</svg>
