<svg width="20" height="20" viewBox="0 0 20 20" fill="none" xmlns="http://www.w3.org/2000/svg">
<path d="M6.75642 16.5834C6.38795 16.5834 6.07253 16.4522 5.81017 16.1898C5.54781 15.9275 5.41663 15.612 5.41663 15.2436V5.50002H4.95829C4.80482 5.50002 4.67621 5.4485 4.57246 5.34544C4.46857 5.24238 4.41663 5.11475 4.41663 4.96252C4.41663 4.81016 4.46857 4.68113 4.57246 4.57544C4.67621 4.46961 4.80482 4.41669 4.95829 4.41669H7.99996V4.16669C7.99996 3.98627 8.06385 3.83218 8.19163 3.7044C8.31927 3.57676 8.47329 3.51294 8.65371 3.51294H11.3462C11.5266 3.51294 11.6807 3.57676 11.8083 3.7044C11.9361 3.83218 12 3.98627 12 4.16669V4.41669H15.0416C15.1951 4.41669 15.3237 4.46822 15.4275 4.57127C15.5313 4.67433 15.5833 4.80197 15.5833 4.95419C15.5833 5.10655 15.5313 5.23558 15.4275 5.34127C15.3237 5.44711 15.1951 5.50002 15.0416 5.50002H14.5833V15.2346C14.5833 15.6132 14.4521 15.9327 14.1898 16.1929C13.9274 16.4532 13.612 16.5834 13.2435 16.5834H6.75642ZM13.5 5.50002H6.49996V15.2436C6.49996 15.3184 6.52399 15.3799 6.57204 15.4279C6.6201 15.476 6.68156 15.5 6.75642 15.5H13.2435C13.3184 15.5 13.3798 15.476 13.4279 15.4279C13.4759 15.3799 13.5 15.3184 13.5 15.2436V5.50002ZM8.87413 14C9.02635 14 9.15538 13.9481 9.26121 13.8444C9.3669 13.7405 9.41975 13.6118 9.41975 13.4584V7.54169C9.41975 7.38822 9.36829 7.25954 9.26538 7.15565C9.16232 7.0519 9.03461 7.00002 8.88225 7.00002C8.73003 7.00002 8.601 7.0519 8.49517 7.15565C8.38947 7.25954 8.33663 7.38822 8.33663 7.54169V13.4584C8.33663 13.6118 8.38808 13.7405 8.491 13.8444C8.59406 13.9481 8.72177 14 8.87413 14ZM11.1177 14C11.2699 14 11.3989 13.9481 11.5048 13.8444C11.6104 13.7405 11.6633 13.6118 11.6633 13.4584V7.54169C11.6633 7.38822 11.6118 7.25954 11.5089 7.15565C11.4059 7.0519 11.2782 7.00002 11.1258 7.00002C10.9736 7.00002 10.8445 7.0519 10.7387 7.15565C10.633 7.25954 10.5802 7.38822 10.5802 7.54169V13.4584C10.5802 13.6118 10.6316 13.7405 10.7345 13.8444C10.8376 13.9481 10.9653 14 11.1177 14Z" fill="currentColor"/>
</svg>
