<svg width="16" height="16" viewBox="0 0 16 16" fill="none" xmlns="http://www.w3.org/2000/svg">
<path d="M7.00002 9.69629L2.70768 13.9886C2.61535 14.0808 2.50041 14.1259 2.36285 14.1238C2.22529 14.1217 2.11035 14.0745 2.01802 13.9821C1.92568 13.8898 1.87952 13.7734 1.87952 13.633C1.87952 13.4925 1.92568 13.3768 2.01802 13.286L6.30385 9.00012H3.50002C3.35835 9.00012 3.23963 8.95218 3.14385 8.85629C3.04796 8.7604 3.00002 8.64162 3.00002 8.49996C3.00002 8.35818 3.04796 8.23946 3.14385 8.14379C3.23963 8.04801 3.35835 8.00012 3.50002 8.00012H7.39752C7.56818 8.00012 7.71129 8.05785 7.82685 8.17329C7.94229 8.28885 8.00002 8.43196 8.00002 8.60262V12.5001C8.00002 12.6418 7.95207 12.7605 7.85618 12.8563C7.76029 12.9522 7.64152 13.0001 7.49985 13.0001C7.35807 13.0001 7.23935 12.9522 7.14368 12.8563C7.04791 12.7605 7.00002 12.6418 7.00002 12.5001V9.69629ZM9.69618 7.00012H12.5C12.6417 7.00012 12.7604 7.04807 12.8562 7.14396C12.9521 7.23985 13 7.35862 13 7.50029C13 7.64207 12.9521 7.76079 12.8562 7.85646C12.7604 7.95224 12.6417 8.00012 12.5 8.00012H8.60252C8.43185 8.00012 8.28874 7.9424 8.17318 7.82696C8.05774 7.7114 8.00002 7.56829 8.00002 7.39762V3.50012C8.00002 3.35846 8.04796 3.23974 8.14385 3.14396C8.23974 3.04807 8.35852 3.00012 8.50018 3.00012C8.64196 3.00012 8.76068 3.04807 8.85635 3.14396C8.95213 3.23974 9.00002 3.35846 9.00002 3.50012V6.30396L13.2923 2.01162C13.3832 1.9194 13.4989 1.87329 13.6393 1.87329C13.7798 1.87329 13.8962 1.9194 13.9885 2.01162C14.0807 2.10396 14.1269 2.22035 14.1269 2.36079C14.1269 2.50124 14.0807 2.6169 13.9885 2.70779L9.69618 7.00012Z" fill="currentColor"/>
</svg>
