<svg width="24" height="24" viewBox="0 0 24 24" fill="none" xmlns="http://www.w3.org/2000/svg">
<path d="M12 21.5C9.71033 21.5 7.69816 20.791 5.96349 19.373C4.22883 17.955 3.13841 16.1499 2.69224 13.9578C2.64491 13.7449 2.68533 13.5548 2.81349 13.3875C2.94166 13.2202 3.11216 13.1231 3.32499 13.0963C3.53783 13.0693 3.72533 13.1198 3.88749 13.248C4.04966 13.3762 4.15958 13.5467 4.21724 13.7595C4.62241 15.5737 5.54708 17.0673 6.99124 18.2405C8.43558 19.4135 10.1052 20 12 20C14.2333 20 16.125 19.225 17.675 17.675C19.225 16.125 20 14.2333 20 12C20 9.76667 19.225 7.875 17.675 6.325C16.125 4.775 14.2333 4 12 4C10.4962 4 9.11249 4.38625 7.84899 5.15875C6.58549 5.93108 5.61149 6.99033 4.92699 8.3365H7.13475C7.34708 8.3365 7.52516 8.40842 7.66899 8.55225C7.81266 8.69608 7.88449 8.87433 7.88449 9.087C7.88449 9.2995 7.81266 9.47758 7.66899 9.62125C7.52516 9.76475 7.34708 9.8365 7.13475 9.8365H4.04724C3.71441 9.8365 3.44958 9.70192 3.25274 9.43275C3.05608 9.16342 3.01608 8.87817 3.13274 8.577C3.82624 6.76417 4.97849 5.29808 6.58949 4.17875C8.20033 3.05958 10.0038 2.5 12 2.5C13.3142 2.5 14.5492 2.74933 15.705 3.248C16.8608 3.74667 17.8662 4.42342 18.7212 5.27825C19.5762 6.13308 20.2531 7.13833 20.7517 8.294C21.2506 9.44967 21.5 10.6844 21.5 11.9983C21.5 13.3123 21.2506 14.5473 20.7517 15.7035C20.2531 16.8597 19.5762 17.8653 18.7212 18.7205C17.8662 19.5757 16.8608 20.2528 15.705 20.7518C14.5492 21.2506 13.3142 21.5 12 21.5ZM12.75 11.6962L15.25 14.2058C15.3885 14.3421 15.4577 14.5156 15.4577 14.7262C15.4577 14.9369 15.3885 15.1131 15.25 15.2548C15.1115 15.3964 14.9358 15.4657 14.723 15.4625C14.5102 15.4593 14.3346 15.3885 14.1962 15.25L11.524 12.5778C11.4285 12.4823 11.359 12.3793 11.3155 12.269C11.2718 12.1587 11.25 12.0447 11.25 11.927V8.1155C11.25 7.903 11.3219 7.72483 11.4657 7.581C11.6096 7.43733 11.7877 7.3655 12.0002 7.3655C12.2129 7.3655 12.391 7.43733 12.5345 7.581C12.6782 7.72483 12.75 7.903 12.75 8.1155V11.6962Z" fill="currentColor"/>
</svg>
