<svg width="16" height="16" viewBox="0 0 16 16" fill="none" xmlns="http://www.w3.org/2000/svg">
<path d="M8 7.79472C7.35833 7.79472 6.80906 7.56627 6.35217 7.10939C5.89517 6.65239 5.66667 6.10305 5.66667 5.46139C5.66667 4.81972 5.89517 4.27044 6.35217 3.81355C6.80906 3.35655 7.35833 3.12805 8 3.12805C8.64167 3.12805 9.19094 3.35655 9.64783 3.81355C10.1048 4.27044 10.3333 4.81972 10.3333 5.46139C10.3333 6.10305 10.1048 6.65239 9.64783 7.10939C9.19094 7.56627 8.64167 7.79472 8 7.79472ZM3 11.8589V11.3896C3 11.0631 3.08867 10.7608 3.266 10.4826C3.44333 10.2043 3.68033 9.99044 3.977 9.84089C4.63589 9.51789 5.30061 9.27561 5.97117 9.11405C6.64172 8.9525 7.318 8.87172 8 8.87172C8.682 8.87172 9.35828 8.9525 10.0288 9.11405C10.6994 9.27561 11.3641 9.51789 12.023 9.84089C12.3197 9.99044 12.5567 10.2043 12.734 10.4826C12.9113 10.7608 13 11.0631 13 11.3896V11.8589C13 12.14 12.9015 12.3791 12.7045 12.5762C12.5075 12.7732 12.2684 12.8717 11.9872 12.8717H4.01283C3.73161 12.8717 3.4925 12.7732 3.2955 12.5762C3.0985 12.3791 3 12.14 3 11.8589ZM4 11.8717H12V11.3896C12 11.2546 11.9609 11.1296 11.8827 11.0146C11.8044 10.8997 11.6983 10.8059 11.5642 10.7332C10.9897 10.4503 10.4041 10.236 9.80717 10.0902C9.21017 9.94455 8.60778 9.87172 8 9.87172C7.39222 9.87172 6.78983 9.94455 6.19283 10.0902C5.59594 10.236 5.01028 10.4503 4.43583 10.7332C4.30172 10.8059 4.19556 10.8997 4.11733 11.0146C4.03911 11.1296 4 11.2546 4 11.3896V11.8717ZM8 6.79472C8.36667 6.79472 8.68056 6.66416 8.94167 6.40305C9.20278 6.14194 9.33333 5.82805 9.33333 5.46139C9.33333 5.09472 9.20278 4.78083 8.94167 4.51972C8.68056 4.25861 8.36667 4.12805 8 4.12805C7.63333 4.12805 7.31944 4.25861 7.05833 4.51972C6.79722 4.78083 6.66667 5.09472 6.66667 5.46139C6.66667 5.82805 6.79722 6.14194 7.05833 6.40305C7.31944 6.66416 7.63333 6.79472 8 6.79472Z" fill="currentColor"/>
</svg>
