<svg width="16" height="16" viewBox="0 0 16 16" fill="none" xmlns="http://www.w3.org/2000/svg">
<path d="M2.26767 13.3332C2.09689 13.3332 1.95406 13.2754 1.83917 13.1598C1.72417 13.0443 1.66667 12.9011 1.66667 12.7303V9.11366C1.66667 8.94288 1.72445 8.80004 1.84001 8.68516C1.95556 8.57016 2.09873 8.51266 2.26951 8.51266H5.88617C6.05695 8.51266 6.19978 8.57043 6.31467 8.68599C6.42967 8.80154 6.48717 8.94471 6.48717 9.11549V12.7322C6.48717 12.9029 6.42939 13.0458 6.31384 13.1607C6.19828 13.2757 6.05512 13.3332 5.88434 13.3332H2.26767ZM2.66667 12.3332H5.48717V9.51266H2.66667V12.3332ZM9.54734 6.33316H5.27317C5.04317 6.33316 4.87073 6.22993 4.75584 6.02349C4.64084 5.81704 4.64362 5.61343 4.76417 5.41266L6.89484 1.92032C7.01628 1.72377 7.18834 1.62549 7.41101 1.62549C7.63356 1.62549 7.80512 1.72377 7.92567 1.92032L10.0563 5.41266C10.1769 5.61343 10.1797 5.81704 10.0647 6.02349C9.94978 6.22993 9.77734 6.33316 9.54734 6.33316ZM5.96917 5.33316H8.85134L7.41034 3.01516L5.96917 5.33316ZM14.0448 14.5767L12.6423 13.1742C12.4218 13.3339 12.1797 13.4559 11.916 13.5402C11.6523 13.6244 11.3727 13.6665 11.077 13.6665C10.312 13.6665 9.66351 13.4004 9.13151 12.8683C8.59939 12.3363 8.33334 11.6878 8.33334 10.9228C8.33334 10.1579 8.59939 9.50943 9.13151 8.97732C9.66351 8.44532 10.312 8.17932 11.077 8.17932C11.8419 8.17932 12.4904 8.44532 13.0225 8.97732C13.5545 9.50943 13.8205 10.1579 13.8205 10.9228C13.8205 11.2117 13.7784 11.4869 13.6942 11.7485C13.6101 12.01 13.4936 12.2511 13.3448 12.4717L14.7475 13.8742C14.8397 13.9665 14.8869 14.0825 14.8892 14.2223C14.8913 14.362 14.8441 14.4801 14.7475 14.5767C14.6508 14.6733 14.5337 14.7217 14.3962 14.7217C14.2586 14.7217 14.1415 14.6733 14.0448 14.5767ZM11.0767 12.6665C11.5649 12.6665 11.9776 12.4979 12.3148 12.1608C12.652 11.8238 12.8205 11.4113 12.8205 10.9232C12.8205 10.4349 12.652 10.0222 12.315 9.68499C11.9779 9.34788 11.5653 9.17932 11.0772 9.17932C10.589 9.17932 10.1763 9.34782 9.83917 9.68482C9.50195 10.0219 9.33334 10.4345 9.33334 10.9227C9.33334 11.4109 9.50189 11.8235 9.83901 12.1607C10.176 12.4979 10.5886 12.6665 11.0767 12.6665Z" fill="currentColor"/>
</svg>
