<svg width="24" height="24" viewBox="0 0 24 24" fill="none" xmlns="http://www.w3.org/2000/svg">
<path d="M11.225 19.7828C11.502 18.6751 12.0959 17.7427 13.0068 16.9855C13.9176 16.2285 14.982 15.85 16.2 15.85C16.5985 15.85 16.9831 15.891 17.3538 15.973C17.7243 16.0552 18.0801 16.193 18.4213 16.3865C18.8404 15.7854 19.175 15.1107 19.425 14.3625C19.675 13.6145 19.8 12.827 19.8 12C19.8 9.83336 19.0417 7.99169 17.525 6.47502C16.0084 4.95836 14.1667 4.20002 12 4.20002C9.83336 4.20002 7.99169 4.95836 6.47502 6.47502C4.95836 7.99169 4.20002 9.83336 4.20002 12C4.20002 12.641 4.27436 13.2615 4.42302 13.8615C4.57186 14.4615 4.79244 15.0327 5.08477 15.575C5.75911 15.2392 6.43661 15.001 7.11727 14.8605C7.79811 14.7202 8.49844 14.65 9.21827 14.65C9.69077 14.65 10.1655 14.6872 10.6425 14.7615C11.1197 14.8357 11.5587 14.9248 11.9595 15.0288C11.7224 15.1738 11.5128 15.3402 11.3308 15.528C11.1488 15.7157 10.968 15.9076 10.7885 16.1038C10.5937 16.0704 10.3488 16.0365 10.0538 16.002C9.75894 15.9674 9.47886 15.95 9.21352 15.95C8.61586 15.95 8.02286 16.0148 7.43452 16.1443C6.84619 16.2738 6.28536 16.4597 5.75202 16.702C6.41352 17.5854 7.22186 18.2904 8.17702 18.8173C9.13219 19.3443 10.1482 19.6661 11.225 19.7828ZM12.0085 21.1C10.7567 21.1 9.57769 20.8632 8.47152 20.3895C7.36536 19.9159 6.39719 19.2641 5.56702 18.4343C4.73686 17.6044 4.08477 16.637 3.61077 15.532C3.13694 14.4272 2.90002 13.2466 2.90002 11.9903C2.90002 10.7339 3.13686 9.55686 3.61052 8.45902C4.08419 7.36119 4.73594 6.39719 5.56577 5.56702C6.39561 4.73686 7.36302 4.08477 8.46802 3.61077C9.57286 3.13694 10.7534 2.90002 12.0098 2.90002C13.2661 2.90002 14.4432 3.13686 15.541 3.61052C16.6389 4.08419 17.6029 4.73594 18.433 5.56577C19.2632 6.39561 19.9153 7.36102 20.3893 8.46202C20.8631 9.56319 21.1 10.7397 21.1 11.9915C21.1 13.2434 20.8632 14.4224 20.3895 15.5285C19.9159 16.6347 19.2641 17.6029 18.4343 18.433C17.6044 19.2632 16.639 19.9153 15.538 20.3893C14.4369 20.8631 13.2604 21.1 12.0085 21.1ZM9.29452 12.65C8.44569 12.65 7.72602 12.3529 7.13552 11.7588C6.54519 11.1648 6.25002 10.4434 6.25002 9.59453C6.25002 8.74569 6.54711 8.02602 7.14127 7.43552C7.73527 6.84519 8.45669 6.55002 9.30552 6.55002C10.1544 6.55002 10.874 6.84711 11.4645 7.44128C12.0549 8.03527 12.35 8.75669 12.35 9.60552C12.35 10.4544 12.0529 11.174 11.4588 11.7645C10.8648 12.3549 10.1434 12.65 9.29452 12.65ZM9.30002 11.35C9.78086 11.35 10.1927 11.1785 10.5355 10.8355C10.8785 10.4927 11.05 10.0809 11.05 9.60002C11.05 9.11919 10.8785 8.70736 10.5355 8.36452C10.1927 8.02152 9.78086 7.85002 9.30002 7.85002C8.81919 7.85002 8.40736 8.02152 8.06452 8.36452C7.72152 8.70736 7.55002 9.11919 7.55002 9.60002C7.55002 10.0809 7.72152 10.4927 8.06452 10.8355C8.40736 11.1785 8.81919 11.35 9.30002 11.35ZM16.2058 13.7423C15.5514 13.7423 14.9965 13.5164 14.541 13.0648C14.0855 12.6129 13.8578 12.0599 13.8578 11.4058C13.8578 10.7514 14.0836 10.1965 14.5353 9.74102C14.9871 9.28552 15.5401 9.05777 16.1943 9.05777C16.8486 9.05777 17.4035 9.28361 17.859 9.73527C18.3145 10.1871 18.5423 10.7401 18.5423 11.3943C18.5423 12.0486 18.3164 12.6035 17.8648 13.059C17.4129 13.5145 16.8599 13.7423 16.2058 13.7423Z" fill="currentColor"/>
</svg>
