<svg width="24" height="24" viewBox="0 0 24 24" fill="none" xmlns="http://www.w3.org/2000/svg">
<path d="M4.50777 18.7C4.06927 18.7 3.69169 18.5417 3.37502 18.225C3.05836 17.9084 2.90002 17.5308 2.90002 17.0923V6.9078C2.90002 6.4693 3.05836 6.09172 3.37502 5.77505C3.69169 5.45838 4.06927 5.30005 4.50777 5.30005H19.4923C19.9424 5.30005 20.3229 5.45838 20.6338 5.77505C20.9446 6.09172 21.1 6.4693 21.1 6.9078V17.0923C21.1 17.5308 20.9446 17.9084 20.6338 18.225C20.3229 18.5417 19.9424 18.7 19.4923 18.7H4.50777ZM19.8 8.1673L12.4365 12.502C12.3675 12.5455 12.2964 12.5798 12.223 12.6048C12.1497 12.6298 12.0754 12.6423 12 12.6423C11.9167 12.6423 11.8465 12.6298 11.7895 12.6048C11.7324 12.5798 11.666 12.548 11.5905 12.5095L4.20002 8.1673V17.0923C4.20002 17.1821 4.22886 17.2559 4.28652 17.3135C4.34419 17.3712 4.41794 17.4 4.50777 17.4H19.4923C19.5821 17.4 19.6559 17.3712 19.7135 17.3135C19.7712 17.2559 19.8 17.1821 19.8 17.0923V8.1673ZM12 11.075L19.6213 6.60005H4.40377L12 11.075ZM4.20002 7.8448V8.0503V7.0673V7.08455V6.60005V7.08355V7.0528V8.05255V7.8468V17.4V7.8448Z" fill="currentColor"/>
</svg>
