<svg width="20" height="20" viewBox="0 0 20 20" fill="none" xmlns="http://www.w3.org/2000/svg">
<path d="M2.32373 15.1441V12.3397C2.32373 11.7574 2.5254 11.2646 2.92873 10.8614C3.33206 10.4581 3.82484 10.2564 4.40706 10.2564H5.41665V4.95183C5.41665 4.60044 5.53977 4.30156 5.78602 4.05517C6.03227 3.80892 6.33116 3.68579 6.68269 3.68579H13.3173C13.6688 3.68579 13.9677 3.80892 14.2139 4.05517C14.4602 4.30156 14.5833 4.60044 14.5833 4.95183V10.2564H15.5929C16.1751 10.2564 16.6679 10.4581 17.0712 10.8614C17.4746 11.2646 17.6762 11.7574 17.6762 12.3397V15.1441C17.6762 15.4957 17.5531 15.7945 17.3069 16.0408C17.0606 16.287 16.7617 16.4102 16.4102 16.4102H3.58977C3.23824 16.4102 2.93936 16.287 2.69311 16.0408C2.44686 15.7945 2.32373 15.4957 2.32373 15.1441ZM6.66665 10.2564H13.3333V4.93579H6.66665V10.2564ZM3.57373 15.1602H16.4262V12.3397C16.4262 12.1036 16.3464 11.9057 16.1866 11.746C16.0269 11.5863 15.829 11.5064 15.5929 11.5064H4.40706C4.17095 11.5064 3.97304 11.5863 3.81331 11.746C3.65359 11.9057 3.57373 12.1036 3.57373 12.3397V15.1602ZM14.8398 13.846C15.0759 13.846 15.2738 13.7661 15.4335 13.6064C15.5932 13.4467 15.6731 13.2488 15.6731 13.0127C15.6731 12.7766 15.5932 12.5786 15.4335 12.4189C15.2738 12.2592 15.0759 12.1793 14.8398 12.1793C14.6037 12.1793 14.4057 12.2592 14.246 12.4189C14.0863 12.5786 14.0064 12.7766 14.0064 13.0127C14.0064 13.2488 14.0863 13.4467 14.246 13.6064C14.4057 13.7661 14.6037 13.846 14.8398 13.846Z" fill="currentColor"/>
</svg>
