<svg width="20" height="20" viewBox="0 0 20 20" fill="none" xmlns="http://www.w3.org/2000/svg">
<path d="M3.58971 14.872C3.16874 14.872 2.81242 14.7261 2.52075 14.4345C2.22909 14.1428 2.08325 13.7865 2.08325 13.3655V4.42321C2.08325 4.00223 2.22909 3.64591 2.52075 3.35425C2.81242 3.06258 3.16874 2.91675 3.58971 2.91675H9.55929C9.73665 2.91675 9.88513 2.97661 10.0047 3.09633C10.1244 3.21591 10.1843 3.36439 10.1843 3.54175C10.1843 3.71911 10.1244 3.86758 10.0047 3.98716C9.88513 4.10689 9.73665 4.16675 9.55929 4.16675H3.58971C3.52554 4.16675 3.46679 4.19348 3.41346 4.24696C3.35999 4.30029 3.33325 4.35904 3.33325 4.42321V13.3655C3.33325 13.4295 3.35999 13.4883 3.41346 13.5417C3.46679 13.5952 3.52554 13.622 3.58971 13.622H16.4101C16.4743 13.622 16.533 13.5952 16.5864 13.5417C16.6398 13.4883 16.6666 13.4295 16.6666 13.3655V11.4584C16.6666 11.2811 16.7264 11.1326 16.8462 11.013C16.9658 10.8933 17.1142 10.8334 17.2916 10.8334C17.4689 10.8334 17.6174 10.8933 17.737 11.013C17.8567 11.1326 17.9166 11.2811 17.9166 11.4584V13.3655C17.9166 13.7865 17.7708 14.1428 17.4791 14.4345C17.1874 14.7261 16.8311 14.872 16.4101 14.872H13.766L14.2772 15.383C14.3551 15.4611 14.4123 15.5455 14.4487 15.6363C14.4849 15.7272 14.503 15.8228 14.503 15.9232V16.3301C14.503 16.5449 14.4312 16.7242 14.2876 16.8678C14.1439 17.0115 13.9646 17.0834 13.7499 17.0834H6.24992C6.0352 17.0834 5.85596 17.0115 5.71221 16.8678C5.5686 16.7242 5.49679 16.5449 5.49679 16.3301V15.9232C5.49679 15.8228 5.51492 15.7272 5.55117 15.6363C5.58756 15.5455 5.64471 15.4611 5.72263 15.383L6.23388 14.872H3.58971ZM12.1714 9.81737V3.54175C12.1714 3.36439 12.2312 3.21591 12.351 3.09633C12.4705 2.97661 12.619 2.91675 12.7964 2.91675C12.9737 2.91675 13.1223 2.97661 13.242 3.09633C13.3616 3.21591 13.4214 3.36439 13.4214 3.54175V9.81737L15.3493 7.89425C15.4647 7.77355 15.6076 7.71105 15.778 7.70675C15.9485 7.70258 16.0983 7.76508 16.2274 7.89425C16.3483 8.01508 16.4087 8.16147 16.4087 8.33342C16.4087 8.50536 16.3483 8.65175 16.2274 8.77258L12.7964 12.2036L9.36533 8.77258C9.24992 8.65717 9.18874 8.51425 9.18179 8.34383C9.17485 8.17341 9.23603 8.02355 9.36533 7.89425C9.48603 7.77355 9.63242 7.71321 9.8045 7.71321C9.97645 7.71321 10.1228 7.77355 10.2435 7.89425L12.1714 9.81737Z" fill="currentColor"/>
</svg>
