<svg width="24" height="24" viewBox="0 0 24 24" fill="none" xmlns="http://www.w3.org/2000/svg">
<path d="M12.0085 21.1C10.7567 21.1 9.57769 20.8632 8.47152 20.3895C7.36536 19.9159 6.39719 19.2641 5.56702 18.4343C4.73686 17.6044 4.08477 16.637 3.61077 15.532C3.13694 14.4272 2.90002 13.2466 2.90002 11.9903C2.90002 10.7339 3.13686 9.55686 3.61052 8.45902C4.08419 7.36119 4.73594 6.39719 5.56577 5.56702C6.39561 4.73686 7.36302 4.08477 8.46802 3.61077C9.57286 3.13694 10.7534 2.90002 12.0098 2.90002C13.2661 2.90002 14.4432 3.13686 15.541 3.61052C16.6389 4.08419 17.6029 4.73594 18.433 5.56577C19.2632 6.39561 19.9153 7.36102 20.3893 8.46202C20.8631 9.56319 21.1 10.7397 21.1 11.9915C21.1 13.2434 20.8632 14.4224 20.3895 15.5285C19.9159 16.6347 19.2641 17.6029 18.4343 18.433C17.6044 19.2632 16.639 19.9153 15.538 20.3893C14.4369 20.8631 13.2604 21.1 12.0085 21.1ZM9.30552 12.65C10.1544 12.65 10.874 12.3529 11.4645 11.7588C12.0549 11.1648 12.35 10.4434 12.35 9.59453C12.35 8.74569 12.0529 8.02602 11.4588 7.43552C10.8648 6.84519 10.1434 6.55002 9.29452 6.55002C8.44569 6.55002 7.72602 6.84711 7.13552 7.44128C6.54519 8.03527 6.25002 8.75669 6.25002 9.60552C6.25002 10.4544 6.54711 11.174 7.14127 11.7645C7.73527 12.3549 8.45669 12.65 9.30552 12.65ZM16.1943 13.7423C16.8486 13.7423 17.4035 13.5164 17.859 13.0648C18.3145 12.6129 18.5423 12.0599 18.5423 11.4058C18.5423 10.7514 18.3164 10.1965 17.8648 9.74102C17.4129 9.28552 16.8599 9.05777 16.2058 9.05777C15.5514 9.05777 14.9965 9.28361 14.541 9.73527C14.0855 10.1871 13.8578 10.7401 13.8578 11.3943C13.8578 12.0486 14.0836 12.6035 14.5353 13.059C14.9871 13.5145 15.5401 13.7423 16.1943 13.7423ZM12 19.8C13.339 19.8 14.5649 19.4914 15.6778 18.8743C16.7906 18.2569 17.7051 17.4309 18.4213 16.3963C18.0738 16.2026 17.7131 16.0632 17.3393 15.978C16.9654 15.8927 16.5857 15.85 16.2 15.85C14.8795 15.85 13.775 16.2494 12.8865 17.048C11.998 17.8469 11.4442 18.752 11.225 19.7635C11.3532 19.7792 11.4782 19.7892 11.6 19.7935C11.7219 19.7979 11.8552 19.8 12 19.8ZM9.18452 19.2673C9.22169 18.4224 9.58452 17.5827 10.273 16.748C10.9615 15.9135 11.5237 15.3404 11.9595 15.0288C11.5395 14.9184 11.0877 14.8277 10.604 14.7565C10.1205 14.6855 9.65861 14.65 9.21827 14.65C8.49211 14.65 7.78861 14.7276 7.10777 14.8828C6.42694 15.0379 5.75577 15.277 5.09427 15.6C5.50844 16.4462 6.06802 17.1863 6.77302 17.8203C7.47819 18.4543 8.28202 18.9366 9.18452 19.2673Z" fill="currentColor"/>
</svg>
