<svg width="16" height="16" viewBox="0 0 16 16" fill="none" xmlns="http://www.w3.org/2000/svg">
<path d="M7.99983 9.35905C7.85806 9.35905 7.73933 9.31111 7.64367 9.21522C7.54789 9.11944 7.5 9.00072 7.5 8.85905V4.19238C7.5 4.05072 7.54794 3.93194 7.64383 3.83605C7.73972 3.74027 7.8585 3.69238 8.00017 3.69238C8.14194 3.69238 8.26067 3.74027 8.35633 3.83605C8.45211 3.93194 8.5 4.05072 8.5 4.19238V8.85905C8.5 9.00072 8.45206 9.11944 8.35617 9.21522C8.26028 9.31111 8.1415 9.35905 7.99983 9.35905ZM7.99983 12.3077C7.85806 12.3077 7.73933 12.2598 7.64367 12.1639C7.54789 12.068 7.5 11.9492 7.5 11.8076C7.5 11.6658 7.54794 11.547 7.64383 11.4514C7.73972 11.3556 7.8585 11.3077 8.00017 11.3077C8.14194 11.3077 8.26067 11.3557 8.35633 11.4516C8.45211 11.5474 8.5 11.6662 8.5 11.8079C8.5 11.9497 8.45206 12.0684 8.35617 12.1641C8.26028 12.2598 8.1415 12.3077 7.99983 12.3077Z" fill="currentColor"/>
</svg>
