<svg width="16" height="16" viewBox="0 0 16 16" fill="none" xmlns="http://www.w3.org/2000/svg">
<path d="M8.00625 7.33968C9.58325 7.33968 10.922 7.09568 12.0224 6.60768C13.1228 6.11968 13.6729 5.5304 13.6729 4.83984C13.6729 4.14918 13.1228 3.55984 12.0224 3.07184C10.922 2.58384 9.58325 2.33984 8.00625 2.33984C6.42936 2.33984 5.08964 2.58384 3.98709 3.07184C2.88453 3.55984 2.33325 4.14918 2.33325 4.83984C2.33325 5.5304 2.88453 6.11968 3.98709 6.60768C5.08964 7.09568 6.42936 7.33968 8.00625 7.33968ZM7.99992 8.68584C8.49825 8.68584 9.05809 8.64079 9.67942 8.55068C10.3008 8.46045 10.8929 8.32045 11.4558 8.13068C12.0185 7.94101 12.5074 7.69918 12.9223 7.40518C13.3373 7.11118 13.5875 6.76029 13.6729 6.35251V8.17318C13.5875 8.58084 13.3373 8.93168 12.9223 9.22568C12.5074 9.51968 12.0185 9.76157 11.4558 9.95134C10.8929 10.141 10.3008 10.281 9.67942 10.3712C9.05809 10.4613 8.49825 10.5063 7.99992 10.5063C7.50159 10.5063 6.94175 10.4613 6.32042 10.3712C5.69909 10.281 5.10809 10.141 4.54742 9.95134C3.98675 9.76157 3.49892 9.51968 3.08392 9.22568C2.66892 8.93168 2.4187 8.58084 2.33325 8.17318V6.35251C2.4187 6.76029 2.66892 7.11118 3.08392 7.40518C3.49892 7.69918 3.98675 7.94101 4.54742 8.13068C5.10809 8.32045 5.69909 8.46045 6.32042 8.55068C6.94175 8.64079 7.50159 8.68584 7.99992 8.68584ZM7.99992 11.8525C8.49825 11.8525 9.05809 11.8075 9.67942 11.7173C10.3008 11.6271 10.8929 11.4871 11.4558 11.2973C12.0185 11.1077 12.5074 10.8658 12.9223 10.5718C13.3373 10.2777 13.5875 9.92684 13.6729 9.51918V11.3333C13.5875 11.741 13.3373 12.0918 12.9223 12.3858C12.5074 12.6798 12.0185 12.9217 11.4558 13.1115C10.8929 13.3013 10.3008 13.4412 9.67942 13.5313C9.05809 13.6216 8.49825 13.6667 7.99992 13.6667C7.50159 13.6667 6.94175 13.6216 6.32042 13.5313C5.69909 13.4412 5.10809 13.3013 4.54742 13.1115C3.98675 12.9217 3.49892 12.6798 3.08392 12.3858C2.66892 12.0918 2.4187 11.741 2.33325 11.3333V9.51918C2.4187 9.92684 2.66892 10.2777 3.08392 10.5718C3.49892 10.8658 3.98675 11.1077 4.54742 11.2973C5.10809 11.4871 5.69909 11.6271 6.32042 11.7173C6.94175 11.8075 7.50159 11.8525 7.99992 11.8525Z" fill="currentColor"/>
</svg>
