<svg width="20" height="20" viewBox="0 0 20 20" fill="none" xmlns="http://www.w3.org/2000/svg">
<path d="M4.42321 17.0833C4.00223 17.0833 3.64591 16.9375 3.35425 16.6458C3.06258 16.3541 2.91675 15.9978 2.91675 15.5768V4.42308C2.91675 4.00211 3.06258 3.64579 3.35425 3.35413C3.64591 3.06246 4.00223 2.91663 4.42321 2.91663H15.577C15.9979 2.91663 16.3542 3.06246 16.6459 3.35413C16.9376 3.64579 17.0834 4.00211 17.0834 4.42308V15.5768C17.0834 15.9978 16.9376 16.3541 16.6459 16.6458C16.3542 16.9375 15.9979 17.0833 15.577 17.0833H4.42321ZM4.42321 15.8333H9.37508V4.16663H4.42321C4.35904 4.16663 4.30029 4.19336 4.24696 4.24683C4.19348 4.30017 4.16675 4.35892 4.16675 4.42308V15.5768C4.16675 15.641 4.19348 15.6998 4.24696 15.7531C4.30029 15.8066 4.35904 15.8333 4.42321 15.8333ZM10.6251 15.8333H15.577C15.6411 15.8333 15.6999 15.8066 15.7532 15.7531C15.8067 15.6998 15.8334 15.641 15.8334 15.5768V9.99996H10.6251V15.8333ZM10.6251 8.74996H15.8334V4.42308C15.8334 4.35892 15.8067 4.30017 15.7532 4.24683C15.6999 4.19336 15.6411 4.16663 15.577 4.16663H10.6251V8.74996Z" fill="currentColor"/>
</svg>
