<svg width="24" height="24" viewBox="0 0 24 24" fill="none" xmlns="http://www.w3.org/2000/svg">
<path d="M5.39998 17.425V18.6V5.39998V17.425ZM5.70773 19.9C5.26406 19.9 4.88514 19.743 4.57098 19.429C4.25698 19.1148 4.09998 18.7359 4.09998 18.2922V5.70773C4.09998 5.26406 4.25698 4.88514 4.57098 4.57098C4.88514 4.25698 5.26406 4.09998 5.70773 4.09998H18.2922C18.7359 4.09998 19.1148 4.25698 19.429 4.57098C19.743 4.88514 19.9 5.26406 19.9 5.70773V8.37897H18.6V5.70773C18.6 5.61789 18.5711 5.54414 18.5135 5.48648C18.4558 5.42881 18.3821 5.39998 18.2922 5.39998H5.70773C5.61789 5.39998 5.54414 5.42881 5.48648 5.48648C5.42881 5.54414 5.39998 5.61789 5.39998 5.70773V18.2922C5.39998 18.3821 5.42881 18.4558 5.48648 18.5135C5.54414 18.5711 5.61789 18.6 5.70773 18.6H18.2922C18.3821 18.6 18.4558 18.5711 18.5135 18.5135C18.5711 18.4558 18.6 18.3821 18.6 18.2922V15.596H19.9V18.2922C19.9 18.7359 19.743 19.1148 19.429 19.429C19.1148 19.743 18.7359 19.9 18.2922 19.9H5.70773ZM12.9077 16.3C12.4641 16.3 12.0851 16.143 11.771 15.829C11.457 15.5148 11.3 15.1359 11.3 14.6922V9.30773C11.3 8.86406 11.457 8.48514 11.771 8.17098C12.0851 7.85698 12.4641 7.69998 12.9077 7.69998H19.4922C19.9359 7.69998 20.3148 7.85698 20.629 8.17098C20.943 8.48514 21.1 8.86406 21.1 9.30773V14.6922C21.1 15.1359 20.943 15.5148 20.629 15.829C20.3148 16.143 19.9359 16.3 19.4922 16.3H12.9077ZM19.4922 15C19.5821 15 19.6558 14.9711 19.7135 14.9135C19.7711 14.8558 19.8 14.7821 19.8 14.6922V9.30773C19.8 9.21789 19.7711 9.14414 19.7135 9.08648C19.6558 9.02881 19.5821 8.99998 19.4922 8.99998H12.9077C12.8179 8.99998 12.7441 9.02881 12.6865 9.08648C12.6288 9.14414 12.6 9.21789 12.6 9.30773V14.6922C12.6 14.7821 12.6288 14.8558 12.6865 14.9135C12.7441 14.9711 12.8179 15 12.9077 15H19.4922ZM16.2 13.5C16.6166 13.5 16.9708 13.3541 17.2625 13.0625C17.5541 12.7708 17.7 12.4166 17.7 12C17.7 11.5833 17.5541 11.2291 17.2625 10.9375C16.9708 10.6458 16.6166 10.5 16.2 10.5C15.7833 10.5 15.4291 10.6458 15.1375 10.9375C14.8458 11.2291 14.7 11.5833 14.7 12C14.7 12.4166 14.8458 12.7708 15.1375 13.0625C15.4291 13.3541 15.7833 13.5 16.2 13.5Z" fill="currentColor"/>
</svg>
