<svg width="16" height="16" viewBox="0 0 16 16" fill="none" xmlns="http://www.w3.org/2000/svg">
<path d="M3.00518 13.2667C2.70507 13.2667 2.45141 13.163 2.24418 12.9558C2.03696 12.7486 1.93335 12.4949 1.93335 12.1948V4.60516C1.93335 4.30505 2.03696 4.05138 2.24418 3.84416C2.45141 3.63694 2.70507 3.53333 3.00518 3.53333H12.9948C13.295 3.53333 13.5486 3.63694 13.7558 3.84416C13.9631 4.05138 14.0667 4.30505 14.0667 4.60516V12.1948C14.0667 12.4949 13.9631 12.7486 13.7558 12.9558C13.5486 13.163 13.295 13.2667 12.9948 13.2667H3.00518ZM3.00518 12.4H7.56668V4.39999H3.00518C2.95385 4.39999 2.90685 4.42138 2.86418 4.46416C2.82141 4.50682 2.80002 4.55383 2.80002 4.60516V12.1948C2.80002 12.2462 2.82141 12.2932 2.86418 12.3358C2.90685 12.3786 2.95385 12.4 3.00518 12.4ZM8.43335 12.4H12.9948C13.0462 12.4 13.0932 12.3786 13.1358 12.3358C13.1786 12.2932 13.2 12.2462 13.2 12.1948V4.60516C13.2 4.55383 13.1786 4.50682 13.1358 4.46416C13.0932 4.42138 13.0462 4.39999 12.9948 4.39999H8.43335V12.4ZM4.16035 11.0333H6.20068C6.32313 11.0333 6.42668 10.9921 6.51135 10.9097C6.59613 10.8272 6.63852 10.7251 6.63852 10.6033C6.63852 10.4814 6.59707 10.3782 6.51418 10.2937C6.43141 10.209 6.32879 10.1667 6.20635 10.1667H4.16602C4.04357 10.1667 3.94002 10.2079 3.85535 10.2903C3.77057 10.3728 3.72818 10.4749 3.72818 10.5967C3.72818 10.7185 3.76963 10.8218 3.85252 10.9063C3.93529 10.991 4.0379 11.0333 4.16035 11.0333ZM4.16035 8.83333H6.20068C6.32313 8.83333 6.42668 8.7921 6.51135 8.70966C6.59613 8.62721 6.63852 8.5251 6.63852 8.40333C6.63852 8.28144 6.59707 8.17821 6.51418 8.09366C6.43141 8.00899 6.32879 7.96666 6.20635 7.96666H4.16602C4.04357 7.96666 3.94002 8.00788 3.85535 8.09033C3.77057 8.17277 3.72818 8.27488 3.72818 8.39666C3.72818 8.51855 3.76963 8.62177 3.85252 8.70633C3.93529 8.79099 4.0379 8.83333 4.16035 8.83333ZM4.16035 6.63333H6.20068C6.32313 6.63333 6.42668 6.5921 6.51135 6.50966C6.59613 6.42721 6.63852 6.3251 6.63852 6.20333C6.63852 6.08144 6.59707 5.97821 6.51418 5.89366C6.43141 5.80899 6.32879 5.76666 6.20635 5.76666H4.16602C4.04357 5.76666 3.94002 5.80788 3.85535 5.89033C3.77057 5.97277 3.72818 6.07488 3.72818 6.19666C3.72818 6.31855 3.76963 6.42177 3.85252 6.50633C3.93529 6.59099 4.0379 6.63333 4.16035 6.63333ZM9.79368 11.05H11.834C11.9565 11.05 12.06 11.0088 12.1447 10.9263C12.2295 10.8439 12.2718 10.7418 12.2718 10.62C12.2718 10.4981 12.2304 10.3949 12.1475 10.3103C12.0647 10.2257 11.9621 10.1833 11.8397 10.1833H9.79935C9.67691 10.1833 9.57335 10.2245 9.48868 10.307C9.4039 10.3894 9.36152 10.4915 9.36152 10.6133C9.36152 10.7352 9.40296 10.8384 9.48585 10.923C9.56863 11.0077 9.67124 11.05 9.79368 11.05ZM9.79368 8.84999H11.834C11.9565 8.84999 12.06 8.80877 12.1447 8.72633C12.2295 8.64388 12.2718 8.54177 12.2718 8.41999C12.2718 8.2981 12.2304 8.19488 12.1475 8.11033C12.0647 8.02566 11.9621 7.98333 11.8397 7.98333H9.79935C9.67691 7.98333 9.57335 8.02455 9.48868 8.10699C9.4039 8.18944 9.36152 8.29155 9.36152 8.41333C9.36152 8.53521 9.40296 8.63844 9.48585 8.72299C9.56863 8.80766 9.67124 8.84999 9.79368 8.84999ZM9.79368 6.64999H11.834C11.9565 6.64999 12.06 6.60877 12.1447 6.52633C12.2295 6.44388 12.2718 6.34177 12.2718 6.21999C12.2718 6.0981 12.2304 5.99488 12.1475 5.91033C12.0647 5.82566 11.9621 5.78333 11.8397 5.78333H9.79935C9.67691 5.78333 9.57335 5.82455 9.48868 5.90699C9.4039 5.98944 9.36152 6.09155 9.36152 6.21333C9.36152 6.33521 9.40296 6.43844 9.48585 6.52299C9.56863 6.60766 9.67124 6.64999 9.79368 6.64999Z" fill="currentColor"/>
</svg>
