<svg width="24" height="24" viewBox="0 0 24 24" fill="none" xmlns="http://www.w3.org/2000/svg">
<path d="M12.0022 11.8077C12.7827 11.8077 13.4454 11.5345 13.9902 10.988C14.5352 10.4416 14.8077 9.77822 14.8077 8.99773C14.8077 8.21723 14.5345 7.55456 13.988 7.00973C13.4416 6.46473 12.7782 6.19223 11.9977 6.19223C11.2172 6.19223 10.5546 6.46548 10.0097 7.01198C9.46473 7.55831 9.19223 8.22173 9.19223 9.00223C9.19223 9.78273 9.46548 10.4454 10.012 10.9902C10.5583 11.5352 11.2217 11.8077 12.0022 11.8077ZM10.35 9.44998C10.2166 9.44998 10.1083 9.40831 10.025 9.32498C9.94164 9.24164 9.89998 9.13331 9.89998 8.99998C9.89998 8.86664 9.94164 8.75831 10.025 8.67498C10.1083 8.59164 10.2166 8.54998 10.35 8.54998C10.4833 8.54998 10.5916 8.59164 10.675 8.67498C10.7583 8.75831 10.8 8.86664 10.8 8.99998C10.8 9.13331 10.7583 9.24164 10.675 9.32498C10.5916 9.40831 10.4833 9.44998 10.35 9.44998ZM12 9.44998C11.8666 9.44998 11.7583 9.40831 11.675 9.32498C11.5916 9.24164 11.55 9.13331 11.55 8.99998C11.55 8.86664 11.5916 8.75831 11.675 8.67498C11.7583 8.59164 11.8666 8.54998 12 8.54998C12.1333 8.54998 12.2416 8.59164 12.325 8.67498C12.4083 8.75831 12.45 8.86664 12.45 8.99998C12.45 9.13331 12.4083 9.24164 12.325 9.32498C12.2416 9.40831 12.1333 9.44998 12 9.44998ZM13.65 9.44998C13.5166 9.44998 13.4083 9.40831 13.325 9.32498C13.2416 9.24164 13.2 9.13331 13.2 8.99998C13.2 8.86664 13.2416 8.75831 13.325 8.67498C13.4083 8.59164 13.5166 8.54998 13.65 8.54998C13.7833 8.54998 13.8916 8.59164 13.975 8.67498C14.0583 8.75831 14.1 8.86664 14.1 8.99998C14.1 9.13331 14.0583 9.24164 13.975 9.32498C13.8916 9.40831 13.7833 9.44998 13.65 9.44998ZM5.70773 19.9C5.25756 19.9 4.87706 19.7446 4.56623 19.4337C4.25539 19.1229 4.09998 18.7424 4.09998 18.2922V5.70773C4.09998 5.25756 4.25539 4.87706 4.56623 4.56623C4.87706 4.25539 5.25756 4.09998 5.70773 4.09998H18.2922C18.7424 4.09998 19.1229 4.25539 19.4337 4.56623C19.7446 4.87706 19.9 5.25756 19.9 5.70773V18.2922C19.9 18.7424 19.7446 19.1229 19.4337 19.4337C19.1229 19.7446 18.7424 19.9 18.2922 19.9H5.70773Z" fill="currentColor"/>
</svg>
