<svg width="16" height="16" viewBox="0 0 16 16" fill="none" xmlns="http://www.w3.org/2000/svg">
<path d="M7.49996 8.49996H4.16663C4.02496 8.49996 3.90624 8.45201 3.81046 8.35613C3.71457 8.26024 3.66663 8.14146 3.66663 7.99979C3.66663 7.85802 3.71457 7.73929 3.81046 7.64363C3.90624 7.54785 4.02496 7.49996 4.16663 7.49996H7.49996V4.16663C7.49996 4.02496 7.5479 3.90624 7.64379 3.81046C7.73968 3.71457 7.85846 3.66663 8.00013 3.66663C8.1419 3.66663 8.26063 3.71457 8.35629 3.81046C8.45207 3.90624 8.49996 4.02496 8.49996 4.16663V7.49996H11.8333C11.975 7.49996 12.0937 7.5479 12.1895 7.64379C12.2853 7.73968 12.3333 7.85846 12.3333 8.00013C12.3333 8.1419 12.2853 8.26063 12.1895 8.35629C12.0937 8.45207 11.975 8.49996 11.8333 8.49996H8.49996V11.8333C8.49996 11.975 8.45201 12.0937 8.35613 12.1895C8.26024 12.2853 8.14146 12.3333 7.99979 12.3333C7.85802 12.3333 7.73929 12.2853 7.64363 12.1895C7.54785 12.0937 7.49996 11.975 7.49996 11.8333V8.49996Z" fill="currentColor"/>
</svg>
