<svg width="16" height="16" viewBox="0 0 16 16" fill="none" xmlns="http://www.w3.org/2000/svg">
<path d="M11.382 10.7295C11.382 11.655 11.0605 12.4425 10.4174 13.0922C9.77427 13.7418 8.99094 14.0667 8.06738 14.0667C7.13105 14.0667 6.34344 13.7283 5.70455 13.0517C5.06566 12.3751 4.74622 11.5622 4.74622 10.6128V4.30252C4.74622 3.64441 4.97444 3.08502 5.43088 2.62435C5.88722 2.16368 6.44444 1.93335 7.10255 1.93335C7.77177 1.93335 8.33183 2.17757 8.78272 2.66602C9.23361 3.15446 9.45905 3.73885 9.45905 4.41918V10.3423C9.45905 10.7286 9.32449 11.0587 9.05538 11.3327C8.78627 11.6066 8.45833 11.7435 8.07155 11.7435C7.67522 11.7435 7.34244 11.6012 7.07322 11.3165C6.80399 11.0318 6.66938 10.6849 6.66938 10.2757V4.68985C6.66938 4.56707 6.71055 4.46413 6.79288 4.38102C6.87533 4.29802 6.97749 4.25652 7.09938 4.25652C7.22116 4.25652 7.32438 4.29802 7.40905 4.38102C7.49361 4.46413 7.53588 4.56707 7.53588 4.68985V10.3423C7.53588 10.4921 7.58649 10.6187 7.68772 10.722C7.78894 10.8253 7.91444 10.877 8.06422 10.877C8.21388 10.877 8.33933 10.8253 8.44055 10.722C8.54177 10.6187 8.59238 10.4921 8.59238 10.3423V4.29618C8.5966 3.88163 8.45338 3.52863 8.16272 3.23718C7.87205 2.94574 7.5176 2.80002 7.09938 2.80002C6.68316 2.80002 6.33133 2.95235 6.04388 3.25702C5.75655 3.56179 5.61288 3.92141 5.61288 4.33585V10.7295C5.6171 11.4133 5.85683 11.9932 6.33205 12.4692C6.80727 12.9453 7.38649 13.1889 8.06972 13.2C8.7526 13.2111 9.33311 12.9647 9.81122 12.4608C10.2892 11.9571 10.5239 11.3522 10.5154 10.6462V4.68985C10.5154 4.56707 10.5566 4.46413 10.6391 4.38102C10.7215 4.29802 10.8237 4.25652 10.9455 4.25652C11.0673 4.25652 11.1705 4.29802 11.2552 4.38102C11.3398 4.46413 11.382 4.56707 11.382 4.68985V10.7295Z" fill="currentColor"/>
</svg>
