<svg width="16" height="16" viewBox="0 0 16 16" fill="none" xmlns="http://www.w3.org/2000/svg">
<path d="M3.59994 11.6166V12.3999V3.59994V11.6166ZM3.80511 13.2666C3.50933 13.2666 3.25672 13.1619 3.04728 12.9526C2.83794 12.7432 2.73328 12.4906 2.73328 12.1948V3.80511C2.73328 3.50933 2.83794 3.25672 3.04728 3.04728C3.25672 2.83794 3.50933 2.73328 3.80511 2.73328H12.1948C12.4906 2.73328 12.7432 2.83794 12.9526 3.04728C13.1619 3.25672 13.2666 3.50933 13.2666 3.80511V5.58594H12.3999V3.80511C12.3999 3.74522 12.3807 3.69605 12.3423 3.65761C12.3038 3.61917 12.2547 3.59994 12.1948 3.59994H3.80511C3.74522 3.59994 3.69605 3.61917 3.65761 3.65761C3.61917 3.69605 3.59994 3.74522 3.59994 3.80511V12.1948C3.59994 12.2547 3.61917 12.3038 3.65761 12.3423C3.69605 12.3807 3.74522 12.3999 3.80511 12.3999H12.1948C12.2547 12.3999 12.3038 12.3807 12.3423 12.3423C12.3807 12.3038 12.3999 12.2547 12.3999 12.1948V10.3973H13.2666V12.1948C13.2666 12.4906 13.1619 12.7432 12.9526 12.9526C12.7432 13.1619 12.4906 13.2666 12.1948 13.2666H3.80511ZM8.60511 10.8666C8.30933 10.8666 8.05672 10.7619 7.84728 10.5526C7.63794 10.3432 7.53328 10.0906 7.53328 9.79478V6.20511C7.53328 5.90933 7.63794 5.65672 7.84728 5.44728C8.05672 5.23794 8.30933 5.13328 8.60511 5.13328H12.9948C13.2906 5.13328 13.5432 5.23794 13.7526 5.44728C13.9619 5.65672 14.0666 5.90933 14.0666 6.20511V9.79478C14.0666 10.0906 13.9619 10.3432 13.7526 10.5526C13.5432 10.7619 13.2906 10.8666 12.9948 10.8666H8.60511ZM12.9948 9.99994C13.0547 9.99994 13.1038 9.98072 13.1423 9.94228C13.1807 9.90383 13.1999 9.85467 13.1999 9.79478V6.20511C13.1999 6.14522 13.1807 6.09605 13.1423 6.05761C13.1038 6.01917 13.0547 5.99994 12.9948 5.99994H8.60511C8.54522 5.99994 8.49605 6.01917 8.45761 6.05761C8.41917 6.09605 8.39994 6.14522 8.39994 6.20511V9.79478C8.39994 9.85467 8.41917 9.90383 8.45761 9.94228C8.49605 9.98072 8.54522 9.99994 8.60511 9.99994H12.9948ZM10.7999 8.99994C11.0777 8.99994 11.3138 8.90272 11.5083 8.70828C11.7027 8.51383 11.7999 8.27772 11.7999 7.99994C11.7999 7.72217 11.7027 7.48605 11.5083 7.29161C11.3138 7.09717 11.0777 6.99994 10.7999 6.99994C10.5222 6.99994 10.2861 7.09717 10.0916 7.29161C9.89717 7.48605 9.79994 7.72217 9.79994 7.99994C9.79994 8.27772 9.89717 8.51383 10.0916 8.70828C10.2861 8.90272 10.5222 8.99994 10.7999 8.99994Z" fill="currentColor"/>
</svg>
