<svg width="20" height="20" viewBox="0 0 20 20" fill="none" xmlns="http://www.w3.org/2000/svg">
<path d="M5.25646 17.9165C4.8409 17.9165 4.4859 17.7694 4.19146 17.475C3.89715 17.1806 3.75 16.8256 3.75 16.41V8.58963C3.75 8.17407 3.89715 7.81907 4.19146 7.52463C4.4859 7.23032 4.8409 7.08317 5.25646 7.08317H12.5V5.4165C12.5 4.72206 12.2569 4.13178 11.7708 3.64567C11.2847 3.15956 10.6944 2.9165 10 2.9165C9.39528 2.9165 8.8675 3.10692 8.41667 3.48775C7.96583 3.86873 7.68007 4.34178 7.55938 4.90692C7.51979 5.05859 7.4359 5.18143 7.30771 5.27546C7.17951 5.36949 7.03528 5.4165 6.875 5.4165C6.69764 5.4165 6.54917 5.35748 6.42958 5.23942C6.30986 5.12137 6.26549 4.9822 6.29646 4.82192C6.44285 3.92775 6.86326 3.17831 7.55771 2.57359C8.25215 1.96886 9.06625 1.6665 10 1.6665C11.0406 1.6665 11.9257 2.03136 12.6554 2.76109C13.3851 3.49081 13.75 4.37595 13.75 5.4165V7.08317H14.7435C15.1591 7.08317 15.5141 7.23032 15.8085 7.52463C16.1028 7.81907 16.25 8.17407 16.25 8.58963V16.41C16.25 16.8256 16.1028 17.1806 15.8085 17.475C15.5141 17.7694 15.1591 17.9165 14.7435 17.9165H5.25646ZM5.25646 16.6665H14.7435C14.8184 16.6665 14.8799 16.6425 14.9279 16.5944C14.976 16.5464 15 16.4849 15 16.41V8.58963C15 8.51477 14.976 8.45331 14.9279 8.40525C14.8799 8.3572 14.8184 8.33317 14.7435 8.33317H5.25646C5.1816 8.33317 5.12014 8.3572 5.07208 8.40525C5.02403 8.45331 5 8.51477 5 8.58963V16.41C5 16.4849 5.02403 16.5464 5.07208 16.5944C5.12014 16.6425 5.1816 16.6665 5.25646 16.6665ZM10 13.9582C10.4049 13.9582 10.7492 13.8164 11.0329 13.5328C11.3165 13.249 11.4583 12.9047 11.4583 12.4998C11.4583 12.095 11.3165 11.7507 11.0329 11.4669C10.7492 11.1833 10.4049 11.0415 10 11.0415C9.59514 11.0415 9.25083 11.1833 8.96708 11.4669C8.68347 11.7507 8.54167 12.095 8.54167 12.4998C8.54167 12.9047 8.68347 13.249 8.96708 13.5328C9.25083 13.8164 9.59514 13.9582 10 13.9582Z" fill="currentColor"/>
</svg>
