<svg width="16" height="16" viewBox="0 0 16 16" fill="none" xmlns="http://www.w3.org/2000/svg">
<path d="M8.00013 11.1667C8.1419 11.1667 8.26063 11.1187 8.35629 11.0229C8.45207 10.9271 8.49996 10.8084 8.49996 10.6667V7.83335C8.49996 7.69169 8.45201 7.57291 8.35613 7.47702C8.26024 7.38124 8.14146 7.33335 7.99979 7.33335C7.85802 7.33335 7.73929 7.38124 7.64363 7.47702C7.54785 7.57291 7.49996 7.69169 7.49996 7.83335V10.6667C7.49996 10.8084 7.5479 10.9271 7.64379 11.0229C7.73968 11.1187 7.85846 11.1667 8.00013 11.1667ZM7.99996 6.19235C8.15252 6.19235 8.2804 6.14074 8.38363 6.03752C8.48685 5.9343 8.53846 5.80641 8.53846 5.65385C8.53846 5.5013 8.48685 5.37341 8.38363 5.27019C8.2804 5.16708 8.15252 5.11552 7.99996 5.11552C7.8474 5.11552 7.71952 5.16708 7.61629 5.27019C7.51307 5.37341 7.46146 5.5013 7.46146 5.65385C7.46146 5.80641 7.51307 5.9343 7.61629 6.03752C7.71952 6.14074 7.8474 6.19235 7.99996 6.19235ZM8.00113 14.3334C7.12513 14.3334 6.30174 14.1671 5.53096 13.8347C4.76018 13.5022 4.08974 13.0511 3.51963 12.4812C2.94951 11.9113 2.49813 11.2411 2.16546 10.4707C1.8329 9.70024 1.66663 8.87708 1.66663 8.00119C1.66663 7.12519 1.83285 6.3018 2.16529 5.53102C2.49774 4.76024 2.9489 4.0898 3.51879 3.51969C4.08868 2.94958 4.75885 2.49819 5.52929 2.16552C6.29974 1.83296 7.1229 1.66669 7.99879 1.66669C8.87479 1.66669 9.69818 1.83291 10.469 2.16535C11.2397 2.4978 11.9102 2.94896 12.4803 3.51885C13.0504 4.08874 13.5018 4.75891 13.8345 5.52935C14.167 6.2998 14.3333 7.12296 14.3333 7.99885C14.3333 8.87485 14.1671 9.69824 13.8346 10.469C13.5022 11.2398 13.051 11.9102 12.4811 12.4804C11.9112 13.0505 11.2411 13.5019 10.4706 13.8345C9.70018 14.1671 8.87702 14.3334 8.00113 14.3334ZM7.99996 13.3334C9.48885 13.3334 10.75 12.8167 11.7833 11.7834C12.8166 10.75 13.3333 9.48891 13.3333 8.00002C13.3333 6.51113 12.8166 5.25002 11.7833 4.21669C10.75 3.18335 9.48885 2.66669 7.99996 2.66669C6.51107 2.66669 5.24996 3.18335 4.21663 4.21669C3.18329 5.25002 2.66663 6.51113 2.66663 8.00002C2.66663 9.48891 3.18329 10.75 4.21663 11.7834C5.24996 12.8167 6.51107 13.3334 7.99996 13.3334Z" fill="currentColor"/>
</svg>
