<svg width="16" height="16" viewBox="0 0 16 16" fill="none" xmlns="http://www.w3.org/2000/svg">
<path d="M8.00004 9.41285L5.15137 12.268C5.05904 12.3602 4.95582 12.4063 4.84171 12.4063C4.7276 12.4063 4.62437 12.3602 4.53204 12.268C4.43548 12.1713 4.38721 12.0681 4.38721 11.9583C4.38721 11.8486 4.43548 11.7453 4.53204 11.6487L7.62821 8.55252C7.67954 8.50129 7.73704 8.46285 7.80071 8.43718C7.86437 8.41152 7.93082 8.39868 8.00004 8.39868C8.06926 8.39868 8.13571 8.41152 8.19937 8.43718C8.26304 8.46285 8.32054 8.50129 8.37187 8.55252L11.468 11.6487C11.5603 11.741 11.6064 11.8415 11.6064 11.95C11.6064 12.0586 11.5603 12.159 11.468 12.2513C11.3714 12.3479 11.2682 12.3962 11.1584 12.3962C11.0486 12.3962 10.9454 12.3479 10.8487 12.2513L8.00004 9.41285ZM8.00004 4.66285L5.15137 7.51802C5.05904 7.61024 4.95582 7.65635 4.84171 7.65635C4.7276 7.65635 4.62437 7.61024 4.53204 7.51802C4.43548 7.42135 4.38721 7.31813 4.38721 7.20835C4.38721 7.09857 4.43548 6.99535 4.53204 6.89868L7.62821 3.80252C7.67954 3.75129 7.73704 3.71285 7.80071 3.68718C7.86437 3.66151 7.93082 3.64868 8.00004 3.64868C8.06926 3.64868 8.13571 3.66151 8.19937 3.68718C8.26304 3.71285 8.32054 3.75129 8.37187 3.80252L11.468 6.89868C11.5603 6.99102 11.6064 7.09146 11.6064 7.20002C11.6064 7.30857 11.5603 7.40902 11.468 7.50135C11.3714 7.5979 11.2682 7.64618 11.1584 7.64618C11.0486 7.64618 10.9454 7.5979 10.8487 7.50135L8.00004 4.66285Z" fill="currentColor"/>
</svg>
