<svg width="24" height="24" viewBox="0 0 24 24" fill="none" xmlns="http://www.w3.org/2000/svg">
<path d="M5.58273 19.9C5.17339 19.9 4.82389 19.7553 4.53423 19.4658C4.24473 19.1761 4.09998 18.8266 4.09998 18.4173V5.58276C4.09998 5.17342 4.24473 4.82392 4.53423 4.53426C4.82389 4.24476 5.17339 4.10001 5.58273 4.10001H18.4172C18.8266 4.10001 19.1761 4.24476 19.4657 4.53426C19.7552 4.82392 19.9 5.17342 19.9 5.58276V18.4173C19.9 18.8266 19.7552 19.1761 19.4657 19.4658C19.1761 19.7553 18.8266 19.9 18.4172 19.9H5.58273ZM14.3 18.6V5.40001H5.70773C5.63073 5.40001 5.56023 5.43209 5.49623 5.49626C5.43206 5.56026 5.39998 5.63076 5.39998 5.70776V18.2923C5.39998 18.3693 5.43206 18.4398 5.49623 18.5038C5.56023 18.5679 5.63073 18.6 5.70773 18.6H14.3Z" fill="currentColor"/>
</svg>
