<svg width="20" height="20" viewBox="0 0 20 20" fill="none" xmlns="http://www.w3.org/2000/svg">
<path d="M9.99996 11.2883L13.3941 7.89392C13.5095 7.77865 13.6546 7.71962 13.8293 7.71684C14.0039 7.7142 14.1516 7.77323 14.2725 7.89392C14.3932 8.01476 14.4535 8.16115 14.4535 8.33309C14.4535 8.50504 14.3932 8.65142 14.2725 8.77226L10.5273 12.5175C10.4492 12.5954 10.3669 12.6504 10.2804 12.6825C10.1939 12.7145 10.1004 12.7306 9.99996 12.7306C9.89954 12.7306 9.80607 12.7145 9.71954 12.6825C9.63302 12.6504 9.55073 12.5954 9.47267 12.5175L5.72746 8.77226C5.61218 8.65684 5.55316 8.51177 5.55038 8.33705C5.54774 8.16247 5.60677 8.01476 5.72746 7.89392C5.84829 7.77323 5.99468 7.71288 6.16663 7.71288C6.33857 7.71288 6.48496 7.77323 6.6058 7.89392L9.99996 11.2883Z" fill="currentColor"/>
</svg>
