<svg width="20" height="20" viewBox="0 0 20 20" fill="none" xmlns="http://www.w3.org/2000/svg">
<path d="M14.7219 3.54175C16.1408 3.54189 17.2911 4.69223 17.2913 6.11108V13.8894C17.291 15.3082 16.1407 16.4586 14.7219 16.4587H5.27759C3.903 16.4586 2.78001 15.3788 2.71118 14.0212L2.70825 13.8894V6.11108C2.7084 4.69223 3.85874 3.54189 5.27759 3.54175H14.7219ZM5.27759 4.79175C4.54909 4.79189 3.9584 5.38259 3.95825 6.11108V13.8894L3.96509 14.0232C4.03247 14.6886 4.59441 15.2086 5.27759 15.2087H14.7219C15.4504 15.2086 16.041 14.6178 16.0413 13.8894V6.11108C16.0411 5.38259 15.4504 4.79189 14.7219 4.79175H5.27759ZM7.70825 5.83374C8.05343 5.83374 8.33325 6.11356 8.33325 6.45874V13.5417C8.33325 13.8869 8.05343 14.1667 7.70825 14.1667C7.36307 14.1667 7.08325 13.8869 7.08325 13.5417V6.45874C7.08325 6.11356 7.36307 5.83374 7.70825 5.83374Z" fill="currentColor"/>
</svg>
