<svg width="20" height="20" viewBox="0 0 20 20" fill="none" xmlns="http://www.w3.org/2000/svg">
<path d="M9.99979 11.6988C9.82257 11.6988 9.67417 11.6389 9.55458 11.519C9.43486 11.3993 9.375 11.2509 9.375 11.0738V5.24048C9.375 5.0634 9.43493 4.91492 9.55479 4.79506C9.67465 4.67534 9.82313 4.61548 10.0002 4.61548C10.1774 4.61548 10.3258 4.67534 10.4454 4.79506C10.5651 4.91492 10.625 5.0634 10.625 5.24048V11.0738C10.625 11.2509 10.5651 11.3993 10.4452 11.519C10.3253 11.6389 10.1769 11.6988 9.99979 11.6988ZM9.99979 15.3846C9.82257 15.3846 9.67417 15.3247 9.55458 15.2049C9.43486 15.085 9.375 14.9365 9.375 14.7594C9.375 14.5822 9.43493 14.4338 9.55479 14.3142C9.67465 14.1945 9.82313 14.1346 10.0002 14.1346C10.1774 14.1346 10.3258 14.1946 10.4454 14.3144C10.5651 14.4343 10.625 14.5828 10.625 14.7599C10.625 14.9371 10.5651 15.0855 10.4452 15.2051C10.3253 15.3248 10.1769 15.3846 9.99979 15.3846Z" fill="currentColor"/>
</svg>
