<svg width="20" height="20" viewBox="0 0 20 20" fill="none" xmlns="http://www.w3.org/2000/svg">
<path d="M16.0289 17.7852L13.0962 14.8781C12.6047 15.0683 12.0996 15.2055 11.5808 15.29C11.0622 15.3744 10.5353 15.4167 9.99998 15.4167C8.24567 15.4167 6.63908 14.9501 5.18019 14.0169C3.72144 13.0835 2.56526 11.8535 1.71165 10.3269C1.6422 10.2073 1.59144 10.0855 1.55936 9.96145C1.52727 9.83756 1.51123 9.71152 1.51123 9.58332C1.51123 9.45513 1.52859 9.3277 1.56331 9.20103C1.59804 9.0745 1.65012 8.95409 1.71956 8.83978C2.05179 8.28742 2.40491 7.75298 2.77894 7.23645C3.15283 6.71978 3.58762 6.26277 4.08331 5.86541L2.20186 3.97103C2.08658 3.85575 2.02755 3.71291 2.02477 3.54249C2.02213 3.37207 2.08547 3.22221 2.21477 3.09291C2.33547 2.97221 2.48186 2.91187 2.65394 2.91187C2.82588 2.91187 2.9722 2.97221 3.0929 3.09291L16.9071 16.9071C17.0225 17.0225 17.0837 17.1653 17.0906 17.3356C17.0975 17.506 17.0364 17.6559 16.9071 17.7852C16.7864 17.9059 16.64 17.9662 16.4679 17.9662C16.296 17.9662 16.1496 17.9059 16.0289 17.7852ZM9.99998 12.9808C10.1848 12.9808 10.3614 12.9699 10.5296 12.9479C10.6979 12.926 10.8622 12.8781 11.0225 12.8044L6.77894 8.56082C6.71047 8.7211 6.66394 8.88541 6.63936 9.05374C6.61477 9.22193 6.60248 9.39846 6.60248 9.58332C6.60248 10.5289 6.93234 11.3315 7.59206 11.9912C8.25179 12.651 9.05442 12.9808 9.99998 12.9808ZM9.99998 3.74999C11.7596 3.74999 13.3736 4.21874 14.8421 5.15624C16.3105 6.09374 17.4689 7.33117 18.3173 8.86853C18.3813 8.97437 18.4307 9.08791 18.4654 9.20916C18.5001 9.33041 18.5175 9.45513 18.5175 9.58332C18.5175 9.71152 18.5023 9.83624 18.4719 9.95749C18.4414 10.0787 18.3941 10.1923 18.33 10.2981C18.0768 10.7799 17.7937 11.2339 17.4808 11.6602C17.1678 12.0864 16.8178 12.4876 16.431 12.8637C16.258 13.0368 16.0528 13.1164 15.8156 13.1025C15.5785 13.0886 15.3734 12.9951 15.2002 12.8221L13.4535 11.0833C13.367 10.9968 13.3098 10.8969 13.2821 10.7835C13.2543 10.6703 13.2559 10.5523 13.2869 10.4294C13.3263 10.2863 13.3546 10.1474 13.3716 10.0127C13.3889 9.87811 13.3975 9.73499 13.3975 9.58332C13.3975 8.63777 13.0676 7.83513 12.4079 7.17541C11.7482 6.51568 10.9455 6.18582 9.99998 6.18582C9.84831 6.18582 9.70651 6.19575 9.57456 6.21561C9.44262 6.23534 9.30769 6.26499 9.16977 6.30457C9.04699 6.34082 8.92415 6.34506 8.80123 6.31728C8.67845 6.2895 8.5738 6.23235 8.48727 6.14582L7.71144 5.3702C7.47435 5.13298 7.39561 4.8568 7.47519 4.54166C7.55477 4.22652 7.75484 4.02568 8.0754 3.93916C8.39054 3.87499 8.70783 3.82742 9.02727 3.79645C9.34672 3.76548 9.67095 3.74999 9.99998 3.74999ZM11.6137 8.00957C11.7826 8.19555 11.9218 8.40416 12.0312 8.63541C12.1407 8.86666 12.2093 9.10839 12.2371 9.36061C12.251 9.46103 12.2133 9.53075 12.1241 9.56978C12.035 9.60867 11.9514 9.58916 11.8733 9.51124L10.085 7.73082C10.0069 7.65277 9.98956 7.56916 10.0329 7.47999C10.0761 7.39082 10.1479 7.34624 10.2483 7.34624C10.5176 7.3686 10.766 7.43617 10.9935 7.54895C11.2212 7.66159 11.4279 7.81513 11.6137 8.00957Z" fill="currentColor"/>
</svg>
