<svg width="16" height="16" viewBox="0 0 16 16" fill="none" xmlns="http://www.w3.org/2000/svg">
<path d="M7.56667 11.5948V4.39229L6.75133 5.20129C6.66011 5.29352 6.55717 5.33963 6.4425 5.33963C6.32783 5.33963 6.22611 5.29563 6.13733 5.20763C6.04578 5.11674 6 5.01496 6 4.90229C6 4.78963 6.04617 4.68713 6.1385 4.59479L7.62633 3.10696C7.67889 3.0544 7.73778 3.01535 7.803 2.98979C7.86822 2.96413 7.93572 2.95129 8.0055 2.95129C8.07539 2.95129 8.14217 2.96413 8.20583 2.98979C8.2695 3.01535 8.32756 3.0544 8.38 3.10696L9.868 4.59479C9.96022 4.68713 10.0074 4.78652 10.0097 4.89296C10.0118 4.99929 9.965 5.09863 9.86933 5.19096C9.77611 5.28329 9.6735 5.32946 9.5615 5.32946C9.44961 5.32946 9.3475 5.28329 9.25517 5.19096L8.43333 4.39229V11.5948L9.24867 10.7923C9.33989 10.7 9.44283 10.6538 9.5575 10.6538C9.67217 10.6538 9.77389 10.6978 9.86267 10.7858C9.95422 10.8767 10 10.9785 10 11.0911C10 11.2038 9.95383 11.3063 9.8615 11.3986L8.37367 12.8865C8.32111 12.939 8.26272 12.9781 8.1985 13.0038C8.13428 13.0295 8.06783 13.0423 7.99917 13.0423C7.9305 13.0423 7.86306 13.0294 7.79683 13.0035C7.73061 12.9777 7.67228 12.9394 7.62183 12.8885L6.132 11.3986C6.04111 11.3074 5.99917 11.2045 6.00617 11.0898C6.01317 10.9752 6.06067 10.8736 6.14867 10.7848C6.23956 10.6932 6.34133 10.6475 6.454 10.6475C6.56667 10.6475 6.66917 10.6936 6.7615 10.7858L7.56667 11.5948Z" fill="currentColor"/>
</svg>
