<svg width="16" height="16" viewBox="0 0 16 16" fill="none" xmlns="http://www.w3.org/2000/svg">
<path d="M6.63857 11.8334C6.51579 11.8334 6.41284 11.7922 6.32973 11.7097C6.24673 11.6273 6.20523 11.5252 6.20523 11.4034C6.20523 11.2815 6.24673 11.1783 6.32973 11.0937C6.41284 11.0091 6.51579 10.9667 6.63857 10.9667H12.8334C12.9562 10.9667 13.0591 11.0079 13.1421 11.0904C13.2252 11.1728 13.2667 11.2749 13.2667 11.3967C13.2667 11.5186 13.2252 11.6218 13.1421 11.7064C13.0591 11.7911 12.9562 11.8334 12.8334 11.8334H6.63857ZM6.63857 8.43339C6.51579 8.43339 6.41284 8.39217 6.32973 8.30972C6.24673 8.22728 6.20523 8.12517 6.20523 8.00339C6.20523 7.8815 6.24673 7.77828 6.32973 7.69372C6.41284 7.60906 6.51579 7.56672 6.63857 7.56672H12.8334C12.9562 7.56672 13.0591 7.60795 13.1421 7.69039C13.2252 7.77283 13.2667 7.87494 13.2667 7.99672C13.2667 8.11861 13.2252 8.22183 13.1421 8.30639C13.0591 8.39106 12.9562 8.43339 12.8334 8.43339H6.63857ZM6.63857 5.03339C6.51579 5.03339 6.41284 4.99217 6.32973 4.90972C6.24673 4.82728 6.20523 4.72517 6.20523 4.60339C6.20523 4.4815 6.24673 4.37828 6.32973 4.29372C6.41284 4.20906 6.51579 4.16672 6.63857 4.16672H12.8334C12.9562 4.16672 13.0591 4.20794 13.1421 4.29039C13.2252 4.37283 13.2667 4.47494 13.2667 4.59672C13.2667 4.71861 13.2252 4.82183 13.1421 4.90639C13.0591 4.99106 12.9562 5.03339 12.8334 5.03339H6.63857ZM3.70557 12.3757C3.43623 12.3757 3.2069 12.2798 3.01757 12.0881C2.82812 11.8963 2.7334 11.6658 2.7334 11.3966C2.7334 11.1272 2.82929 10.8979 3.02107 10.7086C3.21284 10.5191 3.44334 10.4244 3.71257 10.4244C3.9819 10.4244 4.21123 10.5203 4.40057 10.7121C4.59001 10.9038 4.68473 11.1343 4.68473 11.4036C4.68473 11.6729 4.58884 11.9022 4.39707 12.0916C4.20529 12.281 3.97479 12.3757 3.70557 12.3757ZM3.70557 8.97572C3.43623 8.97572 3.2069 8.87983 3.01757 8.68806C2.82812 8.49628 2.7334 8.26578 2.7334 7.99656C2.7334 7.72722 2.82929 7.49789 3.02107 7.30856C3.21284 7.11911 3.44334 7.02439 3.71257 7.02439C3.9819 7.02439 4.21123 7.12028 4.40057 7.31206C4.59001 7.50383 4.68473 7.73433 4.68473 8.00356C4.68473 8.27289 4.58884 8.50222 4.39707 8.69156C4.20529 8.881 3.97479 8.97572 3.70557 8.97572ZM3.70557 5.57572C3.43623 5.57572 3.2069 5.47983 3.01757 5.28806C2.82812 5.09628 2.7334 4.86578 2.7334 4.59656C2.7334 4.32722 2.82929 4.09789 3.02107 3.90856C3.21284 3.71911 3.44334 3.62439 3.71257 3.62439C3.9819 3.62439 4.21123 3.72028 4.40057 3.91206C4.59001 4.10383 4.68473 4.33433 4.68473 4.60356C4.68473 4.87289 4.58884 5.10222 4.39707 5.29156C4.20529 5.481 3.97479 5.57572 3.70557 5.57572Z" fill="currentColor"/>
</svg>
