<svg width="24" height="24" viewBox="0 0 24 24" fill="none" xmlns="http://www.w3.org/2000/svg">
<path d="M3.51562 16.6932V7.30873C3.51562 6.81156 3.69263 6.38598 4.04663 6.03198C4.40063 5.67798 4.82613 5.50098 5.32313 5.50098H18.6924C19.1895 5.50098 19.6151 5.67798 19.9691 6.03198C20.3231 6.38598 20.5001 6.81156 20.5001 7.30873V16.6932C20.5001 17.1904 20.3231 17.616 19.9691 17.97C19.6151 18.324 19.1895 18.501 18.6924 18.501H5.32313C4.82613 18.501 4.40063 18.324 4.04663 17.97C3.69263 17.616 3.51562 17.1904 3.51562 16.6932ZM5.30788 17.001H8.66162V7.00098H5.30788C5.23088 7.00098 5.16038 7.03306 5.09638 7.09723C5.03221 7.16123 5.00013 7.23173 5.00013 7.30873V16.6932C5.00013 16.7702 5.03221 16.8407 5.09638 16.9047C5.16038 16.9689 5.23088 17.001 5.30788 17.001ZM10.1616 17.001H13.8231V7.00098H10.1616V17.001ZM15.3231 17.001H18.6771C18.754 17.001 18.8245 16.9689 18.8886 16.9047C18.9526 16.8407 18.9846 16.7702 18.9846 16.6932V7.30873C18.9846 7.23173 18.9526 7.16123 18.8886 7.09723C18.8245 7.03306 18.754 7.00098 18.6771 7.00098H15.3231V17.001Z" fill="currentColor"/>
</svg>
