<svg width="16" height="16" viewBox="0 0 16 16" fill="none" xmlns="http://www.w3.org/2000/svg">
<path d="M8.00144 7.87178C8.52178 7.87178 8.96355 7.68961 9.32678 7.32528C9.69011 6.96105 9.87178 6.51878 9.87178 5.99844C9.87178 5.47811 9.68961 5.03633 9.32528 4.67311C8.96105 4.30978 8.51878 4.12811 7.99844 4.12811C7.47811 4.12811 7.03633 4.31028 6.67311 4.67461C6.30978 5.03883 6.12811 5.48111 6.12811 6.00144C6.12811 6.52178 6.31028 6.96355 6.67461 7.32678C7.03883 7.69011 7.48111 7.87178 8.00144 7.87178ZM6.89994 6.29994C6.81105 6.29994 6.73883 6.27217 6.68328 6.21661C6.62772 6.16105 6.59994 6.08883 6.59994 5.99994C6.59994 5.91105 6.62772 5.83883 6.68328 5.78328C6.73883 5.72772 6.81105 5.69994 6.89994 5.69994C6.98883 5.69994 7.06105 5.72772 7.11661 5.78328C7.17217 5.83883 7.19994 5.91105 7.19994 5.99994C7.19994 6.08883 7.17217 6.16105 7.11661 6.21661C7.06105 6.27217 6.98883 6.29994 6.89994 6.29994ZM7.99994 6.29994C7.91105 6.29994 7.83883 6.27217 7.78328 6.21661C7.72772 6.16105 7.69994 6.08883 7.69994 5.99994C7.69994 5.91105 7.72772 5.83883 7.78328 5.78328C7.83883 5.72772 7.91105 5.69994 7.99994 5.69994C8.08883 5.69994 8.16105 5.72772 8.21661 5.78328C8.27217 5.83883 8.29994 5.91105 8.29994 5.99994C8.29994 6.08883 8.27217 6.16105 8.21661 6.21661C8.16105 6.27217 8.08883 6.29994 7.99994 6.29994ZM9.09994 6.29994C9.01105 6.29994 8.93883 6.27217 8.88328 6.21661C8.82772 6.16105 8.79994 6.08883 8.79994 5.99994C8.79994 5.91105 8.82772 5.83883 8.88328 5.78328C8.93883 5.72772 9.01105 5.69994 9.09994 5.69994C9.18883 5.69994 9.26105 5.72772 9.31661 5.78328C9.37217 5.83883 9.39994 5.91105 9.39994 5.99994C9.39994 6.08883 9.37217 6.16105 9.31661 6.21661C9.26105 6.27217 9.18883 6.29994 9.09994 6.29994ZM3.80511 13.2666C3.505 13.2666 3.25133 13.163 3.04411 12.9558C2.83689 12.7486 2.73328 12.4949 2.73328 12.1948V3.80511C2.73328 3.505 2.83689 3.25133 3.04411 3.04411C3.25133 2.83689 3.505 2.73328 3.80511 2.73328H12.1948C12.4949 2.73328 12.7486 2.83689 12.9558 3.04411C13.163 3.25133 13.2666 3.505 13.2666 3.80511V12.1948C13.2666 12.4949 13.163 12.7486 12.9558 12.9558C12.7486 13.163 12.4949 13.2666 12.1948 13.2666H3.80511Z" fill="currentColor"/>
</svg>
