<svg width="20" height="20" viewBox="0 0 20 20" fill="none" xmlns="http://www.w3.org/2000/svg">
<path d="M7.65374 9.99989L13.931 16.2772C14.0966 16.4427 14.1773 16.6377 14.1731 16.862C14.1688 17.0864 14.0839 17.2814 13.9183 17.447C13.7526 17.6125 13.5576 17.6953 13.3333 17.6953C13.109 17.6953 12.914 17.6125 12.7483 17.447L6.35582 11.0672C6.20513 10.9165 6.09346 10.7477 6.02082 10.5607C5.94818 10.3738 5.91187 10.1868 5.91187 9.99989C5.91187 9.81295 5.94818 9.626 6.02082 9.43906C6.09346 9.25211 6.20513 9.08329 6.35582 8.9326L12.7483 2.53989C12.914 2.37433 13.1112 2.29371 13.3398 2.29802C13.5684 2.30232 13.7655 2.38725 13.931 2.55281C14.0966 2.71836 14.1794 2.91336 14.1794 3.13781C14.1794 3.36211 14.0966 3.55704 13.931 3.7226L7.65374 9.99989Z" fill="currentColor"/>
</svg>
