<svg width="24" height="24" viewBox="0 0 24 24" fill="none" xmlns="http://www.w3.org/2000/svg">
<path d="M4.50777 19.9C4.05761 19.9 3.67711 19.7446 3.36627 19.4338C3.05544 19.123 2.90002 18.7425 2.90002 18.2923V6.9078C2.90002 6.45763 3.05544 6.07713 3.36627 5.7663C3.67711 5.45547 4.05761 5.30005 4.50777 5.30005H19.4923C19.9424 5.30005 20.3229 5.45547 20.6338 5.7663C20.9446 6.07713 21.1 6.45763 21.1 6.9078V18.2923C21.1 18.7425 20.9446 19.123 20.6338 19.4338C20.3229 19.7446 19.9424 19.9 19.4923 19.9H4.50777ZM4.50777 18.6H11.35V6.60005H4.50777C4.43077 6.60005 4.36027 6.63213 4.29627 6.6963C4.23211 6.7603 4.20002 6.8308 4.20002 6.9078V18.2923C4.20002 18.3693 4.23211 18.4398 4.29627 18.5038C4.36027 18.568 4.43077 18.6 4.50777 18.6ZM12.65 18.6H19.4923C19.5693 18.6 19.6398 18.568 19.7038 18.5038C19.7679 18.4398 19.8 18.3693 19.8 18.2923V6.9078C19.8 6.8308 19.7679 6.7603 19.7038 6.6963C19.6398 6.63213 19.5693 6.60005 19.4923 6.60005H12.65V18.6ZM6.24052 16.55H9.30102C9.48469 16.55 9.64002 16.4882 9.76702 16.3645C9.89419 16.2409 9.95777 16.0877 9.95777 15.905C9.95777 15.7222 9.89561 15.5674 9.77127 15.4405C9.64711 15.3135 9.49319 15.25 9.30952 15.25H6.24902C6.06536 15.25 5.91002 15.3119 5.78302 15.4355C5.65586 15.5592 5.59227 15.7124 5.59227 15.895C5.59227 16.0779 5.65444 16.2327 5.77877 16.3595C5.90294 16.4865 6.05686 16.55 6.24052 16.55ZM6.24052 13.25H9.30102C9.48469 13.25 9.64002 13.1882 9.76702 13.0645C9.89419 12.9409 9.95777 12.7877 9.95777 12.605C9.95777 12.4222 9.89561 12.2674 9.77127 12.1405C9.64711 12.0135 9.49319 11.95 9.30952 11.95H6.24902C6.06536 11.95 5.91002 12.0119 5.78302 12.1355C5.65586 12.2592 5.59227 12.4124 5.59227 12.595C5.59227 12.7779 5.65444 12.9327 5.77877 13.0595C5.90294 13.1865 6.05686 13.25 6.24052 13.25ZM6.24052 9.95005H9.30102C9.48469 9.95005 9.64002 9.88822 9.76702 9.76455C9.89419 9.64088 9.95777 9.48772 9.95777 9.30505C9.95777 9.12222 9.89561 8.96738 9.77127 8.84055C9.64711 8.71355 9.49319 8.65005 9.30952 8.65005H6.24902C6.06536 8.65005 5.91002 8.71188 5.78302 8.83555C5.65586 8.95922 5.59227 9.11238 5.59227 9.29505C5.59227 9.47788 5.65444 9.63272 5.77877 9.75955C5.90294 9.88655 6.05686 9.95005 6.24052 9.95005ZM14.6905 16.575H17.751C17.9347 16.575 18.09 16.5132 18.217 16.3895C18.3442 16.2659 18.4078 16.1127 18.4078 15.93C18.4078 15.7472 18.3456 15.5924 18.2213 15.4655C18.0971 15.3385 17.9432 15.275 17.7595 15.275H14.699C14.5154 15.275 14.36 15.3369 14.233 15.4605C14.1059 15.5842 14.0423 15.7374 14.0423 15.92C14.0423 16.1029 14.1044 16.2577 14.2288 16.3845C14.3529 16.5115 14.5069 16.575 14.6905 16.575ZM14.6905 13.275H17.751C17.9347 13.275 18.09 13.2132 18.217 13.0895C18.3442 12.9659 18.4078 12.8127 18.4078 12.63C18.4078 12.4472 18.3456 12.2924 18.2213 12.1655C18.0971 12.0385 17.9432 11.975 17.7595 11.975H14.699C14.5154 11.975 14.36 12.0369 14.233 12.1605C14.1059 12.2842 14.0423 12.4374 14.0423 12.62C14.0423 12.8029 14.1044 12.9577 14.2288 13.0845C14.3529 13.2115 14.5069 13.275 14.6905 13.275ZM14.6905 9.97505H17.751C17.9347 9.97505 18.09 9.91322 18.217 9.78955C18.3442 9.66588 18.4078 9.51272 18.4078 9.33005C18.4078 9.14722 18.3456 8.99238 18.2213 8.86555C18.0971 8.73855 17.9432 8.67505 17.7595 8.67505H14.699C14.5154 8.67505 14.36 8.73688 14.233 8.86055C14.1059 8.98422 14.0423 9.13738 14.0423 9.32005C14.0423 9.50288 14.1044 9.65772 14.2288 9.78455C14.3529 9.91155 14.5069 9.97505 14.6905 9.97505Z" fill="currentColor"/>
</svg>
