<svg width="24" height="24" viewBox="0 0 24 24" fill="none" xmlns="http://www.w3.org/2000/svg">
<path d="M11.9997 14.0386C11.7871 14.0386 11.609 13.9667 11.4655 13.8228C11.3218 13.6792 11.25 13.5011 11.25 13.2886V6.28857C11.25 6.07607 11.3219 5.89791 11.4658 5.75407C11.6096 5.61041 11.7878 5.53857 12.0003 5.53857C12.2129 5.53857 12.391 5.61041 12.5345 5.75407C12.6782 5.89791 12.75 6.07607 12.75 6.28857V13.2886C12.75 13.5011 12.6781 13.6792 12.5342 13.8228C12.3904 13.9667 12.2122 14.0386 11.9997 14.0386ZM11.9997 18.4616C11.7871 18.4616 11.609 18.3897 11.4655 18.2458C11.3218 18.102 11.25 17.9238 11.25 17.7113C11.25 17.4987 11.3219 17.3206 11.4658 17.1771C11.6096 17.0334 11.7878 16.9616 12.0003 16.9616C12.2129 16.9616 12.391 17.0335 12.5345 17.1773C12.6782 17.3212 12.75 17.4993 12.75 17.7118C12.75 17.9245 12.6781 18.1026 12.5342 18.2461C12.3904 18.3897 12.2122 18.4616 11.9997 18.4616Z" fill="currentColor"/>
</svg>
