<svg width="16" height="16" viewBox="0 0 16 16" fill="none" xmlns="http://www.w3.org/2000/svg">
<path d="M3.53592 13.6667C3.19914 13.6667 2.91408 13.55 2.68075 13.3167C2.44742 13.0833 2.33075 12.7983 2.33075 12.4615V3.5385C2.33075 3.20172 2.44742 2.91667 2.68075 2.68333C2.91408 2.45 3.19914 2.33333 3.53592 2.33333H6.50258C6.55558 1.959 6.72097 1.64322 6.99875 1.386C7.27653 1.12867 7.60942 1 7.99742 1C8.38542 1 8.7183 1.12867 8.99608 1.386C9.27386 1.64322 9.43925 1.959 9.49225 2.33333H12.4589C12.7957 2.33333 13.0807 2.45 13.3141 2.68333C13.5474 2.91667 13.6641 3.20172 13.6641 3.5385V12.4615C13.6641 12.7983 13.5474 13.0833 13.3141 13.3167C13.0807 13.55 12.7957 13.6667 12.4589 13.6667H3.53592ZM7.99742 2.8975C8.14186 2.8975 8.2613 2.85028 8.35575 2.75583C8.45019 2.66139 8.49742 2.54194 8.49742 2.3975C8.49742 2.25306 8.45019 2.13361 8.35575 2.03917C8.2613 1.94472 8.14186 1.8975 7.99742 1.8975C7.85297 1.8975 7.73353 1.94472 7.63908 2.03917C7.54464 2.13361 7.49742 2.25306 7.49742 2.3975C7.49742 2.54194 7.54464 2.66139 7.63908 2.75583C7.73353 2.85028 7.85297 2.8975 7.99742 2.8975ZM3.33075 12.0282C3.93075 11.4393 4.62797 10.9754 5.42242 10.6365C6.21686 10.2976 7.07519 10.1282 7.99742 10.1282C8.91964 10.1282 9.77797 10.2976 10.5724 10.6365C11.3669 10.9754 12.0641 11.4393 12.6641 12.0282V3.5385C12.6641 3.48717 12.6427 3.44017 12.5999 3.3975C12.5572 3.35472 12.5102 3.33333 12.4589 3.33333H3.53592C3.48458 3.33333 3.43758 3.35472 3.39492 3.3975C3.35214 3.44017 3.33075 3.48717 3.33075 3.5385V12.0282ZM7.99742 8.69233C8.59908 8.69233 9.11064 8.48167 9.53208 8.06033C9.95342 7.63889 10.1641 7.12733 10.1641 6.52567C10.1641 5.924 9.95342 5.41245 9.53208 4.991C9.11064 4.56967 8.59908 4.359 7.99742 4.359C7.39575 4.359 6.88419 4.56967 6.46275 4.991C6.04142 5.41245 5.83075 5.924 5.83075 6.52567C5.83075 7.12733 6.04142 7.63889 6.46275 8.06033C6.88419 8.48167 7.39575 8.69233 7.99742 8.69233ZM4.29225 12.6667H11.7026V12.5257C11.176 12.0556 10.5985 11.7051 9.96992 11.4743C9.34125 11.2436 8.68375 11.1282 7.99742 11.1282C7.31964 11.1282 6.66536 11.2425 6.03458 11.4712C5.40381 11.6998 4.82303 12.0471 4.29225 12.5128V12.6667ZM7.99742 7.69233C7.67686 7.69233 7.4023 7.578 7.17375 7.34933C6.94508 7.12078 6.83075 6.84622 6.83075 6.52567C6.83075 6.20511 6.94508 5.93056 7.17375 5.702C7.4023 5.47333 7.67686 5.359 7.99742 5.359C8.31797 5.359 8.59253 5.47333 8.82108 5.702C9.04975 5.93056 9.16408 6.20511 9.16408 6.52567C9.16408 6.84622 9.04975 7.12078 8.82108 7.34933C8.59253 7.578 8.31797 7.69233 7.99742 7.69233Z" fill="currentColor"/>
</svg>
