<svg width="16" height="16" viewBox="0 0 16 16" fill="none" xmlns="http://www.w3.org/2000/svg">
<path d="M6.72996 10.7886C7.85874 10.7886 8.81735 10.3935 9.60579 9.6034C10.3942 8.81329 10.7885 7.8539 10.7885 6.72523C10.7885 5.59646 10.3938 4.63679 9.60463 3.84623C8.8154 3.05568 7.85707 2.6604 6.72963 2.6604C5.60218 2.6604 4.64313 3.0554 3.85246 3.8454C3.0619 4.63551 2.66663 5.59496 2.66663 6.72373C2.66663 7.8524 3.06168 8.81201 3.85179 9.60257C4.6419 10.3932 5.60129 10.7886 6.72996 10.7886ZM6.73079 11.7886C5.32301 11.7886 4.12707 11.2965 3.14296 10.3122C2.15874 9.32801 1.66663 8.13207 1.66663 6.7244C1.66663 5.31673 2.15874 4.12079 3.14296 3.13657C4.12707 2.15246 5.32301 1.6604 6.73079 1.6604C8.13846 1.6604 9.33329 2.15246 10.3153 3.13657C11.2974 4.12079 11.7885 5.31673 11.7885 6.7244C11.7885 7.3374 11.688 7.91479 11.4871 8.45657C11.2862 8.99835 11.0059 9.48851 10.6461 9.92707L13.9885 13.2692C14.0876 13.3672 14.1371 13.4836 14.1371 13.6184C14.1371 13.7532 14.0871 13.8723 13.9871 13.9757C13.887 14.0791 13.7682 14.1307 13.6306 14.1307C13.4931 14.1307 13.3726 14.0791 13.2691 13.9757L9.93329 10.6397C9.49485 11.0038 9.00474 11.2863 8.46296 11.4872C7.92107 11.6881 7.34368 11.7886 6.73079 11.7886Z" fill="currentColor"/>
</svg>
