<svg width="16" height="16" viewBox="0 0 16 16" fill="none" xmlns="http://www.w3.org/2000/svg">
<path d="M3 12.6668V6.76932C3 6.57855 3.04267 6.39782 3.128 6.22716C3.21344 6.05638 3.33144 5.91577 3.482 5.80532L7.277 2.94632C7.48756 2.78566 7.72822 2.70532 7.999 2.70532C8.26978 2.70532 8.51111 2.78566 8.723 2.94632L12.518 5.80532C12.6686 5.91577 12.7866 6.05638 12.872 6.22716C12.9573 6.39782 13 6.57855 13 6.76932V12.6668C13 12.9395 12.9015 13.1743 12.7045 13.3713C12.5075 13.5683 12.2727 13.6668 12 13.6668H9.87183C9.70106 13.6668 9.55794 13.609 9.4425 13.4935C9.32694 13.378 9.26917 13.2349 9.26917 13.0642V9.80782C9.26917 9.63716 9.21144 9.49405 9.096 9.37849C8.98056 9.26305 8.83744 9.20532 8.66667 9.20532H7.33333C7.16256 9.20532 7.01944 9.26305 6.904 9.37849C6.78856 9.49405 6.73083 9.63716 6.73083 9.80782V13.0642C6.73083 13.2349 6.67306 13.378 6.5575 13.4935C6.44206 13.609 6.29894 13.6668 6.12817 13.6668H4C3.72733 13.6668 3.4925 13.5683 3.2955 13.3713C3.0985 13.1743 3 12.9395 3 12.6668Z" fill="currentColor"/>
</svg>
