<svg width="20" height="20" viewBox="0 0 20 20" fill="none" xmlns="http://www.w3.org/2000/svg">
<path d="M4.65225 16.5833C4.31114 16.5833 4.01989 16.4627 3.7785 16.2214C3.53725 15.9801 3.41663 15.6888 3.41663 15.3477V4.65228C3.41663 4.31117 3.53725 4.01992 3.7785 3.77853C4.01989 3.53728 4.31114 3.41666 4.65225 3.41666H15.3477C15.6888 3.41666 15.98 3.53728 16.2214 3.77853C16.4627 4.01992 16.5833 4.31117 16.5833 4.65228V15.3477C16.5833 15.6888 16.4627 15.9801 16.2214 16.2214C15.98 16.4627 15.6888 16.5833 15.3477 16.5833H4.65225ZM8.08329 15.5H15.2435C15.3077 15.5 15.3664 15.4733 15.4198 15.4198C15.4732 15.3664 15.5 15.3077 15.5 15.2435V4.75645C15.5 4.69228 15.4732 4.63353 15.4198 4.5802C15.3664 4.52673 15.3077 4.49999 15.2435 4.49999H8.08329V15.5Z" fill="currentColor"/>
</svg>
