<svg width="24" height="24" viewBox="0 0 24 24" fill="none" xmlns="http://www.w3.org/2000/svg">
<path fill-rule="evenodd" clip-rule="evenodd" d="M5.90625 5.20312C5.90625 5.01664 5.83217 4.8378 5.70031 4.70594C5.56845 4.57408 5.38961 4.5 5.20312 4.5C5.01664 4.5 4.8378 4.57408 4.70594 4.70594C4.57408 4.8378 4.5 5.01664 4.5 5.20312V18.7969C4.5 18.9834 4.57408 19.1622 4.70594 19.2941C4.8378 19.4259 5.01664 19.5 5.20312 19.5C5.38961 19.5 5.56845 19.4259 5.70031 19.2941C5.83217 19.1622 5.90625 18.9834 5.90625 18.7969V5.20312ZM8.95312 5.4375C8.76664 5.4375 8.5878 5.51158 8.45594 5.64344C8.32408 5.7753 8.25 5.95414 8.25 6.14062C8.25 6.32711 8.32408 6.50595 8.45594 6.63781C8.5878 6.76967 8.76664 6.84375 8.95312 6.84375H16.9219C17.1084 6.84375 17.2872 6.76967 17.4191 6.63781C17.5509 6.50595 17.625 6.32711 17.625 6.14062C17.625 5.95414 17.5509 5.7753 17.4191 5.64344C17.2872 5.51158 17.1084 5.4375 16.9219 5.4375H8.95312ZM8.25 12.2344C8.25 12.0479 8.32408 11.8691 8.45594 11.7372C8.5878 11.6053 8.76664 11.5312 8.95312 11.5312H18.7969C18.9834 11.5312 19.1622 11.6053 19.2941 11.7372C19.4259 11.8691 19.5 12.0479 19.5 12.2344C19.5 12.4209 19.4259 12.5997 19.2941 12.7316C19.1622 12.8634 18.9834 12.9375 18.7969 12.9375H8.95312C8.76664 12.9375 8.5878 12.8634 8.45594 12.7316C8.32408 12.5997 8.25 12.4209 8.25 12.2344ZM8.95312 17.1562C8.76664 17.1562 8.5878 17.2303 8.45594 17.3622C8.32408 17.4941 8.25 17.6729 8.25 17.8594C8.25 18.0459 8.32408 18.2247 8.45594 18.3566C8.5878 18.4884 8.76664 18.5625 8.95312 18.5625H15.9844C16.1709 18.5625 16.3497 18.4884 16.4816 18.3566C16.6134 18.2247 16.6875 18.0459 16.6875 17.8594C16.6875 17.6729 16.6134 17.4941 16.4816 17.3622C16.3497 17.2303 16.1709 17.1562 15.9844 17.1562H8.95312Z" fill="currentColor"/>
</svg>
