<svg width="16" height="16" viewBox="0 0 16 16" fill="none" xmlns="http://www.w3.org/2000/svg">
<path d="M3.53854 13.6667C3.20176 13.6667 2.91671 13.55 2.68337 13.3167C2.45004 13.0834 2.33337 12.7983 2.33337 12.4615V3.53854C2.33337 3.20176 2.45004 2.91671 2.68337 2.68337C2.91671 2.45004 3.20176 2.33337 3.53854 2.33337H7.50654C7.64832 2.33337 7.7671 2.38126 7.86287 2.47704C7.95854 2.57271 8.00637 2.69149 8.00637 2.83337C8.00637 2.97526 7.95854 3.09404 7.86287 3.18971C7.7671 3.28549 7.64832 3.33337 7.50654 3.33337H3.53854C3.48721 3.33337 3.44021 3.35476 3.39754 3.39754C3.35476 3.44021 3.33337 3.48721 3.33337 3.53854V12.4615C3.33337 12.5129 3.35476 12.5599 3.39754 12.6025C3.44021 12.6453 3.48721 12.6667 3.53854 12.6667H7.50654C7.64832 12.6667 7.7671 12.7146 7.86287 12.8104C7.95854 12.906 8.00637 13.0248 8.00637 13.1667C8.00637 13.3086 7.95854 13.4274 7.86287 13.523C7.7671 13.6188 7.64832 13.6667 7.50654 13.6667H3.53854ZM11.7449 8.50004H6.56421C6.42232 8.50004 6.30349 8.45215 6.20771 8.35637C6.11204 8.26071 6.06421 8.14193 6.06421 8.00004C6.06421 7.85815 6.11204 7.73937 6.20771 7.64371C6.30349 7.54793 6.42232 7.50004 6.56421 7.50004H11.7449L10.4629 6.21804C10.3705 6.12571 10.3233 6.0131 10.3212 5.88021C10.3191 5.74732 10.3663 5.62915 10.4629 5.52571C10.5594 5.42226 10.6765 5.36882 10.8142 5.36537C10.9518 5.36204 11.0723 5.41204 11.1757 5.51537L13.2385 7.57821C13.359 7.69876 13.4192 7.83937 13.4192 8.00004C13.4192 8.16071 13.359 8.30132 13.2385 8.42187L11.1757 10.4847C11.0766 10.5838 10.9589 10.6327 10.8225 10.6314C10.6862 10.6302 10.5663 10.5778 10.4629 10.4744C10.3663 10.3709 10.3198 10.2522 10.3232 10.118C10.3265 9.98382 10.3765 9.86843 10.4732 9.77187L11.7449 8.50004Z" fill="currentColor"/>
</svg>
