<svg width="20" height="20" viewBox="0 0 20 20" fill="none" xmlns="http://www.w3.org/2000/svg">
<path d="M3.58971 17.9168C3.17415 17.9168 2.81915 17.7696 2.52471 17.4753C2.2304 17.1809 2.08325 16.8259 2.08325 16.4103V9.59301C2.08325 9.29176 2.16422 9.01426 2.32617 8.76051C2.48797 8.50676 2.71256 8.3185 2.99992 8.19572L6.02867 6.91843C6.27978 6.81801 6.51832 6.83614 6.74429 6.9728C6.97027 7.10961 7.08325 7.31745 7.08325 7.59634V8.11718L10.2162 6.86072C10.4673 6.7603 10.7023 6.78544 10.9214 6.93614C11.1404 7.08669 11.2499 7.29447 11.2499 7.55947V8.75009H17.9166V16.4103C17.9166 16.8259 17.7694 17.1809 17.4751 17.4753C17.1807 17.7696 16.8257 17.9168 16.4101 17.9168H3.58971ZM3.58971 16.6668H16.4101C16.485 16.6668 16.5464 16.6427 16.5945 16.5947C16.6426 16.5466 16.6666 16.4852 16.6666 16.4103V10.0001H9.99992V8.29176L5.83325 9.95843V8.33343L3.48554 9.37343C3.43749 9.39482 3.40006 9.42558 3.37325 9.46572C3.34659 9.50572 3.33325 9.55245 3.33325 9.60593V16.4103C3.33325 16.4852 3.35728 16.5466 3.40534 16.5947C3.45339 16.6427 3.51485 16.6668 3.58971 16.6668ZM9.26283 14.8078H10.737V11.8591H9.26283V14.8078ZM5.9295 14.8078H7.40367V11.8591H5.9295V14.8078ZM12.5962 14.8078H14.0703V11.8591H12.5962V14.8078ZM17.9166 8.75009H14.5351L15.3012 2.9728C15.3237 2.80725 15.3953 2.67107 15.516 2.56426C15.6367 2.45746 15.7798 2.40405 15.9455 2.40405H16.5864C16.7414 2.40405 16.8752 2.45614 16.9878 2.5603C17.1006 2.66447 17.1682 2.79398 17.1905 2.94884L17.9166 8.75009ZM3.58971 16.6668H3.33325H16.6666H3.58971Z" fill="currentColor"/>
</svg>
