<svg width="20" height="20" viewBox="0 0 20 20" fill="none" xmlns="http://www.w3.org/2000/svg">
<path d="M3.33979 17.0946C2.96465 17.0946 2.64757 16.9651 2.38854 16.706C2.12951 16.447 2 16.1299 2 15.7548V5.26771C2 4.89257 2.12951 4.57549 2.38854 4.31646C2.64757 4.05743 2.96465 3.92792 3.33979 3.92792H8.86229C9.04285 3.92792 9.17826 3.98465 9.26854 4.09812C9.35882 4.21174 9.40396 4.33556 9.40396 4.46958C9.40396 4.60361 9.35861 4.72743 9.26792 4.84104C9.17722 4.95451 9.04465 5.01125 8.87021 5.01125H3.33979C3.27562 5.01125 3.21688 5.03799 3.16354 5.09146C3.11007 5.14479 3.08333 5.20354 3.08333 5.26771V15.7548C3.08333 15.819 3.11007 15.8777 3.16354 15.931C3.21688 15.9845 3.27562 16.0112 3.33979 16.0112H13.8269C13.891 16.0112 13.9498 15.9845 14.0031 15.931C14.0566 15.8777 14.0833 15.819 14.0833 15.7548V10.6821C14.0833 10.5083 14.1401 10.3763 14.2535 10.286C14.3672 10.1958 14.491 10.1506 14.625 10.1506C14.759 10.1506 14.8828 10.1958 14.9965 10.286C15.1099 10.3763 15.1667 10.5117 15.1667 10.6923V15.7548C15.1667 16.1299 15.0372 16.447 14.7781 16.706C14.5191 16.9651 14.202 17.0946 13.8269 17.0946H3.33979ZM7 11.4285V10.1558C7 9.97819 7.03208 9.80715 7.09625 9.64271C7.16028 9.47812 7.25833 9.32986 7.39042 9.19792L14.279 2.30937C14.3942 2.19396 14.5155 2.11354 14.6427 2.06812C14.7698 2.02271 14.9031 2 15.0425 2C15.1838 2 15.3196 2.02271 15.45 2.06812C15.5806 2.11354 15.7004 2.18979 15.8096 2.29688L16.7531 3.21958C16.8738 3.335 16.9596 3.46153 17.0104 3.59917C17.0611 3.7368 17.0865 3.87632 17.0865 4.01771C17.0865 4.15937 17.0623 4.29653 17.014 4.42917C16.9656 4.56181 16.884 4.68528 16.7692 4.79958L9.85667 11.7123C9.72458 11.8442 9.57667 11.941 9.41292 12.0025C9.24903 12.0639 9.07854 12.0946 8.90146 12.0946H7.67375C7.48417 12.0946 7.32451 12.0311 7.19479 11.9042C7.06493 11.7771 7 11.6185 7 11.4285ZM8.08333 11.0112H9.01771L14.1906 5.83812L13.734 5.36063L13.2404 4.88792L8.08333 10.045V11.0112Z" fill="currentColor"/>
</svg>
