<svg width="16" height="16" viewBox="0 0 16 16" fill="none" xmlns="http://www.w3.org/2000/svg">
<path d="M3.74344 12.0667V12.7615C3.74344 12.9019 3.69428 13.0212 3.59594 13.1194C3.49761 13.2176 3.37817 13.2667 3.23761 13.2667C3.09717 13.2667 2.978 13.2176 2.88011 13.1194C2.78222 13.0212 2.73328 12.9019 2.73328 12.7615V8.26087C2.73328 8.19499 2.74055 8.12904 2.75511 8.06304C2.76967 7.99715 2.78755 7.92693 2.80878 7.85237L3.97244 5.00121C4.05022 4.80054 4.18005 4.6391 4.36194 4.51687C4.54383 4.39454 4.74239 4.33337 4.95761 4.33337H11.0423C11.2575 4.33337 11.4561 4.39454 11.6379 4.51687C11.8198 4.6391 11.9497 4.80054 12.0274 5.00121L13.1911 7.85237C13.2123 7.92693 13.2302 7.99715 13.2448 8.06304C13.2593 8.12904 13.2666 8.19499 13.2666 8.26087V12.7615C13.2666 12.9019 13.2174 13.0212 13.1191 13.1194C13.0207 13.2176 12.9012 13.2667 12.7608 13.2667C12.6202 13.2667 12.501 13.2176 12.4031 13.1194C12.3053 13.0212 12.2564 12.9019 12.2564 12.7615V12.0667H3.74344ZM3.88844 7.58471H12.1114L11.2218 5.33471C11.2047 5.29193 11.179 5.25882 11.1448 5.23537C11.1106 5.21182 11.0699 5.20004 11.0229 5.20004H4.97694C4.92994 5.20004 4.88933 5.21182 4.85511 5.23537C4.82089 5.25882 4.79522 5.29193 4.77811 5.33471L3.88844 7.58471ZM5.17578 10.4975C5.36278 10.4975 5.52128 10.432 5.65128 10.301C5.78117 10.1702 5.84611 10.0112 5.84611 9.82421C5.84611 9.63721 5.78067 9.47871 5.64978 9.34871C5.51878 9.21882 5.35978 9.15387 5.17278 9.15387C4.98578 9.15387 4.82733 9.21932 4.69744 9.35021C4.56744 9.48121 4.50244 9.64021 4.50244 9.82721C4.50244 10.0142 4.56794 10.1727 4.69894 10.3025C4.82983 10.4325 4.98878 10.4975 5.17578 10.4975ZM10.8271 10.4975C11.0141 10.4975 11.1726 10.432 11.3024 10.301C11.4324 10.1702 11.4974 10.0112 11.4974 9.82421C11.4974 9.63721 11.4319 9.47871 11.3009 9.34871C11.1701 9.21882 11.0111 9.15387 10.8241 9.15387C10.6371 9.15387 10.4786 9.21932 10.3486 9.35021C10.2187 9.48121 10.1538 9.64021 10.1538 9.82721C10.1538 10.0142 10.2192 10.1727 10.3501 10.3025C10.4811 10.4325 10.6401 10.4975 10.8271 10.4975ZM3.59994 11.2H12.3999V8.45137H3.59994V11.2Z" fill="currentColor"/>
</svg>
