<svg width="16" height="16" viewBox="0 0 16 16" fill="none" xmlns="http://www.w3.org/2000/svg">
<path d="M8 7.79472C7.35644 7.79472 6.80667 7.56672 6.35067 7.11072C5.89467 6.65483 5.66667 6.10505 5.66667 5.46139C5.66667 4.81783 5.89467 4.26805 6.35067 3.81205C6.80667 3.35605 7.35644 3.12805 8 3.12805C8.64356 3.12805 9.19333 3.35605 9.64933 3.81205C10.1053 4.26805 10.3333 4.81783 10.3333 5.46139C10.3333 6.10505 10.1053 6.65483 9.64933 7.11072C9.19333 7.56672 8.64356 7.79472 8 7.79472ZM3 11.8589V11.3896C3 11.0631 3.08867 10.7608 3.266 10.4826C3.44333 10.2043 3.68033 9.99044 3.977 9.84089C4.63589 9.51789 5.30061 9.27561 5.97117 9.11405C6.64172 8.9525 7.318 8.87172 8 8.87172C8.682 8.87172 9.35828 8.9525 10.0288 9.11405C10.6994 9.27561 11.3641 9.51789 12.023 9.84089C12.3197 9.99044 12.5567 10.2043 12.734 10.4826C12.9113 10.7608 13 11.0631 13 11.3896V11.8589C13 12.14 12.9015 12.3791 12.7045 12.5762C12.5075 12.7732 12.2684 12.8717 11.9872 12.8717H4.01283C3.73161 12.8717 3.4925 12.7732 3.2955 12.5762C3.0985 12.3791 3 12.14 3 11.8589Z" fill="currentColor"/>
</svg>
