<svg width="16" height="16" viewBox="0 0 16 16" fill="none" xmlns="http://www.w3.org/2000/svg">
<path d="M4.23337 7.99994C4.23337 8.15039 4.24381 8.30294 4.2647 8.45761C4.2857 8.61239 4.31159 8.76155 4.34237 8.90511C4.36281 9.01367 4.34998 9.12433 4.30387 9.23711C4.25775 9.34989 4.17825 9.42339 4.06537 9.45761C3.95681 9.4875 3.84892 9.47594 3.7417 9.42294C3.63448 9.36994 3.56503 9.28922 3.53337 9.18078C3.47781 8.99611 3.43614 8.80483 3.40837 8.60694C3.38059 8.40917 3.3667 8.20683 3.3667 7.99994C3.3667 6.7025 3.82398 5.59761 4.73853 4.68528C5.65309 3.77283 6.77359 3.33328 8.10003 3.36661H8.50387L7.68853 2.55128C7.5962 2.45894 7.54898 2.35678 7.54687 2.24478C7.54475 2.13289 7.59198 2.02861 7.68853 1.93194C7.78509 1.83539 7.88826 1.78711 7.99803 1.78711C8.10792 1.78711 8.21114 1.83539 8.3077 1.93194L9.80387 3.42811C9.91331 3.53755 9.96803 3.6615 9.96803 3.79994C9.96803 3.93839 9.91331 4.06233 9.80387 4.17178L8.3077 5.66794C8.21537 5.76017 8.11603 5.80461 8.0097 5.80128C7.90325 5.79783 7.80175 5.74783 7.7052 5.65128C7.60864 5.55461 7.56037 5.45139 7.56037 5.34161C7.56037 5.23183 7.60864 5.12861 7.7052 5.03194L8.50387 4.23328H8.10003C7.00859 4.21105 6.09125 4.5715 5.34803 5.31461C4.60492 6.05783 4.23337 6.95294 4.23337 7.99994ZM11.7667 7.99994C11.7667 7.8495 11.7563 7.69694 11.7354 7.54228C11.7144 7.3875 11.6885 7.23833 11.6577 7.09478C11.6373 6.97511 11.6501 6.86167 11.6962 6.75444C11.7423 6.64722 11.8218 6.57094 11.9347 6.52561C12.0433 6.48461 12.1473 6.48783 12.2469 6.53528C12.3464 6.58272 12.412 6.66067 12.4435 6.76911C12.4991 6.96489 12.5446 7.1645 12.5802 7.36794C12.6156 7.57128 12.6334 7.78194 12.6334 7.99994C12.6334 9.28628 12.1761 10.3884 11.2615 11.3063C10.347 12.2243 9.22648 12.6666 7.90003 12.6333H7.4962L8.31153 13.4486C8.40387 13.5409 8.45109 13.6431 8.4532 13.7551C8.45531 13.867 8.40809 13.9713 8.31153 14.0679C8.21498 14.1645 8.11181 14.2128 8.00203 14.2128C7.89214 14.2128 7.78892 14.1645 7.69237 14.0679L6.1962 12.5718C6.08675 12.4623 6.03203 12.3384 6.03203 12.1999C6.03203 12.0615 6.08675 11.9376 6.1962 11.8281L7.69237 10.3319C7.7847 10.2397 7.88681 10.1925 7.9987 10.1903C8.1107 10.1882 8.21498 10.2354 8.31153 10.3319C8.40809 10.4286 8.45637 10.5318 8.45637 10.6416C8.45637 10.7514 8.40809 10.8546 8.31153 10.9513L7.4962 11.7666H7.90003C8.99148 11.7888 9.90881 11.4284 10.652 10.6853C11.3951 9.94205 11.7667 9.04694 11.7667 7.99994Z" fill="currentColor"/>
</svg>
