<svg width="16" height="16" viewBox="0 0 16 16" fill="none" xmlns="http://www.w3.org/2000/svg">
<path fill-rule="evenodd" clip-rule="evenodd" d="M3.9375 3.46875C3.9375 3.34443 3.88811 3.2252 3.80021 3.13729C3.7123 3.04939 3.59307 3 3.46875 3C3.34443 3 3.2252 3.04939 3.13729 3.13729C3.04939 3.2252 3 3.34443 3 3.46875V12.5312C3 12.6556 3.04939 12.7748 3.13729 12.8627C3.2252 12.9506 3.34443 13 3.46875 13C3.59307 13 3.7123 12.9506 3.80021 12.8627C3.88811 12.7748 3.9375 12.6556 3.9375 12.5312V3.46875ZM5.96875 3.625C5.84443 3.625 5.7252 3.67439 5.63729 3.76229C5.54939 3.8502 5.5 3.96943 5.5 4.09375C5.5 4.21807 5.54939 4.3373 5.63729 4.42521C5.7252 4.51311 5.84443 4.5625 5.96875 4.5625H11.2812C11.4056 4.5625 11.5248 4.51311 11.6127 4.42521C11.7006 4.3373 11.75 4.21807 11.75 4.09375C11.75 3.96943 11.7006 3.8502 11.6127 3.76229C11.5248 3.67439 11.4056 3.625 11.2812 3.625H5.96875ZM5.5 8.15625C5.5 8.03193 5.54939 7.9127 5.63729 7.82479C5.7252 7.73689 5.84443 7.6875 5.96875 7.6875H12.5312C12.6556 7.6875 12.7748 7.73689 12.8627 7.82479C12.9506 7.9127 13 8.03193 13 8.15625C13 8.28057 12.9506 8.3998 12.8627 8.48771C12.7748 8.57561 12.6556 8.625 12.5312 8.625H5.96875C5.84443 8.625 5.7252 8.57561 5.63729 8.48771C5.54939 8.3998 5.5 8.28057 5.5 8.15625ZM5.96875 11.4375C5.84443 11.4375 5.7252 11.4869 5.63729 11.5748C5.54939 11.6627 5.5 11.7819 5.5 11.9062C5.5 12.0306 5.54939 12.1498 5.63729 12.2377C5.7252 12.3256 5.84443 12.375 5.96875 12.375H10.6562C10.7806 12.375 10.8998 12.3256 10.9877 12.2377C11.0756 12.1498 11.125 12.0306 11.125 11.9062C11.125 11.7819 11.0756 11.6627 10.9877 11.5748C10.8998 11.4869 10.7806 11.4375 10.6562 11.4375H5.96875Z" fill="currentColor"/>
</svg>
