<svg width="20" height="20" viewBox="0 0 20 20" fill="none" xmlns="http://www.w3.org/2000/svg">
<path d="M9.99993 9.21157L6.60576 12.6059C6.49035 12.7212 6.34528 12.7803 6.17055 12.783C5.99597 12.7857 5.84826 12.7266 5.72743 12.6059C5.60673 12.4851 5.54639 12.3387 5.54639 12.1668C5.54639 11.9948 5.60673 11.8484 5.72743 11.7276L9.47264 7.9824C9.55069 7.90449 9.63298 7.84949 9.71951 7.8174C9.80604 7.78532 9.89951 7.76928 9.99993 7.76928C10.1003 7.76928 10.1938 7.78532 10.2803 7.8174C10.3669 7.84949 10.4492 7.90449 10.5272 7.9824L14.2724 11.7276C14.3877 11.843 14.4467 11.9881 14.4495 12.1628C14.4522 12.3374 14.3931 12.4851 14.2724 12.6059C14.1516 12.7266 14.0052 12.787 13.8333 12.787C13.6613 12.787 13.5149 12.7266 13.3941 12.6059L9.99993 9.21157Z" fill="currentColor"/>
</svg>
