<svg width="20" height="20" viewBox="0 0 20 20" fill="none" xmlns="http://www.w3.org/2000/svg">
<path d="M9.07687 17.9166C8.7927 17.9166 8.54729 17.8223 8.34062 17.6337C8.13381 17.4452 8.00798 17.2131 7.96312 16.9374L7.75958 15.378C7.53638 15.3033 7.3075 15.1987 7.07291 15.0641C6.83847 14.9294 6.62881 14.7851 6.44395 14.6314L5 15.2451C4.73819 15.3605 4.47513 15.3717 4.21083 15.2787C3.94638 15.1858 3.74097 15.017 3.59458 14.7724L2.65541 13.1441C2.50902 12.8995 2.46687 12.6407 2.52895 12.3676C2.5909 12.0947 2.73298 11.8696 2.9552 11.6922L4.20354 10.7547C4.18437 10.6308 4.17076 10.5064 4.1627 10.3814C4.15465 10.2564 4.15062 10.1319 4.15062 10.0078C4.15062 9.88936 4.15465 9.76895 4.1627 9.64658C4.17076 9.52422 4.18437 9.3904 4.20354 9.24513L2.9552 8.30763C2.73298 8.13027 2.59222 7.90374 2.53291 7.62804C2.47361 7.35249 2.51715 7.09235 2.66354 6.84763L3.59458 5.24346C3.74097 5.00415 3.94638 4.83672 4.21083 4.74117C4.47513 4.64547 4.73819 4.65534 5 4.77075L6.43583 5.37659C6.6368 5.21742 6.85131 5.07186 7.07937 4.93992C7.30743 4.80797 7.53152 4.70193 7.75166 4.62179L7.96312 3.06242C8.00798 2.78672 8.13381 2.55464 8.34062 2.36617C8.54729 2.17756 8.7927 2.08325 9.07687 2.08325H10.9231C11.2073 2.08325 11.4527 2.17756 11.6594 2.36617C11.8662 2.55464 11.992 2.78672 12.0369 3.06242L12.2404 4.62971C12.4904 4.72054 12.7166 4.82659 12.919 4.94784C13.1215 5.06909 13.3258 5.212 13.5321 5.37659L15.0081 4.77075C15.2698 4.65534 15.5328 4.64547 15.7973 4.74117C16.0617 4.83672 16.2671 5.00415 16.4133 5.24346L17.3446 6.85575C17.491 7.10034 17.5331 7.35915 17.471 7.63221C17.4091 7.90513 17.267 8.13027 17.0448 8.30763L15.7644 9.26908C15.7942 9.40367 15.8106 9.5295 15.8133 9.64658C15.816 9.76353 15.8173 9.88131 15.8173 9.99992C15.8173 10.1131 15.8146 10.2283 15.8092 10.3453C15.8039 10.4623 15.7847 10.5961 15.7517 10.7468L17.0079 11.6922C17.2301 11.8696 17.3736 12.0947 17.4383 12.3676C17.5029 12.6407 17.462 12.8995 17.3156 13.1441L16.3717 14.7643C16.2254 15.009 16.0187 15.1778 15.7517 15.2708C15.4846 15.3637 15.2201 15.3524 14.9583 15.237L13.5321 14.6233C13.3258 14.7878 13.1153 14.9334 12.9006 15.0599C12.6859 15.1866 12.4658 15.29 12.2404 15.3701L12.0369 16.9374C11.992 17.2131 11.8662 17.4452 11.6594 17.6337C11.4527 17.8223 11.2073 17.9166 10.9231 17.9166H9.07687ZM9.16666 16.6666H10.8046L11.1042 14.4343C11.5294 14.3232 11.9181 14.1653 12.27 13.9608C12.6221 13.756 12.9616 13.4929 13.2885 13.1714L15.359 14.0416L16.1796 12.6249L14.3719 11.2628C14.4413 11.047 14.4885 10.8354 14.5135 10.628C14.5387 10.4208 14.5512 10.2114 14.5512 9.99992C14.5512 9.78297 14.5387 9.5736 14.5135 9.37179C14.4885 9.16985 14.4413 8.9636 14.3719 8.75304L16.1954 7.37492L15.375 5.95825L13.2804 6.84117C13.0015 6.54311 12.6674 6.27978 12.2781 6.05117C11.8887 5.82256 11.4947 5.66068 11.0962 5.56554L10.8333 3.33325H9.17958L8.90375 5.55763C8.47861 5.65804 8.08604 5.81186 7.72604 6.01908C7.3659 6.22645 7.02236 6.49353 6.69541 6.82033L4.625 5.95825L3.80458 7.37492L5.60416 8.71617C5.53472 8.91395 5.48611 9.11964 5.45833 9.33325C5.43055 9.54686 5.41666 9.77172 5.41666 10.0078C5.41666 10.2248 5.43055 10.4374 5.45833 10.6458C5.48611 10.8541 5.53208 11.0598 5.59625 11.2628L3.80458 12.6249L4.625 14.0416L6.6875 13.1666C7.00375 13.4913 7.34187 13.7573 7.70187 13.9647C8.06201 14.1719 8.46 14.3311 8.89583 14.4422L9.16666 16.6666ZM10.0096 12.4999C10.7029 12.4999 11.2929 12.2566 11.7796 11.7699C12.2662 11.2833 12.5096 10.6933 12.5096 9.99992C12.5096 9.30658 12.2662 8.71658 11.7796 8.22992C11.2929 7.74325 10.7029 7.49992 10.0096 7.49992C9.30763 7.49992 8.71548 7.74325 8.23312 8.22992C7.75076 8.71658 7.50958 9.30658 7.50958 9.99992C7.50958 10.6933 7.75076 11.2833 8.23312 11.7699C8.71548 12.2566 9.30763 12.4999 10.0096 12.4999Z" fill="currentColor"/>
</svg>
