<svg width="16" height="16" viewBox="0 0 16 16" fill="none" xmlns="http://www.w3.org/2000/svg">
<path d="M2.87179 11.8974C2.53501 11.8974 2.24996 11.7808 2.01663 11.5474C1.78329 11.3141 1.66663 11.029 1.66663 10.6923V3.53842C1.66663 3.20164 1.78329 2.91659 2.01663 2.68325C2.24996 2.44992 2.53501 2.33325 2.87179 2.33325H7.64746C7.78935 2.33325 7.90813 2.38114 8.00379 2.47692C8.09957 2.57259 8.14746 2.69136 8.14746 2.83325C8.14746 2.97514 8.09957 3.09392 8.00379 3.18959C7.90813 3.28536 7.78935 3.33325 7.64746 3.33325H2.87179C2.82046 3.33325 2.77346 3.35464 2.73079 3.39742C2.68801 3.44008 2.66663 3.48709 2.66663 3.53842V10.6923C2.66663 10.7435 2.68801 10.7905 2.73079 10.8333C2.77346 10.876 2.82046 10.8974 2.87179 10.8974H13.1281C13.1795 10.8974 13.2265 10.876 13.2691 10.8333C13.3119 10.7905 13.3333 10.7435 13.3333 10.6923V9.16658C13.3333 9.0247 13.3812 8.90592 13.477 8.81025C13.5726 8.71447 13.6914 8.66658 13.8333 8.66658C13.9752 8.66658 14.094 8.71447 14.1896 8.81025C14.2854 8.90592 14.3333 9.0247 14.3333 9.16658V10.6923C14.3333 11.029 14.2166 11.3141 13.9833 11.5474C13.75 11.7808 13.4649 11.8974 13.1281 11.8974H11.0128L11.4218 12.3063C11.4841 12.3687 11.5298 12.4363 11.559 12.5089C11.588 12.5816 11.6025 12.6581 11.6025 12.7384V13.0639C11.6025 13.2358 11.545 13.3792 11.4301 13.4941C11.3151 13.6091 11.1717 13.6666 11 13.6666H4.99996C4.82818 13.6666 4.68479 13.6091 4.56979 13.4941C4.4549 13.3792 4.39746 13.2358 4.39746 13.0639V12.7384C4.39746 12.6581 4.41196 12.5816 4.44096 12.5089C4.47007 12.4363 4.51579 12.3687 4.57813 12.3063L4.98713 11.8974H2.87179ZM9.73713 7.85375V2.83325C9.73713 2.69136 9.78502 2.57259 9.88079 2.47692C9.97646 2.38114 10.0952 2.33325 10.2371 2.33325C10.379 2.33325 10.4978 2.38114 10.5936 2.47692C10.6893 2.57259 10.7371 2.69136 10.7371 2.83325V7.85375L12.2795 6.31525C12.3718 6.2187 12.4861 6.1687 12.6225 6.16525C12.7588 6.16192 12.8786 6.21192 12.982 6.31525C13.0786 6.41192 13.127 6.52903 13.127 6.66658C13.127 6.80414 13.0786 6.92125 12.982 7.01792L10.2371 9.76275L7.49229 7.01792C7.39996 6.92559 7.35102 6.81125 7.34546 6.67492C7.3399 6.53859 7.38885 6.4187 7.49229 6.31525C7.58885 6.2187 7.70596 6.17042 7.84363 6.17042C7.98118 6.17042 8.09824 6.2187 8.19479 6.31525L9.73713 7.85375Z" fill="currentColor"/>
</svg>
