<svg width="16" height="16" viewBox="0 0 16 16" fill="none" xmlns="http://www.w3.org/2000/svg">
<path d="M11.3334 5.36913L4.05388 12.6486C3.96154 12.741 3.84554 12.7882 3.70588 12.7903C3.5661 12.7924 3.44793 12.7452 3.35138 12.6486C3.25482 12.5521 3.20654 12.435 3.20654 12.2975C3.20654 12.1598 3.25482 12.0427 3.35138 11.9461L10.6309 4.66663H6.50004C6.35838 4.66663 6.2396 4.61868 6.14371 4.52279C6.04793 4.4269 6.00004 4.30813 6.00004 4.16646C6.00004 4.02468 6.04793 3.90596 6.14371 3.81029C6.2396 3.71451 6.35838 3.66663 6.50004 3.66663H11.7307C11.9015 3.66663 12.0446 3.7244 12.16 3.83996C12.2756 3.9554 12.3334 4.09851 12.3334 4.26929V9.49996C12.3334 9.64163 12.2854 9.7604 12.1895 9.85629C12.0937 9.95207 11.9749 9.99996 11.8332 9.99996C11.6914 9.99996 11.5727 9.95207 11.477 9.85629C11.3813 9.7604 11.3334 9.64163 11.3334 9.49996V5.36913Z" fill="currentColor"/>
</svg>
