<svg width="20" height="20" viewBox="0 0 20 20" fill="none" xmlns="http://www.w3.org/2000/svg">
<path d="M7.54813 14.5833C7.12715 14.5833 6.77083 14.4374 6.47917 14.1458C6.1875 13.8541 6.04167 13.4978 6.04167 13.0768V3.58971C6.04167 3.16874 6.1875 2.81242 6.47917 2.52075C6.77083 2.22909 7.12715 2.08325 7.54813 2.08325H14.5352C14.9562 2.08325 15.3125 2.22909 15.6042 2.52075C15.8958 2.81242 16.0417 3.16874 16.0417 3.58971V13.0768C16.0417 13.4978 15.8958 13.8541 15.6042 14.1458C15.3125 14.4374 14.9562 14.5833 14.5352 14.5833H7.54813ZM7.54813 13.3333H14.5352C14.5994 13.3333 14.6581 13.3065 14.7115 13.253C14.7649 13.1997 14.7917 13.141 14.7917 13.0768V3.58971C14.7917 3.52554 14.7649 3.46679 14.7115 3.41346C14.6581 3.35999 14.5994 3.33325 14.5352 3.33325H7.54813C7.48396 3.33325 7.42521 3.35999 7.37188 3.41346C7.3184 3.46679 7.29167 3.52554 7.29167 3.58971V13.0768C7.29167 13.141 7.3184 13.1997 7.37188 13.253C7.42521 13.3065 7.48396 13.3333 7.54813 13.3333ZM4.63146 17.4999C4.21049 17.4999 3.85417 17.3541 3.5625 17.0624C3.27083 16.7708 3.125 16.4144 3.125 15.9935V5.88138C3.125 5.70402 3.18486 5.55547 3.30458 5.43575C3.42417 5.31617 3.57264 5.25638 3.75 5.25638C3.92736 5.25638 4.0759 5.31617 4.19563 5.43575C4.31521 5.55547 4.375 5.70402 4.375 5.88138V15.9935C4.375 16.0576 4.40174 16.1164 4.45521 16.1697C4.50854 16.2232 4.56729 16.2499 4.63146 16.2499H12.2435C12.4209 16.2499 12.5694 16.3097 12.6892 16.4293C12.8088 16.549 12.8685 16.6976 12.8685 16.8749C12.8685 17.0523 12.8088 17.2008 12.6892 17.3203C12.5694 17.4401 12.4209 17.4999 12.2435 17.4999H4.63146Z" fill="currentColor"/>
</svg>
