<svg width="20" height="20" viewBox="0 0 20 20" fill="none" xmlns="http://www.w3.org/2000/svg">
<path d="M4.62507 13.9583V8.12499C4.62507 7.97152 4.6766 7.84284 4.77965 7.73895C4.88271 7.6352 5.01035 7.58332 5.16257 7.58332C5.31493 7.58332 5.44403 7.6352 5.54986 7.73895C5.65556 7.84284 5.70841 7.97152 5.70841 8.12499V13.9583C5.70841 14.1118 5.65688 14.2405 5.55382 14.3444C5.45077 14.4481 5.32313 14.5 5.17091 14.5C5.01854 14.5 4.88952 14.4481 4.78382 14.3444C4.67799 14.2405 4.62507 14.1118 4.62507 13.9583ZM9.45841 13.9583V8.12499C9.45841 7.97152 9.50993 7.84284 9.61299 7.73895C9.71604 7.6352 9.84368 7.58332 9.9959 7.58332C10.1483 7.58332 10.2773 7.6352 10.383 7.73895C10.4888 7.84284 10.5417 7.97152 10.5417 8.12499V13.9583C10.5417 14.1118 10.4902 14.2405 10.3872 14.3444C10.2841 14.4481 10.1565 14.5 10.0042 14.5C9.85188 14.5 9.72285 14.4481 9.61716 14.3444C9.51132 14.2405 9.45841 14.1118 9.45841 13.9583ZM3.18278 16.5833C3.02931 16.5833 2.9007 16.5318 2.79695 16.4287C2.69306 16.3257 2.64111 16.198 2.64111 16.0458C2.64111 15.8935 2.69306 15.7644 2.79695 15.6587C2.9007 15.5529 3.02931 15.5 3.18278 15.5H16.8174C16.9708 15.5 17.0994 15.5515 17.2032 15.6546C17.3071 15.7576 17.359 15.8853 17.359 16.0375C17.359 16.1899 17.3071 16.3189 17.2032 16.4246C17.0994 16.5304 16.9708 16.5833 16.8174 16.5833H3.18278ZM14.2917 13.9583V8.12499C14.2917 7.97152 14.3433 7.84284 14.4463 7.73895C14.5494 7.6352 14.677 7.58332 14.8292 7.58332C14.9816 7.58332 15.1106 7.6352 15.2163 7.73895C15.3222 7.84284 15.3751 7.97152 15.3751 8.12499V13.9583C15.3751 14.1118 15.3235 14.2405 15.2205 14.3444C15.1174 14.4481 14.9898 14.5 14.8376 14.5C14.6852 14.5 14.5561 14.4481 14.4503 14.3444C14.3446 14.2405 14.2917 14.1118 14.2917 13.9583ZM16.5994 6.58332H3.3207C3.13195 6.58332 2.97146 6.5177 2.83924 6.38645C2.70715 6.2552 2.64111 6.09589 2.64111 5.90853V5.49603C2.64111 5.37367 2.67521 5.25235 2.7434 5.13207C2.81174 5.01193 2.90424 4.92728 3.02091 4.87812L9.42153 1.74999C9.60334 1.64957 9.79584 1.59937 9.99903 1.59937C10.2022 1.59937 10.3954 1.64957 10.5786 1.74999L16.9455 4.85728C17.0641 4.92464 17.1626 5.0168 17.2411 5.13374C17.3197 5.25082 17.359 5.38214 17.359 5.5277V5.82582C17.359 6.0436 17.2872 6.2243 17.1436 6.36791C17 6.51152 16.8186 6.58332 16.5994 6.58332ZM4.24195 5.49999H15.7582L10.1124 2.73561C10.0749 2.7195 10.0374 2.71145 10.0001 2.71145C9.96271 2.71145 9.92528 2.7195 9.88778 2.73561L4.24195 5.49999Z" fill="currentColor"/>
</svg>
