<svg width="20" height="20" viewBox="0 0 20 20" fill="none" xmlns="http://www.w3.org/2000/svg">
<path d="M12.3974 7.18582C12.7361 7.52457 12.9978 7.93617 13.1826 8.42062C13.3675 8.9052 13.4374 9.39159 13.3924 9.87978C13.3924 10.0401 13.3348 10.1758 13.2195 10.2869C13.1041 10.398 12.9663 10.4535 12.806 10.4535C12.6457 10.4535 12.51 10.398 12.3989 10.2869C12.2878 10.1758 12.2322 10.0401 12.2322 9.87978C12.2857 9.51339 12.2556 9.16617 12.1418 8.83811C12.0281 8.5102 11.8531 8.22818 11.617 7.99207C11.3809 7.75596 11.0962 7.57673 10.7629 7.45436C10.4295 7.332 10.078 7.3002 9.70827 7.35895C9.548 7.36436 9.40966 7.31068 9.29327 7.19791C9.17674 7.08527 9.11584 6.94881 9.11056 6.78853C9.10515 6.62825 9.15668 6.48985 9.26515 6.37332C9.37362 6.25693 9.50799 6.1961 9.66827 6.19082C10.1533 6.13527 10.6407 6.19853 11.1306 6.38062C11.6204 6.56284 12.0427 6.83124 12.3974 7.18582ZM9.99994 4.99999C9.70397 4.99999 9.41362 5.01443 9.1289 5.04332C8.84418 5.07207 8.56077 5.11957 8.27869 5.18582C8.10133 5.22221 7.94161 5.19687 7.79952 5.10978C7.65744 5.0227 7.55973 4.89742 7.5064 4.73395C7.45293 4.5652 7.47056 4.40471 7.55931 4.25249C7.64793 4.10027 7.77661 4.00596 7.94536 3.96957C8.28091 3.88943 8.61987 3.83284 8.96223 3.79978C9.30473 3.76659 9.65063 3.74999 9.99994 3.74999C11.7905 3.74999 13.4353 4.21527 14.9343 5.14582C16.4332 6.07638 17.5859 7.33548 18.3924 8.92311C18.448 9.02881 18.4883 9.13534 18.5135 9.2427C18.5386 9.35006 18.5512 9.4636 18.5512 9.58332C18.5512 9.70305 18.5408 9.81659 18.5199 9.92395C18.4991 10.0313 18.4609 10.1378 18.4054 10.2435C18.1501 10.7777 17.8397 11.2758 17.4743 11.7379C17.1089 12.2 16.7066 12.6244 16.2674 13.0112C16.1383 13.1267 15.9906 13.1744 15.8245 13.1546C15.6583 13.1349 15.5217 13.0518 15.4149 12.9054C15.3081 12.759 15.2638 12.602 15.282 12.4344C15.3002 12.2666 15.3739 12.125 15.5031 12.0096C15.8792 11.6687 16.2222 11.2962 16.532 10.8919C16.8419 10.4874 17.109 10.0512 17.3333 9.58332C16.6388 8.18055 15.6354 7.06596 14.3229 6.23957C13.0104 5.41318 11.5694 4.99999 9.99994 4.99999ZM9.99994 15.4167C8.24563 15.4167 6.63772 14.9479 5.17619 14.0104C3.71466 13.0729 2.55286 11.8381 1.69077 10.306C1.62133 10.2003 1.57056 10.0855 1.53848 9.96145C1.5064 9.83756 1.49036 9.71152 1.49036 9.58332C1.49036 9.45513 1.50425 9.33117 1.53202 9.21145C1.5598 9.09187 1.60841 8.97492 1.67786 8.86061C1.98772 8.29436 2.33869 7.75506 2.73077 7.2427C3.12286 6.73048 3.57369 6.27138 4.08327 5.86541L2.20181 3.97103C2.08654 3.84714 2.02966 3.69999 2.03119 3.52957C2.03286 3.35916 2.09404 3.2136 2.21473 3.09291C2.33543 2.97221 2.48181 2.91187 2.6539 2.91187C2.82584 2.91187 2.97216 2.97221 3.09286 3.09291L16.907 16.9071C17.0224 17.0225 17.0836 17.1653 17.0906 17.3356C17.0975 17.506 17.0363 17.6559 16.907 17.7852C16.7863 17.9059 16.6399 17.9662 16.4679 17.9662C16.2959 17.9662 16.1496 17.9059 16.0289 17.7852L13.0962 14.8781C12.6047 15.0683 12.0995 15.2055 11.5808 15.29C11.0622 15.3744 10.5352 15.4167 9.99994 15.4167ZM4.96161 6.74353C4.47327 7.12075 4.03438 7.54728 3.64494 8.02311C3.2555 8.49909 2.92938 9.01916 2.66661 9.58332C3.36105 10.9861 4.36452 12.1007 5.67702 12.9271C6.98952 13.7535 8.4305 14.1667 9.99994 14.1667C10.3579 14.1667 10.7101 14.1426 11.0568 14.0946C11.4035 14.0465 11.7478 13.9723 12.0897 13.8719L11.0351 12.7917C10.8664 12.8654 10.6979 12.9153 10.5295 12.9414C10.3613 12.9677 10.1848 12.9808 9.99994 12.9808C9.05438 12.9808 8.25175 12.651 7.59202 11.9912C6.9323 11.3315 6.60244 10.5289 6.60244 9.58332C6.60244 9.39846 6.61688 9.22193 6.64577 9.05374C6.67466 8.88541 6.72327 8.71687 6.79161 8.54811L4.96161 6.74353Z" fill="currentColor"/>
</svg>
