<svg width="16" height="16" viewBox="0 0 16 16" fill="none" xmlns="http://www.w3.org/2000/svg">
<path d="M6.6705 7.99992L3.81534 5.15125C3.72311 5.05892 3.677 4.9557 3.677 4.84159C3.677 4.72747 3.72311 4.62425 3.81534 4.53192C3.912 4.43536 4.01522 4.38708 4.125 4.38708C4.23478 4.38708 4.338 4.43536 4.43467 4.53192L7.53084 7.62809C7.58206 7.67942 7.6205 7.73692 7.64617 7.80059C7.67184 7.86425 7.68467 7.9307 7.68467 7.99992C7.68467 8.06914 7.67184 8.13559 7.64617 8.19925C7.6205 8.26292 7.58206 8.32042 7.53084 8.37175L4.43467 11.4679C4.34234 11.5601 4.24189 11.6035 4.13334 11.5979C4.02478 11.5924 3.92434 11.5435 3.832 11.4513C3.73545 11.3546 3.68717 11.2514 3.68717 11.1416C3.68717 11.0318 3.73545 10.9286 3.832 10.8319L6.6705 7.99992ZM11.2538 7.99992L8.39867 5.15125C8.30645 5.05892 8.26034 4.9557 8.26034 4.84159C8.26034 4.72747 8.30645 4.62425 8.39867 4.53192C8.49534 4.43536 8.59856 4.38708 8.70834 4.38708C8.81811 4.38708 8.92134 4.43536 9.018 4.53192L12.114 7.62809C12.1653 7.67942 12.2038 7.73692 12.2295 7.80059C12.2552 7.86425 12.268 7.9307 12.268 7.99992C12.268 8.06914 12.2552 8.13559 12.2295 8.19925C12.2038 8.26292 12.1653 8.32042 12.114 8.37175L9.018 11.4679C8.92567 11.5601 8.82522 11.6035 8.71667 11.5979C8.60811 11.5924 8.50767 11.5435 8.41534 11.4513C8.31878 11.3546 8.2705 11.2514 8.2705 11.1416C8.2705 11.0318 8.31878 10.9286 8.41534 10.8319L11.2538 7.99992Z" fill="currentColor"/>
</svg>
