<svg width="20" height="20" viewBox="0 0 20 20" fill="none" xmlns="http://www.w3.org/2000/svg">
<path d="M7.74913 14.7917H12.2441C12.3976 14.7917 12.5272 14.7402 12.6329 14.6373C12.7387 14.5345 12.7916 14.4069 12.7916 14.2544C12.7916 14.1019 12.7399 13.9728 12.6364 13.8671C12.5328 13.7613 12.4043 13.7084 12.2508 13.7084H7.75579C7.60232 13.7084 7.47274 13.7598 7.36704 13.8627C7.26121 13.9655 7.20829 14.0931 7.20829 14.2456C7.20829 14.3981 7.26003 14.5272 7.3635 14.6329C7.46711 14.7388 7.59565 14.7917 7.74913 14.7917ZM7.74913 11.7917H12.2441C12.3976 11.7917 12.5272 11.7402 12.6329 11.6373C12.7387 11.5345 12.7916 11.4069 12.7916 11.2544C12.7916 11.1019 12.7399 10.9728 12.6364 10.8671C12.5328 10.7613 12.4043 10.7084 12.2508 10.7084H7.75579C7.60232 10.7084 7.47274 10.7598 7.36704 10.8627C7.26121 10.9655 7.20829 11.0931 7.20829 11.2456C7.20829 11.3981 7.26003 11.5272 7.3635 11.6329C7.46711 11.7388 7.59565 11.7917 7.74913 11.7917ZM5.75058 17.5834C5.37517 17.5834 5.05899 17.4538 4.80204 17.1948C4.5451 16.9358 4.41663 16.6187 4.41663 16.2436V3.75648C4.41663 3.38134 4.54614 3.06426 4.80517 2.80523C5.0642 2.5462 5.38128 2.41669 5.75642 2.41669H11.6475C11.8236 2.41669 11.9932 2.44877 12.1562 2.51294C12.3191 2.57696 12.469 2.67738 12.6058 2.81419L15.1858 5.39419C15.3226 5.53099 15.423 5.68085 15.487 5.84377C15.5512 6.00683 15.5833 6.17641 15.5833 6.35252V16.2436C15.5833 16.6187 15.4537 16.9358 15.1945 17.1948C14.9354 17.4538 14.6181 17.5834 14.2427 17.5834H5.75058ZM11.4166 5.91335V3.50002H5.75642C5.69225 3.50002 5.6335 3.52676 5.58017 3.58023C5.5267 3.63356 5.49996 3.69231 5.49996 3.75648V16.2436C5.49996 16.3077 5.5267 16.3665 5.58017 16.4198C5.6335 16.4733 5.69225 16.5 5.75642 16.5H14.2435C14.3077 16.5 14.3664 16.4733 14.4198 16.4198C14.4732 16.3665 14.5 16.3077 14.5 16.2436V6.58335H12.0866C11.8954 6.58335 11.7359 6.51946 11.6083 6.39169C11.4805 6.26405 11.4166 6.1046 11.4166 5.91335Z" fill="currentColor"/>
</svg>
