<svg width="16" height="16" viewBox="0 0 16 16" fill="none" xmlns="http://www.w3.org/2000/svg">
<path d="M7.99996 13.673C7.84696 13.673 7.69802 13.6444 7.55313 13.5872C7.40824 13.53 7.28068 13.4441 7.17046 13.3295L2.83196 8.97434C2.44307 8.58546 2.15163 8.14423 1.95763 7.65068C1.76363 7.15701 1.66663 6.64651 1.66663 6.11918C1.66663 5.06885 2.00251 4.17101 2.67429 3.42568C3.34607 2.68034 4.17768 2.30768 5.16913 2.30768C5.66402 2.30768 6.13474 2.4079 6.58129 2.60834C7.02796 2.80879 7.42607 3.08934 7.77563 3.45001L7.99996 3.68718L8.21146 3.46284C8.55846 3.09362 8.95635 2.80879 9.40513 2.60834C9.85379 2.4079 10.3235 2.30768 10.8141 2.30768C11.8056 2.30768 12.64 2.68034 13.3173 3.42568C13.9946 4.17101 14.3333 5.06329 14.3333 6.10251C14.3333 6.63418 14.2346 7.14679 14.0371 7.64035C13.8397 8.13401 13.55 8.57529 13.168 8.96418L8.81279 13.3295C8.69824 13.4441 8.57235 13.53 8.43513 13.5872C8.29802 13.6444 8.15296 13.673 7.99996 13.673ZM8.66663 5.50001C8.75207 5.50001 8.83196 5.52029 8.90629 5.56085C8.98074 5.60151 9.03929 5.65562 9.08196 5.72318L10.2601 7.50001H13.0013C13.1175 7.2769 13.2047 7.04784 13.2628 6.81285C13.3209 6.57785 13.3478 6.34107 13.3436 6.10251C13.3256 5.33584 13.0765 4.68179 12.5961 4.14034C12.1158 3.5989 11.5218 3.32818 10.8141 3.32818C10.4611 3.32818 10.1198 3.39807 9.79029 3.53784C9.46085 3.67762 9.17518 3.88168 8.93329 4.15001L8.40629 4.71668C8.35507 4.77912 8.29357 4.82551 8.22179 4.85584C8.15002 4.88618 8.07607 4.90135 7.99996 4.90135C7.92385 4.90135 7.84885 4.88507 7.77496 4.85251C7.70107 4.82007 7.63507 4.77479 7.57696 4.71668L7.04996 4.15001C6.80807 3.88168 6.52407 3.67418 6.19796 3.52751C5.87196 3.38096 5.52902 3.30768 5.16913 3.30768C4.46146 3.30768 3.86746 3.58184 3.38713 4.13018C2.90679 4.6784 2.66663 5.33584 2.66663 6.10251C2.66663 6.34529 2.69396 6.58312 2.74863 6.81601C2.8034 7.0489 2.88674 7.2769 2.99863 7.50001H5.99996C6.0854 7.50001 6.16424 7.52029 6.23646 7.56084C6.30868 7.60151 6.36618 7.65562 6.40896 7.72318L7.18463 8.87818L8.19363 5.85135C8.22952 5.7479 8.28974 5.66351 8.37429 5.59818C8.45896 5.53273 8.5564 5.50001 8.66663 5.50001ZM8.81529 7.12184L7.80629 10.1487C7.7704 10.2521 7.7074 10.3365 7.61729 10.4018C7.52707 10.4673 7.42685 10.5 7.31663 10.5C7.23118 10.5 7.15235 10.4797 7.08013 10.4392C7.0079 10.3985 6.9504 10.3444 6.90763 10.2768L5.72313 8.50001H3.77296L7.88329 12.6167C7.90552 12.6389 7.92496 12.6528 7.94163 12.6583C7.95829 12.6639 7.97774 12.6667 7.99996 12.6667C8.02218 12.6667 8.04163 12.6639 8.05829 12.6583C8.07496 12.6528 8.0944 12.6389 8.11663 12.6167L12.2166 8.50001H9.99996C9.91452 8.50001 9.83463 8.47862 9.76029 8.43584C9.68585 8.39318 9.62385 8.33807 9.57429 8.27051L8.81529 7.12184Z" fill="currentColor"/>
</svg>
