<svg width="16" height="16" viewBox="0 0 16 16" fill="none" xmlns="http://www.w3.org/2000/svg">
<path d="M3.59994 12.4064C4.21105 11.9064 4.89717 11.5287 5.65828 11.2731C6.41939 11.0176 7.19994 10.8898 7.99994 10.8898C8.79994 10.8898 9.5805 11.0148 10.3416 11.2648C11.1027 11.5148 11.7888 11.8953 12.3999 12.4064V4.60511C12.3999 4.55378 12.3786 4.50678 12.3358 4.46411C12.2931 4.42133 12.2461 4.39995 12.1948 4.39995H3.80511C3.75378 4.39995 3.70678 4.42133 3.66411 4.46411C3.62133 4.50678 3.59994 4.55378 3.59994 4.60511V12.4064ZM7.99594 9.83328C7.37472 9.83328 6.84783 9.61567 6.41528 9.18045C5.98283 8.74533 5.76661 8.21717 5.76661 7.59595C5.76661 6.97472 5.98422 6.44783 6.41944 6.01528C6.85455 5.58283 7.38272 5.36661 8.00394 5.36661C8.62517 5.36661 9.15205 5.58422 9.58461 6.01944C10.0171 6.45456 10.2333 6.98272 10.2333 7.60395C10.2333 8.22517 10.0157 8.75206 9.58044 9.18461C9.14533 9.61706 8.61717 9.83328 7.99594 9.83328ZM3.80511 14.0666C3.51278 14.0666 3.26105 13.9611 3.04994 13.7499C2.83883 13.5388 2.73328 13.2871 2.73328 12.9948V4.60511C2.73328 4.31278 2.83883 4.06106 3.04994 3.84995C3.26105 3.63883 3.51278 3.53328 3.80511 3.53328H5.26144V2.30245C5.26144 2.17522 5.30367 2.06906 5.38811 1.98394C5.47255 1.89894 5.57789 1.85645 5.70411 1.85645C5.83044 1.85645 5.93694 1.89894 6.02361 1.98394C6.11039 2.06906 6.15378 2.17522 6.15378 2.30245V3.53328H9.87178V2.28978C9.87178 2.16678 9.91289 2.06378 9.99511 1.98078C10.0774 1.89789 10.1796 1.85645 10.3016 1.85645C10.4236 1.85645 10.5269 1.89789 10.6114 1.98078C10.6961 2.06378 10.7384 2.16678 10.7384 2.28978V3.53328H12.1948C12.4949 3.53328 12.7486 3.63883 12.9558 3.84995C13.163 4.06106 13.2666 4.31278 13.2666 4.60511V12.9948C13.2666 13.2871 13.163 13.5388 12.9558 13.7499C12.7486 13.9611 12.4949 14.0666 12.1948 14.0666H3.80511Z" fill="currentColor"/>
</svg>
