<svg width="24" height="24" viewBox="0 0 24 24" fill="none" xmlns="http://www.w3.org/2000/svg">
<path d="M5.30775 20.5C4.80258 20.5 4.375 20.325 4.025 19.975C3.675 19.625 3.5 19.1974 3.5 18.6923V5.30775C3.5 4.80258 3.675 4.375 4.025 4.025C4.375 3.675 4.80258 3.5 5.30775 3.5H18.6923C19.1974 3.5 19.625 3.675 19.975 4.025C20.325 4.375 20.5 4.80258 20.5 5.30775V18.6923C20.5 19.1974 20.325 19.625 19.975 19.975C19.625 20.325 19.1974 20.5 18.6923 20.5H5.30775ZM5 8.6615H19V5.30775C19 5.23075 18.9679 5.16025 18.9038 5.09625C18.8398 5.03208 18.7693 5 18.6923 5H5.30775C5.23075 5 5.16025 5.03208 5.09625 5.09625C5.03208 5.16025 5 5.23075 5 5.30775V8.6615ZM5 13.8385H19V10.1615H5V13.8385ZM5.30775 19H18.6923C18.7693 19 18.8398 18.9679 18.9038 18.9038C18.9679 18.8398 19 18.7693 19 18.6923V15.3385H5V18.6923C5 18.7693 5.03208 18.8398 5.09625 18.9038C5.16025 18.9679 5.23075 19 5.30775 19ZM7.28675 7.727C7.03025 7.727 6.81575 7.64017 6.64325 7.4665C6.47092 7.293 6.38475 7.078 6.38475 6.8215C6.38475 6.56483 6.4715 6.35033 6.645 6.178C6.8185 6.0055 7.03358 5.91925 7.29025 5.91925C7.54675 5.91925 7.76125 6.006 7.93375 6.1795C8.10608 6.35317 8.19225 6.56825 8.19225 6.82475C8.19225 7.08142 8.1055 7.29592 7.932 7.46825C7.7585 7.64075 7.54342 7.727 7.28675 7.727ZM7.28675 12.9037C7.03025 12.9037 6.81575 12.817 6.64325 12.6435C6.47092 12.47 6.38475 12.2549 6.38475 11.9982C6.38475 11.7417 6.4715 11.5273 6.645 11.3548C6.8185 11.1824 7.03358 11.0962 7.29025 11.0962C7.54675 11.0962 7.76125 11.183 7.93375 11.3565C8.10608 11.53 8.19225 11.7451 8.19225 12.0018C8.19225 12.2583 8.1055 12.4728 7.932 12.6453C7.7585 12.8176 7.54342 12.9037 7.28675 12.9037ZM7.28675 18.0807C7.03025 18.0807 6.81575 17.994 6.64325 17.8205C6.47092 17.6468 6.38475 17.4318 6.38475 17.1753C6.38475 16.9186 6.4715 16.7041 6.645 16.5318C6.8185 16.3593 7.03358 16.273 7.29025 16.273C7.54675 16.273 7.76125 16.3598 7.93375 16.5335C8.10608 16.707 8.19225 16.922 8.19225 17.1785C8.19225 17.4352 8.1055 17.6497 7.932 17.822C7.7585 17.9945 7.54342 18.0807 7.28675 18.0807Z" fill="currentColor"/>
</svg>
