<svg width="16" height="16" viewBox="0 0 16 16" fill="none" xmlns="http://www.w3.org/2000/svg">
<path d="M7.3692 13.0712C7.56575 13.1917 7.77559 13.2502 7.9987 13.2469C8.22181 13.2434 8.43164 13.1814 8.6282 13.0609L11.5717 11.2622C11.0376 10.9032 10.4678 10.6308 9.8622 10.4449C9.25664 10.259 8.63548 10.1661 7.9987 10.1661C7.36192 10.1661 6.73909 10.2601 6.1302 10.4481C5.5212 10.6362 4.94403 10.9041 4.3987 11.2519L7.3692 13.0712ZM7.9987 8.49939C8.60036 8.49939 9.11192 8.28872 9.53336 7.86739C9.9547 7.44595 10.1654 6.93439 10.1654 6.33272C10.1654 5.73106 9.9547 5.2195 9.53336 4.79806C9.11192 4.37672 8.60036 4.16606 7.9987 4.16606C7.39703 4.16606 6.88548 4.37672 6.46403 4.79806C6.0427 5.2195 5.83203 5.73106 5.83203 6.33272C5.83203 6.93439 6.0427 7.44595 6.46403 7.86739C6.88548 8.28872 7.39703 8.49939 7.9987 8.49939ZM7.3692 14.2301L2.9077 11.4981C2.72481 11.3887 2.58314 11.2426 2.4827 11.0596C2.38225 10.8767 2.33203 10.6793 2.33203 10.4674V5.53139C2.33203 5.3195 2.38225 5.12211 2.4827 4.93922C2.58314 4.75622 2.72481 4.61006 2.9077 4.50072L7.3692 1.76872C7.56575 1.64817 7.77559 1.58789 7.9987 1.58789C8.22181 1.58789 8.43164 1.64817 8.6282 1.76872L13.0897 4.50072C13.2726 4.61006 13.4143 4.75622 13.5147 4.93922C13.6151 5.12211 13.6654 5.3195 13.6654 5.53139V10.4674C13.6654 10.6793 13.6151 10.8767 13.5147 11.0596C13.4143 11.2426 13.2726 11.3887 13.0897 11.4981L8.6282 14.2301C8.43164 14.3506 8.22181 14.4109 7.9987 14.4109C7.77559 14.4109 7.56575 14.3506 7.3692 14.2301Z" fill="currentColor"/>
</svg>
