<svg width="16" height="16" viewBox="0 0 16 16" fill="none" xmlns="http://www.w3.org/2000/svg">
<path d="M8.00568 14.0667C7.17113 14.0667 6.38513 13.9088 5.64768 13.593C4.91024 13.2772 4.26479 12.8427 3.71135 12.2895C3.1579 11.7363 2.72318 11.0913 2.40718 10.3547C2.09129 9.61813 1.93335 8.83107 1.93335 7.99352C1.93335 7.15596 2.09124 6.37124 2.40702 5.63935C2.72279 4.90746 3.15729 4.26479 3.71052 3.71135C4.26374 3.1579 4.90868 2.72318 5.64535 2.40718C6.38191 2.09129 7.16896 1.93335 8.00652 1.93335C8.84407 1.93335 9.62879 2.09124 10.3607 2.40702C11.0926 2.72279 11.7352 3.15729 12.2887 3.71052C12.8421 4.26374 13.2768 4.90735 13.5928 5.64135C13.9087 6.37546 14.0667 7.15979 14.0667 7.99435C14.0667 8.8289 13.9088 9.6149 13.593 10.3523C13.2772 11.0898 12.8427 11.7352 12.2895 12.2887C11.7363 12.8421 11.0927 13.2768 10.3587 13.5928C9.62457 13.9087 8.84024 14.0667 8.00568 14.0667ZM6.20368 8.43335C6.76957 8.43335 7.24935 8.23529 7.64302 7.83918C8.03657 7.44318 8.23335 6.96224 8.23335 6.39635C8.23335 5.83046 8.03529 5.35068 7.63918 4.95702C7.24318 4.56346 6.76224 4.36668 6.19635 4.36668C5.63046 4.36668 5.15068 4.56474 4.75702 4.96085C4.36346 5.35685 4.16668 5.83779 4.16668 6.40368C4.16668 6.96957 4.36474 7.44935 4.76085 7.84302C5.15685 8.23657 5.63779 8.43335 6.20368 8.43335ZM10.7962 9.16152C11.2324 9.16152 11.6023 9.01096 11.906 8.70985C12.2097 8.40863 12.3615 8.03996 12.3615 7.60385C12.3615 7.16763 12.211 6.79768 11.9098 6.49402C11.6086 6.19035 11.24 6.03852 10.8038 6.03852C10.3676 6.03852 9.99768 6.18907 9.69402 6.49018C9.39035 6.7914 9.23852 7.16007 9.23852 7.59618C9.23852 8.0324 9.38907 8.40235 9.69018 8.70602C9.9914 9.00968 10.3601 9.16152 10.7962 9.16152ZM8.00002 13.2C8.89268 13.2 9.70996 12.9943 10.4518 12.5828C11.1937 12.1713 11.8034 11.6206 12.2808 10.9308C12.0492 10.8017 11.8087 10.7088 11.5595 10.652C11.3103 10.5951 11.0571 10.5667 10.8 10.5667C9.91968 10.5667 9.18335 10.8329 8.59102 11.3653C7.99868 11.8979 7.62946 12.5013 7.48335 13.1757C7.56879 13.1861 7.65213 13.1928 7.73335 13.1957C7.81457 13.1986 7.90346 13.2 8.00002 13.2ZM6.12302 12.8448C6.14779 12.2816 6.38968 11.7218 6.84868 11.1653C7.30768 10.609 7.68246 10.227 7.97302 10.0192C7.69302 9.94563 7.39179 9.88513 7.06935 9.83768C6.74702 9.79035 6.43907 9.76668 6.14552 9.76668C5.66141 9.76668 5.1924 9.8184 4.73852 9.92185C4.28463 10.0253 3.83718 10.1847 3.39618 10.4C3.67229 10.9641 4.04535 11.4575 4.51535 11.8802C4.98546 12.3028 5.52135 12.6244 6.12302 12.8448Z" fill="currentColor"/>
</svg>
