<svg width="24" height="24" viewBox="0 0 24 24" fill="none" xmlns="http://www.w3.org/2000/svg">
<mask id="mask0_7353_28774" style="mask-type:luminance" maskUnits="userSpaceOnUse" x="0" y="0" width="24" height="24">
<path d="M23.987 0.00341797H0.0202637V23.9701H23.987V0.00341797Z" fill="white"/>
</mask>
<g mask="url(#mask0_7353_28774)">
<mask id="mask1_7353_28774" style="mask-type:luminance" maskUnits="userSpaceOnUse" x="3" y="3" width="18" height="17">
<path d="M20.0621 3.99316H3.94653V19.9649H20.0621V3.99316Z" fill="white"/>
</mask>
<g mask="url(#mask1_7353_28774)">
<path d="M10.1276 9.80686V8.28953C10.1276 8.16174 10.1755 8.06587 10.2873 8.00206L13.338 6.24517C13.7532 6.0056 14.2484 5.89386 14.7594 5.89386C16.676 5.89386 17.8899 7.37926 17.8899 8.9604C17.8899 9.07218 17.8899 9.19997 17.8739 9.32775L14.7115 7.475C14.5198 7.36325 14.3281 7.36325 14.1365 7.475L10.1276 9.80686ZM17.251 15.7164V12.0908C17.251 11.8671 17.1551 11.7074 16.9635 11.5956L12.9546 9.26378L14.2643 8.51305C14.376 8.44924 14.4719 8.44924 14.5837 8.51305L17.6344 10.2699C18.5129 10.7811 19.1037 11.8671 19.1037 12.9212C19.1037 14.135 18.3851 15.2531 17.251 15.7163V15.7164ZM9.18526 12.5221L7.87558 11.7555C7.76383 11.6917 7.71586 11.5958 7.71586 11.468V7.95426C7.71586 6.24534 9.02555 4.95153 10.7984 4.95153C11.4694 4.95153 12.0921 5.17519 12.6193 5.57447L9.47289 7.39531C9.28129 7.50705 9.18542 7.66676 9.18542 7.89045V12.5223L9.18526 12.5221ZM12.0043 14.1512L10.1276 13.0971V10.8611L12.0043 9.80702L13.8809 10.8611V13.0971L12.0043 14.1512ZM13.2102 19.0067C12.5393 19.0067 11.9165 18.783 11.3893 18.3838L14.5357 16.5629C14.7274 16.4512 14.8232 16.2915 14.8232 16.0678V11.436L16.149 12.2026C16.2607 12.2664 16.3087 12.3622 16.3087 12.4901V16.0038C16.3087 17.7127 14.9829 19.0065 13.2102 19.0065V19.0067ZM9.42482 15.445L6.37413 13.6881C5.49561 13.1769 4.90474 12.091 4.90474 11.0368C4.90474 9.80702 5.63945 8.70499 6.77337 8.24176V11.8833C6.77337 12.107 6.86927 12.2667 7.06087 12.3785L11.0539 14.6943L9.74421 15.445C9.63247 15.5088 9.53657 15.5088 9.42482 15.445ZM9.24924 18.0644C7.44441 18.0644 6.11872 16.7067 6.11872 15.0297C6.11872 14.9019 6.13473 14.7741 6.15061 14.6463L9.29704 16.4672C9.48864 16.579 9.6804 16.579 9.872 16.4672L13.8809 14.1514V15.6687C13.8809 15.7965 13.833 15.8923 13.7212 15.9562L10.6705 17.713C10.2552 17.9526 9.76009 18.0644 9.24907 18.0644H9.24924ZM13.2102 19.9649C15.1428 19.9649 16.7558 18.5914 17.1233 16.7706C18.9121 16.3073 20.0621 14.6303 20.0621 12.9214C20.0621 11.8033 19.583 10.7173 18.7205 9.93465C18.8004 9.59921 18.8483 9.26378 18.8483 8.92851C18.8483 6.64458 16.9955 4.93549 14.8553 4.93549C14.4241 4.93549 14.0089 4.9993 13.5936 5.14313C12.8747 4.44034 11.8845 3.99316 10.7984 3.99316C8.86587 3.99316 7.25281 5.36666 6.88532 7.18749C5.0965 7.65072 3.94653 9.32776 3.94653 11.0367C3.94653 12.1548 4.42563 13.2408 5.28814 14.0234C5.20828 14.3588 5.16035 14.6943 5.16035 15.0296C5.16035 17.3135 7.01311 19.0226 9.15333 19.0226C9.5845 19.0226 9.99979 18.9587 10.4151 18.8149C11.1338 19.5177 12.124 19.9649 13.2102 19.9649Z" fill="currentColor"/>
</g>
</g>
</svg>
