<svg width="16" height="16" viewBox="0 0 16 16" fill="none" xmlns="http://www.w3.org/2000/svg">
<path d="M7.99666 10.0409C7.92521 10.0409 7.85877 10.0281 7.79733 10.0024C7.73588 9.97689 7.67949 9.93844 7.62816 9.88711L5.58849 7.84744C5.50049 7.76044 5.4571 7.65855 5.45833 7.54178C5.45966 7.425 5.50594 7.32044 5.59716 7.22811C5.69483 7.13589 5.7996 7.09083 5.91149 7.09294C6.02349 7.09505 6.12566 7.14228 6.21799 7.23461L7.56666 8.59994V3.16661C7.56666 3.04361 7.60783 2.94066 7.69016 2.85778C7.77238 2.77478 7.87449 2.73328 7.99649 2.73328C8.11849 2.73328 8.22177 2.77478 8.30633 2.85778C8.39099 2.94066 8.43333 3.04361 8.43333 3.16661V8.59994L9.79866 7.23461C9.88299 7.14661 9.98316 7.10322 10.0992 7.10444C10.215 7.10578 10.3218 7.15255 10.4195 7.24478C10.5107 7.33711 10.5553 7.44033 10.5532 7.55444C10.551 7.66855 10.5038 7.77178 10.4115 7.86411L8.37183 9.88711C8.31605 9.93844 8.25744 9.97689 8.19599 10.0024C8.13455 10.0281 8.0681 10.0409 7.99666 10.0409ZM4.60049 12.4666C4.30016 12.4666 4.04721 12.363 3.84166 12.1558C3.6361 11.9486 3.53333 11.6949 3.53333 11.3948V10.8204C3.53333 10.6974 3.57449 10.5945 3.65683 10.5116C3.73905 10.4286 3.84116 10.3871 3.96316 10.3871C4.08516 10.3871 4.18844 10.4286 4.27299 10.5116C4.35766 10.5945 4.39999 10.6974 4.39999 10.8204V11.3948C4.39999 11.4461 4.42138 11.4931 4.46416 11.5358C4.50683 11.5786 4.55383 11.5999 4.60516 11.5999H11.3948C11.4462 11.5999 11.4932 11.5786 11.5358 11.5358C11.5786 11.4931 11.6 11.4461 11.6 11.3948V10.8204C11.6 10.6974 11.6411 10.5945 11.7233 10.5116C11.8057 10.4286 11.9078 10.3871 12.0298 10.3871C12.1518 10.3871 12.2551 10.4286 12.3397 10.5116C12.4243 10.5945 12.4667 10.6974 12.4667 10.8204V11.3948C12.4667 11.6949 12.363 11.9486 12.1557 12.1558C11.9483 12.363 11.6945 12.4666 11.3942 12.4666H4.60049Z" fill="currentColor"/>
</svg>
