<svg width="20" height="20" viewBox="0 0 20 20" fill="none" xmlns="http://www.w3.org/2000/svg">
<path d="M14.5513 13.8351V16.883C14.5513 16.9834 14.5877 17.07 14.6603 17.1428C14.7329 17.2154 14.8195 17.2517 14.9199 17.2517C15.0203 17.2517 15.1068 17.2154 15.1795 17.1428C15.2522 17.07 15.2886 16.9834 15.2886 16.883V13.8351L16.5288 15.0753C16.6015 15.1481 16.6867 15.1858 16.7845 15.1884C16.8822 15.1911 16.9702 15.1533 17.0482 15.0753C17.1261 14.9974 17.1651 14.9108 17.1651 14.8157C17.1651 14.7207 17.1261 14.6342 17.0482 14.5561L15.4472 12.9553C15.2965 12.8046 15.1207 12.7292 14.9199 12.7292C14.719 12.7292 14.5433 12.8046 14.3928 12.9553L12.7917 14.5561C12.7191 14.6288 12.6815 14.714 12.6788 14.8117C12.6761 14.9095 12.7137 14.9974 12.7917 15.0753C12.8698 15.1533 12.9563 15.1924 13.0513 15.1924C13.1465 15.1924 13.233 15.1533 13.3109 15.0753L14.5513 13.8351ZM10.0001 7.46487C11.2148 7.46487 12.4379 7.28883 13.6692 6.93675C14.9005 6.5848 15.6139 6.21862 15.8095 5.83821C15.6192 5.43015 14.9132 5.04953 13.6915 4.69633C12.4699 4.34328 11.2394 4.16675 10.0001 4.16675C8.76286 4.16675 7.53661 4.33848 6.32133 4.68196C5.10605 5.02543 4.3905 5.40015 4.17466 5.80612C4.38522 6.19723 5.09543 6.57147 6.30529 6.92883C7.51529 7.28619 8.74689 7.46487 10.0001 7.46487ZM14.9199 18.5899C13.8793 18.5899 12.9942 18.225 12.2645 17.4953C11.5349 16.7656 11.1701 15.8804 11.1701 14.8399C11.1701 13.7992 11.5349 12.914 12.2645 12.1845C12.9942 11.4547 13.8793 11.0899 14.9199 11.0899C15.9606 11.0899 16.8457 11.4547 17.5753 12.1845C18.305 12.914 18.6699 13.7992 18.6699 14.8399C18.6699 15.8804 18.305 16.7656 17.5753 17.4953C16.8457 18.225 15.9606 18.5899 14.9199 18.5899ZM9.43758 15.8205C9.47397 16.0513 9.52446 16.2696 9.58904 16.4753C9.65362 16.6808 9.72973 16.8836 9.81737 17.0834C8.83015 17.0748 7.91779 16.9922 7.08029 16.8357C6.24265 16.6792 5.5148 16.4677 4.89675 16.2011C4.27869 15.9346 3.79418 15.6208 3.44321 15.2597C3.09223 14.8986 2.91675 14.5075 2.91675 14.0865V5.83341C2.91675 5.02897 3.608 4.34175 4.9905 3.77175C6.373 3.20175 8.04286 2.91675 10.0001 2.91675C11.9573 2.91675 13.6272 3.20175 15.0097 3.77175C16.3922 4.34175 17.0834 5.02897 17.0834 5.83341V9.70529C16.8836 9.61765 16.6808 9.54418 16.4753 9.48487C16.2696 9.42557 16.0556 9.37779 15.8334 9.34154V7.41675C15.1326 7.8248 14.2755 8.13835 13.2622 8.35737C12.2488 8.5764 11.1615 8.68328 10.0001 8.678C8.80883 8.678 7.70918 8.56848 6.70112 8.34946C5.69321 8.13043 4.84841 7.81953 4.16675 7.41675V10.1299C4.84841 10.6865 5.72529 11.0765 6.79737 11.2997C7.86946 11.523 8.93703 11.6347 10.0001 11.6347H10.3655C10.2277 11.8259 10.1075 12.0244 10.0049 12.2301C9.90237 12.4356 9.8105 12.6538 9.72925 12.8847C8.71105 12.8558 7.70654 12.7447 6.71571 12.5513C5.72473 12.358 4.87508 12.0487 4.16675 11.6234V14.1667C4.29064 14.374 4.51501 14.5754 4.83987 14.7709C5.1646 14.9665 5.56015 15.1358 6.02654 15.2788C6.49293 15.422 7.01807 15.5417 7.60196 15.638C8.18571 15.7341 8.79758 15.7949 9.43758 15.8205Z" fill="currentColor"/>
</svg>
