<svg width="20" height="20" viewBox="0 0 20 20" fill="none" xmlns="http://www.w3.org/2000/svg">
<path d="M7.54813 14.5834C7.12715 14.5834 6.77083 14.4375 6.47917 14.1459C6.1875 13.8542 6.04167 13.4979 6.04167 13.0769V3.58983C6.04167 3.16886 6.1875 2.81254 6.47917 2.52087C6.77083 2.22921 7.12715 2.08337 7.54813 2.08337H14.5352C14.9562 2.08337 15.3125 2.22921 15.6042 2.52087C15.8958 2.81254 16.0417 3.16886 16.0417 3.58983V13.0769C16.0417 13.4979 15.8958 13.8542 15.6042 14.1459C15.3125 14.4375 14.9562 14.5834 14.5352 14.5834H7.54813ZM4.63146 17.5C4.21049 17.5 3.85417 17.3542 3.5625 17.0625C3.27083 16.7709 3.125 16.4146 3.125 15.9936V5.8815C3.125 5.70414 3.18486 5.5556 3.30458 5.43587C3.42417 5.31629 3.57264 5.2565 3.75 5.2565C3.92736 5.2565 4.0759 5.31629 4.19563 5.43587C4.31521 5.5556 4.375 5.70414 4.375 5.8815V15.9936C4.375 16.0577 4.40174 16.1165 4.45521 16.1698C4.50854 16.2233 4.56729 16.25 4.63146 16.25H12.2435C12.4209 16.25 12.5694 16.3098 12.6892 16.4294C12.8088 16.5491 12.8685 16.6977 12.8685 16.875C12.8685 17.0524 12.8088 17.2009 12.6892 17.3205C12.5694 17.4402 12.4209 17.5 12.2435 17.5H4.63146Z" fill="currentColor"/>
</svg>
