<svg width="20" height="20" viewBox="0 0 20 20" fill="none" xmlns="http://www.w3.org/2000/svg">
<mask id="mask0_7353_28772" style="mask-type:luminance" maskUnits="userSpaceOnUse" x="0" y="0" width="20" height="20">
<path d="M19.9891 0.00268555H0.0168457V19.9749H19.9891V0.00268555Z" fill="white"/>
</mask>
<g mask="url(#mask0_7353_28772)">
<mask id="mask1_7353_28772" style="mask-type:luminance" maskUnits="userSpaceOnUse" x="3" y="3" width="14" height="14">
<path d="M16.7183 3.32739H3.2887V16.6372H16.7183V3.32739Z" fill="white"/>
</mask>
<g mask="url(#mask1_7353_28772)">
<path d="M8.43957 8.17214V6.9077C8.43957 6.80121 8.47954 6.72132 8.57266 6.66814L11.1149 5.20406C11.461 5.00442 11.8736 4.9113 12.2994 4.9113C13.8966 4.9113 14.9082 6.14914 14.9082 7.46675C14.9082 7.5599 14.9082 7.66639 14.8949 7.77288L12.2595 6.22892C12.0998 6.1358 11.94 6.1358 11.7803 6.22892L8.43957 8.17214ZM14.3757 13.0968V10.0754C14.3757 9.88903 14.2958 9.75594 14.1362 9.66279L10.7954 7.71957L11.8868 7.09397C11.98 7.04079 12.0598 7.04079 12.153 7.09397L14.6952 8.55804C15.4273 8.98401 15.9197 9.88903 15.9197 10.7674C15.9197 11.7789 15.3208 12.7107 14.3757 13.0967V13.0968ZM7.6543 10.4349L6.5629 9.79602C6.46978 9.74284 6.42981 9.66293 6.42981 9.55644V6.62831C6.42981 5.2042 7.52121 4.12603 8.99863 4.12603C9.55771 4.12603 10.0767 4.31241 10.516 4.64515L7.89399 6.16251C7.73433 6.25563 7.65444 6.38872 7.65444 6.57513V10.435L7.6543 10.4349ZM10.0035 11.7924L8.43957 10.914V9.05069L10.0035 8.17227L11.5673 9.05069V10.914L10.0035 11.7924ZM11.0084 15.8387C10.4493 15.8387 9.93036 15.6523 9.49103 15.3196L12.113 13.8022C12.2727 13.7091 12.3526 13.576 12.3526 13.3896V9.52972L13.4574 10.1686C13.5505 10.2217 13.5905 10.3016 13.5905 10.4081V13.3363C13.5905 14.7604 12.4857 15.8385 11.0084 15.8385V15.8387ZM7.85394 12.8706L5.31169 11.4065C4.5796 10.9805 4.0872 10.0755 4.0872 9.19713C4.0872 8.17228 4.69946 7.25391 5.6444 6.86789V9.90251C5.6444 10.0889 5.72431 10.222 5.88398 10.3151L9.2115 12.245L8.1201 12.8706C8.02698 12.9238 7.94706 12.9238 7.85394 12.8706ZM7.70761 15.0534C6.20359 15.0534 5.09885 13.922 5.09885 12.5245C5.09885 12.418 5.11219 12.3115 5.12542 12.205L7.74745 13.7224C7.90712 13.8155 8.06692 13.8155 8.22659 13.7224L11.5673 11.7926V13.057C11.5673 13.1635 11.5274 13.2434 11.4342 13.2965L8.89202 14.7606C8.54595 14.9603 8.13333 15.0534 7.70748 15.0534H7.70761ZM11.0084 16.6372C12.6189 16.6372 13.9631 15.4926 14.2694 13.9752C15.76 13.5892 16.7183 12.1917 16.7183 10.7676C16.7183 9.83583 16.3191 8.93083 15.6003 8.27863C15.6669 7.9991 15.7068 7.71957 15.7068 7.44018C15.7068 5.53691 14.1629 4.11266 12.3793 4.11266C12.02 4.11266 11.674 4.16584 11.3279 4.2857C10.7289 3.70004 9.90365 3.32739 8.99863 3.32739C7.38814 3.32739 6.04393 4.47197 5.73768 5.98933C4.247 6.37535 3.2887 7.77289 3.2887 9.19699C3.2887 10.1287 3.68795 11.0337 4.4067 11.6859C4.34015 11.9655 4.30021 12.245 4.30021 12.5244C4.30021 14.4277 5.84417 15.8519 7.6277 15.8519C7.987 15.8519 8.33308 15.7987 8.67915 15.6789C9.27804 16.2645 10.1033 16.6372 11.0084 16.6372Z" fill="currentColor"/>
</g>
</g>
</svg>
