<svg width="16" height="16" viewBox="0 0 16 16" fill="none" xmlns="http://www.w3.org/2000/svg">
<path d="M8.00118 14.0667C7.16963 14.0667 6.38513 13.9088 5.64768 13.593C4.91024 13.2772 4.26479 12.8427 3.71135 12.2895C3.1579 11.7363 2.72318 11.0911 2.40718 10.354C2.09129 9.6169 1.93335 8.83263 1.93335 8.00118C1.93335 7.15852 2.09129 6.37124 2.40718 5.63935C2.72296 4.90746 3.15752 4.26479 3.71085 3.71135C4.26418 3.1579 4.90946 2.72318 5.64668 2.40718C6.3839 2.09129 7.16835 1.93335 8.00002 1.93335C8.55468 1.93335 9.09785 2.00685 9.62952 2.15385C10.1612 2.30085 10.6646 2.51924 11.1398 2.80902C11.2568 2.88079 11.3267 2.97313 11.3493 3.08602C11.372 3.19879 11.3462 3.30818 11.2718 3.41418C11.1975 3.52018 11.0983 3.58235 10.9743 3.60068C10.8505 3.61902 10.7342 3.59229 10.6257 3.52052C10.2359 3.2804 9.81752 3.10029 9.37052 2.98018C8.92352 2.86007 8.46668 2.80002 8.00002 2.80002C6.55557 2.80002 5.32779 3.30557 4.31668 4.31668C3.30557 5.32779 2.80002 6.55557 2.80002 8.00002C2.80002 9.44446 3.30557 10.6722 4.31668 11.6833C5.32779 12.6945 6.55557 13.2 8.00002 13.2C9.44446 13.2 10.6722 12.6945 11.6833 11.6833C12.6945 10.6722 13.2 9.44446 13.2 8.00002C13.2 7.83768 13.1951 7.67102 13.1853 7.50002C13.1755 7.32902 13.153 7.16318 13.118 7.00252C13.0958 6.88285 13.1146 6.77218 13.1743 6.67052C13.2342 6.56885 13.3188 6.50435 13.428 6.47702C13.5512 6.44957 13.6647 6.47457 13.7685 6.55202C13.8724 6.62935 13.9355 6.72996 13.9577 6.85385C13.9885 7.03329 14.0143 7.22029 14.0352 7.41485C14.0562 7.60929 14.0667 7.80435 14.0667 8.00002C14.0667 8.83168 13.9088 9.61613 13.593 10.3533C13.2772 11.0906 12.8427 11.7358 12.2895 12.2892C11.7363 12.8425 11.0939 13.2771 10.3623 13.5928C9.63079 13.9087 8.84374 14.0667 8.00118 14.0667ZM7.08718 9.39752L13.1462 3.34485C13.2385 3.25263 13.3417 3.20652 13.4558 3.20652C13.5698 3.20652 13.6735 3.25313 13.7668 3.34635C13.8624 3.44202 13.9102 3.54474 13.9102 3.65452C13.9102 3.76429 13.8619 3.86752 13.7653 3.96418L7.44235 10.2808C7.3329 10.3902 7.20896 10.4448 7.07052 10.4448C6.93207 10.4448 6.80813 10.3902 6.69868 10.2808L4.93585 8.51802C4.84363 8.42568 4.7964 8.32074 4.79418 8.20318C4.79207 8.08574 4.83929 7.97868 4.93585 7.88202C5.03252 7.78546 5.13852 7.73718 5.25385 7.73718C5.36918 7.73718 5.47518 7.78546 5.57185 7.88202L7.08718 9.39752Z" fill="currentColor"/>
</svg>
