<svg width="20" height="20" viewBox="0 0 20 20" fill="none" xmlns="http://www.w3.org/2000/svg">
<path d="M6.763 10.0001C6.58564 10.0001 6.4371 10.0599 6.31737 10.1797C6.19779 10.2992 6.138 10.4477 6.138 10.6251V13.3334C6.138 13.5108 6.19779 13.6592 6.31737 13.7788C6.4371 13.8986 6.58564 13.9584 6.763 13.9584C6.94022 13.9584 7.08869 13.8986 7.20842 13.7788C7.328 13.6592 7.38779 13.5108 7.38779 13.3334V10.6251C7.38779 10.4477 7.328 10.2992 7.20842 10.1797C7.08869 10.0599 6.94022 10.0001 6.763 10.0001ZM13.2372 5.83341C13.0599 5.83341 12.9115 5.89328 12.7917 6.013C12.6722 6.13258 12.6124 6.28105 12.6124 6.45841V13.3334C12.6124 13.5108 12.6722 13.6592 12.7917 13.7788C12.9115 13.8986 13.0599 13.9584 13.2372 13.9584C13.4145 13.9584 13.5631 13.8986 13.6828 13.7788C13.8024 13.6592 13.8622 13.5108 13.8622 13.3334V6.45841C13.8622 6.28105 13.8024 6.13258 13.6828 6.013C13.5631 5.89328 13.4145 5.83341 13.2372 5.83341ZM10.0001 11.6667C9.82272 11.6667 9.67425 11.7266 9.55466 11.8463C9.43494 11.9659 9.37508 12.1144 9.37508 12.2917V13.3334C9.37508 13.5108 9.43494 13.6592 9.55466 13.7788C9.67425 13.8986 9.82272 13.9584 10.0001 13.9584C10.1774 13.9584 10.3259 13.8986 10.4455 13.7788C10.5652 13.6592 10.6251 13.5108 10.6251 13.3334V12.2917C10.6251 12.1144 10.5652 11.9659 10.4455 11.8463C10.3259 11.7266 10.1774 11.6667 10.0001 11.6667ZM4.42321 17.0834C4.00223 17.0834 3.64591 16.9376 3.35425 16.6459C3.06258 16.3542 2.91675 15.9979 2.91675 15.577V4.42321C2.91675 4.00223 3.06258 3.64591 3.35425 3.35425C3.64591 3.06258 4.00223 2.91675 4.42321 2.91675H15.577C15.9979 2.91675 16.3542 3.06258 16.6459 3.35425C16.9376 3.64591 17.0834 4.00223 17.0834 4.42321V15.577C17.0834 15.9979 16.9376 16.3542 16.6459 16.6459C16.3542 16.9376 15.9979 17.0834 15.577 17.0834H4.42321ZM4.42321 15.8334H15.577C15.6411 15.8334 15.6999 15.8067 15.7532 15.7532C15.8067 15.6999 15.8334 15.6411 15.8334 15.577V4.42321C15.8334 4.35904 15.8067 4.30029 15.7532 4.24696C15.6999 4.19348 15.6411 4.16675 15.577 4.16675H4.42321C4.35904 4.16675 4.30029 4.19348 4.24696 4.24696C4.19348 4.30029 4.16675 4.35904 4.16675 4.42321V15.577C4.16675 15.6411 4.19348 15.6999 4.24696 15.7532C4.30029 15.8067 4.35904 15.8334 4.42321 15.8334ZM10.0001 9.79175C10.1774 9.79175 10.3259 9.73189 10.4455 9.61216C10.5652 9.49258 10.6251 9.34411 10.6251 9.16675C10.6251 8.98939 10.5652 8.84091 10.4455 8.72133C10.3259 8.60161 10.1774 8.54175 10.0001 8.54175C9.82272 8.54175 9.67425 8.60161 9.55466 8.72133C9.43494 8.84091 9.37508 8.98939 9.37508 9.16675C9.37508 9.34411 9.43494 9.49258 9.55466 9.61216C9.67425 9.73189 9.82272 9.79175 10.0001 9.79175Z" fill="currentColor"/>
</svg>
