<svg width="20" height="20" viewBox="0 0 20 20" fill="none" xmlns="http://www.w3.org/2000/svg">
<path d="M10.0014 17.5833C8.96197 17.5833 7.98135 17.3859 7.05954 16.9912C6.13774 16.5965 5.33093 16.0534 4.63913 15.3618C3.94732 14.6703 3.40392 13.8638 3.00892 12.9425C2.61406 12.0211 2.41663 11.0407 2.41663 10.0014C2.41663 8.94808 2.61399 7.96399 3.00871 7.04913C3.40343 6.13426 3.94656 5.33093 4.63808 4.63913C5.32961 3.94732 6.13607 3.40392 7.05746 3.00892C7.97885 2.61406 8.9592 2.41663 9.9985 2.41663C11.0518 2.41663 12.0359 2.61399 12.9508 3.00871C13.8657 3.40343 14.669 3.94656 15.3608 4.63808C16.0526 5.32961 16.596 6.1326 16.991 7.04704C17.3859 7.96149 17.5833 8.94531 17.5833 9.9985C17.5833 11.0379 17.3859 12.0186 16.9912 12.9404C16.5965 13.8622 16.0534 14.669 15.3618 15.3608C14.6703 16.0526 13.8673 16.596 12.9529 16.991C12.0384 17.3859 11.0546 17.5833 10.0014 17.5833ZM9.97913 15.3398C10.1308 15.3398 10.26 15.2932 10.3668 15.2002C10.4738 15.1073 10.5273 14.985 10.5273 14.8333V14.3927C11.1598 14.3189 11.7068 14.0552 12.1683 13.6016C12.6298 13.1482 12.8606 12.6073 12.8606 11.9791C12.8606 11.3541 12.6538 10.8311 12.2404 10.4102C11.8269 9.98933 11.2452 9.64697 10.4952 9.38308C9.66072 9.08392 9.11371 8.81788 8.85413 8.58496C8.59454 8.35204 8.46475 8.04593 8.46475 7.66663C8.46475 7.35676 8.60843 7.09288 8.89579 6.87496C9.18315 6.65704 9.54427 6.54808 9.97913 6.54808C10.2751 6.54808 10.5393 6.59906 10.7716 6.701C11.004 6.80308 11.2003 6.94385 11.3606 7.12329C11.4621 7.24732 11.5796 7.33038 11.7131 7.37246C11.8467 7.41468 11.9732 7.40913 12.0925 7.35579C12.2276 7.29163 12.3181 7.19947 12.3639 7.07933C12.4098 6.95906 12.3948 6.84128 12.3189 6.726C12.1106 6.41183 11.8488 6.1642 11.5335 5.98308C11.2184 5.80197 10.8829 5.6767 10.5273 5.60725V5.16663C10.5273 5.01496 10.4773 4.89267 10.3773 4.79975C10.2774 4.7067 10.1516 4.66017 9.99996 4.66017C9.84829 4.66017 9.72253 4.7067 9.62267 4.79975C9.52267 4.89267 9.47267 5.01496 9.47267 5.16663V5.60725C8.8317 5.74406 8.32774 6.00447 7.96079 6.3885C7.59371 6.77267 7.41017 7.20565 7.41017 7.68746C7.41017 8.25802 7.61024 8.74788 8.01038 9.15704C8.41051 9.56621 9.10843 9.95933 10.1041 10.3364C10.8093 10.6057 11.2788 10.859 11.5129 11.0962C11.7468 11.3333 11.8637 11.6276 11.8637 11.9791C11.8637 12.4044 11.6925 12.7527 11.3502 13.0239C11.0077 13.2953 10.6132 13.431 10.1666 13.431C9.77079 13.431 9.40954 13.3287 9.08288 13.1241C8.75621 12.9195 8.49885 12.6442 8.31079 12.2981C8.24038 12.1795 8.13704 12.0948 8.00079 12.0441C7.86454 11.9933 7.73482 11.9949 7.61163 12.0489C7.46385 12.1029 7.36607 12.1986 7.31829 12.3358C7.27065 12.473 7.28045 12.6036 7.34767 12.7275C7.58058 13.1527 7.88107 13.5053 8.24913 13.7852C8.61718 14.0652 9.01808 14.2607 9.45183 14.3718V14.8333C9.45183 14.985 9.50183 15.1073 9.60183 15.2002C9.7017 15.2932 9.82746 15.3398 9.97913 15.3398Z" fill="currentColor"/>
</svg>
