<svg width="16" height="16" viewBox="0 0 16 16" fill="none" xmlns="http://www.w3.org/2000/svg">
<path d="M7.99663 10.9435C8.11852 10.9435 8.22175 10.902 8.3063 10.819C8.39097 10.7359 8.4333 10.633 8.4333 10.5102V7.49237C8.4333 7.3696 8.39208 7.26665 8.30963 7.18354C8.22719 7.10054 8.12508 7.05904 8.0033 7.05904C7.88141 7.05904 7.77819 7.10054 7.69363 7.18354C7.60897 7.26665 7.56663 7.3696 7.56663 7.49237V10.5102C7.56663 10.633 7.60786 10.7359 7.6903 10.819C7.77275 10.902 7.87486 10.9435 7.99663 10.9435ZM7.99647 6.00004C8.12913 6.00004 8.24152 5.95515 8.33363 5.86537C8.42575 5.7756 8.4718 5.66437 8.4718 5.53171C8.4718 5.39904 8.42691 5.28665 8.33713 5.19454C8.24736 5.10254 8.13613 5.05654 8.00347 5.05654C7.8708 5.05654 7.75841 5.10137 7.6663 5.19104C7.57419 5.28082 7.52813 5.39204 7.52813 5.52471C7.52813 5.65737 7.57302 5.76976 7.6628 5.86187C7.75258 5.95399 7.8638 6.00004 7.99647 6.00004ZM7.99997 13.9807C7.94186 13.9807 7.87947 13.9779 7.8128 13.9724C7.74613 13.9668 7.68713 13.9529 7.6358 13.9307C6.27436 13.4529 5.18358 12.6081 4.36347 11.3962C3.54336 10.1842 3.1333 8.85771 3.1333 7.41671V4.56421C3.1333 4.33654 3.19502 4.13171 3.31847 3.94971C3.4418 3.7676 3.60786 3.63654 3.81663 3.55654L7.61147 2.10654C7.74313 2.05521 7.87263 2.02954 7.99997 2.02954C8.1273 2.02954 8.2568 2.05521 8.38847 2.10654L12.1833 3.55654C12.3921 3.63654 12.5581 3.7676 12.6815 3.94971C12.8049 4.13171 12.8666 4.33654 12.8666 4.56421V7.41671C12.8666 8.85771 12.4566 10.1842 11.6365 11.3962C10.8164 12.6081 9.72558 13.4529 8.36413 13.9307C8.3128 13.9529 8.2538 13.9668 8.18713 13.9724C8.12047 13.9779 8.05808 13.9807 7.99997 13.9807Z" fill="currentColor"/>
</svg>
