<svg width="24" height="24" viewBox="0 0 24 24" fill="none" xmlns="http://www.w3.org/2000/svg">
<path d="M18.5653 19.875C16.7475 19.725 15.0001 19.2451 13.3231 18.4355C11.6462 17.6258 10.1264 16.5396 8.76356 15.177C7.40722 13.8141 6.32839 12.2958 5.52705 10.622C4.72572 8.94829 4.25005 7.20254 4.10005 5.3847C4.06672 5.0347 4.17089 4.72887 4.41255 4.4672C4.65422 4.2057 4.95005 4.07495 5.30005 4.07495H7.91156C8.21406 4.07495 8.47431 4.1657 8.69231 4.3472C8.91031 4.52853 9.06222 4.76537 9.14806 5.0577L9.67131 7.17495C9.71097 7.39795 9.69847 7.61587 9.63381 7.8287C9.56897 8.04154 9.46347 8.21462 9.31731 8.34795L7.0078 10.5962C7.37947 11.2935 7.79164 11.95 8.24431 12.5655C8.69681 13.1808 9.19297 13.7564 9.73281 14.2922C10.2648 14.8244 10.8398 15.3174 11.4578 15.7712C12.0758 16.225 12.7431 16.6379 13.4598 17.0097L15.8288 14.6962C15.9686 14.55 16.129 14.4525 16.3098 14.4037C16.4905 14.355 16.6924 14.3474 16.9156 14.3807L18.9173 14.8212C19.2198 14.9045 19.4592 15.0584 19.6356 15.2827C19.8119 15.507 19.9001 15.7737 19.9001 16.0827V18.675C19.9001 19.025 19.7651 19.3208 19.4953 19.5625C19.2253 19.8041 18.9153 19.9083 18.5653 19.875Z" fill="currentColor"/>
</svg>
