<svg width="20" height="20" viewBox="0 0 20 20" fill="none" xmlns="http://www.w3.org/2000/svg">
<path d="M15.7647 16.2986V13.448H4.23529V16.2986C4.23529 16.3831 4.25904 16.4525 4.30653 16.5068C4.35402 16.5611 4.41475 16.5882 4.48874 16.5882H15.5113C15.5852 16.5882 15.646 16.5611 15.6935 16.5068C15.741 16.4525 15.7647 16.3831 15.7647 16.2986ZM15.7647 12.0362V7.96377H4.23529V12.0362H15.7647ZM15.7647 6.552V3.70141C15.7647 3.61686 15.741 3.54745 15.6935 3.49318C15.646 3.4389 15.5852 3.41176 15.5113 3.41176H4.48874C4.41475 3.41176 4.35402 3.4389 4.30653 3.49318C4.25904 3.54745 4.23529 3.61686 4.23529 3.70141V6.552H15.7647ZM4.48874 18C4.07272 18 3.72059 17.8353 3.43235 17.5059C3.14412 17.1765 3 16.774 3 16.2986V3.70141C3 3.22596 3.14412 2.82353 3.43235 2.49412C3.72059 2.16471 4.07272 2 4.48874 2H15.5113C15.9273 2 16.2794 2.16471 16.5676 2.49412C16.8559 2.82353 17 3.22596 17 3.70141V16.2986C17 16.774 16.8559 17.1765 16.5676 17.5059C16.2794 17.8353 15.9273 18 15.5113 18H4.48874Z" fill="currentColor"/>
</svg>
