<svg width="24" height="24" viewBox="0 0 24 24" fill="none" xmlns="http://www.w3.org/2000/svg">
<path d="M11.9999 13.0635L8.91963 16.152C8.77363 16.2968 8.59663 16.3677 8.38863 16.3645C8.18046 16.3612 8.00346 16.2871 7.85763 16.1423C7.7128 15.9974 7.64038 15.8202 7.64038 15.6105C7.64038 15.401 7.7128 15.2238 7.85763 15.0788L10.9364 12.0008L7.85763 8.94476C7.7128 8.79876 7.64038 8.62018 7.64038 8.40901C7.64038 8.19768 7.7128 8.01901 7.85763 7.87301C8.00246 7.72818 8.17971 7.65576 8.38938 7.65576C8.59888 7.65576 8.77613 7.72818 8.92113 7.87301L11.9999 10.9615L15.0551 7.87301C15.2011 7.72818 15.3781 7.65576 15.5861 7.65576C15.7943 7.65576 15.9713 7.72818 16.1171 7.87301C16.2723 8.02818 16.3499 8.20801 16.3499 8.41251C16.3499 8.61701 16.2723 8.79168 16.1171 8.93651L13.0384 12L16.1269 15.0803C16.2717 15.2263 16.3441 15.4033 16.3441 15.6113C16.3441 15.8194 16.2717 15.9964 16.1269 16.1423C15.9717 16.2974 15.7919 16.375 15.5874 16.375C15.3829 16.375 15.2082 16.2974 15.0634 16.1423L11.9999 13.0635Z" fill="currentColor"/>
</svg>
