<svg width="20" height="20" viewBox="0 0 20 20" fill="none" xmlns="http://www.w3.org/2000/svg">
<path d="M10.0001 17.0834C7.97772 17.0834 6.29154 16.7978 4.94154 16.2267C3.59168 15.6557 2.91675 14.9423 2.91675 14.0865V5.83335C2.91675 5.02891 3.608 4.34169 4.9905 3.77169C6.373 3.20169 8.04286 2.91669 10.0001 2.91669C11.9573 2.91669 13.6272 3.20169 15.0097 3.77169C16.3922 4.34169 17.0834 5.02891 17.0834 5.83335V14.0865C17.0834 14.9423 16.4085 15.6557 15.0586 16.2267C13.7086 16.7978 12.0224 17.0834 10.0001 17.0834ZM10.0001 7.46481C11.2148 7.46481 12.4379 7.29308 13.6692 6.9496C14.9005 6.60613 15.6139 6.23565 15.8095 5.83815C15.6192 5.43009 14.9132 5.04946 13.6915 4.69627C12.4699 4.34321 11.2394 4.16669 10.0001 4.16669C8.76286 4.16669 7.53661 4.33842 6.32133 4.6819C5.10605 5.02537 4.3905 5.40009 4.17466 5.80606C4.38522 6.22273 5.09543 6.60335 6.30529 6.94794C7.51529 7.29252 8.74689 7.46481 10.0001 7.46481ZM10.0001 11.6346C10.5781 11.6346 11.1406 11.6068 11.6876 11.5513C12.2345 11.4957 12.7572 11.4145 13.2557 11.3077C13.754 11.2009 14.2206 11.0684 14.6555 10.9102C15.0904 10.7522 15.483 10.5732 15.8334 10.3734V7.41669C15.483 7.61641 15.0904 7.79537 14.6555 7.95356C14.2206 8.11162 13.754 8.24405 13.2557 8.35085C12.7572 8.4578 12.2345 8.53905 11.6876 8.5946C11.1406 8.65016 10.5781 8.67794 10.0001 8.67794C9.41147 8.67794 8.838 8.64877 8.27966 8.59044C7.72147 8.53224 7.19453 8.44974 6.69883 8.34294C6.20314 8.23613 5.74133 8.10502 5.31341 7.9496C4.8855 7.79405 4.50328 7.61641 4.16675 7.41669V10.3734C4.50328 10.5732 4.8855 10.7509 5.31341 10.9063C5.74133 11.0617 6.20314 11.1928 6.69883 11.2996C7.19453 11.4065 7.72147 11.4891 8.27966 11.5473C8.838 11.6055 9.41147 11.6346 10.0001 11.6346ZM10.0001 15.8334C10.6763 15.8334 11.3404 15.7888 11.9922 15.6996C12.6438 15.6103 13.2367 15.4885 13.7709 15.3342C14.3051 15.1797 14.7556 15.0005 15.1226 14.7965C15.4897 14.5925 15.7266 14.3782 15.8334 14.1538V11.6234C15.483 11.8232 15.0904 12.0022 14.6555 12.1602C14.2206 12.3184 13.754 12.4509 13.2557 12.5577C12.7572 12.6645 12.2345 12.7457 11.6876 12.8013C11.1406 12.8568 10.5781 12.8846 10.0001 12.8846C9.41147 12.8846 8.838 12.8555 8.27966 12.7973C7.72147 12.7391 7.19453 12.6565 6.69883 12.5496C6.20314 12.4428 5.74133 12.3117 5.31341 12.1563C4.8855 12.0009 4.50328 11.8232 4.16675 11.6234V14.1667C4.27355 14.3964 4.50835 14.6098 4.87112 14.8069C5.23376 15.004 5.68216 15.1797 6.21633 15.3342C6.75064 15.4885 7.34578 15.6103 8.00175 15.6996C8.65772 15.7888 9.32383 15.8334 10.0001 15.8334Z" fill="currentColor"/>
</svg>
