<svg width="16" height="16" viewBox="0 0 16 16" fill="none" xmlns="http://www.w3.org/2000/svg">
<path d="M3.16661 11.3565C3.04383 11.3565 2.94094 11.3153 2.85794 11.233C2.77483 11.1505 2.73328 11.0484 2.73328 10.9265C2.73328 10.8047 2.77483 10.7015 2.85794 10.6168C2.94094 10.5322 3.04383 10.49 3.16661 10.49H12.8333C12.9561 10.49 13.0589 10.5311 13.1419 10.6135C13.2251 10.6959 13.2666 10.7981 13.2666 10.92C13.2666 11.0417 13.2251 11.145 13.1419 11.2296C13.0589 11.3142 12.9561 11.3565 12.8333 11.3565H3.16661ZM3.16661 8.43347C3.04383 8.43347 2.94094 8.39224 2.85794 8.3098C2.77483 8.22735 2.73328 8.12524 2.73328 8.00347C2.73328 7.88158 2.77483 7.77835 2.85794 7.6938C2.94094 7.60913 3.04383 7.5668 3.16661 7.5668H12.8333C12.9561 7.5668 13.0589 7.60802 13.1419 7.69047C13.2251 7.77291 13.2666 7.87502 13.2666 7.9968C13.2666 8.11869 13.2251 8.22191 13.1419 8.30647C13.0589 8.39113 12.9561 8.43347 12.8333 8.43347H3.16661ZM3.16661 5.5103C3.04383 5.5103 2.94094 5.46913 2.85794 5.3868C2.77483 5.30435 2.73328 5.20219 2.73328 5.0803C2.73328 4.95852 2.77483 4.8553 2.85794 4.77063C2.94094 4.68608 3.04383 4.6438 3.16661 4.6438H12.8333C12.9561 4.6438 13.0589 4.68497 13.1419 4.7673C13.2251 4.84974 13.2666 4.95191 13.2666 5.0738C13.2666 5.19558 13.2251 5.2988 13.1419 5.38347C13.0589 5.46802 12.9561 5.5103 12.8333 5.5103H3.16661Z" fill="currentColor"/>
</svg>
