<svg width="16" height="16" viewBox="0 0 16 16" fill="none" xmlns="http://www.w3.org/2000/svg">
<path d="M7.99992 9.03074L10.7153 6.31524C10.8076 6.22301 10.9236 6.17579 11.0634 6.17357C11.2031 6.17146 11.3213 6.21868 11.4179 6.31524C11.5145 6.4119 11.5628 6.52901 11.5628 6.66657C11.5628 6.80413 11.5145 6.92124 11.4179 7.0179L8.42175 10.0141C8.35931 10.0764 8.29348 10.1204 8.22425 10.1461C8.15503 10.1717 8.08025 10.1846 7.99992 10.1846C7.91959 10.1846 7.84481 10.1717 7.77559 10.1461C7.70636 10.1204 7.64053 10.0764 7.57809 10.0141L4.58192 7.0179C4.4897 6.92557 4.44248 6.80951 4.44025 6.66974C4.43814 6.53007 4.48536 6.4119 4.58192 6.31524C4.67859 6.21868 4.7957 6.1704 4.93325 6.1704C5.07081 6.1704 5.18792 6.21868 5.28459 6.31524L7.99992 9.03074Z" fill="currentColor"/>
</svg>
