<svg width="16" height="16" viewBox="0 0 16 16" fill="none" xmlns="http://www.w3.org/2000/svg">
<path d="M7.5 11.0847V3.5C7.5 3.35811 7.54788 3.23933 7.64366 3.14367C7.73933 3.04789 7.85811 3 8 3C8.14188 3 8.26066 3.04789 8.35633 3.14367C8.45211 3.23933 8.5 3.35811 8.5 3.5V11.0847L11.9462 7.6385C12.0453 7.53939 12.1613 7.49044 12.2942 7.49167C12.4271 7.493 12.5452 7.54533 12.6487 7.64867C12.7452 7.75211 12.7952 7.86922 12.7987 8C12.8021 8.13078 12.7521 8.24789 12.6487 8.35133L8.42183 12.5782C8.35938 12.6406 8.29355 12.6846 8.22433 12.7102C8.15511 12.7358 8.08033 12.7487 8 12.7487C7.91966 12.7487 7.84488 12.7358 7.77566 12.7102C7.70644 12.6846 7.64061 12.6406 7.57816 12.5782L3.35133 8.35133C3.259 8.259 3.21177 8.14467 3.20966 8.00833C3.20755 7.872 3.25477 7.75211 3.35133 7.64867C3.45477 7.54533 3.57355 7.49367 3.70766 7.49367C3.84188 7.49367 3.96072 7.54533 4.06416 7.64867L7.5 11.0847Z" fill="currentColor"/>
</svg>
