<svg width="24" height="24" viewBox="0 0 24 24" fill="none" xmlns="http://www.w3.org/2000/svg">
<path d="M11.991 19.6879C11.7881 19.6879 11.5843 19.6516 11.3797 19.5788C11.1751 19.5058 10.995 19.3917 10.8395 19.2363L9.47858 17.9993C7.79889 16.4677 6.29921 14.9631 4.97953 13.4855C3.65984 12.0079 3 10.4251 3 8.73684C3 7.39237 3.45332 6.26674 4.35995 5.35995C5.26674 4.45332 6.39237 4 7.73684 4C8.50074 4 9.25532 4.17613 10.0006 4.52839C10.7457 4.88066 11.4122 5.45271 12 6.24455C12.5878 5.45271 13.2543 4.88066 13.9994 4.52839C14.7447 4.17613 15.4993 4 16.2632 4C17.6076 4 18.7333 4.45332 19.6401 5.35995C20.5467 6.26674 21 7.39237 21 8.73684C21 10.4434 20.3289 12.0439 18.9868 13.5383C17.6447 15.0328 16.1484 16.5246 14.4977 18.0137L13.1513 19.2363C12.9959 19.3917 12.8144 19.5058 12.6068 19.5788C12.399 19.6516 12.1937 19.6879 11.991 19.6879Z" fill="currentColor"/>
</svg>
