<svg width="16" height="16" viewBox="0 0 16 16" fill="none" xmlns="http://www.w3.org/2000/svg">
<path d="M4.02563 11.6667L2.69096 13.0012C2.50129 13.191 2.28313 13.234 2.03646 13.1302C1.7899 13.0264 1.66663 12.8394 1.66663 12.5692V2.87191C1.66663 2.53514 1.78329 2.25008 2.01663 2.01675C2.24996 1.78341 2.53501 1.66675 2.87179 1.66675H13.1281C13.4649 1.66675 13.75 1.78341 13.9833 2.01675C14.2166 2.25008 14.3333 2.53514 14.3333 2.87191V10.4616C14.3333 10.7984 14.2166 11.0834 13.9833 11.3167C13.75 11.5501 13.4649 11.6667 13.1281 11.6667H4.02563ZM3.59996 10.6667H13.1281C13.1795 10.6667 13.2265 10.6454 13.2691 10.6026C13.3119 10.5599 13.3333 10.5129 13.3333 10.4616V2.87191C13.3333 2.82058 13.3119 2.77358 13.2691 2.73091C13.2265 2.68814 13.1795 2.66675 13.1281 2.66675H2.87179C2.82046 2.66675 2.77346 2.68814 2.73079 2.73091C2.68801 2.77358 2.66663 2.82058 2.66663 2.87191V11.5899L3.59996 10.6667ZM5.33329 7.25641C5.49652 7.25641 5.63563 7.19897 5.75063 7.08408C5.86552 6.96908 5.92296 6.82997 5.92296 6.66675C5.92296 6.50353 5.86552 6.36442 5.75063 6.24942C5.63563 6.13453 5.49652 6.07708 5.33329 6.07708C5.17007 6.07708 5.03096 6.13453 4.91596 6.24942C4.80107 6.36442 4.74363 6.50353 4.74363 6.66675C4.74363 6.82997 4.80107 6.96908 4.91596 7.08408C5.03096 7.19897 5.17007 7.25641 5.33329 7.25641ZM7.99996 7.25641C8.16318 7.25641 8.30229 7.19897 8.41729 7.08408C8.53218 6.96908 8.58963 6.82997 8.58963 6.66675C8.58963 6.50353 8.53218 6.36442 8.41729 6.24942C8.30229 6.13453 8.16318 6.07708 7.99996 6.07708C7.83674 6.07708 7.69763 6.13453 7.58263 6.24942C7.46774 6.36442 7.41029 6.50353 7.41029 6.66675C7.41029 6.82997 7.46774 6.96908 7.58263 7.08408C7.69763 7.19897 7.83674 7.25641 7.99996 7.25641ZM10.6666 7.25641C10.8298 7.25641 10.969 7.19897 11.084 7.08408C11.1988 6.96908 11.2563 6.82997 11.2563 6.66675C11.2563 6.50353 11.1988 6.36442 11.084 6.24942C10.969 6.13453 10.8298 6.07708 10.6666 6.07708C10.5034 6.07708 10.3643 6.13453 10.2493 6.24942C10.1344 6.36442 10.077 6.50353 10.077 6.66675C10.077 6.82997 10.1344 6.96908 10.2493 7.08408C10.3643 7.19897 10.5034 7.25641 10.6666 7.25641Z" fill="currentColor"/>
</svg>
