<svg width="20" height="20" viewBox="0 0 20 20" fill="none" xmlns="http://www.w3.org/2000/svg">
<path d="M3.58971 17.9168C3.1754 17.9168 2.82075 17.7693 2.52575 17.4743C2.23075 17.1793 2.08325 16.8246 2.08325 16.4103V9.59301C2.08325 9.28982 2.16422 9.01183 2.32617 8.75905C2.48797 8.50627 2.71256 8.3185 2.99992 8.19572L6.02867 6.91843C6.27978 6.81801 6.51832 6.83683 6.74429 6.97488C6.97027 7.11294 7.08325 7.32009 7.08325 7.59634V8.11718L10.2162 6.86072C10.4673 6.7603 10.7023 6.78558 10.9214 6.93655C11.1404 7.08752 11.2499 7.29516 11.2499 7.55947V8.75009H17.9166V16.4103C17.9166 16.8246 17.7691 17.1793 17.4741 17.4743C17.1791 17.7693 16.8244 17.9168 16.4101 17.9168H3.58971ZM9.26283 14.8078H10.737V11.8591H9.26283V14.8078ZM5.9295 14.8078H7.40367V11.8591H5.9295V14.8078ZM12.5962 14.8078H14.0703V11.8591H12.5962V14.8078ZM17.782 7.75655H14.657L15.3012 2.9728C15.3237 2.80725 15.3978 2.67107 15.5235 2.56426C15.6493 2.45746 15.7942 2.40405 15.9583 2.40405H16.5864C16.7414 2.40405 16.8757 2.45593 16.9893 2.55968C17.1029 2.66343 17.17 2.79315 17.1905 2.94884L17.782 7.75655Z" fill="currentColor"/>
</svg>
