<svg width="20" height="20" viewBox="0 0 20 20" fill="none" xmlns="http://www.w3.org/2000/svg">
<path d="M5.93275 9.99998L9.50171 13.5608C9.61698 13.6762 9.67462 13.8053 9.67462 13.9479C9.67462 14.0905 9.61698 14.2196 9.50171 14.335C9.38087 14.4557 9.25184 14.516 9.11462 14.516C8.9774 14.516 8.84837 14.4557 8.72754 14.335L4.85754 10.4648C4.79337 10.4006 4.74525 10.3287 4.71316 10.2491C4.68108 10.1696 4.66504 10.0865 4.66504 9.99998C4.66504 9.91345 4.68108 9.8304 4.71316 9.75082C4.74525 9.67123 4.79337 9.59936 4.85754 9.53519L8.72754 5.66498C8.84296 5.5497 8.97198 5.49207 9.11462 5.49207C9.25726 5.49207 9.38629 5.5497 9.50171 5.66498C9.6224 5.78582 9.68275 5.91484 9.68275 6.05207C9.68275 6.18929 9.6224 6.31832 9.50171 6.43915L5.93275 9.99998ZM11.6619 9.99998L15.2309 13.5608C15.3462 13.6762 15.4038 13.8053 15.4038 13.9479C15.4038 14.0905 15.3462 14.2196 15.2309 14.335C15.11 14.4557 14.981 14.516 14.8438 14.516C14.7066 14.516 14.5775 14.4557 14.4567 14.335L10.5865 10.4648C10.5225 10.4006 10.4744 10.3287 10.4423 10.2491C10.4102 10.1696 10.3942 10.0865 10.3942 9.99998C10.3942 9.91345 10.4102 9.8304 10.4423 9.75082C10.4744 9.67123 10.5225 9.59936 10.5865 9.53519L14.4567 5.66498C14.5721 5.5497 14.7012 5.49207 14.8438 5.49207C14.9864 5.49207 15.1155 5.5497 15.2309 5.66498C15.3516 5.78582 15.4119 5.91484 15.4119 6.05207C15.4119 6.18929 15.3516 6.31832 15.2309 6.43915L11.6619 9.99998Z" fill="currentColor"/>
</svg>
