<svg width="16" height="16" viewBox="0 0 16 16" fill="none" xmlns="http://www.w3.org/2000/svg">
<path d="M2.33333 5.64117H13.6667V3.82717C13.6667 3.57606 13.5788 3.36262 13.403 3.18684C13.2272 3.01117 13.0138 2.92334 12.7628 2.92334H3.23716C2.98616 2.92334 2.77277 3.01117 2.597 3.18684C2.42122 3.36262 2.33333 3.57606 2.33333 3.82717V5.64117ZM2.33333 9.35917H13.6667V6.64117H2.33333V9.35917ZM3.23716 13.077H12.7628C13.0138 13.077 13.2272 12.9892 13.403 12.8135C13.5788 12.6377 13.6667 12.4243 13.6667 12.1732V10.3592H2.33333V12.1732C2.33333 12.4243 2.42122 12.6377 2.597 12.8135C2.77277 12.9892 2.98616 13.077 3.23716 13.077ZM3.85783 4.88484C3.68683 4.88484 3.54383 4.82695 3.42883 4.71117C3.31394 4.59551 3.25649 4.45217 3.25649 4.28117C3.25649 4.11006 3.31433 3.96706 3.42999 3.85217C3.54566 3.73717 3.68905 3.67967 3.86016 3.67967C4.03116 3.67967 4.17416 3.73751 4.28916 3.85317C4.40405 3.96895 4.46149 4.11234 4.46149 4.28334C4.46149 4.45445 4.40366 4.59745 4.28799 4.71234C4.17233 4.82734 4.02894 4.88484 3.85783 4.88484ZM3.85783 8.60267C3.68683 8.60267 3.54383 8.54484 3.42883 8.42917C3.31394 8.31351 3.25649 8.17012 3.25649 7.99901C3.25649 7.82801 3.31433 7.68501 3.42999 7.57001C3.54566 7.45512 3.68905 7.39767 3.86016 7.39767C4.03116 7.39767 4.17416 7.45551 4.28916 7.57117C4.40405 7.68684 4.46149 7.83023 4.46149 8.00134C4.46149 8.17234 4.40366 8.31534 4.28799 8.43034C4.17233 8.54523 4.02894 8.60267 3.85783 8.60267ZM3.85783 12.3207C3.68683 12.3207 3.54383 12.2628 3.42883 12.1472C3.31394 12.0314 3.25649 11.888 3.25649 11.717C3.25649 11.5459 3.31433 11.4029 3.42999 11.288C3.54566 11.173 3.68905 11.1155 3.86016 11.1155C4.03116 11.1155 4.17416 11.1734 4.28916 11.2892C4.40405 11.4048 4.46149 11.5482 4.46149 11.7192C4.46149 11.8903 4.40366 12.0333 4.28799 12.1482C4.17233 12.2632 4.02894 12.3207 3.85783 12.3207Z" fill="currentColor"/>
</svg>
