<svg width="24" height="24" viewBox="0 0 24 24" fill="none" xmlns="http://www.w3.org/2000/svg">
<path d="M5.54994 16.75V9.75C5.54994 9.56583 5.61177 9.41142 5.73544 9.28675C5.85911 9.16225 6.01227 9.1 6.19494 9.1C6.37777 9.1 6.53269 9.16225 6.65969 9.28675C6.78652 9.41142 6.84994 9.56583 6.84994 9.75V16.75C6.84994 16.9342 6.78811 17.0886 6.66444 17.2133C6.54077 17.3378 6.38761 17.4 6.20494 17.4C6.02211 17.4 5.86727 17.3378 5.74044 17.2133C5.61344 17.0886 5.54994 16.9342 5.54994 16.75ZM11.3499 16.75V9.75C11.3499 9.56583 11.4118 9.41142 11.5354 9.28675C11.6591 9.16225 11.8123 9.1 11.9949 9.1C12.1778 9.1 12.3326 9.16225 12.4594 9.28675C12.5864 9.41142 12.6499 9.56583 12.6499 9.75V16.75C12.6499 16.9342 12.5881 17.0886 12.4644 17.2133C12.3408 17.3378 12.1876 17.4 12.0049 17.4C11.8221 17.4 11.6673 17.3378 11.5404 17.2133C11.4134 17.0886 11.3499 16.9342 11.3499 16.75ZM3.81919 19.9C3.63502 19.9 3.48069 19.8382 3.35619 19.7145C3.23152 19.5908 3.16919 19.4377 3.16919 19.255C3.16919 19.0722 3.23152 18.9173 3.35619 18.7905C3.48069 18.6635 3.63502 18.6 3.81919 18.6H20.1807C20.3649 18.6 20.5192 18.6618 20.6437 18.7855C20.7684 18.9092 20.8307 19.0623 20.8307 19.245C20.8307 19.4278 20.7684 19.5827 20.6437 19.7095C20.5192 19.8365 20.3649 19.9 20.1807 19.9H3.81919ZM17.1499 16.75V9.75C17.1499 9.56583 17.2118 9.41142 17.3354 9.28675C17.4591 9.16225 17.6123 9.1 17.7949 9.1C17.9778 9.1 18.1326 9.16225 18.2594 9.28675C18.3864 9.41142 18.4499 9.56583 18.4499 9.75V16.75C18.4499 16.9342 18.3881 17.0886 18.2644 17.2133C18.1408 17.3378 17.9876 17.4 17.8049 17.4C17.6221 17.4 17.4672 17.3378 17.3402 17.2133C17.2134 17.0886 17.1499 16.9342 17.1499 16.75ZM19.9192 7.9H3.98469C3.75819 7.9 3.56561 7.82125 3.40694 7.66375C3.24844 7.50625 3.16919 7.31508 3.16919 7.09025V6.59525C3.16919 6.44842 3.21011 6.30283 3.29194 6.1585C3.37394 6.01433 3.48494 5.91275 3.62494 5.85375L11.3057 2.1C11.5239 1.9795 11.7549 1.91925 11.9987 1.91925C12.2425 1.91925 12.4744 1.9795 12.6942 2.1L20.3344 5.82875C20.4768 5.90958 20.595 6.02017 20.6892 6.1605C20.7835 6.301 20.8307 6.45858 20.8307 6.63325V6.991C20.8307 7.25233 20.7445 7.46917 20.5722 7.6415C20.3999 7.81383 20.1822 7.9 19.9192 7.9ZM5.09019 6.6H18.9097L12.1347 3.28275C12.0897 3.26342 12.0448 3.25375 11.9999 3.25375C11.9551 3.25375 11.9102 3.26342 11.8652 3.28275L5.09019 6.6Z" fill="currentColor"/>
</svg>
