<svg width="24" height="24" viewBox="0 0 24 24" fill="none" xmlns="http://www.w3.org/2000/svg">
<path d="M5.61523 18.1V19.1423C5.61523 19.3527 5.54148 19.5317 5.39398 19.679C5.24648 19.8263 5.06731 19.9 4.85648 19.9C4.64581 19.9 4.46706 19.8263 4.32023 19.679C4.17339 19.5317 4.09998 19.3527 4.09998 19.1423V12.3913C4.09998 12.2924 4.11089 12.1935 4.13273 12.0945C4.15456 11.9957 4.18139 11.8903 4.21323 11.7785L5.95873 7.50175C6.07539 7.20075 6.27014 6.95858 6.54298 6.77525C6.81581 6.59175 7.11364 6.5 7.43648 6.5H16.5635C16.8863 6.5 17.1841 6.59175 17.457 6.77525C17.7298 6.95858 17.9246 7.20075 18.0412 7.50175L19.7867 11.7785C19.8186 11.8903 19.8454 11.9957 19.8672 12.0945C19.8891 12.1935 19.9 12.2924 19.9 12.3913V19.1423C19.9 19.3527 19.8262 19.5317 19.6787 19.679C19.5311 19.8263 19.3519 19.9 19.1412 19.9C18.9304 19.9 18.7516 19.8263 18.6047 19.679C18.4581 19.5317 18.3847 19.3527 18.3847 19.1423V18.1H5.61523ZM5.83273 11.377H18.1672L16.8327 8.002C16.8071 7.93783 16.7686 7.88817 16.7172 7.853C16.6659 7.81767 16.605 7.8 16.5345 7.8H7.46548C7.39498 7.8 7.33406 7.81767 7.28273 7.853C7.23139 7.88817 7.19289 7.93783 7.16723 8.002L5.83273 11.377ZM7.76373 15.7463C8.04423 15.7463 8.28198 15.648 8.47698 15.4515C8.67181 15.2552 8.76923 15.0168 8.76923 14.7363C8.76923 14.4558 8.67106 14.218 8.47473 14.023C8.27823 13.8282 8.03973 13.7308 7.75923 13.7308C7.47873 13.7308 7.24106 13.8289 7.04623 14.0253C6.85123 14.2218 6.75373 14.4603 6.75373 14.7408C6.75373 15.0213 6.85198 15.2589 7.04848 15.4537C7.24481 15.6488 7.48323 15.7463 7.76373 15.7463ZM16.2407 15.7463C16.5212 15.7463 16.7589 15.648 16.9537 15.4515C17.1487 15.2552 17.2462 15.0168 17.2462 14.7363C17.2462 14.4558 17.148 14.218 16.9515 14.023C16.7551 13.8282 16.5167 13.7308 16.2362 13.7308C15.9557 13.7308 15.718 13.8289 15.523 14.0253C15.3281 14.2218 15.2307 14.4603 15.2307 14.7408C15.2307 15.0213 15.3289 15.2589 15.5252 15.4537C15.7217 15.6488 15.9602 15.7463 16.2407 15.7463ZM5.39998 16.8H18.6V12.677H5.39998V16.8Z" fill="currentColor"/>
</svg>
