<svg width="24" height="24" viewBox="0 0 24 24" fill="none" xmlns="http://www.w3.org/2000/svg">
<path d="M3.0947 18C2.89787 18 2.73293 17.9359 2.59988 17.8078C2.46664 17.6796 2.40002 17.5209 2.40002 17.3316C2.40002 17.1422 2.46664 16.9818 2.59988 16.8503C2.73293 16.7187 2.89787 16.6529 3.0947 16.6529H11.729C11.9258 16.6529 12.0907 16.717 12.2238 16.8452C12.3568 16.9733 12.4234 17.132 12.4234 17.3213C12.4234 17.5107 12.3568 17.6712 12.2238 17.8026C12.0907 17.9342 11.9258 18 11.729 18H3.0947ZM3.0947 13.4467C2.89787 13.4467 2.73293 13.3826 2.59988 13.2545C2.46664 13.1263 2.40002 12.9676 2.40002 12.7783C2.40002 12.5889 2.46664 12.4284 2.59988 12.297C2.73293 12.1654 2.89787 12.0996 3.0947 12.0996H6.5475C6.74432 12.0996 6.90935 12.1637 7.04259 12.2918C7.17564 12.42 7.24217 12.5787 7.24217 12.768C7.24217 12.9574 7.17564 13.1179 7.04259 13.2495C6.90935 13.381 6.74432 13.4467 6.5475 13.4467H3.0947ZM3.0947 8.89334C2.89787 8.89334 2.73293 8.82926 2.59988 8.70112C2.46664 8.57315 2.40002 8.41444 2.40002 8.22499C2.40002 8.03553 2.46664 7.87509 2.59988 7.74367C2.73293 7.61207 2.89787 7.54627 3.0947 7.54627H6.5475C6.74432 7.54627 6.90935 7.61034 7.04259 7.73849C7.17564 7.86663 7.24217 8.02543 7.24217 8.21488C7.24217 8.40416 7.17564 8.5646 7.04259 8.6962C6.90935 8.82762 6.74432 8.89334 6.5475 8.89334H3.0947ZM14.008 14.9212C12.7281 14.9212 11.6371 14.4872 10.735 13.6192C9.83286 12.751 9.38177 11.6963 9.38177 10.4549C9.38177 9.21335 9.83366 8.16048 10.7375 7.29629C11.6412 6.4321 12.7343 6 14.0166 6C15.2989 6 16.3891 6.43348 17.2872 7.30043C18.1853 8.16739 18.6343 9.21914 18.6343 10.4557C18.6343 10.9539 18.5569 11.4272 18.4021 11.8755C18.2473 12.3239 18.0274 12.7333 17.7424 13.1039L21.3636 16.5851C21.5212 16.7291 21.6 16.8844 21.6 17.0508C21.6 17.2173 21.5226 17.3756 21.3678 17.5257C21.2221 17.6692 21.059 17.7409 20.8784 17.7409C20.6978 17.7409 20.5286 17.6685 20.371 17.5236L16.7499 14.0663C16.3607 14.3361 15.9349 14.546 15.4725 14.6961C15.0101 14.8461 14.5219 14.9212 14.008 14.9212ZM14.008 13.5741C14.9072 13.5741 15.6715 13.2719 16.301 12.6674C16.9305 12.063 17.2452 11.3274 17.2452 10.4606C17.2452 9.59381 16.9305 8.85819 16.301 8.25374C15.6715 7.64929 14.9072 7.34706 14.008 7.34706C13.1089 7.34706 12.3446 7.64929 11.7151 8.25374C11.0858 8.85819 10.7711 9.59381 10.7711 10.4606C10.7711 11.3274 11.0858 12.063 11.7151 12.6674C12.3446 13.2719 13.1089 13.5741 14.008 13.5741Z" fill="currentColor"/>
</svg>
