<svg width="24" height="24" viewBox="0 0 24 24" fill="none" xmlns="http://www.w3.org/2000/svg">
<path d="M21.1 6.9078V17.0923C21.1 17.5308 20.9446 17.9084 20.6338 18.225C20.3229 18.5417 19.9424 18.7 19.4923 18.7H4.50777C4.06927 18.7 3.69169 18.5417 3.37502 18.225C3.05836 17.9084 2.90002 17.5308 2.90002 17.0923V6.9078C2.90002 6.4693 3.05836 6.09172 3.37502 5.77505C3.69169 5.45838 4.06927 5.30005 4.50777 5.30005H19.4923C19.9424 5.30005 20.3229 5.45838 20.6338 5.77505C20.9446 6.09172 21.1 6.4693 21.1 6.9078ZM4.20002 8.80405H19.8V6.9078C19.8 6.8308 19.7679 6.7603 19.7038 6.6963C19.6398 6.63213 19.5693 6.60005 19.4923 6.60005H4.50777C4.43077 6.60005 4.36027 6.63213 4.29627 6.6963C4.23211 6.7603 4.20002 6.8308 4.20002 6.9078V8.80405ZM4.20002 11.596V17.0923C4.20002 17.1693 4.23211 17.2398 4.29627 17.3038C4.36027 17.368 4.43077 17.4 4.50777 17.4H19.4923C19.5693 17.4 19.6398 17.368 19.7038 17.3038C19.7679 17.2398 19.8 17.1693 19.8 17.0923V11.596H4.20002Z" fill="currentColor"/>
</svg>
