<svg width="20" height="20" viewBox="0 0 20 20" fill="none" xmlns="http://www.w3.org/2000/svg">
<path d="M9.37501 6.14421L5.0673 10.4519C4.94341 10.5758 4.79841 10.637 4.6323 10.6355C4.46619 10.6338 4.31848 10.5684 4.18917 10.4392C4.06848 10.3099 4.00598 10.1635 4.00167 10C3.99737 9.83657 4.05987 9.69018 4.18917 9.56088L9.47271 4.27733C9.55077 4.19928 9.63306 4.14428 9.71959 4.11233C9.80612 4.08025 9.89959 4.06421 10 4.06421C10.1004 4.06421 10.1939 4.08025 10.2804 4.11233C10.367 4.14428 10.4492 4.19928 10.5273 4.27733L15.8108 9.56088C15.9263 9.67629 15.9853 9.81921 15.9879 9.98963C15.9906 10.16 15.9315 10.3099 15.8108 10.4392C15.6815 10.5684 15.5331 10.633 15.3654 10.633C15.1976 10.633 15.0491 10.5684 14.9198 10.4392L10.625 6.14421V15.625C10.625 15.8024 10.5651 15.9509 10.4454 16.0705C10.3258 16.1902 10.1774 16.25 10 16.25C9.82265 16.25 9.67417 16.1902 9.55459 16.0705C9.43487 15.9509 9.37501 15.8024 9.37501 15.625V6.14421Z" fill="currentColor"/>
</svg>
