<svg width="16" height="16" viewBox="0 0 16 16" fill="none" xmlns="http://www.w3.org/2000/svg">
<path d="M6.73337 8.73071V7.26937C6.73337 7.11749 6.78476 6.99021 6.88754 6.88754C6.99021 6.78476 7.11749 6.73337 7.26937 6.73337H8.73071C8.8826 6.73337 9.00987 6.78476 9.11254 6.88754C9.21532 6.99021 9.26671 7.11749 9.26671 7.26937V8.73071C9.26671 8.8826 9.21532 9.00987 9.11254 9.11254C9.00987 9.21532 8.8826 9.26671 8.73071 9.26671H7.26937C7.11749 9.26671 6.99021 9.21532 6.88754 9.11254C6.78476 9.00987 6.73337 8.8826 6.73337 8.73071ZM6.16671 12.6795V11.6667H5.40521C5.11287 11.6667 4.86115 11.5612 4.65004 11.35C4.43893 11.1389 4.33337 10.8872 4.33337 10.5949V9.83337H3.32054C3.19776 9.83337 3.09487 9.79215 3.01187 9.70971C2.92876 9.62726 2.88721 9.52515 2.88721 9.40337C2.88721 9.28149 2.92876 9.17826 3.01187 9.09371C3.09487 9.00904 3.19776 8.96671 3.32054 8.96671H4.33337V7.03337H3.32054C3.19776 7.03337 3.09487 6.99215 3.01187 6.90971C2.92876 6.82726 2.88721 6.72515 2.88721 6.60337C2.88721 6.48149 2.92876 6.37826 3.01187 6.29371C3.09487 6.20904 3.19776 6.16671 3.32054 6.16671H4.33337V5.40521C4.33337 5.11287 4.43893 4.86115 4.65004 4.65004C4.86115 4.43893 5.11287 4.33337 5.40521 4.33337H6.16671V3.32054C6.16671 3.19776 6.20793 3.09487 6.29037 3.01187C6.37282 2.92876 6.47493 2.88721 6.59671 2.88721C6.7186 2.88721 6.82182 2.92876 6.90637 3.01187C6.99104 3.09487 7.03337 3.19776 7.03337 3.32054V4.33337H8.96671V3.32054C8.96671 3.19776 9.00793 3.09487 9.09037 3.01187C9.17282 2.92876 9.27493 2.88721 9.39671 2.88721C9.5186 2.88721 9.62182 2.92876 9.70637 3.01187C9.79104 3.09487 9.83337 3.19776 9.83337 3.32054V4.33337H10.5949C10.8872 4.33337 11.1389 4.43893 11.35 4.65004C11.5612 4.86115 11.6667 5.11287 11.6667 5.40521V6.16671H12.6795C12.8023 6.16671 12.9052 6.20793 12.9882 6.29037C13.0713 6.37282 13.1129 6.47493 13.1129 6.59671C13.1129 6.7186 13.0713 6.82182 12.9882 6.90637C12.9052 6.99104 12.8023 7.03337 12.6795 7.03337H11.6667V8.96671H12.6795C12.8023 8.96671 12.9052 9.00793 12.9882 9.09037C13.0713 9.17282 13.1129 9.27493 13.1129 9.39671C13.1129 9.5186 13.0713 9.62182 12.9882 9.70637C12.9052 9.79104 12.8023 9.83337 12.6795 9.83337H11.6667V10.5949C11.6667 10.8872 11.5612 11.1389 11.35 11.35C11.1389 11.5612 10.8872 11.6667 10.5949 11.6667H9.83337V12.6795C9.83337 12.8023 9.79215 12.9052 9.70971 12.9882C9.62726 13.0713 9.52515 13.1129 9.40337 13.1129C9.28149 13.1129 9.17826 13.0713 9.09371 12.9882C9.00904 12.9052 8.96671 12.8023 8.96671 12.6795V11.6667H7.03337V12.6795C7.03337 12.8023 6.99215 12.9052 6.90971 12.9882C6.82726 13.0713 6.72515 13.1129 6.60337 13.1129C6.48149 13.1129 6.37826 13.0713 6.29371 12.9882C6.20904 12.9052 6.16671 12.8023 6.16671 12.6795ZM10.5949 10.8C10.6462 10.8 10.6932 10.7787 10.7359 10.7359C10.7787 10.6932 10.8 10.6462 10.8 10.5949V5.40521C10.8 5.35387 10.7787 5.30687 10.7359 5.26421C10.6932 5.22143 10.6462 5.20004 10.5949 5.20004H5.40521C5.35387 5.20004 5.30687 5.22143 5.26421 5.26421C5.22143 5.30687 5.20004 5.35387 5.20004 5.40521V10.5949C5.20004 10.6462 5.22143 10.6932 5.26421 10.7359C5.30687 10.7787 5.35387 10.8 5.40521 10.8H10.5949Z" fill="currentColor"/>
</svg>
