<svg width="20" height="20" viewBox="0 0 20 20" fill="none" xmlns="http://www.w3.org/2000/svg">
<path d="M4.65225 16.5833C4.31114 16.5833 4.01989 16.4627 3.7785 16.2214C3.53725 15.9801 3.41663 15.6888 3.41663 15.3477V4.65228C3.41663 4.31117 3.53725 4.01992 3.7785 3.77853C4.01989 3.53728 4.31114 3.41666 4.65225 3.41666H15.3477C15.6888 3.41666 15.98 3.53728 16.2214 3.77853C16.4627 4.01992 16.5833 4.31117 16.5833 4.65228V15.3477C16.5833 15.6888 16.4627 15.9801 16.2214 16.2214C15.98 16.4627 15.6888 16.5833 15.3477 16.5833H4.65225ZM11.9166 15.5V4.49999H4.75642C4.69225 4.49999 4.6335 4.52673 4.58017 4.5802C4.5267 4.63353 4.49996 4.69228 4.49996 4.75645V15.2435C4.49996 15.3077 4.5267 15.3664 4.58017 15.4198C4.6335 15.4733 4.69225 15.5 4.75642 15.5H11.9166Z" fill="currentColor"/>
</svg>
