<svg width="20" height="20" viewBox="0 0 20 20" fill="none" xmlns="http://www.w3.org/2000/svg">
<path d="M12.4439 5.72098C12.2669 5.72098 12.1184 5.66112 11.9985 5.5414C11.8788 5.42154 11.8189 5.273 11.8189 5.09577C11.8189 4.91869 11.8788 4.77029 11.9985 4.65057C12.1184 4.53098 12.2669 4.47119 12.4439 4.47119H17.4439C17.621 4.47119 17.7694 4.53112 17.8892 4.65098C18.009 4.77071 18.0689 4.91918 18.0689 5.0964C18.0689 5.27348 18.009 5.42189 17.8892 5.54161C17.7694 5.66119 17.621 5.72098 17.4439 5.72098H12.4439ZM12.4439 8.95827C12.2669 8.95827 12.1184 8.89834 11.9985 8.77848C11.8788 8.65862 11.8189 8.51015 11.8189 8.33307C11.8189 8.15584 11.8788 8.00744 11.9985 7.88786C12.1184 7.76814 12.2669 7.70827 12.4439 7.70827H17.4439C17.621 7.70827 17.7694 7.76821 17.8892 7.88807C18.009 8.00793 18.0689 8.1564 18.0689 8.33348C18.0689 8.51071 18.009 8.65911 17.8892 8.77869C17.7694 8.89841 17.621 8.95827 17.4439 8.95827H12.4439ZM12.4439 12.1954C12.2669 12.1954 12.1184 12.1354 11.9985 12.0156C11.8788 11.8958 11.8189 11.7474 11.8189 11.5701C11.8189 11.3931 11.8788 11.2447 11.9985 11.1249C12.1184 11.0054 12.2669 10.9456 12.4439 10.9456H17.4439C17.621 10.9456 17.7694 11.0054 17.8892 11.1252C18.009 11.245 18.0689 11.3936 18.0689 11.5708C18.0689 11.7479 18.009 11.8963 17.8892 12.016C17.7694 12.1356 17.621 12.1954 17.4439 12.1954H12.4439ZM6.61249 11.5064C6.00763 11.5064 5.49284 11.2947 5.06811 10.8712C4.64339 10.4477 4.43103 9.93355 4.43103 9.32869C4.43103 8.72383 4.64277 8.20911 5.06624 7.78452C5.48971 7.3598 6.00388 7.14744 6.60874 7.14744C7.2136 7.14744 7.72839 7.35911 8.15311 7.78244C8.5777 8.20591 8.78999 8.72008 8.78999 9.32494C8.78999 9.9298 8.57832 10.4446 8.15499 10.8693C7.73152 11.294 7.21735 11.5064 6.61249 11.5064ZM1.93103 15.4327V14.9231C1.93103 14.6865 1.98846 14.4613 2.10332 14.2472C2.21818 14.0332 2.37659 13.8632 2.57853 13.7372C3.18214 13.3835 3.81916 13.1156 4.48957 12.9335C5.16013 12.7513 5.86714 12.6602 6.61061 12.6602C7.35409 12.6602 8.06103 12.7513 8.73145 12.9335C9.40186 13.1156 10.0389 13.3835 10.6427 13.7372C10.8445 13.8632 11.0028 14.0332 11.1177 14.2472C11.2326 14.4613 11.29 14.6865 11.29 14.9231V15.4327C11.29 15.646 11.2178 15.8249 11.0735 15.9693C10.9291 16.1136 10.7502 16.1858 10.5369 16.1858H2.68436C2.47089 16.1858 2.292 16.1136 2.1477 15.9693C2.00325 15.8249 1.93103 15.646 1.93103 15.4327ZM3.25791 14.8077V14.9358H9.96311V14.8077C9.44492 14.5138 8.90298 14.2907 8.33728 14.1385C7.77159 13.9863 7.19603 13.9102 6.61061 13.9102C6.02506 13.9102 5.44943 13.9863 4.88374 14.1385C4.31804 14.2907 3.7761 14.5138 3.25791 14.8077ZM6.61061 10.2564C6.86811 10.2564 7.08735 10.1658 7.26832 9.98473C7.44943 9.80362 7.53999 9.58432 7.53999 9.32682C7.53999 9.06932 7.44943 8.85008 7.26832 8.66911C7.08735 8.488 6.86811 8.39744 6.61061 8.39744C6.35311 8.39744 6.13381 8.488 5.9527 8.66911C5.77159 8.85008 5.68103 9.06932 5.68103 9.32682C5.68103 9.58432 5.77159 9.80362 5.9527 9.98473C6.13381 10.1658 6.35311 10.2564 6.61061 10.2564Z" fill="currentColor"/>
</svg>
