<svg width="16" height="16" viewBox="0 0 16 16" fill="none" xmlns="http://www.w3.org/2000/svg">
<path d="M7.99673 10.0013C7.92528 10.0013 7.85884 9.98852 7.79739 9.96285C7.73595 9.93718 7.67956 9.89874 7.62823 9.84752L4.53773 6.75685C4.44173 6.66085 4.39539 6.55685 4.39873 6.44485C4.40217 6.33296 4.45217 6.22868 4.54873 6.13202C4.64539 6.03546 4.74862 5.98718 4.85839 5.98718C4.96817 5.98718 5.07139 6.03546 5.16806 6.13202L8.00006 8.98085L10.8487 6.13202C10.9411 6.03979 11.0432 5.99535 11.1552 5.99868C11.2671 6.00213 11.3714 6.05213 11.4681 6.14868C11.5646 6.24535 11.6129 6.34857 11.6129 6.45835C11.6129 6.56813 11.5627 6.6729 11.4624 6.77268L8.37189 9.84752C8.31612 9.89874 8.25751 9.93718 8.19606 9.96285C8.13462 9.98852 8.06817 10.0013 7.99673 10.0013Z" fill="currentColor"/>
</svg>
