<svg width="20" height="20" viewBox="0 0 20 20" fill="none" xmlns="http://www.w3.org/2000/svg">
<path d="M2.83459 16.6668C2.62111 16.6668 2.44257 16.5946 2.29896 16.4501C2.15521 16.3057 2.08334 16.1267 2.08334 15.9133V11.3924C2.08334 11.179 2.15556 11.0004 2.3 10.8568C2.44445 10.7131 2.62341 10.6412 2.83688 10.6412H7.35771C7.57118 10.6412 7.74973 10.7134 7.89334 10.8579C8.03709 11.0023 8.10896 11.1813 8.10896 11.3947V15.9156C8.10896 16.129 8.03674 16.3076 7.89229 16.4512C7.74785 16.5949 7.56889 16.6668 7.35542 16.6668H2.83459ZM3.33334 15.4168H6.85896V11.8912H3.33334V15.4168ZM11.9342 7.91681H6.59146C6.30396 7.91681 6.08841 7.78778 5.94479 7.52973C5.80104 7.27167 5.80452 7.01716 5.95521 6.76619L8.61854 2.40077C8.77035 2.15507 8.98542 2.03223 9.26375 2.03223C9.54195 2.03223 9.75639 2.15507 9.90709 2.40077L12.5704 6.76619C12.7211 7.01716 12.7246 7.27167 12.5808 7.52973C12.4372 7.78778 12.2217 7.91681 11.9342 7.91681ZM7.46146 6.66681H11.0642L9.26292 3.76931L7.46146 6.66681ZM17.556 18.2212L15.8029 16.4681C15.5272 16.6678 15.2246 16.8203 14.895 16.9256C14.5654 17.0308 14.2158 17.0835 13.8463 17.0835C12.89 17.0835 12.0794 16.7509 11.4144 16.0858C10.7492 15.4208 10.4167 14.6101 10.4167 13.6539C10.4167 12.6978 10.7492 11.8872 11.4144 11.222C12.0794 10.557 12.89 10.2245 13.8463 10.2245C14.8024 10.2245 15.613 10.557 16.2781 11.222C16.9431 11.8872 17.2756 12.6978 17.2756 13.6539C17.2756 14.015 17.223 14.359 17.1177 14.686C17.0126 15.0129 16.867 15.3142 16.681 15.5899L18.4344 17.3431C18.5497 17.4585 18.6087 17.6035 18.6115 17.7783C18.6141 17.9529 18.5551 18.1005 18.4344 18.2212C18.3135 18.342 18.1672 18.4024 17.9952 18.4024C17.8233 18.4024 17.6769 18.342 17.556 18.2212ZM13.8458 15.8335C14.4561 15.8335 14.972 15.6228 15.3935 15.2014C15.8149 14.7801 16.0256 14.2644 16.0256 13.6543C16.0256 13.044 15.815 12.5281 15.3938 12.1066C14.9724 11.6852 14.4566 11.4745 13.8465 11.4745C13.2362 11.4745 12.7203 11.6851 12.299 12.1064C11.8774 12.5278 11.6667 13.0435 11.6667 13.6537C11.6667 14.264 11.8774 14.7798 12.2988 15.2012C12.72 15.6227 13.2357 15.8335 13.8458 15.8335Z" fill="currentColor"/>
</svg>
