<svg width="24" height="24" viewBox="0 0 24 24" fill="none" xmlns="http://www.w3.org/2000/svg">
<path d="M4.50777 18.7C4.05761 18.7 3.67711 18.5445 3.36627 18.2335C3.05544 17.9225 2.90002 17.5418 2.90002 17.0913V6.9008C2.90002 6.4503 3.05544 6.07088 3.36627 5.76255C3.67711 5.45422 4.05761 5.30005 4.50777 5.30005H19.4923C19.9424 5.30005 20.3229 5.45555 20.6338 5.76655C20.9446 6.07755 21.1 6.4583 21.1 6.9088V17.0993C21.1 17.5498 20.9446 17.9292 20.6338 18.2375C20.3229 18.5459 19.9424 18.7 19.4923 18.7H4.50777ZM12 12.6423C12.0754 12.6423 12.1497 12.6298 12.223 12.6048C12.2964 12.5798 12.3675 12.5455 12.4365 12.502L19.4135 8.39805C19.5275 8.32755 19.6124 8.22838 19.6683 8.10055C19.7241 7.97272 19.7424 7.8373 19.723 7.6943C19.7102 7.44047 19.5865 7.25488 19.352 7.13755C19.1174 7.02022 18.8802 7.02755 18.6405 7.15955L12 11.075L5.38452 7.18455C5.15119 7.05255 4.91311 7.0378 4.67027 7.1403C4.42727 7.24297 4.29619 7.42438 4.27702 7.68455C4.25769 7.81922 4.28011 7.95255 4.34427 8.08455C4.40844 8.21672 4.49752 8.32122 4.61152 8.39805L11.5885 12.502C11.6499 12.5455 11.7129 12.5798 11.7778 12.6048C11.8426 12.6298 11.9167 12.6423 12 12.6423Z" fill="currentColor"/>
</svg>
