<svg width="16" height="16" viewBox="0 0 16 16" fill="none" xmlns="http://www.w3.org/2000/svg">
<path d="M3.80511 14.0666C3.505 14.0666 3.25133 13.9611 3.04411 13.7499C2.83689 13.5388 2.73328 13.2871 2.73328 12.9948V4.60511C2.73328 4.31278 2.83689 4.06106 3.04411 3.84995C3.25133 3.63883 3.505 3.53328 3.80511 3.53328H5.26144V2.30245C5.26144 2.17522 5.30367 2.06906 5.38811 1.98394C5.47255 1.89894 5.57789 1.85645 5.70411 1.85645C5.83044 1.85645 5.93694 1.89894 6.02361 1.98394C6.11039 2.06906 6.15378 2.17522 6.15378 2.30245V3.53328H9.87178V2.28978C9.87178 2.16678 9.91289 2.06378 9.99511 1.98078C10.0774 1.89789 10.1796 1.85645 10.3016 1.85645C10.4236 1.85645 10.5269 1.89789 10.6114 1.98078C10.6961 2.06378 10.7384 2.16678 10.7384 2.28978V3.53328H12.1948C12.4949 3.53328 12.7486 3.63883 12.9558 3.84995C13.163 4.06106 13.2666 4.31278 13.2666 4.60511V12.9948C13.2666 13.2871 13.163 13.5388 12.9558 13.7499C12.7486 13.9611 12.4949 14.0666 12.1948 14.0666H3.80511ZM3.80511 13.1999H12.1948C12.2461 13.1999 12.2931 13.1786 12.3358 13.1358C12.3786 13.0931 12.3999 13.0461 12.3999 12.9948V7.40511H3.59994V12.9948C3.59994 13.0461 3.62133 13.0931 3.66411 13.1358C3.70678 13.1786 3.75378 13.1999 3.80511 13.1999Z" fill="currentColor"/>
</svg>
