<svg width="16" height="16" viewBox="0 0 16 16" fill="none" xmlns="http://www.w3.org/2000/svg">
<path d="M11.778 2.83325C12.913 2.83337 13.8335 3.75384 13.8336 4.88892V11.1116C13.8333 12.2465 12.9129 13.1661 11.778 13.1663H4.22229C3.1227 13.1661 2.22473 12.3029 2.16956 11.217L2.16663 11.1116V4.88892C2.16674 3.75384 3.08721 2.83337 4.22229 2.83325H11.778ZM4.22229 3.83325C3.6395 3.83337 3.16674 4.30612 3.16663 4.88892V11.1116L3.17151 11.219C3.22555 11.7512 3.67585 12.1661 4.22229 12.1663H11.778C12.3606 12.1661 12.8333 11.6942 12.8336 11.1116V4.88892C12.8335 4.30612 12.3607 3.83337 11.778 3.83325H4.22229ZM6.16663 4.66626C6.44266 4.66626 6.66645 4.89027 6.66663 5.16626V10.8333C6.66663 11.1094 6.44277 11.3333 6.16663 11.3333C5.89051 11.3332 5.66663 11.1094 5.66663 10.8333V5.16626C5.6668 4.89029 5.89062 4.66629 6.16663 4.66626Z" fill="currentColor"/>
</svg>
