<svg width="20" height="20" viewBox="0 0 20 20" fill="none" xmlns="http://www.w3.org/2000/svg">
<path d="M5.08175 14.2227C5.83175 13.711 6.61383 13.3307 7.428 13.0816C8.24203 12.8327 9.09939 12.7083 10.0001 12.7083C10.9008 12.7083 11.7581 12.8327 12.5722 13.0816C13.3863 13.3307 14.1684 13.711 14.9184 14.2227C15.4365 13.6532 15.8296 13.0079 16.0978 12.2868C16.366 11.5657 16.5001 10.8034 16.5001 9.99996C16.5001 8.19899 15.8665 6.66538 14.5995 5.39913C13.3324 4.13301 11.7977 3.49996 9.99529 3.49996C8.19293 3.49996 6.6598 4.13301 5.39591 5.39913C4.13203 6.66538 3.50008 8.19899 3.50008 9.99996C3.50008 10.8034 3.63418 11.5657 3.90237 12.2868C4.17057 13.0079 4.56369 13.6532 5.08175 14.2227ZM10.0001 11.2916C9.2255 11.2916 8.56661 11.02 8.02341 10.4766C7.48008 9.93343 7.20842 9.27454 7.20842 8.49996C7.20842 7.72538 7.48008 7.06649 8.02341 6.52329C8.56661 5.97996 9.2255 5.70829 10.0001 5.70829C10.7747 5.70829 11.4336 5.97996 11.9767 6.52329C12.5201 7.06649 12.7917 7.72538 12.7917 8.49996C12.7917 9.27454 12.5201 9.93343 11.9767 10.4766C11.4336 11.02 10.7747 11.2916 10.0001 11.2916ZM10.0059 17.5833C8.95828 17.5833 7.97369 17.387 7.05217 16.9943C6.13064 16.6017 5.32404 16.0595 4.63237 15.3677C3.94057 14.676 3.39835 13.8697 3.00571 12.9487C2.61307 12.0279 2.41675 11.0418 2.41675 9.99038C2.41675 8.93913 2.61307 7.95621 3.00571 7.04163C3.39835 6.12704 3.94057 5.32392 4.63237 4.63225C5.32404 3.94044 6.13036 3.39822 7.05133 3.00558C7.97216 2.61295 8.95828 2.41663 10.0097 2.41663C11.0609 2.41663 12.0438 2.61295 12.9584 3.00558C13.873 3.39822 14.6761 3.94044 15.3678 4.63225C16.0596 5.32392 16.6018 6.12857 16.9945 7.04621C17.3871 7.96399 17.5834 8.94663 17.5834 9.99413C17.5834 11.0418 17.3871 12.0263 16.9945 12.9479C16.6018 13.8694 16.0596 14.676 15.3678 15.3677C14.6761 16.0595 13.8715 16.6017 12.9538 16.9943C12.0361 17.387 11.0534 17.5833 10.0059 17.5833Z" fill="currentColor"/>
</svg>
