<svg width="20" height="20" viewBox="0 0 20 20" fill="none" xmlns="http://www.w3.org/2000/svg">
<path d="M2.92969 13.9109V6.09044C2.92969 5.67614 3.07719 5.32148 3.37219 5.02648C3.66719 4.73148 4.02177 4.58398 4.43594 4.58398H15.577C15.9913 4.58398 16.3459 4.73148 16.6409 5.02648C16.9359 5.32148 17.0834 5.67614 17.0834 6.09044V13.9109C17.0834 14.3252 16.9359 14.6798 16.6409 14.9748C16.3459 15.2698 15.9913 15.4173 15.577 15.4173H4.43594C4.02177 15.4173 3.66719 15.2698 3.37219 14.9748C3.07719 14.6798 2.92969 14.3252 2.92969 13.9109ZM4.42323 14.1673H7.21802V5.83398H4.42323C4.35906 5.83398 4.30031 5.86072 4.24698 5.91419C4.19351 5.96753 4.16677 6.02628 4.16677 6.09044V13.9109C4.16677 13.975 4.19351 14.0338 4.24698 14.0871C4.30031 14.1406 4.35906 14.1673 4.42323 14.1673ZM8.46802 14.1673H11.5193V5.83398H8.46802V14.1673ZM12.7693 14.1673H15.5643C15.6283 14.1673 15.687 14.1406 15.7405 14.0871C15.7939 14.0338 15.8205 13.975 15.8205 13.9109V6.09044C15.8205 6.02628 15.7939 5.96753 15.7405 5.91419C15.687 5.86072 15.6283 5.83398 15.5643 5.83398H12.7693V14.1673Z" fill="currentColor"/>
</svg>
