<svg width="16" height="16" viewBox="0 0 16 16" fill="none" xmlns="http://www.w3.org/2000/svg">
<path d="M3.69996 11.1666V6.49998C3.69996 6.3772 3.74118 6.27426 3.82363 6.19115C3.90607 6.10815 4.00818 6.06665 4.12996 6.06665C4.25185 6.06665 4.35513 6.10815 4.43979 6.19115C4.52435 6.27426 4.56663 6.3772 4.56663 6.49998V11.1666C4.56663 11.2894 4.5254 11.3924 4.44296 11.4755C4.36052 11.5585 4.2584 11.6 4.13663 11.6C4.01474 11.6 3.91152 11.5585 3.82696 11.4755C3.74229 11.3924 3.69996 11.2894 3.69996 11.1666ZM7.56663 11.1666V6.49998C7.56663 6.3772 7.60785 6.27426 7.69029 6.19115C7.77274 6.10815 7.87485 6.06665 7.99663 6.06665C8.11852 6.06665 8.22174 6.10815 8.30629 6.19115C8.39096 6.27426 8.43329 6.3772 8.43329 6.49998V11.1666C8.43329 11.2894 8.39207 11.3924 8.30963 11.4755C8.22718 11.5585 8.12507 11.6 8.00329 11.6C7.8814 11.6 7.77818 11.5585 7.69363 11.4755C7.60896 11.3924 7.56663 11.2894 7.56663 11.1666ZM2.54613 13.2666C2.42335 13.2666 2.32046 13.2254 2.23746 13.143C2.15435 13.0605 2.11279 12.9584 2.11279 12.8366C2.11279 12.7148 2.15435 12.6115 2.23746 12.527C2.32046 12.4423 2.42335 12.4 2.54613 12.4H13.4538C13.5766 12.4 13.6795 12.4412 13.7625 12.5236C13.8456 12.6061 13.8871 12.7082 13.8871 12.83C13.8871 12.9519 13.8456 13.0551 13.7625 13.1396C13.6795 13.2243 13.5766 13.2666 13.4538 13.2666H2.54613ZM11.4333 11.1666V6.49998C11.4333 6.3772 11.4745 6.27426 11.557 6.19115C11.6394 6.10815 11.7415 6.06665 11.8633 6.06665C11.9852 6.06665 12.0884 6.10815 12.173 6.19115C12.2576 6.27426 12.3 6.3772 12.3 6.49998V11.1666C12.3 11.2894 12.2587 11.3924 12.1763 11.4755C12.0938 11.5585 11.9917 11.6 11.87 11.6C11.7481 11.6 11.6448 11.5585 11.5601 11.4755C11.4756 11.3924 11.4333 11.2894 11.4333 11.1666ZM13.2795 5.26665H2.65646C2.50546 5.26665 2.37707 5.21415 2.27129 5.10915C2.16563 5.00415 2.11279 4.8767 2.11279 4.72681V4.39681C2.11279 4.29892 2.14007 4.20187 2.19463 4.10565C2.24929 4.00954 2.32329 3.94181 2.41663 3.90248L7.53713 1.39998C7.68257 1.31965 7.83657 1.27948 7.99913 1.27948C8.16168 1.27948 8.31624 1.31965 8.46279 1.39998L13.5563 3.88581C13.6512 3.9397 13.73 4.01342 13.7928 4.10698C13.8557 4.20065 13.8871 4.3057 13.8871 4.42215V4.66065C13.8871 4.83487 13.8297 4.97942 13.7148 5.09431C13.5999 5.2092 13.4548 5.26665 13.2795 5.26665ZM3.39346 4.39998H12.6065L8.08979 2.18848C8.05979 2.17559 8.02985 2.16915 7.99996 2.16915C7.97007 2.16915 7.94013 2.17559 7.91013 2.18848L3.39346 4.39998Z" fill="currentColor"/>
</svg>
