<svg width="16" height="16" viewBox="0 0 16 16" fill="none" xmlns="http://www.w3.org/2000/svg">
<path d="M8.00004 14.3334C6.47359 14.3334 5.13215 13.8607 3.9757 12.9154C2.81926 11.9701 2.09232 10.7667 1.79487 9.30525C1.76332 9.16336 1.79026 9.03664 1.8757 8.92508C1.96115 8.81353 2.07481 8.7488 2.2167 8.73092C2.35859 8.71291 2.48359 8.74664 2.5917 8.83208C2.69982 8.91753 2.77309 9.03119 2.81154 9.17308C3.08165 10.3825 3.69809 11.3783 4.66087 12.1604C5.62376 12.9424 6.73681 13.3334 8.00004 13.3334C9.48893 13.3334 10.75 12.8167 11.7834 11.7834C12.8167 10.7501 13.3334 9.48897 13.3334 8.00008C13.3334 6.51119 12.8167 5.25008 11.7834 4.21675C10.75 3.18341 9.48893 2.66675 8.00004 2.66675C6.99748 2.66675 6.07504 2.92425 5.2327 3.43925C4.39037 3.95414 3.74104 4.6603 3.2847 5.55775H4.75654C4.89809 5.55775 5.01682 5.60569 5.1127 5.70158C5.20848 5.79747 5.25637 5.9163 5.25637 6.05808C5.25637 6.19975 5.20848 6.31847 5.1127 6.41425C5.01682 6.50991 4.89809 6.55775 4.75654 6.55775H2.6982C2.47632 6.55775 2.29976 6.46803 2.16854 6.28858C2.03743 6.10903 2.01076 5.91886 2.08854 5.71808C2.55087 4.50953 3.31904 3.53214 4.39304 2.78592C5.46693 2.0398 6.66926 1.66675 8.00004 1.66675C8.87615 1.66675 9.69948 1.83297 10.47 2.16541C11.2406 2.49786 11.9109 2.94903 12.4809 3.51891C13.0509 4.0888 13.5021 4.75897 13.8345 5.52942C14.1671 6.29986 14.3334 7.12303 14.3334 7.99891C14.3334 8.87492 14.1671 9.6983 13.8345 10.4691C13.5021 11.2399 13.0509 11.9103 12.4809 12.4804C11.9109 13.0505 11.2406 13.5019 10.47 13.8346C9.69948 14.1671 8.87615 14.3334 8.00004 14.3334ZM8.50004 7.79758L10.1667 9.47058C10.259 9.56147 10.3052 9.67714 10.3052 9.81758C10.3052 9.95803 10.259 10.0755 10.1667 10.1699C10.0744 10.2644 9.95726 10.3105 9.81537 10.3084C9.67348 10.3063 9.55643 10.2591 9.4642 10.1667L7.6827 8.38525C7.61904 8.32158 7.5727 8.25297 7.5437 8.17942C7.51459 8.10586 7.50004 8.02986 7.50004 7.95141V5.41041C7.50004 5.26875 7.54798 5.14997 7.64387 5.05408C7.73976 4.9583 7.85854 4.91041 8.0002 4.91041C8.14198 4.91041 8.2607 4.9583 8.35637 5.05408C8.45215 5.14997 8.50004 5.26875 8.50004 5.41041V7.79758Z" fill="currentColor"/>
</svg>
