<svg width="20" height="20" viewBox="0 0 20 20" fill="none" xmlns="http://www.w3.org/2000/svg">
<path d="M8.41672 10.9134V9.08672C8.41672 8.89686 8.48095 8.73776 8.60943 8.60943C8.73776 8.48095 8.89686 8.41672 9.08672 8.41672H10.9134C11.1032 8.41672 11.2623 8.48095 11.3907 8.60943C11.5191 8.73776 11.5834 8.89686 11.5834 9.08672V10.9134C11.5834 11.1032 11.5191 11.2623 11.3907 11.3907C11.2623 11.5191 11.1032 11.5834 10.9134 11.5834H9.08672C8.89686 11.5834 8.73776 11.5191 8.60943 11.3907C8.48095 11.2623 8.41672 11.1032 8.41672 10.9134ZM9.50005 10.5001H10.5001V9.50005H9.50005V10.5001ZM7.70838 15.8494V14.5834H6.75651C6.39109 14.5834 6.07644 14.4514 5.81255 14.1876C5.54866 13.9237 5.41672 13.609 5.41672 13.2436V12.2917H4.15068C3.9972 12.2917 3.86859 12.2402 3.76484 12.1371C3.66095 12.0341 3.60901 11.9064 3.60901 11.7542C3.60901 11.6019 3.66095 11.4728 3.76484 11.3671C3.86859 11.2613 3.9972 11.2084 4.15068 11.2084H5.41672V8.79172H4.15068C3.9972 8.79172 3.86859 8.74019 3.76484 8.63713C3.66095 8.53408 3.60901 8.40644 3.60901 8.25422C3.60901 8.10186 3.66095 7.97283 3.76484 7.86713C3.86859 7.7613 3.9972 7.70838 4.15068 7.70838H5.41672V6.75651C5.41672 6.39109 5.54866 6.07644 5.81255 5.81255C6.07644 5.54866 6.39109 5.41672 6.75651 5.41672H7.70838V4.15068C7.70838 3.9972 7.75991 3.86859 7.86297 3.76484C7.96602 3.66095 8.09366 3.60901 8.24588 3.60901C8.39824 3.60901 8.52727 3.66095 8.63297 3.76484C8.7388 3.86859 8.79172 3.9972 8.79172 4.15068V5.41672H11.2084V4.15068C11.2084 3.9972 11.2599 3.86859 11.363 3.76484C11.466 3.66095 11.5937 3.60901 11.7459 3.60901C11.8982 3.60901 12.0273 3.66095 12.133 3.76484C12.2388 3.86859 12.2917 3.9972 12.2917 4.15068V5.41672H13.2436C13.609 5.41672 13.9237 5.54866 14.1876 5.81255C14.4514 6.07644 14.5834 6.39109 14.5834 6.75651V7.70838H15.8494C16.0029 7.70838 16.1315 7.75991 16.2353 7.86297C16.3391 7.96602 16.3911 8.09366 16.3911 8.24588C16.3911 8.39825 16.3391 8.52727 16.2353 8.63297C16.1315 8.7388 16.0029 8.79172 15.8494 8.79172H14.5834V11.2084H15.8494C16.0029 11.2084 16.1315 11.2599 16.2353 11.363C16.3391 11.466 16.3911 11.5937 16.3911 11.7459C16.3911 11.8982 16.3391 12.0273 16.2353 12.133C16.1315 12.2388 16.0029 12.2917 15.8494 12.2917H14.5834V13.2436C14.5834 13.609 14.4514 13.9237 14.1876 14.1876C13.9237 14.4514 13.609 14.5834 13.2436 14.5834H12.2917V15.8494C12.2917 16.0029 12.2402 16.1315 12.1371 16.2353C12.0341 16.3391 11.9064 16.3911 11.7542 16.3911C11.6019 16.3911 11.4728 16.3391 11.3671 16.2353C11.2613 16.1315 11.2084 16.0029 11.2084 15.8494V14.5834H8.79172V15.8494C8.79172 16.0029 8.74019 16.1315 8.63713 16.2353C8.53408 16.3391 8.40644 16.3911 8.25422 16.3911C8.10186 16.3911 7.97283 16.3391 7.86713 16.2353C7.7613 16.1315 7.70838 16.0029 7.70838 15.8494ZM13.2436 13.5001C13.3078 13.5001 13.3665 13.4733 13.4198 13.4198C13.4733 13.3665 13.5001 13.3078 13.5001 13.2436V6.75651C13.5001 6.69234 13.4733 6.63359 13.4198 6.58026C13.3665 6.52679 13.3078 6.50005 13.2436 6.50005H6.75651C6.69234 6.50005 6.63359 6.52679 6.58026 6.58026C6.52679 6.63359 6.50005 6.69234 6.50005 6.75651V13.2436C6.50005 13.3078 6.52679 13.3665 6.58026 13.4198C6.63359 13.4733 6.69234 13.5001 6.75651 13.5001H13.2436Z" fill="currentColor"/>
</svg>
