<svg width="16" height="16" viewBox="0 0 16 16" fill="none" xmlns="http://www.w3.org/2000/svg">
<path d="M3.06569 14C2.7673 14 2.51509 13.897 2.30905 13.6911C2.10302 13.4852 2 13.2331 2 12.9349V4.59779C2 4.29956 2.10302 4.04748 2.30905 3.84155C2.51509 3.63563 2.7673 3.53267 3.06569 3.53267H7.45837C7.60199 3.53267 7.7097 3.57777 7.78151 3.66798C7.85332 3.7583 7.88922 3.85674 7.88922 3.96329C7.88922 4.06984 7.85315 4.16827 7.78101 4.25859C7.70887 4.3488 7.60342 4.3939 7.46467 4.3939H3.06569C3.01465 4.3939 2.96792 4.41516 2.9255 4.45767C2.88297 4.50007 2.8617 4.54677 2.8617 4.59779V12.9349C2.8617 12.9859 2.88297 13.0326 2.9255 13.075C2.96792 13.1175 3.01465 13.1388 3.06569 13.1388H11.4073C11.4583 13.1388 11.505 13.1175 11.5475 13.075C11.59 13.0326 11.6113 12.9859 11.6113 12.9349V8.90214C11.6113 8.76402 11.6564 8.65907 11.7467 8.5873C11.837 8.51553 11.9355 8.47964 12.0421 8.47964C12.1487 8.47964 12.2472 8.51553 12.3376 8.5873C12.4278 8.65907 12.473 8.76672 12.473 8.91026V12.9349C12.473 13.2331 12.3699 13.4852 12.1639 13.6911C11.9579 13.897 11.7057 14 11.4073 14H3.06569ZM5.97708 9.49557V8.48378C5.97708 8.34256 6.0026 8.20659 6.05364 8.07585C6.10456 7.94501 6.18256 7.82715 6.28762 7.72225L11.7669 2.24595C11.8586 2.15419 11.955 2.09026 12.0562 2.05416C12.1573 2.01805 12.2633 2 12.3742 2C12.4866 2 12.5946 2.01805 12.6983 2.05416C12.8022 2.09026 12.8975 2.15088 12.9844 2.23601L13.7349 2.96955C13.8309 3.06131 13.8991 3.1619 13.9395 3.27132C13.9798 3.38074 14 3.49165 14 3.60405C14 3.71668 13.9808 3.82571 13.9423 3.93116C13.9039 4.0366 13.839 4.13476 13.7476 4.22563L8.24931 9.72115C8.14425 9.82604 8.0266 9.90295 7.89635 9.95186C7.76599 10.0007 7.63038 10.0251 7.48952 10.0251H6.51299C6.36219 10.0251 6.2352 9.9746 6.13202 9.87368C6.02872 9.77266 5.97708 9.64662 5.97708 9.49557ZM6.83878 9.16383H7.58199L11.6966 5.05126L11.3334 4.67165L10.9408 4.29586L6.83878 8.39567V9.16383Z" fill="currentColor"/>
</svg>
