<svg width="16" height="16" viewBox="0 0 16 16" fill="none" xmlns="http://www.w3.org/2000/svg">
<path d="M4 12.6668H6.23083V9.30782C6.23083 9.13716 6.28856 8.99405 6.404 8.87849C6.51956 8.76304 6.66267 8.70532 6.83333 8.70532H9.16667C9.33733 8.70532 9.48044 8.76304 9.596 8.87849C9.71144 8.99405 9.76917 9.13716 9.76917 9.30782V12.6668H12V6.76932C12 6.73521 11.9925 6.70427 11.9775 6.67649C11.9626 6.64871 11.9423 6.6241 11.9167 6.60266L8.12183 3.75016C8.08761 3.72027 8.047 3.70532 8 3.70532C7.953 3.70532 7.91239 3.72027 7.87817 3.75016L4.08333 6.60266C4.05767 6.6241 4.03739 6.64871 4.0225 6.67649C4.0075 6.70427 4 6.73521 4 6.76932V12.6668ZM3 12.6668V6.76932C3 6.57855 3.04267 6.39782 3.128 6.22716C3.21344 6.05638 3.33144 5.91577 3.482 5.80532L7.277 2.94632C7.48756 2.78566 7.72822 2.70532 7.999 2.70532C8.26978 2.70532 8.51111 2.78566 8.723 2.94632L12.518 5.80532C12.6686 5.91577 12.7866 6.05638 12.872 6.22716C12.9573 6.39782 13 6.57855 13 6.76932V12.6668C13 12.9395 12.9015 13.1743 12.7045 13.3713C12.5075 13.5683 12.2727 13.6668 12 13.6668H9.37183C9.20106 13.6668 9.05794 13.609 8.9425 13.4935C8.82694 13.378 8.76917 13.2349 8.76917 13.0642V9.70532H7.23083V13.0642C7.23083 13.2349 7.17306 13.378 7.0575 13.4935C6.94206 13.609 6.79894 13.6668 6.62817 13.6668H4C3.72733 13.6668 3.4925 13.5683 3.2955 13.3713C3.0985 13.1743 3 12.9395 3 12.6668Z" fill="currentColor"/>
</svg>
