<svg width="20" height="20" viewBox="0 0 20 20" fill="none" xmlns="http://www.w3.org/2000/svg">
<path d="M8.71158 10L12.106 13.3942C12.2212 13.5096 12.2803 13.6547 12.283 13.8294C12.2857 14.004 12.2266 14.1517 12.106 14.2725C11.9851 14.3932 11.8387 14.4536 11.6668 14.4536C11.4948 14.4536 11.3485 14.3932 11.2276 14.2725L7.48241 10.5273C7.4045 10.4493 7.3495 10.367 7.31741 10.2804C7.28533 10.1939 7.26929 10.1004 7.26929 10C7.26929 9.89961 7.28533 9.80613 7.31741 9.71961C7.3495 9.63308 7.4045 9.55079 7.48241 9.47273L11.2276 5.72752C11.343 5.61224 11.4881 5.55322 11.6628 5.55044C11.8374 5.5478 11.9851 5.60683 12.106 5.72752C12.2266 5.84836 12.287 5.99474 12.287 6.16669C12.287 6.33863 12.2266 6.48502 12.106 6.60586L8.71158 10Z" fill="currentColor"/>
</svg>
