<svg width="16" height="16" viewBox="0 0 16 16" fill="none" xmlns="http://www.w3.org/2000/svg">
<path d="M3.5385 13.6668C3.20172 13.6668 2.91667 13.5502 2.68334 13.3168C2.45 13.0835 2.33334 12.7984 2.33334 12.4617V3.53866C2.33334 3.20188 2.45 2.91683 2.68334 2.6835C2.91667 2.45016 3.20172 2.3335 3.5385 2.3335H12.4615C12.7983 2.3335 13.0833 2.45016 13.3167 2.6835C13.55 2.91683 13.6667 3.20188 13.6667 3.53866V12.4617C13.6667 12.7984 13.55 13.0835 13.3167 13.3168C13.0833 13.5502 12.7983 13.6668 12.4615 13.6668H3.5385ZM3.33334 5.7745H12.6667V3.53866C12.6667 3.48733 12.6453 3.44033 12.6025 3.39766C12.5598 3.35488 12.5128 3.3335 12.4615 3.3335H3.5385C3.48717 3.3335 3.44017 3.35488 3.3975 3.39766C3.35472 3.44033 3.33334 3.48733 3.33334 3.53866V5.7745ZM3.33334 9.22583H12.6667V6.7745H3.33334V9.22583ZM3.5385 12.6668H12.4615C12.5128 12.6668 12.5598 12.6454 12.6025 12.6027C12.6453 12.56 12.6667 12.513 12.6667 12.4617V10.2258H3.33334V12.4617C3.33334 12.513 3.35472 12.56 3.3975 12.6027C3.44017 12.6454 3.48717 12.6668 3.5385 12.6668ZM4.85784 5.1515C4.68684 5.1515 4.54384 5.09361 4.42884 4.97783C4.31395 4.86216 4.2565 4.71883 4.2565 4.54783C4.2565 4.37672 4.31434 4.23372 4.43 4.11883C4.54567 4.00383 4.68906 3.94633 4.86017 3.94633C5.03117 3.94633 5.17417 4.00416 5.28917 4.11983C5.40406 4.23561 5.4615 4.379 5.4615 4.55C5.4615 4.72111 5.40367 4.86411 5.288 4.979C5.17234 5.094 5.02895 5.1515 4.85784 5.1515ZM4.85784 8.60266C4.68684 8.60266 4.54384 8.54483 4.42884 8.42916C4.31395 8.3135 4.2565 8.17011 4.2565 7.999C4.2565 7.828 4.31434 7.685 4.43 7.57C4.54567 7.45511 4.68906 7.39766 4.86017 7.39766C5.03117 7.39766 5.17417 7.4555 5.28917 7.57116C5.40406 7.68683 5.4615 7.83022 5.4615 8.00133C5.4615 8.17233 5.40367 8.31533 5.288 8.43033C5.17234 8.54522 5.02895 8.60266 4.85784 8.60266ZM4.85784 12.054C4.68684 12.054 4.54384 11.9962 4.42884 11.8805C4.31395 11.7647 4.2565 11.6213 4.2565 11.4503C4.2565 11.2792 4.31434 11.1362 4.43 11.0213C4.54567 10.9063 4.68906 10.8488 4.86017 10.8488C5.03117 10.8488 5.17417 10.9067 5.28917 11.0225C5.40406 11.1382 5.4615 11.2815 5.4615 11.4525C5.4615 11.6236 5.40367 11.7666 5.288 11.8815C5.17234 11.9965 5.02895 12.054 4.85784 12.054Z" fill="currentColor"/>
</svg>
