<svg width="24" height="24" viewBox="0 0 24 24" fill="none" xmlns="http://www.w3.org/2000/svg">
<path d="M17.667 4.25C19.3696 4.25018 20.7498 5.63039 20.75 7.33301V16.667C20.7498 18.3696 19.3696 19.7498 17.667 19.75H6.33301C4.68344 19.7498 3.33641 18.4543 3.25391 16.8252L3.25 16.667V7.33301C3.25018 5.63039 4.63039 4.25018 6.33301 4.25H17.667ZM6.33301 5.75C5.45882 5.75018 4.75018 6.45882 4.75 7.33301V16.667L4.75781 16.8281C4.83867 17.6266 5.5132 18.2498 6.33301 18.25H17.667C18.5412 18.2498 19.2498 17.5412 19.25 16.667V7.33301C19.2498 6.45882 18.5412 5.75018 17.667 5.75H6.33301ZM9.25 7C9.66421 7 10 7.33579 10 7.75V16.25C10 16.6642 9.66421 17 9.25 17C8.83579 17 8.5 16.6642 8.5 16.25V7.75C8.5 7.33579 8.83579 7 9.25 7Z" fill="currentColor"/>
</svg>
