<svg width="20" height="20" viewBox="0 0 20 20" fill="none" xmlns="http://www.w3.org/2000/svg">
<path d="M5.29171 9.99993C5.29171 10.188 5.30476 10.3787 5.33087 10.572C5.35712 10.7655 5.38949 10.9519 5.42796 11.1314C5.45351 11.2671 5.43747 11.4054 5.37983 11.5464C5.32219 11.6874 5.22282 11.7792 5.08171 11.822C4.94601 11.8594 4.81115 11.8449 4.67712 11.7787C4.5431 11.7124 4.45629 11.6115 4.41671 11.476C4.34726 11.2451 4.29518 11.006 4.26046 10.7587C4.22574 10.5115 4.20837 10.2585 4.20837 9.99993C4.20837 8.37812 4.77997 6.99701 5.92317 5.8566C7.06636 4.71604 8.46699 4.1666 10.125 4.20826H10.6298L9.61067 3.1891C9.49525 3.07368 9.43622 2.94597 9.43358 2.80597C9.43094 2.66611 9.48997 2.53576 9.61067 2.41493C9.73136 2.29423 9.86032 2.23389 9.99754 2.23389C10.1349 2.23389 10.2639 2.29423 10.3846 2.41493L12.2548 4.28514C12.3916 4.42194 12.46 4.57687 12.46 4.74993C12.46 4.92298 12.3916 5.07791 12.2548 5.21472L10.3846 7.08493C10.2692 7.20021 10.145 7.25576 10.0121 7.2516C9.87907 7.24729 9.75219 7.18479 9.6315 7.0641C9.5108 6.94326 9.45046 6.81423 9.45046 6.67701C9.45046 6.53979 9.5108 6.41076 9.6315 6.28993L10.6298 5.2916H10.125C8.76074 5.26382 7.61407 5.71437 6.68504 6.64326C5.75615 7.57229 5.29171 8.69118 5.29171 9.99993ZM14.7084 9.99993C14.7084 9.81187 14.6953 9.62118 14.6692 9.42785C14.643 9.23437 14.6106 9.04791 14.5721 8.86847C14.5466 8.71889 14.5626 8.57708 14.6202 8.44305C14.6779 8.30903 14.7773 8.21368 14.9184 8.15701C15.0541 8.10576 15.1841 8.10979 15.3086 8.1691C15.433 8.2284 15.515 8.32583 15.5544 8.46139C15.6239 8.70611 15.6808 8.95562 15.7252 9.20993C15.7696 9.4641 15.7917 9.72743 15.7917 9.99993C15.7917 11.6078 15.2201 12.9855 14.0769 14.1328C12.9337 15.2803 11.5331 15.8333 9.87504 15.7916H9.37025L10.3894 16.8108C10.5048 16.9262 10.5639 17.0539 10.5665 17.1939C10.5691 17.3337 10.5101 17.4641 10.3894 17.5849C10.2687 17.7056 10.1398 17.766 10.0025 17.766C9.86518 17.766 9.73615 17.7056 9.61546 17.5849L7.74525 15.7147C7.60844 15.5779 7.54004 15.423 7.54004 15.2499C7.54004 15.0769 7.60844 14.9219 7.74525 14.7851L9.61546 12.9149C9.73087 12.7997 9.85851 12.7406 9.99837 12.7378C10.1384 12.7352 10.2687 12.7942 10.3894 12.9149C10.5101 13.0358 10.5705 13.1648 10.5705 13.302C10.5705 13.4392 10.5101 13.5683 10.3894 13.6891L9.37025 14.7083H9.87504C11.2393 14.736 12.386 14.2855 13.315 13.3566C14.2439 12.4276 14.7084 11.3087 14.7084 9.99993Z" fill="currentColor"/>
</svg>
