<svg width="24" height="24" viewBox="0 0 24 24" fill="none" xmlns="http://www.w3.org/2000/svg">
<path d="M6.9008 18.7C6.4503 18.7 6.07088 18.5446 5.76255 18.2338C5.45422 17.9229 5.30005 17.5424 5.30005 17.0923V16.2308C5.30005 16.0463 5.3618 15.8918 5.4853 15.7675C5.60863 15.643 5.7618 15.5808 5.9448 15.5808C6.1278 15.5808 6.28272 15.643 6.40955 15.7675C6.53655 15.8918 6.60005 16.0463 6.60005 16.2308V17.0923C6.60005 17.1693 6.63213 17.2398 6.6963 17.3038C6.7603 17.3679 6.8308 17.4 6.9078 17.4H17.0923C17.1693 17.4 17.2398 17.3679 17.3038 17.3038C17.368 17.2398 17.4 17.1693 17.4 17.0923V16.2308C17.4 16.0463 17.4617 15.8918 17.585 15.7675C17.7085 15.643 17.8618 15.5808 18.0448 15.5808C18.2278 15.5808 18.3827 15.643 18.5095 15.7675C18.6365 15.8918 18.7 16.0463 18.7 16.2308V17.0923C18.7 17.5424 18.5445 17.9229 18.2336 18.2338C17.9225 18.5446 17.5418 18.7 17.0913 18.7H6.9008ZM11.35 6.5885L9.30205 8.6365C9.16988 8.7685 9.0183 8.83775 8.8473 8.84425C8.67613 8.85059 8.5173 8.7845 8.3708 8.646C8.23397 8.50767 8.16713 8.35292 8.1703 8.18175C8.17347 8.01059 8.2443 7.85575 8.3828 7.71725L11.4423 4.65775C11.526 4.58075 11.6139 4.52309 11.706 4.48475C11.7982 4.44625 11.8979 4.427 12.005 4.427C12.1122 4.427 12.2119 4.44625 12.304 4.48475C12.3962 4.52309 12.4808 4.58075 12.5578 4.65775L15.6173 7.71725C15.7493 7.84925 15.8185 7.99834 15.825 8.1645C15.8314 8.3305 15.7661 8.48267 15.6293 8.621C15.4828 8.7595 15.3256 8.82717 15.1578 8.824C14.9898 8.82084 14.8365 8.75 14.698 8.6115L12.65 6.5885V14.7385C12.65 14.923 12.5883 15.0774 12.4648 15.2018C12.3415 15.3263 12.1883 15.3885 12.0053 15.3885C11.8223 15.3885 11.6674 15.3263 11.5405 15.2018C11.4135 15.0774 11.35 14.923 11.35 14.7385V6.5885Z" fill="currentColor"/>
</svg>
