<svg width="24" height="24" viewBox="0 0 24 24" fill="none" xmlns="http://www.w3.org/2000/svg">
<path d="M4.30775 21.5C3.81058 21.5 3.385 21.323 3.031 20.969C2.677 20.615 2.5 20.1894 2.5 19.6923V11.5115C2.5 11.1477 2.59717 10.8141 2.7915 10.5108C2.98567 10.2074 3.25517 9.9821 3.6 9.83477L7.2345 8.30202C7.53583 8.18152 7.82208 8.2041 8.09325 8.36976C8.36442 8.53543 8.5 8.78402 8.5 9.11552V9.74052L12.2595 8.23277C12.5608 8.11227 12.8429 8.1426 13.1058 8.32377C13.3686 8.50493 13.5 8.7541 13.5 9.07126V10.5H21.5V19.6923C21.5 20.1894 21.323 20.615 20.969 20.969C20.615 21.323 20.1894 21.5 19.6923 21.5H4.30775ZM11.1155 17.7693H12.8845V14.2308H11.1155V17.7693ZM7.1155 17.7693H8.8845V14.2308H7.1155V17.7693ZM15.1155 17.7693H16.8845V14.2308H15.1155V17.7693ZM21.3385 9.30777H17.5885L18.3615 3.56727C18.3885 3.3686 18.4774 3.20518 18.6283 3.07702C18.7793 2.94885 18.9532 2.88477 19.15 2.88477H19.9038C20.0898 2.88477 20.2509 2.94701 20.3873 3.07151C20.5236 3.19601 20.6041 3.35168 20.6288 3.53851L21.3385 9.30777Z" fill="currentColor"/>
</svg>
