<svg width="16" height="16" viewBox="0 0 16 16" fill="none" xmlns="http://www.w3.org/2000/svg">
<path d="M2.87179 14.3333C2.53935 14.3333 2.25535 14.2155 2.01979 13.9801C1.78435 13.7445 1.66663 13.4605 1.66663 13.1281V7.67426C1.66663 7.43326 1.7314 7.21126 1.86096 7.00826C1.9904 6.80526 2.17007 6.65465 2.39996 6.55643L4.82296 5.5346C5.02385 5.45426 5.21468 5.46876 5.39546 5.5781C5.57624 5.68754 5.66663 5.85382 5.66663 6.07693V6.4936L8.17296 5.48843C8.37385 5.4081 8.5619 5.42821 8.73713 5.54876C8.91235 5.66921 8.99996 5.83543 8.99996 6.04743V6.99993H14.3333V13.1281C14.3333 13.4605 14.2156 13.7445 13.9801 13.9801C13.7446 14.2155 13.4606 14.3333 13.1281 14.3333H2.87179ZM2.87179 13.3333H13.1281C13.188 13.3333 13.2372 13.314 13.2756 13.2756C13.3141 13.2372 13.3333 13.188 13.3333 13.1281V7.99993H7.99996V6.63326L4.66663 7.9666V6.6666L2.78846 7.4986C2.75001 7.51571 2.72007 7.54032 2.69863 7.57243C2.67729 7.60443 2.66663 7.64182 2.66663 7.6846V13.1281C2.66663 13.188 2.68585 13.2372 2.72429 13.2756C2.76274 13.314 2.8119 13.3333 2.87179 13.3333ZM7.41029 11.8461H8.58963V9.4871H7.41029V11.8461ZM4.74363 11.8461H5.92296V9.4871H4.74363V11.8461ZM10.077 11.8461H11.2563V9.4871H10.077V11.8461ZM14.3333 6.99993H11.6281L12.241 2.3781C12.259 2.24565 12.3162 2.13671 12.4128 2.05126C12.5093 1.96582 12.6239 1.9231 12.7565 1.9231H13.2691C13.3931 1.9231 13.5002 1.96476 13.5903 2.0481C13.6805 2.13143 13.7346 2.23504 13.7525 2.35893L14.3333 6.99993ZM2.87179 13.3333H2.66663H13.3333H2.87179Z" fill="currentColor"/>
</svg>
