<svg width="20" height="20" viewBox="0 0 20 20" fill="none" xmlns="http://www.w3.org/2000/svg">
<path d="M9.99579 13.6794C10.1482 13.6794 10.2772 13.6275 10.3829 13.5237C10.4887 13.4199 10.5416 13.2912 10.5416 13.1377V9.36541C10.5416 9.21193 10.4901 9.08325 10.387 8.97937C10.284 8.87562 10.1563 8.82374 10.0041 8.82374C9.85177 8.82374 9.72274 8.87562 9.61704 8.97937C9.51121 9.08325 9.45829 9.21193 9.45829 9.36541V13.1377C9.45829 13.2912 9.50982 13.4199 9.61288 13.5237C9.71593 13.6275 9.84357 13.6794 9.99579 13.6794ZM9.99558 7.49999C10.1614 7.49999 10.3019 7.44388 10.417 7.33166C10.5322 7.21943 10.5898 7.08041 10.5898 6.91457C10.5898 6.74874 10.5336 6.60825 10.4214 6.49311C10.3092 6.37811 10.1702 6.32062 10.0043 6.32062C9.8385 6.32062 9.69802 6.37666 9.58288 6.48874C9.46774 6.60096 9.41017 6.73999 9.41017 6.90582C9.41017 7.07166 9.46628 7.21214 9.5785 7.32728C9.69072 7.44242 9.82975 7.49999 9.99558 7.49999ZM9.99996 17.4758C9.92732 17.4758 9.84933 17.4724 9.766 17.4654C9.68267 17.4585 9.60892 17.4411 9.54475 17.4133C7.84295 16.8161 6.47947 15.7601 5.45433 14.2452C4.4292 12.7302 3.91663 11.0721 3.91663 9.27082V5.7052C3.91663 5.42061 3.99378 5.16457 4.14808 4.93707C4.30225 4.70943 4.50982 4.54562 4.77079 4.44562L9.51433 2.63312C9.67892 2.56895 9.84079 2.53687 9.99996 2.53687C10.1591 2.53687 10.321 2.56895 10.4856 2.63312L15.2291 4.44562C15.4901 4.54562 15.6977 4.70943 15.8518 4.93707C16.0061 5.16457 16.0833 5.42061 16.0833 5.7052V9.27082C16.0833 11.0721 15.5707 12.7302 14.5456 14.2452C13.5204 15.7601 12.157 16.8161 10.4552 17.4133C10.391 17.4411 10.3173 17.4585 10.2339 17.4654C10.1506 17.4724 10.0726 17.4758 9.99996 17.4758ZM9.99996 16.4375C11.4444 15.9896 12.6388 15.0937 13.5833 13.75C14.5277 12.4062 15 10.9132 15 9.27082V5.69707C15 5.64374 14.9852 5.59568 14.9558 5.55291C14.9265 5.51013 14.8851 5.47805 14.8316 5.45666L10.0881 3.64416C10.0614 3.63346 10.032 3.62812 9.99996 3.62812C9.96788 3.62812 9.9385 3.63346 9.91183 3.64416L5.16829 5.45666C5.11482 5.47805 5.07343 5.51013 5.04413 5.55291C5.01468 5.59568 4.99996 5.64374 4.99996 5.69707V9.27082C4.99996 10.9132 5.47218 12.4062 6.41663 13.75C7.36107 15.0937 8.55551 15.9896 9.99996 16.4375Z" fill="currentColor"/>
</svg>
