<svg width="16" height="16" viewBox="0 0 16 16" fill="none" xmlns="http://www.w3.org/2000/svg">
<path d="M3.59994 12.3999H4.34094L10.8986 5.84228L10.1576 5.10128L3.59994 11.6589V12.3999ZM3.27228 13.2666C3.12172 13.2666 2.99428 13.2156 2.88994 13.1134C2.7855 13.0113 2.73328 12.8848 2.73328 12.7338V11.7478C2.73328 11.6038 2.75894 11.4664 2.81028 11.3358C2.8615 11.2051 2.94183 11.0851 3.05128 10.9756L11.0269 2.98711C11.1166 2.89555 11.2131 2.83039 11.3164 2.79161C11.4198 2.75272 11.5281 2.73328 11.6413 2.73328C11.7546 2.73328 11.8628 2.75144 11.9658 2.78778C12.0689 2.82411 12.1687 2.88844 12.2653 2.98078L13.0128 3.72178C13.1051 3.81833 13.1705 3.91833 13.2089 4.02178C13.2474 4.12522 13.2666 4.23172 13.2666 4.34128C13.2666 4.45805 13.2464 4.5695 13.2059 4.67561C13.1654 4.78172 13.101 4.87872 13.0128 4.96661L5.02428 12.9486C4.91483 13.0581 4.79505 13.1384 4.66494 13.1896C4.53483 13.2409 4.398 13.2666 4.25444 13.2666H3.27228ZM10.5216 5.47828L10.1576 5.10128L10.8986 5.84228L10.5216 5.47828Z" fill="currentColor"/>
</svg>
