<svg width="20" height="20" viewBox="0 0 20 20" fill="none" xmlns="http://www.w3.org/2000/svg">
<path d="M13.1475 5.11025C13.3103 5.11025 13.5879 5.13583 13.9802 5.18698C14.3725 5.23813 14.8017 5.38427 15.268 5.6254C15.7417 5.85923 16.171 6.25016 16.5559 6.79819C16.5337 6.82012 16.4264 6.90049 16.2339 7.03933C16.0415 7.17086 15.8269 7.36815 15.59 7.63121C15.3532 7.88695 15.1459 8.21577 14.9683 8.61767C14.7906 9.01225 14.7018 9.48356 14.7018 10.0316C14.7018 10.66 14.8128 11.1934 15.0349 11.6319C15.2643 12.0703 15.5271 12.4247 15.8232 12.695C16.1266 12.9581 16.3931 13.1517 16.6225 13.276C16.8594 13.4002 16.9852 13.4659 17 13.4732C16.9926 13.5025 16.8964 13.7619 16.7113 14.2515C16.5337 14.741 16.2376 15.2854 15.8232 15.8846C15.4605 16.4034 15.0682 16.882 14.6463 17.3204C14.2318 17.7589 13.7322 17.9781 13.1475 17.9781C12.7552 17.9781 12.4333 17.9233 12.1816 17.8137C11.9299 17.6968 11.6709 17.5835 11.4044 17.4739C11.138 17.357 10.779 17.2985 10.3275 17.2985C9.89083 17.2985 9.52445 17.357 9.22839 17.4739C8.93973 17.5908 8.66217 17.7077 8.39572 17.8246C8.13666 17.9415 7.8295 18 7.47423 18C6.93391 18 6.46022 17.7881 6.05313 17.3643C5.64605 16.9405 5.22786 16.4326 4.79857 15.8407C4.30267 15.1393 3.87708 14.2843 3.52181 13.276C3.17394 12.2603 3 11.2373 3 10.207C3 9.10359 3.21094 8.17924 3.63283 7.43391C4.05472 6.68128 4.59503 6.11498 5.25377 5.73501C5.9199 5.34773 6.60825 5.15409 7.31879 5.15409C7.69627 5.15409 8.05155 5.2162 8.38462 5.34043C8.71768 5.45734 9.02855 5.57791 9.31721 5.70213C9.61327 5.82635 9.87973 5.88846 10.1166 5.88846C10.346 5.88846 10.6125 5.82269 10.9159 5.69117C11.2194 5.55964 11.5599 5.43176 11.9374 5.30754C12.3148 5.17602 12.7182 5.11025 13.1475 5.11025ZM12.5369 3.71825C12.2482 4.06168 11.8855 4.35031 11.4489 4.58414C11.0122 4.81066 10.5977 4.92392 10.2054 4.92392C10.124 4.92392 10.0463 4.91661 9.97224 4.902C9.96484 4.88008 9.95744 4.83989 9.95004 4.78143C9.94264 4.72297 9.93894 4.66086 9.93894 4.5951C9.93894 4.15667 10.0352 3.73286 10.2276 3.32366C10.42 2.90716 10.6384 2.56372 10.8826 2.29336C11.1935 1.928 11.5858 1.62476 12.0595 1.38362C12.5332 1.14249 12.9847 1.01461 13.414 1C13.4362 1.09499 13.4473 1.20825 13.4473 1.33978C13.4473 1.77821 13.3621 2.20567 13.1919 2.62218C13.0217 3.03138 12.8033 3.39673 12.5369 3.71825Z" fill="currentColor"/>
</svg>
