<svg width="20" height="20" viewBox="0 0 20 20" fill="none" xmlns="http://www.w3.org/2000/svg">
<path d="M3.74996 12.0833C3.16774 12.0833 2.67496 11.8817 2.27163 11.4783C1.86829 11.075 1.66663 10.5822 1.66663 10C1.66663 9.41778 1.86829 8.925 2.27163 8.52167C2.67496 8.11833 3.16774 7.91667 3.74996 7.91667V6.08979C3.74996 5.67549 3.89746 5.32083 4.19246 5.02583C4.48746 4.73083 4.84211 4.58333 5.25642 4.58333H7.91663C7.91663 4.00111 8.11829 3.50833 8.52163 3.105C8.92496 2.70167 9.41774 2.5 9.99996 2.5C10.5822 2.5 11.075 2.70167 11.4783 3.105C11.8816 3.50833 12.0833 4.00111 12.0833 4.58333H14.7435C15.1578 4.58333 15.5125 4.73083 15.8075 5.02583C16.1025 5.32083 16.25 5.67549 16.25 6.08979V7.91667C16.8322 7.91667 17.325 8.11833 17.7283 8.52167C18.1316 8.925 18.3333 9.41778 18.3333 10C18.3333 10.5822 18.1316 11.075 17.7283 11.4783C17.325 11.8817 16.8322 12.0833 16.25 12.0833V15.5769C16.25 15.9912 16.1025 16.3458 15.8075 16.6408C15.5125 16.9358 15.1578 17.0833 14.7435 17.0833H5.25642C4.84211 17.0833 4.48746 16.9358 4.19246 16.6408C3.89746 16.3458 3.74996 15.9912 3.74996 15.5769V12.0833ZM7.49892 10.625C7.78808 10.625 8.03413 10.5238 8.23704 10.3215C8.4401 10.1191 8.54163 9.8734 8.54163 9.58437C8.54163 9.29521 8.44044 9.04917 8.23808 8.84625C8.03572 8.64319 7.79003 8.54167 7.501 8.54167C7.21183 8.54167 6.96579 8.64285 6.76288 8.84521C6.55982 9.04757 6.45829 9.29326 6.45829 9.58229C6.45829 9.87146 6.55947 10.1175 6.76183 10.3204C6.9642 10.5235 7.20989 10.625 7.49892 10.625ZM12.4989 10.625C12.7881 10.625 13.0341 10.5238 13.237 10.3215C13.4401 10.1191 13.5416 9.8734 13.5416 9.58437C13.5416 9.29521 13.4404 9.04917 13.2381 8.84625C13.0357 8.64319 12.79 8.54167 12.501 8.54167C12.2118 8.54167 11.9658 8.64285 11.7629 8.84521C11.5598 9.04757 11.4583 9.29326 11.4583 9.58229C11.4583 9.87146 11.5595 10.1175 11.7618 10.3204C11.9642 10.5235 12.2099 10.625 12.4989 10.625ZM7.49996 13.9583H12.5C12.677 13.9583 12.8254 13.8984 12.9452 13.7785C13.065 13.6587 13.125 13.5102 13.125 13.3331C13.125 13.1559 13.065 13.0075 12.9452 12.8879C12.8254 12.7682 12.677 12.7083 12.5 12.7083H7.49996C7.32288 12.7083 7.17447 12.7683 7.05475 12.8881C6.93489 13.008 6.87496 13.1565 6.87496 13.3335C6.87496 13.5108 6.93489 13.6592 7.05475 13.7787C7.17447 13.8985 7.32288 13.9583 7.49996 13.9583ZM5.25642 15.8333H14.7435C14.8184 15.8333 14.8798 15.8093 14.9279 15.7612C14.9759 15.7132 15 15.6517 15 15.5769V6.08979C15 6.01493 14.9759 5.95347 14.9279 5.90542C14.8798 5.85736 14.8184 5.83333 14.7435 5.83333H5.25642C5.18156 5.83333 5.1201 5.85736 5.07204 5.90542C5.02399 5.95347 4.99996 6.01493 4.99996 6.08979V15.5769C4.99996 15.6517 5.02399 15.7132 5.07204 15.7612C5.1201 15.8093 5.18156 15.8333 5.25642 15.8333Z" fill="currentColor"/>
</svg>
