<svg width="20" height="20" viewBox="0 0 20 20" fill="none" xmlns="http://www.w3.org/2000/svg">
<path d="M4.75642 17.5834C4.38128 17.5834 4.0642 17.4514 3.80517 17.1876C3.54614 16.9237 3.41663 16.609 3.41663 16.2436V5.75651C3.41663 5.3911 3.54614 5.07644 3.80517 4.81255C4.0642 4.54866 4.38128 4.41672 4.75642 4.41672H6.57683V2.87818C6.57683 2.71915 6.62961 2.58644 6.73517 2.48005C6.84072 2.3738 6.97239 2.32068 7.13017 2.32068C7.28808 2.32068 7.42121 2.3738 7.52954 2.48005C7.63802 2.58644 7.69225 2.71915 7.69225 2.87818V4.41672H12.3398V2.86235C12.3398 2.7086 12.3911 2.57984 12.4939 2.47609C12.5968 2.37248 12.7245 2.32068 12.877 2.32068C13.0295 2.32068 13.1586 2.37248 13.2643 2.47609C13.3702 2.57984 13.4231 2.7086 13.4231 2.86235V4.41672H15.2435C15.6186 4.41672 15.9357 4.54866 16.1948 4.81255C16.4538 5.07644 16.5833 5.3911 16.5833 5.75651V16.2436C16.5833 16.609 16.4538 16.9237 16.1948 17.1876C15.9357 17.4514 15.6186 17.5834 15.2435 17.5834H4.75642ZM4.75642 16.5001H15.2435C15.3077 16.5001 15.3664 16.4733 15.4198 16.4198C15.4732 16.3665 15.5 16.3078 15.5 16.2436V9.25651H4.49996V16.2436C4.49996 16.3078 4.5267 16.3665 4.58017 16.4198C4.6335 16.4733 4.69225 16.5001 4.75642 16.5001ZM4.49996 8.17318H15.5V5.75651C15.5 5.69235 15.4732 5.63359 15.4198 5.58026C15.3664 5.52679 15.3077 5.50005 15.2435 5.50005H4.75642C4.69225 5.50005 4.6335 5.52679 4.58017 5.58026C4.5267 5.63359 4.49996 5.69235 4.49996 5.75651V8.17318Z" fill="currentColor"/>
</svg>
