<svg width="20" height="20" viewBox="0 0 20 20" fill="none" xmlns="http://www.w3.org/2000/svg">
<path d="M4.49996 14.5208V15.5V4.49996V14.5208ZM4.75642 16.5833C4.3867 16.5833 4.07093 16.4525 3.80913 16.1908C3.54746 15.929 3.41663 15.6132 3.41663 15.2435V4.75642C3.41663 4.3867 3.54746 4.07093 3.80913 3.80913C4.07093 3.54746 4.3867 3.41663 4.75642 3.41663H15.2435C15.6132 3.41663 15.929 3.54746 16.1908 3.80913C16.4525 4.07093 16.5833 4.3867 16.5833 4.75642V6.98246H15.5V4.75642C15.5 4.68156 15.4759 4.6201 15.4279 4.57204C15.3798 4.52399 15.3184 4.49996 15.2435 4.49996H4.75642C4.68156 4.49996 4.6201 4.52399 4.57204 4.57204C4.52399 4.6201 4.49996 4.68156 4.49996 4.75642V15.2435C4.49996 15.3184 4.52399 15.3798 4.57204 15.4279C4.6201 15.4759 4.68156 15.5 4.75642 15.5H15.2435C15.3184 15.5 15.3798 15.4759 15.4279 15.4279C15.4759 15.3798 15.5 15.3184 15.5 15.2435V12.9966H16.5833V15.2435C16.5833 15.6132 16.4525 15.929 16.1908 16.1908C15.929 16.4525 15.6132 16.5833 15.2435 16.5833H4.75642ZM10.7564 13.5833C10.3867 13.5833 10.0709 13.4525 9.80913 13.1908C9.54746 12.929 9.41663 12.6132 9.41663 12.2435V7.75642C9.41663 7.3867 9.54746 7.07093 9.80913 6.80913C10.0709 6.54746 10.3867 6.41663 10.7564 6.41663H16.2435C16.6132 6.41663 16.929 6.54746 17.1908 6.80913C17.4525 7.07093 17.5833 7.3867 17.5833 7.75642V12.2435C17.5833 12.6132 17.4525 12.929 17.1908 13.1908C16.929 13.4525 16.6132 13.5833 16.2435 13.5833H10.7564ZM16.2435 12.5C16.3184 12.5 16.3798 12.4759 16.4279 12.4279C16.4759 12.3798 16.5 12.3184 16.5 12.2435V7.75642C16.5 7.68156 16.4759 7.6201 16.4279 7.57204C16.3798 7.52399 16.3184 7.49996 16.2435 7.49996H10.7564C10.6816 7.49996 10.6201 7.52399 10.572 7.57204C10.524 7.6201 10.5 7.68156 10.5 7.75642V12.2435C10.5 12.3184 10.524 12.3798 10.572 12.4279C10.6201 12.4759 10.6816 12.5 10.7564 12.5H16.2435ZM13.5 11.25C13.8472 11.25 14.1423 11.1284 14.3854 10.8854C14.6284 10.6423 14.75 10.3472 14.75 9.99996C14.75 9.65274 14.6284 9.3576 14.3854 9.11454C14.1423 8.87149 13.8472 8.74996 13.5 8.74996C13.1527 8.74996 12.8576 8.87149 12.6145 9.11454C12.3715 9.3576 12.25 9.65274 12.25 9.99996C12.25 10.3472 12.3715 10.6423 12.6145 10.8854C12.8576 11.1284 13.1527 11.25 13.5 11.25Z" fill="currentColor"/>
</svg>
