<svg width="16" height="16" viewBox="0 0 16 16" fill="none" xmlns="http://www.w3.org/2000/svg">
<path d="M3.00518 12.4667C2.71285 12.4667 2.46113 12.3611 2.25002 12.15C2.03891 11.9389 1.93335 11.6872 1.93335 11.3948V4.60516C1.93335 4.31283 2.03891 4.0611 2.25002 3.84999C2.46113 3.63888 2.71285 3.53333 3.00518 3.53333H12.9948C13.2983 3.53333 13.5528 3.63888 13.7583 3.84999C13.9639 4.0611 14.0667 4.31283 14.0667 4.60516V11.3948C14.0667 11.6872 13.9639 11.9389 13.7583 12.15C13.5528 12.3611 13.2983 12.4667 12.9948 12.4667H3.00518ZM2.80002 7.73066H13.2V5.86932H2.80002V7.73066Z" fill="currentColor"/>
</svg>
