<svg width="24" height="24" viewBox="0 0 24 24" fill="none" xmlns="http://www.w3.org/2000/svg">
<path d="M10.8905 15.1385L15.048 12.377C15.1852 12.2833 15.2538 12.1577 15.2538 12C15.2538 11.8423 15.1852 11.7167 15.048 11.623L10.8905 8.8615C10.7367 8.75767 10.5818 8.74717 10.426 8.83C10.2702 8.91267 10.1923 9.04433 10.1923 9.225V14.7773C10.1923 14.9578 10.2702 15.0891 10.426 15.1713C10.5818 15.2533 10.7367 15.2423 10.8905 15.1385ZM12.0017 21.5C10.6877 21.5 9.45267 21.2512 8.2965 20.7535C7.14033 20.256 6.13467 19.5807 5.2795 18.7275C4.42433 17.8745 3.74725 16.8714 3.24825 15.7182C2.74942 14.5651 2.5 13.3321 2.5 12.0192C2.5 11.4987 2.54167 10.9814 2.625 10.4673C2.70833 9.95325 2.83017 9.44433 2.9905 8.9405C3.0545 8.73783 3.18367 8.59867 3.378 8.523C3.57217 8.4475 3.75808 8.45717 3.93575 8.552C4.12608 8.64683 4.261 8.79458 4.3405 8.99525C4.41983 9.19592 4.4275 9.40258 4.3635 9.61525C4.25167 10.0051 4.16308 10.3994 4.09775 10.7983C4.03258 11.1969 4 11.5975 4 12C4 14.2333 4.775 16.125 6.325 17.675C7.875 19.225 9.76667 20 12 20C14.2333 20 16.125 19.225 17.675 17.675C19.225 16.125 20 14.2333 20 12C20 9.76667 19.225 7.875 17.675 6.325C16.125 4.775 14.2333 4 12 4C11.5902 4 11.1846 4.03075 10.7832 4.09225C10.3821 4.15375 9.98508 4.24608 9.59225 4.36925C9.37942 4.43342 9.17692 4.42667 8.98475 4.349C8.79242 4.2715 8.65075 4.13975 8.55975 3.95375C8.46858 3.76792 8.46442 3.5795 8.54725 3.3885C8.62992 3.1975 8.76933 3.06992 8.9655 3.00575C9.43983 2.83525 9.92758 2.70833 10.4288 2.625C10.9301 2.54167 11.4353 2.5 11.9443 2.5C13.2644 2.5 14.505 2.74808 15.666 3.24425C16.8272 3.74042 17.8385 4.41767 18.7 5.276C19.5615 6.13433 20.2435 7.14108 20.746 8.29625C21.2487 9.45142 21.5 10.6857 21.5 11.999C21.5 13.3125 21.2507 14.5473 20.752 15.7035C20.2533 16.8597 19.5766 17.8653 18.7218 18.7205C17.8669 19.5757 16.8617 20.2528 15.706 20.7518C14.5503 21.2506 13.3156 21.5 12.0017 21.5ZM5.7115 6.90375C5.38467 6.90375 5.10425 6.78683 4.87025 6.553C4.63625 6.319 4.51925 6.0385 4.51925 5.7115C4.51925 5.38467 4.63625 5.10425 4.87025 4.87025C5.10425 4.63625 5.38467 4.51925 5.7115 4.51925C6.0385 4.51925 6.319 4.63625 6.553 4.87025C6.78683 5.10425 6.90375 5.38467 6.90375 5.7115C6.90375 6.0385 6.78683 6.319 6.553 6.553C6.319 6.78683 6.0385 6.90375 5.7115 6.90375Z" fill="currentColor"/>
</svg>
