<svg width="20" height="20" viewBox="0 0 20 20" fill="none" xmlns="http://www.w3.org/2000/svg">
<path d="M5.25646 17.9165C4.84215 17.9165 4.4875 17.769 4.1925 17.474C3.8975 17.179 3.75 16.8244 3.75 16.41V8.58963C3.75 8.17532 3.8975 7.82067 4.1925 7.52567C4.4875 7.23067 4.84215 7.08317 5.25646 7.08317H6.25V5.4165C6.25 4.37595 6.61486 3.49081 7.34458 2.76109C8.07431 2.03136 8.95944 1.6665 10 1.6665C11.0406 1.6665 11.9257 2.03136 12.6554 2.76109C13.3851 3.49081 13.75 4.37595 13.75 5.4165V7.08317H14.7435C15.1578 7.08317 15.5125 7.23067 15.8075 7.52567C16.1025 7.82067 16.25 8.17532 16.25 8.58963V16.41C16.25 16.8244 16.1025 17.179 15.8075 17.474C15.5125 17.769 15.1578 17.9165 14.7435 17.9165H5.25646ZM10 13.9582C10.4049 13.9582 10.7492 13.8164 11.0329 13.5328C11.3165 13.249 11.4583 12.9047 11.4583 12.4998C11.4583 12.095 11.3165 11.7507 11.0329 11.4669C10.7492 11.1833 10.4049 11.0415 10 11.0415C9.59514 11.0415 9.25083 11.1833 8.96708 11.4669C8.68347 11.7507 8.54167 12.095 8.54167 12.4998C8.54167 12.9047 8.68347 13.249 8.96708 13.5328C9.25083 13.8164 9.59514 13.9582 10 13.9582ZM7.5 7.08317H12.5V5.4165C12.5 4.72206 12.2569 4.13178 11.7708 3.64567C11.2847 3.15956 10.6944 2.9165 10 2.9165C9.30556 2.9165 8.71528 3.15956 8.22917 3.64567C7.74306 4.13178 7.5 4.72206 7.5 5.4165V7.08317Z" fill="currentColor"/>
</svg>
