<svg width="16" height="16" viewBox="0 0 16 16" fill="none" xmlns="http://www.w3.org/2000/svg">
<path d="M3.80511 13.2666C3.505 13.2666 3.25133 13.163 3.04411 12.9558C2.83689 12.7486 2.73328 12.4949 2.73328 12.1948V3.80511C2.73328 3.505 2.83689 3.25133 3.04411 3.04411C3.25133 2.83689 3.505 2.73328 3.80511 2.73328H12.1948C12.4949 2.73328 12.7486 2.83689 12.9558 3.04411C13.163 3.25133 13.2666 3.505 13.2666 3.80511V4.26661H8.60511C8.06667 4.26661 7.609 4.45511 7.23211 4.83211C6.85511 5.209 6.66661 5.66667 6.66661 6.20511V9.79478C6.66661 10.3332 6.85511 10.7909 7.23211 11.1678C7.609 11.5448 8.06667 11.7333 8.60511 11.7333H13.2666V12.1948C13.2666 12.4982 13.163 12.7527 12.9558 12.9583C12.7486 13.1638 12.4949 13.2666 12.1948 13.2666H3.80511ZM8.60511 10.8666C8.305 10.8666 8.05133 10.763 7.84411 10.5558C7.63689 10.3486 7.53328 10.0949 7.53328 9.79478V6.20511C7.53328 5.905 7.63689 5.65133 7.84411 5.44411C8.05133 5.23689 8.305 5.13328 8.60511 5.13328H12.9948C13.2949 5.13328 13.5486 5.23689 13.7558 5.44411C13.963 5.65133 14.0666 5.905 14.0666 6.20511V9.79478C14.0666 10.0949 13.963 10.3486 13.7558 10.5558C13.5486 10.763 13.2949 10.8666 12.9948 10.8666H8.60511ZM10.7999 8.99994C11.0777 8.99994 11.3138 8.90272 11.5083 8.70828C11.7027 8.51383 11.7999 8.27772 11.7999 7.99994C11.7999 7.72217 11.7027 7.48605 11.5083 7.29161C11.3138 7.09717 11.0777 6.99994 10.7999 6.99994C10.5222 6.99994 10.2861 7.09717 10.0916 7.29161C9.89717 7.48605 9.79994 7.72217 9.79994 7.99994C9.79994 8.27772 9.89717 8.51383 10.0916 8.70828C10.2861 8.90272 10.5222 8.99994 10.7999 8.99994Z" fill="currentColor"/>
</svg>
