<svg width="20" height="20" viewBox="0 0 20 20" fill="none" xmlns="http://www.w3.org/2000/svg">
<path d="M17.5833 5.75642V14.2435C17.5833 14.6089 17.4538 14.9236 17.1947 15.1875C16.9357 15.4513 16.6186 15.5833 16.2435 15.5833H3.75642C3.391 15.5833 3.07635 15.4513 2.81246 15.1875C2.54857 14.9236 2.41663 14.6089 2.41663 14.2435V5.75642C2.41663 5.391 2.54857 5.07635 2.81246 4.81246C3.07635 4.54857 3.391 4.41663 3.75642 4.41663H16.2435C16.6186 4.41663 16.9357 4.54857 17.1947 4.81246C17.4538 5.07635 17.5833 5.391 17.5833 5.75642ZM3.49996 7.33663H16.5V5.75642C16.5 5.69225 16.4732 5.6335 16.4198 5.58017C16.3664 5.52669 16.3077 5.49996 16.2435 5.49996H3.75642C3.69225 5.49996 3.6335 5.52669 3.58017 5.58017C3.5267 5.6335 3.49996 5.69225 3.49996 5.75642V7.33663ZM3.49996 9.66329V14.2435C3.49996 14.3077 3.5267 14.3664 3.58017 14.4198C3.6335 14.4732 3.69225 14.5 3.75642 14.5H16.2435C16.3077 14.5 16.3664 14.4732 16.4198 14.4198C16.4732 14.3664 16.5 14.3077 16.5 14.2435V9.66329H3.49996Z" fill="currentColor"/>
</svg>
