<svg width="16" height="16" viewBox="0 0 16 16" fill="none" xmlns="http://www.w3.org/2000/svg">
<path d="M6.19933 11.8333H9.79532C9.91788 11.8333 10.0215 11.7921 10.1062 11.7097C10.1909 11.6272 10.2333 11.5251 10.2333 11.4033C10.2333 11.2815 10.1919 11.1782 10.109 11.0937C10.026 11.009 9.92321 10.9667 9.80066 10.9667H6.20466C6.0821 10.9667 5.97849 11.0079 5.89383 11.0904C5.80905 11.1728 5.76666 11.2749 5.76666 11.3967C5.76666 11.5186 5.8081 11.6218 5.89099 11.7063C5.97399 11.791 6.07677 11.8333 6.19933 11.8333ZM6.19933 9.43335H9.79532C9.91788 9.43335 10.0215 9.39213 10.1062 9.30968C10.1909 9.22724 10.2333 9.12513 10.2333 9.00335C10.2333 8.88146 10.1919 8.77824 10.109 8.69368C10.026 8.60902 9.92321 8.56668 9.80066 8.56668H6.20466C6.0821 8.56668 5.97849 8.6079 5.89383 8.69035C5.80905 8.77279 5.76666 8.8749 5.76666 8.99668C5.76666 9.11857 5.8081 9.22179 5.89099 9.30635C5.97399 9.39102 6.07677 9.43335 6.19933 9.43335ZM4.60049 14.0667C4.30016 14.0667 4.04721 13.9631 3.84166 13.7558C3.6361 13.5486 3.53333 13.295 3.53333 12.9948V3.00518C3.53333 2.70507 3.63694 2.45141 3.84416 2.24418C4.05138 2.03696 4.30505 1.93335 4.60516 1.93335H9.31799C9.45833 1.93335 9.5966 1.95902 9.73282 2.01035C9.86905 2.06157 9.98633 2.14191 10.0847 2.25135L12.1487 4.31535C12.2581 4.41368 12.3384 4.53096 12.3897 4.66718C12.441 4.80341 12.4667 4.94168 12.4667 5.08202V12.9948C12.4667 13.295 12.363 13.5486 12.1557 13.7558C11.9483 13.9631 11.6945 14.0667 11.3942 14.0667H4.60049ZM9.13333 4.73335C9.13333 4.88446 9.18444 5.01113 9.28666 5.11335C9.38888 5.21557 9.51555 5.26668 9.66666 5.26668H11.6L9.13333 2.80002V4.73335Z" fill="currentColor"/>
</svg>
