<svg width="24" height="24" viewBox="0 0 24 24" fill="none" xmlns="http://www.w3.org/2000/svg">
<path d="M6.82551 13.3C6.46651 13.3 6.16101 13.1722 5.90901 12.9165C5.65685 12.6608 5.53076 12.3536 5.53076 11.9948C5.53076 11.6358 5.6586 11.3303 5.91426 11.0783C6.16993 10.8261 6.47718 10.7 6.83601 10.7C7.19501 10.7 7.50059 10.8278 7.75276 11.0835C8.00476 11.3392 8.13076 11.6464 8.13076 12.0053C8.13076 12.3643 8.00293 12.6698 7.74726 12.9218C7.49176 13.1739 7.18451 13.3 6.82551 13.3ZM11.9948 13.3C11.6358 13.3 11.3303 13.1722 11.0783 12.9165C10.8261 12.6608 10.7 12.3536 10.7 11.9948C10.7 11.6358 10.8278 11.3303 11.0835 11.0783C11.3392 10.8261 11.6464 10.7 12.0053 10.7C12.3643 10.7 12.6698 10.8278 12.9218 11.0835C13.1739 11.3392 13.3 11.6464 13.3 12.0053C13.3 12.3643 13.1722 12.6698 12.9165 12.9218C12.6608 13.1739 12.3536 13.3 11.9948 13.3ZM17.164 13.3C16.805 13.3 16.4994 13.1722 16.2473 12.9165C15.9953 12.6608 15.8693 12.3536 15.8693 11.9948C15.8693 11.6358 15.9971 11.3303 16.2528 11.0783C16.5083 10.8261 16.8155 10.7 17.1745 10.7C17.5335 10.7 17.839 10.8278 18.091 11.0835C18.3432 11.3392 18.4693 11.6464 18.4693 12.0053C18.4693 12.3643 18.3414 12.6698 18.0858 12.9218C17.8301 13.1739 17.5228 13.3 17.164 13.3Z" fill="currentColor"/>
</svg>
