<svg width="20" height="20" viewBox="0 0 20 20" fill="none" xmlns="http://www.w3.org/2000/svg">
<path d="M4.42321 17.0833C4.0089 17.0833 3.65425 16.9358 3.35925 16.6408C3.06425 16.3458 2.91675 15.9911 2.91675 15.5768V4.42308C2.91675 4.00878 3.06425 3.65413 3.35925 3.35913C3.65425 3.06413 4.0089 2.91663 4.42321 2.91663H7.86862C8.28293 2.91663 8.63758 3.06413 8.93258 3.35913C9.22758 3.65413 9.37508 4.00878 9.37508 4.42308V15.5768C9.37508 15.9911 9.22758 16.3458 8.93258 16.6408C8.63758 16.9358 8.28293 17.0833 7.86862 17.0833H4.42321ZM12.1315 17.0833C11.7172 17.0833 11.3626 16.9358 11.0676 16.6408C10.7726 16.3458 10.6251 15.9911 10.6251 15.5768V11.5064C10.6251 11.0921 10.7726 10.7375 11.0676 10.4425C11.3626 10.1475 11.7172 9.99996 12.1315 9.99996H15.577C15.9913 9.99996 16.3459 10.1475 16.6409 10.4425C16.9359 10.7375 17.0834 11.0921 17.0834 11.5064V15.5768C17.0834 15.9911 16.9359 16.3458 16.6409 16.6408C16.3459 16.9358 15.9913 17.0833 15.577 17.0833H12.1315ZM12.1315 8.74996C11.7172 8.74996 11.3626 8.60246 11.0676 8.30746C10.7726 8.01246 10.6251 7.65781 10.6251 7.2435V4.42308C10.6251 4.00878 10.7726 3.65413 11.0676 3.35913C11.3626 3.06413 11.7172 2.91663 12.1315 2.91663H15.577C15.9913 2.91663 16.3459 3.06413 16.6409 3.35913C16.9359 3.65413 17.0834 4.00878 17.0834 4.42308V7.2435C17.0834 7.65781 16.9359 8.01246 16.6409 8.30746C16.3459 8.60246 15.9913 8.74996 15.577 8.74996H12.1315Z" fill="currentColor"/>
</svg>
