<svg width="20" height="20" viewBox="0 0 20 20" fill="none" xmlns="http://www.w3.org/2000/svg">
<path d="M9.99558 13.7756C10.1614 13.7756 10.3019 13.7195 10.417 13.6073C10.5322 13.495 10.5898 13.356 10.5898 13.1902C10.5898 13.0243 10.5336 12.8838 10.4214 12.7687C10.3092 12.6537 10.1702 12.5962 10.0043 12.5962C9.8385 12.5962 9.69802 12.6523 9.58288 12.7643C9.46774 12.8766 9.41017 13.0156 9.41017 13.1814C9.41017 13.3473 9.46628 13.4877 9.5785 13.6029C9.69072 13.718 9.82975 13.7756 9.99558 13.7756ZM9.99579 11.0641C10.1482 11.0641 10.2772 11.0122 10.3829 10.9083C10.4887 10.8045 10.5416 10.6759 10.5416 10.5225V6.60579C10.5416 6.45232 10.4901 6.32364 10.387 6.21975C10.284 6.116 10.1563 6.06413 10.0041 6.06413C9.85177 6.06413 9.72274 6.116 9.61704 6.21975C9.51121 6.32364 9.45829 6.45232 9.45829 6.60579V10.5225C9.45829 10.6759 9.50982 10.8045 9.61288 10.9083C9.71593 11.0122 9.84357 11.0641 9.99579 11.0641ZM10.007 17.5833C8.96385 17.5833 7.98135 17.3859 7.05954 16.9912C6.13774 16.5965 5.33093 16.0534 4.63913 15.3618C3.94732 14.6703 3.40392 13.8641 3.00892 12.9433C2.61406 12.0226 2.41663 11.0388 2.41663 9.99183C2.41663 8.94489 2.61399 7.96399 3.00871 7.04913C3.40343 6.13426 3.94656 5.33093 4.63808 4.63913C5.32961 3.94732 6.13579 3.40392 7.05663 3.00892C7.97732 2.61406 8.96114 2.41663 10.0081 2.41663C11.055 2.41663 12.0359 2.61399 12.9508 3.00871C13.8657 3.40343 14.669 3.94656 15.3608 4.63808C16.0526 5.32961 16.596 6.13413 16.991 7.05163C17.3859 7.96926 17.5833 8.94968 17.5833 9.99288C17.5833 11.0361 17.3859 12.0186 16.9912 12.9404C16.5965 13.8622 16.0534 14.669 15.3618 15.3608C14.6703 16.0526 13.8658 16.596 12.9483 16.991C12.0307 17.3859 11.0502 17.5833 10.007 17.5833Z" fill="currentColor"/>
</svg>
