<svg width="16" height="16" viewBox="0 0 16 16" fill="none" xmlns="http://www.w3.org/2000/svg">
<path d="M8.00004 13.6666C6.38215 13.6666 5.03321 13.4382 3.95321 12.9813C2.87332 12.5245 2.33337 11.9538 2.33337 11.2691V4.66665C2.33337 4.02309 2.88637 3.47331 3.99237 3.01731C5.09837 2.56131 6.43426 2.33331 8.00004 2.33331C9.56582 2.33331 10.9017 2.56131 12.0077 3.01731C13.1137 3.47331 13.6667 4.02309 13.6667 4.66665V11.2691C13.6667 11.9538 13.1268 12.5245 12.0469 12.9813C10.9669 13.4382 9.61793 13.6666 8.00004 13.6666ZM8.00004 5.97181C8.97182 5.97181 9.95026 5.83442 10.9354 5.55965C11.9204 5.28487 12.4911 4.98848 12.6475 4.67048C12.4953 4.34403 11.9305 4.03953 10.9532 3.75698C9.97587 3.47453 8.99148 3.33331 8.00004 3.33331C7.01026 3.33331 6.02926 3.4707 5.05704 3.74548C4.08482 4.02026 3.51237 4.32004 3.33971 4.64481C3.50815 4.97815 4.07632 5.28265 5.04421 5.55831C6.01221 5.83398 6.99748 5.97181 8.00004 5.97181ZM8.00004 9.30765C8.46248 9.30765 8.91248 9.28542 9.35004 9.24098C9.7876 9.19653 10.2058 9.13159 10.6045 9.04615C11.0032 8.9607 11.3765 8.8547 11.7244 8.72815C12.0723 8.6017 12.3864 8.45854 12.6667 8.29865V5.93331C12.3864 6.09309 12.0723 6.23626 11.7244 6.36281C11.3765 6.48926 11.0032 6.5952 10.6045 6.68065C10.2058 6.7662 9.7876 6.8312 9.35004 6.87565C8.91248 6.92009 8.46248 6.94231 8.00004 6.94231C7.52915 6.94231 7.07037 6.91898 6.62371 6.87231C6.17715 6.82576 5.7556 6.75976 5.35904 6.67431C4.96249 6.58887 4.59304 6.48398 4.25071 6.35965C3.90837 6.2352 3.6026 6.09309 3.33337 5.93331V8.29865C3.6026 8.45854 3.90837 8.60065 4.25071 8.72498C4.59304 8.84931 4.96249 8.9542 5.35904 9.03965C5.7556 9.1252 6.17715 9.19126 6.62371 9.23781C7.07037 9.28437 7.52915 9.30765 8.00004 9.30765ZM8.00004 12.6666C8.54104 12.6666 9.07226 12.631 9.59371 12.5596C10.115 12.4882 10.5894 12.3908 11.0167 12.2673C11.444 12.1438 11.8045 12.0004 12.098 11.8371C12.3917 11.6739 12.5813 11.5025 12.6667 11.323V9.29865C12.3864 9.45854 12.0723 9.6017 11.7244 9.72815C11.3765 9.8547 11.0032 9.9607 10.6045 10.0461C10.2058 10.1316 9.7876 10.1965 9.35004 10.241C8.91248 10.2854 8.46248 10.3076 8.00004 10.3076C7.52915 10.3076 7.07037 10.2844 6.62371 10.2378C6.17715 10.1913 5.7556 10.1252 5.35904 10.0396C4.96249 9.9542 4.59304 9.84931 4.25071 9.72498C3.90837 9.60065 3.6026 9.45854 3.33337 9.29865V11.3333C3.41882 11.5171 3.60665 11.6878 3.89687 11.8455C4.18699 12.0031 4.54571 12.1438 4.97304 12.2673C5.40049 12.3908 5.8766 12.4882 6.40137 12.5596C6.92615 12.631 7.45904 12.6666 8.00004 12.6666Z" fill="currentColor"/>
</svg>
