<svg width="24" height="24" viewBox="0 0 24 24" fill="none" xmlns="http://www.w3.org/2000/svg">
<path d="M4.50777 18.7C4.06927 18.7 3.69169 18.5417 3.37502 18.225C3.05836 17.9084 2.90002 17.5308 2.90002 17.0923V6.9078C2.90002 6.4693 3.05836 6.09172 3.37502 5.77505C3.69169 5.45838 4.06927 5.30005 4.50777 5.30005H19.4923C19.9474 5.30005 20.3292 5.45838 20.6375 5.77505C20.9459 6.09172 21.1 6.4693 21.1 6.9078V17.0923C21.1 17.5308 20.9459 17.9084 20.6375 18.225C20.3292 18.5417 19.9474 18.7 19.4923 18.7H4.50777ZM4.20002 11.596H19.8V8.80405H4.20002V11.596Z" fill="currentColor"/>
</svg>
