<svg width="16" height="16" viewBox="0 0 16 16" fill="none" xmlns="http://www.w3.org/2000/svg">
<path d="M6.41331 10.1435C5.37453 10.1435 4.49081 9.77922 3.76214 9.05066C3.03359 8.32199 2.66931 7.43844 2.66931 6.39999C2.66931 5.36155 3.03359 4.47799 3.76214 3.74933C4.49081 3.02077 5.37437 2.65649 6.41281 2.65649C7.45126 2.65649 8.33481 3.02077 9.06348 3.74933C9.79203 4.47799 10.1563 5.36172 10.1563 6.40049C10.1563 6.83638 10.0848 7.25316 9.94165 7.65083C9.79842 8.0486 9.60459 8.40772 9.36015 8.72816L13.0295 12.3975C13.1218 12.4897 13.169 12.589 13.1711 12.6955C13.1733 12.8019 13.126 12.9034 13.0295 13C12.9329 13.0965 12.8297 13.1448 12.7198 13.1448C12.61 13.1448 12.5069 13.0965 12.4103 13L8.74098 9.34733C8.40765 9.60033 8.04215 9.79627 7.64448 9.93516C7.24681 10.074 6.83642 10.1435 6.41331 10.1435ZM6.41281 9.27699C7.21626 9.27699 7.89659 8.99833 8.45381 8.44099C9.01115 7.88377 9.28981 7.20344 9.28981 6.39999C9.28981 5.59655 9.01115 4.91622 8.45381 4.35899C7.89659 3.80166 7.21626 3.52299 6.41281 3.52299C5.60937 3.52299 4.92903 3.80166 4.37181 4.35899C3.81448 4.91622 3.53581 5.59655 3.53581 6.39999C3.53581 7.20344 3.81448 7.88377 4.37181 8.44099C4.92903 8.99833 5.60937 9.27699 6.41281 9.27699Z" fill="currentColor"/>
</svg>
