<svg width="24" height="24" viewBox="0 0 24 24" fill="none" xmlns="http://www.w3.org/2000/svg">
<path d="M11.991 19.6879C11.7881 19.6879 11.5843 19.6516 11.3797 19.5788C11.1751 19.5058 10.995 19.3917 10.8395 19.2363L9.47858 17.9993C7.79889 16.4677 6.29921 14.9631 4.97953 13.4855C3.65984 12.0079 3 10.4251 3 8.73684C3 7.39237 3.45332 6.26674 4.35995 5.35995C5.26674 4.45332 6.39237 4 7.73684 4C8.50074 4 9.25532 4.17613 10.0006 4.52839C10.7457 4.88066 11.4122 5.45271 12 6.24455C12.5878 5.45271 13.2543 4.88066 13.9994 4.52839C14.7447 4.17613 15.4993 4 16.2632 4C17.6076 4 18.7333 4.45332 19.6401 5.35995C20.5467 6.26674 21 7.39237 21 8.73684C21 10.4434 20.3289 12.0439 18.9868 13.5383C17.6447 15.0328 16.1484 16.5246 14.4977 18.0137L13.1513 19.2363C12.9959 19.3917 12.8144 19.5058 12.6068 19.5788C12.399 19.6516 12.1937 19.6879 11.991 19.6879ZM11.3186 7.68384C10.8061 6.90289 10.2665 6.33053 9.69979 5.96674C9.13326 5.60295 8.47895 5.42105 7.73684 5.42105C6.78947 5.42105 6 5.73684 5.36842 6.36842C4.73684 7 4.42105 7.78947 4.42105 8.73684C4.42105 9.49711 4.66611 10.292 5.15621 11.1216C5.64632 11.9512 6.26147 12.7759 7.00168 13.5957C7.74189 14.4156 8.54384 15.2166 9.40753 15.9987C10.2711 16.7809 11.0714 17.5078 11.8086 18.1795C11.8633 18.2281 11.9271 18.2524 12 18.2524C12.0729 18.2524 12.1367 18.2281 12.1914 18.1795C12.9286 17.5078 13.7289 16.7809 14.5925 15.9987C15.4562 15.2166 16.2581 14.4156 16.9983 13.5957C17.7385 12.7759 18.3537 11.9512 18.8438 11.1216C19.3339 10.292 19.5789 9.49711 19.5789 8.73684C19.5789 7.78947 19.2632 7 18.6316 6.36842C18 5.73684 17.2105 5.42105 16.2632 5.42105C15.5211 5.42105 14.8667 5.60295 14.3002 5.96674C13.7335 6.33053 13.1939 6.90289 12.6814 7.68384C12.6012 7.80526 12.5004 7.89637 12.3789 7.95716C12.2575 8.01779 12.1312 8.0481 12 8.0481C11.8688 8.0481 11.7425 8.01779 11.6211 7.95716C11.4996 7.89637 11.3988 7.80526 11.3186 7.68384Z" fill="currentColor"/>
</svg>
