<svg width="20" height="20" viewBox="0 0 20 20" fill="none" xmlns="http://www.w3.org/2000/svg">
<path d="M9.99571 15.3911C9.69654 15.3911 9.44196 15.2846 9.23196 15.0715C9.02182 14.8585 8.91675 14.6024 8.91675 14.3034C8.91675 14.0042 9.02328 13.7496 9.23633 13.5394C9.44939 13.3294 9.70543 13.2244 10.0045 13.2244C10.3036 13.2244 10.5582 13.331 10.7682 13.544C10.9783 13.7569 11.0834 14.013 11.0834 14.3121C11.0834 14.6113 10.9769 14.8659 10.7638 15.0759C10.5508 15.286 10.2947 15.3911 9.99571 15.3911ZM9.99571 11.0834C9.69654 11.0834 9.44196 10.9769 9.23196 10.7638C9.02182 10.5507 8.91675 10.2947 8.91675 9.99568C8.91675 9.69651 9.02328 9.44193 9.23633 9.23193C9.44939 9.02179 9.70543 8.91672 10.0045 8.91672C10.3036 8.91672 10.5582 9.02325 10.7682 9.2363C10.9783 9.44936 11.0834 9.7054 11.0834 10.0044C11.0834 10.3036 10.9769 10.5582 10.7638 10.7682C10.5508 10.9783 10.2947 11.0834 9.99571 11.0834ZM9.99571 6.77568C9.69654 6.77568 9.44196 6.66915 9.23196 6.45609C9.02182 6.24318 8.91675 5.98713 8.91675 5.68797C8.91675 5.3888 9.02328 5.13422 9.23633 4.92422C9.44939 4.71408 9.70543 4.60901 10.0045 4.60901C10.3036 4.60901 10.5582 4.71554 10.7682 4.92859C10.9783 5.14165 11.0834 5.39769 11.0834 5.69672C11.0834 5.99588 10.9769 6.25054 10.7638 6.46068C10.5508 6.67068 10.2947 6.77568 9.99571 6.77568Z" fill="currentColor"/>
</svg>
