<svg width="16" height="16" viewBox="0 0 16 16" fill="none" xmlns="http://www.w3.org/2000/svg">
<path d="M13.7744 9.83335H2.22219C2.10508 9.83335 2.00414 9.79213 1.91936 9.70968C1.83469 9.62724 1.79236 9.52513 1.79236 9.40335C1.79236 9.28146 1.83386 9.17824 1.91686 9.09368C1.99997 9.00902 2.10291 8.96668 2.22569 8.96668H13.7779C13.895 8.96668 13.9959 9.00791 14.0807 9.09035C14.1654 9.17279 14.2077 9.2749 14.2077 9.39668C14.2077 9.51857 14.1662 9.62179 14.0832 9.70635C14.0001 9.79102 13.8971 9.83335 13.7744 9.83335ZM9.66669 5.26668H11.6L9.13336 2.80002V4.73335C9.13336 4.88446 9.18447 5.01113 9.28669 5.11335C9.38891 5.21557 9.51558 5.26668 9.66669 5.26668ZM4.60519 14.0667C4.31819 14.0667 4.0678 13.9617 3.85403 13.7518C3.64025 13.542 3.53336 13.2896 3.53336 12.9948V11.5692C3.53336 11.4174 3.58469 11.2901 3.68736 11.1873C3.79003 11.0847 3.91725 11.0333 4.06903 11.0333H11.9259C12.0776 11.0333 12.2057 11.0847 12.31 11.1873C12.4145 11.2901 12.4667 11.4174 12.4667 11.5692V12.9948C12.4667 13.2896 12.3598 13.542 12.146 13.7518C11.9322 13.9617 11.6819 14.0667 11.3949 14.0667H4.60519ZM4.07419 7.76668C3.92241 7.76668 3.79436 7.71535 3.69003 7.61268C3.58558 7.5099 3.53336 7.38263 3.53336 7.23085V3.00518C3.53336 2.71041 3.64025 2.45807 3.85403 2.24818C4.0678 2.03829 4.31819 1.93335 4.60519 1.93335H9.31803C9.4608 1.93335 9.59691 1.95902 9.72636 2.01035C9.8558 2.06157 9.97525 2.14191 10.0847 2.25135L12.1487 4.31535C12.2581 4.42479 12.3385 4.54424 12.3897 4.67368C12.441 4.80313 12.4667 4.93924 12.4667 5.08202V7.23085C12.4667 7.38263 12.4154 7.5099 12.3127 7.61268C12.21 7.71535 12.0828 7.76668 11.931 7.76668H4.07419Z" fill="currentColor"/>
</svg>
