<svg width="24" height="24" viewBox="0 0 24 24" fill="none" xmlns="http://www.w3.org/2000/svg">
<path d="M6.16286 17.0116C7.05297 16.4043 7.98115 15.9529 8.94742 15.6574C9.91352 15.362 10.931 15.2143 12 15.2143C13.069 15.2143 14.0865 15.362 15.0526 15.6574C16.0188 15.9529 16.947 16.4043 17.8371 17.0116C18.452 16.3357 18.9185 15.5699 19.2368 14.7141C19.5551 13.8583 19.7143 12.9536 19.7143 12C19.7143 9.86258 18.9624 8.04247 17.4586 6.53967C15.9548 5.03703 14.1334 4.28571 11.9943 4.28571C9.85525 4.28571 8.03571 5.03703 6.53571 6.53967C5.03571 8.04247 4.28571 9.86258 4.28571 12C4.28571 12.9536 4.44486 13.8583 4.76316 14.7141C5.08146 15.5699 5.54802 16.3357 6.16286 17.0116ZM12.0002 13.533C11.0808 13.533 10.2987 13.2107 9.65407 12.5662C9.00923 11.9215 8.68681 11.1395 8.68681 10.22C8.68681 9.30058 9.00907 8.51852 9.65357 7.87385C10.2982 7.22901 11.0803 6.90659 11.9998 6.90659C12.9192 6.90659 13.7013 7.22885 14.3459 7.87335C14.9908 8.51802 15.3132 9.30008 15.3132 10.2195C15.3132 11.139 14.9909 11.921 14.3464 12.5657C13.7018 13.2105 12.9197 13.533 12.0002 13.533ZM12.0069 21C10.7636 21 9.59506 20.767 8.50137 20.301C7.40769 19.835 6.45041 19.1915 5.62953 18.3705C4.80849 17.5496 4.16497 16.5926 3.69898 15.4996C3.23299 14.4068 3 13.2364 3 11.9886C3 10.741 3.23299 9.57445 3.69898 8.48901C4.16497 7.40357 4.80849 6.45041 5.62953 5.62953C6.45041 4.80849 7.40736 4.16497 8.50038 3.69898C9.59324 3.233 10.7636 3 12.0114 3C13.259 3 14.4255 3.233 15.511 3.69898C16.5964 4.16497 17.5496 4.80849 18.3705 5.62953C19.1915 6.45041 19.835 7.40538 20.301 8.49445C20.767 9.58368 21 10.7499 21 11.9931C21 13.2364 20.767 14.4049 20.301 15.4986C19.835 16.5923 19.1915 17.5496 18.3705 18.3705C17.5496 19.1915 16.5946 19.835 15.5056 20.301C14.4163 20.767 13.2501 21 12.0069 21ZM12 19.7143C12.8761 19.7143 13.7367 19.5625 14.5818 19.2588C15.4269 18.9551 16.1956 18.5205 16.8879 17.9551C16.1791 17.4909 15.4118 17.1324 14.5858 16.8795C13.7596 16.6265 12.8977 16.5 12 16.5C11.1023 16.5 10.2347 16.6207 9.39717 16.8622C8.55964 17.1039 7.79794 17.4682 7.11206 17.9551C7.80437 18.5205 8.57308 18.9551 9.41819 19.2588C10.2633 19.5625 11.1239 19.7143 12 19.7143ZM12 12.2473C12.558 12.2473 13.0353 12.0488 13.4321 11.6519C13.829 11.2551 14.0275 10.7777 14.0275 10.2198C14.0275 9.66181 13.829 9.18445 13.4321 8.78769C13.0353 8.39077 12.558 8.19231 12 8.19231C11.442 8.19231 10.9647 8.39077 10.5679 8.78769C10.171 9.18445 9.97253 9.66181 9.97253 10.2198C9.97253 10.7777 10.171 11.2551 10.5679 11.6519C10.9647 12.0488 11.442 12.2473 12 12.2473Z" fill="currentColor"/>
</svg>
