<svg width="20" height="20" viewBox="0 0 20 20" fill="none" xmlns="http://www.w3.org/2000/svg">
<path d="M4.42312 17.0832C4.00215 17.0832 3.64583 16.9373 3.35416 16.6457C3.0625 16.354 2.91666 15.9977 2.91666 15.5767V4.42296C2.91666 4.00199 3.0625 3.64567 3.35416 3.354C3.64583 3.06234 4.00215 2.9165 4.42312 2.9165H15.5769C15.9978 2.9165 16.3542 3.06234 16.6458 3.354C16.9375 3.64567 17.0833 4.00199 17.0833 4.42296V15.5767C17.0833 15.9977 16.9375 16.354 16.6458 16.6457C16.3542 16.9373 15.9978 17.0832 15.5769 17.0832H4.42312ZM4.16666 7.21775H15.8333V4.42296C15.8333 4.3588 15.8066 4.30005 15.7531 4.24671C15.6998 4.19324 15.641 4.1665 15.5769 4.1665H4.42312C4.35896 4.1665 4.30021 4.19324 4.24687 4.24671C4.1934 4.30005 4.16666 4.3588 4.16666 4.42296V7.21775ZM4.16666 11.5319H15.8333V8.46775H4.16666V11.5319ZM4.42312 15.8332H15.5769C15.641 15.8332 15.6998 15.8064 15.7531 15.753C15.8066 15.6996 15.8333 15.6409 15.8333 15.5767V12.7819H4.16666V15.5767C4.16666 15.6409 4.1934 15.6996 4.24687 15.753C4.30021 15.8064 4.35896 15.8332 4.42312 15.8332ZM6.07229 6.439C5.85854 6.439 5.67979 6.36664 5.53604 6.22192C5.39243 6.07734 5.32062 5.89817 5.32062 5.68442C5.32062 5.47053 5.39291 5.29178 5.5375 5.14817C5.68208 5.00442 5.86132 4.93255 6.07521 4.93255C6.28896 4.93255 6.46771 5.00484 6.61146 5.14942C6.75507 5.29414 6.82687 5.47338 6.82687 5.68713C6.82687 5.90102 6.75458 6.07977 6.61 6.22338C6.46541 6.36713 6.28618 6.439 6.07229 6.439ZM6.07229 10.753C5.85854 10.753 5.67979 10.6807 5.53604 10.5361C5.39243 10.3915 5.32062 10.2123 5.32062 9.99838C5.32062 9.78463 5.39291 9.60588 5.5375 9.46213C5.68208 9.31852 5.86132 9.24671 6.07521 9.24671C6.28896 9.24671 6.46771 9.319 6.61146 9.46359C6.75507 9.60817 6.82687 9.78741 6.82687 10.0013C6.82687 10.215 6.75458 10.3938 6.61 10.5375C6.46541 10.6812 6.28618 10.753 6.07229 10.753ZM6.07229 15.0671C5.85854 15.0671 5.67979 14.9948 5.53604 14.8503C5.39243 14.7055 5.32062 14.5263 5.32062 14.3125C5.32062 14.0987 5.39291 13.9199 5.5375 13.7763C5.68208 13.6325 5.86132 13.5607 6.07521 13.5607C6.28896 13.5607 6.46771 13.633 6.61146 13.7778C6.75507 13.9223 6.82687 14.1015 6.82687 14.3153C6.82687 14.5291 6.75458 14.7079 6.61 14.8515C6.46541 14.9953 6.28618 15.0671 6.07229 15.0671Z" fill="currentColor"/>
</svg>
