<svg width="20" height="20" viewBox="0 0 20 20" fill="none" xmlns="http://www.w3.org/2000/svg">
<path d="M5.032 14.5833L3.36367 16.2514C3.12659 16.4886 2.85388 16.5423 2.54554 16.4126C2.23735 16.2828 2.08325 16.049 2.08325 15.7114V3.58971C2.08325 3.16874 2.22909 2.81242 2.52075 2.52075C2.81242 2.22909 3.16874 2.08325 3.58971 2.08325H16.4101C16.8311 2.08325 17.1874 2.22909 17.4791 2.52075C17.7708 2.81242 17.9166 3.16874 17.9166 3.58971V13.0768C17.9166 13.4978 17.7708 13.8541 17.4791 14.1458C17.1874 14.4374 16.8311 14.5833 16.4101 14.5833H5.032ZM4.49992 13.3333H16.4101C16.4743 13.3333 16.533 13.3065 16.5864 13.253C16.6398 13.1997 16.6666 13.141 16.6666 13.0768V3.58971C16.6666 3.52554 16.6398 3.46679 16.5864 3.41346C16.533 3.35999 16.4743 3.33325 16.4101 3.33325H3.58971C3.52554 3.33325 3.46679 3.35999 3.41346 3.41346C3.35999 3.46679 3.33325 3.52554 3.33325 3.58971V14.4872L4.49992 13.3333ZM6.66658 9.07034C6.87061 9.07034 7.0445 8.99853 7.18825 8.85492C7.33186 8.71117 7.40367 8.53728 7.40367 8.33325C7.40367 8.12922 7.33186 7.95534 7.18825 7.81159C7.0445 7.66797 6.87061 7.59617 6.66658 7.59617C6.46256 7.59617 6.28867 7.66797 6.14492 7.81159C6.00131 7.95534 5.9295 8.12922 5.9295 8.33325C5.9295 8.53728 6.00131 8.71117 6.14492 8.85492C6.28867 8.99853 6.46256 9.07034 6.66658 9.07034ZM9.99992 9.07034C10.2039 9.07034 10.3778 8.99853 10.5216 8.85492C10.6652 8.71117 10.737 8.53728 10.737 8.33325C10.737 8.12922 10.6652 7.95534 10.5216 7.81159C10.3778 7.66797 10.2039 7.59617 9.99992 7.59617C9.79589 7.59617 9.622 7.66797 9.47825 7.81159C9.33464 7.95534 9.26283 8.12922 9.26283 8.33325C9.26283 8.53728 9.33464 8.71117 9.47825 8.85492C9.622 8.99853 9.79589 9.07034 9.99992 9.07034ZM13.3333 9.07034C13.5373 9.07034 13.7112 8.99853 13.8549 8.85492C13.9985 8.71117 14.0703 8.53728 14.0703 8.33325C14.0703 8.12922 13.9985 7.95534 13.8549 7.81159C13.7112 7.66797 13.5373 7.59617 13.3333 7.59617C13.1292 7.59617 12.9553 7.66797 12.8116 7.81159C12.668 7.95534 12.5962 8.12922 12.5962 8.33325C12.5962 8.53728 12.668 8.71117 12.8116 8.85492C12.9553 8.99853 13.1292 9.07034 13.3333 9.07034Z" fill="currentColor"/>
</svg>
