<svg width="20" height="20" viewBox="0 0 20 20" fill="none" xmlns="http://www.w3.org/2000/svg">
<path d="M3.75642 15.5833C3.391 15.5833 3.07635 15.4513 2.81246 15.1875C2.54857 14.9236 2.41663 14.6089 2.41663 14.2435V5.75642C2.41663 5.391 2.54857 5.07635 2.81246 4.81246C3.07635 4.54857 3.391 4.41663 3.75642 4.41663H16.2435C16.6228 4.41663 16.9409 4.54857 17.1979 4.81246C17.4548 5.07635 17.5833 5.391 17.5833 5.75642V14.2435C17.5833 14.6089 17.4548 14.9236 17.1979 15.1875C16.9409 15.4513 16.6228 15.5833 16.2435 15.5833H3.75642ZM3.49996 9.66329H16.5V7.33663H3.49996V9.66329Z" fill="currentColor"/>
</svg>
