<svg width="24" height="24" viewBox="0 0 24 24" fill="none" xmlns="http://www.w3.org/2000/svg">
<path d="M16.0468 6.31915C16.2561 6.31915 16.613 6.35225 17.1174 6.41844C17.6217 6.48463 18.1737 6.67376 18.7732 6.98582C19.3822 7.28842 19.9342 7.79433 20.429 8.50355C20.4005 8.53191 20.2625 8.63593 20.0151 8.8156C19.7676 8.98582 19.4917 9.24113 19.1872 9.58156C18.8826 9.91253 18.6162 10.3381 18.3878 10.8582C18.1594 11.3688 18.0452 11.9787 18.0452 12.6879C18.0452 13.5012 18.1879 14.1915 18.4734 14.7589C18.7684 15.3262 19.1063 15.7849 19.4869 16.1348C19.8771 16.4752 20.2197 16.7258 20.5147 16.8865C20.8192 17.0473 20.981 17.1324 21 17.1418C20.9905 17.1797 20.8668 17.5154 20.6289 18.1489C20.4005 18.7825 20.0198 19.487 19.4869 20.2624C19.0206 20.9338 18.5163 21.5532 17.9738 22.1206C17.4409 22.6879 16.7986 22.9716 16.0468 22.9716C15.5424 22.9716 15.1285 22.9007 14.8049 22.7589C14.4814 22.6076 14.1483 22.461 13.8057 22.3191C13.4631 22.1678 13.0016 22.0922 12.4211 22.0922C11.8596 22.0922 11.3886 22.1678 11.0079 22.3191C10.6368 22.4704 10.2799 22.6217 9.93735 22.773C9.60428 22.9243 9.20936 23 8.75258 23C8.05789 23 7.44885 22.7258 6.92546 22.1773C6.40206 21.6288 5.86439 20.9716 5.31245 20.2057C4.67486 19.2979 4.12768 18.1915 3.6709 16.8865C3.22363 15.5721 3 14.2482 3 12.9149C3 11.487 3.27121 10.2908 3.81364 9.32624C4.35607 8.35225 5.05075 7.61939 5.8977 7.12766C6.75416 6.62648 7.63918 6.37589 8.55274 6.37589C9.03806 6.37589 9.49485 6.45626 9.92308 6.61702C10.3513 6.76832 10.751 6.92435 11.1221 7.08511C11.5028 7.24586 11.8454 7.32624 12.1499 7.32624C12.4449 7.32624 12.7875 7.24113 13.1776 7.07092C13.5678 6.90071 14.0056 6.73522 14.4909 6.57447C14.9762 6.40425 15.4948 6.31915 16.0468 6.31915ZM15.2617 4.51773C14.8906 4.96217 14.4243 5.3357 13.8628 5.6383C13.3013 5.93144 12.7684 6.07801 12.2641 6.07801C12.1594 6.07801 12.0595 6.06856 11.9643 6.04965C11.9548 6.02128 11.9453 5.96927 11.9358 5.89362C11.9262 5.81797 11.9215 5.73759 11.9215 5.65248C11.9215 5.08511 12.0452 4.53664 12.2926 4.00709C12.54 3.46809 12.8208 3.02364 13.1348 2.67376C13.5345 2.20095 14.0389 1.80851 14.6479 1.49645C15.2569 1.1844 15.8374 1.01891 16.3894 1C16.4179 1.12293 16.4322 1.2695 16.4322 1.43972C16.4322 2.00709 16.3228 2.56028 16.1039 3.09929C15.885 3.62884 15.6043 4.10165 15.2617 4.51773Z" fill="currentColor"/>
</svg>
