<svg width="16" height="16" viewBox="0 0 16 16" fill="none" xmlns="http://www.w3.org/2000/svg">
<path d="M12.0833 7.16667H10.5833C10.4417 7.16667 10.3229 7.11873 10.2272 7.02284C10.1313 6.92695 10.0833 6.80817 10.0833 6.66651C10.0833 6.52473 10.1313 6.40601 10.2272 6.31034C10.3229 6.21456 10.4417 6.16667 10.5833 6.16667H12.0833V4.66667C12.0833 4.52501 12.1313 4.40629 12.2272 4.31051C12.3231 4.21462 12.4418 4.16667 12.5835 4.16667C12.7253 4.16667 12.844 4.21462 12.9397 4.31051C13.0354 4.40629 13.0833 4.52501 13.0833 4.66667V6.16667H14.5833C14.725 6.16667 14.8437 6.21462 14.9395 6.31051C15.0354 6.4064 15.0833 6.52517 15.0833 6.66684C15.0833 6.80862 15.0354 6.92734 14.9395 7.02301C14.8437 7.11879 14.725 7.16667 14.5833 7.16667H13.0833V8.66667C13.0833 8.80834 13.0354 8.92706 12.9395 9.02284C12.8436 9.11873 12.7248 9.16667 12.5832 9.16667C12.4414 9.16667 12.3227 9.11873 12.227 9.02284C12.1312 8.92706 12.0833 8.80834 12.0833 8.66667V7.16667ZM6 7.79484C5.35833 7.79484 4.80906 7.5664 4.35217 7.10951C3.89517 6.65251 3.66667 6.10317 3.66667 5.46151C3.66667 4.81984 3.89517 4.27056 4.35217 3.81367C4.80906 3.35667 5.35833 3.12817 6 3.12817C6.64167 3.12817 7.19094 3.35667 7.64783 3.81367C8.10483 4.27056 8.33333 4.81984 8.33333 5.46151C8.33333 6.10317 8.10483 6.65251 7.64783 7.10951C7.19094 7.5664 6.64167 7.79484 6 7.79484ZM1 11.859V11.3897C1 11.0632 1.08867 10.7609 1.266 10.4827C1.44333 10.2045 1.68033 9.99056 1.977 9.84101C2.63589 9.51801 3.30061 9.27573 3.97117 9.11417C4.64172 8.95262 5.318 8.87184 6 8.87184C6.682 8.87184 7.35828 8.95262 8.02883 9.11417C8.69939 9.27573 9.36411 9.51801 10.023 9.84101C10.3197 9.99056 10.5567 10.2045 10.734 10.4827C10.9113 10.7609 11 11.0632 11 11.3897V11.859C11 12.1401 10.9015 12.3792 10.7045 12.5763C10.5075 12.7733 10.2684 12.8718 9.98717 12.8718H2.01283C1.73161 12.8718 1.4925 12.7733 1.2955 12.5763C1.0985 12.3792 1 12.1401 1 11.859ZM2 11.8718H10V11.3897C10 11.2547 9.96089 11.1297 9.88267 11.0147C9.80445 10.8998 9.69828 10.806 9.56417 10.7333C8.98972 10.4505 8.40406 10.2361 7.80717 10.0903C7.21017 9.94467 6.60778 9.87184 6 9.87184C5.39222 9.87184 4.78983 9.94467 4.19283 10.0903C3.59594 10.2361 3.01028 10.4505 2.43583 10.7333C2.30172 10.806 2.19556 10.8998 2.11733 11.0147C2.03911 11.1297 2 11.2547 2 11.3897V11.8718ZM6 6.79484C6.36667 6.79484 6.68056 6.66429 6.94167 6.40317C7.20278 6.14206 7.33333 5.82817 7.33333 5.46151C7.33333 5.09484 7.20278 4.78095 6.94167 4.51984C6.68056 4.25873 6.36667 4.12817 6 4.12817C5.63333 4.12817 5.31944 4.25873 5.05833 4.51984C4.79722 4.78095 4.66667 5.09484 4.66667 5.46151C4.66667 5.82817 4.79722 6.14206 5.05833 6.40317C5.31944 6.66429 5.63333 6.79484 6 6.79484Z" fill="currentColor"/>
</svg>
