<svg width="24" height="24" viewBox="0 0 24 24" fill="none" xmlns="http://www.w3.org/2000/svg">
<path d="M7.11939 12.0001L11.4021 16.2731C11.5405 16.4116 11.6096 16.5664 11.6096 16.7376C11.6096 16.9087 11.5405 17.0636 11.4021 17.2021C11.2571 17.3469 11.1023 17.4193 10.9376 17.4193C10.773 17.4193 10.6181 17.3469 10.4731 17.2021L5.82914 12.5578C5.75214 12.4808 5.69439 12.3946 5.65589 12.2991C5.61739 12.2036 5.59814 12.1039 5.59814 12.0001C5.59814 11.8962 5.61739 11.7966 5.65589 11.7011C5.69439 11.6056 5.75214 11.5193 5.82914 11.4423L10.4731 6.79808C10.6116 6.65974 10.7665 6.59058 10.9376 6.59058C11.1088 6.59058 11.2636 6.65974 11.4021 6.79808C11.547 6.94308 11.6194 7.09791 11.6194 7.26258C11.6194 7.42724 11.547 7.58208 11.4021 7.72708L7.11939 12.0001ZM13.9944 12.0001L18.2771 16.2731C18.4155 16.4116 18.4846 16.5664 18.4846 16.7376C18.4846 16.9087 18.4155 17.0636 18.2771 17.2021C18.1321 17.3469 17.9773 17.4193 17.8126 17.4193C17.648 17.4193 17.4931 17.3469 17.3481 17.2021L12.7039 12.5578C12.6271 12.4808 12.5694 12.3946 12.5309 12.2991C12.4924 12.2036 12.4731 12.1039 12.4731 12.0001C12.4731 11.8962 12.4924 11.7966 12.5309 11.7011C12.5694 11.6056 12.6271 11.5193 12.7039 11.4423L17.3481 6.79808C17.4866 6.65974 17.6415 6.59058 17.8126 6.59058C17.9838 6.59058 18.1386 6.65974 18.2771 6.79808C18.422 6.94308 18.4944 7.09791 18.4944 7.26258C18.4944 7.42724 18.422 7.58208 18.2771 7.72708L13.9944 12.0001Z" fill="currentColor"/>
</svg>
