<svg width="20" height="20" viewBox="0 0 20 20" fill="none" xmlns="http://www.w3.org/2000/svg">
<path d="M4.67933 15.4167V16.2019C4.67933 16.4468 4.59357 16.6549 4.42204 16.8263C4.25051 16.9977 4.04218 17.0834 3.79704 17.0834C3.55204 17.0834 3.34406 16.9977 3.17308 16.8263C3.00211 16.6549 2.91663 16.4468 2.91663 16.2019V10.3238C2.91663 10.2373 2.92225 10.1507 2.9335 10.0642C2.94475 9.97768 2.96364 9.89476 2.99017 9.81546L4.48246 5.59629C4.58232 5.29615 4.76329 5.05233 5.02538 4.86483C5.28746 4.67719 5.58079 4.58337 5.90538 4.58337H14.0945C14.4191 4.58337 14.7125 4.67719 14.9745 4.86483C15.2366 5.05233 15.4176 5.29615 15.5175 5.59629L17.0098 9.81546C17.0363 9.89476 17.0552 9.97768 17.0664 10.0642C17.0777 10.1507 17.0833 10.2373 17.0833 10.3238V16.2019C17.0833 16.4468 16.9975 16.6549 16.826 16.8263C16.6543 16.9977 16.446 17.0834 16.201 17.0834C15.9559 17.0834 15.7478 16.9977 15.5768 16.8263C15.406 16.6549 15.3206 16.4468 15.3206 16.2019V15.4167H4.67933ZM4.67308 8.81421H15.3268L14.3398 6.00171C14.3184 5.94824 14.2863 5.90685 14.2435 5.87754C14.2007 5.8481 14.15 5.83337 14.0912 5.83337H5.90871C5.84996 5.83337 5.7992 5.8481 5.75642 5.87754C5.71364 5.90685 5.68156 5.94824 5.66017 6.00171L4.67308 8.81421ZM6.21975 13.2052C6.52295 13.2052 6.7801 13.0991 6.99121 12.8867C7.20218 12.6745 7.30767 12.4168 7.30767 12.1136C7.30767 11.8104 7.20156 11.5532 6.98933 11.3421C6.77697 11.1312 6.5192 11.0257 6.216 11.0257C5.91281 11.0257 5.65572 11.1318 5.44475 11.344C5.23364 11.5564 5.12808 11.8141 5.12808 12.1173C5.12808 12.4205 5.23427 12.6776 5.44663 12.8886C5.65885 13.0997 5.91656 13.2052 6.21975 13.2052ZM13.7839 13.2052C14.0871 13.2052 14.3442 13.0991 14.5552 12.8867C14.7663 12.6745 14.8718 12.4168 14.8718 12.1136C14.8718 11.8104 14.7657 11.5532 14.5533 11.3421C14.3411 11.1312 14.0834 11.0257 13.7802 11.0257C13.477 11.0257 13.2198 11.1318 13.0087 11.344C12.7977 11.5564 12.6923 11.8141 12.6923 12.1173C12.6923 12.4205 12.7984 12.6776 13.0106 12.8886C13.2229 13.0997 13.4807 13.2052 13.7839 13.2052Z" fill="currentColor"/>
</svg>
