<svg width="16" height="16" viewBox="0 0 16 16" fill="none" xmlns="http://www.w3.org/2000/svg">
<path d="M4.60049 12.4667C4.30016 12.4667 4.04721 12.3631 3.84166 12.1559C3.6361 11.9487 3.53333 11.695 3.53333 11.3949V10.8206C3.53333 10.6976 3.57449 10.5946 3.65683 10.5117C3.73905 10.4287 3.84116 10.3872 3.96316 10.3872C4.08516 10.3872 4.18844 10.4287 4.27299 10.5117C4.35766 10.5946 4.39999 10.6976 4.39999 10.8206V11.3949C4.39999 11.4462 4.42138 11.4932 4.46416 11.5359C4.50683 11.5787 4.55383 11.6001 4.60516 11.6001H11.3948C11.4462 11.6001 11.4932 11.5787 11.5358 11.5359C11.5786 11.4932 11.6 11.4462 11.6 11.3949V10.8206C11.6 10.6976 11.6411 10.5946 11.7233 10.5117C11.8057 10.4287 11.9078 10.3872 12.0298 10.3872C12.1518 10.3872 12.2551 10.4287 12.3397 10.5117C12.4243 10.5946 12.4667 10.6976 12.4667 10.8206V11.3949C12.4667 11.695 12.363 11.9487 12.1557 12.1559C11.9483 12.3631 11.6945 12.4667 11.3942 12.4667H4.60049ZM7.56666 4.39242L6.20133 5.75775C6.11321 5.84575 6.01216 5.89192 5.89816 5.89625C5.78405 5.90047 5.67816 5.85642 5.58049 5.76408C5.48927 5.67186 5.44471 5.56869 5.44683 5.45458C5.44894 5.34047 5.49616 5.23725 5.58849 5.14492L7.62816 3.10525C7.68394 3.05392 7.74255 3.01547 7.80399 2.98992C7.86544 2.96425 7.93188 2.95142 8.00333 2.95142C8.07477 2.95142 8.14121 2.96425 8.20266 2.98992C8.2641 3.01547 8.32049 3.05392 8.37183 3.10525L10.4115 5.14492C10.4995 5.23292 10.5457 5.3323 10.55 5.44308C10.5542 5.55375 10.5107 5.65519 10.4195 5.74742C10.3218 5.83975 10.217 5.88486 10.1052 5.88275C9.99316 5.88064 9.89099 5.83342 9.79866 5.74108L8.43333 4.39242V9.82575C8.43333 9.94875 8.39216 10.0517 8.30983 10.1346C8.2276 10.2176 8.12549 10.2591 8.00349 10.2591C7.88149 10.2591 7.77821 10.2176 7.69366 10.1346C7.60899 10.0517 7.56666 9.94875 7.56666 9.82575V4.39242Z" fill="currentColor"/>
</svg>
