<svg width="16" height="16" viewBox="0 0 16 16" fill="none" xmlns="http://www.w3.org/2000/svg">
<path d="M7.26029 10.0924L10.032 8.25141C10.1234 8.18897 10.1691 8.10519 10.1691 8.00008C10.1691 7.89497 10.1234 7.81119 10.032 7.74875L7.26029 5.90775C7.15774 5.83853 7.05452 5.83153 6.95063 5.88675C6.84674 5.94186 6.79479 6.02964 6.79479 6.15008V9.85158C6.79479 9.97192 6.84674 10.0595 6.95063 10.1142C7.05452 10.1689 7.15774 10.1616 7.26029 10.0924ZM8.00113 14.3334C7.12513 14.3334 6.30174 14.1675 5.53096 13.8357C4.76018 13.5041 4.08974 13.0539 3.51963 12.4851C2.94951 11.9164 2.49813 11.2477 2.16546 10.4789C1.8329 9.71014 1.66663 8.88814 1.66663 8.01291C1.66663 7.66592 1.6944 7.32103 1.74996 6.97825C1.80551 6.63558 1.88674 6.2963 1.99363 5.96041C2.03629 5.8253 2.1224 5.73253 2.25196 5.68208C2.3814 5.63175 2.50535 5.63819 2.62379 5.70142C2.75068 5.76464 2.84063 5.86314 2.89363 5.99691C2.94651 6.13069 2.95163 6.26847 2.90896 6.41025C2.8344 6.67014 2.77535 6.93303 2.73179 7.19892C2.68835 7.46469 2.66663 7.73175 2.66663 8.00008C2.66663 9.48897 3.18329 10.7501 4.21663 11.7834C5.24996 12.8167 6.51107 13.3334 7.99996 13.3334C9.48885 13.3334 10.75 12.8167 11.7833 11.7834C12.8166 10.7501 13.3333 9.48897 13.3333 8.00008C13.3333 6.51119 12.8166 5.25008 11.7833 4.21675C10.75 3.18341 9.48885 2.66675 7.99996 2.66675C7.72674 2.66675 7.45635 2.68725 7.18879 2.72825C6.92135 2.76925 6.65668 2.8308 6.39479 2.91292C6.2529 2.95569 6.1179 2.95119 5.98979 2.89942C5.86157 2.84775 5.76713 2.75992 5.70646 2.63592C5.64568 2.51203 5.6429 2.38641 5.69813 2.25908C5.75324 2.13175 5.84618 2.04669 5.97696 2.00391C6.29318 1.89025 6.61835 1.80564 6.95246 1.75008C7.28668 1.69453 7.62346 1.66675 7.96279 1.66675C8.8429 1.66675 9.66996 1.83214 10.444 2.16292C11.2181 2.49369 11.8923 2.94519 12.4666 3.51741C13.041 4.08964 13.4956 4.7608 13.8306 5.53091C14.1657 6.30103 14.3333 7.12386 14.3333 7.99941C14.3333 8.87508 14.1671 9.6983 13.8346 10.4691C13.5022 11.2399 13.051 11.9103 12.4811 12.4804C11.9112 13.0505 11.2411 13.5019 10.4706 13.8346C9.70018 14.1671 8.87702 14.3334 8.00113 14.3334ZM3.80763 4.60258C3.58974 4.60258 3.40279 4.52464 3.24679 4.36875C3.09079 4.21275 3.01279 4.02575 3.01279 3.80775C3.01279 3.58986 3.09079 3.40291 3.24679 3.24691C3.40279 3.09091 3.58974 3.01292 3.80763 3.01292C4.02563 3.01292 4.21263 3.09091 4.36863 3.24691C4.52451 3.40291 4.60246 3.58986 4.60246 3.80775C4.60246 4.02575 4.52451 4.21275 4.36863 4.36875C4.21263 4.52464 4.02563 4.60258 3.80763 4.60258Z" fill="currentColor"/>
</svg>
