<svg width="20" height="20" viewBox="0 0 20 20" fill="none" xmlns="http://www.w3.org/2000/svg">
<path d="M9.21443 16.3405C9.46012 16.4911 9.72241 16.5642 10.0013 16.5601C10.2802 16.5558 10.5425 16.4783 10.7882 16.3276L14.4676 14.0792C13.7999 13.6305 13.0876 13.2899 12.3307 13.0576C11.5737 12.8252 10.7973 12.709 10.0013 12.709C9.20533 12.709 8.42679 12.8265 7.66568 13.0615C6.90443 13.2967 6.18297 13.6316 5.5013 14.0663L9.21443 16.3405ZM10.0013 10.6257C10.7534 10.6257 11.3928 10.3624 11.9196 9.8357C12.4463 9.3089 12.7096 8.66945 12.7096 7.91737C12.7096 7.16529 12.4463 6.52584 11.9196 5.99904C11.3928 5.47237 10.7534 5.20904 10.0013 5.20904C9.24922 5.20904 8.60977 5.47237 8.08297 5.99904C7.5563 6.52584 7.29297 7.16529 7.29297 7.91737C7.29297 8.66945 7.5563 9.3089 8.08297 9.8357C8.60977 10.3624 9.24922 10.6257 10.0013 10.6257ZM9.21443 17.789L3.63755 14.374C3.40894 14.2374 3.23186 14.0547 3.1063 13.8259C2.98075 13.5973 2.91797 13.3506 2.91797 13.0857V6.9157C2.91797 6.65084 2.98075 6.40411 3.1063 6.1755C3.23186 5.94675 3.40894 5.76404 3.63755 5.62737L9.21443 2.21237C9.46012 2.06167 9.72241 1.98633 10.0013 1.98633C10.2802 1.98633 10.5425 2.06167 10.7882 2.21237L16.3651 5.62737C16.5937 5.76404 16.7707 5.94675 16.8963 6.1755C17.0219 6.40411 17.0846 6.65084 17.0846 6.9157V13.0857C17.0846 13.3506 17.0219 13.5973 16.8963 13.8259C16.7707 14.0547 16.5937 14.2374 16.3651 14.374L10.7882 17.789C10.5425 17.9397 10.2802 18.0151 10.0013 18.0151C9.72241 18.0151 9.46012 17.9397 9.21443 17.789Z" fill="currentColor"/>
</svg>
