<svg width="24" height="24" viewBox="0 0 24 24" fill="none" xmlns="http://www.w3.org/2000/svg">
<path d="M4.30775 21.5C3.80908 21.5 3.38308 21.3234 3.02975 20.9703C2.67658 20.6169 2.5 20.1909 2.5 19.6923V11.5115C2.5 11.15 2.59717 10.817 2.7915 10.5125C2.98567 10.208 3.25517 9.9821 3.6 9.83477L7.2345 8.30202C7.53583 8.18152 7.82208 8.20327 8.09325 8.36727C8.36442 8.53143 8.5 8.78085 8.5 9.11552V9.74052L12.2595 8.23277C12.5608 8.11227 12.8429 8.14243 13.1058 8.32327C13.3686 8.50393 13.5 8.75326 13.5 9.07126V10.5H21.5V19.6923C21.5 20.1909 21.3234 20.6169 20.9703 20.9703C20.6169 21.3234 20.1909 21.5 19.6923 21.5H4.30775ZM4.30775 20H19.6923C19.7821 20 19.8558 19.9712 19.9135 19.9135C19.9712 19.8558 20 19.7821 20 19.6923V12H12V9.95002L7 11.95V10L4.18275 11.248C4.12508 11.2737 4.08017 11.3106 4.048 11.3588C4.016 11.4068 4 11.4628 4 11.527V19.6923C4 19.7821 4.02883 19.8558 4.0865 19.9135C4.14417 19.9712 4.21792 20 4.30775 20ZM11.1155 17.7693H12.8845V14.2308H11.1155V17.7693ZM7.1155 17.7693H8.8845V14.2308H7.1155V17.7693ZM15.1155 17.7693H16.8845V14.2308H15.1155V17.7693ZM21.5 10.5H17.4423L18.3615 3.56727C18.3885 3.3686 18.4744 3.20518 18.6193 3.07702C18.7641 2.94885 18.9359 2.88477 19.1348 2.88477H19.9038C20.0898 2.88477 20.2503 2.94727 20.3855 3.07227C20.5208 3.19727 20.6019 3.35268 20.6288 3.53851L21.5 10.5ZM4.30775 20H4H20H4.30775Z" fill="currentColor"/>
</svg>
