<svg width="20" height="20" viewBox="0 0 20 20" fill="none" xmlns="http://www.w3.org/2000/svg">
<path d="M17.2179 12.2917H2.77765C2.63126 12.2917 2.50508 12.2402 2.39911 12.1371C2.29327 12.034 2.24036 11.9064 2.24036 11.7542C2.24036 11.6018 2.29223 11.4728 2.39598 11.3671C2.49987 11.2613 2.62855 11.2084 2.78202 11.2084H17.2222C17.3686 11.2084 17.4948 11.2599 17.6008 11.3629C17.7066 11.466 17.7595 11.5936 17.7595 11.7459C17.7595 11.8982 17.7076 12.0272 17.6039 12.1329C17.5 12.2388 17.3713 12.2917 17.2179 12.2917ZM12.0833 6.58335H14.4999L11.4166 3.50002V5.91669C11.4166 6.10558 11.4805 6.26391 11.6083 6.39169C11.7361 6.51946 11.8944 6.58335 12.0833 6.58335ZM5.7564 17.5834C5.39765 17.5834 5.08466 17.4522 4.81744 17.1898C4.55022 16.9275 4.41661 16.612 4.41661 16.2436V14.4615C4.41661 14.2718 4.48077 14.1127 4.60911 13.9842C4.73744 13.8559 4.89647 13.7917 5.08619 13.7917H14.9072C15.097 13.7917 15.257 13.8559 15.3874 13.9842C15.518 14.1127 15.5833 14.2718 15.5833 14.4615V16.2436C15.5833 16.612 15.4497 16.9275 15.1824 17.1898C14.9152 17.4522 14.6022 17.5834 14.2435 17.5834H5.7564ZM5.09265 9.70835C4.90293 9.70835 4.74286 9.64419 4.61244 9.51585C4.48188 9.38738 4.41661 9.22828 4.41661 9.03856V3.75648C4.41661 3.38801 4.55022 3.07259 4.81744 2.81023C5.08466 2.54787 5.39765 2.41669 5.7564 2.41669H11.6474C11.8259 2.41669 11.9961 2.44877 12.1579 2.51294C12.3197 2.57696 12.469 2.67738 12.6058 2.81419L15.1858 5.39419C15.3226 5.53099 15.423 5.6803 15.487 5.8421C15.5512 6.00391 15.5833 6.17405 15.5833 6.35252V9.03856C15.5833 9.22828 15.5191 9.38738 15.3908 9.51585C15.2624 9.64419 15.1034 9.70835 14.9137 9.70835H5.09265Z" fill="currentColor"/>
</svg>
