<svg width="24" height="24" viewBox="0 0 24 24" fill="none" xmlns="http://www.w3.org/2000/svg">
<path d="M12 13.5465L16.073 9.47322C16.2115 9.33489 16.3856 9.26405 16.5953 9.26072C16.8048 9.25756 16.982 9.32839 17.127 9.47322C17.2718 9.61822 17.3443 9.79389 17.3443 10.0002C17.3443 10.2066 17.2718 10.3822 17.127 10.5272L12.6328 15.0215C12.5391 15.115 12.4403 15.181 12.3365 15.2195C12.2327 15.258 12.1205 15.2772 12 15.2772C11.8795 15.2772 11.7673 15.258 11.6635 15.2195C11.5597 15.181 11.4609 15.115 11.3673 15.0215L6.873 10.5272C6.73467 10.3887 6.66384 10.2146 6.6605 10.005C6.65734 9.79547 6.72817 9.61822 6.873 9.47322C7.018 9.32839 7.19367 9.25597 7.4 9.25597C7.60634 9.25597 7.782 9.32839 7.927 9.47322L12 13.5465Z" fill="currentColor"/>
</svg>
