<svg width="24" height="24" viewBox="0 0 24 24" fill="none" xmlns="http://www.w3.org/2000/svg">
<path d="M10.3026 18.1324C10.1045 18.1324 9.93834 18.0665 9.80421 17.9346C9.67025 17.8027 9.60328 17.6393 9.60328 17.4445C9.60328 17.2495 9.67025 17.0844 9.80421 16.9491C9.93834 16.8137 10.1045 16.7459 10.3026 16.7459H20.3006C20.4988 16.7459 20.6648 16.8119 20.7988 16.9438C20.9329 17.0757 21 17.239 21 17.4338C21 17.6288 20.9329 17.794 20.7988 17.9292C20.6648 18.0647 20.4988 18.1324 20.3006 18.1324H10.3026ZM10.3026 12.6932C10.1045 12.6932 9.93834 12.6273 9.80421 12.4954C9.67025 12.3635 9.60328 12.2001 9.60328 12.0053C9.60328 11.8103 9.67025 11.6452 9.80421 11.5099C9.93834 11.3745 10.1045 11.3068 10.3026 11.3068H20.3006C20.4988 11.3068 20.6648 11.3727 20.7988 11.5046C20.9329 11.6365 21 11.7999 21 11.9947C21 12.1897 20.9329 12.3548 20.7988 12.4901C20.6648 12.6255 20.4988 12.6932 20.3006 12.6932H10.3026ZM10.3026 7.25406C10.1045 7.25406 9.93834 7.18811 9.80421 7.05622C9.67025 6.92433 9.60328 6.76098 9.60328 6.56616C9.60328 6.37117 9.67025 6.20604 9.80421 6.07077C9.93834 5.93532 10.1045 5.8676 10.3026 5.8676H20.3006C20.4988 5.8676 20.6648 5.93355 20.7988 6.06544C20.9329 6.19733 21 6.36068 21 6.5555C21 6.75049 20.9329 6.91562 20.7988 7.05089C20.6648 7.18633 20.4988 7.25406 20.3006 7.25406H10.3026ZM5.569 19C5.13432 19 4.76419 18.8466 4.45862 18.5398C4.15287 18.233 4 17.8643 4 17.4336C4 17.0027 4.15476 16.6358 4.46427 16.3329C4.77379 16.0299 5.1458 15.8783 5.5803 15.8783C6.01498 15.8783 6.38511 16.0317 6.69068 16.3385C6.99643 16.6453 7.1493 17.0141 7.1493 17.4448C7.1493 17.8756 6.99455 18.2425 6.68503 18.5454C6.37552 18.8485 6.00351 19 5.569 19ZM5.569 13.5608C5.13432 13.5608 4.76419 13.4074 4.45862 13.1006C4.15287 12.7938 4 12.4251 4 11.9944C4 11.5635 4.15476 11.1967 4.46427 10.8938C4.77379 10.5907 5.1458 10.4392 5.5803 10.4392C6.01498 10.4392 6.38511 10.5926 6.69068 10.8994C6.99643 11.2062 7.1493 11.5749 7.1493 12.0056C7.1493 12.4365 6.99455 12.8033 6.68503 13.1062C6.37552 13.4093 6.00351 13.5608 5.569 13.5608ZM5.569 8.12166C5.13432 8.12166 4.76419 7.96826 4.45862 7.66146C4.15287 7.35466 4 6.98592 4 6.55523C4 6.12436 4.15476 5.75748 4.46427 5.4546C4.77379 5.15153 5.1458 5 5.5803 5C6.01498 5 6.38511 5.1534 6.69068 5.4602C6.99643 5.76699 7.1493 6.13574 7.1493 6.56643C7.1493 6.9973 6.99455 7.36417 6.68503 7.66706C6.37552 7.97012 6.00351 8.12166 5.569 8.12166Z" fill="currentColor"/>
</svg>
