<svg width="24" height="24" viewBox="0 0 24 24" fill="none" xmlns="http://www.w3.org/2000/svg">
<path d="M8.858 19.5H6.30775C5.81058 19.5 5.385 19.323 5.031 18.969C4.677 18.615 4.5 18.1894 4.5 17.6923V15.142L2.64225 13.2653C2.47175 13.0846 2.34292 12.8853 2.25575 12.6673C2.16858 12.4491 2.125 12.2273 2.125 12.0017C2.125 11.7762 2.16858 11.5538 2.25575 11.3345C2.34292 11.1153 2.47175 10.9154 2.64225 10.7348L4.5 8.858V6.30775C4.5 5.81058 4.677 5.385 5.031 5.031C5.385 4.677 5.81058 4.5 6.30775 4.5H8.858L10.7348 2.64225C10.9154 2.47175 11.1147 2.34292 11.3328 2.25575C11.5509 2.16858 11.7727 2.125 11.9983 2.125C12.2238 2.125 12.4462 2.16858 12.6655 2.25575C12.8847 2.34292 13.0846 2.47175 13.2653 2.64225L15.142 4.5H17.6923C18.1894 4.5 18.615 4.677 18.969 5.031C19.323 5.385 19.5 5.81058 19.5 6.30775V8.858L21.3577 10.7348C21.5282 10.9154 21.6571 11.1147 21.7443 11.3328C21.8314 11.5509 21.875 11.7727 21.875 11.9983C21.875 12.2238 21.8314 12.4462 21.7443 12.6655C21.6571 12.8847 21.5282 13.0846 21.3577 13.2653L19.5 15.142V17.6923C19.5 18.1894 19.323 18.615 18.969 18.969C18.615 19.323 18.1894 19.5 17.6923 19.5H15.142L13.2653 21.3577C13.0846 21.5282 12.8853 21.6571 12.6673 21.7443C12.4491 21.8314 12.2273 21.875 12.0017 21.875C11.7762 21.875 11.5538 21.8314 11.3345 21.7443C11.1153 21.6571 10.9154 21.5282 10.7348 21.3577L8.858 19.5ZM6.30775 18H8.69225V13.702C8.30392 13.6083 7.98408 13.4019 7.73275 13.0828C7.48142 12.7634 7.35575 12.3959 7.35575 11.9803V8.7955C7.35575 8.67667 7.4 8.57208 7.4885 8.48175C7.577 8.39142 7.68017 8.34625 7.798 8.34625C7.916 8.34625 8.01925 8.39142 8.10775 8.48175C8.19625 8.57208 8.2405 8.6775 8.2405 8.798V11.7172H8.9135V8.79575C8.9135 8.67675 8.95775 8.57208 9.04625 8.48175C9.13458 8.39142 9.23775 8.34625 9.35575 8.34625C9.47375 8.34625 9.577 8.39142 9.6655 8.48175C9.75383 8.57208 9.798 8.6775 9.798 8.798V11.7172H10.4713V8.79575C10.4713 8.67675 10.5154 8.57208 10.6038 8.48175C10.6923 8.39142 10.7955 8.34625 10.9135 8.34625C11.034 8.34625 11.1394 8.39142 11.2298 8.48175C11.3201 8.57208 11.3652 8.6775 11.3652 8.798V11.9812C11.3652 12.3968 11.2381 12.764 10.9838 13.083C10.7292 13.402 10.4109 13.6083 10.0287 13.702V18.5288L11.7788 20.2788C11.8364 20.3364 11.9102 20.3652 12 20.3652C12.0898 20.3652 12.1636 20.3364 12.2213 20.2788L13.9712 18.5288V14.4152C13.5851 14.1921 13.2658 13.8164 13.0133 13.2882C12.7609 12.7601 12.6348 12.1538 12.6348 11.4695C12.6348 10.6065 12.8282 9.87017 13.2153 9.2605C13.6023 8.651 14.0786 8.34625 14.6443 8.34625C15.1924 8.34625 15.6628 8.65125 16.0553 9.26125C16.4479 9.87142 16.6443 10.6081 16.6443 11.4713C16.6443 12.1678 16.517 12.779 16.2625 13.305C16.008 13.8312 15.6897 14.2013 15.3077 14.4152V18H17.6923C17.7821 18 17.8558 17.9712 17.9135 17.9135C17.9712 17.8558 18 17.7821 18 17.6923V14.5008L20.2788 12.2213C20.3364 12.1636 20.3652 12.0898 20.3652 12C20.3652 11.9102 20.3364 11.8364 20.2788 11.7788L18 9.49925V6.30775C18 6.21792 17.9712 6.14417 17.9135 6.0865C17.8558 6.02883 17.7821 6 17.6923 6H14.5008L12.2213 3.72125C12.1636 3.66358 12.0898 3.63475 12 3.63475C11.9102 3.63475 11.8364 3.66358 11.7788 3.72125L9.49925 6H6.30775C6.21792 6 6.14417 6.02883 6.0865 6.0865C6.02883 6.14417 6 6.21792 6 6.30775V9.49925L3.72125 11.7788C3.66358 11.8364 3.63475 11.9102 3.63475 12C3.63475 12.0898 3.66358 12.1636 3.72125 12.2213L6 14.5008V17.6923C6 17.7821 6.02883 17.8558 6.0865 17.9135C6.14417 17.9712 6.21792 18 6.30775 18Z" fill="currentColor"/>
</svg>
