<svg width="20" height="20" viewBox="0 0 20 20" fill="none" xmlns="http://www.w3.org/2000/svg">
<path d="M4.63812 16C4.45729 16 4.30576 15.9388 4.18353 15.8165C4.06118 15.6942 4 15.5427 4 15.3619V11.2353C4 11.0853 4.05076 10.9595 4.15229 10.858C4.25382 10.7566 4.37959 10.7059 4.52959 10.7059C4.67971 10.7059 4.80541 10.7566 4.90671 10.858C5.00812 10.9595 5.05882 11.0853 5.05882 11.2353V14.2041L14.2041 5.05882H11.2353C11.0853 5.05882 10.9595 5.00806 10.858 4.90653C10.7566 4.805 10.7059 4.67924 10.7059 4.52924C10.7059 4.37912 10.7566 4.25341 10.858 4.15212C10.9595 4.05071 11.0853 4 11.2353 4H15.3619C15.5427 4 15.6942 4.06118 15.8165 4.18353C15.9388 4.30577 16 4.45729 16 4.63812V8.76471C16 8.91471 15.9492 9.04047 15.8477 9.142C15.7462 9.24341 15.6204 9.29412 15.4704 9.29412C15.3203 9.29412 15.1946 9.24341 15.0933 9.142C14.9919 9.04047 14.9412 8.91471 14.9412 8.76471V5.79594L5.79594 14.9412H8.76471C8.91471 14.9412 9.04047 14.9919 9.142 15.0935C9.24341 15.195 9.29412 15.3208 9.29412 15.4708C9.29412 15.6209 9.24341 15.7466 9.142 15.8479C9.04047 15.9493 8.91471 16 8.76471 16H4.63812Z" fill="currentColor"/>
</svg>
