<svg width="16" height="16" viewBox="0 0 16 16" fill="none" xmlns="http://www.w3.org/2000/svg">
<path d="M8.00009 11.3243L10.8488 8.46916C10.9411 8.37694 11.0443 8.33082 11.1584 8.33082C11.2725 8.33082 11.3758 8.37694 11.4681 8.46916C11.5646 8.56582 11.6129 8.66905 11.6129 8.77883C11.6129 8.8886 11.5646 8.99182 11.4681 9.08849L8.37192 12.1847C8.32059 12.2359 8.26308 12.2743 8.19942 12.3C8.13575 12.3257 8.06931 12.3385 8.00009 12.3385C7.93086 12.3385 7.86442 12.3257 7.80075 12.3C7.73709 12.2743 7.67959 12.2359 7.62825 12.1847L4.53209 9.08849C4.43986 8.99616 4.39653 8.89294 4.40208 8.77883C4.40764 8.66471 4.45653 8.56149 4.54875 8.46916C4.64542 8.3726 4.74864 8.32432 4.85842 8.32432C4.9682 8.32432 5.07142 8.3726 5.16808 8.46916L8.00009 11.3243ZM8.00009 6.58716L10.8488 3.73199C10.9411 3.63977 11.0443 3.59366 11.1584 3.59366C11.2725 3.59366 11.3758 3.63977 11.4681 3.73199C11.5646 3.82866 11.6129 3.93188 11.6129 4.04166C11.6129 4.15144 11.5646 4.25466 11.4681 4.35133L8.37192 7.44749C8.32059 7.49871 8.26308 7.53716 8.19942 7.56282C8.13575 7.58849 8.06931 7.60132 8.00009 7.60132C7.93086 7.60132 7.86442 7.58849 7.80075 7.56282C7.73709 7.53716 7.67959 7.49871 7.62825 7.44749L4.53209 4.35133C4.43986 4.25899 4.39653 4.15577 4.40208 4.04166C4.40764 3.92755 4.45653 3.82432 4.54875 3.73199C4.64542 3.63544 4.74864 3.58716 4.85842 3.58716C4.9682 3.58716 5.07142 3.63544 5.16808 3.73199L8.00009 6.58716Z" fill="currentColor"/>
</svg>
