<svg width="24" height="24" viewBox="0 0 24 24" fill="none" xmlns="http://www.w3.org/2000/svg">
<path d="M12.0018 21.1C10.7544 21.1 9.57769 20.8632 8.47152 20.3895C7.36536 19.9159 6.39719 19.2641 5.56702 18.4343C4.73686 17.6044 4.08477 16.6367 3.61077 15.531C3.13694 14.4254 2.90002 13.2489 2.90002 12.0018C2.90002 10.7378 3.13694 9.55686 3.61077 8.45902C4.08444 7.36119 4.73627 6.39719 5.56627 5.56702C6.39627 4.73686 7.36419 4.08477 8.47002 3.61077C9.57586 3.13694 10.7525 2.90002 12 2.90002C12.832 2.90002 13.6468 3.01027 14.4443 3.23077C15.2418 3.45127 15.9969 3.77886 16.7098 4.21352C16.8853 4.32119 16.99 4.45969 17.024 4.62902C17.058 4.79819 17.0193 4.96227 16.9078 5.12127C16.7963 5.28027 16.6475 5.37352 16.4615 5.40102C16.2757 5.42852 16.1014 5.38844 15.9385 5.28077C15.3539 4.92061 14.7263 4.65044 14.0558 4.47027C13.3853 4.29011 12.7 4.20002 12 4.20002C9.83336 4.20002 7.99169 4.95836 6.47502 6.47502C4.95836 7.99169 4.20002 9.83336 4.20002 12C4.20002 14.1667 4.95836 16.0084 6.47502 17.525C7.99169 19.0417 9.83336 19.8 12 19.8C14.1667 19.8 16.0084 19.0417 17.525 17.525C19.0417 16.0084 19.8 14.1667 19.8 12C19.8 11.7565 19.7927 11.5065 19.778 11.25C19.7632 10.9935 19.7295 10.7448 19.677 10.5038C19.6437 10.3243 19.6719 10.1583 19.7615 10.0058C19.8514 9.85327 19.9782 9.75652 20.142 9.71552C20.3269 9.67436 20.4971 9.71186 20.6528 9.82802C20.8086 9.94402 20.9032 10.0949 20.9365 10.2808C20.9827 10.5499 21.0214 10.8304 21.0528 11.1223C21.0843 11.4139 21.1 11.7065 21.1 12C21.1 13.2475 20.8632 14.4242 20.3895 15.53C19.9159 16.6359 19.2641 17.6038 18.4343 18.4338C17.6044 19.2638 16.6409 19.9156 15.5435 20.3893C14.4462 20.8631 13.2656 21.1 12.0018 21.1ZM10.6308 14.0963L19.7193 5.01727C19.8578 4.87894 20.0126 4.80977 20.1838 4.80977C20.3548 4.80977 20.5103 4.87969 20.6503 5.01953C20.7936 5.16303 20.8653 5.31711 20.8653 5.48178C20.8653 5.64644 20.7929 5.80127 20.648 5.94627L11.1635 15.4213C10.9994 15.5853 10.8134 15.6673 10.6058 15.6673C10.3981 15.6673 10.2122 15.5853 10.048 15.4213L7.40377 12.777C7.26544 12.6385 7.19461 12.4811 7.19127 12.3048C7.18811 12.1286 7.25894 11.968 7.40377 11.823C7.54877 11.6782 7.70777 11.6058 7.88077 11.6058C8.05377 11.6058 8.21277 11.6782 8.35777 11.823L10.6308 14.0963Z" fill="currentColor"/>
</svg>
