<svg width="16" height="16" viewBox="0 0 16 16" fill="none" xmlns="http://www.w3.org/2000/svg">
<path d="M7.48335 13.1885C7.66802 12.4501 8.06396 11.8285 8.67118 11.3237C9.27841 10.819 9.98802 10.5667 10.8 10.5667C11.0657 10.5667 11.3221 10.594 11.5692 10.6487C11.8162 10.7035 12.0534 10.7953 12.2808 10.9243C12.5603 10.5236 12.7833 10.0738 12.95 9.57502C13.1167 9.07635 13.2 8.55135 13.2 8.00002C13.2 6.55557 12.6945 5.32779 11.6833 4.31668C10.6722 3.30557 9.44446 2.80002 8.00002 2.80002C6.55557 2.80002 5.32779 3.30557 4.31668 4.31668C3.30557 5.32779 2.80002 6.55557 2.80002 8.00002C2.80002 8.42735 2.84957 8.84102 2.94868 9.24102C3.04791 9.64102 3.19496 10.0218 3.38985 10.3833C3.83941 10.1595 4.29107 10.0007 4.74485 9.90702C5.19874 9.81346 5.66563 9.76668 6.14552 9.76668C6.46052 9.76668 6.77702 9.79146 7.09502 9.84102C7.41313 9.89046 7.70579 9.94985 7.97302 10.0192C7.8149 10.1158 7.67518 10.2268 7.55385 10.352C7.43252 10.4771 7.31202 10.6051 7.19235 10.7358C7.06246 10.7136 6.89918 10.691 6.70252 10.668C6.50596 10.6449 6.31924 10.6333 6.14235 10.6333C5.74391 10.6333 5.34857 10.6765 4.95635 10.7628C4.56413 10.8492 4.19024 10.9731 3.83468 11.1347C4.27568 11.7236 4.81457 12.1936 5.45135 12.5448C6.08813 12.8962 6.76546 13.1107 7.48335 13.1885ZM8.00568 14.0667C7.17113 14.0667 6.38513 13.9088 5.64768 13.593C4.91024 13.2772 4.26479 12.8427 3.71135 12.2895C3.1579 11.7363 2.72318 11.0913 2.40718 10.3547C2.09129 9.61813 1.93335 8.83107 1.93335 7.99352C1.93335 7.15596 2.09124 6.37124 2.40702 5.63935C2.72279 4.90746 3.15729 4.26479 3.71052 3.71135C4.26374 3.1579 4.90868 2.72318 5.64535 2.40718C6.38191 2.09129 7.16896 1.93335 8.00652 1.93335C8.84407 1.93335 9.62879 2.09124 10.3607 2.40702C11.0926 2.72279 11.7352 3.15729 12.2887 3.71052C12.8421 4.26374 13.2768 4.90735 13.5928 5.64135C13.9087 6.37546 14.0667 7.15979 14.0667 7.99435C14.0667 8.8289 13.9088 9.6149 13.593 10.3523C13.2772 11.0898 12.8427 11.7352 12.2895 12.2887C11.7363 12.8421 11.0927 13.2768 10.3587 13.5928C9.62457 13.9087 8.84024 14.0667 8.00568 14.0667ZM6.19635 8.43335C5.63046 8.43335 5.15068 8.23529 4.75702 7.83918C4.36346 7.44318 4.16668 6.96224 4.16668 6.39635C4.16668 5.83046 4.36474 5.35068 4.76085 4.95702C5.15685 4.56346 5.63779 4.36668 6.20368 4.36668C6.76957 4.36668 7.24935 4.56474 7.64302 4.96085C8.03657 5.35685 8.23335 5.83779 8.23335 6.40368C8.23335 6.96957 8.03529 7.44935 7.63918 7.84302C7.24318 8.23657 6.76224 8.43335 6.19635 8.43335ZM6.20002 7.56668C6.52057 7.56668 6.79513 7.45235 7.02368 7.22368C7.25235 6.99513 7.36668 6.72057 7.36668 6.40002C7.36668 6.07946 7.25235 5.80491 7.02368 5.57635C6.79513 5.34768 6.52057 5.23335 6.20002 5.23335C5.87946 5.23335 5.6049 5.34768 5.37635 5.57635C5.14768 5.80491 5.03335 6.07946 5.03335 6.40002C5.03335 6.72057 5.14768 6.99513 5.37635 7.22368C5.6049 7.45235 5.87946 7.56668 6.20002 7.56668ZM10.8038 9.16152C10.3676 9.16152 9.99768 9.01096 9.69402 8.70985C9.39035 8.40863 9.23852 8.03996 9.23852 7.60385C9.23852 7.16763 9.38907 6.79768 9.69018 6.49402C9.9914 6.19035 10.3601 6.03852 10.7962 6.03852C11.2324 6.03852 11.6023 6.18907 11.906 6.49018C12.2097 6.7914 12.3615 7.16007 12.3615 7.59618C12.3615 8.0324 12.211 8.40235 11.9098 8.70602C11.6086 9.00968 11.24 9.16152 10.8038 9.16152Z" fill="currentColor"/>
</svg>
