<svg width="20" height="20" viewBox="0 0 20 20" fill="none" xmlns="http://www.w3.org/2000/svg">
<path d="M9.375 12.2916V14.1666C9.375 14.3437 9.43493 14.4921 9.55479 14.6118C9.67465 14.7317 9.82313 14.7916 10.0002 14.7916C10.1774 14.7916 10.3258 14.7317 10.4454 14.6118C10.5651 14.4921 10.625 14.3437 10.625 14.1666V12.2916H12.5C12.6771 12.2916 12.8255 12.2317 12.9452 12.1118C13.0651 11.9919 13.125 11.8435 13.125 11.6664C13.125 11.4892 13.0651 11.3408 12.9452 11.2212C12.8255 11.1014 12.6771 11.0416 12.5 11.0416H10.625V9.16658C10.625 8.9895 10.5651 8.8411 10.4452 8.72138C10.3253 8.60152 10.1769 8.54158 9.99979 8.54158C9.82257 8.54158 9.67417 8.60152 9.55458 8.72138C9.43486 8.8411 9.375 8.9895 9.375 9.16658V11.0416H7.5C7.32292 11.0416 7.17451 11.1015 7.05479 11.2214C6.93493 11.3412 6.875 11.4897 6.875 11.6668C6.875 11.844 6.93493 11.9924 7.05479 12.112C7.17451 12.2317 7.32292 12.2916 7.5 12.2916H9.375ZM5.25646 17.9166C4.83549 17.9166 4.47917 17.7708 4.1875 17.4791C3.89583 17.1874 3.75 16.8311 3.75 16.4101V3.58971C3.75 3.16874 3.89583 2.81242 4.1875 2.52075C4.47917 2.22909 4.83549 2.08325 5.25646 2.08325H11.2517C11.4549 2.08325 11.6485 2.12228 11.8327 2.20034C12.0169 2.27825 12.1774 2.38561 12.3142 2.52242L15.8108 6.01908C15.9476 6.15589 16.055 6.31638 16.1329 6.50054C16.211 6.68471 16.25 6.87839 16.25 7.08158V16.4101C16.25 16.8311 16.1042 17.1874 15.8125 17.4791C15.5208 17.7708 15.1645 17.9166 14.7435 17.9166H5.25646ZM11.25 6.33325V3.33325H5.25646C5.19229 3.33325 5.13354 3.35999 5.08021 3.41346C5.02674 3.46679 5 3.52554 5 3.58971V16.4101C5 16.4743 5.02674 16.533 5.08021 16.5864C5.13354 16.6398 5.19229 16.6666 5.25646 16.6666H14.7435C14.8077 16.6666 14.8665 16.6398 14.9198 16.5864C14.9733 16.533 15 16.4743 15 16.4101V7.08325H11.9998C11.7873 7.08325 11.6092 7.01138 11.4656 6.86763C11.3219 6.72388 11.25 6.54575 11.25 6.33325Z" fill="currentColor"/>
</svg>
