<svg width="24" height="24" viewBox="0 0 24 24" fill="none" xmlns="http://www.w3.org/2000/svg">
<path d="M11.997 21.1C10.7512 21.1 9.57511 20.8614 8.46877 20.384C7.36261 19.9067 6.39661 19.2551 5.57077 18.4293C4.74494 17.6034 4.09336 16.6374 3.61602 15.5313C3.13869 14.4249 2.90002 13.2489 2.90002 12.003C2.90002 10.742 3.13902 9.56077 3.61702 8.45927C4.09502 7.35761 4.74561 6.39486 5.56877 5.57103C6.39194 4.74703 7.35736 4.09586 8.46502 3.61752C9.57252 3.13919 10.7483 2.90002 11.9923 2.90002C12.1933 2.90002 12.3531 2.95944 12.4718 3.07827C12.5906 3.19711 12.65 3.35036 12.65 3.53802C12.65 3.72586 12.5906 3.88311 12.4718 4.00977C12.3531 4.13661 12.1959 4.20002 12 4.20002C9.83886 4.20002 7.99852 4.95419 6.47902 6.46252C4.95969 7.97086 4.20002 9.81252 4.20002 11.9875C4.20002 14.1625 4.95969 16.0084 6.47902 17.525C7.99852 19.0417 9.83886 19.8 12 19.8C14.1834 19.8 16.0292 19.0404 17.5375 17.521C19.0459 16.0015 19.8 14.1612 19.8 12C19.8 11.8039 19.8635 11.6465 19.9905 11.528C20.1175 11.4094 20.2749 11.35 20.4625 11.35C20.6504 11.35 20.8035 11.4094 20.922 11.5283C21.0407 11.6469 21.1 11.8068 21.1 12.0078C21.1 13.2518 20.8609 14.4275 20.3825 15.535C19.9042 16.6427 19.253 17.6081 18.429 18.4313C17.6052 19.2544 16.6424 19.905 15.5408 20.383C14.4393 20.861 13.258 21.1 11.997 21.1Z" fill="currentColor"/>
</svg>
