<svg width="24" height="24" viewBox="0 0 24 24" fill="none" xmlns="http://www.w3.org/2000/svg">
<path d="M11.9917 21.7186C11.2687 21.7186 10.6542 21.4649 10.1481 20.9575C9.64199 20.4501 9.38894 19.834 9.38894 19.1092C9.38894 18.3844 9.64199 17.7678 10.1481 17.2592C10.6542 16.7509 11.2687 16.4967 11.9917 16.4967C12.7147 16.4967 13.332 16.7503 13.8436 17.2575C14.3552 17.7649 14.6111 18.381 14.6111 19.1058C14.6111 19.8307 14.3552 20.4474 13.8436 20.9558C13.332 21.4643 12.7147 21.7186 11.9917 21.7186ZM11.9954 20.2586C12.3179 20.2586 12.5911 20.1484 12.8151 19.928C13.0391 19.7074 13.1511 19.434 13.1511 19.108C13.1511 18.7821 13.0399 18.5087 12.8176 18.2878C12.595 18.0668 12.3194 17.9564 11.9908 17.9564C11.6712 17.9564 11.401 18.0684 11.1803 18.2924C10.9593 18.5164 10.8489 18.7881 10.8489 19.1075C10.8489 19.4269 10.9593 19.6986 11.1803 19.9226C11.401 20.1466 11.6727 20.2586 11.9954 20.2586ZM5.85254 18.1717C5.12956 18.1717 4.51502 17.918 4.00891 17.4106C3.50297 16.9032 3.25 16.2871 3.25 15.5623C3.25 14.8376 3.50297 14.2209 4.00891 13.7124C4.51502 13.204 5.12956 12.9498 5.85254 12.9498C6.57552 12.9498 7.19282 13.2034 7.70444 13.7107C8.21606 14.2181 8.47187 14.8342 8.47187 15.5592C8.47187 16.2839 8.21606 16.9005 7.70444 17.4089C7.19282 17.9174 6.57552 18.1717 5.85254 18.1717ZM18.1309 18.1717C17.4079 18.1717 16.7934 17.918 16.2873 17.4106C15.7812 16.9032 15.5281 16.2871 15.5281 15.5623C15.5281 14.8376 15.7812 14.2209 16.2873 13.7124C16.7934 13.204 17.4079 12.9498 18.1309 12.9498C18.8539 12.9498 19.4712 13.2034 19.9828 13.7107C20.4943 14.2181 20.75 14.8342 20.75 15.5592C20.75 16.2839 20.4943 16.9005 19.9828 17.4089C19.4712 17.9174 18.8539 18.1717 18.1309 18.1717ZM5.85619 16.7118C6.17883 16.7118 6.45208 16.6016 6.67593 16.3811C6.89995 16.1605 7.01196 15.8872 7.01196 15.5611C7.01196 15.2352 6.90076 14.9618 6.67837 14.7409C6.45597 14.5201 6.18037 14.4097 5.85157 14.4097C5.53217 14.4097 5.26201 14.5217 5.04107 14.7455C4.82014 14.9695 4.70967 15.2412 4.70967 15.5606C4.70967 15.8802 4.82014 16.1519 5.04107 16.3758C5.26201 16.5998 5.53371 16.7118 5.85619 16.7118ZM18.1343 16.7118C18.457 16.7118 18.7303 16.6016 18.9543 16.3811C19.1783 16.1605 19.2903 15.8872 19.2903 15.5611C19.2903 15.2352 19.1791 14.9618 18.9565 14.7409C18.7341 14.5201 18.4585 14.4097 18.1297 14.4097C17.8103 14.4097 17.5401 14.5217 17.3192 14.7455C17.0984 14.9695 16.988 15.2412 16.988 15.5606C16.988 15.8802 17.0984 16.1519 17.3192 16.3758C17.5401 16.5998 17.8118 16.7118 18.1343 16.7118ZM5.85254 11.078C5.12956 11.078 4.51502 10.8243 4.00891 10.3169C3.50297 9.80963 3.25 9.19354 3.25 8.46861C3.25 7.74385 3.50297 7.12719 4.00891 6.61866C4.51502 6.11028 5.12956 5.85609 5.85254 5.85609C6.57552 5.85609 7.19282 6.1098 7.70444 6.6172C8.21606 7.12444 8.47187 7.74052 8.47187 8.46545C8.47187 9.19022 8.21606 9.80687 7.70444 10.3154C7.19282 10.8238 6.57552 11.078 5.85254 11.078ZM18.1309 11.078C17.4079 11.078 16.7934 10.8243 16.2873 10.3169C15.7812 9.80963 15.5281 9.19354 15.5281 8.46861C15.5281 7.74385 15.7812 7.12719 16.2873 6.61866C16.7934 6.11028 17.4079 5.85609 18.1309 5.85609C18.8539 5.85609 19.4712 6.1098 19.9828 6.6172C20.4943 7.12444 20.75 7.74052 20.75 8.46545C20.75 9.19022 20.4943 9.80687 19.9828 10.3154C19.4712 10.8238 18.8539 11.078 18.1309 11.078ZM5.85619 9.61805C6.17883 9.61805 6.45208 9.50783 6.67593 9.28738C6.89995 9.06677 7.01196 8.79352 7.01196 8.46764C7.01196 8.14159 6.90076 7.8681 6.67837 7.64717C6.45597 7.42639 6.18037 7.31601 5.85157 7.31601C5.53217 7.31601 5.26201 7.42802 5.04107 7.65203C4.82014 7.87589 4.70967 8.14759 4.70967 8.46715C4.70967 8.78655 4.82014 9.05826 5.04107 9.28227C5.26201 9.50612 5.53371 9.61805 5.85619 9.61805ZM18.1343 9.61805C18.457 9.61805 18.7303 9.50783 18.9543 9.28738C19.1783 9.06677 19.2903 8.79352 19.2903 8.46764C19.2903 8.14159 19.1791 7.8681 18.9565 7.64717C18.7341 7.42639 18.4585 7.31601 18.1297 7.31601C17.8103 7.31601 17.5401 7.42802 17.3192 7.65203C17.0984 7.87589 16.988 8.14759 16.988 8.46715C16.988 8.78655 17.0984 9.05826 17.3192 9.28227C17.5401 9.50612 17.8118 9.61805 18.1343 9.61805ZM11.9917 7.50312C11.2687 7.50312 10.6542 7.24942 10.1481 6.74202C9.64199 6.23462 9.38894 5.61853 9.38894 4.89377C9.38894 4.169 9.64199 3.55235 10.1481 3.04381C10.6542 2.53544 11.2687 2.28125 11.9917 2.28125C12.7147 2.28125 13.332 2.53487 13.8436 3.04211C14.3552 3.54951 14.6111 4.16559 14.6111 4.89036C14.6111 5.61529 14.3552 6.23194 13.8436 6.74032C13.332 7.24885 12.7147 7.50312 11.9917 7.50312ZM11.9954 6.04321C12.3179 6.04321 12.5911 5.93298 12.8151 5.71254C13.0391 5.49193 13.1511 5.2186 13.1511 4.89255C13.1511 4.56667 13.0399 4.29326 12.8176 4.07232C12.595 3.85139 12.3194 3.74092 11.9908 3.74092C11.6712 3.74092 11.401 3.85293 11.1803 4.07694C10.9593 4.30096 10.8489 4.57267 10.8489 4.89206C10.8489 5.21162 10.9593 5.48333 11.1803 5.70718C11.401 5.9312 11.6727 6.04321 11.9954 6.04321Z" fill="#171719"/>
</svg>
