<svg width="16" height="16" viewBox="0 0 16 16" fill="none" xmlns="http://www.w3.org/2000/svg">
<path d="M7.99375 13.4397C7.85097 13.4397 7.70758 13.4141 7.56358 13.3629C7.41958 13.3115 7.29286 13.2312 7.18341 13.1219L6.22575 12.2514C5.04375 11.1736 3.98842 10.1148 3.05975 9.07502C2.13108 8.03525 1.66675 6.92136 1.66675 5.73336C1.66675 4.78725 1.98575 3.99514 2.62375 3.35702C3.26186 2.71902 4.05397 2.40002 5.00008 2.40002C5.53764 2.40002 6.06864 2.52397 6.59308 2.77186C7.11741 3.01975 7.58641 3.4223 8.00008 3.97952C8.41375 3.4223 8.88275 3.01975 9.40708 2.77186C9.93153 2.52397 10.4625 2.40002 11.0001 2.40002C11.9462 2.40002 12.7383 2.71902 13.3764 3.35702C14.0144 3.99514 14.3334 4.78725 14.3334 5.73336C14.3334 6.93425 13.8612 8.06052 12.9167 9.11219C11.9723 10.1639 10.9193 11.2136 9.75775 12.2615L8.81025 13.1219C8.70091 13.2312 8.57319 13.3115 8.42708 13.3629C8.28086 13.4141 8.13642 13.4397 7.99375 13.4397ZM7.52058 4.99236C7.15991 4.4428 6.78019 4.04002 6.38141 3.78402C5.98275 3.52802 5.5223 3.40002 5.00008 3.40002C4.33341 3.40002 3.77786 3.62225 3.33341 4.06669C2.88897 4.51114 2.66675 5.06669 2.66675 5.73336C2.66675 6.26836 2.83919 6.82775 3.18408 7.41152C3.52897 7.9953 3.96186 8.57563 4.48275 9.15252C5.00364 9.72952 5.56797 10.2932 6.17575 10.8435C6.78342 11.394 7.34664 11.9055 7.86542 12.3782C7.90386 12.4124 7.94875 12.4295 8.00008 12.4295C8.05141 12.4295 8.0963 12.4124 8.13475 12.3782C8.65353 11.9055 9.21675 11.394 9.82442 10.8435C10.4322 10.2932 10.9965 9.72952 11.5174 9.15252C12.0383 8.57563 12.4712 7.9953 12.8161 7.41152C13.161 6.82775 13.3334 6.26836 13.3334 5.73336C13.3334 5.06669 13.1112 4.51114 12.6667 4.06669C12.2223 3.62225 11.6667 3.40002 11.0001 3.40002C10.4779 3.40002 10.0174 3.52802 9.61875 3.78402C9.21997 4.04002 8.84025 4.4428 8.47958 4.99236C8.42314 5.0778 8.35219 5.14191 8.26675 5.18469C8.1813 5.22736 8.09241 5.24869 8.00008 5.24869C7.90775 5.24869 7.81886 5.22736 7.73342 5.18469C7.64797 5.14191 7.57703 5.0778 7.52058 4.99236Z" fill="currentColor"/>
</svg>
