<svg width="16" height="16" viewBox="0 0 16 16" fill="none" xmlns="http://www.w3.org/2000/svg">
<path d="M4.20517 14.3335C3.87372 14.3335 3.59 14.2155 3.354 13.9795C3.118 13.7435 3 13.4598 3 13.1283V6.872C3 6.54055 3.118 6.25683 3.354 6.02083C3.59 5.78483 3.87372 5.66683 4.20517 5.66683H10V4.3335C10 3.77794 9.80556 3.30572 9.41667 2.91683C9.02778 2.52794 8.55556 2.3335 8 2.3335C7.518 2.3335 7.09622 2.48583 6.73467 2.7905C6.37311 3.09527 6.14406 3.47372 6.0475 3.92583C6.01483 4.04861 5.94744 4.14722 5.84533 4.22166C5.74333 4.29622 5.629 4.3335 5.50233 4.3335C5.35889 4.3335 5.23933 4.28627 5.14367 4.19183C5.04789 4.09739 5.01239 3.98605 5.03717 3.85783C5.13372 3.14927 5.4615 2.55144 6.0205 2.06433C6.5795 1.57711 7.23933 1.3335 8 1.3335C8.83244 1.3335 9.54056 1.62538 10.1243 2.20916C10.7081 2.79294 11 3.50105 11 4.3335V5.66683H11.7948C12.1263 5.66683 12.41 5.78483 12.646 6.02083C12.882 6.25683 13 6.54055 13 6.872V13.1283C13 13.4598 12.882 13.7435 12.646 13.9795C12.41 14.2155 12.1263 14.3335 11.7948 14.3335H4.20517ZM8 11.1668C8.32389 11.1668 8.59933 11.0534 8.82633 10.8265C9.05322 10.5995 9.16667 10.3241 9.16667 10.0002C9.16667 9.67627 9.05322 9.40083 8.82633 9.17383C8.59933 8.94694 8.32389 8.8335 8 8.8335C7.67611 8.8335 7.40067 8.94694 7.17367 9.17383C6.94678 9.40083 6.83333 9.67627 6.83333 10.0002C6.83333 10.3241 6.94678 10.5995 7.17367 10.8265C7.40067 11.0534 7.67611 11.1668 8 11.1668Z" fill="currentColor"/>
</svg>
