<svg width="16" height="16" viewBox="0 0 16 16" fill="none" xmlns="http://www.w3.org/2000/svg">
<path d="M6.96914 7.99998L9.68464 10.7153C9.77686 10.8076 9.82409 10.9237 9.82631 11.0635C9.82842 11.2031 9.7812 11.3213 9.68464 11.418C9.58797 11.5145 9.47086 11.5628 9.33331 11.5628C9.19575 11.5628 9.07864 11.5145 8.98197 11.418L5.98581 8.42181C5.92347 8.35937 5.87947 8.29354 5.85381 8.22431C5.82814 8.15509 5.81531 8.08031 5.81531 7.99998C5.81531 7.91965 5.82814 7.84487 5.85381 7.77565C5.87947 7.70643 5.92347 7.64059 5.98581 7.57815L8.98197 4.58198C9.07431 4.48976 9.19036 4.44254 9.33014 4.44031C9.46981 4.4382 9.58797 4.48543 9.68464 4.58198C9.7812 4.67865 9.82947 4.79576 9.82947 4.93331C9.82947 5.07087 9.7812 5.18798 9.68464 5.28465L6.96914 7.99998Z" fill="currentColor"/>
</svg>
