<svg width="20" height="20" viewBox="0 0 20 20" fill="none" xmlns="http://www.w3.org/2000/svg">
<path d="M7.08258 5.58594C7.22683 7.9847 8.53382 10.624 11.3941 11.2148C8.53387 11.8055 7.22706 14.4461 7.08258 16.8447C6.93808 14.4459 5.63173 11.8053 2.77106 11.2148C5.63178 10.6242 6.93831 7.98487 7.08258 5.58594ZM14.1324 3.07031C14.1773 3.74669 14.3493 4.58009 14.7398 5.33789C15.2027 6.23614 15.9886 7.05177 17.233 7.32617C15.9885 7.60061 15.2027 8.41613 14.7398 9.31445C14.3495 10.072 14.1774 10.9048 14.1324 11.5811C14.0874 10.9048 13.9163 10.072 13.5259 9.31445C13.063 8.41616 12.2773 7.60075 11.0328 7.32617C12.2773 7.05186 13.063 6.23617 13.5259 5.33789C13.9164 4.58012 14.0874 3.74667 14.1324 3.07031Z" stroke="#171719"/>
</svg>
