<svg width="20" height="20" viewBox="0 0 20 20" fill="none" xmlns="http://www.w3.org/2000/svg">
<path d="M9.99588 12.5017C9.90657 12.5017 9.82352 12.4856 9.74671 12.4535C9.66991 12.4214 9.59942 12.3734 9.53525 12.3094L5.67213 8.44603C5.55213 8.32603 5.49421 8.19603 5.49838 8.05603C5.50268 7.91617 5.56518 7.78582 5.68588 7.66499C5.80671 7.5443 5.93574 7.48395 6.07296 7.48395C6.21018 7.48395 6.33921 7.5443 6.46004 7.66499L10 11.226L13.5609 7.66499C13.6763 7.54971 13.804 7.49416 13.944 7.49832C14.0839 7.50263 14.2142 7.56513 14.335 7.68582C14.4557 7.80666 14.5161 7.93568 14.5161 8.07291C14.5161 8.21013 14.4534 8.3411 14.328 8.46582L10.4648 12.3094C10.3951 12.3734 10.3219 12.4214 10.245 12.4535C10.1682 12.4856 10.0852 12.5017 9.99588 12.5017Z" fill="currentColor"/>
</svg>
