<svg width="24" height="24" viewBox="0 0 24 24" fill="none" xmlns="http://www.w3.org/2000/svg">
<path d="M11.2462 17.7635C11.2346 18.239 11.2749 18.7085 11.3672 19.172C11.4596 19.6355 11.5974 20.0782 11.7807 20.5C11.0192 20.4897 10.1827 20.4143 9.27123 20.274C8.35956 20.1337 7.49765 19.9212 6.68548 19.6365C5.87331 19.3518 5.1714 18.9916 4.57973 18.5557C3.98806 18.1199 3.62815 17.6013 3.49998 17V14.2788C3.62181 14.8326 3.95065 15.3192 4.48648 15.7385C5.02248 16.1577 5.66098 16.5112 6.40198 16.799C7.14298 17.0868 7.94331 17.3103 8.80298 17.4693C9.66248 17.6283 10.4769 17.7263 11.2462 17.7635ZM13.5115 12.9173C13.0538 13.2839 12.6571 13.7044 12.3212 14.1788C11.9852 14.6531 11.725 15.1749 11.5405 15.7443C10.7583 15.7238 9.92331 15.6366 9.03548 15.4827C8.14781 15.3289 7.31423 15.1097 6.53473 14.825C5.75523 14.5403 5.08665 14.1852 4.52898 13.7595C3.97115 13.334 3.62815 12.8341 3.49998 12.2598V9.52875C3.62815 10.1404 4.00348 10.6667 4.62598 11.1077C5.24848 11.5487 5.98023 11.9115 6.82123 12.196C7.66223 12.4807 8.54873 12.6907 9.48073 12.826C10.4127 12.9612 11.2525 13.0288 12 13.0288C12.2538 13.0288 12.5054 13.0182 12.7547 12.997C13.0042 12.9758 13.2565 12.9493 13.5115 12.9173ZM12 11C9.63465 11 7.62506 10.634 5.97123 9.902C4.3174 9.16983 3.49048 8.28583 3.49048 7.25C3.49048 6.21417 4.3174 5.33017 5.97123 4.598C7.62506 3.866 9.63465 3.5 12 3.5C14.3653 3.5 16.3733 3.866 18.024 4.598C19.6746 5.33017 20.5 6.21417 20.5 7.25C20.5 8.28583 19.6746 9.16983 18.024 9.902C16.3733 10.634 14.3653 11 12 11ZM17.4615 16.602V20.2595C17.4615 20.38 17.5051 20.4839 17.5922 20.5712C17.6794 20.6584 17.7832 20.702 17.9037 20.702C18.0242 20.702 18.1281 20.6584 18.2152 20.5712C18.3026 20.4839 18.3462 20.38 18.3462 20.2595V16.602L19.8345 18.0903C19.9216 18.1776 20.0239 18.2228 20.1412 18.226C20.2586 18.2292 20.3641 18.1839 20.4577 18.0903C20.5512 17.9967 20.598 17.8929 20.598 17.7788C20.598 17.6648 20.5512 17.5609 20.4577 17.4672L18.5365 15.5463C18.3556 15.3654 18.1447 15.275 17.9037 15.275C17.6627 15.275 17.4519 15.3654 17.2712 15.5463L15.35 17.4672C15.2628 17.5544 15.2176 17.6567 15.2145 17.774C15.2111 17.8913 15.2563 17.9967 15.35 18.0903C15.4436 18.1839 15.5475 18.2308 15.6615 18.2308C15.7756 18.2308 15.8795 18.1839 15.973 18.0903L17.4615 16.602ZM17.9037 22.3078C16.6551 22.3078 15.5929 21.8699 14.7172 20.9943C13.8417 20.1186 13.404 19.0564 13.404 17.8077C13.404 16.5589 13.8417 15.4967 14.7172 14.6213C15.5929 13.7456 16.6551 13.3077 17.9037 13.3077C19.1526 13.3077 20.2147 13.7456 21.0902 14.6213C21.9659 15.4967 22.4037 16.5589 22.4037 17.8077C22.4037 19.0564 21.9659 20.1186 21.0902 20.9943C20.2147 21.8699 19.1526 22.3078 17.9037 22.3078Z" fill="currentColor"/>
</svg>
