<svg width="24" height="24" viewBox="0 0 24 24" fill="none" xmlns="http://www.w3.org/2000/svg">
<path d="M11.9906 13.0393L7.25224 17.7779C7.09866 17.9313 6.93334 18.0053 6.75628 17.9997C6.57941 17.994 6.41058 17.9108 6.24979 17.7502C6.08919 17.5894 6.00888 17.4177 6.00888 17.2351C6.00888 17.0525 6.08919 16.8808 6.24979 16.72L10.9607 12.0094L6.22207 7.27108C6.06867 7.1175 5.99475 6.94756 6.00029 6.76126C6.00602 6.57515 6.08919 6.4017 6.24979 6.24091C6.41058 6.0803 6.58228 6 6.76488 6C6.94748 6 7.11917 6.0803 7.27996 6.24091L11.9906 10.9795L16.7289 6.24091C16.8825 6.08751 17.0524 6.00896 17.2387 6.00527C17.4248 6.00176 17.5983 6.0803 17.7591 6.24091C17.9197 6.4017 18 6.5734 18 6.75599C18 6.93859 17.9197 7.11029 17.7591 7.27108L13.0205 12.0094L17.7591 16.7478C17.9125 16.9013 17.991 17.0667 17.9947 17.2437C17.9982 17.4206 17.9197 17.5894 17.7591 17.7502C17.5983 17.9108 17.4266 17.9911 17.244 17.9911C17.0614 17.9911 16.8897 17.9108 16.7289 17.7502L11.9906 13.0393Z" fill="currentColor"/>
</svg>
