<svg width="20" height="20" viewBox="0 0 20 20" fill="none" xmlns="http://www.w3.org/2000/svg">
<path d="M9.99992 14.5513L6.69221 15.9711C6.19013 16.1858 5.71311 16.1447 5.26117 15.8478C4.80922 15.5508 4.58325 15.1331 4.58325 14.5947V4.42321C4.58325 4.00223 4.72909 3.64591 5.02075 3.35425C5.31242 3.06258 5.66874 2.91675 6.08971 2.91675H13.9101C14.3311 2.91675 14.6874 3.06258 14.9791 3.35425C15.2708 3.64591 15.4166 4.00223 15.4166 4.42321V14.5947C15.4166 15.1331 15.1906 15.5508 14.7387 15.8478C14.2867 16.1447 13.8097 16.1858 13.3076 15.9711L9.99992 14.5513ZM9.99992 13.1667L13.806 14.8061C13.8915 14.8435 13.973 14.8355 14.0503 14.7822C14.1278 14.7287 14.1666 14.6565 14.1666 14.5657V4.42321C14.1666 4.35904 14.1398 4.30029 14.0864 4.24696C14.033 4.19348 13.9743 4.16675 13.9101 4.16675H6.08971C6.02554 4.16675 5.96679 4.19348 5.91346 4.24696C5.85999 4.30029 5.83325 4.35904 5.83325 4.42321V14.5657C5.83325 14.6565 5.872 14.7287 5.9495 14.7822C6.02686 14.8355 6.10832 14.8435 6.19388 14.8061L9.99992 13.1667ZM9.99992 4.16675H5.83325H14.1666H9.99992Z" fill="currentColor"/>
</svg>
