<svg width="16" height="16" viewBox="0 0 16 16" fill="none" xmlns="http://www.w3.org/2000/svg">
<path d="M7.5 4.91534L4.05384 8.36151C3.95473 8.46062 3.83873 8.50956 3.70584 8.50834C3.57295 8.50701 3.45478 8.45468 3.35134 8.35134C3.25478 8.2479 3.20478 8.13079 3.20134 8.00001C3.19789 7.86923 3.24789 7.75212 3.35134 7.64868L7.57817 3.42184C7.64062 3.3594 7.70645 3.3154 7.77567 3.28984C7.84489 3.26418 7.91967 3.25134 8 3.25134C8.08034 3.25134 8.15512 3.26418 8.22434 3.28984C8.29356 3.3154 8.35939 3.3594 8.42184 3.42184L12.6487 7.64868C12.741 7.74101 12.7882 7.85534 12.7903 7.99168C12.7924 8.12801 12.7452 8.2479 12.6487 8.35134C12.5452 8.45468 12.4264 8.50634 12.2923 8.50634C12.1581 8.50634 12.0393 8.45468 11.9358 8.35134L8.5 4.91534V12.5C8.5 12.6419 8.45212 12.7607 8.35634 12.8563C8.26067 12.9521 8.14189 13 8 13C7.85812 13 7.73934 12.9521 7.64367 12.8563C7.54789 12.7607 7.5 12.6419 7.5 12.5V4.91534Z" fill="currentColor"/>
</svg>
