<svg width="16" height="16" viewBox="0 0 16 16" fill="none" xmlns="http://www.w3.org/2000/svg">
<path d="M10.6979 3.62669C10.8374 3.62669 11.0753 3.64926 11.4116 3.69439C11.7478 3.73952 12.1158 3.86847 12.5155 4.08124C12.9215 4.28756 13.2895 4.63249 13.6193 5.11605C13.6003 5.1354 13.5083 5.20632 13.3434 5.32882C13.1784 5.44487 12.9944 5.61896 12.7914 5.85106C12.5884 6.07672 12.4108 6.36686 12.2585 6.72147C12.1063 7.06963 12.0301 7.48549 12.0301 7.96905C12.0301 8.52353 12.1253 8.9942 12.3156 9.38104C12.5123 9.76789 12.7375 10.0806 12.9913 10.3191C13.2514 10.5513 13.4798 10.7221 13.6764 10.8317C13.8795 10.9413 13.9873 10.9994 14 11.0058C13.9937 11.0316 13.9112 11.2605 13.7526 11.6925C13.6003 12.1244 13.3465 12.6048 12.9913 13.1335C12.6804 13.5912 12.3442 14.0135 11.9826 14.4004C11.6273 14.7872 11.199 14.9807 10.6979 14.9807C10.3616 14.9807 10.0856 14.9323 9.86994 14.8356C9.65424 14.7324 9.4322 14.6325 9.20381 14.5358C8.97542 14.4326 8.66772 14.381 8.28073 14.381C7.90642 14.381 7.59239 14.4326 7.33862 14.5358C7.0912 14.6389 6.85329 14.7421 6.6249 14.8453C6.40285 14.9484 6.13957 15 5.83505 15C5.37193 15 4.9659 14.813 4.61697 14.4391C4.26804 14.0651 3.9096 13.617 3.54163 13.0948C3.11657 12.4758 2.75178 11.7215 2.44726 10.8317C2.14909 9.93552 2 9.03288 2 8.12379C2 7.15023 2.18081 6.33462 2.54243 5.67698C2.90404 5.01289 3.36717 4.51322 3.9318 4.17795C4.50278 3.83623 5.09278 3.66538 5.70182 3.66538C6.02538 3.66538 6.3299 3.72018 6.61538 3.82979C6.90087 3.93295 7.16733 4.03933 7.41475 4.14894C7.66852 4.25854 7.89691 4.31335 8.09992 4.31335C8.29659 4.31335 8.52498 4.25532 8.78509 4.13927C9.0452 4.02321 9.33703 3.91038 9.66059 3.80077C9.98414 3.68472 10.3299 3.62669 10.6979 3.62669ZM10.1745 2.39845C9.92704 2.70148 9.61618 2.95616 9.24187 3.16248C8.86757 3.36235 8.51229 3.46228 8.17605 3.46228C8.10626 3.46228 8.03965 3.45583 7.97621 3.44294C7.96987 3.4236 7.96352 3.38814 7.95718 3.33656C7.95083 3.28498 7.94766 3.23017 7.94766 3.17215C7.94766 2.7853 8.03013 2.41135 8.19508 2.05029C8.36003 1.68279 8.54718 1.37975 8.75654 1.1412C9.023 0.818827 9.35924 0.551257 9.76527 0.338491C10.1713 0.125725 10.5583 0.0128949 10.9262 0C10.9453 0.0838169 10.9548 0.183752 10.9548 0.299807C10.9548 0.686654 10.8818 1.06383 10.7359 1.43133C10.59 1.79239 10.4029 2.11476 10.1745 2.39845Z" fill="currentColor"/>
</svg>
