<svg width="20" height="20" viewBox="0 0 20 20" fill="none" xmlns="http://www.w3.org/2000/svg">
<path d="M9.45833 14.4936V5.49046L8.43917 6.50171C8.32514 6.61699 8.19646 6.67463 8.05312 6.67463C7.90979 6.67463 7.78264 6.61963 7.67167 6.50963C7.55722 6.39601 7.5 6.26879 7.5 6.12796C7.5 5.98713 7.55771 5.859 7.67312 5.74358L9.53292 3.88379C9.59861 3.8181 9.67222 3.76928 9.75375 3.73733C9.83528 3.70525 9.91965 3.68921 10.0069 3.68921C10.0942 3.68921 10.1777 3.70525 10.2573 3.73733C10.3369 3.76928 10.4094 3.8181 10.475 3.88379L12.335 5.74358C12.4503 5.859 12.5093 5.98324 12.5121 6.11629C12.5147 6.24921 12.4562 6.37338 12.3367 6.48879C12.2201 6.60421 12.0919 6.66192 11.9519 6.66192C11.812 6.66192 11.6844 6.60421 11.569 6.48879L10.5417 5.49046V14.4936L11.5608 13.4905C11.6749 13.375 11.8035 13.3173 11.9469 13.3173C12.0902 13.3173 12.2174 13.3723 12.3283 13.4823C12.4428 13.5959 12.5 13.7232 12.5 13.864C12.5 14.0048 12.4423 14.133 12.3269 14.2484L10.4671 16.1082C10.4014 16.1739 10.3284 16.2228 10.2481 16.2548C10.1678 16.2869 10.0848 16.303 9.99896 16.303C9.91313 16.303 9.82882 16.2868 9.74604 16.2544C9.66326 16.2222 9.59035 16.1743 9.52729 16.1107L7.665 14.2484C7.55139 14.1343 7.49896 14.0057 7.50771 13.8623C7.51646 13.7191 7.57583 13.5921 7.68583 13.4811C7.79944 13.3666 7.92667 13.3094 8.0675 13.3094C8.20833 13.3094 8.33646 13.3671 8.45188 13.4823L9.45833 14.4936Z" fill="currentColor"/>
</svg>
