<svg width="24" height="24" viewBox="0 0 24 24" fill="none" xmlns="http://www.w3.org/2000/svg">
<path d="M8.49966 6.08154C8.5216 6.08159 8.54268 6.09053 8.55826 6.10596C8.57391 6.12161 8.58267 6.14339 8.58267 6.16553C8.58275 9.17027 10.1318 12.669 13.7663 13.3765C13.7848 13.3804 13.8011 13.3911 13.8131 13.4058C13.8254 13.4207 13.8327 13.4392 13.8327 13.4585C13.8327 13.4778 13.8254 13.4963 13.8131 13.5112C13.807 13.5187 13.7998 13.5249 13.7917 13.5298L13.7653 13.5405C10.1315 14.2484 8.58278 17.747 8.58267 20.7515C8.58267 20.7736 8.57391 20.7954 8.55826 20.811C8.54267 20.8265 8.52162 20.8354 8.49966 20.8354C8.47753 20.8354 8.45574 20.8267 8.44009 20.811C8.42448 20.7954 8.41568 20.7736 8.41568 20.7515C8.41558 17.7468 6.86727 14.2481 3.23306 13.5405H3.23404C3.21508 13.5368 3.19748 13.5262 3.18521 13.5112C3.17314 13.4964 3.16666 13.4777 3.16666 13.4585C3.16667 13.4393 3.17312 13.4206 3.18521 13.4058C3.19706 13.3913 3.2139 13.3815 3.23209 13.3774C6.86683 12.6702 8.4156 9.17038 8.41568 6.16553C8.41568 6.1434 8.42446 6.12161 8.44009 6.10596C8.45575 6.09031 8.47753 6.08154 8.49966 6.08154ZM16.9596 3.16455C16.9817 3.16455 17.0026 3.17346 17.0182 3.18896C17.0338 3.20451 17.0425 3.22559 17.0426 3.24756C17.0426 4.10421 17.2292 5.29582 17.777 6.35889C18.3307 7.43344 19.2713 8.40181 20.7672 8.7085V8.70947C20.7858 8.71344 20.8031 8.72303 20.8151 8.73779C20.8271 8.75259 20.8336 8.77146 20.8336 8.79053C20.8336 8.80954 20.827 8.82845 20.8151 8.84326C20.8091 8.85057 20.8015 8.85694 20.7936 8.86182L20.7672 8.87256C19.2712 9.17921 18.3308 10.1485 17.777 11.2231C17.2293 12.2861 17.0427 13.4769 17.0426 14.3335C17.0426 14.3556 17.0339 14.3774 17.0182 14.3931C17.0026 14.4085 16.9816 14.4175 16.9596 14.4175C16.9377 14.4175 16.9166 14.4085 16.901 14.3931C16.8854 14.3774 16.8766 14.3556 16.8766 14.3335C16.8766 13.4769 16.69 12.286 16.1422 11.2231C15.5884 10.1484 14.6476 9.17929 13.151 8.87256H13.152C13.1334 8.8686 13.1171 8.858 13.1051 8.84326C13.093 8.82838 13.0856 8.80971 13.0856 8.79053C13.0857 8.77146 13.0931 8.75259 13.1051 8.73779C13.1171 8.72329 13.1336 8.71341 13.152 8.70947L13.151 8.7085C14.6476 8.40203 15.5884 7.43367 16.1422 6.35889C16.6901 5.29582 16.8766 4.10421 16.8766 3.24756C16.8767 3.22559 16.8855 3.20451 16.901 3.18896C16.9167 3.17345 16.9376 3.16455 16.9596 3.16455Z" stroke="#171719"/>
</svg>
