<svg width="20" height="20" viewBox="0 0 20 20" fill="none" xmlns="http://www.w3.org/2000/svg">
<path d="M10.0002 13.9584C10.1774 13.9584 10.3258 13.8984 10.4454 13.7786C10.5651 13.6589 10.625 13.5105 10.625 13.3334V9.79171C10.625 9.61462 10.565 9.46615 10.4452 9.34629C10.3253 9.22657 10.1769 9.16671 9.99977 9.16671C9.82255 9.16671 9.67415 9.22657 9.55456 9.34629C9.43484 9.46615 9.37498 9.61462 9.37498 9.79171V13.3334C9.37498 13.5105 9.43491 13.6589 9.55477 13.7786C9.67463 13.8984 9.8231 13.9584 10.0002 13.9584ZM9.99998 7.74046C10.1907 7.74046 10.3505 7.67594 10.4796 7.54692C10.6086 7.41789 10.6731 7.25803 10.6731 7.06733C10.6731 6.87664 10.6086 6.71678 10.4796 6.58775C10.3505 6.45886 10.1907 6.39442 9.99998 6.39442C9.80928 6.39442 9.64942 6.45886 9.5204 6.58775C9.39137 6.71678 9.32685 6.87664 9.32685 7.06733C9.32685 7.25803 9.39137 7.41789 9.5204 7.54692C9.64942 7.67594 9.80928 7.74046 9.99998 7.74046ZM10.0014 17.9167C8.90644 17.9167 7.8772 17.7089 6.91373 17.2934C5.95026 16.8778 5.1122 16.3139 4.39956 15.6015C3.68692 14.8891 3.12269 14.0514 2.70685 13.0884C2.29116 12.1253 2.08331 11.0964 2.08331 10.0015C2.08331 8.9065 2.29109 7.87726 2.70665 6.91379C3.1222 5.95032 3.68616 5.11226 4.39852 4.39962C5.11088 3.68698 5.94859 3.12275 6.91165 2.70692C7.8747 2.29122 8.90366 2.08337 9.99852 2.08337C11.0935 2.08337 12.1228 2.29115 13.0862 2.70671C14.0497 3.12226 14.8878 3.68622 15.6004 4.39858C16.313 5.11094 16.8773 5.94865 17.2931 6.91171C17.7088 7.87476 17.9166 8.90372 17.9166 9.99858C17.9166 11.0936 17.7089 12.1228 17.2933 13.0863C16.8778 14.0498 16.3138 14.8878 15.6014 15.6005C14.8891 16.3131 14.0514 16.8773 13.0883 17.2932C12.1253 17.7089 11.0963 17.9167 10.0014 17.9167ZM9.99998 16.6667C11.8611 16.6667 13.4375 16.0209 14.7291 14.7292C16.0208 13.4375 16.6666 11.8612 16.6666 10C16.6666 8.13893 16.0208 6.56254 14.7291 5.27087C13.4375 3.97921 11.8611 3.33337 9.99998 3.33337C8.13887 3.33337 6.56248 3.97921 5.27081 5.27087C3.97915 6.56254 3.33331 8.13893 3.33331 10C3.33331 11.8612 3.97915 13.4375 5.27081 14.7292C6.56248 16.0209 8.13887 16.6667 9.99998 16.6667Z" fill="white"/>
</svg>
