<svg width="20" height="20" viewBox="0 0 20 20" fill="none" xmlns="http://www.w3.org/2000/svg">
<path d="M9.99565 13.7757C10.1615 13.7757 10.302 13.7196 10.4171 13.6074C10.5322 13.4952 10.5898 13.3561 10.5898 13.1903C10.5898 13.0245 10.5337 12.884 10.4215 12.7688C10.3093 12.6538 10.1702 12.5963 10.0044 12.5963C9.83856 12.5963 9.69808 12.6524 9.58294 12.7645C9.4678 12.8767 9.41023 13.0157 9.41023 13.1815C9.41023 13.3474 9.46634 13.4879 9.57856 13.603C9.69078 13.7181 9.82981 13.7757 9.99565 13.7757ZM9.99585 11.0642C10.1482 11.0642 10.2772 11.0123 10.3829 10.9084C10.4888 10.8047 10.5417 10.6761 10.5417 10.5226V6.60592C10.5417 6.45244 10.4902 6.32376 10.3871 6.21987C10.284 6.11612 10.1564 6.06425 10.0042 6.06425C9.85183 6.06425 9.7228 6.11612 9.6171 6.21987C9.51127 6.32376 9.45835 6.45244 9.45835 6.60592V10.5226C9.45835 10.6761 9.50988 10.8047 9.61294 10.9084C9.71599 11.0123 9.84363 11.0642 9.99585 11.0642ZM10.0071 17.5834C8.96391 17.5834 7.98141 17.3861 7.0596 16.9913C6.1378 16.5966 5.33099 16.0535 4.63919 15.362C3.94738 14.6704 3.40398 13.8642 3.00898 12.9434C2.61412 12.0227 2.41669 11.0389 2.41669 9.99196C2.41669 8.94501 2.61405 7.96411 3.00877 7.04925C3.40349 6.13439 3.94662 5.33105 4.63815 4.63925C5.32967 3.94744 6.13585 3.40404 7.05669 3.00904C7.97738 2.61418 8.9612 2.41675 10.0081 2.41675C11.0551 2.41675 12.036 2.61411 12.9509 3.00883C13.8657 3.40355 14.669 3.94668 15.3609 4.63821C16.0527 5.32973 16.5961 6.13425 16.9911 7.05175C17.3859 7.96939 17.5834 8.9498 17.5834 9.993C17.5834 11.0362 17.386 12.0187 16.9913 12.9405C16.5965 13.8623 16.0534 14.6691 15.3619 15.3609C14.6704 16.0527 13.8659 16.5961 12.9484 16.9911C12.0307 17.386 11.0503 17.5834 10.0071 17.5834ZM10 16.5001C11.8056 16.5001 13.3403 15.8681 14.6042 14.6042C15.8681 13.3404 16.5 11.8056 16.5 10.0001C16.5 8.19453 15.8681 6.6598 14.6042 5.39591C13.3403 4.13203 11.8056 3.50008 10 3.50008C8.19447 3.50008 6.65974 4.13203 5.39585 5.39591C4.13196 6.6598 3.50002 8.19453 3.50002 10.0001C3.50002 11.8056 4.13196 13.3404 5.39585 14.6042C6.65974 15.8681 8.19447 16.5001 10 16.5001Z" fill="#FB2C36"/>
</svg>
