<svg width="45" height="44" viewBox="0 0 45 44" fill="none" xmlns="http://www.w3.org/2000/svg">
<path d="M19.3202 29.6685C22.4243 29.6685 25.0605 28.5821 27.2287 26.4093C29.3969 24.2365 30.481 21.5982 30.481 18.4943C30.481 15.3902 29.3959 12.7511 27.2255 10.5771C25.0551 8.40305 22.4197 7.31604 19.3192 7.31604C16.2188 7.31604 13.5814 8.40229 11.407 10.5748C9.23301 12.7476 8.146 15.3861 8.146 18.4902C8.146 21.594 9.2324 24.233 11.4052 26.407C13.578 28.5813 16.2163 29.6685 19.3202 29.6685ZM19.3225 32.4185C15.4511 32.4185 12.1622 31.0652 9.45591 28.3586C6.7493 25.652 5.396 22.3631 5.396 18.492C5.396 14.621 6.7493 11.3321 9.45591 8.6255C12.1622 5.91919 15.4511 4.56604 19.3225 4.56604C23.1935 4.56604 26.4793 5.91919 29.1798 8.6255C31.8806 11.3321 33.231 14.621 33.231 18.492C33.231 20.1778 32.9548 21.7656 32.4024 23.2555C31.8499 24.7454 31.079 26.0933 30.0896 27.2994L39.281 36.4903C39.5536 36.7598 39.6899 37.0799 39.6899 37.4505C39.6899 37.8212 39.5524 38.1487 39.2774 38.4332C39.0021 38.7174 38.6753 38.8595 38.297 38.8595C37.9187 38.8595 37.5873 38.7174 37.3029 38.4332L28.1293 29.2592C26.9236 30.2605 25.5758 31.0374 24.0859 31.5898C22.5957 32.1423 21.0079 32.4185 19.3225 32.4185Z" fill="#7B7E85"/>
</svg>
